<?xml version="1.0" encoding="UTF-8" standalone="no"?>
<svg
   xmlns:dc="http://purl.org/dc/elements/1.1/"
   xmlns:cc="http://creativecommons.org/ns#"
   xmlns:rdf="http://www.w3.org/1999/02/22-rdf-syntax-ns#"
   xmlns:svg="http://www.w3.org/2000/svg"
   xmlns="http://www.w3.org/2000/svg"
   xmlns:sodipodi="http://sodipodi.sourceforge.net/DTD/sodipodi-0.dtd"
   xmlns:inkscape="http://www.inkscape.org/namespaces/inkscape"
   id="Layer_2"
   data-name="Layer 2"
   viewBox="0 0 1220.73 563.54"
   version="1.1"
   sodipodi:docname="angelprotocol-beta-H-logo-wht2.svg"
   inkscape:version="0.92.4 (5da689c313, 2019-01-14)">
  <metadata
     id="metadata60">
    <rdf:RDF>
      <cc:Work
         rdf:about="">
        <dc:format>image/svg+xml</dc:format>
        <dc:type
           rdf:resource="http://purl.org/dc/dcmitype/StillImage" />
        <dc:title></dc:title>
      </cc:Work>
    </rdf:RDF>
  </metadata>
  <sodipodi:namedview
     pagecolor="#ffffff"
     bordercolor="#666666"
     borderopacity="1"
     objecttolerance="10"
     gridtolerance="10"
     guidetolerance="10"
     inkscape:pageopacity="0"
     inkscape:pageshadow="2"
     inkscape:window-width="1920"
     inkscape:window-height="1009"
     id="namedview58"
     showgrid="false"
     inkscape:zoom="0.23264768"
     inkscape:cx="610.36499"
     inkscape:cy="281.76999"
     inkscape:window-x="-8"
     inkscape:window-y="-8"
     inkscape:window-maximized="1"
     inkscape:current-layer="Layer_2" />
  <defs
     id="defs4">
    <style
       id="style2">
      .cls-1 {
        fill: #fff;
      }
    </style>
  </defs>
  <g
     id="Layer_1-2"
     data-name="Layer 1">
    <g
       id="g54">
      <rect
         class="cls-1"
         x="936.96"
         y="389.85"
         width="283.77"
         height="122.32"
         id="rect6" />
      <g
         id="g14">
        <path
           class="cls-1"
           d="m276.9,27.5c-68.37,37.48-117.08,133.15-95.39,186.26,4.74-11.34,8.26-22.58,13.97-32.58,5.41-9.47,13.11-17.65,20.21-26.93,2.76,3.53,4.15,4.5,4.08,5.33-5.19,58.17,22.92,101.41,61.9,140.48,14.35,14.39,29.04,29.85,38.23,47.57,9.57,18.47,12.7,40.25,15.07,62.08-9.78-65-60-97.77-104.96-134.81-26.65-21.96-53.63-43.76-78.36-67.78C99.21,156.2,69.19,94.06,63.65,20.77c-.48-6.37-1.36-12.71-2.11-19.05-.07-.6-.52-1.15-.8-1.72C28.47,40.07-4.58,150.46,4.23,231.87c8.42,77.81,44.93,139.69,108.62,186.14-45.35-66.79-68.3-140.07-67.05-224.8,3.3,5.5,5.16,7.56,5.88,9.96,14.44,48.5,47.42,80.74,91.25,103.42,14.78,7.65,29.73,14.95,44.6,22.41,82.85,41.61,107.7,91.02,91.83,182.46-1.08,6.21-1.92,12.46-2.99,19.46,68.74-30.5,102.64-115.75,73.04-182.13-7.27-16.3-15.47-32.33-24.76-47.57-51.58-84.63-76.36-173.93-47.75-273.72Z"
           id="path8" />
        <path
           class="cls-1"
           d="m196.78,514.95C102.25,492.86,43.6,430.52,2.6,346.88c-20.17,93.26,80.25,179.87,194.18,168.07Z"
           id="path10" />
        <path
           class="cls-1"
           d="m52.2,509.77c15.26,45.37,81.93,64.93,141.39,47.4-24.14-5.04-50.4-8.14-74.94-16.33-23.67-7.9-45.57-21.07-66.44-31.06Z"
           id="path12" />
      </g>
      <g
         id="g26">
        <path
           class="cls-1"
           d="m390.57,243.79c0-44.64,31.28-75.35,75.92-75.35s74.78,29.85,74.78,75.06v69.09h-30.99v-27.58c-8.53,20.76-27.58,31.28-49.76,31.28-34.12,0-69.95-24.45-69.95-72.51Zm116.86-1.42c0-24.74-16.49-42.37-41.23-42.37s-41.51,17.63-41.51,42.37,16.78,42.37,41.51,42.37,41.23-17.63,41.23-42.37Z"
           id="path16" />
        <path
           class="cls-1"
           d="m587.04,239.53c0-46.91,27.87-71.08,69.38-71.08s69.38,23.88,69.38,71.08v73.07h-33.84v-73.07c0-26.73-14.22-39.52-35.54-39.52s-35.54,12.8-35.54,39.52v73.07h-33.84v-73.07Z"
           id="path18" />
        <path
           class="cls-1"
           d="m770.72,327.96h34.12c5.69,13.08,19.33,19.05,37.25,19.05,25.02,0,40.66-11.66,40.66-44.36v-12.23c-9.67,15.64-26.44,24.17-47.48,24.17-33.55,0-69.38-22.46-69.38-72.22,0-42.65,31.28-73.93,75.63-73.93s75.07,29.57,75.07,75.06v58.01c0,53.74-33.27,74.78-74.5,74.78-34.97,0-62.55-15.07-71.37-48.34Zm112.03-85.59c0-24.74-16.49-42.37-41.23-42.37s-41.51,17.63-41.51,42.37,16.78,40.66,41.51,40.66,41.23-15.92,41.23-40.66Z"
           id="path20" />
        <path
           class="cls-1"
           d="m956.66,242.37c0-42.65,31.28-73.93,75.63-73.93s75.07,31.28,75.07,73.93v11.94h-115.16c4.55,20.47,20.19,31.28,40.09,31.28,15.07,0,26.16-4.27,33.27-13.36h36.11c-10.52,26.73-36.11,44.07-69.38,44.07-44.36,0-75.63-31.28-75.63-73.93Zm114.87-15.07c-5.4-18.77-20.76-28.15-39.24-28.15s-33.84,9.67-39.24,28.15h78.48Z"
           id="path22" />
        <path
           class="cls-1"
           d="m1152.28,110.73h33.84v201.88h-33.84V110.73Z"
           id="path24" />
      </g>
      <g
         id="g52">
        <path
           class="cls-1"
           d="m412.49,477.15v-48.6h20c4.3,0,8,.68,11.07,2.05,3.08,1.37,5.45,3.34,7.12,5.94,1.67,2.59,2.5,5.69,2.5,9.3s-.83,6.63-2.5,9.2c-1.67,2.57-4.04,4.56-7.12,5.97-3.08,1.41-6.77,2.12-11.07,2.12h-14.93l3.96-4.17v18.19h-9.03Zm9.03-17.22l-3.96-4.44h14.51c3.98,0,6.98-.84,8.99-2.53,2.01-1.69,3.02-4.06,3.02-7.12s-1.01-5.43-3.02-7.12c-2.01-1.69-5.01-2.53-8.99-2.53h-14.51l3.96-4.44v28.19Z"
           id="path28" />
        <path
           class="cls-1"
           d="m476.08,477.15v-48.6h20c4.3,0,8,.68,11.07,2.05,3.08,1.37,5.45,3.34,7.12,5.94,1.67,2.59,2.5,5.69,2.5,9.3s-.83,6.62-2.5,9.16c-1.67,2.55-4.04,4.51-7.12,5.9-3.08,1.39-6.77,2.08-11.07,2.08h-14.93l3.96-4.03v18.19h-9.03Zm9.03-17.22l-3.96-4.37h14.51c3.98,0,6.98-.86,8.99-2.57,2.01-1.71,3.02-4.1,3.02-7.15s-1.01-5.43-3.02-7.12c-2.01-1.69-5.01-2.53-8.99-2.53h-14.51l3.96-4.44v28.19Zm22.77,17.22l-12.29-17.63h9.65l12.36,17.63h-9.72Z"
           id="path30" />
        <path
           class="cls-1"
           d="m563.49,477.85c-3.75,0-7.23-.62-10.45-1.88-3.22-1.25-6.01-3.01-8.37-5.28-2.36-2.27-4.19-4.92-5.48-7.95-1.3-3.03-1.94-6.33-1.94-9.89s.65-6.93,1.94-9.96c1.29-3.03,3.12-5.67,5.48-7.92,2.36-2.24,5.14-3.99,8.33-5.24,3.19-1.25,6.69-1.88,10.48-1.88s7.22.61,10.41,1.84c3.19,1.23,5.96,2.96,8.3,5.21,2.34,2.25,4.15,4.89,5.45,7.95,1.29,3.06,1.94,6.39,1.94,10s-.65,6.93-1.94,9.96c-1.3,3.03-3.11,5.68-5.45,7.95-2.34,2.27-5.1,4.02-8.3,5.24s-6.67,1.84-10.41,1.84Zm0-7.92c2.45,0,4.71-.42,6.77-1.25,2.06-.83,3.85-2.01,5.38-3.54s2.72-3.33,3.58-5.42c.86-2.08,1.28-4.37,1.28-6.87s-.42-4.79-1.25-6.87-2.03-3.89-3.58-5.42c-1.55-1.53-3.36-2.71-5.42-3.54-2.06-.83-4.32-1.25-6.77-1.25s-4.73.42-6.84,1.25c-2.11.83-3.92,2.02-5.45,3.58s-2.73,3.36-3.61,5.42c-.88,2.06-1.32,4.34-1.32,6.84s.44,4.72,1.32,6.8c.88,2.08,2.08,3.9,3.61,5.45,1.53,1.55,3.34,2.74,5.45,3.58,2.11.83,4.38,1.25,6.84,1.25Z"
           id="path32" />
        <path
           class="cls-1"
           d="m622.23,477.15v-40.96h-16.11v-7.64h41.24v7.64h-16.11v40.96h-9.03Z"
           id="path34" />
        <path
           class="cls-1"
           d="m690.13,477.85c-3.75,0-7.23-.62-10.45-1.88-3.22-1.25-6.01-3.01-8.37-5.28-2.36-2.27-4.19-4.92-5.48-7.95-1.3-3.03-1.94-6.33-1.94-9.89s.65-6.93,1.94-9.96c1.29-3.03,3.12-5.67,5.48-7.92,2.36-2.24,5.14-3.99,8.33-5.24,3.19-1.25,6.69-1.88,10.48-1.88s7.22.61,10.41,1.84c3.19,1.23,5.96,2.96,8.3,5.21,2.34,2.25,4.15,4.89,5.45,7.95,1.29,3.06,1.94,6.39,1.94,10s-.65,6.93-1.94,9.96c-1.3,3.03-3.11,5.68-5.45,7.95-2.34,2.27-5.1,4.02-8.3,5.24s-6.67,1.84-10.41,1.84Zm0-7.92c2.45,0,4.71-.42,6.77-1.25,2.06-.83,3.85-2.01,5.38-3.54s2.72-3.33,3.58-5.42c.86-2.08,1.28-4.37,1.28-6.87s-.42-4.79-1.25-6.87-2.03-3.89-3.58-5.42c-1.55-1.53-3.36-2.71-5.42-3.54-2.06-.83-4.32-1.25-6.77-1.25s-4.73.42-6.84,1.25c-2.11.83-3.92,2.02-5.45,3.58s-2.73,3.36-3.61,5.42c-.88,2.06-1.32,4.34-1.32,6.84s.44,4.72,1.32,6.8c.88,2.08,2.08,3.9,3.61,5.45,1.53,1.55,3.34,2.74,5.45,3.58,2.11.83,4.38,1.25,6.84,1.25Z"
           id="path36" />
        <path
           class="cls-1"
           d="m762.19,477.85c-3.75,0-7.2-.61-10.34-1.84s-5.89-2.97-8.23-5.24c-2.34-2.27-4.16-4.91-5.45-7.91-1.3-3.01-1.94-6.34-1.94-10s.65-6.99,1.94-10c1.29-3.01,3.12-5.65,5.48-7.91,2.36-2.27,5.11-4.02,8.26-5.24,3.15-1.23,6.6-1.84,10.34-1.84,3.98,0,7.61.68,10.9,2.05,3.29,1.37,6.06,3.39,8.33,6.08l-5.83,5.49c-1.81-1.9-3.8-3.32-5.97-4.27-2.18-.95-4.51-1.42-7.01-1.42s-4.87.42-6.98,1.25c-2.11.83-3.93,2.01-5.48,3.54-1.55,1.53-2.77,3.33-3.65,5.42-.88,2.08-1.32,4.37-1.32,6.87s.44,4.79,1.32,6.87c.88,2.08,2.09,3.89,3.65,5.42,1.55,1.53,3.38,2.71,5.48,3.54,2.11.83,4.43,1.25,6.98,1.25s4.84-.47,7.01-1.42c2.17-.95,4.17-2.4,5.97-4.34l5.83,5.49c-2.27,2.68-5.05,4.72-8.33,6.11-3.29,1.39-6.94,2.08-10.97,2.08Z"
           id="path38" />
        <path
           class="cls-1"
           d="m825.79,477.85c-3.75,0-7.23-.62-10.45-1.88-3.22-1.25-6.01-3.01-8.37-5.28-2.36-2.27-4.19-4.92-5.48-7.95-1.3-3.03-1.94-6.33-1.94-9.89s.65-6.93,1.94-9.96c1.29-3.03,3.12-5.67,5.48-7.92,2.36-2.24,5.14-3.99,8.33-5.24,3.19-1.25,6.69-1.88,10.48-1.88s7.22.61,10.41,1.84c3.19,1.23,5.96,2.96,8.3,5.21,2.34,2.25,4.15,4.89,5.45,7.95,1.29,3.06,1.94,6.39,1.94,10s-.65,6.93-1.94,9.96c-1.3,3.03-3.11,5.68-5.45,7.95-2.34,2.27-5.1,4.02-8.3,5.24s-6.67,1.84-10.41,1.84Zm0-7.92c2.45,0,4.71-.42,6.77-1.25,2.06-.83,3.85-2.01,5.38-3.54s2.72-3.33,3.58-5.42c.86-2.08,1.28-4.37,1.28-6.87s-.42-4.79-1.25-6.87-2.03-3.89-3.58-5.42c-1.55-1.53-3.36-2.71-5.42-3.54-2.06-.83-4.32-1.25-6.77-1.25s-4.73.42-6.84,1.25c-2.11.83-3.92,2.02-5.45,3.58s-2.73,3.36-3.61,5.42c-.88,2.06-1.32,4.34-1.32,6.84s.44,4.72,1.32,6.8c.88,2.08,2.08,3.9,3.61,5.45,1.53,1.55,3.34,2.74,5.45,3.58,2.11.83,4.38,1.25,6.84,1.25Z"
           id="path40" />
        <path
           class="cls-1"
           d="m875.36,477.15v-48.6h9.03v40.96h25.41v7.64h-34.44Z"
           id="path42" />
        <path
           class="cls-1"
           d="m963.88,477.15v-48.6h22.84c5.79,0,10.21,1.15,13.26,3.44s4.58,5.36,4.58,9.2c0,2.59-.6,4.8-1.8,6.63-1.2,1.83-2.81,3.24-4.83,4.23-2.01,1-4.2,1.49-6.56,1.49l1.25-2.5c2.73,0,5.18.5,7.36,1.49,2.17,1,3.89,2.44,5.14,4.34,1.25,1.9,1.87,4.26,1.87,7.08,0,4.17-1.59,7.41-4.76,9.72-3.17,2.32-7.88,3.47-14.13,3.47h-24.23Zm9.03-7.08h14.65c3.33,0,5.9-.55,7.71-1.67,1.81-1.11,2.71-2.89,2.71-5.35s-.9-4.18-2.71-5.31c-1.8-1.13-4.37-1.7-7.71-1.7h-15.34v-7.01h13.47c3.1,0,5.51-.56,7.22-1.67,1.71-1.11,2.57-2.78,2.57-5s-.86-3.96-2.57-5.07c-1.71-1.11-4.12-1.67-7.22-1.67h-12.77v34.44Z"
           id="path44"
           style="fill:#54a3da;fill-opacity:1" />
        <path
           class="cls-1"
           d="m1039.63,469.52h27.42v7.64h-36.45v-48.6h35.48v7.64h-26.45v33.33Zm-.69-20.76h24.16v7.43h-24.16v-7.43Z"
           id="path46"
           style="fill:#54a3da;fill-opacity:1" />
        <path
           class="cls-1"
           d="m1100.86,477.15v-40.96h-16.11v-7.64h41.24v7.64h-16.11v40.96h-9.03Z"
           id="path48"
           style="fill:#54a3da;fill-opacity:1" />
        <path
           class="cls-1"
           d="m1137.38,477.15l21.87-48.6h8.89l21.94,48.6h-9.51l-18.75-43.81h3.61l-18.82,43.81h-9.23Zm10.07-11.25l2.5-7.08h26.17l2.43,7.08h-31.1Z"
           id="path50"
           style="fill:#54a3da;fill-opacity:1" />
      </g>
    </g>
  </g>
</svg>
