<svg xmlns="http://www.w3.org/2000/svg" xml:space="preserve" width="822.435" height="414.729"><path fill="#54A3DA" fill-rule="evenodd" d="M1.188 256.537c29.15 60.836 71.722 105.619 142.5 123-62.399 8.562-155.26-35.77-142.5-123M44.883 2c1.873 19.935 1.643 61.731 26.947 104.666 25.05 42.504 74.065 78.664 111.76 109.772 29.789 24.584 50.628 41.996 60.792 81.062-3.251-42.534-23.694-58.532-46.185-82.747-25.348-27.293-40.494-62.61-38.065-100.628-12.918 11.744-22.315 28.297-27.5 45.875 0 0-15-31.001 13-79.501s56.5-57 56.5-57c-19.697 59.638-4.896 131.513 27.25 184.625 14.215 23.486 29.966 50.55 33.953 78.78 5.314 37.626-21.089 84.637-61.578 104.002 0 0 15.374-57.406-2.625-90.406-11.392-20.885-23.339-33.339-43-45.668-23.568-14.78-50.572-24.267-72.954-40.288-7.49-5.361-14.56-11.488-21.185-18.891-18.342-20.495-24.463-42.468-28.86-51.153-.25 8.75.25 36 4.75 59.5s12.5 47.5 20.75 63.25 23.25 41 23.25 41C38.712 278.416 14.552 236.611 4.133 186c-3.5-17.001-11.5-108.749 40.75-184zm-7.069 373.161c37.902 23.698 67.864 30.129 103.125 34.625-30.546 10.184-86.854 7.337-103.125-34.625z" clip-rule="evenodd" style="fill:#fff;fill-opacity:1"/><path fill="#54A3DA" d="M799.541 201.263V76.596h20.895v124.667h-20.895zm-73.312-70.059c-6.204 0-11.384 1.522-15.54 4.566-4.156 3.043-7.053 7.199-8.692 12.467v.351h48.462v-.351c-1.639-5.268-4.565-9.423-8.779-12.467-4.213-3.044-9.364-4.566-15.451-4.566zm-24.758 34.064v.351c1.405 5.853 4.243 10.477 8.516 13.871 4.273 3.395 9.687 5.092 16.242 5.092 9.365 0 16.213-2.751 20.544-8.253h22.3c-3.277 8.311-8.662 14.925-16.154 19.841-7.492 4.917-16.388 7.375-26.689 7.375-6.906 0-13.198-1.141-18.876-3.424-5.677-2.283-10.594-5.443-14.749-9.482-4.156-4.039-7.375-8.867-9.657-14.486-2.283-5.619-3.424-11.706-3.424-18.261s1.141-12.642 3.424-18.261c2.282-5.619 5.502-10.447 9.657-14.486 4.155-4.039 9.072-7.199 14.749-9.482 5.677-2.283 11.969-3.424 18.876-3.424 6.79 0 13.052 1.142 18.788 3.424 5.736 2.283 10.623 5.443 14.662 9.482 4.039 4.039 7.199 8.867 9.482 14.486 2.283 5.619 3.424 11.706 3.424 18.261v7.375h-71.115zm-66.814-7.375c0-7.726-2.312-14.018-6.936-18.876-4.624-4.858-10.799-7.287-18.525-7.287-7.726 0-13.93 2.429-18.612 7.287-4.682 4.858-7.023 11.15-7.023 18.876 0 7.726 2.341 13.842 7.023 18.349 4.682 4.507 10.886 6.76 18.612 6.76 7.726 0 13.901-2.253 18.525-6.76 4.624-4.507 6.936-10.623 6.936-18.349zm0 30.201h-.351c-2.809 4.448-6.702 7.96-11.677 10.535-4.975 2.576-10.74 3.863-17.295 3.863-5.151 0-10.301-.878-15.452-2.634a38.811 38.811 0 0 1-13.783-8.165c-4.039-3.687-7.316-8.311-9.833-13.872-2.517-5.56-3.775-12.203-3.775-19.929 0-6.555 1.141-12.642 3.424-18.261 2.282-5.619 5.502-10.447 9.657-14.486 4.155-4.039 9.072-7.199 14.749-9.482 5.677-2.283 11.969-3.424 18.876-3.424 6.79 0 13.052 1.112 18.788 3.336 5.736 2.224 10.623 5.355 14.662 9.394 4.039 4.039 7.199 8.897 9.482 14.574 2.283 5.677 3.424 12.028 3.424 19.051v35.82c0 8.311-1.2 15.393-3.6 21.246-2.4 5.853-5.677 10.623-9.833 14.31-4.156 3.687-9.043 6.38-14.661 8.077-5.619 1.697-11.589 2.546-17.91 2.546-5.385 0-10.447-.585-15.188-1.756-4.741-1.171-9.043-2.985-12.905-5.443a35.446 35.446 0 0 1-9.833-9.306c-2.692-3.746-4.741-8.194-6.146-13.345h21.07c1.756 4.097 4.624 7.082 8.604 8.955 3.98 1.873 8.779 2.809 14.398 2.809 7.726 0 13.842-2.049 18.349-6.146 4.507-4.097 6.76-11.179 6.76-21.246v-7.021zm-117.033 13.169v-45.126c0-8.311-1.99-14.457-5.97-18.436-3.98-3.98-9.306-5.97-15.979-5.97-6.672 0-11.999 1.99-15.978 5.97-3.98 3.98-5.97 10.125-5.97 18.436v45.126h-20.895v-45.126c0-7.257 1.024-13.608 3.073-19.051 2.048-5.443 4.946-10.009 8.691-13.696 3.746-3.688 8.253-6.468 13.521-8.341 5.268-1.873 11.12-2.809 17.559-2.809 6.438 0 12.291.907 17.559 2.722 5.268 1.815 9.775 4.565 13.52 8.253 3.746 3.687 6.643 8.282 8.692 13.784 2.049 5.502 3.073 11.881 3.073 19.139v45.126h-20.896zm-138.63-17.207c7.726 0 13.901-2.429 18.525-7.287s6.936-11.15 6.936-18.876c0-7.726-2.312-14.018-6.936-18.876-4.624-4.858-10.799-7.287-18.525-7.287s-13.93 2.429-18.612 7.287c-4.682 4.858-7.023 11.15-7.023 18.876 0 7.726 2.341 14.018 7.023 18.876 4.682 4.858 10.886 7.287 18.612 7.287zm46.355 17.207H406.21v-16.154h-.351c-2.341 5.619-6.204 10.096-11.589 13.433-5.385 3.336-11.764 5.004-19.139 5.004-5.15 0-10.301-.937-15.452-2.809-5.151-1.873-9.745-4.712-13.784-8.516-4.039-3.804-7.316-8.545-9.833-14.223-2.517-5.678-3.775-12.379-3.775-20.105 0-6.555 1.141-12.642 3.424-18.261 2.282-5.619 5.502-10.447 9.657-14.486 4.155-4.039 9.072-7.199 14.749-9.482 5.677-2.283 11.969-3.424 18.876-3.424 6.79 0 13.052 1.112 18.788 3.336 5.736 2.224 10.623 5.355 14.662 9.394 4.039 4.039 7.199 8.897 9.482 14.574 2.283 5.677 3.424 12.028 3.424 19.051v42.668zM807.417 306.873v-77.674h13.018v77.674h-13.018zm-45.605-10.721c4.813 0 8.661-1.513 11.542-4.54 2.881-3.027 4.321-6.947 4.321-11.76 0-4.814-1.44-8.734-4.321-11.761-2.881-3.026-6.728-4.54-11.542-4.54s-8.679 1.513-11.597 4.54c-2.917 3.027-4.376 6.947-4.376 11.761 0 4.814 1.459 8.734 4.376 11.76 2.918 3.026 6.784 4.54 11.597 4.54zm29.101-16.301c0 4.084-.711 7.877-2.133 11.378-1.422 3.501-3.428 6.509-6.017 9.025-2.589 2.516-5.671 4.486-9.244 5.908-3.574 1.422-7.476 2.134-11.706 2.134-4.303 0-8.223-.711-11.761-2.134-3.537-1.422-6.601-3.391-9.19-5.908-2.589-2.516-4.595-5.524-6.017-9.025-1.422-3.501-2.133-7.294-2.133-11.378 0-4.084.711-7.877 2.133-11.378 1.422-3.501 3.428-6.509 6.017-9.026 2.589-2.516 5.652-4.486 9.19-5.908 3.537-1.422 7.458-2.133 11.761-2.133 4.23 0 8.132.711 11.706 2.133 3.574 1.422 6.655 3.391 9.244 5.908 2.589 2.516 4.595 5.525 6.017 9.026 1.421 3.501 2.133 7.294 2.133 11.378zm-83.786-6.783c-1.167-2.917-3.045-5.233-5.634-6.947-2.59-1.714-5.671-2.571-9.244-2.571-4.813 0-8.679 1.513-11.596 4.54s-4.376 6.947-4.376 11.761c0 4.814 1.459 8.734 4.376 11.76 2.917 3.027 6.783 4.54 11.596 4.54 3.574 0 6.655-.857 9.244-2.571 2.589-1.714 4.467-4.03 5.634-6.947h13.128c-.657 3.209-1.805 6.145-3.446 8.807a25.976 25.976 0 0 1-6.072 6.837c-2.407 1.896-5.178 3.374-8.315 4.431-3.136 1.058-6.528 1.586-10.174 1.586-4.303 0-8.223-.711-11.76-2.134-3.538-1.422-6.601-3.391-9.19-5.908-2.589-2.516-4.595-5.524-6.017-9.025-1.422-3.501-2.133-7.294-2.133-11.378 0-4.084.711-7.877 2.133-11.378 1.422-3.501 3.428-6.509 6.017-9.026 2.589-2.516 5.652-4.486 9.19-5.908 3.537-1.422 7.457-2.133 11.76-2.133 3.647 0 7.038.529 10.174 1.586 3.136 1.058 5.908 2.535 8.315 4.431a25.991 25.991 0 0 1 6.072 6.837c1.641 2.662 2.79 5.598 3.446 8.807h-13.128zm-85.536 23.084c4.813 0 8.661-1.513 11.542-4.54 2.881-3.027 4.321-6.947 4.321-11.76 0-4.814-1.441-8.734-4.321-11.761-2.881-3.026-6.728-4.54-11.542-4.54s-8.679 1.513-11.596 4.54-4.376 6.947-4.376 11.761c0 4.814 1.459 8.734 4.376 11.76 2.917 3.026 6.783 4.54 11.596 4.54zm29.101-16.301c0 4.084-.711 7.877-2.133 11.378-1.422 3.501-3.428 6.509-6.017 9.025-2.589 2.516-5.671 4.486-9.245 5.908-3.574 1.422-7.475 2.134-11.706 2.134-4.303 0-8.223-.711-11.76-2.134-3.537-1.422-6.601-3.391-9.19-5.908-2.589-2.516-4.595-5.524-6.017-9.025-1.422-3.501-2.133-7.294-2.133-11.378 0-4.084.711-7.877 2.133-11.378s3.428-6.509 6.017-9.026c2.589-2.516 5.653-4.486 9.19-5.908 3.537-1.422 7.457-2.133 11.76-2.133 4.23 0 8.132.711 11.706 2.133 3.574 1.422 6.656 3.391 9.245 5.908 2.589 2.516 4.595 5.525 6.017 9.026 1.421 3.501 2.133 7.294 2.133 11.378zm-70.439 6.236c0 3.719-.529 6.984-1.586 9.791-1.057 2.808-2.571 5.124-4.54 6.947-1.969 1.824-4.303 3.191-7.002 4.103-2.698.912-5.689 1.368-8.971 1.368s-6.272-.456-8.971-1.368c-2.699-.912-5.033-2.279-7.002-4.103-1.969-1.823-3.483-4.139-4.54-6.947-1.058-2.808-1.586-6.072-1.586-9.791v-51.309h13.018v18.051h27.897v11.815h-27.897v21.443c0 3.647.839 6.236 2.516 7.768 1.677 1.531 3.866 2.297 6.564 2.297s4.886-.747 6.564-2.242 2.516-4.103 2.516-7.822v-1.422h13.019v1.421zm-87.943 10.065c4.813 0 8.661-1.513 11.542-4.54 2.881-3.027 4.321-6.947 4.321-11.76 0-4.814-1.44-8.734-4.321-11.761-2.881-3.026-6.728-4.54-11.542-4.54s-8.679 1.513-11.596 4.54-4.376 6.947-4.376 11.761c0 4.814 1.459 8.734 4.376 11.76 2.917 3.026 6.783 4.54 11.596 4.54zm29.101-16.301c0 4.084-.711 7.877-2.133 11.378-1.422 3.501-3.428 6.509-6.017 9.025-2.589 2.516-5.671 4.486-9.245 5.908-3.574 1.422-7.476 2.134-11.706 2.134-4.303 0-8.223-.711-11.76-2.134-3.538-1.422-6.601-3.391-9.19-5.908-2.589-2.516-4.595-5.524-6.017-9.025-1.422-3.501-2.133-7.294-2.133-11.378 0-4.084.711-7.877 2.133-11.378 1.422-3.501 3.428-6.509 6.017-9.026s5.652-4.486 9.19-5.908c3.537-1.422 7.457-2.133 11.76-2.133 4.23 0 8.132.711 11.706 2.133 3.574 1.422 6.655 3.391 9.245 5.908 2.589 2.516 4.595 5.525 6.017 9.026 1.422 3.501 2.133 7.294 2.133 11.378zm-82.036-3.829v-.547c0-4.376-.984-7.458-2.954-9.245-1.969-1.787-4.558-2.68-7.768-2.68s-5.798.893-7.767 2.68c-1.969 1.787-2.954 4.868-2.954 9.245v31.398h-13.018v-31.398c0-4.084.583-7.64 1.75-10.666 1.167-3.027 2.789-5.525 4.868-7.494 2.079-1.969 4.577-3.446 7.494-4.431 2.918-.984 6.127-1.477 9.627-1.477 3.501 0 6.71.492 9.627 1.477 2.917.985 5.415 2.48 7.494 4.486 2.079 2.006 3.683 4.522 4.813 7.549 1.131 3.027 1.696 6.619 1.696 10.776v.328h-12.908zM361.17 263.55c-4.814 0-8.661 1.513-11.542 4.54-2.881 3.027-4.321 6.947-4.321 11.761 0 4.814 1.441 8.734 4.321 11.76 2.881 3.027 6.728 4.54 11.542 4.54s8.679-1.513 11.597-4.54c2.917-3.027 4.376-6.947 4.376-11.76 0-4.814-1.459-8.734-4.376-11.761-2.919-3.026-6.784-4.54-11.597-4.54zm-28.882 16.739c0-4.376.711-8.333 2.133-11.87 1.422-3.537 3.392-6.564 5.908-9.08 2.516-2.516 5.543-4.467 9.08-5.853 3.537-1.386 7.458-2.078 11.761-2.078 4.23 0 8.132.711 11.706 2.133 3.574 1.422 6.655 3.391 9.245 5.908 2.589 2.516 4.594 5.525 6.017 9.026 1.422 3.501 2.133 7.293 2.133 11.378 0 4.814-.784 8.989-2.352 12.526-1.568 3.537-3.61 6.491-6.127 8.861a24.74 24.74 0 0 1-8.588 5.306c-3.209 1.167-6.418 1.75-9.627 1.75-4.084 0-7.676-.802-10.776-2.407-3.1-1.605-5.525-3.792-7.275-6.564h-.219v30.632h-13.018v-49.668z" style="fill:#fff;fill-opacity:1"/><text xml:space="preserve" x="663.059" y="357.515" style="font-style:normal;font-variant:normal;font-weight:400;font-stretch:normal;font-size:55.47487259px;line-height:1.25;font-family:Cabin;-inkscape-font-specification:Cabin;letter-spacing:0;word-spacing:0;fill:#fff;fill-opacity:1;stroke:none;stroke-width:1.3868717"><tspan x="663.059" y="357.515" style="font-style:normal;font-variant:normal;font-weight:800;font-stretch:normal;font-family:Montserrat;-inkscape-font-specification:&quot;Montserrat Ultra-Bold&quot;;stroke-width:1.3868717;fill:#fff;fill-opacity:1">BETA</tspan></text></svg>