<?xml version="1.0" encoding="UTF-8"?>
<svg id="Layer_2" data-name="Layer 2" xmlns="http://www.w3.org/2000/svg" viewBox="0 0 1241.22 650.31">
  <defs>
    <style>
      .cls-1 {
        fill: #54a3da;
      }

      .cls-2 {
        fill: #333;
      }
    </style>
  </defs>
  <g id="Layer_1-2" data-name="Layer 1">
    <g>
      <g>
        <path class="cls-1" d="m289.76,28.77c-71.55,39.22-122.52,139.33-99.82,194.91,4.96-11.87,8.65-23.63,14.62-34.1,5.66-9.91,13.72-18.47,21.15-28.18,2.89,3.7,4.35,4.71,4.27,5.58-5.43,60.87,23.98,106.12,64.77,147.01,15.02,15.06,30.39,31.24,40.01,49.78,10.02,19.32,13.29,42.12,15.77,64.97-10.23-68.02-62.79-102.31-109.83-141.08-27.89-22.99-56.12-45.8-82-70.93-54.88-53.29-86.3-118.32-92.1-195.01-.5-6.66-1.43-13.3-2.21-19.94-.07-.62-.55-1.2-.83-1.8C29.79,41.94-4.79,157.45,4.43,242.64c8.81,81.42,47.02,146.18,113.67,194.79-47.45-69.9-71.48-146.58-70.16-235.24,3.45,5.76,5.4,7.91,6.15,10.42,15.11,50.76,49.62,84.49,95.49,108.23,15.46,8,31.11,15.64,46.67,23.46,86.69,43.54,112.71,95.25,96.09,190.93-1.13,6.5-2.01,13.04-3.13,20.36,71.94-31.92,107.41-121.13,76.43-190.59-7.61-17.06-16.19-33.83-25.91-49.78-53.98-88.56-79.9-182.01-49.96-286.44Z"/>
        <path class="cls-1" d="m205.92,538.88c-98.91-23.12-160.29-88.35-203.2-175.88-21.11,97.59,83.98,188.22,203.2,175.88Z"/>
        <path class="cls-1" d="m54.62,533.45c15.97,47.48,85.73,67.95,147.96,49.6-25.26-5.27-52.74-8.52-78.43-17.09-24.77-8.27-47.68-22.05-69.53-32.51Z"/>
      </g>
      <g>
        <path class="cls-1" d="m408.72,255.12c0-46.71,32.73-78.85,79.44-78.85s78.26,31.24,78.26,78.55v72.3h-32.43v-28.86c-8.93,21.72-28.86,32.73-52.07,32.73-35.7,0-73.2-25.59-73.2-75.87Zm122.29-1.49c0-25.89-17.26-44.33-43.14-44.33s-43.44,18.45-43.44,44.33,17.56,44.34,43.44,44.34,43.14-18.45,43.14-44.34Z"/>
        <path class="cls-1" d="m614.31,250.66c0-49.09,29.16-74.38,72.6-74.38s72.6,24.99,72.6,74.38v76.47h-35.41v-76.47c0-27.97-14.88-41.36-37.19-41.36s-37.19,13.39-37.19,41.36v76.47h-35.41v-76.47Z"/>
        <path class="cls-1" d="m806.52,343.19h35.71c5.95,13.69,20.23,19.94,38.98,19.94,26.18,0,42.55-12.2,42.55-46.42v-12.79c-10.12,16.36-27.67,25.29-49.69,25.29-35.11,0-72.6-23.51-72.6-75.58,0-44.63,32.73-77.36,79.15-77.36s78.55,30.94,78.55,78.55v60.7c0,56.24-34.81,78.25-77.96,78.25-36.6,0-65.46-15.77-74.68-50.58Zm117.23-89.56c0-25.89-17.26-44.33-43.14-44.33s-43.44,18.45-43.44,44.33,17.56,42.55,43.44,42.55,43.14-16.66,43.14-42.55Z"/>
        <path class="cls-1" d="m1001.11,253.63c0-44.63,32.73-77.36,79.15-77.36s78.55,32.73,78.55,77.36v12.5h-120.51c4.76,21.42,21.13,32.73,41.95,32.73,15.77,0,27.37-4.46,34.81-13.99h37.79c-11.01,27.97-37.79,46.12-72.6,46.12-46.42,0-79.15-32.73-79.15-77.36Zm120.21-15.77c-5.65-19.64-21.72-29.46-41.06-29.46s-35.41,10.12-41.06,29.46h82.12Z"/>
        <path class="cls-1" d="m1205.81,115.87h35.41v211.26h-35.41V115.87Z"/>
      </g>
      <g>
        <path class="cls-1" d="m439.75,495.78c-4.39,0-8.41-.71-12.08-2.13-3.67-1.42-6.86-3.44-9.59-6.06-2.73-2.62-4.84-5.67-6.34-9.15-1.5-3.48-2.25-7.33-2.25-11.56s.75-8.08,2.25-11.56c1.5-3.48,3.62-6.53,6.38-9.15,2.75-2.62,5.96-4.64,9.63-6.06,3.66-1.42,7.74-2.13,12.24-2.13s8.97.78,12.8,2.33c3.82,1.55,7.05,3.83,9.67,6.82l-6.58,6.42c-2.19-2.19-4.56-3.81-7.1-4.85-2.54-1.04-5.34-1.57-8.39-1.57s-5.74.48-8.23,1.44c-2.49.96-4.64,2.33-6.46,4.09-1.82,1.77-3.24,3.85-4.25,6.26-1.02,2.41-1.52,5.06-1.52,7.95s.51,5.47,1.52,7.9c1.02,2.44,2.43,4.53,4.25,6.3,1.82,1.77,3.96,3.13,6.42,4.09,2.46.96,5.19,1.45,8.19,1.45,2.78,0,5.47-.44,8.07-1.32,2.59-.88,5.07-2.37,7.42-4.45l5.86,7.78c-2.89,2.35-6.26,4.13-10.11,5.34-3.85,1.2-7.78,1.81-11.8,1.81Zm12.12-8.51v-20.95h9.79v22.31l-9.79-1.36Z"/>
        <path class="cls-1" d="m491.51,494.98v-56.18h10.43v56.18h-10.43Z"/>
        <path class="cls-1" d="m549.37,494.98l-24.56-56.18h11.32l21.91,50.8h-6.58l22.31-50.8h10.35l-24.48,56.18h-10.27Z"/>
        <path class="cls-1" d="m606.11,494.98v-56.18h10.43v56.18h-10.43Z"/>
        <path class="cls-1" d="m647.76,494.98v-56.18h8.59l35.23,43.34h-4.25v-43.34h10.27v56.18h-8.59l-35.15-43.34h4.25v43.34h-10.35Z"/>
        <path class="cls-1" d="m755.06,495.78c-4.39,0-8.41-.71-12.08-2.13-3.67-1.42-6.86-3.44-9.59-6.06-2.73-2.62-4.84-5.67-6.34-9.15-1.5-3.48-2.25-7.33-2.25-11.56s.75-8.08,2.25-11.56c1.5-3.48,3.62-6.53,6.38-9.15,2.75-2.62,5.96-4.64,9.63-6.06,3.66-1.42,7.74-2.13,12.24-2.13s8.97.78,12.8,2.33c3.82,1.55,7.05,3.83,9.67,6.82l-6.58,6.42c-2.19-2.19-4.56-3.81-7.1-4.85-2.54-1.04-5.34-1.57-8.39-1.57s-5.74.48-8.23,1.44c-2.49.96-4.64,2.33-6.46,4.09-1.82,1.77-3.24,3.85-4.25,6.26-1.02,2.41-1.52,5.06-1.52,7.95s.51,5.47,1.52,7.9c1.02,2.44,2.43,4.53,4.25,6.3,1.82,1.77,3.96,3.13,6.42,4.09,2.46.96,5.19,1.45,8.19,1.45,2.78,0,5.47-.44,8.07-1.32,2.59-.88,5.07-2.37,7.42-4.45l5.86,7.78c-2.89,2.35-6.26,4.13-10.11,5.34-3.85,1.2-7.78,1.81-11.8,1.81Zm12.12-8.51v-20.95h9.79v22.31l-9.79-1.36Z"/>
        <path class="cls-2" d="m845.02,494.98v-56.18h26.4c6.69,0,11.8,1.32,15.33,3.97,3.53,2.65,5.3,6.19,5.3,10.63,0,3-.7,5.55-2.09,7.66-1.39,2.11-3.25,3.75-5.58,4.9-2.33,1.15-4.86,1.73-7.58,1.73l1.44-2.89c3.16,0,5.99.58,8.51,1.73,2.51,1.15,4.49,2.82,5.94,5.02,1.44,2.19,2.17,4.92,2.17,8.19,0,4.82-1.83,8.56-5.5,11.24-3.67,2.68-9.11,4.01-16.33,4.01h-28.01Zm10.43-8.19h16.93c3.85,0,6.82-.64,8.91-1.93,2.09-1.28,3.13-3.34,3.13-6.18s-1.04-4.83-3.13-6.14c-2.09-1.31-5.06-1.97-8.91-1.97h-17.74v-8.11h15.57c3.58,0,6.37-.64,8.35-1.93,1.98-1.28,2.97-3.21,2.97-5.78s-.99-4.57-2.97-5.86c-1.98-1.28-4.76-1.93-8.35-1.93h-14.77v39.8Z"/>
        <path class="cls-2" d="m932.57,486.15h31.7v8.83h-42.13v-56.18h41.01v8.83h-30.58v38.52Zm-.8-24h27.93v8.59h-27.93v-8.59Z"/>
        <path class="cls-2" d="m1003.35,494.98v-47.35h-18.62v-8.83h47.67v8.83h-18.62v47.35h-10.43Z"/>
        <path class="cls-2" d="m1045.56,494.98l25.28-56.18h10.27l25.36,56.18h-10.99l-21.67-50.64h4.17l-21.75,50.64h-10.67Zm11.64-13l2.89-8.19h30.25l2.81,8.19h-35.95Z"/>
      </g>
    </g>
  </g>
</svg>