<?xml version="1.0" encoding="UTF-8"?>
<svg id="Layer_2" data-name="Layer 2" xmlns="http://www.w3.org/2000/svg" viewBox="0 0 1241.22 650.31">
  <defs>
    <style>
      .cls-1 {
        fill: #fff;
      }
    </style>
  </defs>
  <g id="Layer_1-2" data-name="Layer 1">
    <g>
      <g>
        <path class="cls-1" d="m289.76,28.77c-71.55,39.22-122.52,139.33-99.82,194.91,4.96-11.87,8.65-23.63,14.62-34.1,5.66-9.91,13.72-18.47,21.15-28.18,2.89,3.7,4.35,4.71,4.27,5.58-5.43,60.87,23.98,106.12,64.77,147.01,15.02,15.06,30.39,31.24,40.01,49.78,10.02,19.32,13.29,42.12,15.77,64.97-10.23-68.02-62.79-102.31-109.83-141.08-27.89-22.99-56.12-45.8-82-70.93-54.88-53.29-86.3-118.32-92.1-195.01-.5-6.66-1.43-13.3-2.21-19.94-.07-.62-.55-1.2-.83-1.8C29.79,41.94-4.79,157.45,4.43,242.64c8.81,81.42,47.02,146.18,113.67,194.79-47.45-69.9-71.48-146.58-70.16-235.24,3.45,5.76,5.4,7.91,6.15,10.42,15.11,50.76,49.62,84.49,95.49,108.23,15.46,8,31.11,15.64,46.67,23.46,86.69,43.54,112.71,95.25,96.09,190.93-1.13,6.5-2.01,13.04-3.13,20.36,71.94-31.92,107.41-121.13,76.43-190.59-7.61-17.06-16.19-33.83-25.91-49.78-53.98-88.56-79.9-182.01-49.96-286.44Z"/>
        <path class="cls-1" d="m205.92,538.88c-98.91-23.12-160.29-88.35-203.2-175.88-21.11,97.59,83.98,188.22,203.2,175.88Z"/>
        <path class="cls-1" d="m54.62,533.45c15.97,47.48,85.73,67.95,147.96,49.6-25.26-5.27-52.74-8.52-78.43-17.09-24.77-8.27-47.68-22.05-69.53-32.51Z"/>
      </g>
      <g>
        <path class="cls-1" d="m408.72,255.12c0-46.71,32.73-78.85,79.44-78.85s78.26,31.24,78.26,78.55v72.3h-32.43v-28.86c-8.93,21.72-28.86,32.73-52.07,32.73-35.7,0-73.2-25.59-73.2-75.87Zm122.29-1.49c0-25.89-17.26-44.33-43.14-44.33s-43.44,18.45-43.44,44.33,17.56,44.34,43.44,44.34,43.14-18.45,43.14-44.34Z"/>
        <path class="cls-1" d="m614.31,250.66c0-49.09,29.16-74.38,72.6-74.38s72.6,24.99,72.6,74.38v76.47h-35.41v-76.47c0-27.97-14.88-41.36-37.19-41.36s-37.19,13.39-37.19,41.36v76.47h-35.41v-76.47Z"/>
        <path class="cls-1" d="m806.52,343.19h35.71c5.95,13.69,20.23,19.94,38.98,19.94,26.18,0,42.55-12.2,42.55-46.42v-12.79c-10.12,16.36-27.67,25.29-49.69,25.29-35.11,0-72.6-23.51-72.6-75.58,0-44.63,32.73-77.36,79.15-77.36s78.55,30.94,78.55,78.55v60.7c0,56.24-34.81,78.25-77.96,78.25-36.6,0-65.46-15.77-74.68-50.58Zm117.23-89.56c0-25.89-17.26-44.33-43.14-44.33s-43.44,18.45-43.44,44.33,17.56,42.55,43.44,42.55,43.14-16.66,43.14-42.55Z"/>
        <path class="cls-1" d="m1001.11,253.63c0-44.63,32.73-77.36,79.15-77.36s78.55,32.73,78.55,77.36v12.5h-120.51c4.76,21.42,21.13,32.73,41.95,32.73,15.77,0,27.37-4.46,34.81-13.99h37.79c-11.01,27.97-37.79,46.12-72.6,46.12-46.42,0-79.15-32.73-79.15-77.36Zm120.21-15.77c-5.65-19.64-21.72-29.46-41.06-29.46s-35.41,10.12-41.06,29.46h82.12Z"/>
        <path class="cls-1" d="m1205.81,115.87h35.41v211.26h-35.41V115.87Z"/>
      </g>
      <g>
        <path class="cls-1" d="m476.73,532.46c-6.15,0-11.8-1-16.93-2.98-5.14-1.99-9.62-4.82-13.45-8.5-3.83-3.67-6.79-7.95-8.89-12.83-2.1-4.88-3.15-10.28-3.15-16.2s1.05-11.33,3.15-16.2c2.1-4.88,5.08-9.15,8.95-12.83,3.86-3.67,8.36-6.51,13.5-8.5,5.14-1.99,10.86-2.98,17.16-2.98s12.58,1.09,17.95,3.26c5.36,2.18,9.88,5.36,13.56,9.56l-9.23,9c-3.08-3.08-6.4-5.34-9.96-6.81-3.56-1.46-7.48-2.19-11.76-2.19s-8.04.68-11.53,2.03c-3.49,1.35-6.51,3.26-9.06,5.74-2.55,2.48-4.54,5.4-5.96,8.78-1.43,3.38-2.14,7.09-2.14,11.14s.71,7.67,2.14,11.08c1.42,3.42,3.41,6.36,5.96,8.83,2.55,2.48,5.55,4.39,9,5.74,3.45,1.35,7.28,2.03,11.48,2.03,3.9,0,7.67-.62,11.31-1.86,3.64-1.24,7.11-3.32,10.41-6.25l8.21,10.92c-4.05,3.3-8.78,5.79-14.18,7.48-5.4,1.69-10.92,2.53-16.54,2.53Zm16.99-11.93v-29.37h13.73v31.28l-13.73-1.91Z"/>
        <path class="cls-1" d="m549.31,531.34v-78.76h14.63v78.76h-14.63Z"/>
        <path class="cls-1" d="m630.43,531.34l-34.43-78.76h15.87l30.72,71.22h-9.23l31.28-71.22h14.51l-34.32,78.76h-14.4Z"/>
        <path class="cls-1" d="m709.98,531.34v-78.76h14.63v78.76h-14.63Z"/>
        <path class="cls-1" d="m768.38,531.34v-78.76h12.04l49.4,60.76h-5.96v-60.76h14.4v78.76h-12.04l-49.28-60.76h5.96v60.76h-14.51Z"/>
        <path class="cls-1" d="m918.81,532.46c-6.15,0-11.8-1-16.93-2.98-5.14-1.99-9.62-4.82-13.45-8.5-3.83-3.67-6.79-7.95-8.89-12.83-2.1-4.88-3.15-10.28-3.15-16.2s1.05-11.33,3.15-16.2c2.1-4.88,5.08-9.15,8.95-12.83,3.86-3.67,8.36-6.51,13.5-8.5,5.14-1.99,10.86-2.98,17.16-2.98s12.58,1.09,17.95,3.26c5.36,2.18,9.88,5.36,13.56,9.56l-9.23,9c-3.08-3.08-6.4-5.34-9.96-6.81-3.56-1.46-7.48-2.19-11.76-2.19s-8.04.68-11.53,2.03c-3.49,1.35-6.51,3.26-9.06,5.74-2.55,2.48-4.54,5.4-5.96,8.78-1.43,3.38-2.14,7.09-2.14,11.14s.71,7.67,2.14,11.08c1.42,3.42,3.41,6.36,5.96,8.83,2.55,2.48,5.55,4.39,9,5.74,3.45,1.35,7.28,2.03,11.48,2.03,3.9,0,7.67-.62,11.31-1.86,3.64-1.24,7.11-3.32,10.41-6.25l8.21,10.92c-4.05,3.3-8.78,5.79-14.18,7.48-5.4,1.69-10.92,2.53-16.54,2.53Zm16.99-11.93v-29.37h13.73v31.28l-13.73-1.91Z"/>
      </g>
      <g>
        <path class="cls-1" d="m434.31,650.31v-84.47h45.13c11.66,0,20.27,2.07,25.82,6.21,5.55,4.14,8.33,9.43,8.33,15.87,0,4.26-1.19,8.07-3.56,11.4-2.37,3.34-5.81,5.97-10.32,7.9-4.51,1.93-10.06,2.9-16.65,2.9l2.41-6.52c6.6,0,12.29.93,17.07,2.78,4.79,1.85,8.49,4.52,11.1,8.02,2.61,3.5,3.92,7.7,3.92,12.61,0,7.32-3.04,13.03-9.11,17.13-6.08,4.1-14.94,6.15-26.61,6.15h-47.54Zm28-19.91h17.13c3.14,0,5.49-.56,7.06-1.69,1.57-1.13,2.35-2.78,2.35-4.95s-.78-3.82-2.35-4.95c-1.57-1.13-3.92-1.69-7.06-1.69h-19.07v-18.82h15.2c3.22,0,5.57-.54,7.06-1.63,1.49-1.09,2.23-2.63,2.23-4.65s-.74-3.66-2.23-4.71c-1.49-1.04-3.84-1.57-7.06-1.57h-13.27v44.65Z"/>
        <path class="cls-1" d="m579.72,628.83h42.23v21.48h-70.23v-84.47h68.66v21.48h-40.67v41.51Zm-1.93-31.62h37.65v20.51h-37.65v-20.51Z"/>
        <path class="cls-1" d="m675.41,650.31v-62.38h-24.74v-22.08h77.95v22.08h-24.74v62.38h-28.48Z"/>
        <path class="cls-1" d="m746.72,650.31l36.92-84.47h28l36.92,84.47h-29.44l-27.27-70.95h11.1l-27.27,70.95h-28.96Zm21.96-14.72l7.24-20.51h38.85l7.24,20.51h-53.33Z"/>
      </g>
    </g>
  </g>
</svg>