<?xml version="1.0" encoding="UTF-8"?>
<svg id="Layer_2" data-name="Layer 2" xmlns="http://www.w3.org/2000/svg" viewBox="0 0 1242.89 647.83">
  <defs>
    <style>
      .cls-1 {
        fill: #fff;
      }
    </style>
  </defs>
  <g id="Layer_1-2" data-name="Layer 1">
    <g>
      <g>
        <g>
          <path class="cls-1" d="m289.06,28.7c-71.37,39.13-122.22,139-99.58,194.44,4.95-11.84,8.63-23.57,14.59-34.01,5.65-9.89,13.69-18.42,21.1-28.11,2.88,3.69,4.34,4.7,4.26,5.57-5.42,60.72,23.93,105.86,64.61,146.66,14.98,15.02,30.32,31.16,39.91,49.66,9.99,19.28,13.26,42.02,15.74,64.81-10.21-67.85-62.64-102.07-109.57-140.74-27.83-22.93-55.98-45.68-81.81-70.76-54.75-53.16-86.09-118.03-91.87-194.54-.5-6.65-1.42-13.26-2.2-19.89-.07-.62-.54-1.2-.83-1.8C29.72,41.83-4.78,157.07,4.42,242.05c8.79,81.22,46.9,145.83,113.39,194.32-47.34-69.73-71.3-146.23-69.99-234.68,3.44,5.74,5.39,7.89,6.13,10.4,15.07,50.64,49.5,84.28,95.26,107.96,15.43,7.98,31.04,15.6,46.56,23.4,86.49,43.43,112.43,95.02,95.86,190.47-1.13,6.48-2,13-3.12,20.31,71.76-31.84,107.15-120.83,76.25-190.13-7.59-17.02-16.15-33.75-25.85-49.66-53.85-88.35-79.71-181.57-49.84-285.75Z"/>
          <path class="cls-1" d="m205.42,537.57c-98.67-23.07-159.91-88.14-202.71-175.45-21.06,97.36,83.78,187.77,202.71,175.45Z"/>
          <path class="cls-1" d="m54.49,532.16c15.93,47.36,85.52,67.78,147.6,49.48-25.2-5.26-52.61-8.5-78.24-17.05-24.71-8.25-47.57-21.99-69.36-32.43Z"/>
        </g>
        <g>
          <path class="cls-1" d="m407.73,254.5c0-46.6,32.65-78.66,79.25-78.66s78.07,31.17,78.07,78.36v72.13h-32.35v-28.79c-8.9,21.67-28.79,32.65-51.94,32.65-35.62,0-73.02-25.53-73.02-75.69Zm122-1.48c0-25.82-17.22-44.23-43.04-44.23s-43.34,18.4-43.34,44.23,17.51,44.23,43.34,44.23,43.04-18.4,43.04-44.23Z"/>
          <path class="cls-1" d="m612.83,250.05c0-48.97,29.09-74.2,72.43-74.2s72.43,24.93,72.43,74.2v76.28h-35.32v-76.28c0-27.9-14.84-41.26-37.1-41.26s-37.1,13.36-37.1,41.26v76.28h-35.32v-76.28Z"/>
          <path class="cls-1" d="m804.57,342.36h35.62c5.94,13.65,20.18,19.89,38.88,19.89,26.12,0,42.45-12.17,42.45-46.3v-12.76c-10.09,16.32-27.6,25.23-49.57,25.23-35.02,0-72.42-23.45-72.42-75.39,0-44.52,32.65-77.17,78.96-77.17s78.36,30.87,78.36,78.36v60.55c0,56.1-34.73,78.07-77.77,78.07-36.51,0-65.3-15.73-74.5-50.46Zm116.95-89.35c0-25.82-17.22-44.23-43.04-44.23s-43.34,18.4-43.34,44.23,17.51,42.45,43.34,42.45,43.04-16.62,43.04-42.45Z"/>
          <path class="cls-1" d="m998.69,253.02c0-44.52,32.65-77.17,78.96-77.17s78.36,32.65,78.36,77.17v12.47h-120.22c4.75,21.37,21.07,32.65,41.85,32.65,15.73,0,27.31-4.45,34.73-13.95h37.7c-10.98,27.9-37.7,46.01-72.43,46.01-46.3,0-78.96-32.65-78.96-77.17Zm119.92-15.73c-5.64-19.59-21.67-29.39-40.96-29.39s-35.32,10.09-40.96,29.39h81.92Z"/>
          <path class="cls-1" d="m1202.9,115.59h35.32v210.75h-35.32V115.59Z"/>
        </g>
        <g>
          <path class="cls-1" d="m438.87,530.05v-78.57h32.33c6.96,0,12.93,1.1,17.9,3.31,4.98,2.21,8.81,5.41,11.5,9.6,2.69,4.19,4.04,9.2,4.04,15.04s-1.35,10.72-4.04,14.87c-2.69,4.15-6.53,7.37-11.5,9.65-4.98,2.28-10.94,3.42-17.9,3.42h-24.13l6.4-6.73v29.41h-14.59Zm14.59-27.84l-6.4-7.18h23.46c6.44,0,11.28-1.37,14.54-4.1,3.25-2.73,4.88-6.57,4.88-11.5s-1.63-8.77-4.88-11.51c-3.26-2.73-8.1-4.1-14.54-4.1h-23.46l6.4-7.18v45.57Z"/>
          <path class="cls-1" d="m541.69,530.05v-78.57h32.33c6.96,0,12.93,1.1,17.9,3.31,4.98,2.21,8.81,5.41,11.5,9.6,2.69,4.19,4.04,9.2,4.04,15.04s-1.35,10.7-4.04,14.82c-2.69,4.12-6.53,7.3-11.5,9.54-4.98,2.25-10.94,3.37-17.9,3.37h-24.13l6.4-6.51v29.41h-14.59Zm14.59-27.84l-6.4-7.07h23.46c6.44,0,11.28-1.38,14.54-4.15,3.25-2.77,4.88-6.62,4.88-11.56s-1.63-8.77-4.88-11.51c-3.26-2.73-8.1-4.1-14.54-4.1h-23.46l6.4-7.18v45.57Zm36.82,27.84l-19.87-28.51h15.6l19.98,28.51h-15.71Z"/>
          <path class="cls-1" d="m683.01,531.17c-6.06,0-11.69-1.01-16.89-3.03-5.2-2.02-9.71-4.86-13.53-8.53-3.82-3.67-6.77-7.95-8.87-12.85-2.1-4.9-3.14-10.23-3.14-16s1.05-11.21,3.14-16.11c2.09-4.9,5.05-9.17,8.87-12.8,3.82-3.63,8.31-6.45,13.47-8.47s10.81-3.03,16.95-3.03,11.67.99,16.84,2.97c5.16,1.98,9.63,4.79,13.41,8.42,3.78,3.63,6.72,7.91,8.81,12.85,2.09,4.94,3.14,10.33,3.14,16.16s-1.05,11.21-3.14,16.11c-2.1,4.9-5.03,9.19-8.81,12.85-3.78,3.67-8.25,6.49-13.41,8.47-5.16,1.98-10.78,2.97-16.84,2.97Zm0-12.8c3.97,0,7.61-.67,10.94-2.02,3.33-1.35,6.23-3.25,8.7-5.72s4.39-5.39,5.78-8.75c1.38-3.37,2.08-7.07,2.08-11.11s-.67-7.75-2.02-11.11c-1.35-3.37-3.27-6.29-5.78-8.76-2.51-2.47-5.43-4.38-8.75-5.72-3.33-1.35-6.98-2.02-10.94-2.02s-7.65.67-11.06,2.02c-3.41,1.35-6.34,3.27-8.81,5.78-2.47,2.51-4.42,5.43-5.84,8.75-1.42,3.33-2.13,7.02-2.13,11.06s.71,7.63,2.13,11c1.42,3.37,3.37,6.3,5.84,8.81,2.47,2.51,5.41,4.43,8.81,5.78,3.4,1.35,7.09,2.02,11.06,2.02Z"/>
          <path class="cls-1" d="m777.97,530.05v-66.23h-26.04v-12.35h66.67v12.35h-26.04v66.23h-14.59Z"/>
          <path class="cls-1" d="m887.74,531.17c-6.06,0-11.69-1.01-16.89-3.03-5.2-2.02-9.71-4.86-13.53-8.53-3.82-3.67-6.77-7.95-8.87-12.85-2.1-4.9-3.14-10.23-3.14-16s1.05-11.21,3.14-16.11c2.09-4.9,5.05-9.17,8.87-12.8,3.82-3.63,8.31-6.45,13.47-8.47s10.81-3.03,16.95-3.03,11.67.99,16.84,2.97c5.16,1.98,9.63,4.79,13.41,8.42,3.78,3.63,6.72,7.91,8.81,12.85,2.09,4.94,3.14,10.33,3.14,16.16s-1.05,11.21-3.14,16.11c-2.1,4.9-5.03,9.19-8.81,12.85-3.78,3.67-8.25,6.49-13.41,8.47-5.16,1.98-10.78,2.97-16.84,2.97Zm0-12.8c3.97,0,7.61-.67,10.94-2.02,3.33-1.35,6.23-3.25,8.7-5.72s4.39-5.39,5.78-8.75c1.38-3.37,2.08-7.07,2.08-11.11s-.67-7.75-2.02-11.11c-1.35-3.37-3.27-6.29-5.78-8.76-2.51-2.47-5.43-4.38-8.75-5.72-3.33-1.35-6.98-2.02-10.94-2.02s-7.65.67-11.06,2.02c-3.41,1.35-6.34,3.27-8.81,5.78-2.47,2.51-4.42,5.43-5.84,8.75-1.42,3.33-2.13,7.02-2.13,11.06s.71,7.63,2.13,11c1.42,3.37,3.37,6.3,5.84,8.81,2.47,2.51,5.41,4.43,8.81,5.78,3.4,1.35,7.09,2.02,11.06,2.02Z"/>
          <path class="cls-1" d="m1004.26,531.17c-6.06,0-11.64-.99-16.72-2.97-5.09-1.98-9.52-4.81-13.3-8.47-3.78-3.67-6.72-7.93-8.81-12.8-2.1-4.86-3.14-10.25-3.14-16.16s1.05-11.3,3.14-16.16c2.09-4.86,5.05-9.13,8.87-12.8,3.82-3.67,8.27-6.49,13.36-8.47,5.09-1.98,10.66-2.97,16.72-2.97,6.43,0,12.31,1.11,17.62,3.31,5.31,2.21,9.8,5.48,13.47,9.82l-9.43,8.87c-2.92-3.07-6.14-5.37-9.65-6.9-3.52-1.53-7.3-2.3-11.34-2.3s-7.88.67-11.28,2.02c-3.41,1.35-6.36,3.26-8.87,5.72-2.51,2.47-4.47,5.39-5.89,8.76-1.42,3.37-2.13,7.07-2.13,11.11s.71,7.75,2.13,11.11c1.42,3.37,3.38,6.29,5.89,8.75,2.51,2.47,5.46,4.38,8.87,5.72,3.4,1.35,7.17,2.02,11.28,2.02s7.82-.77,11.34-2.3c3.52-1.53,6.73-3.87,9.65-7.02l9.43,8.87c-3.67,4.34-8.16,7.63-13.47,9.88-5.31,2.25-11.22,3.37-17.74,3.37Z"/>
          <path class="cls-1" d="m1107.07,531.17c-6.06,0-11.69-1.01-16.89-3.03-5.2-2.02-9.71-4.86-13.53-8.53-3.82-3.67-6.77-7.95-8.87-12.85-2.1-4.9-3.14-10.23-3.14-16s1.05-11.21,3.14-16.11c2.09-4.9,5.05-9.17,8.87-12.8,3.82-3.63,8.31-6.45,13.47-8.47s10.81-3.03,16.95-3.03,11.67.99,16.84,2.97c5.16,1.98,9.63,4.79,13.41,8.42,3.78,3.63,6.72,7.91,8.81,12.85,2.09,4.94,3.14,10.33,3.14,16.16s-1.05,11.21-3.14,16.11c-2.1,4.9-5.03,9.19-8.81,12.85-3.78,3.67-8.25,6.49-13.41,8.47-5.16,1.98-10.78,2.97-16.84,2.97Zm0-12.8c3.97,0,7.61-.67,10.94-2.02,3.33-1.35,6.23-3.25,8.7-5.72s4.39-5.39,5.78-8.75c1.38-3.37,2.08-7.07,2.08-11.11s-.67-7.75-2.02-11.11c-1.35-3.37-3.27-6.29-5.78-8.76-2.51-2.47-5.43-4.38-8.75-5.72-3.33-1.35-6.98-2.02-10.94-2.02s-7.65.67-11.06,2.02c-3.41,1.35-6.34,3.27-8.81,5.78-2.47,2.51-4.42,5.43-5.84,8.75-1.42,3.33-2.13,7.02-2.13,11.06s.71,7.63,2.13,11c1.42,3.37,3.37,6.3,5.84,8.81,2.47,2.51,5.41,4.43,8.81,5.78,3.4,1.35,7.09,2.02,11.06,2.02Z"/>
          <path class="cls-1" d="m1187.22,530.05v-78.57h14.59v66.23h41.08v12.35h-55.67Z"/>
        </g>
      </g>
      <g>
        <path class="cls-1" d="m438.25,647.83v-84.47h45.13c11.66,0,20.27,2.07,25.82,6.21,5.55,4.14,8.33,9.43,8.33,15.87,0,4.26-1.19,8.07-3.56,11.4-2.37,3.34-5.81,5.97-10.32,7.9-4.51,1.93-10.06,2.9-16.65,2.9l2.41-6.52c6.6,0,12.29.93,17.07,2.78,4.79,1.85,8.49,4.52,11.1,8.02,2.61,3.5,3.92,7.7,3.92,12.61,0,7.32-3.04,13.03-9.11,17.13-6.08,4.1-14.94,6.15-26.61,6.15h-47.54Zm28-19.91h17.13c3.14,0,5.49-.56,7.06-1.69,1.57-1.13,2.35-2.78,2.35-4.95s-.78-3.82-2.35-4.95c-1.57-1.13-3.92-1.69-7.06-1.69h-19.07v-18.82h15.2c3.22,0,5.57-.54,7.06-1.63,1.49-1.09,2.23-2.63,2.23-4.65s-.74-3.66-2.23-4.71c-1.49-1.04-3.84-1.57-7.06-1.57h-13.27v44.65Z"/>
        <path class="cls-1" d="m583.65,626.35h42.23v21.48h-70.23v-84.47h68.66v21.48h-40.67v41.51Zm-1.93-31.62h37.65v20.51h-37.65v-20.51Z"/>
        <path class="cls-1" d="m679.34,647.83v-62.38h-24.74v-22.08h77.95v22.08h-24.74v62.38h-28.48Z"/>
        <path class="cls-1" d="m750.66,647.83l36.92-84.47h28l36.92,84.47h-29.44l-27.27-70.95h11.1l-27.27,70.95h-28.96Zm21.96-14.72l7.24-20.51h38.85l7.24,20.51h-53.33Z"/>
      </g>
    </g>
  </g>
</svg>