<svg xmlns="http://www.w3.org/2000/svg" viewBox="0 0 405.72 543.86"><defs><style>.cls-1{fill:#fff;}</style></defs><g id="Layer_2" data-name="Layer 2"><g id="Layer_1-2" data-name="Layer 1"><path class="cls-1" d="M267.1,16.51C226.05,39,196.81,96.45,209.83,128.33c2.85-6.81,5-13.55,8.39-19.56,3.25-5.69,7.87-10.59,12.13-16.17,1.66,2.12,2.5,2.7,2.45,3.21-3.11,34.92,13.76,60.88,37.16,84.34,8.62,8.64,17.44,17.92,23,28.56,5.75,11.09,7.62,24.17,9.05,37.28-5.87-39-36-58.71-63-80.94-16-13.19-32.19-26.28-47-40.7C160.42,93.78,142.4,56.47,139.07,12.47c-.29-3.82-.82-7.63-1.27-11.44a3.55,3.55,0,0,0-.48-1C118,24.06,98.11,90.34,103.39,139.21c5.06,46.71,27,83.87,65.22,111.75-27.23-40.1-41-84.09-40.26-135,2,3.3,3.1,4.54,3.53,6,8.67,29.12,28.47,48.47,54.79,62.09,8.87,4.59,17.85,9,26.77,13.46,49.74,25,64.67,54.64,55.14,109.54-.65,3.73-1.16,7.48-1.8,11.68,41.27-18.31,61.63-69.49,43.85-109.34a251.82,251.82,0,0,0-14.86-28.56C264.8,130,249.92,76.42,267.1,16.51Z"/><path class="cls-1" d="M219,309.17c-56.75-13.27-92-50.69-116.59-100.91C90.3,264.25,150.6,316.25,219,309.17Z"/><path class="cls-1" d="M132.19,306.06c9.16,27.23,49.19,39,84.89,28.45-14.49-3-30.26-4.88-45-9.81C157.87,320,144.73,312.06,132.19,306.06Z"/><path class="cls-1" d="M3.53,393.32c0-22.34,15.66-37.71,38-37.71,22,0,37.42,14.94,37.42,37.57v34.58H63.44V414c-4.27,10.39-13.8,15.66-24.9,15.66C21.46,429.61,3.53,417.37,3.53,393.32ZM62,392.61c0-12.38-8.25-21.2-20.64-21.2s-20.77,8.82-20.77,21.2,8.39,21.2,20.77,21.2S62,405,62,392.61Z"/><path class="cls-1" d="M101.86,391.19c0-23.48,14-35.58,34.72-35.58s34.72,11.95,34.72,35.58v36.57H154.37V391.19c0-13.38-7.12-19.78-17.79-19.78s-17.79,6.4-17.79,19.78v36.57H101.86Z"/><path class="cls-1" d="M193.78,435.44h17.08c2.85,6.55,9.68,9.54,18.64,9.54,12.53,0,20.35-5.84,20.35-22.2v-6.12c-4.84,7.82-13.23,12.09-23.76,12.09-16.79,0-34.72-11.24-34.72-36.14,0-21.35,15.65-37,37.85-37s37.57,14.8,37.57,37.57v29c0,26.89-16.65,37.42-37.29,37.42C212,459.63,198.2,452.09,193.78,435.44Zm56.07-42.83c0-12.38-8.25-21.2-20.63-21.2s-20.78,8.82-20.78,21.2S216.84,413,229.22,413,249.85,405,249.85,392.61Z"/><path class="cls-1" d="M286.85,392.61c0-21.35,15.65-37,37.85-37s37.57,15.65,37.57,37v6H304.63c2.28,10.24,10.11,15.65,20.07,15.65,7.54,0,13.09-2.14,16.65-6.69h18.07c-5.26,13.38-18.07,22.06-34.72,22.06C302.5,429.61,286.85,414,286.85,392.61Zm57.49-7.54C341.63,375.67,334,371,324.7,371c-9.53,0-16.93,4.84-19.64,14.09Z"/><path class="cls-1" d="M384.75,326.72h16.93v101H384.75Z"/><path class="cls-1" d="M0,503c0-14.39,9.71-23.74,23.65-23.74,14.12,0,24,9.71,24,23.83,0,15.2-11.33,22.93-22.12,22.93-6.39,0-11.69-2.7-14.84-7.64v25.44H0Zm36.87-.36c0-7.82-5.31-13.4-13.13-13.4s-13,5.58-13,13.4,5.22,13.4,13,13.4S36.87,510.5,36.87,502.68Z"/><path class="cls-1" d="M60.34,499.08c0-13.39,7.91-19.78,19.51-19.78s19.42,6.39,19.42,20v.27H88.66v-.45c0-7.19-3.6-9.8-8.81-9.8S71,491.89,71,499.08v25.81H60.34Z"/><path class="cls-1" d="M108.89,502.68c0-13.49,9.89-23.38,23.92-23.38s23.92,9.89,23.92,23.38-9.89,23.38-23.92,23.38S108.89,516.17,108.89,502.68Zm37,0c0-7.82-5.22-13.4-13-13.4s-13.13,5.58-13.13,13.4,5.31,13.4,13.13,13.4S145.85,510.5,145.85,502.68Z"/><path class="cls-1" d="M169.41,507.81V464.73h10.7v15.74H203v9.71H180.11v17.63c0,5.93,3.06,8.27,7.46,8.27s7.47-2.25,7.47-8.27v-1.17h10.7v1.17c0,12.31-7.38,18.25-18.17,18.25S169.41,520.12,169.41,507.81Z"/><path class="cls-1" d="M216.44,502.68c0-13.49,9.89-23.38,23.92-23.38s23.92,9.89,23.92,23.38-9.9,23.38-23.92,23.38S216.44,516.17,216.44,502.68Zm37,0c0-7.82-5.22-13.4-13-13.4s-13.13,5.58-13.13,13.4,5.3,13.4,13.13,13.4S253.4,510.5,253.4,502.68Z"/><path class="cls-1" d="M275.16,502.68c0-13.49,9.89-23.38,23.92-23.38,12,0,20.86,7.28,23,17.81H311.3c-1.88-4.77-6.38-7.83-12.22-7.83-7.83,0-13.13,5.58-13.13,13.4s5.3,13.4,13.13,13.4c5.84,0,10.34-3.06,12.22-7.82h10.79c-2.15,10.52-11,17.8-23,17.8C285.05,526.06,275.16,516.17,275.16,502.68Z"/><path class="cls-1" d="M333,502.68c0-13.49,9.9-23.38,23.92-23.38s23.92,9.89,23.92,23.38-9.89,23.38-23.92,23.38S333,516.17,333,502.68Zm37,0c0-7.82-5.21-13.4-13-13.4s-13.13,5.58-13.13,13.4,5.31,13.4,13.13,13.4S369.93,510.5,369.93,502.68Z"/><path class="cls-1" d="M395,461.05h10.7v63.84H395Z"/></g></g></svg>