<svg xmlns="http://www.w3.org/2000/svg" viewBox="0 0 216.23 338.34"><defs><style>.cls-1{fill:#54a3da;}</style></defs><g id="Layer_2" data-name="Layer 2"><g id="Layer_1-2" data-name="Layer 1"><path class="cls-1" d="M166.24,16.51C125.2,39,96,96.45,109,128.33c2.85-6.81,5-13.55,8.39-19.56,3.25-5.69,7.87-10.59,12.14-16.17,1.66,2.12,2.49,2.7,2.45,3.21-3.12,34.92,13.76,60.88,37.16,84.34,8.62,8.64,17.43,17.92,22.95,28.56,5.75,11.09,7.63,24.17,9.05,37.28-5.87-39-36-58.71-63-80.94-16-13.19-32.2-26.28-47-40.7C59.57,93.78,41.54,56.47,38.21,12.47,37.92,8.65,37.4,4.84,37,1a4.16,4.16,0,0,0-.48-1C17.09,24.06-2.75,90.34,2.54,139.21c5.05,46.71,27,83.87,65.21,111.75-27.22-40.1-41-84.09-40.25-135,2,3.3,3.1,4.54,3.53,6,8.66,29.12,28.47,48.47,54.78,62.09,8.87,4.59,17.85,9,26.78,13.46,49.74,25,64.66,54.64,55.13,109.54-.65,3.73-1.15,7.48-1.8,11.68,41.28-18.31,61.63-69.49,43.86-109.34a251.89,251.89,0,0,0-14.87-28.56C163.94,130,149.07,76.42,166.24,16.51Z"/><path class="cls-1" d="M118.14,309.17c-56.75-13.27-92-50.69-116.58-100.91C-10.55,264.25,49.74,316.25,118.14,309.17Z"/><path class="cls-1" d="M31.34,306.06c9.16,27.23,49.18,39,84.88,28.45-14.49-3-30.25-4.88-45-9.81C57,320,43.87,312.06,31.34,306.06Z"/></g></g></svg>