<?xml version="1.0" encoding="UTF-8" standalone="no"?>
<!DOCTYPE svg PUBLIC "-//W3C//DTD SVG 1.1//EN" "http://www.w3.org/Graphics/SVG/1.1/DTD/svg11.dtd">
<svg xmlns="http://www.w3.org/2000/svg" version="1.1" viewBox="0.00 0.00 653.00 644.00">
<g stroke-width="2.00" fill="none" stroke-linecap="butt">
<path stroke="#68a2a3" vector-effect="non-scaling-stroke" d="
  M 240.83 240.43
  Q 227.17 243.72 215.04 251.15
  Q 214.41 251.53 214.41 250.79
  Q 214.45 203.67 214.32 156.37
  C 214.30 146.89 213.10 140.31 205.30 135.43
  C 192.05 127.14 174.07 135.65 174.06 151.75
  Q 174.00 212.95 174.04 274.15
  C 174.05 288.37 175.33 301.05 174.10 316.87
  C 167.92 396.71 259.08 442.44 319.24 390.65
  C 323.78 386.74 327.78 382.02 331.39 377.24
  Q 331.91 376.56 332.43 377.24
  C 359.93 413.42 408.04 422.89 447.49 400.28
  A 0.68 0.68 0.0 0 1 448.51 400.87
  Q 448.55 424.08 448.52 447.20
  C 448.50 468.97 434.36 486.36 413.23 491.79
  C 398.31 495.63 381.93 490.62 371.12 479.87
  Q 358.21 467.02 357.58 449.19
  Q 357.25 439.86 357.25 439.85
  C 354.47 422.56 332.42 416.46 321.12 429.40
  Q 316.06 435.19 316.01 444.25
  C 315.94 458.88 317.70 469.08 323.46 482.43
  C 337.64 515.27 370.31 535.64 405.75 534.50
  C 453.42 532.95 489.95 494.30 490.34 446.75
  C 490.36 444.88 489.83 442.69 489.83 440.74
  Q 489.74 393.12 489.60 345.50
  Q 489.59 341.68 490.21 329.74
  Q 490.83 317.84 487.78 305.34
  C 470.24 233.47 377.90 213.84 332.91 272.68
  Q 331.93 273.96 330.96 272.68
  C 314.32 250.64 288.08 238.03 260.64 238.08
  Q 250.50 238.10 240.83 240.43"
/>
<path stroke="#68a2a3" vector-effect="non-scaling-stroke" d="
  M 306.61 325.29
  A 45.35 45.35 0.0 0 0 261.26 279.94
  A 45.35 45.35 0.0 0 0 215.91 325.29
  A 45.35 45.35 0.0 0 0 261.26 370.64
  A 45.35 45.35 0.0 0 0 306.61 325.29"
/>
<path stroke="#68a2a3" vector-effect="non-scaling-stroke" d="
  M 447.98 325.29
  A 45.32 45.32 0.0 0 0 402.66 279.97
  A 45.32 45.32 0.0 0 0 357.34 325.29
  A 45.32 45.32 0.0 0 0 402.66 370.61
  A 45.32 45.32 0.0 0 0 447.98 325.29"
/>
</g>
<path fill="#3a6ea5" d="
  M 328.92 589.53
  Q 322.77 589.51 316.62 589.46
  C 313.29 589.43 309.15 588.77 305.00 588.51
  Q 296.25 587.96 285.90 585.89
  C 245.55 577.82 209.09 562.52 176.11 537.63
  C 143.45 512.98 117.07 482.89 98.86 447.41
  C 95.01 439.91 90.62 431.04 87.45 423.01
  Q 74.38 389.93 69.95 354.56
  Q 69.64 352.07 69.53 347.41
  C 69.45 344.19 69.01 340.89 69.01 337.85
  C 69.00 321.00 68.36 304.63 71.00 287.12
  Q 84.27 199.11 147.82 135.83
  C 210.59 73.33 301.93 47.66 387.27 65.34
  C 433.90 75.01 478.54 97.43 513.22 130.38
  Q 520.18 136.99 527.37 144.51
  C 566.26 185.20 590.92 237.96 597.36 293.88
  C 597.62 296.15 598.47 300.60 598.52 304.02
  Q 598.56 306.92 598.81 308.96
  Q 600.15 319.51 599.10 330.05
  C 598.40 337.05 598.76 343.94 597.90 350.92
  Q 597.67 352.82 597.50 356.61
  C 597.39 359.17 596.73 362.13 596.34 364.72
  C 587.30 425.33 556.67 480.36 511.45 521.44
  Q 458.67 569.37 388.71 584.12
  Q 365.52 589.01 358.25 589.28
  Q 347.81 589.68 337.36 590.03
  C 334.72 590.12 331.74 589.55 328.92 589.53
  Z
  M 240.83 240.43
  Q 227.17 243.72 215.04 251.15
  Q 214.41 251.53 214.41 250.79
  Q 214.45 203.67 214.32 156.37
  C 214.30 146.89 213.10 140.31 205.30 135.43
  C 192.05 127.14 174.07 135.65 174.06 151.75
  Q 174.00 212.95 174.04 274.15
  C 174.05 288.37 175.33 301.05 174.10 316.87
  C 167.92 396.71 259.08 442.44 319.24 390.65
  C 323.78 386.74 327.78 382.02 331.39 377.24
  Q 331.91 376.56 332.43 377.24
  C 359.93 413.42 408.04 422.89 447.49 400.28
  A 0.68 0.68 0.0 0 1 448.51 400.87
  Q 448.55 424.08 448.52 447.20
  C 448.50 468.97 434.36 486.36 413.23 491.79
  C 398.31 495.63 381.93 490.62 371.12 479.87
  Q 358.21 467.02 357.58 449.19
  Q 357.25 439.86 357.25 439.85
  C 354.47 422.56 332.42 416.46 321.12 429.40
  Q 316.06 435.19 316.01 444.25
  C 315.94 458.88 317.70 469.08 323.46 482.43
  C 337.64 515.27 370.31 535.64 405.75 534.50
  C 453.42 532.95 489.95 494.30 490.34 446.75
  C 490.36 444.88 489.83 442.69 489.83 440.74
  Q 489.74 393.12 489.60 345.50
  Q 489.59 341.68 490.21 329.74
  Q 490.83 317.84 487.78 305.34
  C 470.24 233.47 377.90 213.84 332.91 272.68
  Q 331.93 273.96 330.96 272.68
  C 314.32 250.64 288.08 238.03 260.64 238.08
  Q 250.50 238.10 240.83 240.43
  Z"
/>
<path fill="#96d6a1" d="
  M 260.64 238.08
  C 288.08 238.03 314.32 250.64 330.96 272.68
  Q 331.93 273.96 332.91 272.68
  C 377.90 213.84 470.24 233.47 487.78 305.34
  Q 490.83 317.84 490.21 329.74
  Q 489.59 341.68 489.60 345.50
  Q 489.74 393.12 489.83 440.74
  C 489.83 442.69 490.36 444.88 490.34 446.75
  C 489.95 494.30 453.42 532.95 405.75 534.50
  C 370.31 535.64 337.64 515.27 323.46 482.43
  C 317.70 469.08 315.94 458.88 316.01 444.25
  Q 316.06 435.19 321.12 429.40
  C 332.42 416.46 354.47 422.56 357.25 439.85
  Q 357.25 439.86 357.58 449.19
  Q 358.21 467.02 371.12 479.87
  C 381.93 490.62 398.31 495.63 413.23 491.79
  C 434.36 486.36 448.50 468.97 448.52 447.20
  Q 448.55 424.08 448.51 400.87
  A 0.68 0.68 0.0 0 0 447.49 400.28
  C 408.04 422.89 359.93 413.42 332.43 377.24
  Q 331.91 376.56 331.39 377.24
  C 327.78 382.02 323.78 386.74 319.24 390.65
  C 259.08 442.44 167.92 396.71 174.10 316.87
  C 175.33 301.05 174.05 288.37 174.04 274.15
  Q 174.00 212.95 174.06 151.75
  C 174.07 135.65 192.05 127.14 205.30 135.43
  C 213.10 140.31 214.30 146.89 214.32 156.37
  Q 214.45 203.67 214.41 250.79
  Q 214.41 251.53 215.04 251.15
  Q 227.17 243.72 240.83 240.43
  Q 250.50 238.10 260.64 238.08
  Z
  M 306.61 325.29
  A 45.35 45.35 0.0 0 0 261.26 279.94
  A 45.35 45.35 0.0 0 0 215.91 325.29
  A 45.35 45.35 0.0 0 0 261.26 370.64
  A 45.35 45.35 0.0 0 0 306.61 325.29
  Z
  M 447.98 325.29
  A 45.32 45.32 0.0 0 0 402.66 279.97
  A 45.32 45.32 0.0 0 0 357.34 325.29
  A 45.32 45.32 0.0 0 0 402.66 370.61
  A 45.32 45.32 0.0 0 0 447.98 325.29
  Z"
/>
<path fill="#3a6ea5" d="
  M 306.61 325.29
  A 45.35 45.35 0.0 0 1 261.26 370.64
  A 45.35 45.35 0.0 0 1 215.91 325.29
  A 45.35 45.35 0.0 0 1 261.26 279.94
  A 45.35 45.35 0.0 0 1 306.61 325.29
  Z"
/>
<path fill="#3a6ea5" d="
  M 447.98 325.29
  A 45.32 45.32 0.0 0 1 402.66 370.61
  A 45.32 45.32 0.0 0 1 357.34 325.29
  A 45.32 45.32 0.0 0 1 402.66 279.97
  A 45.32 45.32 0.0 0 1 447.98 325.29
  Z"
/>
</svg>
