<?xml version="1.0" encoding="UTF-8"?>
<svg xmlns="http://www.w3.org/2000/svg" xmlns:xlink="http://www.w3.org/1999/xlink" width="120px" height="21px" viewBox="0 0 119 21" version="1.1">
<g id="surface1">
<path style=" stroke:none;fill-rule:evenodd;fill:rgb(100%,100%,100%);fill-opacity:1;" d="M 60.132812 18.238281 C 59.347656 18.238281 58.628906 18.074219 57.976562 17.75 C 57.609375 17.5625 57.289062 17.339844 57.015625 17.085938 C 56.84375 16.921875 56.496094 17.03125 56.496094 17.265625 L 56.496094 17.613281 C 56.496094 17.769531 56.363281 17.898438 56.203125 17.898438 L 54.789062 17.898438 C 54.625 17.898438 54.492188 17.769531 54.492188 17.613281 L 54.492188 3.050781 C 54.492188 2.890625 54.625 2.761719 54.789062 2.761719 L 56.195312 2.761719 C 56.359375 2.761719 56.488281 2.890625 56.488281 3.050781 L 56.488281 8.175781 C 56.488281 8.40625 56.839844 8.519531 57.011719 8.355469 C 57.285156 8.097656 57.609375 7.875 57.976562 7.6875 C 58.628906 7.363281 59.347656 7.203125 60.132812 7.203125 C 61.539062 7.203125 62.730469 7.738281 63.703125 8.808594 C 64.703125 9.894531 65.203125 11.199219 65.203125 12.71875 C 65.203125 14.257812 64.703125 15.558594 63.703125 16.628906 C 62.730469 17.703125 61.539062 18.238281 60.132812 18.238281 Z M 59.804688 16.460938 C 60.765625 16.460938 61.570312 16.109375 62.222656 15.40625 C 62.875 14.714844 63.203125 13.820312 63.203125 12.71875 C 63.203125 11.636719 62.875 10.738281 62.222656 10.035156 C 61.570312 9.332031 60.765625 8.976562 59.804688 8.976562 C 58.832031 8.976562 58.019531 9.332031 57.367188 10.035156 C 56.730469 10.738281 56.410156 11.636719 56.410156 12.71875 C 56.410156 13.820312 56.730469 14.722656 57.367188 15.425781 C 58.019531 16.117188 58.832031 16.460938 59.804688 16.460938 Z M 47.613281 18.238281 C 46.042969 18.238281 44.753906 17.714844 43.738281 16.671875 C 42.722656 15.628906 42.214844 14.3125 42.214844 12.71875 C 42.214844 11.140625 42.707031 9.832031 43.695312 8.789062 C 44.679688 7.730469 45.941406 7.203125 47.480469 7.203125 C 49.0625 7.203125 50.320312 7.703125 51.246094 8.703125 C 52.25 9.75 52.726562 11.324219 52.664062 12.757812 C 52.65625 12.941406 52.496094 13.078125 52.308594 13.078125 L 44.621094 13.078125 C 44.421875 13.078125 44.261719 13.238281 44.28125 13.429688 C 44.375 14.28125 44.714844 14.984375 45.304688 15.53125 C 45.972656 16.152344 46.769531 16.460938 47.699219 16.460938 C 48.882812 16.460938 49.832031 15.925781 50.542969 14.859375 C 50.636719 14.71875 50.824219 14.660156 50.984375 14.734375 L 52.179688 15.300781 C 52.347656 15.378906 52.417969 15.582031 52.316406 15.738281 C 51.855469 16.472656 51.246094 17.058594 50.484375 17.496094 C 49.644531 17.992188 48.6875 18.238281 47.613281 18.238281 Z M 44.527344 11.066406 C 44.457031 11.269531 44.625 11.472656 44.847656 11.472656 L 50.152344 11.472656 C 50.355469 11.472656 50.519531 11.304688 50.476562 11.109375 C 50.359375 10.550781 50.070312 10.082031 49.613281 9.695312 C 49.078125 9.21875 48.351562 8.976562 47.4375 8.976562 C 46.683594 8.976562 46.03125 9.203125 45.476562 9.65625 C 45.042969 10.023438 44.722656 10.492188 44.527344 11.066406 Z M 41.597656 7.9375 C 41.664062 7.742188 41.515625 7.542969 41.300781 7.542969 L 39.917969 7.542969 C 39.78125 7.542969 39.65625 7.628906 39.617188 7.757812 L 37.578125 14.480469 C 37.5 14.75 37.105469 14.753906 37.015625 14.488281 L 34.75 7.75 C 34.707031 7.625 34.585938 7.542969 34.449219 7.542969 L 32.835938 7.542969 C 32.699219 7.542969 32.582031 7.625 32.539062 7.75 L 30.25 14.492188 C 30.160156 14.757812 29.769531 14.75 29.6875 14.484375 L 27.648438 7.757812 C 27.609375 7.628906 27.484375 7.542969 27.347656 7.542969 L 25.921875 7.542969 C 25.707031 7.542969 25.558594 7.742188 25.625 7.9375 L 28.859375 17.6875 C 28.902344 17.8125 29.023438 17.898438 29.160156 17.898438 L 30.726562 17.898438 C 30.863281 17.898438 30.984375 17.8125 31.023438 17.6875 L 33.308594 10.792969 C 33.398438 10.53125 33.78125 10.527344 33.871094 10.792969 L 36.175781 17.6875 C 36.21875 17.8125 36.335938 17.898438 36.472656 17.898438 L 38.0625 17.898438 C 38.199219 17.898438 38.320312 17.8125 38.363281 17.6875 Z M 103.652344 17.285156 C 104.230469 17.808594 104.957031 18.066406 105.828125 18.066406 C 106.402344 18.066406 106.921875 18.003906 107.378906 17.878906 C 107.53125 17.835938 107.613281 17.671875 107.558594 17.523438 L 107.128906 16.351562 C 107.074219 16.195312 106.890625 16.117188 106.726562 16.167969 C 106.683594 16.183594 106.636719 16.195312 106.589844 16.207031 C 106.445312 16.234375 106.292969 16.25 106.132812 16.25 C 105.785156 16.25 105.472656 16.128906 105.195312 15.890625 C 104.921875 15.636719 104.78125 15.164062 104.78125 14.472656 L 104.78125 9.601562 C 104.78125 9.445312 104.914062 9.316406 105.078125 9.316406 L 107.101562 9.316406 C 107.261719 9.316406 107.394531 9.1875 107.394531 9.03125 L 107.394531 7.828125 C 107.394531 7.667969 107.261719 7.542969 107.101562 7.542969 L 105.078125 7.542969 C 104.914062 7.542969 104.78125 7.414062 104.78125 7.253906 L 104.78125 3.050781 C 104.78125 2.890625 104.652344 2.761719 104.488281 2.761719 L 103.074219 2.761719 C 102.910156 2.761719 102.78125 2.890625 102.78125 3.050781 L 102.78125 7.253906 C 102.78125 7.414062 102.648438 7.542969 102.484375 7.542969 L 101.203125 7.542969 C 101.039062 7.542969 100.90625 7.667969 100.90625 7.828125 L 100.90625 9.03125 C 100.90625 9.1875 101.039062 9.316406 101.203125 9.316406 L 102.484375 9.316406 C 102.648438 9.316406 102.78125 9.445312 102.78125 9.601562 L 102.78125 15.109375 C 102.792969 16.039062 103.085938 16.765625 103.652344 17.285156 Z M 75.046875 16.96875 C 76.019531 16.125 76.507812 15.066406 76.507812 13.796875 C 76.507812 13.023438 76.28125 12.324219 75.832031 11.707031 C 75.625 11.410156 75.328125 11.035156 74.453125 10.5625 C 74.269531 10.460938 74.265625 10.191406 74.441406 10.078125 C 75.484375 9.382812 76.003906 8.332031 76.003906 7.097656 C 76.003906 5.925781 75.5625 4.976562 74.679688 4.242188 C 73.777344 3.484375 72.667969 3.101562 71.347656 3.101562 C 70.289062 3.101562 69.367188 3.378906 68.582031 3.925781 C 67.882812 4.417969 67.363281 5.039062 67.023438 5.796875 C 66.953125 5.957031 67.035156 6.136719 67.195312 6.203125 L 68.433594 6.710938 C 68.609375 6.78125 68.808594 6.695312 68.886719 6.527344 C 69.375 5.484375 70.195312 4.960938 71.347656 4.960938 C 72.128906 4.960938 72.761719 5.160156 73.242188 5.554688 C 73.71875 5.949219 73.960938 6.464844 73.960938 7.097656 C 73.960938 7.789062 73.707031 8.351562 73.199219 8.789062 C 72.691406 9.210938 72.035156 9.421875 71.238281 9.421875 L 70.4375 9.421875 C 70.253906 9.421875 70.105469 9.566406 70.105469 9.746094 L 70.105469 10.917969 C 70.105469 11.097656 70.253906 11.242188 70.4375 11.242188 L 71.390625 11.242188 C 72.234375 11.242188 72.949219 11.488281 73.546875 11.980469 C 74.15625 12.472656 74.460938 13.078125 74.460938 13.796875 C 74.460938 14.515625 74.167969 15.128906 73.589844 15.636719 C 72.996094 16.128906 72.289062 16.375 71.476562 16.375 C 70.738281 16.375 70.097656 16.164062 69.5625 15.742188 C 69.117188 15.371094 68.777344 14.867188 68.542969 14.230469 C 68.476562 14.046875 68.269531 13.949219 68.085938 14.023438 L 66.875 14.511719 C 66.71875 14.574219 66.636719 14.742188 66.691406 14.894531 C 67.027344 15.855469 67.617188 16.644531 68.453125 17.265625 C 69.351562 17.914062 70.359375 18.238281 71.476562 18.238281 C 72.898438 18.238281 74.089844 17.8125 75.046875 16.96875 Z M 80.0625 14.726562 C 80.0625 14.164062 80.328125 13.691406 80.867188 13.3125 C 81.417969 12.929688 82.097656 12.742188 82.914062 12.742188 C 83.953125 12.742188 84.78125 12.949219 85.394531 13.367188 C 85.480469 13.421875 85.527344 13.515625 85.519531 13.617188 C 85.480469 14.367188 85.148438 15.027344 84.523438 15.59375 C 83.871094 16.199219 83.121094 16.503906 82.28125 16.503906 C 81.6875 16.503906 81.164062 16.335938 80.714844 15.996094 C 80.277344 15.65625 80.0625 15.234375 80.0625 14.726562 Z M 86.15625 8.367188 C 85.300781 7.589844 84.132812 7.203125 82.652344 7.203125 C 80.867188 7.203125 79.492188 7.800781 78.523438 8.992188 C 78.421875 9.121094 78.460938 9.304688 78.601562 9.390625 L 79.867188 10.164062 C 80 10.246094 80.175781 10.210938 80.273438 10.089844 C 80.90625 9.320312 81.734375 8.9375 82.761719 8.9375 C 83.5 8.9375 84.144531 9.175781 84.695312 9.65625 C 85.253906 10.121094 85.449219 10.683594 85.503906 11.320312 C 85.523438 11.539062 85.277344 11.679688 85.070312 11.597656 C 84.382812 11.316406 83.554688 11.175781 82.585938 11.175781 C 81.191406 11.175781 80.074219 11.492188 79.234375 12.128906 C 78.40625 12.761719 77.992188 13.613281 77.992188 14.6875 C 77.992188 15.699219 78.382812 16.546875 79.167969 17.222656 C 79.964844 17.898438 80.953125 18.238281 82.128906 18.238281 C 83.507812 18.238281 84.609375 17.644531 85.4375 16.460938 L 85.4375 17.613281 C 85.4375 17.769531 85.570312 17.898438 85.730469 17.898438 L 87.144531 17.898438 C 87.308594 17.898438 87.441406 17.769531 87.441406 17.613281 L 87.441406 11.515625 C 87.441406 10.175781 87.011719 9.125 86.15625 8.367188 Z M 99.058594 17.59375 C 99.058594 17.761719 98.917969 17.898438 98.746094 17.898438 L 97.371094 17.898438 C 97.199219 17.898438 97.058594 17.761719 97.058594 17.59375 L 97.058594 17.253906 C 97.058594 17.035156 96.714844 16.929688 96.554688 17.085938 C 96.300781 17.324219 96 17.539062 95.640625 17.730469 C 95.019531 18.066406 94.363281 18.238281 93.683594 18.238281 C 92.375 18.238281 91.367188 17.878906 90.65625 17.160156 C 89.960938 16.425781 89.613281 15.390625 89.613281 14.050781 L 89.613281 7.84375 C 89.613281 7.675781 89.753906 7.542969 89.925781 7.542969 L 91.300781 7.542969 C 91.472656 7.542969 91.613281 7.675781 91.613281 7.84375 L 91.613281 13.925781 C 91.660156 15.617188 92.535156 16.460938 94.25 16.460938 C 95.046875 16.460938 95.714844 16.152344 96.25 15.53125 C 96.789062 14.898438 97.058594 14.144531 97.058594 13.269531 L 97.058594 7.84375 C 97.058594 7.675781 97.199219 7.542969 97.371094 7.542969 L 98.746094 7.542969 C 98.917969 7.542969 99.058594 7.675781 99.058594 7.84375 Z M 109.40625 3.050781 C 109.40625 2.890625 109.539062 2.761719 109.699219 2.761719 L 111.113281 2.761719 C 111.277344 2.761719 111.410156 2.890625 111.410156 3.050781 L 111.410156 8.183594 C 111.410156 8.402344 111.75 8.507812 111.910156 8.351562 C 112.15625 8.113281 112.453125 7.898438 112.800781 7.710938 C 113.441406 7.371094 114.101562 7.203125 114.785156 7.203125 C 116.089844 7.203125 117.089844 7.570312 117.789062 8.300781 C 118.5 9.019531 118.855469 10.050781 118.855469 11.386719 L 118.855469 17.613281 C 118.855469 17.769531 118.722656 17.898438 118.558594 17.898438 L 117.144531 17.898438 C 116.984375 17.898438 116.851562 17.769531 116.851562 17.613281 L 116.851562 11.769531 C 116.851562 9.910156 116.003906 8.976562 114.304688 8.976562 C 113.492188 8.976562 112.800781 9.308594 112.234375 9.972656 C 111.683594 10.621094 111.410156 11.382812 111.410156 12.253906 L 111.410156 17.613281 C 111.410156 17.769531 111.277344 17.898438 111.113281 17.898438 L 109.699219 17.898438 C 109.539062 17.898438 109.40625 17.769531 109.40625 17.613281 Z M 109.40625 3.050781 "/>
<path style=" stroke:none;fill-rule:nonzero;fill:rgb(100%,100%,100%);fill-opacity:1;" d="M 17.75 16.257812 C 17.867188 16.6875 18.484375 16.6875 18.601562 16.257812 L 21.957031 3.890625 C 22.113281 3.324219 21.679688 2.761719 21.082031 2.761719 L 19.011719 2.761719 C 18.601562 2.761719 18.242188 3.035156 18.136719 3.425781 L 16.242188 10.402344 C 16.214844 10.496094 16.214844 10.597656 16.242188 10.695312 Z M 17.75 16.257812 "/>
<path style=" stroke:none;fill-rule:nonzero;fill:rgb(100%,100%,100%);fill-opacity:1;" d="M 6.023438 10.390625 C 6.050781 10.488281 6.050781 10.589844 6.023438 10.6875 L 4.515625 16.246094 C 4.398438 16.675781 3.78125 16.675781 3.664062 16.246094 L 0.308594 3.890625 C 0.15625 3.324219 0.589844 2.761719 1.1875 2.761719 L 3.257812 2.761719 C 3.667969 2.761719 4.027344 3.035156 4.132812 3.425781 Z M 6.023438 10.390625 "/>
<path style=" stroke:none;fill-rule:nonzero;fill:rgb(100%,100%,100%);fill-opacity:1;" d="M 8.851562 18.976562 C 8.75 19.355469 8.402344 19.617188 8.003906 19.617188 L 5.886719 19.617188 C 5.3125 19.617188 4.890625 19.078125 5.039062 18.527344 L 9.117188 3.46875 C 9.226562 3.050781 9.609375 2.761719 10.042969 2.761719 L 12.503906 2.761719 C 12.9375 2.761719 13.320312 3.050781 13.429688 3.46875 L 17.503906 18.527344 C 17.65625 19.078125 17.234375 19.617188 16.660156 19.617188 L 14.542969 19.617188 C 14.144531 19.617188 13.796875 19.355469 13.695312 18.976562 L 11.683594 11.542969 C 11.570312 11.128906 10.976562 11.128906 10.863281 11.542969 Z M 8.851562 18.976562 "/>
<path style=" stroke:none;fill-rule:nonzero;fill:rgb(100%,100%,100%);fill-opacity:1;" d="M 10.53125 17.40625 C 10.378906 17.40625 10.269531 17.273438 10.308594 17.136719 L 11.050781 14.527344 C 11.113281 14.316406 11.433594 14.316406 11.496094 14.527344 L 12.238281 17.136719 C 12.277344 17.273438 12.167969 17.40625 12.015625 17.40625 Z M 10.53125 17.40625 "/>
</g>
</svg>
