<svg aria-labelledby="bfi-logo-title" id="bfi-logo" focusable="false" role="img" viewBox="0 0 1000 195" xmlns="http://www.w3.org/2000/svg">
	<title id="bfi-logo-title">Buckminster Fuller Institute</title>

	<g class="mark">
		<path d="M108.02 0H95.27v82.79h12.75V0Zm-.04 111.99-12.76.01.1 82.79 12.75-.01-.1-82.8Z" fill="#00844B"></path>
		<path d="M168.63 34.42 96.47 76.15l6.39 11.05 72.16-41.73-6.39-11.05ZM70.74 91.09-.02 131.85l6.37 11.06 70.76-40.77-6.37-11.05Z" fill="#D4913A"></path>
		<path d="m0 63.51 72.3 41.68 6.52-11.34-72.3-41.68L0 63.5Zm102.47 44.47-6.38 11.05 72.44 41.81 6.38-11.05-72.44-41.8Z" fill="#EB4023"></path>
		<path d="m69.25-.09-.21 194.78 12.75.02.22-194.78L69.25-.1Z" fill="#8ED8F8"></path>
		<path d="m19.53 29.85-6.38 11.04 168.68 97.4 6.38-11.05-168.68-97.4Z" fill="#99C64E"></path>
		<path d="M181.65 57.1 12.97 154.53l6.38 11.05 168.68-97.41-6.38-11.05Z" fill="#3D6E82"></path>
		<path d="M81.94 93H69.18v101.78h12.76V93Z" fill="#8ED8F8"></path>
	</g>

	<path class="type" d="M281.83 80.24c9.07 0 12.19-2.55 12.19-9.36 0-5.1-3.4-8.5-12.2-8.5h-5.67v17.86h5.68Zm0-23.25c7.65 0 9.92-3.4 9.92-8.5 0-4.83-1.99-7.38-9.92-7.38h-5.96v15.6h5.96v.28Zm-23.54 23.25h7.94V41.39h-7.94v-5.67h24.39c15.59 0 19.56 5.96 19.56 12.2 0 4.53-3.12 9.92-13.33 11.62v.28c10.5.85 15.31 5.67 15.31 12.2 0 7.37-4.82 14.17-21.54 14.17h-24.39v-5.95Zm71.74-10.49V41.4h-7.1v-5.68h24.4v5.68h-7.38v26.36c0 9.64 4.54 13.05 13.32 13.05 3.97 0 6.53-1.14 8.8-3.4 2.55-2.56 3.11-5.96 3.11-11.63V41.1h-7.37v-5.67h20.7v5.67h-6.8v28.35c0 9.36-6.81 17.58-20.42 17.58-14.46.29-21.26-6.8-21.26-17.3Zm67.76-8.79c0-15.03 11.06-26.65 24.1-26.65 6.24 0 11.06 2.26 14.18 5.95l1.41-5.67h5.96v19.85h-5.96c-3.4-9.36-8.22-14.46-14.74-14.46-7.94 0-13.9 5.67-13.9 20.41 0 13.61 5.4 20.98 15.32 20.98 8.5 0 13.32-6.8 14.46-15.3h6.23c-1.41 13.32-9.64 21.54-22.4 21.54-15.02-.28-24.66-11.62-24.66-26.65Zm84.77 19.28h6.8v5.67h-24.38v-5.67h7.66V41.4h-7.66v-5.96h24.67v5.67h-7.09v20.42l19.85-20.42h-6.52v-5.67h20.7v5.96h-6.24L495.6 55.84l17.58 24.39h5.96v5.67H495.6v-5.67h5.95l-12.48-17.86-6.52 6.23v11.63Zm54.44 0h7.37V41.4H537v-5.96h22.4l11.9 34.87h.3l11.9-34.87h21.83v5.96h-7.37v38.84h7.37v5.67h-23.82v-5.67h6.52v-38h-.85L571.6 85.92h-4.54l-15.87-43.66h-.57v37.99h6.8v5.67H537v-5.67Zm89.6 0h7.93V41.4h-7.93v-5.96h25.8v5.96h-7.94v38.84h7.94v5.67h-25.8v-5.67Zm60.67-33.74h-.57v33.74h7.37v5.67H673.1v-5.67h7.38V41.4h-7.38v-5.96h19l23.53 36.3h.57V41.4h-7.37v-5.96h20.98v5.96h-7.37v45.64h-8.8L687.28 46.5Zm63.23 22.11h5.38c4.82 9.64 8.5 13.33 16.16 13.33 5.68 0 9.08-2.84 9.08-7.66 0-5.38-5.96-7.08-13.04-8.79-8.23-2.26-17.02-4.82-17.02-15.59 0-8.5 7.1-15.31 16.73-15.31 4.82 0 9.93 1.98 12.48 5.39l1.7-5.1h5.67v17.57h-5.39c-3.97-9.35-8.22-12.47-14.17-12.47-5.1 0-7.94 3.12-7.94 7.09 0 5.95 6.23 7.37 13.6 9.35 7.94 1.99 16.45 4.54 16.45 15.03 0 9.07-7.37 16.16-17.86 16.16-5.96 0-11.34-2.27-14.46-5.67l-1.7 5.67h-5.96v-19h.29Zm70.31 11.63h8.5v-39.7h-2.83c-6.52 0-7.94 2.27-11.34 14.18h-4.82v-19h47.35v19h-4.82c-3.4-11.9-4.82-14.18-11.34-14.18h-2.84v39.7h8.5v5.67h-26.93v-5.67h.57Zm57.27 0h7.94V41.39h-7.94v-5.67h46.22v17.02h-4.82c-2.55-9.36-3.4-11.35-9.64-11.35h-13.9v16.45h4.83c5.1 0 5.67-.85 6.8-7.37h4.82V70.6h-4.82c-1.13-6.8-1.7-7.66-6.8-7.66h-4.82v17.58h13.6c7.1 0 8.23-2.55 10.5-13.04h4.82v18.71h-46.79v-5.95Zm93.57-21.84c7.37 0 9.92-3.11 9.92-9.07 0-5.38-2.27-8.22-9.07-8.22h-8.22v17.3h7.37Zm-7.37 21.84h7.93v5.67H946.7v-5.67h7.94V41.39h-7.94v-5.67h26.08c15.31 0 19.85 6.53 19.85 13.05 0 5.67-3.4 10.77-13.9 12.47v.57c8.51 1.42 11.35 5.39 11.63 11.06l.28 4.53c.29 2.84.85 3.69 2.27 3.69 1.14 0 2.27-1.14 3.4-3.97l3.97 1.42c-1.41 5.1-4.53 8.5-9.64 8.5-5.95 0-9.92-3.12-10.2-10.49v-4.82c0-5.38-1.42-7.94-7.94-7.94h-7.66v16.45h-.56ZM258.3 166.15h7.93V127.3h-7.94v-5.67h45.08v17.3h-4.82c-2.83-9.93-4.25-11.91-10.49-11.91h-11.9v17.58h3.96c5.1 0 5.96-.85 6.8-7.66h4.83v20.7h-4.82c-.85-6.8-1.7-7.94-6.8-7.94h-3.98v16.45h9.08v5.67h-26.65v-5.67h-.29Zm70.3-10.21V127.3h-7.08v-5.67h24.38v5.67h-7.37v26.37c0 9.64 4.54 13.04 13.33 13.04 3.97 0 6.52-1.13 8.79-3.4 2.55-2.55 3.12-5.95 3.12-11.62v-24.67h-7.38v-5.67h20.7v5.67h-6.8v28.35c0 9.36-6.8 17.58-20.42 17.58-14.17.29-21.26-6.52-21.26-17.01Zm93-34.31v5.67h-8.22v39.13h9.93c6.23 0 7.37-1.42 11.05-13.9h4.54v19.57h-43.1v-5.67h7.94V127.3h-7.94v-5.67h25.8Zm62.66 0v5.67h-7.94v39.13h9.93c6.24 0 7.37-1.42 11.06-13.9h4.53v19.57h-43.1v-5.67h7.95V127.3h-7.94v-5.67h25.51Zm37.14 44.52h7.95V127.3h-7.94v-5.67h46.21v17.02h-4.82c-2.55-9.36-3.4-11.35-9.64-11.35h-13.9v16.45h4.83c5.1 0 5.67-.85 6.8-7.37h4.82v20.13h-4.82c-1.13-6.8-1.7-7.66-6.8-7.66h-4.82v17.58h13.6c7.1 0 8.23-2.55 10.5-13.04h4.82v18.71H521.4v-5.95Zm93.85-21.55c7.38 0 9.93-3.12 9.93-9.07 0-5.4-2.27-8.23-9.08-8.23h-8.22v17.3h7.37Zm-7.65 21.55h7.94v5.67h-25.52v-5.67h7.94V127.3h-7.94v-5.67h26.08c15.31 0 19.85 6.52 19.85 13.05 0 5.67-3.4 10.77-13.9 12.47v.28c8.51 1.42 11.35 5.4 11.63 11.06l.29 4.54c.28 2.83.85 3.68 2.26 3.68 1.14 0 2.27-1.13 3.4-3.97l3.98 1.42c-1.42 5.1-4.54 8.5-9.64 8.5-5.96 0-9.93-3.11-10.21-10.48v-4.54c0-5.39-1.42-7.94-7.94-7.94h-7.65v16.45h-.57Zm67.2-28.64h-3.97v34.3h3.96v-34.3Zm44.22 0h3.7v34.02h-3.13l-22.11-28.06v28.06h-3.69v-34.02h3.69l21.54 27.22V137.5Zm34.31 15.03c7.66 1.7 11.06 4.53 11.06 9.64 0 5.95-4.82 9.64-11.63 9.64-5.38 0-9.92-1.7-13.89-5.39l2.27-2.84c3.69 3.12 7.09 4.82 11.62 4.82 4.54 0 7.66-2.26 7.66-5.95 0-3.12-1.7-5.1-8.79-6.52-7.94-1.7-11.62-4.25-11.62-9.92 0-5.4 4.82-9.36 11.34-9.36 5.1 0 8.5 1.42 11.9 4.25l-2.26 2.84c-3.12-2.55-6.24-3.69-9.93-3.69-4.53 0-7.37 2.55-7.37 5.67.57 3.4 2.27 5.39 9.64 6.8Zm40.55 18.99h-3.97v-30.62h-11.63v-3.4h26.94v3.4h-11.34v30.62Zm32.03-34.02h-3.96v34.3h3.96v-34.3Zm31.76 34.02h-3.69v-30.62h-11.62v-3.4h26.93v3.4h-11.62v30.62Zm55.85-14.46c0 9.93-5.67 15.03-14.17 15.03s-14.18-5.1-14.18-14.74V137.5h3.97v19.56c0 7.38 3.97 11.63 10.5 11.63 6.23 0 10.2-3.69 10.2-11.34V137.5h3.97v19.56h-.29Zm31.19 14.46h-3.97v-30.62H929.4v-3.4h26.65v3.4h-11.34v30.62Zm52.45-30.62h-20.7v11.63h18.44v3.68h-18.43v11.91h20.98v3.4H972.5v-34.02h24.66v3.4Z" fill="#262627"></path>
</svg>