<?xml version="1.0" encoding="UTF-8"?> <svg xmlns="http://www.w3.org/2000/svg" xmlns:xlink="http://www.w3.org/1999/xlink" width="90px" height="73px" viewBox="0 0 90 73"> <!-- Generator: Sketch 59.1 (86144) - https://sketch.com --> <title>Bali logo</title> <desc>Created with Sketch.</desc> <g id="Page-1" stroke="none" stroke-width="1" fill="none" fill-rule="evenodd"> <g id="Desktop-HD" transform="translate(-69.000000, -43.000000)"> <g id="Bali-logo" transform="translate(69.000000, 43.000000)"> <path d="M5.9486887,46.5387548 L5.9486887,38.2890724 L14.1031317,38.2890724 L14.1031317,33.8062262 L5.91756487,33.8062262 L5.91756487,29.1365947 L15.2235895,29.1365947 L15.2235895,24.4669632 L1,24.4669632 L1,46.5387548 L5.9486887,46.5387548 Z M22.916834,35.4872935 C22.916834,30.8799238 26.2159598,28.794155 29.2972188,28.794155 C32.347354,28.794155 35.6464798,30.8799238 35.6464798,35.4872935 C35.6464798,40.0946633 32.347354,42.1493011 29.2972188,42.1493011 C26.2159598,42.1493011 22.916834,40.0946633 22.916834,35.4872935 Z M17.8125262,35.5184244 C17.8125262,42.4917408 23.0724531,47.0057179 29.2972188,47.0057179 C35.4908606,47.0057179 40.7507876,42.4917408 40.7507876,35.5184244 C40.7507876,28.5139771 35.4908606,24 29.2972188,24 C23.0724531,24 17.8125262,28.5139771 17.8125262,35.5184244 Z M48.6618989,35.4872935 C48.6618989,30.8799238 51.9610247,28.794155 55.0422837,28.794155 C58.0924188,28.794155 61.3915446,30.8799238 61.3915446,35.4872935 C61.3915446,40.0946633 58.0924188,42.1493011 55.0422837,42.1493011 C51.9610247,42.1493011 48.6618989,40.0946633 48.6618989,35.4872935 Z M43.557591,35.5184244 C43.557591,42.4917408 48.817518,47.0057179 55.0422837,47.0057179 C61.2359255,47.0057179 66.4958525,42.4917408 66.4958525,35.5184244 C66.4958525,28.5139771 61.2359255,24 55.0422837,24 C48.817518,24 43.557591,28.5139771 43.557591,35.5184244 Z M75.4962977,41.9002541 L75.4962977,29.1054638 L78.3596899,29.1054638 C81.7521872,29.1054638 84.5222079,31.0978399 84.5222079,35.5184244 C84.5222079,39.9390089 81.7521872,41.9002541 78.3596899,41.9002541 L75.4962977,41.9002541 Z M78.5464329,46.5387548 C85.2069321,46.5387548 89.6576396,42.3360864 89.6576396,35.5184244 C89.6576396,28.7007624 85.2069321,24.4669632 78.5775567,24.4669632 L70.5787328,24.4669632 L70.5787328,46.5387548 L78.5464329,46.5387548 Z M1,50.9282084 L1,73 L9.90141489,73 C14.0720079,73 16.8109048,70.3538755 16.8109048,66.7426938 C16.8109048,63.8786531 14.8812274,62.0419314 12.8893024,61.5749682 C14.6944844,60.9834816 16.1261805,59.115629 16.1261805,56.843075 C16.1261805,53.4498094 13.6051505,50.9282084 9.2478145,50.9282084 L1,50.9282084 Z M5.79306956,59.7693774 L5.79306956,55.0063532 L8.40747113,55.0063532 C10.3371485,55.0063532 11.3019872,55.9402795 11.3019872,57.3722999 C11.3019872,58.866582 10.1815293,59.7693774 8.46971879,59.7693774 L5.79306956,59.7693774 Z M5.79306956,68.9841169 L5.79306956,63.8163914 L8.87432856,63.8163914 C10.8040059,63.8163914 11.9244637,64.8748412 11.9244637,66.4002541 C11.9244637,67.9879288 10.7728821,68.9841169 8.87432856,68.9841169 L5.79306956,68.9841169 Z M35.8332222,73 L41.1865206,73 L32.96983,50.9282084 L27.2741694,50.9282084 L18.9641072,73 L24.1306627,73 L25.717978,68.5171537 L34.2459069,68.5171537 L35.8332222,73 Z M30.0441901,56.4072427 L32.6897155,64.0343075 L27.336417,64.0343075 L30.0441901,56.4072427 Z M64.4105548,73 L64.4105548,50.9282084 L59.49299,50.9282084 L59.49299,64.3456163 L51.2140516,50.9282084 L45.2382766,50.9282084 L45.2382766,73 L50.1247177,73 L50.1247177,58.4930114 L59.2128755,73 L64.4105548,73 Z M83.8686058,73 L77.9239546,64.3144854 L75.4340484,67.0851334 L75.4340484,73 L70.5164835,73 L70.5164835,50.9282084 L75.4340484,50.9282084 L75.4340484,60.2052097 L83.4951199,50.9282084 L89.9688762,50.9282084 L81.3786996,60.4853875 L90,73 L83.8686058,73 Z" id="FOODBANK" fill="#000000" fill-rule="nonzero"></path> <g id="Bali-Copy"> <rect id="Rectangle" fill="#FF0000" x="0" y="0" width="49.92" height="19.8823529"></rect> <path d="M7.566,4.45058824 L7.566,15.2941176 L11.6532,15.2941176 C13.7124,15.2941176 15.0852,14.04 15.0852,12.2964706 C15.0852,11.0117647 14.274,10.0176471 13.104,9.71176471 C14.0556,9.37529412 14.742,8.51882353 14.742,7.37176471 C14.742,5.67411765 13.494,4.45058824 11.3724,4.45058824 L7.566,4.45058824 Z M9.4224,9.03882353 L9.4224,6.01058824 L11.076,6.01058824 C12.2148,6.01058824 12.87,6.60705882 12.87,7.52470588 C12.87,8.42705882 12.2148,9.03882353 11.1228,9.03882353 L9.4224,9.03882353 Z M9.4224,13.7341176 L9.4224,10.5835294 L11.388,10.5835294 C12.5424,10.5835294 13.182,11.2411765 13.182,12.1741176 C13.182,13.1376471 12.4488,13.7341176 11.3256,13.7341176 L9.4224,13.7341176 Z M25.7183227,15.2941176 L27.7619227,15.2941176 L23.4563227,4.45058824 L21.2879227,4.45058824 L16.9823227,15.2941176 L18.9635227,15.2941176 L19.9931227,12.5717647 L24.6731227,12.5717647 L25.7183227,15.2941176 Z M22.3331227,6.43882353 L24.0179227,10.8741176 L20.6483227,10.8741176 L22.3331227,6.43882353 Z M37.5838454,15.2941176 L37.5838454,13.5505882 L32.5138454,13.5505882 L32.5138454,4.45058824 L30.6418454,4.45058824 L30.6418454,15.2941176 L37.5838454,15.2941176 Z M42.6009681,15.2941176 L40.6977681,15.2941176 L40.6977681,4.45058824 L42.6009681,4.45058824 L42.6009681,15.2941176 Z" id="BALI" fill="#FFFFFF" fill-rule="nonzero"></path> </g> </g> </g> </g> </svg> 