<svg width="185" height="70" viewBox="0 0 185 70" fill="none" xmlns="http://www.w3.org/2000/svg">
<g clip-path="url(#clip0_135_17935)">
<path d="M62.6608 16.1526V16.9452H61.7018L61.6542 24.1972H62.6608V24.9898H59.6094V24.1972H60.5684L60.6159 16.9452H59.6094V16.1526H62.6608Z" fill="black"/>
<path d="M67.765 16.1446L72.5204 22.5883C72.5838 22.6834 72.6551 22.7785 72.7185 22.8815C72.7819 22.9845 72.8691 23.1114 72.9642 23.2699L73.0118 16.9293H71.9735V16.1367H74.9536V16.9293H74.0025L73.955 25.0294H73.0593L68.0661 18.3956C67.9927 18.3058 67.9265 18.2104 67.868 18.1102C67.8046 18.0072 67.757 17.9121 67.7174 17.8328L67.6144 24.2368H68.724V25.0294H65.7915V24.2368H66.8218L66.8693 16.9848H65.6964V16.1922L67.765 16.1446Z" fill="black"/>
<path d="M81.1515 15.9941C81.3417 15.9941 81.5478 15.9941 81.7697 15.9941L82.4275 16.0813C82.6495 16.1209 82.8555 16.1684 83.0537 16.216C83.2221 16.2569 83.3865 16.3125 83.545 16.3824V18.1657H82.5543V17.1037C82.4627 17.0623 82.3671 17.0305 82.269 17.0086L81.8569 16.9293L81.4289 16.8818C81.3127 16.8749 81.1963 16.8749 81.0802 16.8818C80.558 16.8541 80.041 16.9958 79.606 17.286C79.4297 17.4127 79.2875 17.581 79.1921 17.776C79.0967 17.971 79.051 18.1866 79.0591 18.4035C79.0555 18.5825 79.0879 18.7603 79.1542 18.9266C79.2297 19.0938 79.3505 19.2366 79.5029 19.3387C79.7162 19.4894 79.9479 19.6119 80.1925 19.7033C80.5601 19.8381 80.9361 19.9493 81.3179 20.0362C81.8344 20.142 82.3316 20.3264 82.7921 20.5831C83.0967 20.7553 83.3656 20.984 83.5847 21.2568C83.7366 21.4566 83.8373 21.6906 83.878 21.9384C83.9136 22.1319 83.9321 22.3281 83.9335 22.5249C83.94 22.9131 83.8587 23.2979 83.6956 23.6503C83.53 23.9618 83.2972 24.2325 83.014 24.4429C82.6965 24.6814 82.3359 24.8564 81.952 24.9581C81.4946 25.0804 81.0226 25.1391 80.5491 25.1324C80.2152 25.1336 79.8816 25.1125 79.5505 25.069C79.2572 25.0294 79.0036 24.9819 78.7579 24.9343L78.219 24.7837L77.8861 24.6886V22.7468H78.9164V23.9436C79.1623 24.0773 79.4312 24.1634 79.709 24.1972C80.0206 24.2504 80.3361 24.277 80.6522 24.2765C81.1989 24.306 81.7399 24.1526 82.1898 23.8405C82.3714 23.6983 82.5165 23.5148 82.613 23.3053C82.7095 23.0958 82.7546 22.8663 82.7446 22.6358C82.7494 22.4696 82.721 22.3041 82.6611 22.149C82.6012 21.9939 82.5111 21.8522 82.3959 21.7323C82.0682 21.4416 81.6732 21.2373 81.2466 21.1379L80.0419 20.7891C79.6879 20.6904 79.3453 20.5549 79.0195 20.3849C78.7693 20.2565 78.5439 20.0848 78.3537 19.8777C78.1955 19.6982 78.0767 19.4876 78.005 19.2595C77.9265 19.0028 77.8891 18.7353 77.894 18.4669C77.8777 18.1227 77.9407 17.7793 78.0782 17.4632C78.2156 17.1472 78.4237 16.8669 78.6866 16.644C79.3911 16.141 80.2481 15.8974 81.1119 15.9544" fill="black"/>
<path d="M94.5222 16.1526L94.6014 18.3084H93.6662L93.5869 16.9452H91.1775L91.122 24.1972H92.2237V24.9898H89.0772V24.1972H90.0362L90.0917 16.9452H87.6744L87.603 18.3084H86.6678L86.7391 16.1526H94.5222Z" fill="black"/>
<path d="M100.554 16.1526V16.9452H99.5947L99.5471 24.1972H100.554V24.9898H97.5023V24.1972H98.4613L98.5088 16.9452H97.5023V16.1526H100.554Z" fill="black"/>
<path d="M111.317 16.1526L111.396 18.3084H110.461L110.382 16.9452H107.972L107.925 24.1972H109.018V24.9898H105.88V24.1972H106.839L106.886 16.9452H104.469L104.398 18.3084H103.462L103.542 16.1526H111.317Z" fill="black"/>
<path d="M118.593 25.1404C117.679 25.2157 116.769 24.9565 116.033 24.4112C115.736 24.0962 115.511 23.7203 115.374 23.3097C115.237 22.8991 115.192 22.4636 115.24 22.0335V16.9689H114.218V16.1764H117.277V16.9689H116.326C116.326 17.1354 116.326 17.3732 116.326 17.6902C116.326 18.0072 116.326 18.3876 116.326 18.8632V21.3122C116.322 21.7435 116.34 22.1747 116.381 22.6041C116.408 22.9339 116.508 23.2536 116.675 23.5394C116.841 23.8013 117.089 24.0016 117.38 24.11C117.794 24.2596 118.232 24.3269 118.672 24.3082C119.05 24.3182 119.427 24.2674 119.789 24.1576C120.066 24.0778 120.315 23.9243 120.511 23.7137C120.705 23.4847 120.844 23.2133 120.915 22.9211C121.004 22.5608 121.046 22.1906 121.042 21.8195V16.9452H119.924V16.1526H122.983V16.9452H122.009V21.9304C122.017 22.39 121.95 22.8479 121.81 23.2857C121.691 23.6637 121.485 24.0085 121.208 24.2923C120.916 24.5851 120.557 24.8027 120.162 24.9264C119.649 25.0834 119.113 25.1556 118.577 25.1404" fill="black"/>
<path d="M133.667 16.1526L133.739 18.3084H132.803L132.732 16.9452H130.315L130.267 24.1972H131.361V24.9898H128.222V24.1972H129.181L129.229 16.9452H126.82L126.74 18.3084H125.805L125.884 16.1526H133.667Z" fill="black"/>
<path d="M142.592 16.1526V18.1974H141.664V16.9452H138.716L138.692 20.052H141.474V20.8446H138.692L138.668 24.1972H141.736L141.815 22.8181H142.742L142.671 24.9898H136.624V24.1972H137.583L137.63 16.9452H136.624V16.1526H142.592Z" fill="black"/>
<path d="M157.072 16.1526L157.112 18.2291H156.176L156.137 16.9452H153.268L153.244 20.1947H156.287V20.9873H153.244L153.22 24.1972H154.346V24.9898H151.175V24.1972H152.134L152.182 16.9452H151.175V16.1526H157.072Z" fill="black"/>
<path d="M164.158 15.9941C164.755 15.9857 165.347 16.0962 165.901 16.319C166.4 16.5223 166.848 16.8304 167.217 17.2226C167.574 17.6286 167.843 18.1034 168.01 18.6175C168.206 19.1967 168.303 19.8051 168.295 20.4166C168.303 21.0723 168.207 21.7251 168.01 22.3505C167.846 22.8946 167.577 23.4009 167.217 23.8406C166.853 24.2518 166.404 24.579 165.901 24.7996C165.351 25.0355 164.757 25.1517 164.158 25.1404C163.556 25.1496 162.957 25.0391 162.398 24.8154C161.905 24.6032 161.463 24.29 161.098 23.896C160.74 23.491 160.47 23.016 160.306 22.5011C160.11 21.9273 160.013 21.3242 160.02 20.7178C160.013 20.0622 160.109 19.4095 160.306 18.7839C160.469 18.2399 160.739 17.7335 161.098 17.2939C161.462 16.8827 161.911 16.5554 162.414 16.3349C162.966 16.1028 163.559 15.9868 164.158 15.9941ZM161.154 20.5672C161.147 21.0788 161.213 21.5886 161.352 22.081C161.471 22.5058 161.67 22.9039 161.939 23.254C162.179 23.5923 162.501 23.8648 162.874 24.0466C163.275 24.2358 163.714 24.3307 164.158 24.324C164.598 24.3339 165.035 24.2417 165.434 24.0546C165.802 23.88 166.125 23.6223 166.377 23.3016C166.647 22.9525 166.846 22.554 166.963 22.1286C167.102 21.6334 167.168 21.121 167.162 20.6069C167.169 20.0953 167.102 19.5854 166.963 19.093C166.843 18.6689 166.644 18.2711 166.377 17.92C166.118 17.6036 165.793 17.3468 165.426 17.1671C165.026 16.9925 164.594 16.9024 164.158 16.9024C163.721 16.9024 163.29 16.9925 162.89 17.1671C162.522 17.3438 162.2 17.6012 161.946 17.92C161.674 18.2658 161.472 18.6617 161.352 19.0851C161.213 19.583 161.147 20.0981 161.154 20.6148" fill="black"/>
<path d="M174.207 16.1446C175.06 16.0727 175.914 16.2695 176.649 16.7073C176.897 16.9143 177.093 17.1775 177.22 17.4752C177.347 17.7729 177.401 18.0965 177.378 18.4193C177.381 18.7212 177.333 19.0214 177.235 19.307C177.141 19.5697 177.002 19.8139 176.823 20.0282C176.641 20.2395 176.42 20.4144 176.173 20.5434C175.908 20.6812 175.621 20.7698 175.325 20.8049C175.527 20.824 175.717 20.9105 175.864 21.0506C176.092 21.2875 176.286 21.5542 176.443 21.8432C176.723 22.287 176.944 22.6596 177.108 22.9607C177.275 23.2619 177.409 23.4997 177.528 23.6899C177.615 23.8383 177.728 23.9698 177.861 24.0783C177.966 24.1582 178.094 24.2001 178.226 24.1972H178.733V24.9897H178.21C177.982 24.9932 177.754 24.9773 177.528 24.9422C177.37 24.9122 177.218 24.8502 177.084 24.7599C176.955 24.6726 176.842 24.5625 176.752 24.4349C176.656 24.3002 176.553 24.1337 176.435 23.9277L175.737 22.7388C175.515 22.3584 175.333 22.0572 175.19 21.8353C175.091 21.6811 174.98 21.5353 174.857 21.3994C174.734 21.2783 174.585 21.1863 174.421 21.1299C174.226 21.0865 174.027 21.0679 173.827 21.0744H173.248V24.1972H174.271V24.9897H171.204V24.1972H172.163L172.21 16.9451H171.204V16.1525L174.207 16.1446ZM174.35 20.2739C174.869 20.3064 175.381 20.1423 175.785 19.8142C175.958 19.649 176.094 19.4478 176.182 19.2246C176.269 19.0014 176.307 18.7617 176.292 18.5223C176.312 18.2961 176.278 18.0683 176.191 17.8584C176.104 17.6486 175.967 17.463 175.793 17.3176C175.338 17.0339 174.805 16.9034 174.271 16.9451H173.272V20.2739H174.35Z" fill="black"/>
<path d="M67.3687 47.705C62.5102 47.705 58.8723 44.3127 58.8723 39.3671C58.8723 34.4214 62.6212 31.0768 67.4321 31.0768C69.6434 31.0768 72.021 31.8694 73.3367 33.3911L70.7846 35.9828C70.4018 35.5153 69.917 35.1416 69.3675 34.8902C68.8181 34.6389 68.2184 34.5165 67.6144 34.5324C64.9592 34.5324 63.065 36.5852 63.065 39.3671C63.065 42.149 64.9196 44.2018 67.5509 44.2018C68.1933 44.2237 68.8316 44.0912 69.4122 43.8154C69.9929 43.5395 70.4988 43.1285 70.8877 42.6166L73.5428 45.1132C72.7752 45.9705 71.8285 46.6485 70.7698 47.0991C69.711 47.5497 68.5661 47.762 67.4162 47.7208" fill="black"/>
<path d="M79.2494 31.5048H75.4134V47.2849H79.2494V31.5048Z" fill="black"/>
<path d="M89.4498 34.7543V47.2849H85.6375V34.7543H81.1832V31.5048H93.9119V34.7543H89.4498Z" fill="black"/>
<path d="M99.7215 31.5048H95.8854V47.2849H99.7215V31.5048Z" fill="black"/>
<path d="M102.583 47.2849V43.9799L110.088 34.7305H102.757V31.5048H114.86V34.5562L107.172 43.9799H115.018V47.2849H102.583Z" fill="black"/>
<path d="M117.832 47.2849V31.5048H128.436V34.7305H121.509V37.6948H128.056V40.7541H121.509V44.0274H128.841V47.2849H117.832Z" fill="black"/>
<path d="M141.863 47.2849L135.506 36.9577H135.443L135.53 47.2849H131.829V31.5048H136.18L142.505 41.8003H142.576L142.489 31.5048H146.182V47.2849H141.863Z" fill="black"/>
<path d="M158.094 35.6024C157.748 35.1913 157.32 34.8576 156.836 34.6227C156.353 34.3879 155.826 34.2572 155.289 34.2392C154.306 34.2392 153.077 34.58 153.077 35.8243C153.077 36.8705 154.013 37.2034 155.511 37.671C157.651 38.3685 160.409 39.2562 160.409 42.4265C160.409 46.0644 157.492 47.6891 154.369 47.6891C152.178 47.7388 150.056 46.9213 148.465 45.4145L150.961 42.8782C151.381 43.3798 151.901 43.7877 152.488 44.0758C153.075 44.3638 153.716 44.5256 154.369 44.5506C155.526 44.5506 156.557 44.0988 156.557 42.8307C156.557 41.5626 155.352 41.2455 153.276 40.5798C151.199 39.914 149.241 38.9074 149.241 36.0542C149.241 32.5589 152.412 31.1085 155.352 31.1085C157.251 31.1134 159.084 31.7997 160.52 33.0424L158.094 35.6024Z" fill="black"/>
<path d="M174.073 34.8177C174.062 35.5251 173.838 36.2128 173.431 36.7912C172.82 37.6024 172.045 38.275 171.156 38.7647L174.651 42.4184C174.923 42.0364 175.127 41.61 175.254 41.1583C175.416 40.6674 175.499 40.1536 175.499 39.6365H174.12V37.4966H179.113V39.6365H177.909C177.88 40.4651 177.72 41.2838 177.433 42.0618C177.153 42.7843 176.766 43.4603 176.284 44.067C176.521 44.3533 176.812 44.5903 177.14 44.7645C177.491 44.9327 177.876 45.0168 178.265 45.0102C178.531 45.0098 178.796 44.9859 179.058 44.9388V47.2214H178.456H177.853C177.489 47.24 177.124 47.24 176.759 47.2214C176.488 47.1973 176.221 47.1359 175.967 47.0391C175.726 46.948 175.499 46.8225 175.293 46.6666C175.05 46.4642 174.827 46.2386 174.627 45.9929C174.022 46.541 173.317 46.9687 172.551 47.2531C171.703 47.5328 170.812 47.6641 169.92 47.6415C169.151 47.6508 168.386 47.5385 167.653 47.3086C167.013 47.111 166.418 46.7907 165.901 46.3655C165.425 45.9635 165.041 45.4633 164.776 44.8992C164.502 44.3142 164.363 43.6747 164.372 43.0287C164.335 42.0826 164.639 41.1548 165.228 40.4132C165.86 39.6717 166.619 39.049 167.471 38.5745C167.146 38.2178 166.86 37.8849 166.623 37.5917C166.408 37.3248 166.214 37.0412 166.044 36.7436C165.75 36.2271 165.596 35.6421 165.6 35.0475C165.596 34.5531 165.707 34.0646 165.925 33.6209C166.145 33.1713 166.458 32.774 166.844 32.4558C167.267 32.1057 167.751 31.837 168.271 31.6632C168.863 31.4739 169.481 31.3802 170.102 31.3858C171.177 31.3104 172.239 31.6541 173.066 32.3448C173.401 32.6569 173.665 33.0367 173.842 33.4591C174.018 33.8814 174.102 34.3365 174.089 34.7939L174.073 34.8177ZM170.546 45.2242C170.952 45.2263 171.356 45.1648 171.743 45.0419C172.199 44.8729 172.619 44.6172 172.979 44.2889L169.016 40.2151C168.51 40.4831 168.071 40.8625 167.732 41.3247C167.437 41.7334 167.277 42.2236 167.272 42.7276C167.272 43.06 167.348 43.3882 167.494 43.6866C167.65 43.993 167.869 44.2631 168.136 44.4791C168.436 44.7249 168.781 44.9105 169.151 45.026C169.589 45.1651 170.047 45.232 170.506 45.2242H170.546ZM169.595 37.1161C170.138 36.9042 170.626 36.5707 171.021 36.1413C171.33 35.8122 171.505 35.3799 171.513 34.9286C171.532 34.7217 171.497 34.5133 171.411 34.3241C171.325 34.135 171.19 33.9718 171.021 33.8507C170.682 33.6311 170.284 33.5179 169.88 33.5258C169.446 33.5057 169.02 33.6532 168.691 33.9379C168.539 34.0775 168.42 34.2482 168.341 34.4384C168.261 34.6285 168.224 34.8337 168.231 35.0396C168.248 35.4031 168.372 35.7535 168.588 36.0462C168.871 36.4487 169.21 36.809 169.595 37.1161Z" fill="#DD971A"/>
<path d="M68.2484 57.8895C67.9029 57.4784 67.4743 57.1451 66.9907 56.9115C66.5071 56.6779 65.9796 56.5493 65.4427 56.5342C64.4599 56.5342 63.2394 56.8671 63.2394 58.1194C63.2394 59.1735 64.1746 59.5064 65.6646 59.974C67.8046 60.6635 70.5707 61.5591 70.5707 64.7294C70.5707 68.3594 67.654 69.9921 64.5313 69.9921C62.3402 70.0418 60.2181 69.2243 58.6266 67.7174L61.1232 65.1733C61.5415 65.6763 62.0612 66.0853 62.6486 66.3735C63.2359 66.6617 63.8775 66.8226 64.5313 66.8456C65.6884 66.8456 66.7188 66.4018 66.7188 65.1257C66.7188 63.8497 65.514 63.5406 63.4375 62.8748C61.361 62.2091 59.4033 61.2104 59.4033 58.3571C59.4033 54.854 62.5736 53.4036 65.514 53.4036C67.4136 53.4107 69.2475 54.0998 70.6816 55.3454L68.2484 57.8895Z" fill="black"/>
<path d="M80.5967 69.9921C75.7382 69.9921 72.1082 66.6078 72.1082 61.6621C72.1082 56.5976 75.8491 53.3639 80.668 53.3639C82.8713 53.3639 85.257 54.1565 86.5727 55.6861L83.981 58.2699C83.5981 57.8025 83.1134 57.4287 82.5639 57.1773C82.0144 56.926 81.4147 56.8036 80.8107 56.8195C78.1635 56.8195 76.2692 58.8723 76.2692 61.6621C76.2692 64.452 78.1159 66.4968 80.7473 66.4968C81.3906 66.5174 82.0296 66.3843 82.6113 66.1087C83.1929 65.833 83.7005 65.4227 84.0919 64.9117L86.7391 67.4083C85.9733 68.2677 85.027 68.9472 83.9678 69.398C82.9086 69.8488 81.7628 70.0598 80.6126 70.0159" fill="black"/>
<path d="M98.2711 69.572V62.9778H92.1207V69.572H88.3084V53.7919H92.1207V59.7679H98.2711V53.7919H102.083V69.572H98.2711Z" fill="black"/>
<path d="M113.124 69.9921C108.202 69.9921 104.54 66.6078 104.54 61.6146C104.54 56.6214 108.202 53.3639 113.124 53.3639C118.046 53.3639 121.731 56.5342 121.731 61.6146C121.731 66.695 118.07 69.9921 113.124 69.9921ZM113.124 56.8037C110.453 56.8037 108.622 58.8485 108.622 61.6146C108.622 64.3807 110.469 66.5206 113.124 66.5206C115.779 66.5206 117.649 64.4678 117.649 61.6146C117.649 58.7613 115.803 56.8037 113.124 56.8037Z" fill="black"/>
<path d="M124.196 69.572V53.7919H128.024V66.2511H134.135V69.572H124.196Z" fill="black"/>
<path d="M147.49 69.572L146.261 66.473H140.159L139.001 69.572H134.856L141.474 53.7919H145.176L151.73 69.572H147.49ZM143.257 58.0004L141.252 63.4216H145.215L143.257 58.0004Z" fill="black"/>
<path d="M161.621 69.572L158.213 63.3107H156.914V69.572H153.212V53.7919H159.228C162.263 53.7919 165.267 54.949 165.267 58.5473C165.288 59.5234 164.974 60.4772 164.379 61.2511C163.784 62.025 162.942 62.5726 161.994 62.8034L166.115 69.5561L161.621 69.572ZM158.919 56.8908H156.89V60.5684H158.697C159.925 60.5684 161.463 60.2593 161.463 58.6503C161.463 57.1841 160.06 56.8908 158.919 56.8908Z" fill="black"/>
<path d="M176.308 57.8895C175.962 57.4784 175.534 57.1451 175.05 56.9115C174.566 56.6779 174.039 56.5493 173.502 56.5342C172.519 56.5342 171.299 56.8671 171.299 58.1194C171.299 59.1735 172.234 59.5064 173.724 59.974C175.864 60.6635 178.63 61.5591 178.63 64.7294C178.63 68.3594 175.705 69.9921 172.591 69.9921C170.397 70.0404 168.273 69.2233 166.678 67.7174L169.175 65.1733C169.595 65.6758 170.116 66.0843 170.705 66.3724C171.293 66.6605 171.936 66.8217 172.591 66.8456C173.748 66.8456 174.77 66.4018 174.77 65.1257C174.77 63.8497 173.565 63.5406 171.497 62.8748C169.428 62.2091 167.463 61.2104 167.463 58.3571C167.463 54.854 170.633 53.4036 173.565 53.4036C175.468 53.4088 177.305 54.098 178.741 55.3454L176.308 57.8895Z" fill="black"/>
<path d="M11.8886 20.8051V65.3873L0 59.4431V14.8608L11.8886 20.8051Z" fill="#DD971A"/>
<path d="M26.7493 13.3786V57.9529L14.8607 52.0086V7.43433L26.7493 13.3786Z" fill="#559CB5"/>
<path d="M41.6101 5.94429V50.5265L29.7215 44.5822V0L41.6101 5.94429Z" fill="#559CB5"/>
<path d="M181.658 53.8316H180.786V56.1697H180.477V53.8316H179.605V53.5383H181.658V53.8316Z" fill="black"/>
<path d="M182.022 53.5383H182.49L183.378 55.599H183.385L184.281 53.5383H184.741V56.1697H184.424V53.9663H184.416L183.473 56.1697H183.282L182.339 53.9663H182.331V56.1697H182.022V53.5383Z" fill="black"/>
</g>
<defs>
<clipPath id="clip0_135_17935">
<rect width="184.741" height="70" fill="white"/>
</clipPath>
</defs>
</svg>
