<svg xmlns="http://www.w3.org/2000/svg" enable-background="new 0 0 64 64" viewBox="0 0 64 64"><path d="M32,12.895c-10.535,0-19.105,8.57-19.105,19.105S21.465,51.105,32,51.105S51.105,42.535,51.105,32S42.535,12.895,32,12.895z
	 M38.002,37.836c-0.577,0.841-1.333,1.472-2.324,1.943c-0.731,0.324-1.492,0.523-2.278,0.597v2.568c0,0.392-0.317,0.708-0.708,0.708
	h-2.119c-0.392,0-0.708-0.317-0.708-0.708v-2.79c-0.399-0.098-0.792-0.235-1.186-0.415c-1.059-0.432-1.913-1.136-2.512-2.083
	c-0.601-0.879-0.924-1.906-0.974-3.119c-0.016-0.384,0.277-0.71,0.66-0.736l1.903-0.13c0.383-0.022,0.707,0.249,0.752,0.623
	c0.076,0.637,0.255,1.164,0.519,1.524c0.297,0.446,0.678,0.739,1.254,0.975c1.22,0.537,2.772,0.538,3.846,0.125
	c0.476-0.204,0.813-0.438,1.036-0.726c0.191-0.274,0.285-0.562,0.285-0.906c0-0.323-0.083-0.561-0.284-0.819
	c-0.105-0.14-0.376-0.402-1.089-0.687c-0.348-0.115-1.252-0.372-2.628-0.705c-1.607-0.401-2.537-0.705-3.114-1.018
	c-0.859-0.454-1.504-1.02-1.909-1.679c-0.415-0.671-0.625-1.437-0.625-2.275c0-0.912,0.255-1.781,0.757-2.583
	c0.52-0.782,1.287-1.396,2.229-1.792c0.315-0.143,0.673-0.263,1.081-0.359v-2.361c0-0.392,0.317-0.708,0.708-0.708h2.119
	c0.392,0,0.708,0.317,0.708,0.708v2.236c0.637,0.106,1.227,0.267,1.762,0.48c1.035,0.465,1.786,1.088,2.322,1.917
	c0.537,0.782,0.84,1.721,0.893,2.774c0.019,0.386-0.275,0.716-0.661,0.742l-1.948,0.131c-0.376,0.026-0.699-0.242-0.75-0.611
	c-0.109-0.799-0.376-1.357-0.817-1.704c-0.501-0.427-1.228-0.626-2.244-0.626c-0.995,0-1.794,0.193-2.251,0.545
	c-0.371,0.286-0.545,0.63-0.545,1.082c0,0.348,0.109,0.621,0.324,0.813c0.114,0.09,0.736,0.495,2.747,0.918
	c1.661,0.392,2.882,0.749,3.551,1.037c1.066,0.48,1.828,1.099,2.275,1.843c0.499,0.747,0.75,1.583,0.75,2.527
	C38.809,36.094,38.538,37.01,38.002,37.836z"/></svg>