<?xml version="1.0" encoding="utf-8" ?><svg xmlns="http://www.w3.org/2000/svg" xmlns:xlink="http://www.w3.org/1999/xlink" width="1046" height="1046" viewBox="0 0 1046 1046"><path fill="#A7BBEA" transform="scale(1.02124 1.02124)" d="M0 0L94.0756 0L124.028 0L149.502 0L150.754 0L183.487 0L257.066 0L274.772 0L403.539 0L445.064 0L445.823 0L496.587 0L508.824 0L509.951 0L561.527 0L562.343 0L597.976 0L599.037 0L642.153 0L764.684 0L788.294 0L864.902 0L907.301 0L977.329 0L1024 0L1024 324.284L1024 836.675L1024 1024L0 1024L0 835.671L0 0Z"/><path fill="#86A1E2" transform="scale(1.02124 1.02124)" d="M0 0L94.0756 0L124.028 0L149.502 0L150.754 0L183.487 0L257.066 0L274.772 0L403.539 0L445.064 0L445.823 0L496.587 0L508.824 0L509.951 0L561.527 0L562.343 0L597.976 0L599.037 0L642.153 0L764.684 0C760.511 25.4244 757.063 51.0752 752.797 76.3987C749.217 97.1502 745.155 117.816 740.612 138.378C724.747 211.065 703.399 283.134 684.154 355.067C672.633 397.629 661.447 440.282 650.596 483.021C646.918 497.024 643.356 511.058 639.911 525.12C638.621 530.497 636.068 540.438 635.498 545.64L635.859 546.79L635.453 547.535C635.034 547.594 634.041 547.759 633.657 547.766L546.673 547.519C544.212 550.953 542.598 553.098 539.797 556.23C539.612 561.669 539.556 567.111 539.628 572.552C536.489 573.266 529.175 573.123 525.641 573.163L525.6 580.078C525.439 582.858 525.263 585.602 525.223 588.389C526.038 588.719 526.761 588.982 527.593 589.271C528.36 591.228 528.392 603.592 527.815 605.589L525.5 606.106C524.601 607.69 524.661 691.772 525.061 699.85C517.185 700.23 509.272 699.762 501.383 700.453C499.288 700.636 496.155 700.919 494.134 700.754L496.066 700.493C499.564 700.002 502.344 699.705 505.866 699.458C505.059 698.643 503.94 698.89 502.472 698.829C501.857 696.913 502.3 681.767 501.975 677.945C500.817 664.316 500.455 650.48 499.797 636.816C499.085 638.886 498.6 647.722 498.074 650.774C497.24 646.533 498.182 637.634 496.142 634.684L495.685 634.887L495.694 635.538C490.23 639.252 487.564 644.112 481.108 638.393C477.738 635.704 477.167 630.436 481.337 628.185C485.05 626.18 491.988 629.033 495.67 629.846C496.3 626.889 496.55 608.461 495.71 606.207L494.629 605.531C493.581 603.68 493.955 590.955 493.929 588.234C500.006 588.297 506.084 588.326 512.161 588.321L512.083 587.997L507.676 587.942L496.315 587.882C496.075 586.372 496.114 582.505 495.926 580.491L495.432 580.438C494.989 578.566 495.138 574.837 495.143 572.767C479.91 570.036 472.413 561.883 467.2 547.9C461.098 547.683 453.916 548.001 447.83 548.318C442.442 551.403 426.542 560.795 421.514 562.132C401.216 567.528 356.924 573.127 336.508 572.516C329.806 572.293 323.155 571.271 316.695 569.472C304.137 566.091 285.995 559.827 274.021 555.025C263.527 560.246 242.391 571.785 233.062 577.966C233.064 588.849 233.238 600.343 232.986 611.172L232.039 614.066C232.097 615.603 232.424 617.326 231.614 618.478L230.989 618.778C231.635 619.939 232.068 620.163 233.088 621.019L233.12 795.724C233.132 813.563 233.244 831.402 233.455 849.24C233.491 857.215 233.772 867.407 233.395 875.263C232.886 872.44 233 864.652 232.988 861.526L232.915 836.009L130.437 836.004C125.306 836.008 93.904 836.424 90.7917 835.465C89.3773 836.357 8.29047 835.78 0 835.671L0 0Z"/><path fill="#B8C8EE" transform="scale(1.02124 1.02124)" d="M403.539 0L445.064 0L445.823 0L496.587 0L508.824 0L509.951 0L561.527 0L562.343 0L597.976 0L599.037 0L642.153 0L764.684 0C760.511 25.4244 757.063 51.0752 752.797 76.3987C749.217 97.1502 745.155 117.816 740.612 138.378C724.747 211.065 703.399 283.134 684.154 355.067C672.633 397.629 661.447 440.282 650.596 483.021C646.918 497.024 643.356 511.058 639.911 525.12C638.621 530.497 636.068 540.438 635.498 545.64L635.859 546.79L635.453 547.535C635.034 547.594 634.041 547.759 633.657 547.766L546.673 547.519L547.59 545.888C549.769 542.032 551.355 537.871 552.296 533.543C556.746 513.977 550.025 497.517 538.053 483.606C537.415 482.866 540.524 481.642 541.687 479.253C542.871 476.782 542.994 473.934 542.028 471.37C540.994 468.545 538.698 466.166 535.946 464.965C533.191 463.747 530.052 463.742 527.293 464.95C523.61 466.584 522.357 469.048 520.911 472.544C518.502 465.706 516.049 459.326 513.322 452.627C511.159 447.312 506.742 438.392 505.494 433.028C504.328 431.365 504.108 431.201 503.657 429.279L502.271 425.458C499.71 419.619 496.8 409.704 493.825 404.354C485.358 389.13 468.182 373.485 455.77 361.133C452.004 357.832 448.203 354.162 444.53 350.729C436.948 344.023 429.9 338.416 421.317 333.022C421.403 328.955 420.902 322.174 420.716 317.857C420.331 307.978 419.889 298.102 419.39 288.228L415.1 205.015L407.02 61.9816C405.867 41.9234 405.317 19.7844 403.539 0Z"/><path fill="#86A1E2" transform="scale(1.02124 1.02124)" d="M642.153 0L764.684 0C760.511 25.4244 757.063 51.0752 752.797 76.3987C749.217 97.1502 745.155 117.816 740.612 138.378C724.747 211.065 703.399 283.134 684.154 355.067C672.633 397.629 661.447 440.282 650.596 483.021C646.918 497.024 643.356 511.058 639.911 525.12C638.621 530.497 636.068 540.438 635.498 545.64C633.043 547.593 618.331 546.41 614.509 546.471C614.835 537.224 615.712 527.129 616.292 517.788C617.41 498.014 618.713 478.25 620.203 458.5C622.725 425.286 624.947 392.051 626.866 358.797C628.165 339.079 630.703 313.281 630.911 294.109L642.153 0Z"/><path fill="#B8C8EE" transform="scale(1.02124 1.02124)" d="M403.539 0L445.064 0L445.823 0L496.587 0L508.824 0C505.99 110.041 504.823 220.119 505.326 330.196L504.086 424.39C503.158 425.107 503.27 425.243 502.271 425.458C499.71 419.619 496.8 409.704 493.825 404.354C485.358 389.13 468.182 373.485 455.77 361.133C452.004 357.832 448.203 354.162 444.53 350.729C436.948 344.023 429.9 338.416 421.317 333.022C421.403 328.955 420.902 322.174 420.716 317.857C420.331 307.978 419.889 298.102 419.39 288.228L415.1 205.015L407.02 61.9816C405.867 41.9234 405.317 19.7844 403.539 0Z"/><path fill="#B8C8EE" transform="scale(1.02124 1.02124)" d="M403.539 0L445.064 0L445.823 0C446.791 82.3618 446.859 164.732 446.028 247.095C445.741 270.813 446.171 294.688 445.662 318.398C445.454 328.095 445.443 341.142 444.53 350.729C436.948 344.023 429.9 338.416 421.317 333.022C421.403 328.955 420.902 322.174 420.716 317.857C420.331 307.978 419.889 298.102 419.39 288.228L415.1 205.015L407.02 61.9816C405.867 41.9234 405.317 19.7844 403.539 0Z"/><path fill="white" transform="scale(1.02124 1.02124)" d="M403.539 0L445.064 0C441.894 21.8664 419.026 201.448 415.81 205.257L415.1 205.015L407.02 61.9816C405.867 41.9234 405.317 19.7844 403.539 0Z"/><path fill="white" transform="scale(1.02124 1.02124)" d="M445.823 0L496.587 0L466.703 265.722L459.644 328.252C458.709 336.743 457.347 353.075 455.77 361.133C452.004 357.832 448.203 354.162 444.53 350.729C445.443 341.142 445.454 328.095 445.662 318.398C446.171 294.688 445.741 270.813 446.028 247.095C446.859 164.732 446.791 82.3618 445.823 0Z"/><path fill="white" transform="scale(1.02124 1.02124)" d="M508.824 0L509.951 0L561.527 0L562.343 0C562.505 25.1687 562.827 50.336 563.309 75.5006C563.473 87.0442 564.139 107.038 563.449 118.01C563.73 153.841 563.741 189.674 563.482 225.505C562.748 232.21 562.79 239.574 562.557 246.33C561.088 289.007 556.395 331.796 559.456 374.506C559.885 380.483 560.13 386.609 560.436 392.613L564.602 470.377L567.88 518.752C568.503 527.658 569.437 537.576 569.56 546.422L614.509 546.471C618.331 546.41 633.043 547.593 635.498 545.64L635.859 546.79L635.453 547.535C635.034 547.594 634.041 547.759 633.657 547.766L546.673 547.519L547.59 545.888C549.769 542.032 551.355 537.871 552.296 533.543C556.746 513.977 550.025 497.517 538.053 483.606C537.415 482.866 540.524 481.642 541.687 479.253C542.871 476.782 542.994 473.934 542.028 471.37C540.994 468.545 538.698 466.166 535.946 464.965C533.191 463.747 530.052 463.742 527.293 464.95C523.61 466.584 522.357 469.048 520.911 472.544C518.502 465.706 516.049 459.326 513.322 452.627C511.159 447.312 506.742 438.392 505.494 433.028C504.328 431.365 504.108 431.201 503.657 429.279L502.271 425.458C503.27 425.243 503.158 425.107 504.086 424.39L505.326 330.196C504.823 220.119 505.99 110.041 508.824 0Z"/><path fill="#2E50A9" transform="scale(1.02124 1.02124)" d="M562.105 204.767C562.756 201.575 562.56 181.417 562.569 177.353L562.639 116.058L563.162 115.529L562.867 114.619L562.794 114.597L563.218 115.401L562.75 115.14C563.568 115.976 563.314 116.494 563.449 118.01C563.73 153.841 563.741 189.674 563.482 225.505C562.748 232.21 562.79 239.574 562.557 246.33C561.088 289.007 556.395 331.796 559.456 374.506C559.885 380.483 560.13 386.609 560.436 392.613L564.602 470.377L567.88 518.752C568.503 527.658 569.437 537.576 569.56 546.422L614.509 546.471C618.331 546.41 633.043 547.593 635.498 545.64L635.859 546.79L635.453 547.535C635.034 547.594 634.041 547.759 633.657 547.766L546.673 547.519L547.59 545.888C549.814 546.9 565.391 546.473 568.791 546.439C565.896 498.626 561.877 450.679 559.899 402.757C559.214 386.152 557.512 368.08 557.372 351.664C557.092 318.965 559.788 285.758 561.198 253.097C561.884 237.209 561.972 220.68 562.105 204.767Z"/><path fill="#2E50A9" transform="scale(1.02124 1.02124)" d="M508.824 0L509.951 0L506.469 341.77C506.351 371.919 505.165 402.972 505.494 433.028C504.328 431.365 504.108 431.201 503.657 429.279L502.271 425.458C503.27 425.243 503.158 425.107 504.086 424.39L505.326 330.196C504.823 220.119 505.99 110.041 508.824 0Z"/><path fill="#B8C8EE" transform="scale(1.02124 1.02124)" d="M502.271 425.458C503.27 425.243 503.158 425.107 504.086 424.39C504.035 426.135 504.087 427.581 503.657 429.279L502.271 425.458Z"/><path fill="#86A1E2" transform="scale(1.02124 1.02124)" d="M561.527 0L562.343 0C562.505 25.1687 562.827 50.336 563.309 75.5006C563.473 87.0442 564.139 107.038 563.449 118.01C563.314 116.494 563.568 115.976 562.75 115.14L563.218 115.401L562.794 114.597L562.867 114.619L563.162 115.529L562.639 116.058L562.569 177.353C562.56 181.417 562.756 201.575 562.105 204.767C561.762 197.92 562.013 189.106 562.026 182.153L562.174 134.252L561.527 0Z"/><path fill="#2E50A9" transform="scale(1.02124 1.02124)" d="M535.744 103.921C542.398 102.652 548.814 107.036 550.051 113.695C551.289 120.355 546.875 126.75 540.21 127.956C533.589 129.154 527.245 124.776 526.016 118.161C524.787 111.546 529.135 105.181 535.744 103.921Z"/><path fill="white" transform="scale(1.02124 1.02124)" d="M535.031 107.714C538.363 107.443 539.089 107.317 542.457 108.032C548.84 113.499 546.648 124.762 537.626 123.307C534.912 122.854 532.505 121.301 530.975 119.014C527.869 114.296 530.942 110.32 535.031 107.714Z"/><path fill="#446ED2" transform="scale(1.02124 1.02124)" d="M536.407 109.079C538.62 109.06 539.406 108.856 540.654 110.798C540.011 111.214 538.116 110.624 537.034 110.389C534.237 109.263 532.348 114.779 533.287 116.518C535.86 121.28 541.058 121.784 543.15 116.292C542.943 115.238 542.858 114.509 542.746 113.438L543.229 113.29C544.242 115.724 543.863 118.526 541.758 120.259C540.657 121.162 539.239 121.585 537.824 121.432C532.527 120.837 529.719 113.233 536.407 109.079Z"/><path fill="#86A1E2" transform="scale(1.02124 1.02124)" d="M537.977 111.644L539.547 112.067L539.647 112.581L537.808 113.634C536.595 113.381 537.064 113.664 536.322 112.934L537.977 111.644Z"/><path fill="#B8C8EE" transform="scale(1.02124 1.02124)" d="M535.156 106.649C527.418 110.276 528.28 116.258 530.546 123.124C519.532 113.062 535.562 96.4306 546.35 108.336C548.253 110.403 549.239 113.152 549.084 115.958C548.804 120.402 545.272 124.044 541.569 126.122L541.343 125.919C544.306 122.37 547.691 119.684 547.075 114.627C546.669 111.292 545.244 109.271 542.538 107.425L542.457 108.032C539.089 107.317 538.363 107.443 535.031 107.714L535.156 106.649Z"/><path fill="#446ED2" transform="scale(1.02124 1.02124)" d="M535.156 106.649C538.178 105.865 539.682 106.073 542.538 107.425L542.457 108.032C539.089 107.317 538.363 107.443 535.031 107.714L535.156 106.649Z"/><path fill="#2E50A9" transform="scale(1.02124 1.02124)" d="M528.009 287.97C534.143 286.825 540.045 290.862 541.203 296.993C542.361 303.124 538.337 309.035 532.208 310.206C526.061 311.38 520.128 307.341 518.967 301.192C517.806 295.042 521.857 289.118 528.009 287.97Z"/><path fill="white" transform="scale(1.02124 1.02124)" d="M523.753 292.908C516.438 300.8 525.22 306.229 525.218 308.218C512.163 298.809 525.347 283.504 536.134 290.435C541.23 293.71 540.958 306.623 532.687 307.06L532.32 306.338C533.414 305.27 533.912 304.972 535.153 304.109L534.449 303.477C526.205 309.373 519.504 302.435 523.753 292.908Z"/><path fill="#B8C8EE" transform="scale(1.02124 1.02124)" d="M523.753 292.908C516.438 300.8 525.22 306.229 525.218 308.218C512.163 298.809 525.347 283.504 536.134 290.435C541.23 293.71 540.958 306.623 532.687 307.06L532.32 306.338C533.414 305.27 533.912 304.972 535.153 304.109C539.243 301.501 539.361 293.771 535.423 292.209L536.334 294.8C533.223 292.606 532.876 292.476 529.279 291.087C527.299 290.499 525.253 291.701 523.753 292.908Z"/><path fill="#446ED2" transform="scale(1.02124 1.02124)" d="M529.279 291.087C532.876 292.476 533.223 292.606 536.334 294.8L535.423 292.209C539.361 293.771 539.243 301.501 535.153 304.109L534.449 303.477C538.787 294.262 529.514 287.633 525.139 297.485C525.148 299.238 525.38 299.32 526.306 300.792C528.908 302.585 530.504 302.404 532.722 300.363C533.515 298.566 533.366 298.263 533.208 296.197L533.157 295.593C535.399 298.745 532.992 303.961 529.127 303.525C527.8 303.374 526.59 302.696 525.768 301.644C522.448 297.357 526.014 293.639 529.279 291.087Z"/><path fill="white" transform="scale(1.02124 1.02124)" d="M562.343 0L597.976 0C595.444 118.333 594.632 236.697 595.541 355.054L595.035 462.11L594.922 497.547C594.898 501.475 595.043 511.419 594.62 514.73L594.069 514.988L594.105 515.057C592.984 511.924 592.851 505.466 592.469 501.907L588.902 470.713C585.933 446.598 583.204 422.454 580.713 398.284L569.321 273.747L566.457 244.925C566.065 240.925 565.267 228.209 563.482 225.505C563.741 189.674 563.73 153.841 563.449 118.01C564.139 107.038 563.473 87.0442 563.309 75.5006C562.827 50.336 562.505 25.1687 562.343 0Z"/><path fill="white" transform="scale(1.02124 1.02124)" d="M599.037 0L642.153 0L630.911 294.109L630.095 294.084C628.603 291.501 622.824 229.698 622.206 223.52L605.195 58.0287C603.236 40.4735 601.617 16.9308 599.037 0Z"/><path fill="#B8C8EE" transform="scale(1.02124 1.02124)" d="M0 0L94.0756 0C89.1681 13.1498 85.6243 19.4673 84.9034 33.6144L84.8322 34.1159C82.91 48.4768 84.6377 66.7381 81.4098 80.1986C79.4506 88.3689 64.3887 105.242 58.3985 112.663C36.7994 139.422 38.3353 163.811 36.0722 196.252C35.2082 207.927 33.5726 219.532 31.1759 230.991C23.9059 265.736 8.48868 287.321 4.37517 323.205C2.49636 339.469 4.21143 355.948 9.39923 371.476C-6.64061 416.054 51.9368 491.138 89.0403 512.921C92.7819 515.117 98.6268 518.877 102.486 520.395L104.348 518.701C106.114 520.139 108.05 521.576 109.52 523.289C111.703 524.9 114.043 526.323 116.186 527.97C137.31 544.21 156.176 563.376 176.341 580.764C178.04 582.229 181.378 584.953 183.291 586.059C184.931 587.262 188.621 589.91 189.622 591.489C194.297 594.767 199.003 598.59 203.59 602.061C205.687 603.647 209.846 606.243 211.585 607.699C213.708 608.386 229.365 617.326 230.989 618.778C231.635 619.939 232.068 620.163 233.088 621.019L233.12 795.724C233.132 813.563 233.244 831.402 233.455 849.24C233.491 857.215 233.772 867.407 233.395 875.263C232.886 872.44 233 864.652 232.988 861.526L232.915 836.009L130.437 836.004C125.306 836.008 93.904 836.424 90.7917 835.465C89.3773 836.357 8.29047 835.78 0 835.671L0 0Z"/><path fill="#2E50A9" transform="scale(1.02124 1.02124)" d="M183.291 586.059C184.931 587.262 188.621 589.91 189.622 591.489C194.297 594.767 199.003 598.59 203.59 602.061C205.687 603.647 209.846 606.243 211.585 607.699C213.708 608.386 229.365 617.326 230.989 618.778C231.635 619.939 232.068 620.163 233.088 621.019L233.12 795.724C233.132 813.563 233.244 831.402 233.455 849.24C233.491 857.215 233.772 867.407 233.395 875.263C232.886 872.44 233 864.652 232.988 861.526L232.915 836.009L130.437 836.004C125.306 836.008 93.904 836.424 90.7917 835.465C94.7166 822.583 102.645 803.56 107.528 790.669L138.121 708.901L169.665 622.911C174.102 610.955 178.141 597.541 183.291 586.059Z"/><path fill="#1F306B" transform="scale(1.02124 1.02124)" d="M189.622 591.489C194.297 594.767 199.003 598.59 203.59 602.061C205.687 603.647 209.846 606.243 211.585 607.699C206.808 606.51 191.994 595.655 189.622 591.489Z"/><path fill="#234493" transform="scale(1.02124 1.02124)" d="M104.348 518.701C106.114 520.139 108.05 521.576 109.52 523.289L102.486 520.395L104.348 518.701Z"/><path fill="#86A1E2" transform="scale(1.02124 1.02124)" d="M183.487 0L257.066 0L274.772 0L403.539 0C405.317 19.7844 405.867 41.9234 407.02 61.9816L415.1 205.015L419.39 288.228C419.889 298.102 420.331 307.978 420.716 317.857C420.902 322.174 421.403 328.955 421.317 333.022C397.764 322.004 388.286 337.087 367.563 345.022C362.164 347.089 352.317 346.939 346.005 348.229C339.34 351.323 334.065 353.472 330.905 361.153C330.745 361.542 330.788 361.667 330.819 362.038C330.169 364.429 329.872 364.935 328.718 367.18L327.559 366.54C326.955 369.253 325.866 371.884 324.892 374.5C308.802 370.695 292.782 366.603 276.838 362.226C269.33 360.126 260.281 357.74 253.053 355.1C250.143 349.309 243.048 341.096 242.831 336.223C242.38 328.089 239.829 316.086 238.693 307.739C235.015 284.527 231.306 261.371 226.889 238.259C216.955 186.276 211.143 133.012 200.296 81.3081C194.588 54.0975 189.247 27.0283 183.487 0Z"/><path fill="#86A1E2" transform="scale(1.02124 1.02124)" d="M183.487 0L257.066 0L274.772 0C281.288 34.0189 289.699 69.6655 296.939 103.712C309.591 163.065 321.646 222.543 333.103 282.138C337.595 304.13 341.896 326.162 346.005 348.229C339.34 351.323 334.065 353.472 330.905 361.153C330.745 361.542 330.788 361.667 330.819 362.038C330.169 364.429 329.872 364.935 328.718 367.18L327.559 366.54C326.955 369.253 325.866 371.884 324.892 374.5C308.802 370.695 292.782 366.603 276.838 362.226C269.33 360.126 260.281 357.74 253.053 355.1C250.143 349.309 243.048 341.096 242.831 336.223C242.38 328.089 239.829 316.086 238.693 307.739C235.015 284.527 231.306 261.371 226.889 238.259C216.955 186.276 211.143 133.012 200.296 81.3081C194.588 54.0975 189.247 27.0283 183.487 0Z"/><path fill="#2E50A9" transform="scale(1.02124 1.02124)" d="M257.066 0L274.772 0C281.288 34.0189 289.699 69.6655 296.939 103.712C309.591 163.065 321.646 222.543 333.103 282.138C337.595 304.13 341.896 326.162 346.005 348.229C339.34 351.323 334.065 353.472 330.905 361.153C330.745 361.542 330.788 361.667 330.819 362.038C330.169 364.429 329.872 364.935 328.718 367.18L327.559 366.54C326.417 363.417 322.864 338.834 322.129 334.285C318.246 310.244 314.836 285.819 310.435 261.85C295.03 174.098 277.233 86.7817 257.066 -2.27374e-13L257.066 0Z"/><path fill="#1F306B" transform="scale(1.02124 1.02124)" d="M346.005 348.229C352.317 346.939 362.164 347.089 367.563 345.022C388.286 337.087 397.764 322.004 421.317 333.022C429.9 338.416 436.948 344.023 444.53 350.729C448.203 354.162 452.004 357.832 455.77 361.133C468.182 373.485 485.358 389.13 493.825 404.354C496.8 409.704 499.71 419.619 502.271 425.458L503.657 429.279C504.108 431.201 504.328 431.365 505.494 433.028C506.742 438.392 511.159 447.312 513.322 452.627C516.049 459.326 518.502 465.706 520.911 472.544C522.357 469.048 523.61 466.584 527.293 464.95C530.052 463.742 533.191 463.747 535.946 464.965C538.698 466.166 540.994 468.545 542.028 471.37C542.994 473.934 542.871 476.782 541.687 479.253C540.524 481.642 537.415 482.866 538.053 483.606C550.025 497.517 556.746 513.977 552.296 533.543C551.355 537.871 549.769 542.032 547.59 545.888L546.673 547.519C544.212 550.953 542.598 553.098 539.797 556.23C539.612 561.669 539.556 567.111 539.628 572.552C536.489 573.266 529.175 573.123 525.641 573.163L525.6 580.078C525.439 582.858 525.263 585.602 525.223 588.389C526.038 588.719 526.761 588.982 527.593 589.271C528.36 591.228 528.392 603.592 527.815 605.589L525.5 606.106C524.601 607.69 524.661 691.772 525.061 699.85C517.185 700.23 509.272 699.762 501.383 700.453C499.288 700.636 496.155 700.919 494.134 700.754L496.066 700.493C499.564 700.002 502.344 699.705 505.866 699.458C505.059 698.643 503.94 698.89 502.472 698.829C501.857 696.913 502.3 681.767 501.975 677.945C500.817 664.316 500.455 650.48 499.797 636.816C499.085 638.886 498.6 647.722 498.074 650.774C497.24 646.533 498.182 637.634 496.142 634.684L495.685 634.887L495.694 635.538C490.23 639.252 487.564 644.112 481.108 638.393C477.738 635.704 477.167 630.436 481.337 628.185C485.05 626.18 491.988 629.033 495.67 629.846C496.3 626.889 496.55 608.461 495.71 606.207L494.629 605.531C493.581 603.68 493.955 590.955 493.929 588.234C500.006 588.297 506.084 588.326 512.161 588.321L512.083 587.997L507.676 587.942L496.315 587.882C496.075 586.372 496.114 582.505 495.926 580.491L495.432 580.438C494.989 578.566 495.138 574.837 495.143 572.767C479.91 570.036 472.413 561.883 467.2 547.9C461.098 547.683 453.916 548.001 447.83 548.318C444.498 547.18 419.511 547.647 413.242 547.15L412.733 546.266C408.648 547.276 405.049 547.549 400.898 546.399C395.227 546.798 380.462 546.703 374.824 546.41C371.735 546.651 370.988 546.586 367.907 546.15L365.127 545.744C362.466 547.324 355.056 546.287 350.844 546.934C344.625 547.31 308.214 547.621 303.92 546.474C302.636 544.893 302.234 544.33 300.488 543.316C297.739 543.928 294.802 546.035 290.831 546.555C285.382 547.27 269.58 553.235 265.587 547.832C264.47 547.041 259.636 544.58 257.961 543.539C253.391 540.699 248.998 537.865 244.49 534.92C244.454 517.058 246.389 483.647 249.36 466.027C248.258 465.661 248.282 465.057 247.517 463.692C250.952 461.429 256.684 449.189 259.644 444.324C267.093 432.078 289.672 409.743 302.836 403.694C304.635 397.959 307.059 391.544 311.434 387.275C316.83 382.012 320.518 382.575 323.83 375.479C317.307 373.559 309.799 372.046 303.147 370.278C286.142 365.758 269.244 361.576 252.513 356.096C248.759 349.388 245.963 344.637 241.253 338.484C242.226 337.289 241.689 336.768 242.831 336.223C243.048 341.096 250.143 349.309 253.053 355.1C260.281 357.74 269.33 360.126 276.838 362.226C292.782 366.603 308.802 370.695 324.892 374.5C325.866 371.884 326.955 369.253 327.559 366.54L328.718 367.18C329.872 364.935 330.169 364.429 330.819 362.038C330.788 361.667 330.745 361.542 330.905 361.153C334.065 353.472 339.34 351.323 346.005 348.229Z"/><path fill="#A7BBEA" transform="scale(1.02124 1.02124)" d="M292.39 423.98C295.708 425.023 297.063 425.536 300.125 426.832C308.97 430.576 320.866 450.452 327.835 453.063C336.229 464.413 342.337 471.022 352.925 480.627C356.841 484.18 366.083 492.638 369.027 496.187C375.828 502.453 391.074 522.003 392.658 531.481C392.908 533.142 391.838 535.871 390.6 536.985C378.97 547.454 369.142 546.393 356.04 541.758C335.532 534.502 326.053 524.456 312.815 508.167C309.52 504.112 304.016 498.114 300.15 495.009C300.725 497.541 328.925 527.529 332.485 530.773C320.992 535.1 309.44 539.267 297.832 543.272C296.333 542.15 294.77 540.975 293.392 539.71C290.222 536.765 287.513 533.36 285.355 529.61C280.872 521.685 277.368 511.349 274.038 502.821C270.89 494.579 267.332 486.628 264.77 478.171C260.103 462.764 262.642 452.689 273.461 441.231C279.812 434.768 285.508 429.9 292.39 423.98Z"/><path fill="#A7BBEA" transform="scale(1.02124 1.02124)" d="M292.39 423.98C295.708 425.023 297.063 425.536 300.125 426.832C308.97 430.576 320.866 450.452 327.835 453.063C336.229 464.413 342.337 471.022 352.925 480.627C356.841 484.18 366.083 492.638 369.027 496.187C363.727 507.447 342.413 503.17 334.074 497.598C319.958 488.167 307.334 476.445 294.498 465.338C287.581 459.352 275.546 450.152 273.461 441.231C279.812 434.768 285.508 429.9 292.39 423.98Z"/><path fill="#A7BBEA" transform="scale(1.02124 1.02124)" d="M323.087 380.39C333.417 381.375 336.964 385.548 343.521 392.72C346.154 395.601 353.246 404.983 355.861 406.544C365.834 423.856 376.194 433.828 389.617 448.227C395.085 454.093 403.968 462.601 407.684 469.489C416.043 483.538 424.375 509.552 426.805 525.686C428.653 537.949 418.061 546.06 406.767 545.867C399.565 545.744 396.557 542.152 391.706 537.522C392.044 537.089 392.925 535.884 393.127 535.502C396.666 524.657 375.934 501.695 369.903 495.176C354.142 478.139 327.194 460.257 322.383 436.58L321.744 436.194C321.152 440.929 325.594 448.609 327.835 453.063C320.866 450.452 308.97 430.576 300.125 426.832C297.063 425.536 295.708 425.023 292.39 423.98C298.559 418.174 300.14 414.463 303.186 406.614C307.999 391.054 309.306 388.747 323.087 380.39Z"/><path fill="#A7BBEA" transform="scale(1.02124 1.02124)" d="M323.087 380.39C333.417 381.375 336.964 385.548 343.521 392.72C346.154 395.601 353.246 404.983 355.861 406.544C365.834 423.856 376.194 433.828 389.617 448.227C395.085 454.093 403.968 462.601 407.684 469.489C406.211 473.487 408.356 477.29 404.796 481.142C400.245 486.34 390.604 487.843 384.646 484.247C372.709 477.042 363.27 464.629 354.326 454.12C346.971 445.422 339.457 436.862 331.786 428.442C325.109 420.969 319.211 412.641 309.668 408.874C307.712 408.101 304.585 407.876 303.186 406.614C307.999 391.054 309.306 388.747 323.087 380.39Z"/><path fill="#A7BBEA" transform="scale(1.02124 1.02124)" d="M332.216 360.371C341.536 343.87 354.219 351.266 367.778 346.077C385.15 339.43 401.139 322.147 421.227 334.362C441.211 346.961 473.917 378.46 487.918 397.384C487.506 398.141 487.033 398.863 486.502 399.541C483.103 403.975 477.645 408.205 471.958 408.751C458.42 410.05 426.536 380.077 416.25 370.252C411.997 366.19 408.009 361.518 403.419 357.859C402.126 356.828 401.144 356.145 399.475 356.302C398.418 357.428 398.396 358.305 398.066 359.822C401.013 386.867 435.203 408.321 450.433 427.984C449.893 428.857 449.324 429.711 448.727 430.546C441.813 440.1 428.582 448.876 417.178 440.907C401.068 429.65 387.311 413.063 374.825 398.026C365.13 386.35 357.468 372.133 345.735 362.244C341.44 358.618 337.079 359.581 332.216 360.371Z"/><path fill="#A7BBEA" transform="scale(1.02124 1.02124)" d="M332.216 360.371C337.079 359.581 341.44 358.618 345.735 362.244C357.468 372.133 365.13 386.35 374.825 398.026C387.311 413.063 401.068 429.65 417.178 440.907C428.582 448.876 441.813 440.1 448.727 430.546C449.324 429.711 449.893 428.857 450.433 427.984C450.82 428.629 451.297 429.623 451.497 430.347C457.642 452.635 460.375 476.037 463.335 498.944C464.234 505.894 464.676 519.326 461.428 525.726C454.93 538.53 438.401 544.642 425.262 538.148C430.631 527.123 427.088 516.708 423.456 505.619C419.18 492.565 414.274 478.451 407.273 466.598C403.581 460.347 396.601 454.449 391.858 448.924C379.927 435.774 366.078 423.164 357.657 407.379C356.208 404.662 355.698 400.267 353.795 397.998L353.811 397.599L353.716 397.72C353.934 401.065 354.834 403.364 355.861 406.544C353.246 404.983 346.154 395.601 343.521 392.72C336.964 385.548 333.417 381.375 323.087 380.39C325.075 376.035 326.952 371.63 328.718 367.18C329.872 364.935 330.169 364.429 330.819 362.038L332.216 360.371Z"/><path fill="#A7BBEA" transform="scale(1.02124 1.02124)" d="M398.066 359.822C398.396 358.305 398.418 357.428 399.475 356.302C401.144 356.145 402.126 356.828 403.419 357.859C408.009 361.518 411.997 366.19 416.25 370.252C426.536 380.077 458.42 410.05 471.958 408.751C477.645 408.205 483.103 403.975 486.502 399.541C487.033 398.863 487.506 398.141 487.918 397.384C495.049 405.933 501.271 427.006 505.943 437.761C511.274 450.032 517.134 464.007 521.017 476.725C522.888 482.854 524.387 495.336 525.364 502.221C525.778 504.682 526.301 507.406 526.621 509.856L526.792 512.275L526.215 512.236C525.536 509.522 524.823 506.817 524.076 504.121C523.342 501.933 522.731 499.932 521.484 497.966C517.083 491.025 504.432 490.394 499.871 497.544C493.636 507.317 502.048 522.961 512.969 525.043C515.287 525.485 521.533 524.048 522.979 524.969C522.625 525.288 522.041 525.864 521.605 525.977C496.067 532.373 488.432 504.381 480.388 486.91C471.543 467.696 463.83 447.407 452.966 429.284C449.255 423.093 441.113 415.727 435.736 410.787C422.669 398.783 409.567 386.209 401.794 369.966C400.236 366.706 400.096 363.188 398.066 359.822Z"/><path fill="#A7BBEA" transform="scale(1.02124 1.02124)" d="M249.36 466.027C259.544 440.329 279.43 419.8 302.27 404.831C298.383 417.574 294.947 420.647 285.178 428.837C273.354 438.749 258.031 452.79 261.877 470.144C266.007 488.776 276.107 510.697 283.527 528.571C285.968 534.45 292.18 540.322 297.168 544.055C287.598 546.556 275.032 550.511 265.587 547.832C264.47 547.041 259.636 544.58 257.961 543.539C253.391 540.699 248.998 537.865 244.49 534.92C244.454 517.058 246.389 483.647 249.36 466.027Z"/><path fill="#446ED2" transform="scale(1.02124 1.02124)" d="M521.145 473.505C527.79 477.106 532.822 480.144 538 485.789C556.483 505.934 557.859 536.218 538.279 556.32C538.217 561.347 537.995 567.301 538.154 572.257C535.091 571.788 530.447 572.248 527.243 572.15C517.511 571.854 501.604 573.031 492.683 571.144C484.419 569.412 477.189 564.45 472.603 557.361C462.164 541.026 464.78 505.362 482.15 494.322C483.542 497.554 484.999 500.758 486.519 503.932L487.724 506.405C486.402 507.796 484.54 509.882 483.143 511.093L482.303 510.149C468.498 526.979 475.718 553.377 493.436 564.938C493.269 559.065 492.385 553.334 497.604 549.402L497.762 550.224C499.463 551.803 504.847 550.194 507.162 549.607C506.97 546.417 506.589 537.978 512.105 537.785C518.137 537.574 520.009 545.225 520.922 550.037C526.404 550.17 531.783 550.116 535.582 545.64C548.642 530.253 545.652 502.672 530.696 489.45C528.367 487.392 526.43 485.693 524.166 483.853C523.189 480.486 522.204 476.82 521.145 473.505Z"/><path fill="#2E50A9" transform="scale(1.02124 1.02124)" d="M486.519 503.932L487.724 506.405C486.402 507.796 484.54 509.882 483.143 511.093L482.303 510.149L482.252 509.14C483.617 506.645 484.536 505.923 486.519 503.932Z"/><path fill="white" transform="scale(1.02124 1.02124)" d="M524.002 485.372C534.349 493.401 540.599 501.636 542.291 515.076C543.666 525.826 540.925 536.699 534.617 545.512C531.283 544.844 527.837 544.593 524.448 544.265C521.262 538.481 514.91 534.98 508.917 538.767C505.777 540.751 504.709 543.248 502.854 546.342C494.385 547.554 488.097 547.525 479.472 547.494C475.758 536.49 473.651 519.927 483.143 511.093C484.54 509.882 486.402 507.796 487.724 506.405C493.988 518.92 503.049 530.697 519.525 527.761C521.992 527.321 525.035 525.631 526.392 523.452C526.307 522.61 526.557 519.621 526.622 518.61C526.501 516.069 526.284 515.466 525.603 512.96L526.215 512.236L526.792 512.275L526.621 509.856L527.667 509.512C526.269 501.293 525.006 493.638 524.002 485.372Z"/><path fill="#234493" transform="scale(1.02124 1.02124)" d="M526.621 509.856L527.667 509.512C528.404 514.943 529.489 518.746 526.392 523.452C526.307 522.61 526.557 519.621 526.622 518.61C526.501 516.069 526.284 515.466 525.603 512.96L526.215 512.236L526.792 512.275L526.621 509.856Z"/><path fill="#446ED2" transform="scale(1.02124 1.02124)" d="M499.797 636.816C499.739 630.22 499.124 612.785 501.021 607.063C503.186 605.294 513.251 605.927 516.619 605.942C516.427 636.988 516.676 668.036 517.365 699.074C514.718 699.136 508.209 699.12 505.866 699.458C505.059 698.643 503.94 698.89 502.472 698.829C501.857 696.913 502.3 681.767 501.975 677.945C500.817 664.316 500.455 650.48 499.797 636.816Z"/><path fill="#86A1E2" transform="scale(1.02124 1.02124)" d="M453.861 434.616C455.221 435.61 455.681 436.646 456.557 438.083C460.197 443.882 464.779 454.852 467.603 461.206C472.461 471.889 477.197 482.627 481.81 493.417C470.602 501.72 468.511 511.84 465.737 524.4L464.238 521.638C467.527 502.454 458.518 454.784 453.861 434.616Z"/><path fill="#446ED2" transform="scale(1.02124 1.02124)" d="M516.619 605.942L523.568 605.997L524.014 699.744C521.42 699.336 519.983 699.165 517.365 699.074C516.676 668.036 516.427 636.988 516.619 605.942Z"/><path fill="#B8C8EE" transform="scale(1.02124 1.02124)" d="M526.622 518.61C521.123 529.615 503.765 523.178 500.31 512.007C495.948 497.908 504.54 489.503 518.032 495.733C522.146 497.633 524.432 508.658 525.603 512.96C526.284 515.466 526.501 516.069 526.622 518.61Z"/><path fill="#A7BBEA" transform="scale(1.02124 1.02124)" d="M333.602 531.266C344.607 538.841 352.475 541.805 365.127 545.744C362.466 547.324 355.056 546.287 350.844 546.934C344.625 547.31 308.214 547.621 303.92 546.474C302.636 544.893 302.234 544.33 300.488 543.316C310.174 540.096 324.309 535.212 333.602 531.266Z"/><path fill="#B8C8EE" transform="scale(1.02124 1.02124)" d="M457.107 533.748C457.04 534.825 456.767 535.536 457.266 536.171C459.863 539.475 460.337 542.273 461.008 546.242C462.981 546.327 465.128 546.358 467.07 546.6C464.003 547.113 443.708 547.389 440.45 546.687C437.857 544.991 435.752 544.633 433.603 542.389C442.511 543.077 450.522 539.598 457.107 533.748Z"/><defs><linearGradient id="gradient_0" gradientUnits="userSpaceOnUse" x1="496.76797" y1="580.16602" x2="505.74448" y2="580.50378"><stop offset="0" stop-color="#506DC7"/><stop offset="1" stop-color="#6D8BDA"/></linearGradient></defs><path fill="url(#gradient_0)" transform="scale(1.02124 1.02124)" d="M495.143 572.767L496.63 572.888L505.703 573.126L508.198 573.712C505.8 575.692 506.147 586.83 507.676 587.942L496.315 587.882C496.075 586.372 496.114 582.505 495.926 580.491L495.432 580.438C494.989 578.566 495.138 574.837 495.143 572.767Z"/><path fill="#446ED2" transform="scale(1.02124 1.02124)" d="M495.143 572.767L496.63 572.888C496.859 576.261 496.962 584.546 496.315 587.882C496.075 586.372 496.114 582.505 495.926 580.491L495.432 580.438C494.989 578.566 495.138 574.837 495.143 572.767Z"/><path fill="#86A1E2" transform="scale(1.02124 1.02124)" d="M505.703 573.126L517.512 573.015C518.269 576.252 518.173 583.91 517.758 587.232C516.726 588.483 514.926 587.883 513.455 587.586L512.083 587.997L507.676 587.942C506.147 586.83 505.8 575.692 508.198 573.712L505.703 573.126Z"/><path fill="#446ED2" transform="scale(1.02124 1.02124)" d="M505.703 573.126L517.512 573.015C518.269 576.252 518.173 583.91 517.758 587.232C516.726 588.483 514.926 587.883 513.455 587.586C514.412 585.017 513.928 576.881 513.826 573.761C512.196 573.606 509.881 573.697 508.198 573.712L505.703 573.126Z"/><path fill="white" transform="scale(1.02124 1.02124)" d="M464.238 521.638L465.737 524.4C465.174 533.063 465.463 538.088 467.07 546.6C465.128 546.358 462.981 546.327 461.008 546.242C460.337 542.273 459.863 539.475 457.266 536.171C456.767 535.536 457.04 534.825 457.107 533.748C461.013 529.912 462.461 526.588 464.238 521.638Z"/><path fill="#446ED2" transform="scale(1.02124 1.02124)" d="M494.322 634.559C491.352 636.467 489.158 641.742 483.818 639.129C481.81 638.129 480.304 636.344 479.658 634.195C479.144 632.536 479.296 631.669 480.116 630.198C482.836 628.023 490.147 629.329 492.643 631.367L493.555 631.44C494.079 632.834 494.255 633.05 494.322 634.559Z"/><path fill="#86A1E2" transform="scale(1.02124 1.02124)" d="M412.733 546.266C418.367 544.738 420.778 543.373 424.506 539.045C427.391 540.545 430.501 541.318 433.603 542.389C435.752 544.633 437.857 544.991 440.45 546.687C431.955 547.377 422.573 546.308 413.242 547.15L412.733 546.266Z"/><path fill="#446ED2" transform="scale(1.02124 1.02124)" d="M517.512 573.015L524.43 573.575C524.403 578.427 524.482 583.696 524.319 588.51C520.289 588.451 516.183 588.435 512.161 588.321L512.083 587.997L513.455 587.586C514.926 587.883 516.726 588.483 517.758 587.232C518.173 583.91 518.269 576.252 517.512 573.015Z"/><path fill="#86A1E2" transform="scale(1.02124 1.02124)" d="M374.824 546.41C381.736 543.975 385.17 542.966 391.006 538.387C394.732 542.106 396.261 543.663 400.898 546.399C395.227 546.798 380.462 546.703 374.824 546.41Z"/><path fill="#86A1E2" transform="scale(1.02124 1.02124)" d="M497.604 549.402C500.082 547.296 505.422 547.366 508.76 547.227C504.156 549.679 502.97 549.899 497.762 550.224L497.604 549.402Z"/><path fill="#A7BBEA" transform="scale(1.02124 1.02124)" d="M493.555 631.44L493.294 630.308C495.428 630.861 495.764 632.825 496.142 634.684L495.685 634.887L494.322 634.559C494.255 633.05 494.079 632.834 493.555 631.44Z"/><path fill="#446ED2" transform="scale(1.02124 1.02124)" d="M453.861 434.616L453.248 432.658C454.454 432.979 456.076 436.793 456.557 438.083C455.681 436.646 455.221 435.61 453.861 434.616Z"/><path fill="#86A1E2" transform="scale(1.02124 1.02124)" d="M494.9 589.555L509.798 589.632L514.847 589.643L526.959 590.128L526.957 605.129L516.643 605.015L503.928 604.967L494.979 605.117L494.9 589.555Z"/><path fill="#446ED2" transform="scale(1.02124 1.02124)" d="M514.847 589.643L526.959 590.128L526.957 605.129L516.643 605.015C517.223 602.224 517.399 593.976 516.641 590.965C516.421 590.088 515.955 590.178 514.847 589.643Z"/><path fill="#446ED2" transform="scale(1.02124 1.02124)" d="M494.9 589.555L509.798 589.632C507.24 590.268 506.359 590.229 503.694 590.253C503.641 594.583 503.392 600.828 503.928 604.967L494.979 605.117L494.9 589.555Z"/><path fill="#A7BBEA" transform="scale(1.02124 1.02124)" d="M496.82 548.466C493.451 551.954 492.872 553.625 492.236 558.397C492.161 560.098 492.213 560.337 491.724 562.014C488.107 561.262 481.605 551.953 479.905 548.638C485.43 548.485 491.269 548.52 496.82 548.466Z"/><path fill="#B8C8EE" transform="scale(1.02124 1.02124)" d="M528.069 475.496C525.934 474.537 526.498 475.282 525.833 473.582C526.352 470.272 530.901 468.083 533.764 468.794C537.921 469.826 541.449 478.843 536.811 481.297C534.45 480.917 533.861 479.976 532.048 478.211C531.288 477.827 528.896 476.077 528.069 475.496Z"/><path fill="white" transform="scale(1.02124 1.02124)" d="M528.082 474.588C531.404 470.565 534.99 470.937 535.741 476.406L534.358 478.152L532.048 478.211C531.288 477.827 528.896 476.077 528.069 475.496L528.082 474.588Z"/><path fill="#446ED2" transform="scale(1.02124 1.02124)" d="M528.082 474.588C527.542 470.031 535.865 469.248 536.864 476.087L535.741 476.406C534.99 470.937 531.404 470.565 528.082 474.588Z"/><path fill="#234493" transform="scale(1.02124 1.02124)" d="M535.741 476.406L536.864 476.087C536.56 477.79 536.727 478.903 535.713 479.74C534.767 478.903 535.031 479.235 534.358 478.152L535.741 476.406Z"/><path fill="#B8C8EE" transform="scale(1.02124 1.02124)" d="M530.444 464.998C535.289 464.706 541.653 467.96 541.788 473.823C541.817 475.071 540.117 480.579 539.32 481.378L538.872 480.633L539.908 478.651C540.073 476.125 539.226 474.208 538.455 471.763C535.477 467.307 534.453 467.46 529.307 467.742C525.98 470.407 525.706 472.954 523.759 473.674L523.036 472.797C522.452 467.857 526.34 466.034 530.444 464.998Z"/><path fill="#446ED2" transform="scale(1.02124 1.02124)" d="M521.65 548.065C521.185 545.982 520.054 543.396 520.305 541.396C521.622 541.631 521.679 542.146 522.835 543.359C524.28 545.65 525.047 546.066 525.162 548.536C524.128 549.437 524.726 549.099 523.163 549.219C521.95 548.583 522.074 548.949 521.65 548.065Z"/><path fill="#446ED2" transform="scale(1.02124 1.02124)" d="M521.65 548.065C521.185 545.982 520.054 543.396 520.305 541.396C521.622 541.631 521.679 542.146 522.835 543.359C521.762 545.525 521.756 545.612 521.65 548.065Z"/><path fill="#B8C8EE" transform="scale(1.02124 1.02124)" d="M525.855 545.168C528.447 546.036 530.445 545.466 532.464 546.543L531.907 547.359C529.603 548.153 528.953 548.626 526.847 547.725C526.07 546.498 526.043 546.587 525.855 545.168Z"/><path fill="#2E50A9" transform="scale(1.02124 1.02124)" d="M94.0756 0L124.028 0L149.502 0L150.754 0L183.487 0C189.247 27.0283 194.588 54.0975 200.296 81.3081C211.143 133.012 216.955 186.276 226.889 238.259C231.306 261.371 235.015 284.527 238.693 307.739C239.829 316.086 242.38 328.089 242.831 336.223C241.689 336.768 242.226 337.289 241.253 338.484C240.054 337.096 239.105 336.188 238.356 334.504C236.824 333.096 234.821 330.849 233.405 329.251C227.689 322.801 221.307 317.453 214.924 311.704C214.211 311.419 206.219 305.593 205.097 304.768C163.998 274.541 108.137 277.393 65.6264 303.273C49.0257 313.38 32.5019 327.032 15.4709 338.212C14.757 299.798 41.8696 254.592 53.0382 218.128C61.221 191.412 56.7354 169.768 64.4282 144.71C72.846 152.973 79.0795 160.266 88.7043 168.223C109.087 184.667 134.443 201.22 157.765 212.902C191.987 230.043 209.038 232.947 221.732 272.844C221.597 276.305 222.026 281.716 222 285.68C215.974 293.426 204.142 286.852 196.942 283.862C167.856 271.782 126.283 259.361 96.4888 274.28C115.063 270.855 133.044 271.452 151.479 275.417C160.86 277.434 169.971 280.325 179 283.55C191.801 288.121 213.986 299.765 227.438 294.564C229.526 293.757 231.441 292.315 232.311 290.196C234.872 283.957 222.264 261.506 219.268 254.581C202.592 216.036 191.629 172.17 157.849 144.16C141.05 130.23 121.224 120.378 108.771 101.737C99.515 87.8819 93.1483 64.1352 88.6023 47.7825C87.3094 43.1318 86.6318 38.0928 84.9034 33.6144C85.6243 19.4673 89.1681 13.1498 94.0756 0Z"/><path fill="#86A1E2" transform="scale(1.02124 1.02124)" d="M124.028 0L149.502 0L150.754 0C153.328 2.21011 155.627 3.9809 157.132 7.09612L157.041 7.55985C160.781 13.2652 169.467 23.7836 167.974 30.5488C162.469 55.4836 128.725 6.16943 124.028 0Z"/><path fill="#234493" transform="scale(1.02124 1.02124)" d="M149.502 0L150.754 0C153.328 2.21011 155.627 3.9809 157.132 7.09612L157.041 7.55985C156.692 7.35888 150.637 1.07506 149.502 0Z"/><path fill="#234493" transform="scale(1.02124 1.02124)" d="M214.924 311.704C219.745 313.219 236.494 329.506 238.356 334.504C236.824 333.096 234.821 330.849 233.405 329.251C227.689 322.801 221.307 317.453 214.924 311.704Z"/><path fill="#86A1E2" transform="scale(1.02124 1.02124)" d="M110.974 21.5367C124.613 39.616 136.893 50.6511 155.229 63.7328C162.141 68.664 169.78 75.5036 176.418 81.0057C179.094 81.2185 183.539 86.9035 184.267 89.5766C187.27 95.7661 188.68 98.5238 190.551 105.295L191.14 105.496C191.967 109.527 192.316 118.873 190.13 122.195L189.549 122.101C181.957 138.543 166.476 132.37 152.043 129.693C139.138 127.3 126.857 121.359 120.208 109.494C107.653 87.093 104.889 45.973 110.974 21.5367Z"/><path fill="#234493" transform="scale(1.02124 1.02124)" d="M190.551 105.295L191.14 105.496C191.967 109.527 192.316 118.873 190.13 122.195L189.549 122.101C190.954 115.431 191.123 112.161 190.551 105.295Z"/><path fill="#234493" transform="scale(1.02124 1.02124)" d="M176.418 81.0057C179.094 81.2185 183.539 86.9035 184.267 89.5766C181.715 86.6608 179.098 83.8031 176.418 81.0057Z"/><path fill="#2E50A9" transform="scale(1.02124 1.02124)" d="M163.52 560.645C160.445 558.91 146.946 545.346 143.781 542.33C112.636 512.654 72.9094 490.313 56.7944 448.291C48.651 426.989 49.4559 403.301 59.0267 382.601C73.3376 351.052 105.607 337.347 137.419 330.022C157.709 325.351 181.136 321.201 200.811 330.134C202.672 330.98 204.542 331.872 205.282 333.875C204.414 339.786 188.577 346.301 183.212 348.814C172.036 354.051 160.834 358.528 150.138 365.043C125.404 380.109 103.71 402.988 87.1222 426.593C85.9579 428.25 84.9466 430.199 85.3808 432.146C89.3051 434.414 110.243 424.382 114.848 422.319C156.566 403.632 198.043 380.23 244.627 377.139C246.334 377.026 248.192 377.687 249.328 378.965C249.741 381.511 248.41 383.586 246.347 385.163C240.733 389.349 236.123 392.164 230.39 396.476C213.143 409.449 171.444 445.233 183.407 468.969C194.73 491.437 230.967 473.171 247.517 463.692C248.282 465.057 248.258 465.661 249.36 466.027C246.389 483.647 244.454 517.058 244.49 534.92C248.998 537.865 253.391 540.699 257.961 543.539C259.636 544.58 264.47 547.041 265.587 547.832C269.58 553.235 285.382 547.27 290.831 546.555C294.802 546.035 297.739 543.928 300.488 543.316C302.234 544.33 302.636 544.893 303.92 546.474C308.214 547.621 344.625 547.31 350.844 546.934C355.056 546.287 362.466 547.324 365.127 545.744L367.907 546.15C370.988 546.586 371.735 546.651 374.824 546.41C380.462 546.703 395.227 546.798 400.898 546.399C405.049 547.549 408.648 547.276 412.733 546.266L413.242 547.15C419.511 547.647 444.498 547.18 447.83 548.318C442.442 551.403 426.542 560.795 421.514 562.132C401.216 567.528 356.924 573.127 336.508 572.516C329.806 572.293 323.155 571.271 316.695 569.472C304.137 566.091 285.995 559.827 274.021 555.025C263.527 560.246 242.391 571.785 233.062 577.966C233.064 588.849 233.238 600.343 232.986 611.172L232.039 614.066C226.342 610.791 220.5 608.34 214.933 604.603C210.92 601.918 207.261 599.481 203.418 596.532L200.057 594.043C197.931 593.026 188.355 584.904 185.465 582.775C182.302 581.447 178.234 575.781 176.059 573.003C173.065 570.755 166.269 563.527 163.52 560.645Z"/><path fill="#86A1E2" transform="scale(1.02124 1.02124)" d="M185.279 559.293C188.005 559.583 188.092 559.423 190.135 561.155C193 564.341 194.07 568.53 194.258 572.743L193.658 573.373C193.058 576.122 192.405 579.494 189.987 581.449C188.805 582.405 186.94 581.881 185.236 581.716L185.465 582.775C182.302 581.447 178.234 575.781 176.059 573.003L177.159 573.477C177.633 573.301 178.606 565.608 181.867 562.053C182.606 561.14 184.258 560.047 185.279 559.293Z"/><path fill="#234493" transform="scale(1.02124 1.02124)" d="M190.135 561.155C193 564.341 194.07 568.53 194.258 572.743L193.658 573.373C191.07 575.541 191.895 579.399 187.883 580.382C182.143 581.788 180.791 569.404 183.131 567.134C184.36 565.919 186.019 565.237 187.748 565.235L188.151 565.818C180.356 566.836 181.223 579.075 188.24 579.083C193.86 576.889 193.697 566.59 187.348 563.163L187.297 562.997L186.737 562.471L186.736 562.055C187.885 561.683 188.965 561.437 190.135 561.155Z"/><defs><linearGradient id="gradient_1" gradientUnits="userSpaceOnUse" x1="185.44727" y1="564.1062" x2="184.06097" y2="560.67749"><stop offset="0" stop-color="#3450AB"/><stop offset="1" stop-color="#6686EA"/></linearGradient></defs><path fill="url(#gradient_1)" transform="scale(1.02124 1.02124)" d="M185.279 559.293C188.005 559.583 188.092 559.423 190.135 561.155C188.965 561.437 187.885 561.683 186.736 562.055L186.737 562.471L187.297 562.997L187.348 563.163C184.712 564.045 184.1 564.16 182.029 565.96L181.592 565.246C182.164 563.779 181.967 563.711 181.867 562.053C182.606 561.14 184.258 560.047 185.279 559.293Z"/><path fill="#234493" transform="scale(1.02124 1.02124)" d="M181.592 565.246L182.029 565.96C180.342 569.846 181.421 570.489 180.633 574.625L180.015 573.957C179.973 570.175 179.821 568.616 181.592 565.246Z"/><path fill="#234493" transform="scale(1.02124 1.02124)" d="M189.891 576.011C189.468 576.534 188.823 577.033 188.296 577.495C186.328 577.906 187.224 578.033 185.497 577.247C182.673 573.706 183.175 565.84 188.329 567.492C189.402 569.534 188.435 573.947 188.054 576.396L188.309 576.739L189.617 575.688L189.891 576.011Z"/><path fill="#1F306B" transform="scale(1.02124 1.02124)" d="M189.617 575.688C189.799 574.712 190.005 568.471 190.019 568.459C191.476 571.656 191.168 572.725 189.891 576.011L189.617 575.688Z"/><path fill="#86A1E2" transform="scale(1.02124 1.02124)" d="M206.635 591.777C203.399 592.426 202.086 592.895 199.295 590.324C194.581 585.984 195.122 571.398 203.416 571.646C205.569 571.71 207.052 573.972 208.349 575.588C210.051 582.614 209.591 585.071 206.635 591.777Z"/><path fill="#1F306B" transform="scale(1.02124 1.02124)" d="M202.056 573.376C210.381 573.579 209.69 589.221 203.377 590.768C198.33 589.897 195.631 580.865 198.557 577.195L199.225 577.194C198.32 581.808 198.014 588.529 204.084 589.57C207.606 588.42 207.222 586.257 206.96 583.062C205.91 585.729 205.544 587.927 202.328 588.041C199.737 586.367 199.368 581.458 200.822 578.786C202.505 577.695 201.578 578.008 203.77 578.053L203.997 578.439L201.429 579.504L201.237 580.181L202.753 580.088C203.773 581.07 203.889 583.573 204.205 585.28L204.641 585.383C206.158 581.688 208.661 577.904 204.407 574.671C202.622 574.755 203.164 574.753 201.463 576.186L201.838 575.986L201.132 576.8C199.79 576.89 200.356 577.114 199.341 576.283C199.796 574.82 200.797 574.328 202.056 573.376Z"/><path fill="#86A1E2" transform="scale(1.02124 1.02124)" d="M201.138 581.359C202.779 582.711 202.379 584.618 202.388 586.643C200.504 585.083 200.976 583.612 201.138 581.359Z"/><path fill="#234493" transform="scale(1.02124 1.02124)" d="M208.349 575.588C210.419 576.921 211.179 592.161 211.024 595.004C210.974 597.354 211.145 598.601 211.453 600.946C212.795 602.021 214.264 603.259 215.652 604.246L214.933 604.603C210.92 601.918 207.261 599.481 203.418 596.532L203.928 595.799C205.29 594.631 206.051 593.426 206.635 591.777C209.591 585.071 210.051 582.614 208.349 575.588Z"/><path fill="#1F306B" transform="scale(1.02124 1.02124)" d="M185.279 559.293L185.528 558.665C191.796 558.164 194.597 564.626 194.726 569.968C194.741 570.817 194.735 571.667 194.707 572.516L194.258 572.743C194.07 568.53 193 564.341 190.135 561.155C188.092 559.423 188.005 559.583 185.279 559.293Z"/><path fill="#1F306B" transform="scale(1.02124 1.02124)" d="M163.52 560.645C166.316 562.159 175.169 570.377 176.059 573.003C173.065 570.755 166.269 563.527 163.52 560.645Z"/><path fill="#86A1E2" transform="scale(1.02124 1.02124)" d="M365.127 545.744L367.907 546.15L367.493 546.799C363.615 547.247 354.943 547.085 350.844 546.934C355.056 546.287 362.466 547.324 365.127 545.744Z"/><path fill="#1F306B" transform="scale(1.02124 1.02124)" d="M200.057 594.043L201.206 593.703C202.121 594.392 203.029 595.09 203.928 595.799L203.418 596.532L200.057 594.043Z"/><path fill="#86A1E2" transform="scale(1.02124 1.02124)" d="M212.918 589.778C215.348 584.384 216.589 582.815 222.645 584.18L224.266 586.273C223.291 586.045 222.935 585.961 221.943 585.878C223.037 589.347 230.191 591.984 225.409 600.351C223.624 603.475 220.669 605.798 217.043 603.275C212.332 598.408 212.925 596.623 212.918 589.778Z"/><path fill="#234493" transform="scale(1.02124 1.02124)" d="M216.533 589.057C223.038 588.847 224.051 593.599 222.029 598.889C219.433 599.049 217.702 599.472 216.303 596.861C215.242 594.883 215.81 591.027 216.533 589.057Z"/><path fill="#446ED2" transform="scale(1.02124 1.02124)" d="M217.135 591.267C219.233 592.267 219.223 596.448 219.507 598.616C216.174 597.668 216.989 594.038 217.135 591.267Z"/><path fill="#86A1E2" transform="scale(1.02124 1.02124)" d="M217.242 589.79C221.891 589.743 221.709 593.372 221.344 596.932C218.36 595.142 221.833 593.799 217.242 589.79Z"/><path fill="#234493" transform="scale(1.02124 1.02124)" d="M220.101 587.408C222.943 587.949 224.87 590.435 225.205 593.299C225.693 597.476 224.969 598.373 222.464 601.604C219.627 601.27 218.01 601.143 215.236 600.281C215.163 599.32 215.157 599.025 215.17 598.092C223.565 605.951 228.396 593.564 220.101 587.408Z"/><path fill="#1F306B" transform="scale(1.02124 1.02124)" d="M222.645 584.18C225.821 584.939 228.031 588.542 227.361 591.752C226.666 589.838 226.009 587.312 224.266 586.273L222.645 584.18Z"/><path fill="#2E50A9" transform="scale(1.02124 1.02124)" d="M9.39923 371.476C25.6746 340.122 68.1261 303.221 101.807 293.462C133.524 284.273 159.229 284.879 188.732 300.693C200.375 306.934 218.887 319.052 225.105 330.785C217.773 327.405 213.914 324.442 205.659 321.466C176.295 310.882 144.977 313.093 116.075 323.889C88.2893 334.269 69.3045 346.113 56.2311 374.019C45.391 397.158 43.0373 426.617 51.921 450.72C61.7865 477.487 83.0732 500.193 104.348 518.701L102.486 520.395C98.6268 518.877 92.7819 515.117 89.0403 512.921C51.9368 491.138 -6.64061 416.054 9.39923 371.476Z"/><path fill="#86A1E2" transform="scale(1.02124 1.02124)" d="M113.921 310.198C118.569 309.687 125.337 310.1 130.118 310.306C107.688 314.165 90.8439 327.336 72.211 339.741C69.1201 341.835 65.815 343.833 62.6359 345.813C74.5106 326.97 91.2115 312.624 113.921 310.198Z"/><path fill="#234493" transform="scale(1.02124 1.02124)" d="M222 285.68C222.026 281.716 221.597 276.305 221.732 272.844C222.99 277.287 223.899 281.182 222 285.68Z"/><path fill="#86A1E2" transform="scale(1.02124 1.02124)" d="M764.684 0L788.294 0L864.902 0L907.301 0L977.329 0L1024 0L1024 324.284L1024 836.675L859.955 836.541C837.58 836.531 812.117 835.921 790 836.575L790.05 754.378C790.058 744.815 789.503 719.521 790.558 711.165C787.42 700.078 790.954 674.459 789.562 663.567C788.153 652.541 791.953 585.936 789.21 579.817C786.314 575.654 760.703 549.532 756.619 546.079C748.015 546.054 739.529 546.323 730.949 546.396L729.002 546.675L729.866 547.157C726.984 547.894 709.708 547.464 705.603 547.609C701.759 547.984 694.407 548.19 690.47 547.948C681.731 547.672 671.727 547.893 662.884 547.872C653.253 547.937 643.25 548.142 633.657 547.766C634.041 547.759 635.034 547.594 635.453 547.535L635.859 546.79L635.498 545.64C636.068 540.438 638.621 530.497 639.911 525.12C643.356 511.058 646.918 497.024 650.596 483.021C661.447 440.282 672.633 397.629 684.154 355.067C703.399 283.134 724.747 211.065 740.612 138.378C745.155 117.816 749.217 97.1502 752.797 76.3987C757.063 51.0752 760.511 25.4244 764.684 0Z"/><path fill="#86A1E2" transform="scale(1.02124 1.02124)" d="M764.684 0L788.294 0L864.902 0C865.353 23.4059 865.497 46.8166 865.333 70.2263C864.796 92.8927 863.843 115.547 862.475 138.179C859.123 192.484 852.771 248.376 848.315 302.751C843.641 359.783 843.51 418.082 838.161 474.626C832.95 531.476 823.311 587.832 809.331 643.182C803.758 665.639 796.805 688.845 790.558 711.165C787.42 700.078 790.954 674.459 789.562 663.567C788.153 652.541 791.953 585.936 789.21 579.817C786.314 575.654 760.703 549.532 756.619 546.079C748.015 546.054 739.529 546.323 730.949 546.396L729.002 546.675L729.866 547.157C726.984 547.894 709.708 547.464 705.603 547.609C701.759 547.984 694.407 548.19 690.47 547.948C681.731 547.672 671.727 547.893 662.884 547.872C653.253 547.937 643.25 548.142 633.657 547.766C634.041 547.759 635.034 547.594 635.453 547.535L635.859 546.79L635.498 545.64C636.068 540.438 638.621 530.497 639.911 525.12C643.356 511.058 646.918 497.024 650.596 483.021C661.447 440.282 672.633 397.629 684.154 355.067C703.399 283.134 724.747 211.065 740.612 138.378C745.155 117.816 749.217 97.1502 752.797 76.3987C757.063 51.0752 760.511 25.4244 764.684 0Z"/><path fill="#2E50A9" transform="scale(1.02124 1.02124)" d="M695.715 547.485C707.5 506.602 718.87 465.602 729.825 424.489C743.943 374.323 757.585 324.024 770.751 273.6C779.306 239.375 787.486 205.058 795.291 170.654C805.297 126.426 813.03 81.7761 819.924 36.989C820.726 31.7788 821.121 23.5821 822.527 18.857L823.031 18.9646L823.356 21.4166C823.882 27.9716 824.578 34.8168 824.555 41.371C825.77 50.7414 826.017 68.2843 826.085 77.7492C826.207 92.395 826.233 107.041 826.163 121.688C826.175 217.502 811.703 312.767 783.238 404.255C774.019 433.598 762.909 462.291 751.909 491.004C744.893 509.318 738.446 528.334 730.949 546.396L729.002 546.675L729.866 547.157C726.984 547.894 709.708 547.464 705.603 547.609C702.307 547.594 699.011 547.553 695.715 547.485Z"/><path fill="#234493" transform="scale(1.02124 1.02124)" d="M823.356 21.4166C823.882 27.9716 824.578 34.8168 824.555 41.371C824.456 42.7639 824.335 44.1553 824.194 45.5447C822.423 41.3701 822.502 25.6936 823.356 21.4166Z"/><path fill="#2E50A9" transform="scale(1.02124 1.02124)" d="M764.684 0L788.294 0C785.932 9.67822 784.022 20.2437 781.995 30.0836C778.172 48.6515 774.117 67.1711 769.833 85.638C756.369 140.251 742.622 194.794 728.592 249.264C718.833 289.206 709.301 329.202 699.996 369.252C691.173 408.368 682.756 447.576 674.748 486.867C670.766 506.907 667.222 527.453 663.174 547.341L662.884 547.872C653.253 547.937 643.25 548.142 633.657 547.766C634.041 547.759 635.034 547.594 635.453 547.535L635.859 546.79L635.498 545.64C636.068 540.438 638.621 530.497 639.911 525.12C643.356 511.058 646.918 497.024 650.596 483.021C661.447 440.282 672.633 397.629 684.154 355.067C703.399 283.134 724.747 211.065 740.612 138.378C745.155 117.816 749.217 97.1502 752.797 76.3987C757.063 51.0752 760.511 25.4244 764.684 0Z"/><path fill="#2E50A9" transform="scale(1.02124 1.02124)" d="M663.174 547.341C666.747 546.822 690.013 546.712 693.599 547.311C692.413 547.875 691.785 547.824 690.47 547.948C681.731 547.672 671.727 547.893 662.884 547.872L663.174 547.341Z"/><path fill="#2E50A9" transform="scale(1.02124 1.02124)" d="M864.902 0L907.301 0L907.12 0.560775C904.903 7.24856 901.601 14.298 898.988 20.8906C891.27 40.3703 884.38 59.5545 879.895 80.0518C874.4 105.162 875.2 130.609 875.973 156.142C876.386 175.195 876.737 193.927 878.895 212.943C882.131 209.674 885.281 206.19 887.942 202.438C923.754 151.946 940.507 89.6639 958.138 31.3873C958.167 47.693 953.962 68.1959 949.772 84.0048C926.3 172.564 886.635 254.699 866.079 344.411C869.756 340.052 873.311 333.502 876.215 328.494L891.336 302.055C901.312 284.821 913.116 266.791 924.898 250.434C937.499 232.939 954.376 208.681 976.759 204.084C979.353 203.551 982.227 204.963 982.987 207.639C981.513 212.386 976.832 217.473 973.745 221.412C967.132 229.85 960.392 238.768 954.856 247.945C930.911 287.799 910.309 329.569 893.263 372.826C885.411 392.749 876.97 415.877 873.548 437.108C899.189 407.857 923.597 363.728 960.591 348.041C968.176 344.825 975.634 343.986 983.761 343.346C970.07 356.036 956.434 368.748 943.855 382.531C918.607 410.196 895.546 439.657 872.6 469.214C868.246 474.823 862.3 480.697 862.01 488.259C861.844 492.539 863.46 496.696 866.472 499.74C872.868 506.322 881.19 508.131 890.029 508.085C897.639 508.045 905.011 506.736 912.323 504.69C925.332 501.05 945.218 490.145 956.733 501.525C960.129 504.88 961.868 509.224 961.729 513.997C961.166 533.381 920.457 572.307 907.008 586.945C899.092 595.579 891.458 604.468 884.121 613.6C870.039 631.365 856.226 652.023 850.64 674.267C842.071 708.389 857.098 738.345 860.049 772.336C862.091 795.867 861.084 813.22 859.955 836.541C837.58 836.531 812.117 835.921 790 836.575L790.05 754.378C790.058 744.815 789.503 719.521 790.558 711.165C796.805 688.845 803.758 665.639 809.331 643.182C823.311 587.832 832.95 531.476 838.161 474.626C843.51 418.082 843.641 359.783 848.315 302.751C852.771 248.376 859.123 192.484 862.475 138.179C863.843 115.547 864.796 92.8927 865.333 70.2263C865.497 46.8166 865.353 23.4059 864.902 1.42109e-14L864.902 0Z"/><path fill="#B8C8EE" transform="scale(1.02124 1.02124)" d="M977.329 0L1024 0L1024 324.284C1023.07 321.194 1022.28 315.288 1021.74 311.877C1020.38 303.142 1019.09 294.396 1017.89 285.637L1008.31 221.002C1001.1 172.39 994.196 123.732 987.604 75.0313C983.989 50.0473 980.564 25.0361 977.329 -1.13687e-13L977.329 0Z"/><path fill="#1F306B" transform="scale(1.02124 1.02124)" d="M90.7917 835.465C93.904 836.424 125.306 836.008 130.437 836.004L232.915 836.009L232.988 861.526C233 864.652 232.886 872.44 233.395 875.263L233.383 989.446C277.99 989.119 322.598 989.034 367.206 989.194L624.586 989.185L733.239 989.393L768.087 989.478C773.966 989.489 779.97 989.552 785.85 989.399C787.275 989.362 788.035 988.735 789.068 987.835C790.633 982.045 790.023 946.597 790.018 938.898L790 836.575C812.117 835.921 837.58 836.531 859.955 836.541L1024 836.675L1024 1024L0 1024L0 835.671C8.29047 835.78 89.3773 836.357 90.7917 835.465Z"/><path fill="#2E50A9" transform="scale(1.02124 1.02124)" d="M730.949 546.396C739.529 546.323 748.015 546.054 756.619 546.079C760.703 549.532 786.314 575.654 789.21 579.817C791.953 585.936 788.153 652.541 789.562 663.567C790.954 674.459 787.42 700.078 790.558 711.165C789.503 719.521 790.058 744.815 790.05 754.378L790 836.575L790.018 938.898C790.023 946.597 790.633 982.045 789.068 987.835C788.035 988.735 787.275 989.362 785.85 989.399C779.97 989.552 773.966 989.489 768.087 989.478L733.239 989.393L624.586 989.185L367.206 989.194C322.598 989.034 277.99 989.119 233.383 989.446L233.395 875.263C233.772 867.407 233.491 857.215 233.455 849.24C233.244 831.402 233.132 813.563 233.12 795.724L233.088 621.019C232.068 620.163 231.635 619.939 230.989 618.778L231.614 618.478C232.424 617.326 232.097 615.603 232.039 614.066L232.986 611.172C233.238 600.343 233.064 588.849 233.062 577.966C242.391 571.785 263.527 560.246 274.021 555.025C285.995 559.827 304.137 566.091 316.695 569.472C323.155 571.271 329.806 572.293 336.508 572.516C356.924 573.127 401.216 567.528 421.514 562.132C426.542 560.795 442.442 551.403 447.83 548.318C453.916 548.001 461.098 547.683 467.2 547.9C472.413 561.883 479.91 570.036 495.143 572.767C495.138 574.837 494.989 578.566 495.432 580.438L495.926 580.491C496.114 582.505 496.075 586.372 496.315 587.882L507.676 587.942L512.083 587.997L512.161 588.321C506.084 588.326 500.006 588.297 493.929 588.234C493.955 590.955 493.581 603.68 494.629 605.531L495.71 606.207C489.568 605.593 478.325 605.959 471.803 605.965L424.879 605.973C372.58 605.551 320.278 605.562 267.979 606.006C267.996 618.199 267.893 630.392 267.667 642.583C265.226 642.546 261.911 642.342 259.596 642.806L259.918 643.095C259.952 644.874 260.09 647.254 259.898 648.964C259.335 651.862 259.504 654.548 259.48 657.481C259.366 671.5 258.984 685.472 259.074 699.495C258.949 701.668 258.598 703.177 259.623 705.028C263.147 707.399 265.976 703.898 268.68 707.462L268.974 707.564C268.754 748.199 268.763 788.835 269.002 829.47C266.159 829.517 261.802 829.468 259.096 829.739C258.912 843.925 258.444 869.266 259.332 883.031C261.983 883.091 265.929 882.743 267.96 883.872C268.828 885.561 268.717 885.826 268.352 888.07L268.643 890.312C269.265 893.005 269.062 907.389 269.062 910.805L269.037 957.093C316.529 956.365 365.951 956.988 413.577 956.912L755.359 956.552C756.185 915.224 755.095 870.888 755.034 829.364L755.275 606.011L586.673 606.057L547.292 606.061C543.411 606.06 530.854 606.346 527.815 605.589C528.392 603.592 528.36 591.228 527.593 589.271C526.761 588.982 526.038 588.719 525.223 588.389C525.263 585.602 525.439 582.858 525.6 580.078L525.641 573.163C529.175 573.123 536.489 573.266 539.628 572.552C539.556 567.111 539.612 561.669 539.797 556.23C542.598 553.098 544.212 550.953 546.673 547.519L633.657 547.766C643.25 548.142 653.253 547.937 662.884 547.872C671.727 547.893 681.731 547.672 690.47 547.948C694.407 548.19 701.759 547.984 705.603 547.609C709.708 547.464 726.984 547.894 729.866 547.157L729.002 546.675L730.949 546.396Z"/><path fill="#A7BBEA" transform="scale(1.02124 1.02124)" d="M730.949 546.396C739.529 546.323 748.015 546.054 756.619 546.079C760.703 549.532 786.314 575.654 789.21 579.817C791.953 585.936 788.153 652.541 789.562 663.567C790.954 674.459 787.42 700.078 790.558 711.165C789.503 719.521 790.058 744.815 790.05 754.378L790 836.575L790.018 938.898C790.023 946.597 790.633 982.045 789.068 987.835C788.035 988.735 787.275 989.362 785.85 989.399C779.97 989.552 773.966 989.489 768.087 989.478L733.239 989.393L624.586 989.185L367.206 989.194C322.598 989.034 277.99 989.119 233.383 989.446L233.395 875.263C233.772 867.407 233.491 857.215 233.455 849.24C233.244 831.402 233.132 813.563 233.12 795.724L233.088 621.019C232.068 620.163 231.635 619.939 230.989 618.778L231.614 618.478C232.424 617.326 232.097 615.603 232.039 614.066L232.986 611.172C233.238 600.343 233.064 588.849 233.062 577.966C242.391 571.785 263.527 560.246 274.021 555.025C285.995 559.827 304.137 566.091 316.695 569.472C323.155 571.271 329.806 572.293 336.508 572.516C356.924 573.127 401.216 567.528 421.514 562.132C426.542 560.795 442.442 551.403 447.83 548.318C453.916 548.001 461.098 547.683 467.2 547.9C472.413 561.883 479.91 570.036 495.143 572.767C495.138 574.837 494.989 578.566 495.432 580.438C410.252 581.416 325.064 581.601 239.88 580.991L239.511 983.025L781.956 982.991L782.016 580.018C719.661 580.974 655.548 580.14 593.027 580.279L546.745 580.38C543.568 580.389 527.792 580.712 525.6 580.078L525.641 573.163C529.175 573.123 536.489 573.266 539.628 572.552C539.556 567.111 539.612 561.669 539.797 556.23C542.598 553.098 544.212 550.953 546.673 547.519L633.657 547.766C643.25 548.142 653.253 547.937 662.884 547.872C671.727 547.893 681.731 547.672 690.47 547.948C694.407 548.19 701.759 547.984 705.603 547.609C709.708 547.464 726.984 547.894 729.866 547.157L729.002 546.675L730.949 546.396Z"/><path fill="#1F306B" transform="scale(1.02124 1.02124)" d="M730.949 546.396C739.529 546.323 748.015 546.054 756.619 546.079C760.703 549.532 786.314 575.654 789.21 579.817C785.07 577.604 762.601 552.442 755.898 546.723C747.277 547.065 738.61 546.756 729.866 547.157L729.002 546.675L730.949 546.396Z"/><path fill="#234493" transform="scale(1.02124 1.02124)" d="M232.039 614.066L232.986 611.172L233.088 621.019C232.068 620.163 231.635 619.939 230.989 618.778L231.614 618.478C232.424 617.326 232.097 615.603 232.039 614.066Z"/><path fill="#86A1E2" transform="scale(1.02124 1.02124)" d="M525.061 699.85C547.469 704.974 564.247 716.496 576.529 736.166C582.634 745.761 586.349 756.68 587.362 768.008C587.577 773.409 587.605 777.051 587.383 782.485C579.898 843.419 513.17 872.593 464.773 833.35C450.186 821.522 438.612 800.995 437.14 782.121C436.766 774.607 437.005 769.76 437.672 762.388C441.032 735.709 460.958 713.237 485.452 703.393C488.108 702.326 491.309 701.169 494.134 700.754C496.155 700.919 499.288 700.636 501.383 700.453C509.272 699.762 517.185 700.23 525.061 699.85Z"/><path fill="#446ED2" transform="scale(1.02124 1.02124)" d="M437.672 762.388C438.899 764.126 438.239 780.362 437.14 782.121C436.766 774.607 437.005 769.76 437.672 762.388Z"/><path fill="#446ED2" transform="scale(1.02124 1.02124)" d="M587.362 768.008C587.577 773.409 587.605 777.051 587.383 782.485L586.934 782.348C586.1 780.533 586.053 769.988 587.362 768.008Z"/><defs><linearGradient id="gradient_2" gradientUnits="userSpaceOnUse" x1="525.02881" y1="841.20428" x2="497.47778" y2="710.21313"><stop offset="0" stop-color="#1F388B"/><stop offset="1" stop-color="#304FAD"/></linearGradient></defs><path fill="url(#gradient_2)" transform="scale(1.02124 1.02124)" d="M505.837 707.568C510.188 707.336 513.211 707.204 517.53 708.162C517.783 711.322 518.028 714.278 518.102 717.451C520.125 717.829 523.983 718.42 525.772 719.051C528.664 718.512 530.541 713.483 532.336 710.919C535.987 712.36 539.688 713.879 542.945 716.115C541.526 719.142 539.806 722.584 538.705 725.69C541.961 727.468 545.007 729.711 548.829 731.775C551.028 728.357 552.262 727.18 555.086 724.343C558.21 727.282 560.681 729.858 563.606 733.007C561.657 735.401 559.375 737.434 557.134 739.566C559.363 743.238 561.953 746.683 564.477 750.16L571.227 746.47C573.69 750.415 574.591 754.179 575.772 758.613L569.225 760.371C569.966 765.365 570.763 770.239 571.085 775.284C574.067 775.416 575.675 775.716 578.554 776.245C578.435 784.077 579.489 787.484 570.494 786.498C569.289 790.274 567.844 794.192 566.527 797.948C568.72 800.01 570.83 801.409 573.273 803.142C571.818 807.279 570.886 808.865 568.624 812.527L560.827 809.784L552.161 819.111C553.804 821.525 555.707 824.05 557.436 826.429C554.204 829.111 552.111 830.806 548.62 833.088C546.13 831.208 543.461 828.178 541.269 825.85C536.642 828.503 534.41 829.635 529.42 831.421C530.478 834.756 531.11 837.061 531.863 840.475C522.515 843.427 521.035 844.343 519.87 833.939C514.867 834.039 509.647 833.93 504.627 833.897C504.019 836.118 503.411 839.867 502.958 842.25C498.723 841.945 496.561 841.347 492.616 840.086C493.104 837.196 493.982 834.075 494.707 831.211C490.251 829.399 486.593 827.724 482.263 825.659C480.046 828.311 477.856 830.986 475.694 833.683C472.258 831.756 469.37 829.466 466.433 826.874C467.91 824.132 470.239 820.687 471.957 817.991C468.791 814.919 465.82 811.889 463.263 808.291C460.944 809.97 458.943 811.303 456.544 812.84C452.61 808.709 451.909 807.238 450.012 802.038C452.518 800.593 455.053 799.592 457.709 798.454C455.574 794.416 453.912 789.351 452.456 784.995L445.581 785.681C444.847 781.29 444.85 777.955 444.832 773.51L452.107 773.525C452.749 768.718 453.244 765.173 454.331 760.413C453.411 760.022 452.499 759.613 451.595 759.186C445.173 756.111 449.06 750.971 451.521 746.674C454.221 747.873 456.526 748.672 459.308 749.645C461.718 746.896 463.984 743.872 465.618 740.598C463.679 737.347 462.398 735.815 459.968 732.872C462.953 729.141 465.279 727.007 468.716 723.728C471.185 726.551 472.654 728.014 475.437 730.537C478.123 729.398 482.176 727.273 484.489 725.534C483.862 722.597 482.32 718.671 481.272 715.751C484.387 713.649 487.133 712.554 490.559 711.035C492.362 713.15 494.95 717.184 496.604 719.61C499.927 718.288 502.948 717.803 505.878 716.674L505.837 707.568Z"/><path fill="#234493" transform="scale(1.02124 1.02124)" d="M481.272 715.751C484.387 713.649 487.133 712.554 490.559 711.035C492.362 713.15 494.95 717.184 496.604 719.61L496.952 719.868C494.639 720.684 491.875 721.689 489.724 722.887C487.878 723.916 486.62 725.385 484.571 726.153L484.489 725.534C483.862 722.597 482.32 718.671 481.272 715.751Z"/><path fill="#234493" transform="scale(1.02124 1.02124)" d="M532.336 710.919C535.987 712.36 539.688 713.879 542.945 716.115C541.526 719.142 539.806 722.584 538.705 725.69C533.955 723.521 534.1 720.834 526.835 719.69L526.015 719.565L525.772 719.051C528.664 718.512 530.541 713.483 532.336 710.919Z"/><path fill="#1F306B" transform="scale(1.02124 1.02124)" d="M511.411 826.596C488.303 826.368 468.298 810.486 462.834 788.032C457.371 765.579 467.843 742.281 488.262 731.461C508.682 720.641 533.84 725.059 549.351 742.189C564.862 759.319 566.769 784.791 553.981 804.04C552.308 806.558 550.412 808.922 548.316 811.101C543.842 815.753 538.518 819.504 532.633 822.152C527.837 824.31 522.734 825.705 517.508 826.288C515.484 826.513 513.448 826.617 511.411 826.596Z"/><path fill="#234493" transform="scale(1.02124 1.02124)" d="M469.261 801.421C471.886 802.881 476.135 807.653 478.8 809.549C483.631 812.987 490.323 815.972 495.548 818.504C515.522 828.182 538.978 817.145 551.136 800.373C553.445 797.187 556.019 792.387 557.994 788.743C558.58 788.507 559.166 788.271 559.752 788.035C558.173 793.717 556.46 798.632 553.392 803.732L553.981 804.04C552.308 806.558 550.412 808.922 548.316 811.101C543.842 815.753 538.518 819.504 532.633 822.152C527.837 824.31 522.734 825.705 517.508 826.288C515.484 826.513 513.448 826.617 511.411 826.596L511.322 825.994C494.336 824.825 477.581 816.832 469.261 801.421Z"/><path fill="#2E50A9" transform="scale(1.02124 1.02124)" d="M517.508 826.288C517.488 825.865 517.483 826.165 517.585 825.242C519.743 824.735 531.789 821.849 532.633 822.152C527.837 824.31 522.734 825.705 517.508 826.288Z"/><path fill="#A39EBB" transform="scale(1.02124 1.02124)" d="M553.392 803.732L553.981 804.04C552.308 806.558 550.412 808.922 548.316 811.101L553.392 803.732Z"/><path fill="white" transform="scale(1.02124 1.02124)" d="M511.411 826.596C488.303 826.368 468.298 810.486 462.834 788.032C457.371 765.579 467.843 742.281 488.262 731.461C508.682 720.641 533.84 725.059 549.351 742.189C564.862 759.319 566.769 784.791 553.981 804.04L553.392 803.732C556.46 798.632 558.173 793.717 559.752 788.035C562.518 774.162 560.813 761.346 552.92 749.4C545.693 738.367 534.315 730.721 521.369 728.2C495.416 722.927 468.382 739.842 464.039 766.355C462.076 778.342 462.368 790.993 469.261 801.421C477.581 816.832 494.336 824.825 511.322 825.994L511.411 826.596Z"/><path fill="#A7BBEA" transform="scale(1.02124 1.02124)" d="M470.147 784.443L469.202 784.313L468.926 784.649C466.881 782.362 467.685 778.291 467.808 775.284C469.401 736.121 522.997 724.951 546.937 751.666C557.527 763.484 556.57 775.703 555.77 790.495L555.259 791.119C554.29 790.007 554.202 789.84 553.466 788.549C551.809 795.99 547.264 802.835 541.729 807.98C532.876 816.139 521.157 820.47 509.125 820.029C492.6 819.34 478.907 808.696 471.929 794.053C470.368 790.778 469.957 788.01 470.147 784.443Z"/><defs><linearGradient id="gradient_3" gradientUnits="userSpaceOnUse" x1="511.13684" y1="786.63733" x2="514.82538" y2="737.68542"><stop offset="0" stop-color="#1A2B79"/><stop offset="1" stop-color="#304890"/></linearGradient></defs><path fill="url(#gradient_3)" transform="scale(1.02124 1.02124)" d="M470.147 784.443L469.202 784.313L468.926 784.649C466.881 782.362 467.685 778.291 467.808 775.284C469.401 736.121 522.997 724.951 546.937 751.666C557.527 763.484 556.57 775.703 555.77 790.495L555.259 791.119C554.29 790.007 554.202 789.84 553.466 788.549C550.8 774.451 543.278 766.873 529.955 762.068C516.299 757.17 501.259 757.871 488.117 764.018C478.096 768.795 473.728 774.196 470.147 784.443Z"/><path fill="#2E50A9" transform="scale(1.02124 1.02124)" d="M259.918 643.095L259.596 642.806C261.911 642.342 265.226 642.546 267.667 642.583C278.741 644.035 292.866 640.403 300.832 645.801C299.056 646.317 299.907 646.371 298.194 645.59C297.409 654.481 298.278 666.687 297.966 675.886C297.879 678.474 297.944 691.772 298.245 693.358C299.014 692.097 298.872 691.987 298.947 690.467L298.635 689.776L298.363 689.951C300.219 692.929 300.004 698.028 296.361 699.649C291.751 701.701 272.267 698.182 269.255 700.597C268.947 702.365 269.241 703.413 269.806 705.121L269.164 706.965L268.974 707.564L268.68 707.462C265.976 703.898 263.147 707.399 259.623 705.028C258.598 703.177 258.949 701.668 259.074 699.495C258.984 685.472 259.366 671.5 259.48 657.481C259.504 654.548 259.335 651.862 259.898 648.964C260.09 647.254 259.952 644.874 259.918 643.095Z"/><path fill="#86A1E2" transform="scale(1.02124 1.02124)" d="M259.918 643.095L259.596 642.806C261.911 642.342 265.226 642.546 267.667 642.583C278.741 644.035 292.866 640.403 300.832 645.801C299.056 646.317 299.907 646.371 298.194 645.59L297.359 644.641C294.416 643.36 275.953 643.811 271.856 644.038L271.107 645.082L270.982 699.064C277.589 699.085 288.368 698.746 294.649 699.169C295.938 698.946 296.081 698.779 297.267 698.173C298.369 696.665 298.17 695.279 298.245 693.358C299.014 692.097 298.872 691.987 298.947 690.467L298.635 689.776L298.363 689.951C300.219 692.929 300.004 698.028 296.361 699.649C291.751 701.701 272.267 698.182 269.255 700.597C268.947 702.365 269.241 703.413 269.806 705.121L269.164 706.965L268.974 707.564L268.68 707.462C265.976 703.898 263.147 707.399 259.623 705.028C258.598 703.177 258.949 701.668 259.074 699.495C258.984 685.472 259.366 671.5 259.48 657.481C259.504 654.548 259.335 651.862 259.898 648.964C260.09 647.254 259.952 644.874 259.918 643.095Z"/><path fill="#1F306B" transform="scale(1.02124 1.02124)" d="M259.918 643.095L259.596 642.806C261.911 642.342 265.226 642.546 267.667 642.583C278.741 644.035 292.866 640.403 300.832 645.801C299.056 646.317 299.907 646.371 298.194 645.59L297.359 644.641C294.416 643.36 275.953 643.811 271.856 644.038L271.107 645.082L270.982 699.064C277.589 699.085 288.368 698.746 294.649 699.169C295.938 698.946 296.081 698.779 297.267 698.173C298.369 696.665 298.17 695.279 298.245 693.358C299.014 692.097 298.872 691.987 298.947 690.467L298.635 689.776L298.363 689.951C300.219 692.929 300.004 698.028 296.361 699.649C291.751 701.701 272.267 698.182 269.255 700.597C268.947 702.365 269.241 703.413 269.806 705.121L269.164 706.965L268.974 707.564L268.68 707.462C265.976 703.898 263.147 707.399 259.623 705.028C258.598 703.177 258.949 701.668 259.074 699.495C258.984 685.472 259.366 671.5 259.48 657.481C259.504 654.548 259.335 651.862 259.898 648.964C260.187 665.407 259.965 682.487 259.977 698.98L269.901 699.064L269.935 643.483C266.593 643.422 263.254 643.293 259.918 643.095Z"/><path fill="#234493" transform="scale(1.02124 1.02124)" d="M259.074 699.495C261.018 700.482 264.326 700.075 266.458 699.703C269.01 701.698 268.177 704.649 268.68 707.462C265.976 703.898 263.147 707.399 259.623 705.028C258.598 703.177 258.949 701.668 259.074 699.495Z"/><path fill="#86A1E2" transform="scale(1.02124 1.02124)" d="M271.107 645.082L271.856 644.038C275.953 643.811 294.416 643.36 297.359 644.641L298.194 645.59C297.409 654.481 298.278 666.687 297.966 675.886C297.879 678.474 297.944 691.772 298.245 693.358C298.17 695.279 298.369 696.665 297.267 698.173C296.081 698.779 295.938 698.946 294.649 699.169C293.819 683.028 294.704 662.623 294.241 645.546C290.382 645.51 273.843 646.031 271.107 645.082Z"/><path fill="#2E50A9" transform="scale(1.02124 1.02124)" d="M269.002 829.47C275.166 829.555 295.935 828.419 299.504 832.199L298.299 832.421C297.673 836.352 297.913 845.937 297.921 850.268L297.991 882.098L298.138 882.791C294.325 884.03 270.962 882.426 270.171 884.367C269.7 885.521 269.741 886.791 269.691 888.02L268.352 888.07C268.717 885.826 268.828 885.561 267.96 883.872C265.929 882.743 261.983 883.091 259.332 883.031C258.444 869.266 258.912 843.925 259.096 829.739C261.802 829.468 266.159 829.517 269.002 829.47Z"/><path fill="#1F306B" transform="scale(1.02124 1.02124)" d="M269.002 829.47C275.166 829.555 295.935 828.419 299.504 832.199L298.299 832.421C297.321 831.473 297.385 831.548 296.051 831.223C294.748 832.591 295.531 832.062 293.44 832.553C288.104 831.976 276.203 832.726 271.915 831.551C271.705 848.492 271.643 865.435 271.73 882.378C278.791 882.374 287.102 882.558 294.052 882.151L297.991 882.098L298.138 882.791C294.325 884.03 270.962 882.426 270.171 884.367C269.7 885.521 269.741 886.791 269.691 888.02L268.352 888.07C268.717 885.826 268.828 885.561 267.96 883.872C265.929 882.743 261.983 883.091 259.332 883.031C258.444 869.266 258.912 843.925 259.096 829.739C261.802 829.468 266.159 829.517 269.002 829.47Z"/><path fill="#A7BBEA" transform="scale(1.02124 1.02124)" d="M271.915 831.551C274.219 830.2 292.595 830.832 296.051 831.223C294.748 832.591 295.531 832.062 293.44 832.553C288.104 831.976 276.203 832.726 271.915 831.551Z"/><path fill="#86A1E2" transform="scale(1.02124 1.02124)" d="M259.979 830.435C263.71 830.231 267.223 830.388 270.952 830.502C270.247 834.651 270.483 844.406 270.481 849.03L270.483 881.789C267.455 881.941 263.113 881.803 259.983 881.801L259.979 830.435Z"/><path fill="#446ED2" transform="scale(1.02124 1.02124)" d="M296.051 831.223C297.385 831.548 297.321 831.473 298.299 832.421C297.673 836.352 297.913 845.937 297.921 850.268L297.991 882.098L294.052 882.151C294.031 875.179 296.033 835.916 293.44 832.553C295.531 832.062 294.748 832.591 296.051 831.223Z"/><path fill="#2E50A9" transform="scale(1.02124 1.02124)" d="M269.806 705.121C273.272 704.681 296.269 704.458 298.573 705.685C297.475 708.246 302.689 719.259 293.831 722.39C274.59 729.193 274.479 712.028 269.164 706.965L269.806 705.121Z"/><path fill="#2E50A9" transform="scale(1.02124 1.02124)" d="M269.691 888.02C274.442 888.224 295.811 887.584 298.204 888.3C298.154 891.069 299.531 893.904 299.388 896.503C299.046 902.712 293.406 907.816 287.355 907.949C283.991 908 280.76 906.636 278.451 904.189C274.541 900.093 274.789 896.163 274.868 891.022C272.791 890.798 270.716 890.561 268.643 890.312L268.352 888.07L269.691 888.02Z"/><path fill="#234493" transform="scale(1.02124 1.02124)" d="M300.832 645.801C301.777 646.762 302.052 646.764 302.099 648.307C302.579 664.219 302.332 680.186 302.381 696.111C302.394 700.353 302.554 703.281 298.573 705.685C296.269 704.458 273.272 704.681 269.806 705.121C269.241 703.413 268.947 702.365 269.255 700.597C272.267 698.182 291.751 701.701 296.361 699.649C300.004 698.028 300.219 692.929 298.363 689.951L298.635 689.776L298.947 690.467C298.872 691.987 299.014 692.097 298.245 693.358C297.944 691.772 297.879 678.474 297.966 675.886C298.278 666.687 297.409 654.481 298.194 645.59C299.907 646.371 299.056 646.317 300.832 645.801Z"/><defs><linearGradient id="gradient_4" gradientUnits="userSpaceOnUse" x1="493.27554" y1="668.0542" x2="504.19693" y2="669.20673"><stop offset="0" stop-color="#2947AA"/><stop offset="1" stop-color="#5371C5"/></linearGradient></defs><path fill="url(#gradient_4)" transform="scale(1.02124 1.02124)" d="M495.685 634.887L496.142 634.684C498.182 637.634 497.24 646.533 498.074 650.774C498.6 647.722 499.085 638.886 499.797 636.816C500.455 650.48 500.817 664.316 501.975 677.945C502.3 681.767 501.857 696.913 502.472 698.829C503.94 698.89 505.059 698.643 505.866 699.458C502.344 699.705 499.564 700.002 496.066 700.493C496.426 692.907 496.581 676.185 495.58 668.871C495.777 666.967 495.712 662.915 495.731 660.842L495.373 660.398L494.678 660.675C494.028 660.434 493.12 659.866 492.486 659.507C491.689 657.612 491.602 656.678 491.231 654.627C492.376 653.709 493.496 653.13 494.764 652.405L494.866 652.339L494.924 651.359L495.839 651.101C495.97 646.269 496.049 640.282 495.694 635.538L495.685 634.887Z"/><path fill="#86A1E2" transform="scale(1.02124 1.02124)" d="M494.764 652.405L494.866 652.339L494.924 651.359L495.839 651.101C495.843 653.296 495.982 658.938 495.731 660.842L495.373 660.398L494.678 660.675C494.028 660.434 493.12 659.866 492.486 659.507C491.689 657.612 491.602 656.678 491.231 654.627C492.376 653.709 493.496 653.13 494.764 652.405Z"/><path fill="#234493" transform="scale(1.02124 1.02124)" d="M299.504 832.199C300.653 833.582 301.036 834.072 301.953 835.606L302.056 867.533C302.073 873.736 303.797 884.85 298.204 888.3C295.811 887.584 274.442 888.224 269.691 888.02C269.741 886.791 269.7 885.521 270.171 884.367C270.962 882.426 294.325 884.03 298.138 882.791L297.991 882.098L297.921 850.268C297.913 845.937 297.673 836.352 298.299 832.421L299.504 832.199Z"/><path fill="#1F306B" transform="scale(1.02124 1.02124)" d="M484.275 655.902C487.296 655.908 488.421 655.65 491.231 654.627C491.602 656.678 491.689 657.612 492.486 659.507C493.12 659.866 494.028 660.434 494.678 660.675L495.373 660.398L495.731 660.842C495.712 662.915 495.777 666.967 495.58 668.871L495.117 669.225C493.652 672.507 489.962 675.989 486.078 675.628C484.006 675.429 482.105 674.389 480.821 672.75C478.2 669.458 478.804 666.55 479.393 662.564C480.526 660.129 481.13 659.474 483.79 658.741C483.756 657.609 484.005 657.016 484.275 655.902Z"/><path fill="#234493" transform="scale(1.02124 1.02124)" d="M484.275 655.902C487.296 655.908 488.421 655.65 491.231 654.627C491.602 656.678 491.689 657.612 492.486 659.507C493.12 659.866 494.028 660.434 494.678 660.675L493.9 662.722C490.805 664.079 484.799 658.69 480.085 664.078L479.393 662.564C480.526 660.129 481.13 659.474 483.79 658.741C483.756 657.609 484.005 657.016 484.275 655.902Z"/><path fill="#86A1E2" transform="scale(1.02124 1.02124)" d="M484.275 655.902C487.296 655.908 488.421 655.65 491.231 654.627C491.602 656.678 491.689 657.612 492.486 659.507C489.376 659.343 486.883 659.115 483.79 658.741C483.756 657.609 484.005 657.016 484.275 655.902Z"/><path fill="#86A1E2" transform="scale(1.02124 1.02124)" d="M494.678 660.675L495.373 660.398L495.731 660.842C495.712 662.915 495.777 666.967 495.58 668.871L495.117 669.225C490.884 663.595 488.661 660.883 481.273 664.506L480.778 664.753L480.085 664.078C484.799 658.69 490.805 664.079 493.9 662.722L494.678 660.675Z"/><path fill="#446ED2" transform="scale(1.02124 1.02124)" d="M485.055 663.41C490.58 663.748 491.013 665.114 494.035 669.446C491.894 671.813 491.242 672.646 488.489 674.444C479.948 674.891 475.793 668.263 485.055 663.41Z"/><path fill="#1F306B" transform="scale(1.02124 1.02124)" d="M484.275 655.902C482.289 655.19 482.016 655.204 480.629 653.718C478.598 647.354 489.827 643.835 494.764 652.405C493.496 653.13 492.376 653.709 491.231 654.627C488.421 655.65 487.296 655.908 484.275 655.902Z"/><path fill="#446ED2" transform="scale(1.02124 1.02124)" d="M483.82 648.519C486.839 648.536 491.304 648.293 493.053 651.122C492.357 653.098 492.245 652.673 490.234 654.208C487.282 654.858 481.316 655.521 480.903 651.358C481.872 649.643 482.092 649.611 483.82 648.519Z"/><path fill="#86A1E2" transform="scale(1.02124 1.02124)" d="M580.319 633.885C578.121 633.137 576.227 631.691 574.927 629.768C573.6 627.816 573.094 625.421 573.517 623.098C574.683 616.898 580.473 614.233 586.312 615.691C598.044 622.66 591.345 636.939 580.319 633.885Z"/><path fill="#2E50A9" transform="scale(1.02124 1.02124)" d="M586.312 615.691C598.044 622.66 591.345 636.939 580.319 633.885L580.22 632.477C576.294 630.242 575.27 628.755 574.355 624.368C581.794 629.564 585.301 628.814 591.107 622.317C589.748 619.003 589.051 618.411 585.985 616.493L586.312 615.691Z"/><path fill="#1F306B" transform="scale(1.02124 1.02124)" d="M586.312 615.691C598.044 622.66 591.345 636.939 580.319 633.885L580.22 632.477C586.657 631.495 591.245 629.393 591.107 622.317C589.748 619.003 589.051 618.411 585.985 616.493L586.312 615.691Z"/><path fill="#1F306B" transform="scale(1.02124 1.02124)" d="M580.319 633.885C578.121 633.137 576.227 631.691 574.927 629.768C573.6 627.816 573.094 625.421 573.517 623.098C574.683 616.898 580.473 614.233 586.312 615.691L585.985 616.493C580.031 615.149 574.841 617.988 574.355 624.368C575.27 628.755 576.294 630.242 580.22 632.477L580.319 633.885Z"/><path fill="#86A1E2" transform="scale(1.02124 1.02124)" d="M650.259 630.607C647.303 627.009 647.369 621.805 650.416 618.283C653.462 614.762 658.603 613.948 662.589 616.356C666.574 618.764 668.245 623.693 666.545 628.028C665.307 631.185 662.489 633.45 659.14 633.98C655.791 634.51 652.412 633.227 650.259 630.607Z"/><path fill="#234493" transform="scale(1.02124 1.02124)" d="M665.397 621.847C665.741 623.888 666.046 625.29 666.047 627.349L666.545 628.028C665.307 631.185 662.489 633.45 659.14 633.98C655.791 634.51 652.412 633.227 650.259 630.607L650.64 629.079C649.683 625.575 648.878 626.997 649.653 622.583C652.325 629.601 661.696 628.786 665.397 621.847Z"/><path fill="#040826" transform="scale(1.02124 1.02124)" d="M666.047 627.349L666.545 628.028C665.307 631.185 662.489 633.45 659.14 633.98C655.791 634.51 652.412 633.227 650.259 630.607L650.64 629.079C655.829 634.367 662.154 633.68 666.047 627.349Z"/><path fill="#1F306B" transform="scale(1.02124 1.02124)" d="M650.259 630.607C647.303 627.009 647.369 621.805 650.416 618.283C653.462 614.762 658.603 613.948 662.589 616.356C666.574 618.764 668.245 623.693 666.545 628.028L666.047 627.349C666.046 625.29 665.741 623.888 665.397 621.847C663.485 617.131 659.277 614.317 654.216 616.334C652.393 617.081 650.934 618.509 650.148 620.315C649.872 620.964 649.71 621.888 649.653 622.583C648.878 626.997 649.683 625.575 650.64 629.079L650.259 630.607Z"/><path fill="#1F306B" transform="scale(1.02124 1.02124)" d="M728.333 616.518C733.219 614.907 738.488 617.551 740.117 622.431C741.746 627.311 739.121 632.59 734.247 634.236C729.348 635.892 724.036 633.25 722.398 628.345C720.761 623.439 723.422 618.137 728.333 616.518Z"/><path fill="#86A1E2" transform="scale(1.02124 1.02124)" d="M723.324 623.873C723.418 622.67 723.616 621.668 724.185 620.585C725.117 618.843 726.708 617.548 728.603 616.988C733.762 615.469 737.76 618.643 738.824 623.665C741.635 636.363 719.949 635.901 723.324 623.873Z"/><path fill="#234493" transform="scale(1.02124 1.02124)" d="M723.324 623.873C728.069 630.484 733.816 629.227 738.824 623.665C741.635 636.363 719.949 635.901 723.324 623.873Z"/><path fill="#1F306B" transform="scale(1.02124 1.02124)" d="M294.494 616.082C296.427 616.001 297.865 615.942 299.671 616.752C302.083 617.861 303.915 619.936 304.717 622.466C306.661 628.766 303.043 632.525 297.279 634.094C295.294 634.162 293.283 634.35 291.442 633.553C289.322 632.649 287.701 630.868 287 628.672C285.104 622.852 288.838 617.656 294.494 616.082Z"/><path fill="#86A1E2" transform="scale(1.02124 1.02124)" d="M287.782 623.55C291.003 614.425 299.955 614.218 304.071 623.321C304.185 625.351 304.6 628.823 302.963 630.066C295.737 635.554 287.269 633.274 287.782 623.55Z"/><path fill="#234493" transform="scale(1.02124 1.02124)" d="M304.071 623.321C304.185 625.351 304.6 628.823 302.963 630.066C295.737 635.554 287.269 633.274 287.782 623.55C287.879 623.637 287.976 623.724 288.072 623.812L288.563 624.239C294.728 629.683 298.286 628.075 304.071 623.321Z"/><path fill="#1F306B" transform="scale(1.02124 1.02124)" d="M438.216 615.562C450.267 614.874 453.839 628.746 440.758 633.551C429.138 634.032 425.401 621.071 438.216 615.562Z"/><path fill="#86A1E2" transform="scale(1.02124 1.02124)" d="M431.188 623.294C434.66 615.037 442.958 612.869 447.588 621.777C449.762 634.646 431.485 635.652 431.188 623.294Z"/><path fill="#2E50A9" transform="scale(1.02124 1.02124)" d="M447.588 621.777C449.762 634.646 431.485 635.652 431.188 623.294L431.66 623.638C438.212 628.373 442.675 628.677 447.588 621.777Z"/><path fill="#1F306B" transform="scale(1.02124 1.02124)" d="M359.891 616.115C363.122 615.182 366.605 616.092 368.968 618.485C371.332 620.879 372.196 624.373 371.222 627.593C370.248 630.812 367.591 633.241 364.297 633.922C361.605 634.48 358.804 633.801 356.666 632.072C354.528 630.344 353.277 627.748 353.258 624.998C353.229 620.886 355.939 617.256 359.891 616.115Z"/><path fill="#86A1E2" transform="scale(1.02124 1.02124)" d="M354.302 622.922C355.359 621.371 355.613 619.927 357.202 618.764C362.989 614.528 367.142 617.159 370.664 622.181L370.55 622.914C370.132 625.792 371.342 627.277 368.802 629.59C362.941 634.926 352.886 631.79 354.302 622.922Z"/><path fill="#2E50A9" transform="scale(1.02124 1.02124)" d="M370.664 622.181L370.55 622.914C370.132 625.792 371.342 627.277 368.802 629.59C362.941 634.926 352.886 631.79 354.302 622.922L354.754 623.399C360.365 629.194 365.846 628.852 370.664 622.181Z"/><path fill="#86A1E2" transform="scale(1.02124 1.02124)" d="M724.676 667.811C722.781 652.498 742.131 652.958 742.079 665.76C742.073 666.729 741.931 667.693 741.657 668.623C738.654 677.073 728.192 676.516 724.676 667.811Z"/><path fill="#234493" transform="scale(1.02124 1.02124)" d="M739.565 665.172L740.702 664.975C741.302 666.486 741.109 666.527 741.039 668.229L741.657 668.623C738.654 677.073 728.192 676.516 724.676 667.811L725.751 667.754C726.386 666.08 726.19 666.613 725.641 664.523C730.549 669.183 734.207 669.285 739.565 665.172Z"/><path fill="#040826" transform="scale(1.02124 1.02124)" d="M724.676 667.811L725.751 667.754C728.77 675.299 736.892 674.638 741.039 668.229L741.657 668.623C738.654 677.073 728.192 676.516 724.676 667.811Z"/><path fill="#1F306B" transform="scale(1.02124 1.02124)" d="M724.676 667.811C722.781 652.498 742.131 652.958 742.079 665.76C742.073 666.729 741.931 667.693 741.657 668.623L741.039 668.229C741.109 666.527 741.302 666.486 740.702 664.975L739.565 665.172C739.685 664.755 740.001 663.715 740.013 663.245C740.055 661.817 739.576 660.423 738.664 659.324C734.884 654.743 725.691 657.267 725.641 664.523C726.19 666.613 726.386 666.08 725.751 667.754L724.676 667.811Z"/><path fill="#86A1E2" transform="scale(1.02124 1.02124)" d="M286.856 941.666C284.478 935.699 294.576 929.756 300.006 933.026C304.392 935.667 305.427 938.324 304.929 943.147L304.341 944.173C302.95 946.541 301.57 947.916 298.877 948.838C296.461 949.665 293.809 949.451 291.558 948.246C288.743 946.738 287.663 944.592 286.856 941.666Z"/><path fill="#234493" transform="scale(1.02124 1.02124)" d="M286.856 941.666C284.478 935.699 294.576 929.756 300.006 933.026C304.392 935.667 305.427 938.324 304.929 943.147C304.508 940.682 304.461 940.268 303.233 938.112C301.734 935.514 300.562 933.825 297.434 933.087C295.359 932.616 293.181 933.009 291.402 934.176C286.74 937.294 289.162 941.436 293.54 943.202C296.851 944.063 296.446 943.026 299.251 945.061C300.401 945.725 300.449 945.804 301.715 946.142C302.783 944.9 302.765 944.729 304.341 944.173C302.95 946.541 301.57 947.916 298.877 948.838C296.461 949.665 293.809 949.451 291.558 948.246C288.743 946.738 287.663 944.592 286.856 941.666Z"/><path fill="#2E50A9" transform="scale(1.02124 1.02124)" d="M286.856 941.666L287.39 941.618L289.038 944.553C293.474 942.409 293.14 947.639 299.251 945.061C300.401 945.725 300.449 945.804 301.715 946.142C302.783 944.9 302.765 944.729 304.341 944.173C302.95 946.541 301.57 947.916 298.877 948.838C296.461 949.665 293.809 949.451 291.558 948.246C288.743 946.738 287.663 944.592 286.856 941.666Z"/><path fill="#1F306B" transform="scale(1.02124 1.02124)" d="M286.856 941.666L287.39 941.618L289.038 944.553C292.784 948.492 297.176 949.562 301.715 946.142C302.783 944.9 302.765 944.729 304.341 944.173C302.95 946.541 301.57 947.916 298.877 948.838C296.461 949.665 293.809 949.451 291.558 948.246C288.743 946.738 287.663 944.592 286.856 941.666Z"/><path fill="#234493" transform="scale(1.02124 1.02124)" d="M303.233 938.112C304.461 940.268 304.508 940.682 304.929 943.147L304.341 944.173C302.765 944.729 302.783 944.9 301.715 946.142C300.449 945.804 300.401 945.725 299.251 945.061C296.446 943.026 296.851 944.063 293.54 943.202C298.973 942.818 300.179 942.604 303.233 938.112Z"/><path fill="#1F306B" transform="scale(1.02124 1.02124)" d="M363.997 931.577C374.948 932.329 378.341 944.494 366.325 949.252C353.666 948.775 351.383 935.189 363.997 931.577Z"/><path fill="#86A1E2" transform="scale(1.02124 1.02124)" d="M358.043 940.908C355.074 933.339 366.216 928.244 372.19 937.608C375.132 946.012 366.323 950.287 359.068 945.83C357.569 944.028 357.285 943.127 358.043 940.908Z"/><path fill="#2E50A9" transform="scale(1.02124 1.02124)" d="M372.19 937.608C375.132 946.012 366.323 950.287 359.068 945.83C360.941 945.377 361.566 945.061 362.212 943.324C368.043 943.461 369.027 942.413 372.19 937.608Z"/><path fill="#234493" transform="scale(1.02124 1.02124)" d="M359.068 945.83C357.569 944.028 357.285 943.127 358.043 940.908C359.432 941.826 360.653 942.756 362.212 943.324C361.566 945.061 360.941 945.377 359.068 945.83Z"/><defs><linearGradient id="gradient_5" gradientUnits="userSpaceOnUse" x1="732.35559" y1="934.31128" x2="735.43097" y2="945.8855"><stop offset="0" stop-color="#123394"/><stop offset="1" stop-color="#2E52BC"/></linearGradient></defs><path fill="url(#gradient_5)" transform="scale(1.02124 1.02124)" d="M734.038 930.329C737.467 931.368 739.95 932.254 741.856 935.585C743.035 937.648 743.276 940.116 742.519 942.367C740.151 949.47 730.878 950.362 726.543 944.106C724.425 941.909 725.179 938.975 726.096 936.427C727.888 932.153 729.654 931.595 734.038 930.329Z"/><path fill="#86A1E2" transform="scale(1.02124 1.02124)" d="M726.892 936.994C729.502 929.858 736.883 929.397 740.753 936.126C739.405 943.779 730.427 944.299 726.892 936.994Z"/><path fill="#1F306B" transform="scale(1.02124 1.02124)" d="M734.038 930.329C737.467 931.368 739.95 932.254 741.856 935.585C743.035 937.648 743.276 940.116 742.519 942.367C740.151 949.47 730.878 950.362 726.543 944.106C728.48 944.99 729.696 946.245 731.947 946.521C735.334 946.936 739.219 946.79 741.113 943.576C742.899 940.546 741.751 938.836 740.753 936.126C736.883 929.397 729.502 929.858 726.892 936.994L726.096 936.427C727.888 932.153 729.654 931.595 734.038 930.329Z"/><path fill="#1F306B" transform="scale(1.02124 1.02124)" d="M658.765 931.846C663.265 930.92 667.689 933.729 668.765 938.196C669.842 942.662 667.184 947.178 662.757 948.405C659.757 949.237 656.542 948.366 654.371 946.134C652.201 943.902 651.42 940.664 652.335 937.688C653.25 934.713 655.715 932.473 658.765 931.846Z"/><path fill="#86A1E2" transform="scale(1.02124 1.02124)" d="M653.578 938.884C652.487 933.824 662.618 927.992 667.698 938.19C669.897 952.627 649.309 947.387 653.578 938.884Z"/><path fill="#2E50A9" transform="scale(1.02124 1.02124)" d="M667.698 938.19C669.897 952.627 649.309 947.387 653.578 938.884C659.641 944.455 662.134 943.223 667.698 938.19Z"/><path fill="#86A1E2" transform="scale(1.02124 1.02124)" d="M437.974 931.203C442.048 932.683 443.258 933.267 445.439 936.904C446.773 942.155 446.386 945.497 441.291 948.275C433.389 950.431 428.134 945.265 429.836 937.24C431.875 933.314 434.057 932.527 437.974 931.203Z"/><path fill="#2E50A9" transform="scale(1.02124 1.02124)" d="M445.439 936.904C446.773 942.155 446.386 945.497 441.291 948.275C433.389 950.431 428.134 945.265 429.836 937.24L430.584 938.021L430.397 939.044C434.996 943.293 442.462 945.188 444.562 937.681L445.439 936.904Z"/><path fill="#1F306B" transform="scale(1.02124 1.02124)" d="M429.836 937.24L430.584 938.021L430.397 939.044C430.425 940.55 430.313 941.05 430.883 942.439C432.645 947.72 435.8 947.76 440.869 947.41L441.291 948.275C433.389 950.431 428.134 945.265 429.836 937.24Z"/><path fill="#446ED2" transform="scale(1.02124 1.02124)" d="M430.883 942.439L431.375 942.121C432.097 943.768 432.191 944.435 433.838 945.384C436.204 945.729 436.538 945.688 438.954 945.467C440.657 946.47 440.098 945.79 440.869 947.41C435.8 947.76 432.645 947.72 430.883 942.439Z"/><path fill="#234493" transform="scale(1.02124 1.02124)" d="M437.974 931.203C442.048 932.683 443.258 933.267 445.439 936.904L444.562 937.681C440.894 930.598 433.338 930.893 430.584 938.021L429.836 937.24C431.875 933.314 434.057 932.527 437.974 931.203Z"/><defs><linearGradient id="gradient_6" gradientUnits="userSpaceOnUse" x1="586.01917" y1="939.1947" x2="589.89282" y2="945.66302"><stop offset="0" stop-color="#1D40A9"/><stop offset="1" stop-color="#3959C0"/></linearGradient></defs><path fill="url(#gradient_6)" transform="scale(1.02124 1.02124)" d="M579.779 935.806C582.609 931.728 586.749 929.471 591.315 932.543C593.762 934.194 595.383 936.815 595.766 939.741C596.887 948.486 584.527 952.077 579.136 944.307L578.866 944.057C579.587 942.075 579.771 942.002 581.319 940.476L580.317 936.65L579.779 935.806Z"/><path fill="#86A1E2" transform="scale(1.02124 1.02124)" d="M580.317 936.65C583.656 931.995 585.761 931.15 591.039 933.267C591.447 933.648 592.534 934.609 592.806 934.998L594.424 937.575C591.676 943.347 586.28 944.311 581.319 940.476L580.317 936.65Z"/><path fill="#1F306B" transform="scale(1.02124 1.02124)" d="M579.779 935.806C582.609 931.728 586.749 929.471 591.315 932.543C593.762 934.194 595.383 936.815 595.766 939.741C596.887 948.486 584.527 952.077 579.136 944.307C582.419 944.776 582.344 944.507 584.736 946.916C591.106 948.123 596.206 944.36 594.424 937.575L592.806 934.998C592.534 934.609 591.447 933.648 591.039 933.267C585.761 931.15 583.656 931.995 580.317 936.65L579.779 935.806Z"/><path fill="#1F306B" transform="scale(1.02124 1.02124)" d="M512.397 931.636L516.223 932.32C523.8 938.084 523.121 945.965 513.386 948.413C504.209 947.277 501.787 942.324 506.18 934.437C508.619 932.784 509.55 932.284 512.397 931.636Z"/><path fill="#86A1E2" transform="scale(1.02124 1.02124)" d="M505.038 938.255C508.643 931.454 515.268 930.307 519.615 937.217C522.737 951.226 503.207 949.049 505.038 938.255Z"/><path fill="#2E50A9" transform="scale(1.02124 1.02124)" d="M519.615 937.217C522.737 951.226 503.207 949.049 505.038 938.255C510.513 944.34 515.251 944.669 519.615 937.217Z"/><path fill="#86A1E2" transform="scale(1.02124 1.02124)" d="M728.237 899.247C727.711 897.487 727.805 895.6 728.503 893.902C729.547 891.444 731.597 889.555 734.131 888.714C736.749 887.843 738.035 888.07 740.391 889.239L740.06 889.897C741.953 891.745 742.108 892.081 743.192 894.508C744.361 897.671 744.421 898.434 743.12 901.539L743.879 901.868C738.591 907.931 730.848 907.17 728.237 899.247Z"/><path fill="#2E50A9" transform="scale(1.02124 1.02124)" d="M743.192 894.508C744.361 897.671 744.421 898.434 743.12 901.539L743.879 901.868C738.591 907.931 730.848 907.17 728.237 899.247L728.928 899.329L730.058 897.884C735.952 902.117 739.482 900.207 743.192 894.508Z"/><path fill="#040826" transform="scale(1.02124 1.02124)" d="M728.237 899.247L728.928 899.329C732.581 905.135 737.995 907.004 743.12 901.539L743.879 901.868C738.591 907.931 730.848 907.17 728.237 899.247Z"/><path fill="#2E50A9" transform="scale(1.02124 1.02124)" d="M728.237 899.247C727.711 897.487 727.805 895.6 728.503 893.902C729.547 891.444 731.597 889.555 734.131 888.714C736.749 887.843 738.035 888.07 740.391 889.239L740.06 889.897C734.248 887.812 727.157 891.987 730.058 897.884L728.928 899.329L728.237 899.247Z"/><path fill="#446ED2" transform="scale(1.02124 1.02124)" d="M485.74 618.135C489.958 618.466 491.431 618.485 493.661 622.242C493.738 624.123 493.966 623.284 492.989 624.859C491.185 625.985 491.111 626.092 489.055 626.134C485.444 626.398 481.115 627.179 479.649 622.81C479.962 619.644 483.047 618.648 485.74 618.135Z"/><path fill="#234493" transform="scale(1.02124 1.02124)" d="M578.866 944.057C577.827 940.095 578.003 939.532 579.779 935.806L580.317 936.65L581.319 940.476C579.771 942.002 579.587 942.075 578.866 944.057Z"/><path fill="#1F306B" transform="scale(1.02124 1.02124)" d="M740.391 889.239C743.827 892.178 746.747 897.604 743.879 901.868L743.12 901.539C744.421 898.434 744.361 897.671 743.192 894.508C742.108 892.081 741.953 891.745 740.06 889.897L740.391 889.239Z"/></svg>