<?xml version="1.0" encoding="UTF-8"?>
<svg id="Layer_2" data-name="Layer 2" xmlns="http://www.w3.org/2000/svg" viewBox="0 0 1186.12 563.54">
  <defs>
    <style>
      .cls-1 {
        fill: #fff;
      }

      .cls-2 {
        fill: #54a3da;
      }
    </style>
  </defs>
  <g id="Layer_1-2" data-name="Layer 1">
    <g>
      <rect class="cls-1" x="807.18" y="401.84" width="333.14" height="128.09"/>
      <g>
        <path class="cls-1" d="m276.9,27.5c-68.37,37.48-117.08,133.15-95.39,186.26,4.74-11.34,8.26-22.58,13.97-32.58,5.41-9.47,13.11-17.65,20.21-26.93,2.76,3.53,4.15,4.5,4.08,5.33-5.19,58.17,22.92,101.41,61.9,140.48,14.35,14.39,29.04,29.85,38.23,47.57,9.57,18.47,12.7,40.25,15.07,62.08-9.78-65-60-97.77-104.96-134.81-26.65-21.96-53.63-43.76-78.36-67.78C99.21,156.2,69.19,94.06,63.65,20.77c-.48-6.37-1.36-12.71-2.11-19.05-.07-.6-.52-1.15-.8-1.72C28.47,40.07-4.58,150.46,4.23,231.87c8.42,77.81,44.93,139.69,108.62,186.14-45.35-66.79-68.3-140.07-67.05-224.8,3.3,5.5,5.16,7.56,5.88,9.96,14.44,48.5,47.42,80.74,91.25,103.42,14.78,7.65,29.73,14.95,44.6,22.41,82.85,41.61,107.7,91.02,91.83,182.46-1.08,6.21-1.92,12.46-2.99,19.46,68.74-30.5,102.64-115.75,73.04-182.13-7.27-16.3-15.47-32.33-24.76-47.57-51.58-84.63-76.36-173.93-47.75-273.72Z"/>
        <path class="cls-1" d="m196.78,514.95C102.25,492.86,43.6,430.52,2.6,346.88c-20.17,93.26,80.25,179.87,194.18,168.07Z"/>
        <path class="cls-1" d="m52.2,509.77c15.26,45.37,81.93,64.93,141.39,47.4-24.14-5.04-50.4-8.14-74.94-16.33-23.67-7.9-45.57-21.07-66.44-31.06Z"/>
      </g>
      <g>
        <path class="cls-1" d="m390.57,243.79c0-44.64,31.28-75.35,75.92-75.35s74.78,29.85,74.78,75.06v69.09h-30.99v-27.58c-8.53,20.76-27.58,31.28-49.76,31.28-34.12,0-69.95-24.45-69.95-72.51Zm116.86-1.42c0-24.74-16.49-42.37-41.23-42.37s-41.51,17.63-41.51,42.37,16.78,42.37,41.51,42.37,41.23-17.63,41.23-42.37Z"/>
        <path class="cls-1" d="m587.04,239.53c0-46.91,27.87-71.08,69.38-71.08s69.38,23.88,69.38,71.08v73.07h-33.84v-73.07c0-26.73-14.22-39.52-35.54-39.52s-35.54,12.8-35.54,39.52v73.07h-33.84v-73.07Z"/>
        <path class="cls-1" d="m770.72,327.96h34.12c5.69,13.08,19.33,19.05,37.25,19.05,25.02,0,40.66-11.66,40.66-44.36v-12.23c-9.67,15.64-26.44,24.17-47.48,24.17-33.55,0-69.38-22.46-69.38-72.22,0-42.65,31.28-73.93,75.63-73.93s75.07,29.57,75.07,75.06v58.01c0,53.74-33.27,74.78-74.5,74.78-34.97,0-62.55-15.07-71.37-48.34Zm112.03-85.59c0-24.74-16.49-42.37-41.23-42.37s-41.51,17.63-41.51,42.37,16.78,40.66,41.51,40.66,41.23-15.92,41.23-40.66Z"/>
        <path class="cls-1" d="m956.66,242.37c0-42.65,31.28-73.93,75.63-73.93s75.07,31.28,75.07,73.93v11.94h-115.16c4.55,20.47,20.19,31.28,40.09,31.28,15.07,0,26.16-4.27,33.27-13.36h36.11c-10.52,26.73-36.11,44.07-69.38,44.07-44.36,0-75.63-31.28-75.63-73.93Zm114.87-15.07c-5.4-18.77-20.76-28.15-39.24-28.15s-33.84,9.67-39.24,28.15h78.48Z"/>
        <path class="cls-1" d="m1152.28,110.73h33.84v201.88h-33.84V110.73Z"/>
      </g>
      <g>
        <path class="cls-1" d="m439.75,495.78c-4.39,0-8.41-.71-12.08-2.13-3.67-1.42-6.86-3.44-9.59-6.06-2.73-2.62-4.84-5.67-6.34-9.15-1.5-3.48-2.25-7.33-2.25-11.56s.75-8.08,2.25-11.56c1.5-3.48,3.62-6.53,6.38-9.15,2.75-2.62,5.96-4.64,9.63-6.06,3.66-1.42,7.74-2.13,12.24-2.13s8.97.78,12.8,2.33c3.82,1.55,7.05,3.83,9.67,6.82l-6.58,6.42c-2.19-2.19-4.56-3.81-7.1-4.85-2.54-1.04-5.34-1.57-8.39-1.57s-5.74.48-8.23,1.44c-2.49.96-4.64,2.33-6.46,4.09-1.82,1.77-3.24,3.85-4.25,6.26-1.02,2.41-1.52,5.06-1.52,7.95s.51,5.47,1.52,7.9c1.02,2.44,2.43,4.53,4.25,6.3,1.82,1.77,3.96,3.13,6.42,4.09,2.46.96,5.19,1.45,8.19,1.45,2.78,0,5.47-.44,8.07-1.32,2.59-.88,5.07-2.37,7.42-4.45l5.86,7.78c-2.89,2.35-6.26,4.13-10.11,5.34-3.85,1.2-7.78,1.81-11.8,1.81Zm12.12-8.51v-20.95h9.79v22.31l-9.79-1.36Z"/>
        <path class="cls-1" d="m491.51,494.98v-56.18h10.43v56.18h-10.43Z"/>
        <path class="cls-1" d="m549.37,494.98l-24.56-56.18h11.32l21.91,50.8h-6.58l22.31-50.8h10.35l-24.48,56.18h-10.27Z"/>
        <path class="cls-1" d="m606.11,494.98v-56.18h10.43v56.18h-10.43Z"/>
        <path class="cls-1" d="m647.76,494.98v-56.18h8.59l35.23,43.34h-4.25v-43.34h10.27v56.18h-8.59l-35.15-43.34h4.25v43.34h-10.35Z"/>
        <path class="cls-1" d="m755.06,495.78c-4.39,0-8.41-.71-12.08-2.13-3.67-1.42-6.86-3.44-9.59-6.06-2.73-2.62-4.84-5.67-6.34-9.15-1.5-3.48-2.25-7.33-2.25-11.56s.75-8.08,2.25-11.56c1.5-3.48,3.62-6.53,6.38-9.15,2.75-2.62,5.96-4.64,9.63-6.06,3.66-1.42,7.74-2.13,12.24-2.13s8.97.78,12.8,2.33c3.82,1.55,7.05,3.83,9.67,6.82l-6.58,6.42c-2.19-2.19-4.56-3.81-7.1-4.85-2.54-1.04-5.34-1.57-8.39-1.57s-5.74.48-8.23,1.44c-2.49.96-4.64,2.33-6.46,4.09-1.82,1.77-3.24,3.85-4.25,6.26-1.02,2.41-1.52,5.06-1.52,7.95s.51,5.47,1.52,7.9c1.02,2.44,2.43,4.53,4.25,6.3,1.82,1.77,3.96,3.13,6.42,4.09,2.46.96,5.19,1.45,8.19,1.45,2.78,0,5.47-.44,8.07-1.32,2.59-.88,5.07-2.37,7.42-4.45l5.86,7.78c-2.89,2.35-6.26,4.13-10.11,5.34-3.85,1.2-7.78,1.81-11.8,1.81Zm12.12-8.51v-20.95h9.79v22.31l-9.79-1.36Z"/>
        <path class="cls-2" d="m845.02,494.98v-56.18h26.4c6.69,0,11.8,1.32,15.33,3.97,3.53,2.65,5.3,6.19,5.3,10.63,0,3-.7,5.55-2.09,7.66-1.39,2.11-3.25,3.75-5.58,4.9-2.33,1.15-4.86,1.73-7.58,1.73l1.44-2.89c3.16,0,5.99.58,8.51,1.73,2.51,1.15,4.49,2.82,5.94,5.02,1.44,2.19,2.17,4.92,2.17,8.19,0,4.82-1.83,8.56-5.5,11.24-3.67,2.68-9.11,4.01-16.33,4.01h-28.01Zm10.43-8.19h16.93c3.85,0,6.82-.64,8.91-1.93,2.09-1.28,3.13-3.34,3.13-6.18s-1.04-4.83-3.13-6.14c-2.09-1.31-5.06-1.97-8.91-1.97h-17.74v-8.11h15.57c3.58,0,6.37-.64,8.35-1.93,1.98-1.28,2.97-3.21,2.97-5.78s-.99-4.57-2.97-5.86c-1.98-1.28-4.76-1.93-8.35-1.93h-14.77v39.8Z"/>
        <path class="cls-2" d="m932.57,486.15h31.7v8.83h-42.13v-56.18h41.01v8.83h-30.58v38.52Zm-.8-24h27.93v8.59h-27.93v-8.59Z"/>
        <path class="cls-2" d="m1003.35,494.98v-47.35h-18.62v-8.83h47.67v8.83h-18.62v47.35h-10.43Z"/>
        <path class="cls-2" d="m1045.56,494.98l25.28-56.18h10.27l25.36,56.18h-10.99l-21.67-50.64h4.17l-21.75,50.64h-10.67Zm11.64-13l2.89-8.19h30.25l2.81,8.19h-35.95Z"/>
      </g>
    </g>
  </g>
</svg>