<svg xmlns="http://www.w3.org/2000/svg" xmlns:xlink="http://www.w3.org/1999/xlink" id="_x30_8_x5F_money_x5F_growth" x="0px" y="0px" width="64px" height="64px" viewBox="0 0 64 64" style="enable-background:new 0 0 64 64;" xml:space="preserve">
<g>
	<g>
		<g>
			
				<line style="fill:none;stroke:#4F5F6F;stroke-width:2;stroke-linejoin:round;stroke-miterlimit:10;" x1="32" y1="64" x2="32" y2="23"></line>
			<g>
				
					<rect x="11" y="1" style="fill:none;stroke:#4F5F6F;stroke-width:2;stroke-linejoin:round;stroke-miterlimit:10;" width="42" height="22"></rect>
				<path style="fill:none;stroke:#4F5F6F;stroke-width:2;stroke-linejoin:round;stroke-miterlimit:10;" d="M21,2"></path>
				<path style="fill:none;stroke:#4F5F6F;stroke-width:2;stroke-linejoin:round;stroke-miterlimit:10;" d="M43,2"></path>
				<path style="fill:none;stroke:#4F5F6F;stroke-width:2;stroke-linejoin:round;stroke-miterlimit:10;" d="M43,22"></path>
				<path style="fill:none;stroke:#4F5F6F;stroke-width:2;stroke-linejoin:round;stroke-miterlimit:10;" d="M21,22"></path>
				<polygon style="fill:none;stroke:#4F5F6F;stroke-width:2;stroke-linejoin:round;stroke-miterlimit:10;" points="46,19 49,16       49,8 46,5 18,5 15,8 15,16 18,19     "></polygon>
				
					<line style="fill:none;stroke:#4F5F6F;stroke-width:2;stroke-linejoin:round;stroke-miterlimit:10;" x1="26" y1="12" x2="24" y2="12"></line>
				
					<line style="fill:none;stroke:#4F5F6F;stroke-width:2;stroke-linejoin:round;stroke-miterlimit:10;" x1="22" y1="12" x2="20" y2="12"></line>
				
					<line style="fill:none;stroke:#4F5F6F;stroke-width:2;stroke-linejoin:round;stroke-miterlimit:10;" x1="40" y1="12" x2="38" y2="12"></line>
				
					<line style="fill:none;stroke:#4F5F6F;stroke-width:2;stroke-linejoin:round;stroke-miterlimit:10;" x1="44" y1="12" x2="42" y2="12"></line>
				<circle style="fill:none;stroke:#4F5F6F;stroke-width:2;stroke-linejoin:round;stroke-miterlimit:10;" cx="32" cy="12" r="3"></circle>
			</g>
			<path style="fill:none;stroke:#4F5F6F;stroke-width:2;stroke-miterlimit:10;" d="M14,45l-7-7v-1c0-1.656,1.344-3,3-3h1l10,10     c2,2,2,5,2,5v8H12v-2c0,0,0-2-2-4l-7-7c-2-2-2-4-2-4V24c0-1.656,1.344-3,3-3c1.656,0,3,1.344,3,3v8"></path>
			<path style="fill:none;stroke:#4F5F6F;stroke-width:2;stroke-miterlimit:10;" d="M50,45l7-7v-1c0-1.656-1.344-3-3-3h-1L43,44     c-2,2-2,5-2,5v8h11v-2c0,0,0-2,2-4l7-7c2-2,2-4,2-4V24c0-1.656-1.344-3-3-3c-1.656,0-3,1.344-3,3v8"></path>
			<g>
				<path style="fill:none;stroke:#4F5F6F;stroke-width:2;stroke-linejoin:round;stroke-miterlimit:10;" d="M46,30      c0,1.656-1.344,3-3,3h-7v-3c0-1.656,1.344-3,3-3h7V30z"></path>
				<path style="fill:none;stroke:#4F5F6F;stroke-width:2;stroke-linejoin:round;stroke-miterlimit:10;" d="M18,34      c0,1.656,1.344,3,3,3h7v-3c0-1.656-1.344-3-3-3h-7V34z"></path>
			</g>
			<path style="fill:none;stroke:#4F5F6F;stroke-width:2;stroke-miterlimit:10;" d="M39,64v-6c0-0.553,0.447-1,1-1h13     c0.553,0,1,0.447,1,1v6"></path>
			<path style="fill:none;stroke:#4F5F6F;stroke-width:2;stroke-miterlimit:10;" d="M10,64v-6c0-0.553,0.447-1,1-1h13     c0.553,0,1,0.447,1,1v6"></path>
		</g>
	</g>
</g>
</svg>