<?xml version="1.0" encoding="iso-8859-1"?>
<!-- Generator: Adobe Illustrator 17.0.0, SVG Export Plug-In . SVG Version: 6.00 Build 0)  -->
<!DOCTYPE svg PUBLIC "-//W3C//DTD SVG 1.1//EN" "http://www.w3.org/Graphics/SVG/1.1/DTD/svg11.dtd">
<svg version="1.1" id="_x30_8_x5F_marketing_x5F_idea"
	 xmlns="http://www.w3.org/2000/svg" xmlns:xlink="http://www.w3.org/1999/xlink" x="0px" y="0px" width="56px" height="64px"
	 viewBox="0 0 56 64" style="enable-background:new 0 0 56 64;" xml:space="preserve">
<g>
	<g>
		<g>
			<line style="fill:none;stroke:#4F5F6F;stroke-width:2;stroke-miterlimit:10;" x1="8" y1="47" x2="32" y2="47"/>
			<line style="fill:none;stroke:#4F5F6F;stroke-width:2;stroke-miterlimit:10;" x1="8" y1="51" x2="32" y2="51"/>
			<line style="fill:none;stroke:#4F5F6F;stroke-width:2;stroke-miterlimit:10;" x1="8" y1="55" x2="32" y2="55"/>
			<line style="fill:none;stroke:#4F5F6F;stroke-width:2;stroke-miterlimit:10;" x1="8" y1="59" x2="32" y2="59"/>
			<polyline style="fill:none;stroke:#4F5F6F;stroke-width:2;stroke-miterlimit:10;" points="23,59 23,63 17,63 17,59 			"/>
			<path style="fill:none;stroke:#4F5F6F;stroke-width:2;stroke-miterlimit:10;" d="M29,59V37c5.955-3.208,10-9.762,10-17
				C39,9.507,30.493,1,20,1S1,9.507,1,20c0,7.253,4.025,13.798,10,17v22"/>
			<line style="fill:none;stroke:#4F5F6F;stroke-width:2;stroke-miterlimit:10;" x1="17" y1="47" x2="17" y2="37"/>
			<line style="fill:none;stroke:#4F5F6F;stroke-width:2;stroke-miterlimit:10;" x1="23" y1="47" x2="23" y2="37"/>
			<line style="fill:none;stroke:#4F5F6F;stroke-width:2;stroke-miterlimit:10;" x1="20" y1="20" x2="51" y2="20"/>
			<polygon style="fill:none;stroke:#4F5F6F;stroke-width:2;stroke-linejoin:round;stroke-miterlimit:10;" points="42,20 46,16 
				55,16 51,20 55,24 46,24 			"/>
			<circle style="fill:none;stroke:#4F5F6F;stroke-width:2;stroke-miterlimit:10;" cx="20" cy="20" r="13"/>
			<circle style="fill:none;stroke:#4F5F6F;stroke-width:2;stroke-miterlimit:10;" cx="20" cy="20" r="7"/>
			<circle style="fill:none;stroke:#4F5F6F;stroke-width:2;stroke-miterlimit:10;" cx="20" cy="20" r="1"/>
		</g>
	</g>
</g>
</svg>
