<?xml version="1.0" encoding="iso-8859-1"?>
<!-- Generator: Adobe Illustrator 19.0.0, SVG Export Plug-In . SVG Version: 6.00 Build 0)  -->
<svg version="1.1" id="Layer_1" xmlns="http://www.w3.org/2000/svg" xmlns:xlink="http://www.w3.org/1999/xlink" x="0px" y="0px"
	 viewBox="0 0 503.497 503.497" style="enable-background:new 0 0 503.497 503.497;" xml:space="preserve">
<g>
	<path style="fill:#C03A2B;" d="M373.24,17.443c-60.746,0-102.287,29.175-121.492,78.102
		c-19.204-48.926-60.746-78.102-121.492-78.102c-130.169,0-173.559,156.203-80.41,259.688
		c33.063,36.734,193.206,200.079,201.902,208.922c8.695-8.843,168.839-172.188,201.902-208.922
		C546.799,173.647,503.409,17.443,373.24,17.443"/>
	<polygon style="fill:#FAC176;" points="112.901,86.867 138.935,130.257 182.325,95.545 208.359,138.935 164.969,164.969 
		208.359,208.359 164.969,234.393 130.257,199.681 86.867,234.393 60.833,199.681 104.223,164.969 69.511,112.901 	"/>
</g>
<g>
</g>
<g>
</g>
<g>
</g>
<g>
</g>
<g>
</g>
<g>
</g>
<g>
</g>
<g>
</g>
<g>
</g>
<g>
</g>
<g>
</g>
<g>
</g>
<g>
</g>
<g>
</g>
<g>
</g>
</svg>
