<?xml version="1.0" encoding="iso-8859-1"?>
<!-- Generator: Adobe Illustrator 19.0.0, SVG Export Plug-In . SVG Version: 6.00 Build 0)  -->
<svg version="1.1" id="Layer_1" xmlns="http://www.w3.org/2000/svg" xmlns:xlink="http://www.w3.org/1999/xlink" x="0px" y="0px"
	 viewBox="0 0 511.995 511.995" style="enable-background:new 0 0 511.995 511.995;" xml:space="preserve">
<circle style="fill:#59D8FF;" cx="256.004" cy="255.967" r="255.949"/>
<path style="fill:#00C3F0;" d="M511.957,255.964c0-107.226-65.964-198.997-159.502-237.09c-3.223,3.816-5.352,8.595-5.673,13.926
	l-0.191,3.188l-4.626,4.102c-2.019,1.791-3.606,3.915-4.894,6.199c-2.233-0.755-4.55-1.285-6.98-1.285
	c-1.913,0-3.822,0.252-5.672,0.747l-1.438,0.385c-10.391,2.785-16.992,12.635-16.12,22.999c-4.1,1.924-7.423,4.941-9.669,8.831
	c-2.927,5.07-3.705,10.977-2.189,16.632c1.957,7.31,7.266,12.86,13.919,15.243c-0.658,0.852-1.336,1.686-1.884,2.633
	c-3.192,5.527-4.039,11.966-2.387,18.13l3.623,13.519c0.747,2.787,1.971,5.348,3.571,7.608c-0.276,0.851-0.505,1.723-0.688,2.616
	l-2.609,12.75l-8.841,15.313c-3.782,6.551-4.786,14.181-2.829,21.486l6.851,25.567c1.957,7.306,6.643,13.412,13.194,17.194
	l24.776,14.306c4.298,2.482,9.194,3.793,14.158,3.793c2.473,0,4.939-0.324,7.329-0.965l38.36-10.278l4.187,15.627
	c0.958,3.569,2.757,6.912,5.205,9.672l9.349,10.544l3.291,12.282c0.504,1.883,1.24,3.705,2.188,5.411l32.588,58.701
	c2.585,4.657,6.687,8.044,11.409,10.109c-15.287,7.695-31.535,14.02-48.718,18.624c-38.058,10.197-76.405,11.235-112.726,4.503
	c1.488-4.743,1.658-9.807,0.341-14.724l-1.337-4.992l2.381-0.639c11.025-2.953,18.892-12.594,19.577-23.988l2.56-42.641
	c0.714-11.885-6.666-22.851-17.945-26.667l-21.227-7.181c-2.74-0.927-5.594-1.397-8.485-1.397c-2.312,0-4.617,0.303-6.851,0.901
	l-10.706,2.87l-4.863-7.365c-4.916-7.445-13.175-11.888-22.094-11.889c-2.311,0-4.618,0.303-6.855,0.904l-3.84,1.029l-12.121-6.998
	c-4.018-2.321-8.596-3.547-13.239-3.547c-2.312,0-4.618,0.303-6.851,0.901l-6.497,1.741c-3.753-1.941-7.933-2.962-12.166-2.962
	c-6.481,0-12.72,2.368-17.569,6.667l-6.889,6.109l-0.736,0.197l-5.203-7.879c0.812-0.127,1.616-0.298,2.412-0.51
	c12.305-3.296,19.635-15.991,16.339-28.298l-3.368-12.571l44.062-65.784l15.866-4.252c8.199-2.198,14.891-8.247,17.902-16.181
	c3.011-7.934,2.017-16.9-2.66-23.983l-6.617-10.021c-0.723-1.094-1.517-2.125-2.374-3.087c4.666-6.275,6.528-14.545,4.352-22.667
	l-2.284-8.525c-3.097-11.556-13.611-19.626-25.57-19.628l0,0c-2.311,0-4.619,0.304-6.859,0.905L149.552,56.06
	c-9.375,2.512-17.794,7.494-24.486,14.468c-3.893-2.219-8.375-3.469-13.079-3.469c-0.07,0-0.137,0.026-0.206,0.028
	c3.448-10.407,7.546-20.57,12.273-30.419C28.684,93.992-21.456,209.369,8.78,322.208c36.585,136.54,176.933,217.569,313.473,180.984
	c70.689-18.941,126.427-65.733,158.734-125.373c0.055-0.007,0.11-0.018,0.165-0.022C500.797,341.57,511.957,300.071,511.957,255.964
	z"/>
<g>
	<path style="fill:#9BF57D;" d="M333.652,64.572l10.423,15.786c1.604,2.429,0.356,5.717-2.456,6.47l-7.213,1.933
		c-2.276,0.61-4.615-0.74-5.225-3.016l-4.645-17.334c-0.61-2.276,0.74-4.615,3.016-5.225l1.435-0.384
		C330.761,62.327,332.64,63.04,333.652,64.572z"/>
	<path style="fill:#9BF57D;" d="M320.58,87.746l0.076,0.285c0.61,2.276-0.74,4.615-3.016,5.225l-0.285,0.076
		c-2.276,0.61-4.615-0.74-5.225-3.016l-0.076-0.285c-0.61-2.276,0.74-4.615,3.016-5.225l0.285-0.076
		C317.632,84.12,319.971,85.471,320.58,87.746z"/>
</g>
<g>
	<path style="fill:#B4FF87;" d="M364.403,33.86l-0.474,7.905c-0.099,1.653-0.851,3.197-2.09,4.296l-8.163,7.238
		c-2.579,2.287-2.815,6.231-0.528,8.81l5.19,5.853c1.851,2.087,5.204,1.749,6.6-0.669l0.285-0.493
		c1.723-2.985,5.54-4.008,8.525-2.285l0,0c2.985,1.723,6.801,0.701,8.525-2.285l3.12-5.405l0.99-4.833l5.046,5.69
		c2.52,2.842,1.938,7.256-1.231,9.349l-16.441,10.855c-0.559,0.37-1.175,0.646-1.824,0.82l-13.575,3.637
		c-1.599,0.428-2.962,1.474-3.79,2.908l-4.948,8.571l-2.984,0.8c-3.06,0.82-4.876,3.965-4.057,7.025l1.468,5.482
		c0.893,3.33-1.083,6.752-4.413,7.643l-13.519,3.622c-3.33,0.893-5.305,4.314-4.413,7.643l3.622,13.519
		c0.893,3.33,4.314,5.305,7.643,4.413l23.727-6.358c2.595-0.695,4.454-2.973,4.615-5.654l1.402-23.37l8.525-2.285l23.3,7.883
		c2.925,0.99,5.773-1.68,4.973-4.663l0,0c-0.266-0.991-0.913-1.835-1.802-2.348l-9.423-5.44l8.525-2.285l15.556,3.183
		c2.316,0.474,4.165,2.215,4.777,4.499l2.409,8.991c0.641,2.393,3.101,3.814,5.495,3.173l1.514-0.406
		c1.642-0.44,2.894-1.77,3.235-3.434l0.898-4.39c1.032-5.038,7.372-6.737,10.783-2.889l4.812,5.427l8.525-2.285l9.114,13.804
		c2.714,4.11-0.179,9.596-5.104,9.679l-24.249,0.408c-0.51,0.009-1.017,0.079-1.51,0.212l-12.737,3.413
		c-1.973,0.528-3.142,2.555-2.614,4.528l0,0c0.653,2.437-1.273,4.798-3.792,4.647l-18.25-1.096c-2.682-0.161-4.959-2.02-5.654-4.615
		l-1.789-6.677c-0.893-3.33-4.314-5.305-7.643-4.413l-10.044,2.691c-0.648,0.173-1.263,0.45-1.824,0.82l-21.601,14.261
		c-0.559,0.37-1.175,0.646-1.824,0.82l-12.346,3.309c-2.284,0.612-4.025,2.461-4.499,4.777l-2.836,13.86
		c-0.229,1.123-0.639,2.202-1.212,3.194l-9.407,16.295c-1.414,2.449-1.797,5.361-1.066,8.092l6.851,25.566
		c0.733,2.732,2.52,5.062,4.969,6.476l24.777,14.304c2.449,1.414,5.361,1.797,8.092,1.066l49.381-13.231
		c3.33-0.893,6.752,1.083,7.643,4.413l7.141,26.65c0.25,0.936,0.716,1.8,1.359,2.525l11.138,12.561
		c0.643,0.725,1.108,1.59,1.359,2.525l3.988,14.885c0.132,0.493,0.324,0.968,0.571,1.414l32.587,58.701
		c1.39,2.504,4.306,3.74,7.072,2.999l7.032-1.884c1.892-0.507,3.46-1.853,4.217-3.661c21.13-50.448,26.379-108.001,11.128-164.921
		c-19.399-72.399-67.995-129.146-129.706-161.068C369.511,26.573,364.675,29.342,364.403,33.86z"/>
	<path style="fill:#B4FF87;" d="M255.4,295.565l-8.368-12.674c-2.093-3.171-5.981-4.646-9.65-3.662l-7.374,1.976
		c-2.261,0.606-4.67,0.289-6.698-0.881l-15.286-8.826c-2.027-1.171-4.436-1.487-6.698-0.881l-9.988,2.676
		c-2.261,0.606-4.67,0.289-6.698-0.881l-2.135-1.232c-3.29-1.9-7.426-1.481-10.269,1.04l-8.447,7.491
		c-1.025,0.909-2.248,1.567-3.571,1.922l-8.893,2.383c-3.669,0.983-7.556-0.492-9.65-3.662l-9.203-13.939
		c-1.663-2.519-4.497-4.012-7.514-3.962l-19.019,0.32c-6.102,0.103-10.464-5.871-8.509-11.652l4.67-13.806
		c0.945-2.796,3.226-4.934,6.077-5.697l15.744-4.219c3.229-0.865,6.67,0.168,8.888,2.67l7.238,8.163
		c1.371,1.546,3.497,2.184,5.493,1.649l0,0c2.91-0.78,4.637-3.771,3.857-6.68l-4.404-16.438c-0.659-2.458-0.224-5.081,1.193-7.196
		l48.136-71.868c1.189-1.776,2.983-3.06,5.048-3.613l19.069-5.109c5.818-1.559,8.4-8.361,5.081-13.388l-6.617-10.022
		c-1.29-1.954-3.303-3.314-5.596-3.784l-27.871-5.704c-4.179-0.855-8.371,1.401-9.96,5.359l-10.584,26.369
		c-1.745,4.347-6.582,6.574-11.019,5.073l-10.419-3.525c-5.769-1.952-7.874-9.02-4.114-13.81l17.729-22.585
		c1.179-1.503,2.813-2.582,4.658-3.076l26.996-7.234c2.354-0.631,4.774,0.767,5.405,3.12l0,0c0.631,2.354,3.05,3.751,5.405,3.12
		l12.788-3.427c4.709-1.262,7.502-6.101,6.241-10.809l-2.285-8.525c-1.262-4.709-6.101-7.502-10.809-6.241l-49.351,13.223
		c-6.732,1.804-12.78,5.56-17.381,10.795l-11.32,12.88c-1.124,1.28-3.221,0.79-3.663-0.856l-1.253-4.675
		c-1.262-4.709-6.101-7.502-10.809-6.241l-13.519,3.622c-2.261,0.606-4.189,2.085-5.359,4.112l-7.032,12.186
		c-2.104,3.644-6.486,5.296-10.472,3.947l-15.227-5.151c-3.753-1.27-7.867,0.107-10.171,3.331
		c-22.578,31.589-37.897,68.142-44.37,106.904l3.403-0.912l28.41,47.386c2.74,4.571,8.178,6.771,13.326,5.391l0,0
		c5.219-1.399,10.792-0.096,14.851,3.471l14.661,12.885c1.759,1.546,4.059,2.329,6.394,2.178l36.954-2.383
		c2.718-0.175,5.365,0.915,7.172,2.952l6.611,7.454c2.217,2.501,5.658,3.535,8.888,2.67l11.781-3.156
		c4.709-1.262,9.547,1.532,10.809,6.241l1.338,4.994c0.606,2.261,0.289,4.67-0.881,6.698l-3.371,5.839
		c-0.685,1.187-1.084,2.516-1.166,3.884l-1.178,19.636c-0.222,3.691,1.881,7.129,5.268,8.613l42.24,18.507
		c2.456,1.076,4.289,3.21,4.983,5.8l18.921,70.616c0.354,1.324,1.013,2.546,1.922,3.571l34.28,38.657
		c2.217,2.501,5.658,3.535,8.888,2.67l1.718-0.46c5.268-1.411,8.007-7.215,5.749-12.18l-16.035-35.249
		c-1.18-2.595-1.035-5.599,0.391-8.068l20.864-36.138c1.171-2.027,1.487-4.436,0.882-6.698l-3.622-13.519
		c-1.262-4.709,1.532-9.547,6.241-10.809l10.905-2.922c3.669-0.983,6.298-4.204,6.526-7.996l2.559-42.64
		c0.238-3.973-2.212-7.613-5.982-8.889l-21.227-7.181c-1.65-0.558-3.43-0.616-5.112-0.164l-16.85,4.514
		C261.379,300.21,257.492,298.735,255.4,295.565z"/>
</g>
<g>
	<path style="fill:#9BF57D;" d="M84.586,284.364l36.954-2.383c2.718-0.175,5.365,0.915,7.172,2.952l6.611,7.456
		c2.217,2.501,5.658,3.535,8.888,2.67l1.304-0.35c-7.135-10.124-13.572-20.85-19.243-32.113c-0.436-0.058-0.865-0.152-1.313-0.145
		l-19.019,0.32c-6.102,0.104-10.465-5.87-8.509-11.652l4.671-13.806c0.945-2.796,3.226-4.934,6.075-5.697l4.614-1.237
		c-1.895-5.537-3.683-11.138-5.219-16.876c-11.604-43.307-11.299-86.968-1.203-127.598l-10.197,2.733
		c-2.261,0.606-4.189,2.085-5.359,4.112l-7.033,12.185c-2.104,3.644-6.487,5.296-10.472,3.947l-15.227-5.151
		c-3.668-1.241-7.656,0.076-9.988,3.145c-3.258,4.545-6.355,9.2-9.307,13.944c-1.047,1.684-2.028,3.406-3.035,5.112
		c-2.085,3.529-4.084,7.107-5.998,10.732c-1.016,1.927-2.046,3.848-3.014,5.801c-2.407,4.853-4.69,9.769-6.788,14.77
		c-0.758,1.808-1.423,3.656-2.139,5.482c-1.517,3.861-2.959,7.752-4.289,11.69c-0.811,2.404-1.575,4.824-2.315,7.254
		c-1.062,3.484-2.024,7.001-2.939,10.535c-0.601,2.327-1.26,4.635-1.796,6.981c-1.116,4.881-2.04,9.815-2.869,14.773l3.339-0.895
		l28.41,47.386c2.74,4.571,8.178,6.771,13.326,5.391c5.219-1.399,10.792-0.096,14.851,3.471l14.661,12.885
		C79.95,283.731,82.25,284.516,84.586,284.364z"/>
	<path style="fill:#9BF57D;" d="M290.728,395.531c0.083-0.142,0.082-0.312,0.156-0.459c-49.123-12.719-93.632-39.842-127.458-77.873
		c-0.276,0.778-0.658,1.526-0.707,2.355l-1.178,19.636c-0.222,3.691,1.881,7.128,5.268,8.613l42.24,18.508
		c2.456,1.076,4.289,3.209,4.983,5.8l18.921,70.617c0.354,1.324,1.013,2.546,1.922,3.571l34.28,38.658
		c2.217,2.501,5.658,3.535,8.888,2.67l1.718-0.46c5.268-1.412,8.008-7.215,5.749-12.18l-16.035-35.248
		c-1.18-2.595-1.035-5.6,0.391-8.068L290.728,395.531z"/>
	<path style="fill:#9BF57D;" d="M483.06,337.52l-25.744-46.373l-3.626-13.533c-0.955-3.562-2.754-6.903-5.201-9.664l-9.352-10.547
		l-6.444-24.049c-2.796-10.426-12.283-17.708-23.074-17.708c-2.087,0-4.169,0.275-6.188,0.815l-46.586,12.482l-19.764-11.411
		l-5.353-19.976l7.959-13.786c1.525-2.64,2.608-5.493,3.22-8.483l1.422-6.951l5.533-1.483c2.487-0.666,4.837-1.723,6.982-3.141
		l18.048-11.916c3.827,7.3,11.236,12.227,19.724,12.737l18.256,1.096l0.755,0.039h0.526c6.687,0,12.857-3.045,16.931-8.355
		c0.897-1.169,1.661-2.408,2.29-3.699l2.905-0.779l22.846-0.384c8.721-0.147,16.665-5.031,20.733-12.746
		c0.798-1.513,1.278-3.119,1.728-4.726c-7.958-14.805-17.313-28.748-27.919-41.626l-1.734,0.464
		c-4.235-3.465-9.563-5.398-15.09-5.398c-3.569,0-6.991,0.799-10.078,2.241c-3.033-2.62-6.741-4.479-10.856-5.321l-15.556-3.183
		l-0.785-0.161l0.357-0.235c5.783-3.818,9.618-9.95,10.523-16.821c0.72-5.474-0.55-10.934-3.392-15.567
		c-10.535-7.716-21.69-14.622-33.362-20.679c-0.044-0.019-0.125-0.024-0.163-0.045c-0.93-0.482-1.905-0.703-2.856-0.703
		c-3.157,0-6.062,2.439-6.271,5.911l-0.474,7.905c-0.099,1.653-0.851,3.197-2.09,4.296l-8.163,7.238
		c-2.578,2.287-2.815,6.231-0.528,8.809l5.19,5.853c0.823,0.928,1.942,1.377,3.054,1.377c1.391,0,2.77-0.702,3.546-2.044
		l0.285-0.493c1.156-2.002,3.253-3.122,5.41-3.122c1.058,0,2.131,0.27,3.114,0.837c0.983,0.568,2.056,0.837,3.114,0.837
		c2.157,0,4.254-1.119,5.41-3.121l3.121-5.405l0.988-4.833l5.046,5.69c2.52,2.842,1.938,7.256-1.23,9.349l-16.441,10.855
		c-0.559,0.37-1.175,0.646-1.824,0.821l-13.575,3.637c-1.599,0.429-2.962,1.474-3.79,2.908l-4.948,8.571l-2.984,0.8
		c-3.059,0.82-4.875,3.965-4.055,7.025l1.468,5.482c0.893,3.33-1.083,6.752-4.413,7.643l-13.519,3.622
		c-3.33,0.893-5.305,4.315-4.413,7.643l3.623,13.519c0.747,2.788,3.269,4.627,6.024,4.627c0.534,0,1.078-0.07,1.618-0.214
		l23.727-6.358c2.595-0.695,4.454-2.972,4.615-5.654l1.402-23.37l8.526-2.284l23.3,7.883c0.424,0.142,0.846,0.21,1.255,0.21
		c2.418,0,4.402-2.322,3.719-4.873c-0.266-0.991-0.913-1.835-1.802-2.348l-9.423-5.44l8.526-2.284l15.556,3.183
		c2.316,0.474,4.165,2.215,4.777,4.499l2.409,8.991c0.537,2.005,2.35,3.326,4.33,3.326c0.385,0,0.776-0.05,1.164-0.154l1.514-0.406
		c1.642-0.439,2.894-1.77,3.235-3.433l0.898-4.39c0.644-3.15,3.365-4.994,6.146-4.994c1.668,0,3.358,0.663,4.637,2.105l4.812,5.427
		l8.526-2.284l9.114,13.804c2.713,4.11-0.18,9.596-5.102,9.678l-24.249,0.408c-0.51,0.009-1.017,0.079-1.51,0.212l-12.737,3.412
		c-1.973,0.528-3.142,2.555-2.615,4.528c0.633,2.363-1.158,4.655-3.562,4.655c-0.076,0-0.152-0.002-0.229-0.007l-18.25-1.096
		c-2.681-0.161-4.959-2.02-5.654-4.615l-1.789-6.678c-0.747-2.788-3.269-4.627-6.024-4.627c-0.535,0-1.079,0.07-1.62,0.214
		l-10.044,2.691c-0.648,0.173-1.264,0.45-1.824,0.82l-21.601,14.263c-0.559,0.37-1.175,0.646-1.824,0.82l-12.346,3.309
		c-2.284,0.611-4.025,2.46-4.499,4.777l-2.836,13.86c-0.229,1.123-0.64,2.202-1.212,3.195l-9.407,16.295
		c-1.414,2.449-1.797,5.361-1.065,8.092l6.85,25.566c0.733,2.733,2.52,5.062,4.969,6.476l24.776,14.306
		c1.635,0.943,3.476,1.429,5.332,1.429c0.924,0,1.852-0.12,2.76-0.364l49.381-13.231c0.541-0.145,1.085-0.214,1.62-0.214
		c2.756,0,5.277,1.839,6.024,4.627l7.14,26.65c0.252,0.936,0.716,1.8,1.359,2.525l11.138,12.561c0.643,0.725,1.108,1.59,1.359,2.525
		l3.988,14.885c0.132,0.493,0.323,0.968,0.572,1.414l32.587,58.701c1.12,2.018,3.231,3.213,5.455,3.213
		c0.536,0,1.079-0.069,1.616-0.213l7.032-1.884c1.892-0.506,3.46-1.855,4.217-3.661c0.062-0.148,0.204-0.265,0.273-0.41
		c3.582-8.607,6.67-17.465,9.309-26.516C494.362,329.901,487.922,333.008,483.06,337.52z"/>
	<path style="fill:#9BF57D;" d="M308.238,302.058l-21.227-7.181c-0.916-0.31-1.871-0.466-2.828-0.466c-0.768,0-1.536,0.1-2.285,0.3
		l-16.85,4.516c-0.758,0.203-1.526,0.301-2.285,0.301c-2.915,0-5.704-1.449-7.365-3.964l-8.368-12.674
		c-1.66-2.515-4.45-3.963-7.365-3.964c-0.759,0-1.526,0.098-2.285,0.301l-7.375,1.976c-0.751,0.202-1.519,0.3-2.284,0.3
		c-1.536,0-3.059-0.4-4.413-1.183l-15.286-8.826c-1.354-0.781-2.877-1.183-4.413-1.183c-0.765,0-1.533,0.099-2.285,0.3l-9.988,2.676
		c-0.751,0.202-1.519,0.301-2.284,0.301c-1.536,0-3.059-0.402-4.413-1.183l-2.135-1.232c-1.375-0.793-2.897-1.183-4.412-1.183
		c-2.109,0-4.203,0.755-5.858,2.222l-8.447,7.491c-1.025,0.909-2.248,1.567-3.571,1.922l-8.893,2.383
		c-0.758,0.203-1.526,0.301-2.285,0.301c-2.915,0-5.704-1.449-7.365-3.963l-9.203-13.939c-1.635-2.477-4.404-3.963-7.364-3.963
		c-0.05,0-0.099,0-0.149,0.001l-19.019,0.32c-0.051,0.001-0.104,0.001-0.154,0.001c-6.021,0-10.294-5.921-8.355-11.653l4.67-13.806
		c0.945-2.796,3.226-4.934,6.077-5.697l15.744-4.219c0.756-0.203,1.524-0.301,2.284-0.301c2.489,0,4.905,1.055,6.604,2.97
		l7.238,8.163c1.049,1.184,2.543,1.836,4.081,1.836c0.47,0,0.944-0.061,1.412-0.186c2.909-0.78,4.637-3.77,3.857-6.68l-4.405-16.438
		c-0.659-2.459-0.224-5.081,1.193-7.196l48.137-71.868c1.189-1.776,2.983-3.06,5.048-3.613l19.069-5.109
		c5.818-1.56,8.4-8.361,5.08-13.388l-6.617-10.022c-1.29-1.954-3.303-3.314-5.596-3.784l-27.871-5.703
		c-0.594-0.121-1.187-0.181-1.773-0.181c-3.544,0-6.823,2.142-8.186,5.539l-10.584,26.369c-1.377,3.43-4.679,5.54-8.19,5.54
		c-0.939,0-1.892-0.151-2.828-0.468l-10.418-3.525c-5.769-1.952-7.875-9.02-4.114-13.81l17.729-22.586
		c1.179-1.501,2.813-2.582,4.658-3.076l26.996-7.234c0.383-0.103,0.767-0.151,1.145-0.151c1.948,0,3.731,1.3,4.26,3.271
		c0.528,1.971,2.311,3.272,4.26,3.272c0.378,0,0.762-0.049,1.145-0.151l12.788-3.427c4.709-1.262,7.502-6.101,6.241-10.809
		l-2.284-8.526c-1.057-3.943-4.623-6.543-8.519-6.543c-0.757,0-1.525,0.097-2.29,0.302L154.12,73.105
		c-6.732,1.804-12.78,5.56-17.38,10.795l-11.32,12.88c-0.436,0.496-1.017,0.726-1.593,0.726c-0.908,0-1.799-0.575-2.07-1.582
		l-1.252-4.675c-1.057-3.943-4.623-6.544-8.519-6.544c-0.757,0-1.525,0.098-2.29,0.302l-13.519,3.623
		c-2.261,0.606-4.188,2.085-5.358,4.113l-7.039,12.193c-1.612,2.791-4.562,4.414-7.645,4.414c-0.941,0-1.895-0.151-2.828-0.467
		l-15.226-5.151c-0.936-0.317-1.893-0.468-2.84-0.468c-2.852,0-5.601,1.379-7.331,3.798c-0.003,0.004-0.017,0.002-0.021,0.007
		c-3.566,4.976-6.997,10.054-10.206,15.287c5.687,2.391,7.442,2.427,10.007,2.427l9.301-0.07l1.563-2.187l9.096,3.078
		c2.74,0.927,5.594,1.397,8.483,1.397c9.429,0,18.217-5.073,22.932-13.24l5.208-9.02l1.855-0.498
		c2.526,5.032,7.098,8.752,12.5,10.226c-1.162,4.574-1.102,9.443,0.281,14.083c2.449,8.222,8.764,14.773,16.89,17.521l10.418,3.525
		c2.743,0.928,5.598,1.399,8.485,1.399c3.921,0,7.681-0.848,11.076-2.405l-34.26,51.149c-1.995,2.979-3.341,6.294-4.003,9.735
		c-0.436-0.022-0.873-0.032-1.311-0.032c-2.311,0-4.617,0.303-6.852,0.902l-15.743,4.218c-8.572,2.297-15.387,8.687-18.229,17.091
		l-4.67,13.806c-1.646,4.864-1.813,10.049-0.597,14.917l-4.931-4.333c-6.174-5.426-14.101-8.414-22.321-8.414
		c-1.483,0-2.963,0.097-4.433,0.292L22.084,203.98l-6.847-11.42l-7.727,2.071c-1.563,6.355-2.884,12.804-3.962,19.336l3.397-0.91
		l28.41,47.386c2.194,3.659,6.117,5.799,10.236,5.799c1.026,0,2.064-0.132,3.09-0.408c1.38-0.37,2.786-0.551,4.182-0.551
		c3.88,0,7.684,1.399,10.668,4.021l14.661,12.885c1.615,1.42,3.688,2.197,5.826,2.197c0.189,0,0.378-0.005,0.568-0.019l36.954-2.383
		c0.19-0.012,0.38-0.019,0.568-0.019c2.515,0,4.923,1.075,6.603,2.97l6.611,7.454c1.699,1.915,4.115,2.97,6.604,2.97
		c0.761,0,1.528-0.098,2.284-0.3l11.781-3.157c0.765-0.205,1.533-0.302,2.29-0.302c3.897,0,7.463,2.6,8.519,6.544l1.338,4.993
		c0.606,2.261,0.289,4.67-0.881,6.698l-3.371,5.838c-0.685,1.187-1.084,2.516-1.167,3.884l-1.178,19.637
		c-0.222,3.69,1.882,7.128,5.268,8.613l42.24,18.507c2.456,1.076,4.289,3.209,4.983,5.8l18.921,70.616
		c0.354,1.324,1.012,2.546,1.922,3.571l34.28,38.658c1.699,1.916,4.115,2.97,6.604,2.97c0.76,0,1.528-0.098,2.284-0.3l1.718-0.46
		c5.268-1.411,8.007-7.216,5.749-12.18l-16.037-35.249c-1.18-2.595-1.035-5.599,0.391-8.068l20.864-36.138
		c1.171-2.027,1.487-4.436,0.881-6.698l-3.622-13.519c-1.262-4.709,1.532-9.547,6.241-10.809l10.905-2.922
		c3.669-0.983,6.297-4.204,6.526-7.996l2.56-42.64C314.458,306.974,312.009,303.333,308.238,302.058z M187.115,114.845l8.985,1.839
		l-1.295,0.346c-4.115,1.103-7.869,3.171-10.973,5.995L187.115,114.845z M294.421,346.179l-4.76,1.275
		c-6.831,1.831-12.542,6.212-16.077,12.337c-3.537,6.125-4.476,13.261-2.646,20.091l2.676,9.989l-19.035,32.97
		c-2.68,4.64-3.849,9.933-3.473,15.154l-1.639-1.849l-18.383-68.607c-2.094-7.811-7.542-14.152-14.949-17.397l-36.604-16.038
		l0.685-11.414l2.329-4.033c3.538-6.125,4.477-13.262,2.647-20.093l-1.338-4.994c-0.282-1.055-0.627-2.08-1.028-3.074
		c2.033,0.493,4.126,0.746,6.232,0.746c2.313,0,4.619-0.303,6.852-0.902l6.457-1.73l12.121,6.998
		c4.02,2.321,8.597,3.547,13.239,3.547c2.313,0,4.619-0.303,6.852-0.902l1.23-0.329l4.864,7.366
		c4.916,7.445,13.176,11.888,22.094,11.888c2.311,0,4.618-0.303,6.853-0.902l14.268-3.823l12.31,4.164L294.421,346.179z"/>
</g>
<g>
	<path style="fill:#8CE16E;" d="M84.586,284.364l36.954-2.383c0.19-0.012,0.38-0.019,0.568-0.019c2.515,0,4.923,1.075,6.603,2.97
		l6.611,7.455c1.699,1.915,4.115,2.97,6.604,2.97c0.761,0,1.528-0.098,2.284-0.3l1.305-0.35
		c-7.135-10.125-13.571-20.849-19.241-32.113c-0.388-0.052-0.767-0.146-1.164-0.146c-0.05,0-0.099,0-0.149,0.001l-19.019,0.32
		c-0.051,0.001-0.104,0.001-0.154,0.001c-6.021,0-10.294-5.921-8.355-11.653l4.67-13.806c0.945-2.796,3.226-4.934,6.077-5.697
		l4.614-1.237c-1.895-5.537-3.681-11.138-5.219-16.875l0,0l-3.962,1.061c-8.572,2.297-15.387,8.687-18.229,17.091l-4.67,13.806
		c-1.646,4.864-1.813,10.049-0.597,14.917l-4.931-4.333c-6.174-5.426-14.101-8.414-22.321-8.414c-1.483,0-2.963,0.097-4.433,0.292
		l-26.346-43.944l-6.847-11.42l-7.641,2.047c-0.093,0.374-0.218,0.736-0.31,1.11c-1.052,4.363-1.891,8.806-2.716,13.253
		c-0.313,1.663-0.687,3.31-0.966,4.981l3.339-0.896l28.41,47.386c2.194,3.659,6.117,5.799,10.236,5.799
		c1.026,0,2.064-0.132,3.09-0.408c1.38-0.37,2.786-0.551,4.182-0.551c3.88,0,7.684,1.399,10.668,4.021l14.661,12.885
		c1.615,1.42,3.688,2.197,5.826,2.197C84.206,284.382,84.396,284.376,84.586,284.364z"/>
	<path style="fill:#8CE16E;" d="M290.728,395.531c0.083-0.142,0.082-0.312,0.156-0.459c-5.839-1.513-11.62-3.203-17.32-5.117
		l-18.987,32.886c-2.68,4.64-3.849,9.933-3.473,15.154l-1.639-1.849l-17.223-64.273c-18.771-10.246-36.253-22.806-51.983-37.447
		l-0.73-0.32l0.02-0.328c-5.612-5.263-10.983-10.802-16.121-16.579c-0.276,0.779-0.658,1.527-0.708,2.355l-1.178,19.637
		c-0.222,3.69,1.882,7.128,5.268,8.613l42.24,18.507c2.456,1.076,4.289,3.209,4.983,5.8l18.921,70.616
		c0.354,1.324,1.012,2.546,1.922,3.571l34.28,38.658c1.699,1.916,4.115,2.97,6.604,2.97c0.76,0,1.528-0.098,2.284-0.3l1.718-0.46
		c5.268-1.411,8.007-7.216,5.749-12.18l-16.037-35.249c-1.18-2.595-1.035-5.599,0.391-8.068L290.728,395.531z"/>
	<path style="fill:#8CE16E;" d="M47.691,124.782l9.301-0.07l1.563-2.187l9.096,3.078c2.74,0.927,5.594,1.397,8.483,1.397
		c9.429,0,18.217-5.073,22.932-13.24l2.64-4.573c1.19-7.857,2.761-15.622,4.666-23.285l-10.197,2.733
		c-2.261,0.606-4.188,2.085-5.358,4.113l-7.037,12.186c-1.612,2.791-4.562,4.414-7.645,4.414c-0.941,0-1.895-0.151-2.828-0.467
		l-15.226-5.151c-0.936-0.317-1.893-0.468-2.84-0.468c-2.745,0-5.373,1.303-7.109,3.557c-3.636,5.072-7.129,10.242-10.386,15.56
		C43.374,124.739,45.137,124.782,47.691,124.782z"/>
</g>
<g>
</g>
<g>
</g>
<g>
</g>
<g>
</g>
<g>
</g>
<g>
</g>
<g>
</g>
<g>
</g>
<g>
</g>
<g>
</g>
<g>
</g>
<g>
</g>
<g>
</g>
<g>
</g>
<g>
</g>
</svg>
