<?xml version="1.0" encoding="iso-8859-1"?>
<!-- Generator: Adobe Illustrator 17.0.0, SVG Export Plug-In . SVG Version: 6.00 Build 0)  -->
<!DOCTYPE svg PUBLIC "-//W3C//DTD SVG 1.1//EN" "http://www.w3.org/Graphics/SVG/1.1/DTD/svg11.dtd">
<svg version="1.1" id="_x31_0_x5F_operation_x5F_process"
	 xmlns="http://www.w3.org/2000/svg" xmlns:xlink="http://www.w3.org/1999/xlink" x="0px" y="0px" width="64px" height="64px"
	 viewBox="0 0 64 64" style="enable-background:new 0 0 64 64;" xml:space="preserve">
<g>
	<g>
		<g>
			<g>
				<g>
					<path style="fill:none;stroke:#4F5F6F;stroke-width:2;stroke-miterlimit:10;" d="M38,43c0-1.572,1.215-2.849,2.755-2.975
						c-0.492-3.291-1.779-6.313-3.669-8.875C36.545,31.675,35.812,32,35,32c-1.656,0-3-1.344-3-3c0-0.812,0.325-1.545,0.85-2.086
						c-2.562-1.89-5.584-3.177-8.875-3.669C23.849,24.785,22.572,26,21,26s-2.849-1.215-2.975-2.755
						c-3.291,0.492-6.314,1.779-8.875,3.669C9.675,27.455,10,28.188,10,29c0,1.656-1.344,3-3,3c-0.812,0-1.545-0.325-2.086-0.85
						c-1.89,2.561-3.177,5.584-3.669,8.875C2.785,40.151,4,41.428,4,43s-1.215,2.849-2.755,2.975
						c0.492,3.291,1.779,6.313,3.669,8.875C5.455,54.325,6.188,54,7,54c1.656,0,3,1.344,3,3c0,0.812-0.325,1.545-0.85,2.086
						c2.561,1.89,5.584,3.177,8.875,3.669C18.151,61.215,19.428,60,21,60s2.849,1.215,2.975,2.755
						c3.291-0.492,6.313-1.779,8.875-3.669C32.325,58.545,32,57.812,32,57c0-1.656,1.344-3,3-3c0.812,0,1.545,0.325,2.086,0.85
						c1.89-2.562,3.177-5.584,3.669-8.875C39.215,45.849,38,44.572,38,43z"/>
					<circle style="fill:none;stroke:#4F5F6F;stroke-width:2;stroke-miterlimit:10;" cx="21" cy="43" r="9"/>
					<circle style="fill:none;stroke:#4F5F6F;stroke-width:2;stroke-miterlimit:10;" cx="21" cy="43" r="3"/>
				</g>
				<g>
					<path style="fill:none;stroke:#4F5F6F;stroke-width:2;stroke-miterlimit:10;" d="M60,16c0-1.555,1.188-2.819,2.703-2.971
						c-0.396-1.971-1.176-3.803-2.264-5.413C60.011,7.853,59.525,8,59,8c-1.656,0-3-1.344-3-3c0-0.525,0.146-1.011,0.384-1.44
						c-1.61-1.088-3.442-1.867-5.413-2.264C50.819,2.812,49.555,4,48,4s-2.819-1.188-2.971-2.703
						c-1.971,0.396-3.803,1.176-5.413,2.264C39.854,3.989,40,4.475,40,5c0,1.656-1.344,3-3,3c-0.525,0-1.011-0.147-1.439-0.384
						c-1.088,1.61-1.867,3.442-2.264,5.413C34.812,13.181,36,14.445,36,16s-1.188,2.819-2.703,2.971
						c0.396,1.971,1.176,3.803,2.264,5.413C35.989,24.146,36.475,24,37,24c1.656,0,3,1.344,3,3c0,0.525-0.146,1.011-0.384,1.44
						c1.61,1.088,3.442,1.867,5.413,2.264C45.181,29.188,46.445,28,48,28s2.819,1.188,2.971,2.703
						c1.971-0.396,3.803-1.176,5.413-2.264C56.146,28.011,56,27.525,56,27c0-1.656,1.344-3,3-3c0.525,0,1.011,0.146,1.439,0.384
						c1.088-1.61,1.867-3.442,2.264-5.413C61.188,18.819,60,17.555,60,16z"/>
					<circle style="fill:none;stroke:#4F5F6F;stroke-width:2;stroke-miterlimit:10;" cx="48" cy="16" r="4"/>
				</g>
			</g>
			<path style="fill:none;stroke:#4F5F6F;stroke-width:2;stroke-miterlimit:10;" d="M1,29v-1C2.031,11.811,17.551,1,34,1
				c1.666,0,2,0,2,0"/>
			<path style="fill:none;stroke:#4F5F6F;stroke-width:2;stroke-miterlimit:10;" d="M35,63h1c16.189-1.031,27-16.551,27-33
				c0-1.8,0-2,0-2"/>
		</g>
	</g>
</g>
</svg>
