<svg xmlns="http://www.w3.org/2000/svg" xmlns:xlink="http://www.w3.org/1999/xlink" id="_x30_8_x5F_market_x5F_analysis" x="0px" y="0px" width="64px" height="60px" viewBox="0 0 64 60" style="enable-background:new 0 0 64 60;" xml:space="preserve">
<g>
	<g>
		<g>
			
				<line style="fill:none;stroke:#fff;stroke-width:2;stroke-linejoin:round;stroke-miterlimit:10;" x1="11" y1="54" x2="11" y2="42"></line>
			
				<line style="fill:none;stroke:#fff;stroke-width:2;stroke-linejoin:round;stroke-miterlimit:10;" x1="15" y1="54" x2="15" y2="41"></line>
			<g>
				
					<line style="fill:none;stroke:#fff;stroke-width:2;stroke-linejoin:round;stroke-miterlimit:10;" x1="19" y1="54" x2="19" y2="37"></line>
			</g>
			<g>
				
					<line style="fill:none;stroke:#fff;stroke-width:2;stroke-linejoin:round;stroke-miterlimit:10;" x1="23" y1="54" x2="23" y2="35"></line>
			</g>
			<g>
				
					<line style="fill:none;stroke:#fff;stroke-width:2;stroke-linejoin:round;stroke-miterlimit:10;" x1="27" y1="54" x2="27" y2="34"></line>
			</g>
			<g>
				
					<line style="fill:none;stroke:#fff;stroke-width:2;stroke-linejoin:round;stroke-miterlimit:10;" x1="31" y1="54" x2="31" y2="30"></line>
			</g>
			<g>
				
					<line style="fill:none;stroke:#fff;stroke-width:2;stroke-linejoin:round;stroke-miterlimit:10;" x1="35" y1="54" x2="35" y2="30"></line>
			</g>
			<g>
				
					<line style="fill:none;stroke:#fff;stroke-width:2;stroke-linejoin:round;stroke-miterlimit:10;" x1="39" y1="54" x2="39" y2="30"></line>
			</g>
			<g>
				
					<line style="fill:none;stroke:#fff;stroke-width:2;stroke-linejoin:round;stroke-miterlimit:10;" x1="43" y1="54" x2="43" y2="22"></line>
			</g>
			<g>
				
					<line style="fill:none;stroke:#fff;stroke-width:2;stroke-linejoin:round;stroke-miterlimit:10;" x1="47" y1="54" x2="47" y2="22"></line>
			</g>
			<g>
				
					<line style="fill:none;stroke:#fff;stroke-width:2;stroke-linejoin:round;stroke-miterlimit:10;" x1="51" y1="54" x2="51" y2="22"></line>
			</g>
			<g>
				
					<line style="fill:none;stroke:#fff;stroke-width:2;stroke-linejoin:round;stroke-miterlimit:10;" x1="55" y1="54" x2="55" y2="18"></line>
			</g>
			<g>
				<polyline style="fill:none;stroke:#fff;stroke-width:2;stroke-linejoin:round;stroke-miterlimit:10;" points="63,54 63,13       59,13 55,18 50,22 43,22 39,30 36,30 32,29 26,35 20,35 16,41 11,41 7,46 7,54     "></polyline>
			</g>
		</g>
		
			<line style="fill:none;stroke:#fff;stroke-width:2;stroke-linejoin:round;stroke-miterlimit:10;" x1="59" y1="13" x2="59" y2="54"></line>
		
			<line style="fill:none;stroke:#fff;stroke-width:2;stroke-linejoin:round;stroke-miterlimit:10;" x1="7" y1="6" x2="7" y2="8"></line>
		
			<line style="fill:none;stroke:#fff;stroke-width:2;stroke-linejoin:round;stroke-miterlimit:10;" x1="7" y1="10" x2="7" y2="12"></line>
		
			<line style="fill:none;stroke:#fff;stroke-width:2;stroke-linejoin:round;stroke-miterlimit:10;" x1="7" y1="14" x2="7" y2="16"></line>
		
			<line style="fill:none;stroke:#fff;stroke-width:2;stroke-linejoin:round;stroke-miterlimit:10;" x1="7" y1="18" x2="7" y2="20"></line>
		
			<line style="fill:none;stroke:#fff;stroke-width:2;stroke-linejoin:round;stroke-miterlimit:10;" x1="10" y1="7" x2="28" y2="7"></line>
		
			<line style="fill:none;stroke:#fff;stroke-width:2;stroke-linejoin:round;stroke-miterlimit:10;" x1="10" y1="11" x2="28" y2="11"></line>
		
			<line style="fill:none;stroke:#fff;stroke-width:2;stroke-linejoin:round;stroke-miterlimit:10;" x1="10" y1="15" x2="28" y2="15"></line>
		
			<line style="fill:none;stroke:#fff;stroke-width:2;stroke-linejoin:round;stroke-miterlimit:10;" x1="10" y1="19" x2="28" y2="19"></line>
		<polyline style="fill:none;stroke:#fff;stroke-width:2;stroke-linejoin:round;stroke-miterlimit:10;" points="63,10 63,1 1,1     1,59 64,59   "></polyline>
	</g>
</g>
</svg>