<?xml version="1.0" encoding="iso-8859-1"?>
<!-- Generator: Adobe Illustrator 17.0.0, SVG Export Plug-In . SVG Version: 6.00 Build 0)  -->
<!DOCTYPE svg PUBLIC "-//W3C//DTD SVG 1.1//EN" "http://www.w3.org/Graphics/SVG/1.1/DTD/svg11.dtd">
<svg version="1.1" id="_x30_7_x5F_money_x5F_savings"
	 xmlns="http://www.w3.org/2000/svg" xmlns:xlink="http://www.w3.org/1999/xlink" x="0px" y="0px" width="64px" height="64px"
	 viewBox="0 0 64 64" style="enable-background:new 0 0 64 64;" xml:space="preserve">
<g>
	<g>
		<g>
			<circle style="fill:none;stroke:#fff;stroke-width:2;stroke-miterlimit:10;" cx="32" cy="20" r="19"/>
			<g>
				<path style="fill:none;stroke:#fff;stroke-width:2;stroke-miterlimit:10;" d="M36,16c0-2.209-1.791-4-4-4s-4,1.791-4,4
					s2,3,4,4s4,1.791,4,4s-1.791,4-4,4s-4-1.791-4-4"/>
				<line style="fill:none;stroke:#fff;stroke-width:2;stroke-miterlimit:10;" x1="32" y1="12" x2="32" y2="9"/>
				<line style="fill:none;stroke:#fff;stroke-width:2;stroke-miterlimit:10;" x1="32" y1="28" x2="32" y2="31"/>
			</g>
			<g>
				<path style="fill:none;stroke:#fff;stroke-width:2;stroke-miterlimit:10;" d="M14,45l-7-7v-1c0-1.656,1.344-3,3-3h1l10,10
					c2,2,2,5,2,5v8H12v-2c0,0,0-2-2-4l-7-7c-2-2-2-4-2-4V24c0-1.656,1.344-3,3-3c1.656,0,3,1.344,3,3v8"/>
				<path style="fill:none;stroke:#fff;stroke-width:2;stroke-miterlimit:10;" d="M50,45l7-7v-1c0-1.656-1.344-3-3-3h-1L43,44
					c-2,2-2,5-2,5v8h11v-2c0,0,0-2,2-4l7-7c2-2,2-4,2-4V24c0-1.656-1.344-3-3-3c-1.656,0-3,1.344-3,3v8"/>
				<path style="fill:none;stroke:#fff;stroke-width:2;stroke-miterlimit:10;" d="M39,64v-6c0-0.553,0.447-1,1-1h13
					c0.553,0,1,0.447,1,1v6"/>
				<path style="fill:none;stroke:#fff;stroke-width:2;stroke-miterlimit:10;" d="M10,64v-6c0-0.553,0.447-1,1-1h13
					c0.553,0,1,0.447,1,1v6"/>
			</g>
			<line style="fill:none;stroke:#fff;stroke-width:2;stroke-miterlimit:10;" x1="22" y1="20" x2="24" y2="20"/>
			<line style="fill:none;stroke:#fff;stroke-width:2;stroke-miterlimit:10;" x1="40" y1="20" x2="42" y2="20"/>
			<circle style="fill:none;stroke:#fff;stroke-width:2;stroke-miterlimit:10;" cx="32" cy="20" r="15"/>
		</g>
	</g>
</g>
</svg>
