<?xml version="1.0" encoding="utf-8" ?><svg xmlns="http://www.w3.org/2000/svg" xmlns:xlink="http://www.w3.org/1999/xlink" width="1024" height="1024" viewBox="0 0 1024 1024"><path fill="#C4DEF3" transform="scale(2 2)" d="M69.6775 264.022C69.3228 262.51 69.5614 256.055 69.5659 254.236C69.8134 153.899 155.506 66.833 256.222 68.4923L256.222 119.874L256.222 119.874C251.284 123.535 245.303 129.341 240.664 133.54L120.112 240.783L152.742 240.783L152.742 284.558C123.215 279.448 96.4711 265.934 69.6775 253.468C69.6954 256.985 69.7303 260.505 69.6775 264.022Z"/><path fill="#8FC4EA" transform="scale(2 2)" d="M256.222 68.4923C293.557 66.088 344.174 85.4562 371.854 109.116C353.569 119.737 336.466 133.432 323.944 150.725C323.024 151.995 321.277 154.714 320.216 155.715L315.211 151.232L315.211 172.146C307.16 165.244 299.395 158.121 291.43 151.129L263.99 126.574C262.352 125.107 257.826 120.836 256.222 119.874L256.222 68.4923Z"/><path fill="#6CB6E4" transform="scale(2 2)" d="M320.216 155.715C321.277 154.714 323.024 151.995 323.944 150.725C336.466 133.432 353.569 119.737 371.854 109.116C414.51 140.862 442.198 198.241 442.894 250.902C442.926 253.262 443.138 256.498 442.779 258.808C442.648 256.945 442.72 255.337 442.779 253.468C432.148 257.596 421.85 262.672 411.219 266.877C394.063 273.81 376.628 278.884 358.698 283.4L358.698 240.783L381.136 240.79C384.642 240.796 389.245 241.006 392.596 240.783C376.156 227.651 360.715 212.992 344.898 199.111C341.808 196.399 338.689 193.701 335.923 190.652C335.603 184.562 335.939 175.897 335.923 169.536C330.75 164.875 325.413 160.431 320.216 155.715Z"/><path fill="#54A5DC" transform="scale(2 2)" d="M256.222 119.874C257.826 120.836 262.352 125.107 263.99 126.574L291.43 151.129C299.395 158.121 307.16 165.244 315.211 172.146L315.211 151.232L320.216 155.715C325.413 160.431 330.75 164.875 335.923 169.536C335.939 175.897 335.603 184.562 335.923 190.652C338.689 193.701 341.808 196.399 344.898 199.111C360.715 212.992 376.156 227.651 392.596 240.783C389.245 241.006 384.642 240.796 381.136 240.79L358.698 240.783C354.791 240.954 349.536 240.787 345.512 240.786L319.525 240.783C298.615 240.782 277.073 241.052 256.222 240.783C255.973 236.57 256.218 229.335 256.218 224.937L256.223 143.914C256.221 136.111 256.015 127.597 256.222 119.874L256.222 119.874Z"/><path fill="#6CB6E4" transform="scale(2 2)" d="M120.112 240.783L240.664 133.54C245.303 129.341 251.284 123.535 256.222 119.874C256.015 127.597 256.221 136.111 256.223 143.914L256.218 224.937C256.218 229.335 255.973 236.57 256.222 240.783L152.742 240.783L120.112 240.783Z"/><path fill="#FEFEFE" transform="scale(2 2)" d="M152.742 240.783L256.222 240.783C256.319 247.635 257.476 299.256 256.222 303.982L232.285 303.982L232.285 370.312C232.292 372.455 232.327 374.661 232.285 376.798L152.742 376.798L152.742 284.558L152.742 240.783Z"/><path fill="#DDE2E5" transform="scale(2 2)" d="M256.222 240.783C277.073 241.052 298.615 240.782 319.525 240.783L345.512 240.786C349.536 240.787 354.791 240.954 358.698 240.783L358.698 283.4L358.698 376.798L279.837 376.798C279.837 363.254 280.226 347.823 279.837 334.41C280 331.648 279.853 327.293 279.851 324.424L279.837 303.982L256.222 303.982L256.222 303.982C257.476 299.256 256.319 247.635 256.222 240.783ZM315.097 275.124C308.339 276.191 303.713 282.519 304.748 289.283C305.784 296.046 312.091 300.701 318.859 299.697C325.671 298.686 330.363 292.329 329.321 285.521C328.279 278.713 321.9 274.051 315.097 275.124Z"/><path fill="#8FC4EA" transform="scale(2 2)" d="M69.6775 264.022C69.7303 260.505 69.6954 256.985 69.6775 253.468C96.4711 265.934 123.215 279.448 152.742 284.558L152.742 376.798C140.745 376.357 126.592 376.388 114.703 376.798C88.8556 349.461 70.7262 300.937 69.6775 264.022Z"/><path fill="#54A5DC" transform="scale(2 2)" d="M442.779 253.468C442.72 255.337 442.648 256.945 442.779 258.808C442.779 294.627 431.041 331.005 410.47 360.258C407.472 364.52 401.354 373.512 397.407 376.798C395.654 376.567 388.148 376.78 385.911 376.782L358.698 376.798L358.698 283.4C376.628 278.884 394.063 273.81 411.219 266.877C421.85 262.672 432.148 257.596 442.779 253.468Z"/><path fill="#C4DEF3" transform="scale(2 2)" d="M318.859 299.697C312.091 300.701 305.784 296.046 304.748 289.283C303.713 282.519 308.339 276.191 315.097 275.124C321.9 274.051 328.279 278.713 329.321 285.521C330.363 292.329 325.671 298.686 318.859 299.697Z"/><path fill="#095CAB" transform="scale(2 2)" d="M232.285 303.982L256.222 303.982L256.222 303.982C255.964 306.259 256.177 311.662 256.193 314.297L256.206 362.93C256.203 366.449 255.982 373.513 256.222 376.798L232.285 376.798C232.393 375.536 232.903 371.33 232.285 370.312L232.285 303.982Z"/><path fill="#033271" transform="scale(2 2)" d="M256.222 303.982L279.837 303.982L279.851 324.424C279.853 327.293 280 331.648 279.837 334.41C279.578 337.961 279.828 344.493 279.831 348.333L279.837 376.798C274.031 376.526 261.876 376.247 256.222 376.798C255.982 373.513 256.203 366.449 256.206 362.93L256.193 314.297C256.177 311.662 255.964 306.259 256.222 303.982Z"/><path fill="#095CAB" transform="scale(2 2)" d="M279.837 334.41C280.226 347.823 279.837 363.254 279.837 376.798L358.698 376.798L385.911 376.782C388.148 376.78 395.654 376.567 397.407 376.798C366.552 417.324 305.877 441.052 256.222 440.756L256.222 376.798C261.876 376.247 274.031 376.526 279.837 376.798L279.831 348.333C279.828 344.493 279.578 337.961 279.837 334.41Z"/><path fill="#1E6DAB" transform="scale(2 2)" d="M232.285 370.312C232.903 371.33 232.393 375.536 232.285 376.798L256.222 376.798L256.222 440.756C198.011 440.882 153.747 417.95 114.703 376.798C126.592 376.388 140.745 376.357 152.742 376.798L232.285 376.798C232.327 374.661 232.292 372.455 232.285 370.312Z"/></svg>