<?xml version="1.0" encoding="iso-8859-1"?>
<!-- Generator: Adobe Illustrator 17.0.0, SVG Export Plug-In . SVG Version: 6.00 Build 0)  -->
<!DOCTYPE svg PUBLIC "-//W3C//DTD SVG 1.1//EN" "http://www.w3.org/Graphics/SVG/1.1/DTD/svg11.dtd">
<svg version="1.1" id="_x30_7_x5F_piggy_x5F_bank" xmlns="http://www.w3.org/2000/svg" xmlns:xlink="http://www.w3.org/1999/xlink"
	 x="0px" y="0px" width="64px" height="64px" viewBox="0 0 64 64" style="enable-background:new 0 0 64 64;" xml:space="preserve">
<g>
	<g>
		<g>
			<path style="fill:none;stroke:#4F5F6F;stroke-width:2;stroke-miterlimit:10;" d="M16.001,54.369
				C12.037,51.726,9.112,48.119,7.787,44"/>
			<path style="fill:none;stroke:#4F5F6F;stroke-width:2;stroke-miterlimit:10;" d="M40,57.954C37.488,58.633,34.798,59,32,59
				c-2.796,0-5.484-0.367-7.994-1.045"/>
			<path style="fill:none;stroke:#4F5F6F;stroke-width:2;stroke-miterlimit:10;" d="M47,22.998C53.072,26.647,57,32.457,57,39
				c0,6.177-3.5,11.699-9,15.367"/>
			<path style="fill:none;stroke:#4F5F6F;stroke-width:2;stroke-miterlimit:10;" d="M11,44H3c-1.105,0-2-0.896-2-2v-6
				c0-1.104,0.895-2,2-2h4c1.092-3.391,4.054-6.556,7-9v-9l7,5c2.753-1.081,5-2,8-2"/>
			<path style="fill:none;stroke:#4F5F6F;stroke-width:2;stroke-miterlimit:10;" d="M30,23c5.629,0,11,1,15,4"/>
			<polyline style="fill:none;stroke:#4F5F6F;stroke-width:2;stroke-miterlimit:10;" points="24,55 24,63 16,63 16,50 			"/>
			<polyline style="fill:none;stroke:#4F5F6F;stroke-width:2;stroke-miterlimit:10;" points="48,50 48,63 40,63 40,55 			"/>
			<path style="fill:none;stroke:#4F5F6F;stroke-width:2;stroke-miterlimit:10;" d="M22,32c0,2.209-1.791,4-4,4s-4-1.791-4-4"/>
			<path style="fill:none;stroke:#4F5F6F;stroke-width:2;stroke-miterlimit:10;" d="M63,33c0,3.313-2.687,6-6,6"/>
			<g>
				<line style="fill:none;stroke:#4F5F6F;stroke-width:2;stroke-miterlimit:10;" x1="40" y1="6" x2="40" y2="0"/>
				<line style="fill:none;stroke:#4F5F6F;stroke-width:2;stroke-miterlimit:10;" x1="36" y1="12" x2="36" y2="6"/>
				<line style="fill:none;stroke:#4F5F6F;stroke-width:2;stroke-miterlimit:10;" x1="40" y1="8" x2="40" y2="10"/>
				<line style="fill:none;stroke:#4F5F6F;stroke-width:2;stroke-miterlimit:10;" x1="36" y1="2" x2="36" y2="4"/>
				<path style="fill:none;stroke:#4F5F6F;stroke-width:2;stroke-miterlimit:10;" d="M33.998,22.998C33.371,22.163,33,21.125,33,20
					c0-2.762,2.239-5,5-5c2.761,0,5,2.238,5,5c0,1.984-1.155,3.699-2.83,4.506"/>
			</g>
			<line style="fill:none;stroke:#4F5F6F;stroke-width:2;stroke-miterlimit:10;" x1="31" y1="51" x2="33" y2="51"/>
			<line style="fill:none;stroke:#4F5F6F;stroke-width:2;stroke-miterlimit:10;" x1="35" y1="51" x2="37" y2="51"/>
			<line style="fill:none;stroke:#4F5F6F;stroke-width:2;stroke-miterlimit:10;" x1="27" y1="51" x2="29" y2="51"/>
			<line style="fill:none;stroke:#4F5F6F;stroke-width:2;stroke-miterlimit:10;" x1="0" y1="63" x2="64" y2="63"/>
		</g>
	</g>
</g>
</svg>
