<svg xmlns="http://www.w3.org/2000/svg" viewBox="0 0 64 60"><defs><style>.cls-1{fill:none;stroke:#fff;stroke-miterlimit:10;stroke-width:2px;}</style></defs><g id="Layer_2" data-name="Layer 2"><g id="Layer_2_537" data-name="Layer 2,537"><polyline class="cls-1" points="14 59 1 59 1 1 63 1 63 59 50 59"></polyline><line class="cls-1" x1="1" y1="9" x2="63" y2="9"></line><line class="cls-1" x1="4" y1="5" x2="6" y2="5"></line><line class="cls-1" x1="8" y1="5" x2="10" y2="5"></line><line class="cls-1" x1="12" y1="5" x2="14" y2="5"></line><line class="cls-1" x1="17" y1="1" x2="17" y2="9"></line><line class="cls-1" x1="20" y1="5" x2="60" y2="5"></line><polyline class="cls-1" points="14 55 5 55 5 13 59 13 59 55 50 55"></polyline><rect class="cls-1" x="17" y="35" width="30" height="24" rx="3"></rect><path class="cls-1" d="M37,35V29a5,5,0,0,0-10,0v6"></path><path class="cls-1" d="M42,35V29a10,10,0,0,0-20,0v6"></path><line class="cls-1" x1="20" y1="55" x2="44" y2="55"></line><circle class="cls-1" cx="32" cy="44" r="3"></circle><line class="cls-1" x1="32" y1="47" x2="32" y2="50"></line></g></g></svg>