<svg xmlns="http://www.w3.org/2000/svg" viewBox="0 0 64 64"><defs><style>.cls-1{fill:none;stroke:#fff;stroke-miterlimit:10;stroke-width:2px;}</style></defs><g id="Layer_2" data-name="Layer 2"><g id="Layer_2_537" data-name="Layer 2,537"><rect class="cls-1" x="23" y="29" width="18" height="16" rx="2"></rect><path class="cls-1" d="M25,29V25a6,6,0,0,1,6-6h2a6,6,0,0,1,6,6v4"></path><circle class="cls-1" cx="32" cy="35" r="1"></circle><line class="cls-1" x1="32" y1="36" x2="32" y2="41"></line><line class="cls-1" x1="16" y1="32" x2="7" y2="32"></line><circle class="cls-1" cx="4" cy="32" r="3"></circle><line class="cls-1" x1="48" y1="32" x2="57" y2="32"></line><circle class="cls-1" cx="60" cy="32" r="3"></circle><path class="cls-1" d="M44,39h4a4,4,0,0,1,4,4v6"></path><circle class="cls-1" cx="52" cy="52" r="3"></circle><path class="cls-1" d="M20,39H16a4,4,0,0,0-4,4v6"></path><circle class="cls-1" cx="12" cy="52" r="3"></circle><path class="cls-1" d="M44,25h4a4,4,0,0,0,4-4V15"></path><circle class="cls-1" cx="52" cy="12" r="3"></circle><path class="cls-1" d="M20,25H16a4,4,0,0,1-4-4V15"></path><circle class="cls-1" cx="12" cy="12" r="3"></circle><circle class="cls-1" cx="26" cy="52" r="3"></circle><line class="cls-1" x1="26" y1="55" x2="26" y2="64"></line><circle class="cls-1" cx="38" cy="52" r="3"></circle><line class="cls-1" x1="38" y1="55" x2="38" y2="64"></line><circle class="cls-1" cx="26" cy="12" r="3"></circle><line class="cls-1" x1="26" y1="9" x2="26"></line><circle class="cls-1" cx="38" cy="12" r="3"></circle><line class="cls-1" x1="38" y1="9" x2="38"></line><line class="cls-1" x1="44" y1="32" x2="46" y2="32"></line><line class="cls-1" x1="20" y1="32" x2="18" y2="32"></line></g></g></svg>