<svg xmlns="http://www.w3.org/2000/svg" viewBox="0 0 64 64"><defs><style>.cls-1{fill:none;stroke:#fff;stroke-linejoin:round;stroke-width:2px;}</style></defs><g id="Layer_2" data-name="Layer 2"><g id="Layer_2_537" data-name="Layer 2,537"><polyline class="cls-1" points="9 17 9 1 19 6 22 1 42 1 45 6 55 1 55 17"></polyline><polyline class="cls-1" points="55 41 55 46 32 63 9 46 9 41"></polyline><line class="cls-1" x1="51" y1="17" x2="51" y2="3"></line><polyline class="cls-1" points="13 41 13 44 32 58 51 44 51 41"></polyline><line class="cls-1" x1="13" y1="3" x2="13" y2="17"></line><line class="cls-1" x1="19" y1="6" x2="19" y2="11"></line><line class="cls-1" x1="45" y1="6" x2="45" y2="11"></line><polyline class="cls-1" points="24 34 9 34 9 20 24 20"></polyline><polyline class="cls-1" points="40 20 55 20 55 34 40 34"></polyline><polyline class="cls-1" points="55 34 51 38 63 38 59 31 63 24 55 24"></polyline><polyline class="cls-1" points="9 34 13 38 1 38 5 31 1 24 9 24"></polyline><circle class="cls-1" cx="32" cy="27" r="11"></circle><polygon class="cls-1" points="32 21.55 33.12 25 36.76 25 33.82 27.36 34.94 30.93 32 28.85 29.06 31.02 30.18 27.35 27.24 25 30.88 25 32 21.55"></polygon><polygon class="cls-1" points="32 24.45 32.5 26 34.13 26 32.81 27.11 33.31 28.73 32 27.82 30.69 28.79 31.19 27.1 29.87 26 31.5 26 32 24.45"></polygon><line class="cls-1" x1="35" y1="10" x2="37" y2="10"></line><line class="cls-1" x1="27" y1="10" x2="29" y2="10"></line><line class="cls-1" x1="31" y1="10" x2="33" y2="10"></line><line class="cls-1" x1="35" y1="44" x2="37" y2="44"></line><line class="cls-1" x1="27" y1="44" x2="29" y2="44"></line><line class="cls-1" x1="31" y1="44" x2="33" y2="44"></line></g></g></svg>