<?xml version="1.0" encoding="utf-8" ?><svg xmlns="http://www.w3.org/2000/svg" xmlns:xlink="http://www.w3.org/1999/xlink" width="1064" height="1064" viewBox="0 0 1064 1064"><path fill="white" transform="scale(1.03881 1.03881)" d="M0 0L114.06 0L125.97 0L158.211 0L879.543 0L879.413 202.172C876.879 224.687 880.893 405.613 878.66 408.969C886.396 409.457 896.07 416.886 901.977 421.897C902.703 422.514 903.21 424.412 903.506 425.304L903.406 425.523L904.215 428.352C899.073 428.922 891.307 428.755 885.934 428.786L855.16 428.885L757.983 428.954C757.967 431.138 757.286 444.607 758.855 445.282C757.606 446.509 758.133 445.777 757.78 447.977C760.376 450.925 810.272 446.796 815.885 449.313C796.556 449.474 777.211 449.123 757.89 449.379L757.985 562.478C757.993 568.523 757.973 574.655 757.995 580.692C758.042 593.857 758.968 604.894 746.654 613.353L811.285 660.752C820.623 667.621 830.012 675.259 839.353 681.933C844.79 680.051 850.233 677.579 855.713 675.547C885.247 664.479 918.877 663.045 946.501 646.964C956.516 641.134 966.422 629.29 976.19 621.933C977.725 621.047 979.33 620.21 980.895 619.371C997.095 612.003 1006.58 610.051 1024 607.377L1024 632.543L1024 737.832L1024 880.933L1024 1024L968.55 1024L866.503 1024L599.067 1024L271.611 1024L267.105 1024L207.57 1024L203.412 1024L186.197 1024L181.938 1024L165.668 1024L160.834 1024L144.138 1024L139.184 1024L20.042 1024L16.5157 1024L0 1024L0 979.12L0 914.955L0 831.335L0 828.991L0 817.99L0 815.825L0 804.973L0 802.446L0 792.006L0 789.75L0 780.04L0 777.795L0 753.604L0 751.039L0 740.135L0 616.004L0 447.053L0 430.582L0 427.507L0 412.822L0 0Z"/><path fill="#86A1E2" transform="scale(1.03881 1.03881)" d="M87.8784 562.722C147.728 561.956 210.113 562.236 269.975 562.608L269.832 581.832C269.746 594.673 269.592 600.724 278.442 610.718C290.747 622.102 298.643 620.577 314.345 620.417C321.79 620.347 329.235 620.375 336.68 620.501C374.212 620.941 410.165 620.497 447.569 620.475L622.711 620.52L677.276 620.584C695.193 620.611 731.483 622.318 746.654 613.353L811.285 660.752C820.623 667.621 830.012 675.259 839.353 681.933C844.79 680.051 850.233 677.579 855.713 675.547C885.247 664.479 918.877 663.045 946.501 646.964C956.516 641.134 966.422 629.29 976.19 621.933C977.725 621.047 979.33 620.21 980.895 619.371C997.095 612.003 1006.58 610.051 1024 607.377L1024 632.543L1024 737.832L1024 880.933L1024 1024L968.55 1024L866.503 1024L599.067 1024L271.611 1024L267.105 1024L207.57 1024L203.412 1024L186.197 1024L181.938 1024L165.668 1024L160.834 1024L144.138 1024L139.184 1024L20.042 1024L16.5157 1024L0 1024L0 979.12L0 914.955L0 831.335L0 828.991L0 817.99L0 815.825L0 804.973L0 802.446L0 792.006L0 789.75L0 780.04L0 777.795L0 753.604L0 751.039L0 740.135L0 616.004C3.22903 614.335 6.43122 612.147 9.54589 610.232C27.3325 599.291 45.5654 589.137 63.2405 577.989C71.4283 572.824 79.9025 568.268 87.8784 562.722Z"/><path fill="#86A1E2" transform="scale(1.03881 1.03881)" d="M1024 607.377L1024 632.543L1024 737.832L1024 880.933L1024 1024L968.55 1024L866.503 1024L599.067 1024C603.985 1009.95 627.656 983.271 637.375 971.486C637.776 970.658 638.137 969.806 638.507 968.963C641.419 967.835 647.086 956.682 648.332 953.562C648.497 952.966 649.093 951.615 649.352 950.976C650.265 946.297 653.725 939.854 654.078 936.102C649.794 936.02 621.319 936.536 619.713 935.675L619.319 933.711C621.501 933.391 629.247 933.564 632.018 933.568L655.608 933.485C662.207 917.941 670.549 904.781 682.421 892.658C686.296 888.701 694.768 881.248 697.627 877.157L698.474 874.548C700.482 871.943 703.76 863.493 705.103 860.054C705.737 858.871 705.796 858.382 706.136 857.091C707.322 855.58 712.46 845.146 713.361 842.974C704.751 843.012 695.936 843.145 687.348 842.907C695.392 842.271 705.385 843.471 713.235 842.176C713.965 842.056 714.349 840.839 714.784 840.001C716.339 836.064 718.459 831.811 720.132 827.657C696.115 827.546 672.099 827.568 648.082 827.721C636.594 827.774 624.948 827.876 613.448 827.983C611.546 828.001 608.341 827.411 606.944 825.884L607.151 825.165C611.031 822.964 641.32 823.672 648.135 823.657C672.879 823.538 697.623 823.634 722.365 823.945C725.906 816.611 734.315 804.303 738.908 797.485C740.723 794.181 742.385 790.71 744.056 787.324C745.142 785.34 745.559 785.362 745.458 783.478L744.099 783.112C744.483 782.936 745.608 782.758 746.08 782.664C748.067 780.863 754.973 768.653 755.636 765.925L754.668 765.336C755.304 765.212 756.528 764.925 756.904 764.401C763.483 755.209 769.779 745.239 775.977 735.812C777.058 734.774 778.911 731.717 779.816 730.327C795.643 707.063 813.117 692.242 839.353 681.933C844.79 680.051 850.233 677.579 855.713 675.547C885.247 664.479 918.877 663.045 946.501 646.964C956.516 641.134 966.422 629.29 976.19 621.933C977.725 621.047 979.33 620.21 980.895 619.371C997.095 612.003 1006.58 610.051 1024 607.377Z"/><path fill="#446ED2" transform="scale(1.03881 1.03881)" d="M913.326 883.017C915.138 880.33 917.516 873.258 918.811 869.882C939.807 815.14 969.552 764.619 1024 737.832L1024 880.933L1024 1024L968.55 1024L866.503 1024C874.673 1001.71 882.242 975.767 889.933 953.229C892.115 946.834 910.743 892.913 910.617 890.148C912.324 887.534 912.607 885.966 913.326 883.017Z"/><path fill="#234493" transform="scale(1.03881 1.03881)" d="M968.55 1024C969.842 1021 971.207 1017.54 972.244 1014.45C985.262 975.582 999.875 937.126 1015.72 899.328C1018.24 893.297 1021.02 886.752 1024 880.933L1024 1024L968.55 1024Z"/><path fill="#86A1E2" transform="scale(1.03881 1.03881)" d="M844.293 725.032C854.607 721.155 863.381 716.28 874.53 712.807C887.399 708.798 905.343 705.166 916.778 698.944C923.999 695.015 932.599 688.195 940.355 683.648C953.487 675.95 966.846 669.323 979.583 661.063C986.593 656.517 991.852 650.689 998.101 646.203C1004.71 641.46 1016.54 636.12 1024 632.543L1024 737.832C969.552 764.619 939.807 815.14 918.811 869.882C917.516 873.258 915.138 880.33 913.326 883.017C899.223 819.129 886.875 776.05 844.293 725.032Z"/><path fill="#B8C8EE" transform="scale(1.03881 1.03881)" d="M1024 607.377L1024 632.543C1016.54 636.12 1004.71 641.46 998.101 646.203C991.852 650.689 986.593 656.517 979.583 661.063C966.846 669.323 953.487 675.95 940.355 683.648C932.599 688.195 923.999 695.015 916.778 698.944C905.343 705.166 887.399 708.798 874.53 712.807C863.381 716.28 854.607 721.155 844.293 725.032C840.779 721.592 824.293 704.906 820.337 704.929C818.929 706.299 819.314 705.502 819.024 707.341C820.173 709.32 836.852 723.34 840.421 727.448C837.301 730.413 831.396 733.852 827.642 736.421C818.142 742.875 808.422 749.577 800.231 757.685C791.191 766.633 784.544 777.892 776.793 787.85C756.816 813.516 740.241 841.029 721.039 867.248C722.553 858.571 724.003 851.516 726.255 843.448C728.21 836.442 739.143 802.653 738.908 797.485C740.723 794.181 742.385 790.71 744.056 787.324C745.142 785.34 745.559 785.362 745.458 783.478L744.099 783.112C744.483 782.936 745.608 782.758 746.08 782.664C748.067 780.863 754.973 768.653 755.636 765.925L754.668 765.336C755.304 765.212 756.528 764.925 756.904 764.401C763.483 755.209 769.779 745.239 775.977 735.812C777.058 734.774 778.911 731.717 779.816 730.327C795.643 707.063 813.117 692.242 839.353 681.933C844.79 680.051 850.233 677.579 855.713 675.547C885.247 664.479 918.877 663.045 946.501 646.964C956.516 641.134 966.422 629.29 976.19 621.933C977.725 621.047 979.33 620.21 980.895 619.371C997.095 612.003 1006.58 610.051 1024 607.377Z"/><path fill="#234493" transform="scale(1.03881 1.03881)" d="M840.421 727.448C836.852 723.34 820.173 709.32 819.024 707.341C819.314 705.502 818.929 706.299 820.337 704.929C824.293 704.906 840.779 721.592 844.293 725.032C886.875 776.05 899.223 819.129 913.326 883.017C912.607 885.966 912.324 887.534 910.617 890.148C908.183 885.588 901.971 855.419 900.009 847.914C888.087 802.324 871.04 763.453 840.421 727.448Z"/><path fill="#234493" transform="scale(1.03881 1.03881)" d="M619.319 933.711C630.038 934.652 645.232 933.066 654.61 934.089L654.958 934.76L654.078 936.102C649.794 936.02 621.319 936.536 619.713 935.675L619.319 933.711Z"/><path fill="white" transform="scale(1.03881 1.03881)" d="M365.319 766.523C366.326 765.548 410.893 766.342 416.019 766.32L598.525 765.18L697.666 765.226C716.666 765.399 735.668 765.436 754.668 765.336L755.636 765.925C754.973 768.653 748.067 780.863 746.08 782.664C745.608 782.758 744.483 782.936 744.099 783.112L745.458 783.478C745.559 785.362 745.142 785.34 744.056 787.324C742.385 790.71 740.723 794.181 738.908 797.485C734.315 804.303 725.906 816.611 722.365 823.945C697.623 823.634 672.879 823.538 648.135 823.657C641.32 823.672 611.031 822.964 607.151 825.165L606.944 825.884C608.341 827.411 611.546 828.001 613.448 827.983C624.948 827.876 636.594 827.774 648.082 827.721C672.099 827.568 696.115 827.546 720.132 827.657C718.459 831.811 716.339 836.064 714.784 840.001C714.349 840.839 713.965 842.056 713.235 842.176C705.385 843.471 695.392 842.271 687.348 842.907C695.936 843.145 704.751 843.012 713.361 842.974C712.46 845.146 707.322 855.58 706.136 857.091C705.796 858.382 705.737 858.871 705.103 860.054C703.76 863.493 700.482 871.943 698.474 874.548L697.627 877.157C694.768 881.248 686.296 888.701 682.421 892.658C670.549 904.781 662.207 917.941 655.608 933.485L632.018 933.568C629.247 933.564 621.501 933.391 619.319 933.711L619.713 935.675C621.319 936.536 649.794 936.02 654.078 936.102C653.725 939.854 650.265 946.297 649.352 950.976C649.093 951.615 648.497 952.966 648.332 953.562C647.086 956.682 641.419 967.835 638.507 968.963C638.137 969.806 637.776 970.658 637.375 971.486C627.656 983.271 603.985 1009.95 599.067 1024L271.611 1024L267.105 1024C270.044 1017.39 273.624 1007.14 276.295 1000.13C283.71 980.611 290.885 961.005 297.819 941.312C299.193 937.478 300.666 933.655 302.162 929.866C317.307 891.524 330.257 852.413 345.268 814.01C349.649 801.083 356.627 780.523 362.19 767.398C362.622 766.38 364.218 766.556 365.319 766.523Z"/><path fill="#234493" transform="scale(1.03881 1.03881)" d="M744.099 783.112L745.458 783.478C745.559 785.362 745.142 785.34 744.056 787.324C734.596 786.983 723.874 787.364 714.308 787.409L661.182 787.53L492.244 787.678L446.72 787.629C442.171 787.639 425.272 789.057 423.442 785.661L424.001 784.47C426.164 782.537 447.062 783.525 451.057 783.519L507.927 783.518L669.476 783.394L717.114 783.428C724.688 783.432 736.237 783.746 743.491 783.166L744.099 783.112Z"/><path fill="#234493" transform="scale(1.03881 1.03881)" d="M345.268 814.01C349.649 801.083 356.627 780.523 362.19 767.398C362.622 766.38 364.218 766.556 365.319 766.523C366.093 771.293 358.141 789.962 356.001 795.788C350.063 812.436 343.959 829.025 337.692 845.553L286.193 985.309C281.912 996.819 275.167 1012.71 271.611 1024L267.105 1024C270.044 1017.39 273.624 1007.14 276.295 1000.13C283.71 980.611 290.885 961.005 297.819 941.312C299.193 937.478 300.666 933.655 302.162 929.866C317.307 891.524 330.257 852.413 345.268 814.01Z"/><path fill="#234493" transform="scale(1.03881 1.03881)" d="M687.348 842.907L633.652 843.147C626.59 843.175 619.442 843.176 612.372 843.478C610.976 843.537 609.684 842.749 608.614 841.911L608.658 841.099C612.195 839.475 638.549 840.217 643.901 840.19L714.784 840.001C714.349 840.839 713.965 842.056 713.235 842.176C705.385 843.471 695.392 842.271 687.348 842.907Z"/><path fill="#234493" transform="scale(1.03881 1.03881)" d="M697.627 877.157L635.063 877.033C630.191 877.013 616.889 877.577 613.062 876.792L612.745 875.93L613.375 875.131C615.704 874.374 635.422 874.78 639.139 874.775L698.474 874.548L697.627 877.157Z"/><path fill="#234493" transform="scale(1.03881 1.03881)" d="M705.103 860.054C697.677 860.014 677.087 861.123 671.382 858.952L670.906 857.819L671.009 858.725L671.138 857.729L670.88 858.627L671.503 857.637C675.595 856.862 700.067 857.117 706.136 857.091C705.796 858.382 705.737 858.871 705.103 860.054Z"/><path fill="#234493" transform="scale(1.03881 1.03881)" d="M648.332 953.562C643.625 953.533 625.928 954.016 622.497 953.165L622.014 952.173L622.365 951.245C624.145 950.514 645.783 950.957 649.352 950.976C649.093 951.615 648.497 952.966 648.332 953.562Z"/><path fill="#234493" transform="scale(1.03881 1.03881)" d="M637.375 971.486C635.003 971.534 626.485 972.228 625.298 970.096C627.937 968.239 635.04 968.857 638.507 968.963C638.137 969.806 637.776 970.658 637.375 971.486Z"/><path fill="#86A1E2" transform="scale(1.03881 1.03881)" d="M533.262 826.596C534.84 826.816 534.793 826.819 536.248 827.486C537.133 828.994 537.374 848.583 537.481 851.932L539.445 923.039C539.686 932.077 541.623 970.15 539.907 976.866C538.485 976.709 537.802 976.779 536.675 975.903C535.521 973.447 535.45 947.024 535.362 942.702L534.098 885.46L532.91 848.9C532.758 843.535 532.149 831.432 533.262 826.596Z"/><path fill="#86A1E2" transform="scale(1.03881 1.03881)" d="M464.806 832.865C466.849 833.212 467.505 833.028 468.474 834.753C468.506 839.849 467.673 847.43 467.242 852.707L464.692 884.7C463.231 906.42 461.66 928.132 459.979 949.836C459.563 955.144 458.434 973.047 457.127 976.759C455.552 976.596 455.134 976.706 453.823 975.835C452.873 973.811 456.462 937.132 456.91 931.4L461.105 873.241C461.534 867.747 463.612 836.301 464.806 832.865Z"/><path fill="#86A1E2" transform="scale(1.03881 1.03881)" d="M399.892 838.723C402.007 838.909 402.122 838.928 403.356 840.136C403.599 842.274 375.665 971.084 373.598 976.328C372.774 976.467 372.331 976.41 371.49 976.402L370.684 975.499C370.064 971.971 375.795 949.572 376.949 944.242C381.891 920.516 386.977 896.821 392.205 873.157C393.545 867.011 397.872 842.451 399.892 838.723Z"/><path fill="#86A1E2" transform="scale(1.03881 1.03881)" d="M557.703 842.734C559.685 842.796 560.045 842.819 561.146 844.281C561.502 846.872 561.698 849.455 561.812 852.065C562.427 866.212 562.826 880.398 563.358 894.548L564.83 938.154C565.071 943.736 567.026 973.024 565.767 976.308C564.654 976.235 562.55 976.006 562.433 974.492C559.175 932.065 559.363 889.326 557.045 846.812C556.954 845.136 557.016 844.229 557.703 842.734Z"/><path fill="#86A1E2" transform="scale(1.03881 1.03881)" d="M419.792 858.732C421.083 859.029 421.092 859.091 422.262 859.752C422.964 861.808 421.065 871.244 420.609 873.948C418.923 884.018 417.169 894.077 415.349 904.123L407.004 950.256C406.01 955.665 403.407 974.36 400.502 977.337C398.462 976.216 399.129 976.993 398.146 975.202C398.257 971.872 399.915 963.753 400.551 960.195L406.119 929.769L415.279 880.566C416.032 876.48 418.055 861.417 419.792 858.732Z"/><path fill="#86A1E2" transform="scale(1.03881 1.03881)" d="M510.318 866.675C511.605 866.856 511.825 866.96 513.064 867.399C514.548 869.328 513.538 898.595 513.52 902.841L513.519 950.566C513.514 955.661 514.094 973.956 512.473 977.048C510.339 976.747 509.927 976.871 508.914 975.104C508.02 943.35 509.241 911.039 509.032 879.232C509.007 875.362 508.864 870.198 510.318 866.675Z"/><path fill="#86A1E2" transform="scale(1.03881 1.03881)" d="M366.963 884.677C368.578 885.051 368.767 884.978 370.117 885.993C370.615 887.489 369.275 891.762 368.799 893.37C361.882 916.705 356.484 940.446 350.25 963.967C349.182 967.995 348.278 972.984 346.452 976.685C344.61 976.476 344.207 976.64 343.161 975.293C343.115 973.305 364.811 889.274 366.963 884.677Z"/><path fill="#86A1E2" transform="scale(1.03881 1.03881)" d="M484.38 909.131C484.992 909.168 487.463 909.447 487.426 910.173C486.732 924.144 487.805 964.836 484.072 976.702C481.623 976.352 481.521 976.662 480.325 975.164C480.251 973.032 481.222 955.939 481.482 953.645C482.317 946.266 482.607 914.278 484.38 909.131Z"/><path fill="#86A1E2" transform="scale(1.03881 1.03881)" d="M434.912 912.567C435.524 912.676 438.105 913.219 437.988 914.033C435.853 928.972 433.941 962.958 428.946 976.216C428.543 976.219 427.861 976.239 427.48 976.174C426.895 976.075 426.23 975.904 425.953 975.339C424.683 972.756 433.452 918.05 434.912 912.567Z"/><path fill="#234493" transform="scale(1.03881 1.03881)" d="M611.129 857.073C616.801 856.748 624.389 857 630.186 856.926C634.926 856.866 643.879 856.654 648.213 857.259C649.477 858.357 649.077 858.027 649.456 860.108C644.353 859.964 613.193 860.705 611.36 859.297L611.129 857.073Z"/><path fill="#446ED2" transform="scale(1.03881 1.03881)" d="M278.442 610.718C290.747 622.102 298.643 620.577 314.345 620.417C321.79 620.347 329.235 620.375 336.68 620.501C374.212 620.941 410.165 620.497 447.569 620.475L622.711 620.52L677.276 620.584C695.193 620.611 731.483 622.318 746.654 613.353L811.285 660.752C820.623 667.621 830.012 675.259 839.353 681.933C813.117 692.242 795.643 707.063 779.816 730.327C778.911 731.717 777.058 734.774 775.977 735.812C760.831 736.174 744.656 735.942 729.428 735.949L645.251 735.964L400.341 735.99L248.082 735.532C232.859 735.502 217.636 735.564 202.414 735.718C193.623 735.797 184.358 736.022 175.595 735.676C169.631 735.44 164.538 732.315 159.98 728.702C153.844 723.79 152.12 715.535 157.935 709.487C163.08 704.136 170.106 698.951 175.912 694.213L205.21 670.261L248.625 634.766C257.151 627.743 269.561 616.968 278.442 610.718Z"/><path fill="#234493" transform="scale(1.03881 1.03881)" d="M159.98 728.702C162.474 728.985 165.086 730.784 166.921 730.878C175.615 731.322 184.453 731.134 193.167 731.081C212.054 731.015 230.939 730.853 249.824 730.593L371.153 730.533L618.196 730.514L721.757 730.53C740.934 730.51 760.671 730.718 779.816 730.327C778.911 731.717 777.058 734.774 775.977 735.812C760.831 736.174 744.656 735.942 729.428 735.949L645.251 735.964L400.341 735.99L248.082 735.532C232.859 735.502 217.636 735.564 202.414 735.718C193.623 735.797 184.358 736.022 175.595 735.676C169.631 735.44 164.538 732.315 159.98 728.702Z"/><path fill="#234493" transform="scale(1.03881 1.03881)" d="M289.87 624.957C325.316 623.089 362.888 628.117 399.019 626.238L399.645 626.413C405.409 625.513 426.196 625.99 433.196 626.001L501.128 625.993C579.454 626.268 657.78 625.933 736.1 624.989C741.189 628.731 747.629 636.017 752.099 640.675C756.259 645.011 770.175 656.383 769.497 662.089C768.878 662.815 767.343 664.542 766.564 664.576C746.906 665.443 719.394 664.73 700.335 664.803C583.743 665.31 467.148 665.202 350.557 664.477C340.976 664.43 261.754 664.964 258.914 663.519C257.836 662.97 257.364 662.352 257.111 661.218C257.663 659.191 258.865 656.969 260.315 655.468C270.066 645.371 279.929 634.832 289.87 624.957Z"/><path fill="#446ED2" transform="scale(1.03881 1.03881)" d="M445.035 641.555C445.863 640.187 445.99 639.995 446.125 638.405C446.379 638.165 446.633 637.925 446.888 637.685C454.486 637.532 462.095 637.694 469.693 637.676L467.491 640.884C464.839 640.939 462.185 640.905 459.57 641.299C461.907 641.754 464.035 642.188 466.36 642.758C466.334 644.434 466.612 644.4 465.822 645.574C452.023 645.91 437.887 645.248 423.97 645.476C411.55 645.681 396.432 646.59 384.044 645.907C386.669 642.852 388.447 640.939 391.355 638.168C401.534 638.1 414.119 637.698 424.161 638.084C421.779 640.877 420.748 641.254 417.463 642.715L417.38 643.099C418.68 643.058 419.594 643.112 420.841 642.705C422.034 641.462 425.136 639.026 426.67 637.647C430.487 637.604 441.38 637.482 444.619 638.06C444.83 639.335 444.918 640.277 445.035 641.555Z"/><defs><linearGradient id="gradient_0" gradientUnits="userSpaceOnUse" x1="433.39661" y1="643.24316" x2="433.00012" y2="637.85291"><stop offset="0" stop-color="#2F4A96"/><stop offset="1" stop-color="#4763B0"/></linearGradient></defs><path fill="url(#gradient_0)" transform="scale(1.03881 1.03881)" d="M426.67 637.647C430.487 637.604 441.38 637.482 444.619 638.06C444.83 639.335 444.918 640.277 445.035 641.555C443.414 643.32 443.087 643.657 440.508 642.915C438.871 640.543 442.081 641.541 439.983 640.184L439.119 641.77C434.326 641.876 428.827 641.164 424.325 641.558C426.03 642.833 435.878 641.253 437.26 642.433C434.79 643.176 423.351 643.371 420.841 642.705C422.034 641.462 425.136 639.026 426.67 637.647Z"/><path fill="#446ED2" transform="scale(1.03881 1.03881)" d="M399.019 626.238L399.645 626.413L400.034 627.094L398.672 629.913L397.795 630.777C396.453 632.361 393.801 635.306 392.747 636.912L391.355 638.168C388.447 640.939 386.669 642.852 384.044 645.907L382.634 645.69C384.511 643.163 386.404 640.648 388.313 638.144C380.774 637.746 371.041 638.154 363.296 638.25L362.984 637.668L365.503 637.281C368.375 633.76 371.811 630.755 375.404 627.995C381.56 627.861 391.517 627.506 397.456 628.133L399.019 626.238Z"/><path fill="#234493" transform="scale(1.03881 1.03881)" d="M399.019 626.238L399.645 626.413L400.034 627.094L398.672 629.913L397.795 630.777C396.453 632.361 393.801 635.306 392.747 636.912L391.355 638.168C388.447 640.939 386.669 642.852 384.044 645.907L382.634 645.69C384.511 643.163 386.404 640.648 388.313 638.144C380.774 637.746 371.041 638.154 363.296 638.25L362.984 637.668L365.503 637.281C370.633 636.343 383.246 636.424 388.737 636.781C390.324 635.316 391.877 633.662 393.389 632.107L394.164 630.82C395.669 630.463 396.376 629.334 397.456 628.133L399.019 626.238Z"/><path fill="#234493" transform="scale(1.03881 1.03881)" d="M393.389 632.107C389.319 629.968 379.49 631.724 377.385 630.282C379.623 629.35 391.071 630.356 394.164 630.82L393.389 632.107Z"/><path fill="#446ED2" transform="scale(1.03881 1.03881)" d="M363.296 638.25C371.041 638.154 380.774 637.746 388.313 638.144C386.404 640.648 384.511 643.163 382.634 645.69C379.157 647.285 373.334 645.145 371.976 645.312C365.725 646.078 361.476 646.067 355.217 646.039C357.967 643.502 360.66 640.905 363.296 638.25Z"/><path fill="#446ED2" transform="scale(1.03881 1.03881)" d="M397.795 630.777C403.773 630.862 409.228 630.894 415.208 630.694C412.518 633.142 411.85 633.905 409.679 636.831C404.44 636.565 397.981 636.424 392.747 636.912C393.801 635.306 396.453 632.361 397.795 630.777Z"/><path fill="#446ED2" transform="scale(1.03881 1.03881)" d="M400.034 627.094C403.998 627 413.292 626.204 416.382 627.911L416.494 628.642C413.594 631.151 402.277 630.676 398.672 629.913L400.034 627.094Z"/><path fill="#446ED2" transform="scale(1.03881 1.03881)" d="M470.831 637.813C480.861 637.06 493.856 638.229 504.153 637.959C510.38 637.796 516.292 637.4 522.501 637.089C526.563 636.885 531.899 637.379 535.79 636.92C536.295 635.791 535.942 636.221 536.748 635.553C538.828 636.334 538.155 638.391 540.497 639.516L541.197 639.258L540.206 637.501C541.107 636.747 551.558 636.999 553.661 636.983L556.502 637.088C560.999 637.05 575.345 636.668 579.118 637.356C579.759 638.517 579.999 638.95 580.463 640.182L580.175 640.691C584.166 640.91 587.986 640.793 591.904 640.938L595.525 646.276C590.387 646.224 585.248 646.236 580.111 646.312C578.816 645.025 576.461 642.527 575.048 641.599L575.32 646.069C569.427 645.805 559.654 646.049 553.719 646.184C551.404 644.062 551.406 643.956 551.888 641.229L549.399 641.102C548.283 642.27 551.286 643.856 550.908 645.867C548.274 646.241 534.363 646.76 532.749 645.74L532.066 642.237C528.569 638.002 521.096 645.45 519.905 638.512C518.698 637.507 519.406 637.863 517.512 637.887C516.707 638.907 517.05 638.376 516.983 640.059C519.749 643.196 524.995 640.274 529.897 642.583C531.079 644.059 530.827 643.261 530.905 644.972C528.654 646.722 515.964 645.971 512.319 645.913C510.312 637.578 507.274 641.194 500.835 639.557L501.149 640.494C504.21 642.363 508.504 638.519 510.411 643.632L509.932 644.542C506.817 646.27 493.646 645.641 488.856 645.833C488.405 643.882 488.25 643.008 487.464 641.195C486.716 642.579 486.892 644.137 486.836 645.825C482.56 645.779 478.36 645.895 474.089 645.987C465.699 646.169 467.733 642.542 470.831 637.813Z"/><defs><linearGradient id="gradient_1" gradientUnits="userSpaceOnUse" x1="575.75989" y1="636.30219" x2="578.85797" y2="648.66827"><stop offset="0" stop-color="#2E418C"/><stop offset="1" stop-color="#4568B2"/></linearGradient></defs><path fill="url(#gradient_1)" transform="scale(1.03881 1.03881)" d="M575.048 641.599L574.786 641.024C570.007 641.305 564.868 640.38 560.31 641.102C560.625 642.854 560.836 642.117 560.077 643.459L559.052 643.523C558.337 642.163 558.296 641.994 556.947 641.257C560.307 638.892 557.385 640.733 558.685 638.039L560.036 637.894C560.176 638.222 560.411 638.81 560.604 639.091C562.059 641.207 577.112 639.785 580.463 640.182L580.175 640.691C584.166 640.91 587.986 640.793 591.904 640.938L595.525 646.276C590.387 646.224 585.248 646.236 580.111 646.312C578.816 645.025 576.461 642.527 575.048 641.599Z"/><path fill="#234493" transform="scale(1.03881 1.03881)" d="M479.681 641.151C481.815 640.87 484.711 640.632 485.609 642.98C483.642 642.557 481.596 641.808 479.681 641.151Z"/><path fill="#446ED2" transform="scale(1.03881 1.03881)" d="M645.2 627.683C650.487 627.691 658.096 627.471 663.158 628.16C664.097 629.228 664.809 630.018 665.845 631.02L666.455 631.002L665.123 628.614C666.387 627.219 680.075 628.057 682.653 628.097L692.308 635.969C686.256 636.259 679.944 636.398 673.867 636.201C671.827 636.135 671.837 633.688 670.396 634.686L670.834 635.776C667.182 636.892 659.634 636.318 655.63 636.269C655.492 636.47 655.353 636.671 655.214 636.871L655.654 637.443C662.414 637.314 668.634 637.212 675.386 637.445L680.45 641.694C676.847 642.766 664.639 642.29 660.283 640.583C660.471 641.451 660.32 640.96 660.835 642.023L660.573 642.427C657.139 640.257 651.118 641.397 646.99 641.114C643.562 640.88 639.927 640.753 636.48 640.544C629.447 641.203 585.697 641.54 581.472 639.517L581.489 637.736C582.972 636.739 646.464 637.361 654.778 637.549C652.5 635.134 650.21 632.774 648.103 630.208C647.256 629.494 645.924 628.451 645.2 627.683Z"/><path fill="#446ED2" transform="scale(1.03881 1.03881)" d="M498.215 649.899C497.75 648.22 497.688 648.766 497.891 647.18C501.291 646.673 513.033 647.038 517.037 647.095C529.378 647.351 541.72 647.484 554.063 647.495L556.78 647.599C556.946 647.832 557.203 648.04 557.239 648.324C556.142 651.068 558.09 653.365 559.502 655.906C553.268 655.789 547.592 655.689 541.356 655.932C539.923 653.21 538.461 650.504 536.97 647.814C537.46 650.24 538.135 652.601 537.869 655.021C536.548 655.913 522.08 656.233 521.235 654.858L519.888 654.989C517.674 656.163 502.346 655.945 499.586 655.479L499.164 654.823C499.018 652.957 498.935 652.658 499.379 650.772C499.228 650.594 498.439 650.06 498.215 649.899Z"/><path fill="#446ED2" transform="scale(1.03881 1.03881)" d="M499.379 650.772C505.526 651.417 511.13 650.131 517.452 650.247L519.888 654.989C517.674 656.163 502.346 655.945 499.586 655.479L499.164 654.823C499.018 652.957 498.935 652.658 499.379 650.772Z"/><path fill="#234493" transform="scale(1.03881 1.03881)" d="M498.215 649.899C505.441 650.107 511.876 649.624 518.732 649.745C519.581 651.675 520.2 653.024 521.235 654.858L519.888 654.989L517.452 650.247C511.13 650.131 505.526 651.417 499.379 650.772C499.228 650.594 498.439 650.06 498.215 649.899Z"/><path fill="#446ED2" transform="scale(1.03881 1.03881)" d="M420.381 646.724L428.845 646.663C426.755 648.902 423.901 652.869 421.957 655.417C415.523 654.931 407.454 655.471 400.729 655.436L400.312 654.98L401.164 653.315L400.591 652.966L398.799 655.142C396.692 655.787 389.706 655.361 387.071 655.314C383.521 655.361 379.78 655.256 376.213 655.21C378.768 652.573 381.361 649.973 383.99 647.411C389.164 646.963 399.094 646.722 404.188 647.198L404.435 648.187C406.915 649.987 416.526 646.916 420.381 646.724Z"/><path fill="#446ED2" transform="scale(1.03881 1.03881)" d="M553.719 646.184C559.654 646.049 569.427 645.805 575.32 646.069C573.613 646.254 572.338 646.135 571.032 646.981C571.354 647.055 571.675 647.128 571.997 647.202C574.013 647.423 574.243 647.603 575.823 648.884L576.399 648.756L576.98 647.698C579.138 647.258 593.194 647.538 596.292 647.563L601.834 655.591C594.092 655.522 586.349 655.539 578.607 655.642C574.837 655.72 565.372 656.183 562.087 655.737L561.577 655.036C560.466 652.066 559.706 650.3 557.239 648.324C557.203 648.04 556.946 647.832 556.78 647.599L554.063 647.495L553.719 646.184Z"/><defs><linearGradient id="gradient_2" gradientUnits="userSpaceOnUse" x1="566.31659" y1="645.44415" x2="567.18341" y2="655.55585"><stop offset="0" stop-color="#2E478D"/><stop offset="1" stop-color="#4569B6"/></linearGradient></defs><path fill="url(#gradient_2)" transform="scale(1.03881 1.03881)" d="M553.719 646.184C559.654 646.049 569.427 645.805 575.32 646.069C573.613 646.254 572.338 646.135 571.032 646.981C571.354 647.055 571.675 647.128 571.997 647.202C568.708 648.13 562.574 647.444 558.813 647.766C563.242 647.943 579.701 647.065 579.223 653.9C576.031 656.495 566.231 653.905 561.577 655.036C560.466 652.066 559.706 650.3 557.239 648.324C557.203 648.04 556.946 647.832 556.78 647.599L554.063 647.495L553.719 646.184Z"/><path fill="#446ED2" transform="scale(1.03881 1.03881)" d="M476.128 636.462C476.541 634.27 476.305 632.097 478.364 631.178L478.05 630.727C477.318 629.655 476.754 629.141 476.798 627.893L477.314 627.335C484.545 627.334 505.789 626.705 511.894 627.659C512.56 628.581 512.244 629.843 512.219 631.287L511.96 631.869L513.709 631.876C514.226 633.966 514.227 634.036 514.24 636.196C511.051 636.95 499.333 637.27 496.945 634.555C497.5 633.428 497.669 633.32 498.758 632.701L498.774 632.115L497.526 631.991L496.933 632.53C497.139 633.942 497.465 635.034 497.001 636.353L495.992 636.785C494.378 636.286 495.038 636.735 493.998 635.31C494.052 633.029 494.234 632.704 494.956 630.483L494.902 628.719C493.466 628.382 494.18 628.475 492.527 629.003C491.677 630.536 492.271 634.475 492.24 636.454L476.128 636.462Z"/><path fill="#446ED2" transform="scale(1.03881 1.03881)" d="M512.219 631.287L511.96 631.869L513.709 631.876C514.226 633.966 514.227 634.036 514.24 636.196C511.051 636.95 499.333 637.27 496.945 634.555C497.5 633.428 497.669 633.32 498.758 632.701L498.774 632.115L497.526 631.991L496.933 632.53C497.139 633.942 497.465 635.034 497.001 636.353L495.992 636.785C494.378 636.286 495.038 636.735 493.998 635.31C494.052 633.029 494.234 632.704 494.956 630.483C497.705 632.846 507.627 629.731 512.219 631.287Z"/><path fill="#446ED2" transform="scale(1.03881 1.03881)" d="M730.636 642.907C734.533 644.768 742.964 652.777 746.481 655.97C739.243 655.981 731.898 656.059 724.671 655.974C721.354 652.006 715.585 646.463 712.988 643.068C718.751 642.884 724.718 643.089 730.636 642.907Z"/><path fill="#446ED2" transform="scale(1.03881 1.03881)" d="M345.624 628.044C354.512 627.895 363.578 627.637 372.448 627.925C367.64 630.593 365.717 633.42 361.538 636.522C352.863 636.541 343.595 636.719 334.969 636.41C337.841 633.3 342.102 630.385 345.624 628.044Z"/><path fill="#446ED2" transform="scale(1.03881 1.03881)" d="M322.117 647.754C328.499 647.507 343.944 647.252 349.863 647.76C347.657 650.142 344.705 655.143 342.125 655.504L313.12 655.514C315.459 653.158 319.226 648.978 322.117 647.754Z"/><path fill="#446ED2" transform="scale(1.03881 1.03881)" d="M692.317 647.551L693.234 647.207C691.353 646.9 687.562 646.546 686.445 645.029L686.423 644.814C688.164 644.88 688.675 645.77 690.096 645.883C695.255 646.294 700.519 645.719 705.664 645.786C710.013 645.842 711.373 644.22 713.781 648.016L721.464 655.761C713.812 655.869 706.159 655.911 698.507 655.886C697.095 653.414 694.17 650.11 692.317 647.551Z"/><path fill="#234493" transform="scale(1.03881 1.03881)" d="M692.317 647.551L693.234 647.207C691.353 646.9 687.562 646.546 686.445 645.029L686.423 644.814C688.164 644.88 688.675 645.77 690.096 645.883C695.255 646.294 700.519 645.719 705.664 645.786C710.013 645.842 711.373 644.22 713.781 648.016C706.827 646.96 699.326 648.133 692.317 647.551Z"/><path fill="#446ED2" transform="scale(1.03881 1.03881)" d="M335.294 637.987C342.873 637.954 352.603 637.639 360.092 637.972C358.262 640.093 354.002 643.904 351.827 645.967L323.999 646.069C327.123 643.149 331.367 638.214 335.294 637.987Z"/><path fill="#446ED2" transform="scale(1.03881 1.03881)" d="M379.789 647.223L380.314 647.442C379.553 648.986 374.532 653.742 373.001 655.27L347.999 655.384L347.375 655.233C348.355 653.176 352.121 649.371 353.825 647.513C362.48 647.588 371.137 647.492 379.789 647.223Z"/><path fill="#446ED2" transform="scale(1.03881 1.03881)" d="M289.912 648.013L317.66 648.007C316.068 649.772 311.536 654.938 309.539 655.438L281.02 655.513C283.918 653.204 286.988 650.431 289.912 648.013Z"/><path fill="#446ED2" transform="scale(1.03881 1.03881)" d="M431.159 647.085L454.069 646.945C452.938 648.578 452.057 650.056 451.036 651.764L450.665 652.131L448.755 655.942C440.611 655.959 432.466 655.92 424.322 655.826C426.778 652.668 428.335 650.11 431.159 647.085Z"/><path fill="#234493" transform="scale(1.03881 1.03881)" d="M450.665 652.131C443.462 652.25 437.296 652.731 429.985 652.126L430.003 651.818C433.605 651.094 447.344 651.146 451.036 651.764L450.665 652.131Z"/><path fill="#446ED2" transform="scale(1.03881 1.03881)" d="M591.582 630.408L592.433 629.778C590.294 629.318 589.959 629.611 588.575 628.365L588.776 627.652C594.186 627.354 622.732 626.9 625.847 628.115C626.894 629.223 626.627 628.592 626.775 630.025C624.993 630.642 609.796 629.853 606.531 630.069C608.117 632.258 609.848 634 611.698 635.952C605.47 636.161 600.877 636.366 594.635 635.99C593.072 634.248 592.034 633.265 590.924 631.18L591.582 630.408Z"/><path fill="#446ED2" transform="scale(1.03881 1.03881)" d="M591.582 630.408C596.351 630.963 601.736 630.463 606.531 630.069C608.117 632.258 609.848 634 611.698 635.952C605.47 636.161 600.877 636.366 594.635 635.99C593.072 634.248 592.034 633.265 590.924 631.18L591.582 630.408Z"/><path fill="#446ED2" transform="scale(1.03881 1.03881)" d="M456.179 647.08C461.725 646.989 469.523 646.506 474.956 647.555C476.003 647.757 475.765 647.849 476.275 648.89C476.047 650.38 476.105 650.288 475.121 651.423L475.139 652.003C475.553 653.765 475.381 653.941 474.812 655.197C472.289 655.899 455.02 655.544 451.58 655.525C452.628 652.387 454.287 649.749 456.179 647.08Z"/><path fill="#234493" transform="scale(1.03881 1.03881)" d="M475.139 652.003C469.101 652.055 463.039 652.209 457.011 651.778C454.362 651.589 457.88 651.249 455.443 651.562L455.426 651.535C458.277 650.611 471.654 651.139 475.121 651.423L475.139 652.003Z"/><path fill="#446ED2" transform="scale(1.03881 1.03881)" d="M305.18 639.163C311.752 638.688 320.284 638.943 326.909 639.011C324.616 641.657 322.561 643.549 320.011 645.941L315.125 646.144C307.903 646.242 299.667 646.528 292.557 646.073C297.277 642.675 299.566 640.666 305.18 639.163Z"/><path fill="#446ED2" transform="scale(1.03881 1.03881)" d="M598.132 647.72C605.336 647.568 612.542 647.608 619.743 647.84C620.901 649.399 624.709 654.04 624.773 655.635C617.994 655.851 610.51 655.733 603.654 655.782C602.051 653.23 599.873 650.245 598.132 647.72Z"/><path fill="#446ED2" transform="scale(1.03881 1.03881)" d="M622.904 647.65C629.055 647.27 637.838 647.536 644.116 647.554C645.839 650.092 648.128 652.358 650.197 655.402C643.546 655.671 635.648 655.489 628.9 655.504C626.864 652.804 624.818 650.493 622.904 647.65Z"/><path fill="#446ED2" transform="scale(1.03881 1.03881)" d="M489.118 647.285C491.17 647.179 494.977 646.722 496.68 647.459C497.112 649.763 497.928 653.042 497.689 655.264C495.477 655.927 490.173 655.644 487.625 655.61L476.866 655.62C477.422 652.335 477.499 650.791 477.61 647.495C481.409 647.523 485.35 647.634 489.118 647.285Z"/><path fill="#446ED2" transform="scale(1.03881 1.03881)" d="M669.391 647.761C675.682 647.846 681.877 647.518 688.164 647.934C690.846 650.567 693.352 652.947 695.763 655.837C689.583 656.105 681.714 655.877 675.401 655.878C674.042 654.069 670.132 649.503 669.391 647.761Z"/><path fill="#446ED2" transform="scale(1.03881 1.03881)" d="M437.612 627.103L462.141 627.098C465.262 627.093 472.686 626.889 475.466 627.376C475.431 628.637 475.408 629.124 475.592 630.384L475.729 631.286L475.414 630.56C472.8 631.343 458.729 631.737 456.507 630.821C455.922 629.914 455.967 629.941 455.238 629.133L453.897 630.91C452.186 631.481 438.061 631.351 436.62 630.733L437.612 627.103Z"/><path fill="#446ED2" transform="scale(1.03881 1.03881)" d="M531.653 628.507C534.38 626.39 578.225 627.962 584.856 627.739C585.588 627.714 586.716 628.141 587.354 628.642C585.499 632.739 556.998 628.585 551.475 630.575C547.15 631.193 537.363 629.691 532.817 629.994L531.653 628.507Z"/><path fill="#446ED2" transform="scale(1.03881 1.03881)" d="M648.457 647.748C654.341 647.656 660.226 647.712 666.108 647.914L673.085 655.506L653.399 655.613L648.296 648.439L648.457 647.748Z"/><path fill="#446ED2" transform="scale(1.03881 1.03881)" d="M703.822 634.988L722.543 634.86C725.215 637.234 727.861 639.636 730.481 642.067C724.349 641.97 718.217 641.975 712.086 642.081C711.113 641.505 710.498 640.932 709.626 640.218C709.324 639.607 708.521 638.815 708.031 638.266C706.333 636.672 705.788 636.229 703.822 634.988Z"/><path fill="#446ED2" transform="scale(1.03881 1.03881)" d="M645.352 629.754C647.592 631.497 649.696 633.959 651.652 636.068C646.288 636.563 640.519 636.398 635.108 636.323C633.539 635.867 629.39 631.299 627.801 629.75L645.352 629.754Z"/><path fill="#446ED2" transform="scale(1.03881 1.03881)" d="M638.331 642.095C644.309 641.876 654.891 641.323 660.573 642.427C660.838 644.408 663.124 645.648 664.699 646.799C659.089 646.664 648.028 646.371 642.789 646.936C641.72 645.258 639.789 643.53 638.331 642.095Z"/><path fill="#446ED2" transform="scale(1.03881 1.03881)" d="M551.475 630.575C551.862 630.672 552.927 630.877 553.188 631.076L556.417 636.162L556.502 637.088L553.661 636.983L554.039 635.975C549.948 636.094 542.068 636.525 538.399 635.733C537.146 634.167 536.2 632.635 535.12 630.96C538.634 630.807 547.278 630.33 550.429 631.111L551.475 630.575Z"/><path fill="#234493" transform="scale(1.03881 1.03881)" d="M551.475 630.575C551.862 630.672 552.927 630.877 553.188 631.076L556.417 636.162L556.502 637.088L553.661 636.983L554.039 635.975C552.236 633.979 551.767 633.427 550.429 631.111L551.475 630.575Z"/><path fill="#446ED2" transform="scale(1.03881 1.03881)" d="M609.42 630.929C615.464 630.68 621.516 630.708 627.558 631.013C629.16 632.634 630.261 634.184 631.631 635.991C626.262 636.44 620.157 636.32 614.716 636.34L609.42 630.929Z"/><path fill="#446ED2" transform="scale(1.03881 1.03881)" d="M435.599 631.735C440.597 632.306 450.244 630.493 453.336 632.571C453.669 634.3 453.143 634.614 452.36 636.598C445.528 636.532 439.07 636.498 432.244 636.72L435.599 631.735Z"/><path fill="#446ED2" transform="scale(1.03881 1.03881)" d="M553.188 631.076C557.438 630.429 567.497 629.656 570.91 632.362C571.791 633.06 572.742 634.983 573.279 636.021C568.005 636.051 561.599 635.931 556.417 636.162L553.188 631.076Z"/><path fill="#446ED2" transform="scale(1.03881 1.03881)" d="M598.129 641.701C602.93 641.803 607.9 641.746 612.715 641.755C614.453 642.742 617.523 644.162 618.128 645.881L616.874 646.176C610.832 646.546 604.705 646.446 598.646 646.436C598.375 646.038 598.109 645.637 597.847 645.233C596.888 643.733 596.468 643.395 596.778 642.015L598.129 641.701Z"/><path fill="#446ED2" transform="scale(1.03881 1.03881)" d="M417.574 631.441C419.098 631.134 432.005 631.741 434.623 631.763C432.82 633.627 432.095 634.225 430.818 636.496C425.777 636.503 417.645 636.302 412.911 636.975C414.324 635.142 416.055 633.216 417.574 631.441Z"/><path fill="#446ED2" transform="scale(1.03881 1.03881)" d="M618.209 641.882C625.549 644.274 633.83 637.468 641.469 646.466C639.766 646.811 623.731 646.481 621.243 646.457L618.209 641.882Z"/><path fill="#446ED2" transform="scale(1.03881 1.03881)" d="M455.779 631.867C459.333 631.803 470.413 631.383 473.157 632.134C473.719 633.69 473.465 634.863 473.336 636.523C468.839 636.552 459.46 636.822 455.384 636.34C454.918 635.022 455.484 633.333 455.779 631.867Z"/><path fill="#446ED2" transform="scale(1.03881 1.03881)" d="M676.467 637.048C682.375 637.088 688.464 637.047 694.354 637.289C695.797 638.639 698.087 640.459 698.752 642.186C694.537 641.885 687.321 642.019 682.896 641.979C680.731 640.225 678.703 638.7 676.467 637.048Z"/><path fill="#446ED2" transform="scale(1.03881 1.03881)" d="M572.395 630.997C576.452 630.533 583.392 630.747 587.682 630.755L591.17 635.964C586.762 636.264 579.39 636.093 574.795 636.109L572.395 630.997Z"/><path fill="#446ED2" transform="scale(1.03881 1.03881)" d="M515.363 631.833C520.973 631.937 527.802 630.873 532.989 632.37C534.287 632.745 534.884 634.842 535.408 636.179C530.267 636.212 521.261 636.526 516.467 636.005C515.38 634.686 515.506 633.569 515.363 631.833Z"/><path fill="#446ED2" transform="scale(1.03881 1.03881)" d="M532.817 629.994C532.765 630.591 532.864 630.243 532.233 630.909C529.523 631.207 515.228 631.918 513.61 630.661C513.576 628.821 513.243 628.674 514.099 627.472C518.405 627.704 529.542 626.692 531.653 628.507L532.817 629.994Z"/><path fill="#234493" transform="scale(1.03881 1.03881)" d="M709.626 640.218C709.382 640.803 709.243 641.188 709.037 641.779L707.891 642.272L707.2 641.78C706.571 640.384 705.645 638.841 705.706 637.446C706.547 637.767 707.185 637.988 708.031 638.266C708.521 638.815 709.324 639.607 709.626 640.218Z"/><path fill="#234493" transform="scale(1.03881 1.03881)" d="M498.933 675.74C510.333 675.682 553.879 674.466 562.053 677.093C563.823 677.661 564.699 678.382 565.876 679.802C569.774 684.505 572.816 690.328 576.304 695.391C581.353 702.721 589.017 711.735 592.89 719.427C592.856 721.066 593.137 720.366 591.976 721.577C586.728 723.071 534.757 721.951 526.718 721.915L464.537 722.086C458.783 722.117 437.459 722.634 432.939 721.532L432.463 720.621C435.34 712.774 452.481 689.701 457.291 681.607C462.009 673.67 489.188 675.845 498.933 675.74Z"/><path fill="#446ED2" transform="scale(1.03881 1.03881)" d="M467.964 681.744C478.381 681.17 491.217 681.441 501.778 681.447L557.742 681.622C560.322 685.073 564.359 691.715 566.808 695.506L555.125 695.638C522.753 695.622 488.502 696.357 456.321 695.808C458.76 691.986 463.898 682.825 467.964 681.744Z"/><path fill="#B8C8EE" transform="scale(1.03881 1.03881)" d="M124.707 813.975L345.268 814.01C330.257 852.413 317.307 891.524 302.162 929.866C300.666 933.655 299.193 937.478 297.819 941.312C290.885 961.005 283.71 980.611 276.295 1000.13C273.624 1007.14 270.044 1017.39 267.105 1024L207.57 1024L203.412 1024L186.197 1024L181.938 1024L165.668 1024L160.834 1024L144.138 1024L139.184 1024L20.042 1024L16.5157 1024L0 1024L0 979.12C33 935.365 64.59 890.035 98.9077 847.24C107.289 836.79 115.986 823.731 124.707 813.975Z"/><path fill="#86A1E2" transform="scale(1.03881 1.03881)" d="M181.938 1024C186.951 1013.97 191.487 1003.45 196.371 993.314L254.433 871.935C259.24 862.094 263.629 852.037 268.287 842.124C269.053 840.494 269.255 840.332 270.581 839.624C272.116 840.132 271.531 839.659 272.314 841.185C272.334 845.221 244.257 901.653 240.194 910.189L186.197 1024L181.938 1024Z"/><path fill="#86A1E2" transform="scale(1.03881 1.03881)" d="M139.184 1024C147.839 1008 155.986 990.604 164.152 974.242L205.473 891.646C213.75 874.974 222.021 858.252 230.399 841.646C230.949 840.554 231.663 839.91 232.777 839.482C235.389 840.697 233.594 844.024 232.614 846.101C226.437 859.196 219.297 871.798 212.888 884.778L160.146 991.145C157.398 996.683 145.659 1019.08 144.138 1024L139.184 1024Z"/><path fill="#86A1E2" transform="scale(1.03881 1.03881)" d="M160.834 1024C173.791 995.673 188.784 968.296 201.929 940.032C216.812 908.03 232.591 876.392 248.108 844.692C249.037 842.794 251.025 840.31 253.128 839.688C254.847 842.438 247.664 853.115 246.319 856.277C243.532 862.831 240.287 869.318 237.193 875.736L191.654 969.308C185.717 981.272 179.88 993.284 174.143 1005.34C172.301 1009.2 166.806 1020.33 165.668 1024L160.834 1024Z"/><path fill="#86A1E2" transform="scale(1.03881 1.03881)" d="M203.412 1024C211.364 1006.81 284.448 844.649 289.489 840.164L290.5 840.498C291.181 841.975 290.824 843.596 290.183 845.034C279.733 868.466 268.439 891.765 257.627 915.025L221.445 993.813C216.803 1003.86 212.485 1014.1 207.57 1024L203.412 1024Z"/><path fill="#446ED2" transform="scale(1.03881 1.03881)" d="M16.5157 1024L101.7 892.979L127.324 853.414C128.763 851.217 135.475 840.341 136.938 839.515C138.265 839.962 137.795 839.522 138.485 840.734C137.277 844.857 119.515 870.48 116.091 875.803L47.8031 981.051C39.281 994.271 27.6984 1010.95 20.042 1024L16.5157 1024Z"/><path fill="#86A1E2" transform="scale(1.03881 1.03881)" d="M213.296 838.642C214.685 839.044 214.268 838.925 215.525 839.786C215.749 842.91 193.593 884.147 190.436 890.312C188.927 889.911 189.011 889.956 187.745 889.045C187.063 886.441 210.737 843.146 213.296 838.642Z"/><path fill="white" transform="scale(1.03881 1.03881)" d="M0 740.135C40.199 740.098 80.8979 739.715 121.043 740.164C112.141 754.433 99.9107 770.952 90.2148 785.098L24.4995 880.252C16.7772 891.334 7.1616 903.846 0 914.955L0 831.335L0 828.991L0 817.99L0 815.825L0 804.973L0 802.446L0 792.006L0 789.75L0 780.04L0 777.795L0 753.604L0 751.039L0 740.135Z"/><path fill="#234493" transform="scale(1.03881 1.03881)" d="M0 777.795C14.5089 777.841 29.018 777.811 43.5266 777.704C48.5749 777.675 64.9072 776.884 68.5433 778.486L68.862 779.083C68.0651 780.003 67.8566 780.496 66.2333 780.421C60.0005 780.133 53.7064 780.157 47.476 780.131L0 780.04L0 777.795Z"/><path fill="#234493" transform="scale(1.03881 1.03881)" d="M0 751.039C7.27404 751.038 57.417 749.896 60.1797 752.417C58.7034 753.938 55.9268 753.698 53.8059 753.703C35.8811 753.746 17.9277 753.66 0 753.604L0 751.039Z"/><path fill="#234493" transform="scale(1.03881 1.03881)" d="M0 789.75L41.2771 789.801C45.1248 789.804 59.0692 789.076 61.3991 790.51L61.2345 791.405C59.5485 792.56 43.9932 792.022 40.8617 792.02L0 792.006L0 789.75Z"/><path fill="#234493" transform="scale(1.03881 1.03881)" d="M0 802.446C6.41024 802.448 48.5724 801.811 51.6933 802.965L52.4359 803.74C51.202 805.662 38.3552 804.973 35.4459 804.975L0 804.973L0 802.446Z"/><path fill="#234493" transform="scale(1.03881 1.03881)" d="M0 815.825C8.85026 815.827 17.7004 815.774 26.55 815.666C29.9549 815.614 42.045 814.877 44.0666 816.239L44.361 816.842C42.7336 818.746 31.8316 817.88 28.8797 817.882L0 817.99L0 815.825Z"/><path fill="#234493" transform="scale(1.03881 1.03881)" d="M0 828.991C3.86202 828.988 33.5919 828.612 34.6262 829.544C31.0545 832.281 6.09824 831.088 0 831.335L0 828.991Z"/><path fill="#234493" transform="scale(1.03881 1.03881)" d="M269.519 413.024L269.563 335.17C269.564 328.165 269.441 321.103 269.509 314.127C269.585 306.396 268.584 297.578 274.302 291.485C277.877 287.676 281.435 286.009 286.614 285.888C295.511 285.681 304.39 285.841 313.277 285.807L368.765 285.596L536.909 285.496L673.921 285.604L716.522 285.566C726.85 285.53 743.768 283.286 751.683 290.43C754.002 292.523 756.995 298.405 757.24 301.563C758.106 312.728 757.744 324.242 757.769 335.485L757.956 408.889L878.66 408.969C886.396 409.457 896.07 416.886 901.977 421.897C902.703 422.514 903.21 424.412 903.506 425.304L903.406 425.523L904.215 428.352C899.073 428.922 891.307 428.755 885.934 428.786L855.16 428.885L757.983 428.954C757.967 431.138 757.286 444.607 758.855 445.282C757.606 446.509 758.133 445.777 757.78 447.977C760.376 450.925 810.272 446.796 815.885 449.313C796.556 449.474 777.211 449.123 757.89 449.379L757.985 562.478C757.993 568.523 757.973 574.655 757.995 580.692C758.042 593.857 758.968 604.894 746.654 613.353C731.483 622.318 695.193 620.611 677.276 620.584L622.711 620.52L447.569 620.475C410.165 620.497 374.212 620.941 336.68 620.501C329.235 620.375 321.79 620.347 314.345 620.417C298.643 620.577 290.747 622.102 278.442 610.718C269.592 600.724 269.746 594.673 269.832 581.832L269.975 562.608C210.113 562.236 147.728 561.956 87.8784 562.722C79.9025 568.268 71.4283 572.824 63.2405 577.989C45.5654 589.137 27.3325 599.291 9.54589 610.232C6.43122 612.147 3.22903 614.335 0 616.004L0 447.053L0 430.582L157.444 430.519L218.594 430.558C227.609 430.538 239.942 430.838 248.719 430.389C254.031 429.23 265.903 430.957 269.143 429.172L269.477 427.453L269.519 413.024Z"/><path fill="#86A1E2" transform="scale(1.03881 1.03881)" d="M248.719 430.389L269.378 430.456L269.359 447.369C238.29 446.646 205.863 447.08 174.674 447.054L0 447.053L0 430.582L157.444 430.519L218.594 430.558C227.609 430.538 239.942 430.838 248.719 430.389Z"/><path fill="#86A1E2" transform="scale(1.03881 1.03881)" d="M757.956 408.889L878.66 408.969C886.396 409.457 896.07 416.886 901.977 421.897C902.703 422.514 903.21 424.412 903.506 425.304L903.406 425.523C886.406 425.19 868.525 425.466 851.466 425.48L757.985 425.495L757.956 408.889Z"/><path fill="#B8C8EE" transform="scale(1.03881 1.03881)" d="M294.458 320.673L553.872 320.629L674.141 320.58C693.751 320.638 714.095 320.476 733.664 320.938L733.465 587.019L294.613 586.934L294.372 403.362C294.367 376.699 293.723 347.125 294.458 320.673Z"/><path fill="#B8C8EE" transform="scale(1.03881 1.03881)" d="M649.99 393.159C661.676 386.023 673.008 378.609 684.883 371.569L685.54 555.3C673.775 555.137 661.712 554.896 649.975 555.441C649.522 501.348 649.527 447.252 649.99 393.159Z"/><path fill="#B8C8EE" transform="scale(1.03881 1.03881)" d="M605.398 407.063C612.968 406.473 624.156 405.796 631.542 404.363C630.792 454.362 631.994 504.999 631.134 555.067L595.498 555.05L595.505 459.821C595.488 451.763 595.514 443.705 595.584 435.647C595.608 431.786 595.819 424.041 595.314 420.485C597.567 416.85 602.603 410.892 605.398 407.063Z"/><path fill="#B8C8EE" transform="scale(1.03881 1.03881)" d="M551.937 435.348C557.986 440.746 564.341 446.674 570.652 451.669L575.957 446.242C577.184 481.512 576.482 519.532 576.562 555.059L539.831 555.011L539.767 435.867C542.654 435.873 549.712 436.206 551.937 435.348Z"/><path fill="#86A1E2" transform="scale(1.03881 1.03881)" d="M649.941 356.04C661.751 356.111 673.561 356.094 685.37 355.99C685.327 359.534 685.384 362.361 685.582 365.899C688.084 364.385 695.11 359.615 697.565 359.877C698.52 361.584 698.305 360.7 698.293 362.613C694.714 366.233 689.138 368.7 684.883 371.569C673.008 378.609 661.676 386.023 649.99 393.159C643.951 396.427 636.732 401.749 631.542 404.363C624.156 405.796 612.968 406.473 605.398 407.063C602.603 410.892 597.567 416.85 595.314 420.485C589.432 427.865 581.282 438.405 575.957 446.242L570.652 451.669C564.341 446.674 557.986 440.746 551.937 435.348C543.681 427.645 530.497 414.564 522.001 407.876C517.116 411.201 504.256 422.686 499.763 426.667L473.295 449.776C468.914 453.661 460.946 461.502 456.271 464.243C452.793 462.825 434.303 446.042 429.762 442.584C424.913 438.89 416.272 432.305 411.482 428.295C385.617 452.275 356.504 473.731 331.024 498.359C330.001 499.348 328.526 499.954 327.109 499.991C325.715 498.875 326.226 499.606 325.906 497.485C328.236 493.37 360.123 466.705 365.195 462.392C380.426 449.438 396.254 435.103 411.482 422.139C415.851 425.083 422.411 431.206 426.827 434.897C436.655 443.101 446.585 451.181 456.616 459.134C472.226 444.406 488.703 430.721 504.724 416.459C510.24 411.549 515.738 406.538 521.821 402.343C526.537 405.298 536.112 414.505 540.442 418.574C550.213 427.92 560.115 437.129 570.143 446.198C573.087 443.191 577.898 436.624 580.529 433.157C585.561 426.527 590.974 419.569 595.689 412.742C595.339 399.473 595.46 385.706 595.425 372.393C607.049 372.668 619.841 371.544 631.284 372.578C631.714 380.945 631.466 390.905 631.458 399.39C637.669 395.521 643.904 391.691 650.163 387.9C649.818 377.52 649.97 366.47 649.941 356.04Z"/><path fill="#B8C8EE" transform="scale(1.03881 1.03881)" d="M595.425 372.393C607.049 372.668 619.841 371.544 631.284 372.578C631.714 380.945 631.466 390.905 631.458 399.39C626.04 401.379 609.536 402.423 602.804 403.093C600.633 406.333 598.346 409.882 595.689 412.742C595.339 399.473 595.46 385.706 595.425 372.393Z"/><path fill="#B8C8EE" transform="scale(1.03881 1.03881)" d="M649.941 356.04C661.751 356.111 673.561 356.094 685.37 355.99C685.327 359.534 685.384 362.361 685.582 365.899C674.368 373.324 661.698 380.686 650.163 387.9C649.818 377.52 649.97 366.47 649.941 356.04Z"/><path fill="#B8C8EE" transform="scale(1.03881 1.03881)" d="M382.448 459.482C393.199 459.606 403.95 459.598 414.701 459.458L414.626 554.618C403.874 554.552 393.121 554.555 382.369 554.627L382.448 459.482Z"/><path fill="#B8C8EE" transform="scale(1.03881 1.03881)" d="M489.308 468.523C498.725 469.065 512.489 468.969 521.798 468.467C521.664 496.809 521.75 525.152 522.055 553.493L521.726 554.062C519.14 555.038 493.717 554.567 489.286 554.561L489.308 468.523Z"/><path fill="#B8C8EE" transform="scale(1.03881 1.03881)" d="M435.486 487.429L468.012 487.31C467.704 509.723 467.563 532.139 467.589 554.555C456.76 554.507 445.931 554.536 435.103 554.642C435.697 548.895 435.376 537.931 435.392 531.648L435.486 487.429Z"/><path fill="#B8C8EE" transform="scale(1.03881 1.03881)" d="M329.066 507.508C339.238 508.369 355.557 507.647 366.036 507.501L366.057 554.604C353.688 554.504 341.319 554.498 328.95 554.586L329.066 507.508Z"/><path fill="white" transform="scale(1.03881 1.03881)" d="M511.951 300.801C513.062 300.33 514.347 300.836 514.838 301.94C515.328 303.044 514.844 304.337 513.749 304.846C513.024 305.184 512.173 305.104 511.523 304.637C510.874 304.17 510.526 303.389 510.615 302.594C510.704 301.799 511.214 301.114 511.951 300.801Z"/><path fill="white" transform="scale(1.03881 1.03881)" d="M0 0L114.06 0L125.97 0L158.211 0L158.521 412.689C195.442 413.133 232.746 412.476 269.519 413.024L269.477 427.453L269.143 429.172C265.903 430.957 254.031 429.23 248.719 430.389C239.942 430.838 227.609 430.538 218.594 430.558L157.444 430.519L0 430.582L0 427.507L0 412.822L0 0Z"/><path fill="#86A1E2" transform="scale(1.03881 1.03881)" d="M114.06 0L125.97 0L158.211 0L158.521 412.689C195.442 413.133 232.746 412.476 269.519 413.024L269.477 427.453L269.143 429.172C265.903 430.957 254.031 429.23 248.719 430.389C239.942 430.838 227.609 430.538 218.594 430.558L157.444 430.519L0 430.582L0 427.507L0 412.822L73.3601 412.944C78.8524 412.946 111.796 413.499 113.885 412.06L114.06 0Z"/><path fill="#234493" transform="scale(1.03881 1.03881)" d="M114.06 0L125.97 0L126.008 263.135C126.013 312.605 125.671 362.688 126.273 412.125C124.182 412.154 115.337 412.437 113.885 412.06L114.06 0Z"/><path fill="#234493" transform="scale(1.03881 1.03881)" d="M0 427.507L269.477 427.453L269.143 429.172C265.903 430.957 254.031 429.23 248.719 430.389C239.942 430.838 227.609 430.538 218.594 430.558L157.444 430.519L0 430.582L0 427.507Z"/><path fill="#446ED2" transform="scale(1.03881 1.03881)" d="M879.543 0L907.861 0L911.512 0L927.948 0L1024 0L1024 133.928L1024 167.381L1024 607.377C1006.58 610.051 997.095 612.003 980.895 619.371C979.33 620.21 977.725 621.047 976.19 621.933C966.422 629.29 956.516 641.134 946.501 646.964C918.877 663.045 885.247 664.479 855.713 675.547C850.233 677.579 844.79 680.051 839.353 681.933C830.012 675.259 820.623 667.621 811.285 660.752L746.654 613.353C758.968 604.894 758.042 593.857 757.995 580.692C757.973 574.655 757.993 568.523 757.985 562.478L757.89 449.379C777.211 449.123 796.556 449.474 815.885 449.313C810.272 446.796 760.376 450.925 757.78 447.977C758.133 445.777 757.606 446.509 758.855 445.282C757.286 444.607 757.967 431.138 757.983 428.954L855.16 428.885L885.934 428.786C891.307 428.755 899.073 428.922 904.215 428.352L903.406 425.523L903.506 425.304C903.21 424.412 902.703 422.514 901.977 421.897C896.07 416.886 886.396 409.457 878.66 408.969C880.893 405.613 876.879 224.687 879.413 202.172L879.543 0Z"/><path fill="#86A1E2" transform="scale(1.03881 1.03881)" d="M757.985 562.478C774.072 561.999 791.324 562.358 807.493 562.393L882.391 562.29L920.408 562.136C923.318 562.125 938.765 561.925 940.541 562.609C950.311 566.369 960.886 574.693 970.817 579.365C971.664 581.805 971.756 584.113 972.077 586.65C973.56 598.376 974.523 610.237 976.19 621.933C966.422 629.29 956.516 641.134 946.501 646.964C918.877 663.045 885.247 664.479 855.713 675.547C850.233 677.579 844.79 680.051 839.353 681.933C830.012 675.259 820.623 667.621 811.285 660.752L746.654 613.353C758.968 604.894 758.042 593.857 757.995 580.692C757.973 574.655 757.993 568.523 757.985 562.478Z"/><path fill="#234493" transform="scale(1.03881 1.03881)" d="M980.895 619.371C979.872 617.64 980.618 606.692 980.687 604.014L981.342 573.264C981.663 557.935 981.527 542.599 980.935 527.278C979.022 468.139 973.955 410.018 974.527 350.729C975.164 284.692 987.629 223.203 1024 167.381L1024 607.377C1006.58 610.051 997.095 612.003 980.895 619.371Z"/><path fill="#234493" transform="scale(1.03881 1.03881)" d="M1011.46 218.889C1012.19 220.168 1009.27 228.278 1008.71 230.168C1005.22 242.355 1002.35 254.711 1000.11 267.19C992.73 306.202 992.994 347.771 992.997 387.562C993.083 399.338 993.014 411.116 992.789 422.89C992.712 428.073 992.913 438.225 991.741 442.96L991.366 442.791L990.991 440.402C990.125 435.432 989.417 423.609 988.891 417.862C984.455 369.38 984.051 316.278 993.762 268.43C997.322 250.887 1003.97 234.905 1011.46 218.889Z"/><path fill="#86A1E2" transform="scale(1.03881 1.03881)" d="M879.543 0L907.861 0L907.519 232.643C907.477 295.059 908.011 359.579 906.634 421.901C907.342 423.457 906.86 422.737 908.475 423.898C912.112 423.775 913.608 425.687 917.421 427.21C919.17 429.861 919.756 430.846 921.126 433.754L917.548 433.435C913.002 427.166 911.639 428.164 904.215 428.352L903.406 425.523L903.506 425.304C903.21 424.412 902.703 422.514 901.977 421.897C896.07 416.886 886.396 409.457 878.66 408.969C880.893 405.613 876.879 224.687 879.413 202.172L879.543 0Z"/><path fill="#B8C8EE" transform="scale(1.03881 1.03881)" d="M879.413 202.172C880.019 208.96 879.608 222.162 879.581 229.484L879.387 280.3C879.259 322.221 880.245 365.529 879.407 407.272C891.552 409.855 896.761 414.43 906.634 421.901C907.342 423.457 906.86 422.737 908.475 423.898C912.112 423.775 913.608 425.687 917.421 427.21C919.17 429.861 919.756 430.846 921.126 433.754L917.548 433.435C913.002 427.166 911.639 428.164 904.215 428.352L903.406 425.523L903.506 425.304C903.21 424.412 902.703 422.514 901.977 421.897C896.07 416.886 886.396 409.457 878.66 408.969C880.893 405.613 876.879 224.687 879.413 202.172Z"/><path fill="#234493" transform="scale(1.03881 1.03881)" d="M970.817 579.365C967.732 553.771 965.456 525.396 962.933 499.65C960.04 472.022 957.622 444.345 955.681 416.633C954.597 399.514 954.2 382.147 953.535 365.042C951.445 311.222 949.08 255.835 971.021 205.284C981.75 180.567 1000.87 148.28 1024 133.928L1024 167.381C987.629 223.203 975.164 284.692 974.527 350.729C973.955 410.018 979.022 468.139 980.935 527.278C981.527 542.599 981.663 557.935 981.342 573.264L980.687 604.014C980.618 606.692 979.872 617.64 980.895 619.371C979.33 620.21 977.725 621.047 976.19 621.933C974.523 610.237 973.56 598.376 972.077 586.65C971.756 584.113 971.664 581.805 970.817 579.365Z"/><path fill="#86A1E2" transform="scale(1.03881 1.03881)" d="M907.861 0L911.512 0L927.948 0L928.037 143.534L927.904 197.276C927.903 204.969 927.512 217.42 928.058 224.823L927.465 381.566C927.435 390.431 928.384 436.779 926.467 443.264C924.711 441.236 922.598 436.454 921.126 433.754C919.756 430.846 919.17 429.861 917.421 427.21C913.608 425.687 912.112 423.775 908.475 423.898C906.86 422.737 907.342 423.457 906.634 421.901C908.011 359.579 907.477 295.059 907.519 232.643L907.861 0Z"/><path fill="#234493" transform="scale(1.03881 1.03881)" d="M907.861 0L911.512 0C911.738 59.5578 911.564 119.116 910.991 178.672L910.894 344.662C910.998 363.563 910.99 382.464 910.871 401.365C910.839 404.761 911.085 420.985 910.18 423.008L908.475 423.898C906.86 422.737 907.342 423.457 906.634 421.901C908.011 359.579 907.477 295.059 907.519 232.643L907.861 0Z"/><path fill="#86A1E2" transform="scale(1.03881 1.03881)" d="M904.215 428.352C911.639 428.164 913.002 427.166 917.548 433.435L921.126 433.754C922.598 436.454 924.711 441.236 926.467 443.264L924.821 444.085C917.986 445.088 908.613 444.838 901.51 444.836L869.476 444.907C832.731 445.048 795.542 445.536 758.855 445.282C757.286 444.607 757.967 431.138 757.983 428.954L855.16 428.885L885.934 428.786C891.307 428.755 899.073 428.922 904.215 428.352Z"/><path fill="#B8C8EE" transform="scale(1.03881 1.03881)" d="M917.548 433.435L921.126 433.754C922.598 436.454 924.711 441.236 926.467 443.264L924.821 444.085C922.824 440.54 919.957 436.778 917.548 433.435Z"/><path fill="#234493" transform="scale(1.03881 1.03881)" d="M929.604 114.953C930.566 130.032 929.991 150.46 929.984 165.983L930.056 260.386L930.784 384.253C930.8 402.229 930.977 420.224 930.751 438.193C930.633 447.535 926.078 448.966 917.881 448.967C883.884 448.968 849.882 449.365 815.885 449.313C810.272 446.796 760.376 450.925 757.78 447.977C758.133 445.777 757.606 446.509 758.855 445.282C795.542 445.536 832.731 445.048 869.476 444.907L901.51 444.836C908.613 444.838 917.986 445.088 924.821 444.085L926.467 443.264C928.384 436.779 927.435 390.431 927.465 381.566L928.058 224.823L928.522 224.972L929.446 224.177C929.753 221.327 929.65 218.427 929.648 215.558C929.63 191.438 929.017 167.332 929.563 143.213C929.774 133.901 929.037 124.22 929.604 114.953Z"/><path fill="#192255" transform="scale(1.03881 1.03881)" d="M928.522 224.972C928.074 221.058 928.343 211.719 928.355 207.545L928.439 173.365L928.583 59.4594C928.589 55.639 928.244 34.1047 929.054 31.7797L929.156 32.7042L929.149 32.4083C929.638 42.9385 929.414 55.3673 929.468 66.0799C929.603 82.3706 929.649 98.6618 929.604 114.953C929.037 124.22 929.774 133.901 929.563 143.213C929.017 167.332 929.63 191.438 929.648 215.558C929.65 218.427 929.753 221.327 929.446 224.177L928.522 224.972Z"/></svg>