<?xml version="1.0" encoding="utf-8" ?><svg xmlns="http://www.w3.org/2000/svg" xmlns:xlink="http://www.w3.org/1999/xlink" width="1046" height="1046" viewBox="0 0 1046 1046"><path fill="white" transform="scale(1.02124 1.02124)" d="M0 0L983.507 0L1024 0L1024 98.3297L1024 409.509L1024 507.079L1024 635.911L1024 736.419L1024 1024L689.396 1024L588.181 1024L243.39 1024L129.303 1024L0 1024L0 1012.53L0 1003.56L0 952.818L0 895.12L0 0Z"/><path fill="#234493" transform="scale(1.02124 1.02124)" d="M129.303 1024C135.563 1018.89 142.652 1015.25 149.726 1011.6C179.157 996.427 208.477 990.127 241.128 986.184C256.528 984.324 272.469 981.888 288.114 981.644C305.553 981.373 323.279 982.227 340.787 982.272C367.605 982.396 394.302 978.653 420.052 971.16C479.688 953.91 505.061 912.982 559.718 888.125C574.716 881.119 590.523 877.499 606.415 873.326C649.094 862.121 694.44 857.576 735.433 840.823C774.468 824.87 807.3 792.668 819.125 751.656C822.054 741.497 823.754 731.169 826.23 720.9C829.613 707.077 834.134 693.556 839.745 680.477C849.044 658.51 859.885 644.097 871.953 624.35C878.528 613.499 884.388 602.229 889.495 590.614C895.763 576.04 899.073 556.393 902.791 540.657C905.562 529.239 909.176 518.043 913.605 507.161C917.369 497.93 921.746 490.503 927.205 482.299C951.493 445.795 984.681 426.03 1024 409.509L1024 507.079L1024 635.911L1024 736.419L1024 1024L689.396 1024L588.181 1024L243.39 1024L129.303 1024Z"/><path fill="#A7BBEA" transform="scale(1.02124 1.02124)" d="M689.396 1024C715.456 988.986 750.781 969.378 791.424 955.592C823.264 944.468 867.631 933.348 892.573 909.292C953.4 850.625 936.794 775.696 1024 736.419L1024 1024L689.396 1024Z"/><path fill="#86A1E2" transform="scale(1.02124 1.02124)" d="M894.352 721.262C900.125 712.029 906.54 703.214 913.55 694.882C936.491 667.86 969.285 646.093 1004.2 638.545C1010.75 637.131 1017.34 636.46 1024 635.911L1024 736.419C936.794 775.696 953.4 850.625 892.573 909.292C867.631 933.348 823.264 944.468 791.424 955.592C750.781 969.378 715.456 988.986 689.396 1024L588.181 1024C620.308 974.615 668.368 952.985 723.643 939.843C763.878 930.415 803.974 924.309 838.335 899.572C860.594 883.548 878.335 864.279 886.45 837.358C897.272 801.457 895.548 759.867 893.643 722.812L894.352 721.262Z"/><path fill="#446ED2" transform="scale(1.02124 1.02124)" d="M243.39 1024C253.803 1020.43 267.592 1016.97 278.471 1014.25C297.083 1009.59 318.256 1004.54 337.097 1001.08C378.779 993.419 421.308 988.726 463.164 982.351C517.414 973.386 573.063 962.149 625.218 944.122C692.533 920.854 762.602 891.106 813.898 840.289C834.917 819.466 854.973 790.084 869.411 764.401L882.13 741.431C885.386 735.518 889.234 727.768 893.643 722.812C895.548 759.867 897.272 801.457 886.45 837.358C878.335 864.279 860.594 883.548 838.335 899.572C803.974 924.309 763.878 930.415 723.643 939.843C668.368 952.985 620.308 974.615 588.181 1024L243.39 1024Z"/><path fill="#446ED2" transform="scale(1.02124 1.02124)" d="M1024 507.079L1024 635.911C1017.34 636.46 1010.75 637.131 1004.2 638.545C969.285 646.093 936.491 667.86 913.55 694.882C906.54 703.214 900.125 712.029 894.352 721.262C893.657 716.98 893.943 702.107 894.226 697.244C896.341 660.927 902.544 625.596 919.942 593.373C944.304 548.253 974.292 521.391 1024 507.079Z"/><path fill="#234493" transform="scale(1.02124 1.02124)" d="M1024 98.3297L1024 409.509C984.681 426.03 951.493 445.795 927.205 482.299C921.746 490.503 917.369 497.93 913.605 507.161C909.176 518.043 905.562 529.239 902.791 540.657C899.073 556.393 895.763 576.04 889.495 590.614C884.388 602.229 878.528 613.499 871.953 624.35C859.885 644.097 849.044 658.51 839.745 680.477C834.134 693.556 829.613 707.077 826.23 720.9C823.754 731.169 822.054 741.497 819.125 751.656C807.3 792.668 774.468 824.87 735.433 840.823C694.44 857.576 649.094 862.121 606.415 873.326C590.523 877.499 574.716 881.119 559.718 888.125C505.061 912.982 479.688 953.91 420.052 971.16C394.302 978.653 367.605 982.396 340.787 982.272C323.279 982.227 305.553 981.373 288.114 981.644C272.469 981.888 256.528 984.324 241.128 986.184C208.477 990.127 179.157 996.427 149.726 1011.6C142.652 1015.25 135.563 1018.89 129.303 1024L0 1024L0 1012.53L0.905493 1013.02C1.1299 1014.12 1.18023 1015.1 1.17111 1016.22L0.998001 1018.43C0.724766 1019.48 0.598978 1020.2 0.73082 1021.28C2.54704 1021.61 5.96379 1017.23 7.23676 1015.93C17.4843 1005.45 28.8701 996.706 41.8679 989.896C63.3736 978.628 86.337 975.945 109.817 971.649C121.202 969.528 132.484 966.881 143.625 963.718C159.422 959.204 174.912 953.679 189.999 947.178C197.66 943.809 204.985 939.33 212.779 936.337L214.173 935.678C216.844 934.498 219.456 932.954 222.076 931.636C247.514 918.524 272.859 905.861 299.127 894.482C319.693 884.643 342.647 883.497 363.954 876.953C397.043 866.79 426.227 856.718 460.647 851.445L461.246 851.224C467.11 850.363 472.986 849.62 478.865 848.737C513.607 843.524 548.302 845.871 582.246 835.405C604.674 828.49 617.757 817.6 631.348 798.634C639.078 787.849 645.578 778.161 651.849 766.513C677.092 718.986 703.419 689.037 755.612 670.357C774.313 663.664 794.579 657.207 812.398 648.895L812.546 648.663C821.754 645.335 837.755 633.023 844.648 626.192C855.19 615.909 862.804 603.003 866.705 588.802C877.059 551.496 863.117 517.562 863.234 480.205C863.378 434.4 886.088 408.228 917.318 378.523C931.995 364.684 945.67 349.401 953.943 330.755C969.4 295.916 961.693 257.034 965.99 220.168C971.4 173.76 990.625 131.293 1024 98.3297Z"/><path fill="#446ED2" transform="scale(1.02124 1.02124)" d="M214.173 935.678C216.844 934.498 219.456 932.954 222.076 931.636C247.514 918.524 272.859 905.861 299.127 894.482C319.693 884.643 342.647 883.497 363.954 876.953C397.043 866.79 426.227 856.718 460.647 851.445C453.778 865.258 448.52 875.257 439.441 887.854C415.148 921.56 376.972 945.644 337.751 958.242C329.955 960.746 317.657 964.256 309.422 963.87C289.3 962.927 265.484 951.429 245.856 945.047C239.262 942.921 232.609 940.982 225.905 939.233C223.117 938.482 216.471 937.004 214.173 935.678Z"/><path fill="#446ED2" transform="scale(1.02124 1.02124)" d="M651.849 766.513C677.092 718.986 703.419 689.037 755.612 670.357C774.313 663.664 794.579 657.207 812.398 648.895C807.801 691.279 793.115 725.145 754.718 747.297C722.098 766.115 688.292 766.684 651.849 766.513Z"/><path fill="#234493" transform="scale(1.02124 1.02124)" d="M742.534 82.6033C769.561 64.6054 799.785 52.2209 832.967 55.3873C847.026 56.7289 856.756 60.4119 867.931 69.061C853.895 93.1588 839.527 110.181 813.651 122.433C806.097 126.01 798.448 128.565 791.18 131.87L788.567 132.778L787.295 133.257L785.617 133.705L783.934 134.087C755.324 142.419 739.661 146.419 719.051 168.486C710.64 177.508 703.409 187.562 697.531 198.406C678.475 233.121 681.474 267.082 681.668 305.148C681.728 316.846 681.254 328.87 682.036 340.512C684.482 335.468 687.089 330.179 690.249 325.553C706.907 301.177 718.604 273.806 739.417 252.457C742.377 249.363 745.497 246.426 748.765 243.659C751.684 241.23 755.909 238.632 757.359 235.255L758.011 236.255L758.46 236.294C763.061 234.174 767.234 231.617 771.674 229.488C789.305 221.033 804.92 216.162 824.732 218.003C831.362 218.62 837.538 218.785 844.126 220.795L844.476 220.899C839.023 241.823 832.723 257.187 816.516 272.121C814.019 274.421 803.903 282.327 802.86 283.717C800.193 284.889 798.445 285.548 796.055 287.286L795.394 287.938C777.817 294.198 755.413 299.975 739.089 307.378C716.918 317.433 686.337 343.576 675.831 365.692C674.6 368.308 673.397 370.937 672.222 373.578C669.461 382.034 667.63 390.801 664.883 399.275C661.027 411.174 656.43 422.845 652.491 434.718C651.563 437.517 650.866 440.309 651.02 443.278L651.551 444.077C652.621 442.744 653.117 440.733 654.275 438.934C656.883 443.14 649.878 451.165 647.948 455.011C646.911 457.077 646.549 461.74 645.135 463.352L645.026 464.328C643.581 469.485 642.116 473.491 640.263 478.473C636.986 485.822 636.431 488.651 631.623 495.227L633.371 495.989C630.562 501.424 628.92 507.075 626.328 512.062C625.275 516.186 620.4 525.243 618.151 529.381C601.993 559.109 574.198 586.659 547.41 606.993C536.534 615.249 524.438 622.358 513.333 630.034C517.767 629.525 523.917 628.28 528.345 627.443C534.11 626.168 540.812 625.394 546.343 623.289C573.616 612.911 590.36 587.85 610.028 567.852C614.902 562.896 620.619 558.336 626.084 554.064C629.489 551.403 633.324 549.223 636.495 546.273C638.729 545.929 642.684 543.816 644.632 542.701C651.826 540.3 655.946 539.315 663.438 538.104L664.174 537.904C675.937 536.611 681.329 536.981 693.185 539.694C696.068 540.866 698.545 541.937 701.357 543.265C715.224 557.942 715.622 571.928 706.099 589.499L707.611 589.313C707.545 590.933 705.973 592.943 704.859 594.023C703.236 597.305 700.816 599.472 698.26 602.086C697.396 602.671 695.836 603.869 694.943 604.116C693.365 605.612 690.366 608.024 688.384 608.936L687.348 607.548C668.027 617.951 643.919 625.675 621.981 627.886C622.809 628.77 622.377 628.433 623.226 628.961C601.197 631.343 579.242 634.353 557.385 637.989C548.259 639.515 536.792 642.395 528.404 643.599C525.439 644.409 521.451 647.22 518.658 648.865C504.67 657.107 490.346 664.652 476.774 673.604C475.607 674.374 472.611 676.376 471.48 676.768C469.99 677.325 468.515 677.92 467.056 678.552L465.007 678.06C457.53 682.922 420.78 699.515 418.592 704.141C417.334 704.903 415.712 705.633 415.059 706.843C412.845 707.795 410.147 709.047 407.912 709.818C399.304 715.09 383.503 720.656 373.954 725.411C371.732 726.517 365.701 728.759 364.011 730.002C361.371 730.854 349.962 734.23 348.451 735.604C341.466 738.332 330.236 742.738 323.135 744.494L323.431 745.3C332.267 745.282 339.388 744.69 348.661 745.078C355.752 744.774 364.252 745.767 371.657 745.483C393.546 744.642 417.615 742.64 438.234 734.824C443.434 732.852 448.817 729.481 453.448 726.576C453.655 726.061 474.171 708.301 475.936 707.032C479.506 701.182 494.154 695.35 500.556 693.169L502.306 692.654C506.142 692.051 510.822 692.075 514.767 691.979L520.747 692.095C528.976 693.336 538.776 697.326 545.029 702.904L547.528 705.21C553.296 713.136 556.147 717.91 555.97 728.253C555.219 734.529 555.072 737.099 552.687 742.897L552.158 743.13L552.129 744.515C549.88 747.86 547.753 751.386 545.113 754.398L542.944 756.801C512.569 782.005 474.33 782.682 436.866 779.164C400.768 775.775 365.751 765.793 329.222 765.909C289.311 766.037 263.65 775.492 226.539 786.947C172.242 803.708 114.271 823.189 69.721 859.709C42.3955 882.11 21.4279 914.496 10.0484 947.821L11.1181 947.538C14.6691 938.043 19.6589 928.253 24.6853 919.448C25.4756 919.163 25.823 918.959 26.4357 918.354C27.4925 917.309 26.664 918.034 27.8406 917.028C28.0375 916.86 28.2379 916.696 28.4365 916.53C28.2979 916.83 28.1642 917.134 28.0207 917.432C27.6155 918.275 27.238 918.722 26.5865 919.368C22.3301 923.582 3.41584 966.865 1.55682 973.794C1.13595 975.362 1.22356 977.275 1.24383 978.903C1.32081 985.084 3.55714 998.571 0 1003.56L0 952.818L0 895.12C19.3428 861.003 46.8372 832.209 80.0258 811.314C90.73 804.605 101.436 799.969 111.193 794.047L111.613 793.788C116.387 792.613 132.773 784.863 138.242 782.402C154.793 774.957 173.186 767.478 188.973 758.767C191.293 757.898 195.683 755.564 198.383 754.378C209.196 750.514 227.245 746.149 236.269 741.137C238.572 740.963 238.84 740.864 241.063 740.123C250.352 737.836 255.894 735.221 264.574 731.263C268.184 730.993 286.346 724.399 290.271 722.65C298.33 720.611 377.184 683.79 381.633 679.345C388.238 676.781 397.848 670.888 402.52 669.327C405.23 668.017 405.535 667.663 407.651 665.439C411.41 664.558 428.317 654.378 432.717 651.835C446.991 644.653 464.433 632.067 477.025 622.114C482.948 617.431 511.388 593.694 512.027 587.565C518.771 580.972 528.248 555.961 533.259 545.992L533.976 546.338C534.8 545.373 536.214 544.824 536.669 544.168C538.417 541.644 539.921 538.602 541.306 535.88C543.698 532.676 547.278 526.104 548.945 522.489C549.811 520.3 553.331 513.762 554.563 511.257C557.781 504.719 560.844 498.107 563.75 491.426L564.628 491.866C563.925 496.606 548.626 524.062 549.456 525.853C550.06 525.081 552.07 522.358 552.808 521.933C558.872 515.914 573.015 498.425 577.294 491.205L577.182 488.873C582.81 479.985 587.22 469.536 590.827 459.674C593.714 458.285 593.845 457.387 595.113 454.447L596.651 455.098C597.593 451.695 601.311 443.209 602.966 440.112C604.107 438.475 604.098 438.419 604.803 436.525C608.12 430.862 612.195 428.338 614.701 423.983C632.035 408.543 652.084 368.708 654.554 345.089C655.22 338.722 653.502 319.429 654.6 315.581L654.253 314.911C653.654 314.315 651.336 296.344 650.861 293.58C646.499 281.179 643.887 273.488 636.506 262.11C625.607 245.31 609.465 231.043 601.685 212.528C595.445 197.45 593.509 180.211 599.703 164.819C604.712 152.37 616.3 148.228 628.229 154.188C644.608 162.372 653.975 181.771 660.315 197.987C662.265 202.974 663.609 208.573 665.39 213.677C665.828 210.591 666.27 207.658 666.503 204.547C667.772 199.944 668.332 197.192 669.062 192.467C669.995 180.29 685.506 147.846 692.27 136.579C695.356 131.44 700.185 124.412 703.795 119.394L704.191 118.578C713.545 107.569 718.186 102.207 728.677 91.9612C731.573 90.9939 739.673 84.7091 742.534 82.6033Z"/><path fill="#4789A6" transform="scale(1.02124 1.02124)" d="M673.446 247.333C674.424 250.352 672.405 262.477 671.822 266.011C669.213 281.816 670.725 298.544 669.778 314.113C666.878 361.759 655.107 404.964 632.537 447.136C626.886 457.693 622.241 472.113 616.554 483.272C608.213 499.766 599.117 515.868 589.296 531.526C585.415 537.842 581.294 545.268 576.748 551.13C569.409 560.414 561.216 568.942 553.051 577.479C549.78 580.899 546.098 584.489 543.017 587.944C509.425 625.627 470.898 659.324 425.836 682.618C424.871 683.117 425.327 682.736 424.578 683.702C426.269 685.681 427.794 684.992 428.704 686.792C428.27 688.525 427.174 690.058 426.226 691.602C428.334 692.105 428.681 691.153 429.759 691.903L429.216 692.582C428.546 693.432 428.772 693.067 428.386 693.817C443.549 685.86 459.098 678.276 473.935 669.64L510.811 648.546C526.681 639.588 542.058 631.232 559.154 624.622C575.329 618.193 591.69 612.504 607.178 604.457C610.478 602.567 612.21 600.64 615.529 598.551C635.996 585.67 654.161 559.779 681.308 564.28C689.905 565.705 688.314 576.032 684.73 582.243C670.56 606.797 628.486 610.193 602.711 615.741C589.85 618.57 577.22 622.362 564.928 627.085C554.798 631.029 545.279 635.564 535.487 640.247C534.564 640.687 533.873 640.74 532.904 640.551L532.434 640.544C530.938 641.606 529.808 642.424 528.404 643.599C525.439 644.409 521.451 647.22 518.658 648.865C504.67 657.107 490.346 664.652 476.774 673.604C475.607 674.374 472.611 676.376 471.48 676.768C469.99 677.325 468.515 677.92 467.056 678.552L465.007 678.06C457.53 682.922 420.78 699.515 418.592 704.141C417.334 704.903 415.712 705.633 415.059 706.843C412.845 707.795 410.147 709.047 407.912 709.818C399.304 715.09 383.503 720.656 373.954 725.411C371.732 726.517 365.701 728.759 364.011 730.002C361.371 730.854 349.962 734.23 348.451 735.604C341.466 738.332 330.236 742.738 323.135 744.494L323.431 745.3C332.267 745.282 339.388 744.69 348.661 745.078C355.752 744.774 364.252 745.767 371.657 745.483C393.546 744.642 417.615 742.64 438.234 734.824C443.434 732.852 448.817 729.481 453.448 726.576C453.655 726.061 474.171 708.301 475.936 707.032C479.506 701.182 494.154 695.35 500.556 693.169L502.306 692.654C506.142 692.051 510.822 692.075 514.767 691.979L520.747 692.095C528.976 693.336 538.776 697.326 545.029 702.904L547.528 705.21C553.296 713.136 556.147 717.91 555.97 728.253C555.219 734.529 555.072 737.099 552.687 742.897L552.158 743.13L552.129 744.515C549.88 747.86 547.753 751.386 545.113 754.398L542.944 756.801C512.569 782.005 474.33 782.682 436.866 779.164C400.768 775.775 365.751 765.793 329.222 765.909C289.311 766.037 263.65 775.492 226.539 786.947C172.242 803.708 114.271 823.189 69.721 859.709C42.3955 882.11 21.4279 914.496 10.0484 947.821L11.1181 947.538C14.6691 938.043 19.6589 928.253 24.6853 919.448C25.4756 919.163 25.823 918.959 26.4357 918.354C27.4925 917.309 26.664 918.034 27.8406 917.028C28.0375 916.86 28.2379 916.696 28.4365 916.53C28.2979 916.83 28.1642 917.134 28.0207 917.432C27.6155 918.275 27.238 918.722 26.5865 919.368C22.3301 923.582 3.41584 966.865 1.55682 973.794C1.13595 975.362 1.22356 977.275 1.24383 978.903C1.32081 985.084 3.55714 998.571 0 1003.56L0 952.818C3.89123 935.594 9.63356 917.797 17.4776 902.127C40.2065 856.724 81.874 825.929 127.693 806.366C134.807 803.328 143.529 798.539 151.017 796.317C161.282 792.697 172.325 787.448 183.127 783.533L221.615 769.74C227.152 767.699 234.554 765.165 239.83 762.763C272.87 749.657 307.814 740.645 339.988 724.472C345.125 721.889 355.077 716.963 360.275 715.376C372.272 708.866 385.512 703.247 397.641 696.536C423.992 681.773 451.483 667.091 475.542 648.746C498.515 631.23 520.089 610.272 539.443 588.859C550.074 577.096 564.245 564.427 573.491 551.776C590.432 528.599 604.574 501.692 617.614 476.162C621.86 467.502 625.295 457.504 629.563 448.959C646.276 415.499 660.676 381.308 664.484 343.732C665.466 334.04 667.719 323.266 667.795 313.357C667.916 297.685 668.358 282.246 669.1 266.559L670.614 266.022C671.719 263.209 672.675 251.347 673.446 247.333Z"/><path fill="white" transform="scale(1.02124 1.02124)" d="M530.939 638.683C555.138 625.854 580.887 618.469 605.234 606.367C614.336 601.843 623.782 593.643 631.886 587.505C640.096 580.844 647.716 573.506 657.447 569.059C664.749 565.722 673.654 563.228 681.622 565.34C688.28 567.105 687.198 573.713 685.171 578.776C680.997 589.199 671.562 596.009 661.559 600.337C643.389 607.544 622.166 610.582 602.968 614.716C584.932 618.683 567.342 624.459 550.464 631.954C547.578 633.244 535.043 638.979 532.904 640.551L532.434 640.544C531.49 639.785 531.638 639.759 530.939 638.683Z"/><path fill="#446ED2" transform="scale(1.02124 1.02124)" d="M601.74 610.525C610.465 606.192 617.401 601.851 625.332 596.205C640.332 585.524 653.485 570.418 672.702 568.093C680.422 567.159 686.474 569.692 682.412 578.54C676.84 590.682 664.186 597.86 651.864 601.393C636.219 606.415 619.527 608.564 604.026 612.472L601.74 610.525Z"/><path fill="#737DE4" transform="scale(1.02124 1.02124)" d="M594.778 614.037C596.887 613.079 599.623 611.597 601.74 610.525L604.026 612.472L595.127 614.649L594.778 614.037Z"/><path fill="#A8A5B3" transform="scale(1.02124 1.02124)" d="M595.127 614.649C593.848 615.267 591.089 616.478 589.739 616.248C591.055 615.022 593.011 614.602 594.778 614.037L595.127 614.649Z"/><path fill="white" transform="scale(1.02124 1.02124)" d="M669.1 266.559L670.614 266.022C669.881 274.444 669.408 282.886 669.196 291.337C669.063 298.201 669.383 305.736 668.937 312.515C667.81 329.653 665.143 347.003 662.329 363.944C656.903 394.116 643.508 421.855 630.572 449.367C625.887 459.329 621.832 469.643 617.042 479.575C608.887 496.186 599.928 512.391 590.198 528.132C585.009 536.649 579.396 546.106 573.215 553.851C563.397 566.14 551.668 576.983 541.053 588.522C531.117 599.322 520.927 610.174 510.401 620.314C479.464 650.116 443.531 672.883 405.815 693.102C399.675 696.394 365.053 715.025 360.275 715.376C372.272 708.866 385.512 703.247 397.641 696.536C423.992 681.773 451.483 667.091 475.542 648.746C498.515 631.23 520.089 610.272 539.443 588.859C550.074 577.096 564.245 564.427 573.491 551.776C590.432 528.599 604.574 501.692 617.614 476.162C621.86 467.502 625.295 457.504 629.563 448.959C646.276 415.499 660.676 381.308 664.484 343.732C665.466 334.04 667.719 323.266 667.795 313.357C667.916 297.685 668.358 282.246 669.1 266.559Z"/><path fill="#64CEE6" transform="scale(1.02124 1.02124)" d="M400.453 709.294C404.038 706.684 423.05 697.842 428.055 695.284C440.567 688.889 453.689 681.384 466.181 675.233L465.874 675.566C464.504 677.027 464.269 677.18 462.613 678.285C463.638 678.254 464.002 678.237 465.007 678.06C457.53 682.922 420.78 699.515 418.592 704.141C417.334 704.903 415.712 705.633 415.059 706.843C412.845 707.795 410.147 709.047 407.912 709.818C399.304 715.09 383.503 720.656 373.954 725.411C371.732 726.517 365.701 728.759 364.011 730.002C361.371 730.854 349.962 734.23 348.451 735.604C341.466 738.332 330.236 742.738 323.135 744.494C321.06 744.887 318.453 745.094 316.314 745.324L315.952 744.685L317.414 744.092L317.338 743.32C318.93 742.342 328.391 738.913 330.625 738.038L367.963 723.568C378.912 719.203 390.502 713.127 400.453 709.294Z"/><defs><linearGradient id="gradient_0" gradientUnits="userSpaceOnUse" x1="492.3855" y1="656.72937" x2="497.08432" y2="663.44177"><stop offset="0" stop-color="#6EDAE9"/><stop offset="1" stop-color="#67C9EE"/></linearGradient></defs><path fill="url(#gradient_0)" transform="scale(1.02124 1.02124)" d="M466.181 675.233C467.065 674.543 474.58 670.291 476.145 669.356C486.32 663.279 496.997 657.053 507.48 651.507C513.538 648.302 524.993 640.968 530.939 638.683C531.638 639.759 531.49 639.785 532.434 640.544C530.938 641.606 529.808 642.424 528.404 643.599C525.439 644.409 521.451 647.22 518.658 648.865C504.67 657.107 490.346 664.652 476.774 673.604C475.607 674.374 472.611 676.376 471.48 676.768C469.99 677.325 468.515 677.92 467.056 678.552L465.007 678.06C464.002 678.237 463.638 678.254 462.613 678.285C464.269 677.18 464.504 677.027 465.874 675.566L466.181 675.233Z"/><path fill="#5597B4" transform="scale(1.02124 1.02124)" d="M306.838 747.3C310.409 745.863 313.692 744.543 317.338 743.32L317.414 744.092L315.952 744.685L316.314 745.324C318.453 745.094 321.06 744.887 323.135 744.494L323.431 745.3C332.267 745.282 339.388 744.69 348.661 745.078C351.297 746.438 359.786 744.997 362.2 746.245C358.924 747.637 350.424 747.156 346.415 747.166C336.732 747.19 308.13 747.628 300.021 751.156L299.844 750.938C301.968 749.254 304.341 748.399 306.838 747.3Z"/><path fill="#B8F2EE" transform="scale(1.02124 1.02124)" d="M306.838 747.3C310.409 745.863 313.692 744.543 317.338 743.32L317.414 744.092L315.952 744.685L316.314 745.324C318.453 745.094 321.06 744.887 323.135 744.494L323.431 745.3C319.305 745.623 309.751 747.518 306.838 747.3Z"/><path fill="#234493" transform="scale(1.02124 1.02124)" d="M514.767 691.979L520.747 692.095C528.976 693.336 538.776 697.326 545.029 702.904L547.528 705.21C553.296 713.136 556.147 717.91 555.97 728.253C555.219 734.529 555.072 737.099 552.687 742.897L552.158 743.13C552.423 740.585 554.979 737.548 554.984 731.243C554.137 728.14 554.247 723.36 553.059 718.978C550.607 708.283 542.147 701.872 532.72 697.462C529.626 696.015 525.796 695.348 522.836 693.402C521.424 692.518 512.415 692.929 510.171 693.058C499.738 692.724 490.303 697.066 481.912 702.959C480.567 703.904 477.093 706.887 475.936 707.032C479.506 701.182 494.154 695.35 500.556 693.169L502.306 692.654C506.142 692.051 510.822 692.075 514.767 691.979Z"/><path fill="#C5DCEA" transform="scale(1.02124 1.02124)" d="M522.836 693.402C533.117 695.485 544.395 701.333 550.204 710.304C555.07 717.818 555.194 722.875 554.984 731.243C554.137 728.14 554.247 723.36 553.059 718.978C550.607 708.283 542.147 701.872 532.72 697.462C529.626 696.015 525.796 695.348 522.836 693.402Z"/><path fill="#C5DCEA" transform="scale(1.02124 1.02124)" d="M239.83 762.763C237.427 765.085 154.328 796.215 151.017 796.317C161.282 792.697 172.325 787.448 183.127 783.533L221.615 769.74C227.152 767.699 234.554 765.165 239.83 762.763Z"/><path fill="#A7BBEA" transform="scale(1.02124 1.02124)" d="M475.936 707.032C477.093 706.887 480.567 703.904 481.912 702.959C490.303 697.066 499.738 692.724 510.171 693.058C505.577 694.784 499.771 694.915 494.486 697.003C479.541 702.907 469.474 715.789 457.043 725.434C455.592 726.552 449.382 731.813 447.861 731.197C449.414 730.013 452.49 728.006 453.448 726.576C453.655 726.061 474.171 708.301 475.936 707.032Z"/><path fill="#5597B4" transform="scale(1.02124 1.02124)" d="M10.0484 947.821L11.1181 947.538C8.9522 952.87 6.83336 958.223 4.41617 963.447C6.22754 958.328 7.59807 952.64 10.0484 947.821Z"/><path fill="white" transform="scale(1.02124 1.02124)" d="M360.114 753.847L360.912 753.959C380.859 756.662 419.233 756.002 438.522 751.307C447.917 749.1 457.016 745.784 465.629 741.429C479.926 734.132 498.493 717.96 514.569 723.143C530.705 728.924 526.568 744.831 514.177 751.739C491.598 764.327 463.839 762.284 438.982 762.106C417.326 761.952 397.312 759.762 375.94 756.77C371.304 756.121 365.048 755.155 360.479 755.004L360.114 753.847Z"/><path fill="#446ED2" transform="scale(1.02124 1.02124)" d="M503.967 725.606C507.664 725.353 511.087 725.244 514.554 726.846C519.107 728.95 521.258 732.503 522.984 736.969C521.55 740.388 519.604 743.308 516.959 745.9C498.652 763.837 446.598 759.082 421.391 758.999C414.902 758.932 408.031 759.109 401.689 757.684C409.317 757.248 417.02 757.438 424.626 756.739C441.731 755.168 459.438 749.33 474.325 740.794C483.925 735.29 492.93 727.912 503.967 725.606Z"/><path fill="#C5DCEA" transform="scale(1.02124 1.02124)" d="M360.479 755.004C357.052 754.487 350.118 753.333 347.021 752.317C351.417 752.502 355.794 753.013 360.114 753.847L360.479 755.004Z"/><path fill="#4D53BB" transform="scale(1.02124 1.02124)" d="M644.753 243.637C643.643 242.239 639.288 234.194 637.564 231.642C629.086 218.682 615.106 204.956 612.92 189.118C610.766 173.517 627.178 176.364 634.878 184.303C645.486 195.241 653.558 221.576 653.976 236.232C655.127 242.686 654.58 250.443 655.33 256.874L655.415 261.004C655.366 262.537 655.345 266.338 655.116 267.669L653.558 269.917C650.439 258.815 649.372 254.497 644.753 243.637Z"/><path fill="#5597B4" transform="scale(1.02124 1.02124)" d="M672.222 373.578C669.461 382.034 667.63 390.801 664.883 399.275C661.027 411.174 656.43 422.845 652.491 434.718C651.563 437.517 650.866 440.309 651.02 443.278L651.551 444.077C652.621 442.744 653.117 440.733 654.275 438.934C656.883 443.14 649.878 451.165 647.948 455.011C646.911 457.077 646.549 461.74 645.135 463.352L645.026 464.328C643.581 469.485 642.116 473.491 640.263 478.473C636.986 485.822 636.431 488.651 631.623 495.227L633.371 495.989C630.562 501.424 628.92 507.075 626.328 512.062C625.275 516.186 620.4 525.243 618.151 529.381C601.993 559.109 574.198 586.659 547.41 606.993C536.534 615.249 524.438 622.358 513.333 630.034C517.767 629.525 523.917 628.28 528.345 627.443C534.11 626.168 540.812 625.394 546.343 623.289C573.616 612.911 590.36 587.85 610.028 567.852C614.902 562.896 620.619 558.336 626.084 554.064C629.489 551.403 633.324 549.223 636.495 546.273C638.729 545.929 642.684 543.816 644.632 542.701C651.826 540.3 655.946 539.315 663.438 538.104C662.672 538.799 651.44 541.41 649.399 541.992C641.189 544.333 635.732 547.829 628.884 552.962C621.481 558.47 614.517 564.545 608.057 571.134C589.098 590.687 570.183 617.99 542.321 625.304C540.557 625.767 505.924 632.862 505.78 632.842L505.375 632.002C506.775 629.985 509.112 629.428 510.642 628.045C519.192 620.32 529.401 614.957 538.593 608.111C564.397 588.762 588.28 566.258 607.077 539.885C613.259 531.211 621.571 513.659 625.42 503.395C625.794 502.4 632.412 482.631 632.611 483.962C631.403 475.862 635.071 473.421 638.206 465.504C639.253 463.041 640.479 459.068 641.733 456.508C644.163 451.386 647.401 445.841 649.286 440.501C656.14 421.085 663.806 401.892 668.76 381.868C669.383 379.351 670.119 374.788 672.222 373.578Z"/><path fill="#64CEE6" transform="scale(1.02124 1.02124)" d="M626.84 506.685L627.377 507.756C626.854 509.278 626.302 510.463 626.328 512.062C625.275 516.186 620.4 525.243 618.151 529.381C601.993 559.109 574.198 586.659 547.41 606.993C536.534 615.249 524.438 622.358 513.333 630.034C512.227 630.252 511.477 630.43 510.349 630.499C512.476 629.062 512.798 629.208 513.355 627.191C514.622 625.317 535.53 611.546 539.351 608.698C566.528 588.44 592.204 564.285 610.918 535.843C616.255 527.731 620.165 517.087 624.31 508.651L624.71 507.85C625.567 507.589 626.043 507.181 626.84 506.685Z"/><path fill="#64CEE6" transform="scale(1.02124 1.02124)" d="M645.057 459.952L645.135 463.352L645.026 464.328C643.581 469.485 642.116 473.491 640.263 478.473C636.986 485.822 636.431 488.651 631.623 495.227C630.716 496.572 627.769 501.303 626.839 501.753C629.735 493.779 634.757 479.029 637.884 471.909C641.913 469.548 641.709 464.733 645.057 459.952Z"/><path fill="#81D4EF" transform="scale(1.02124 1.02124)" d="M637.884 471.909C640.451 463.974 643.364 455.053 647.683 447.965C647.076 452.01 646.394 456.074 645.057 459.952C641.709 464.733 641.913 469.548 637.884 471.909Z"/><path fill="white" transform="scale(1.02124 1.02124)" d="M624.71 507.85C625.531 506.088 626.897 503.308 628.564 502.275C628.594 503.756 628.705 503.195 627.966 504.581L626.84 506.685C626.043 507.181 625.567 507.589 624.71 507.85Z"/><path fill="#81D4EF" transform="scale(1.02124 1.02124)" d="M513.355 627.191C512.798 629.208 512.476 629.062 510.349 630.499C509.2 631.095 509.225 631.061 507.941 631.29C509.394 629.642 511.494 628.43 513.355 627.191Z"/><defs><linearGradient id="gradient_1" gradientUnits="userSpaceOnUse" x1="728.26221" y1="179.36409" x2="695.8623" y2="164.27861"><stop offset="0" stop-color="#69F3E8"/><stop offset="1" stop-color="#43B8EF"/></linearGradient></defs><path fill="url(#gradient_1)" transform="scale(1.02124 1.02124)" d="M770.147 85.7036C770.974 86.0421 772.343 86.5499 773.092 86.9318C749.64 101.49 730.071 118.002 713.189 140.226C708.238 146.743 704.619 154.258 700.831 161.468C690.033 181.435 682.651 201.379 677.813 223.553C676.377 230.134 674.087 240.633 673.446 247.333C672.675 251.347 671.719 263.209 670.614 266.022L669.1 266.559C669.014 252.154 672.782 227.527 676.666 213.582C692.491 156.767 718.226 115.575 770.147 85.7036Z"/><path fill="#FDFEC8" transform="scale(1.02124 1.02124)" d="M652.992 276.456C650.068 264.144 647.55 253.077 641.244 241.49C632.776 225.379 612.771 207.067 610.956 188.573C609.439 173.102 627.805 172.793 636.741 183.574C653.5 203.794 657.28 233.467 656.976 258.728L657.026 263.115L655.415 261.004L655.33 256.874C654.58 250.443 655.127 242.686 653.976 236.232C653.558 221.576 645.486 195.241 634.878 184.303C627.178 176.364 610.766 173.517 612.92 189.118C615.106 204.956 629.086 218.682 637.564 231.642C639.288 234.194 643.643 242.239 644.753 243.637C649.372 254.497 650.439 258.815 653.558 269.917L654.148 275.418L652.992 276.456Z"/><path fill="#CAFCD6" transform="scale(1.02124 1.02124)" d="M838.879 76.4962C839.405 77.2301 839.923 77.9689 840.473 78.6853C825.713 101.875 782.761 112.791 757.869 121.629C734.609 129.888 721.336 141.127 707.014 160.989L706.123 160.639C727.23 127.292 748.755 122.614 783.441 110.708C799.659 105.142 831.431 92.2628 838.879 76.4962Z"/><defs><linearGradient id="gradient_2" gradientUnits="userSpaceOnUse" x1="792.62628" y1="75.819328" x2="795.19592" y2="81.769051"><stop offset="0" stop-color="#86FDDE"/><stop offset="1" stop-color="#D3FBE2"/></linearGradient></defs><path fill="url(#gradient_2)" transform="scale(1.02124 1.02124)" d="M770.147 85.7036C786.481 77.2243 803.221 71.1018 821.83 71.5272C820.016 72.0566 819.474 72.2359 817.618 72.4121C818.152 73.0315 818.355 73.1055 818.578 73.8963C801.214 74.3257 788.433 79.077 773.092 86.9318C772.343 86.5499 770.974 86.0421 770.147 85.7036Z"/><path fill="#B8C8EE" transform="scale(1.02124 1.02124)" d="M595.113 454.447L596.651 455.098C590.123 471.774 588.026 476.599 577.294 491.205L577.182 488.873C582.81 479.985 587.22 469.536 590.827 459.674C593.714 458.285 593.845 457.387 595.113 454.447Z"/><path fill="#234493" transform="scale(1.02124 1.02124)" d="M653.824 281.118C654.206 283.247 654.538 285.001 654.714 287.18C654.964 294.864 655.703 307.702 654.253 314.911C653.654 314.315 651.336 296.344 650.861 293.58L651.301 293.382C651.95 295.644 652.189 296.565 652.448 298.907L652.504 299.446C653.407 294.154 652.896 283.127 653.824 281.118Z"/><path fill="#E0F7F1" transform="scale(1.02124 1.02124)" d="M821.83 71.5272C825.025 71.3831 840.57 71.1465 841.063 76.4463C841.085 76.6822 840.591 78.3069 840.473 78.6853C839.923 77.9689 839.405 77.2301 838.879 76.4962C832.04 73.9697 825.731 73.9889 818.578 73.8963C818.355 73.1055 818.152 73.0315 817.618 72.4121C819.474 72.2359 820.016 72.0566 821.83 71.5272Z"/><path fill="#B8F2EE" transform="scale(1.02124 1.02124)" d="M706.099 589.499L707.611 589.313C707.545 590.933 705.973 592.943 704.859 594.023C703.236 597.305 700.816 599.472 698.26 602.086C697.396 602.671 695.836 603.869 694.943 604.116C693.365 605.612 690.366 608.024 688.384 608.936L687.348 607.548C694.947 603.94 701.522 596.322 706.099 589.499Z"/><path fill="#446ED2" transform="scale(1.02124 1.02124)" d="M694.943 604.116C695.112 603.772 703.727 595.274 704.859 594.023C703.236 597.305 700.816 599.472 698.26 602.086C697.396 602.671 695.836 603.869 694.943 604.116Z"/><path fill="white" transform="scale(1.02124 1.02124)" d="M656.563 283.943C656.393 291.46 657.171 309.654 654.6 315.581L654.253 314.911C655.703 307.702 654.964 294.864 654.714 287.18C655.261 284.66 654.669 285.702 656.563 283.943Z"/><path fill="#FBFCDF" transform="scale(1.02124 1.02124)" d="M655.415 261.004L657.026 263.115C656.974 267.612 656.827 272.106 656.586 276.596L655.868 276.694L654.938 275.847L654.148 275.418L653.558 269.917L655.116 267.669C655.345 266.338 655.366 262.537 655.415 261.004Z"/><path fill="#63674F" transform="scale(1.02124 1.02124)" d="M653.558 269.917L655.116 267.669L654.938 275.847L654.148 275.418L653.558 269.917Z"/><path fill="#FDFEC8" transform="scale(1.02124 1.02124)" d="M654.148 275.418L654.938 275.847L655.868 276.694L656.586 276.596L656.563 283.943C654.669 285.702 655.261 284.66 654.714 287.18C654.538 285.001 654.206 283.247 653.824 281.118L652.992 276.456L654.148 275.418Z"/><path fill="#C5DCEA" transform="scale(1.02124 1.02124)" d="M707.014 160.989C705.947 162.75 705.311 164.073 703.778 165.428L703.488 165.083C704.404 163.051 704.824 162.494 706.123 160.639L707.014 160.989Z"/><path fill="white" transform="scale(1.02124 1.02124)" d="M801.332 232.169C804.292 231.727 810.732 231.314 813.193 233.226C814.306 234.09 814.8 234.93 814.981 236.332C815.335 239.08 813.134 242.397 811.618 244.485C798.736 262.225 775.317 270.153 756.427 279.74C750.695 282.689 745.122 285.937 739.729 289.47C725.217 298.933 705.308 315.33 695.093 328.854C692.727 331.417 690.603 334.323 688.352 337.001L688.15 336.845C699.608 322.563 707.877 306.247 718.782 291.61C738.507 265.135 767.537 237.11 801.332 232.169Z"/><path fill="#437BAC" transform="scale(1.02124 1.02124)" d="M707.799 309.793C724.717 282.735 771.657 228.78 811.507 235.128C812.599 235.302 812.81 236.441 813.036 237.335C812.111 241.134 806.378 247.566 803.442 250.224C789.416 262.923 770.621 269.657 754.012 278.385C736.744 287.458 723.309 299.262 709.088 312.289C709.266 311.042 709.301 311.461 708.971 310.305L707.799 309.793Z"/><path fill="#4789A6" transform="scale(1.02124 1.02124)" d="M700.276 321.405C702.735 317.503 705.243 313.632 707.799 309.793L708.971 310.305C709.301 311.461 709.266 311.042 709.088 312.289L700.276 321.405Z"/><path fill="#446ED2" transform="scale(1.02124 1.02124)" d="M983.507 0L1024 0L1024 98.3297C990.625 131.293 971.4 173.76 965.99 220.168C961.693 257.034 969.4 295.916 953.943 330.755C945.67 349.401 931.995 364.684 917.318 378.523C886.088 408.228 863.378 434.4 863.234 480.205C863.117 517.562 877.059 551.496 866.705 588.802C862.804 603.003 855.19 615.909 844.648 626.192C837.755 633.023 821.754 645.335 812.546 648.663C813.628 641.691 813.403 624.888 813.461 617.672C813.745 582.885 809.692 547.592 808.52 512.997C808.448 510.836 808.399 508.673 808.371 506.51C807.968 475.219 813.414 447.939 834.85 423.762C843.04 414.524 852.626 405.978 861.478 397.248C878.746 380.218 895.061 359.23 905.485 337.174C921.707 302.851 923.146 265.79 924.244 228.556C926.291 159.118 924.489 83.914 964.302 23.5389C969.736 15.2978 976.808 7.18333 983.507 0Z"/><path fill="white" transform="scale(1.02124 1.02124)" d="M796.055 287.286C809.506 301.454 838.795 312.822 858.571 313.729L857.255 315.664C850.383 346.462 844.145 381.256 815.64 398.118C799.594 407.611 790.846 411.4 772.11 410.93C771.433 411.491 770.863 411.925 770.247 412.553C767.738 412.966 758.954 418.376 755.877 419.743C751.15 421.843 745.798 424.528 740.83 426.001C705.246 436.553 678.295 440.829 652.551 470.92C647.711 476.578 643.326 482.424 638.914 488.537C638.057 489.724 634.246 495.078 633.371 495.989L631.623 495.227C636.431 488.651 636.986 485.822 640.263 478.473C642.116 473.491 643.581 469.485 645.026 464.328L645.135 463.352C646.549 461.74 646.911 457.077 647.948 455.011C649.878 451.165 656.883 443.14 654.275 438.934C653.117 440.733 652.621 442.744 651.551 444.077L651.02 443.278C650.866 440.309 651.563 437.517 652.491 434.718C656.43 422.845 661.027 411.174 664.883 399.275C667.63 390.801 669.461 382.034 672.222 373.578C673.397 370.937 674.6 368.308 675.831 365.692C686.337 343.576 716.918 317.433 739.089 307.378C755.413 299.975 777.817 294.198 795.394 287.938L796.055 287.286Z"/><path fill="#437BAC" transform="scale(1.02124 1.02124)" d="M741.353 361.71C757.503 358.946 788.062 353.891 791.135 377.377C791.547 380.491 791.509 383.647 791.022 386.75C788.345 392.875 786.879 395.42 782.857 400.746L782.844 401.139C779.29 404.429 775.712 407.693 772.11 410.93C771.433 411.491 770.863 411.925 770.247 412.553C767.738 412.966 758.954 418.376 755.877 419.743C751.15 421.843 745.798 424.528 740.83 426.001C705.246 436.553 678.295 440.829 652.551 470.92C647.711 476.578 643.326 482.424 638.914 488.537C638.057 489.724 634.246 495.078 633.371 495.989L631.623 495.227C636.431 488.651 636.986 485.822 640.263 478.473C642.116 473.491 643.581 469.485 645.026 464.328L645.135 463.352C646.549 461.74 646.911 457.077 647.948 455.011C649.878 451.165 656.883 443.14 654.275 438.934C656.675 433.161 661.893 427.852 665.107 422.528C683.2 392.546 700.592 376.115 733.832 363.779L735.156 363.693C737.295 363.153 739.269 362.428 741.353 361.71Z"/><path fill="#234493" transform="scale(1.02124 1.02124)" d="M645.026 464.328L645.736 464.164C646.504 465.424 646.872 465.614 646.306 467.406C645.55 469.795 642.433 476.918 640.858 478.285L640.263 478.473C642.116 473.491 643.581 469.485 645.026 464.328Z"/><path fill="#437BAC" transform="scale(1.02124 1.02124)" d="M661.223 442.647C679.189 418.372 704.974 394.203 733.956 384.774C742.313 382.055 758.416 374.791 767.377 378.938C775.496 383.779 756.942 395.389 753.549 397.514C719.769 418.669 685.825 419.059 658.337 451.844C656.442 454.168 653.27 457.42 651.169 459.715C654.749 452.8 656.73 448.992 661.223 442.647Z"/><path fill="white" transform="scale(1.02124 1.02124)" d="M661.223 442.647C679.189 418.372 704.974 394.203 733.956 384.774C742.313 382.055 758.416 374.791 767.377 378.938C775.496 383.779 756.942 395.389 753.549 397.514C719.769 418.669 685.825 419.059 658.337 451.844L657.174 451.613C673.753 428.13 701.497 418.228 727.018 408.416C737.143 404.523 761.938 392.431 766.294 383.411C765.146 372.333 715.634 394.17 709.34 398.774C693.111 410.646 674.316 427.086 662.157 443.141L661.223 442.647Z"/><path fill="#B8C8EE" transform="scale(1.02124 1.02124)" d="M651.169 459.715C654.749 452.8 656.73 448.992 661.223 442.647L662.157 443.141C660.955 444.803 656.493 450.556 656.294 452.079L657.174 451.613L658.337 451.844C656.442 454.168 653.27 457.42 651.169 459.715Z"/><path fill="white" transform="scale(1.02124 1.02124)" d="M735.156 363.693C737.446 357.653 753.8 343.821 759.393 340.068C763.793 337.162 768.419 334.614 773.228 332.45C796.676 321.907 816.234 324.139 840.421 328.563C833.535 354.111 823.656 381.215 799.585 394.966C795.73 397.168 787.073 400.606 782.857 400.746C786.879 395.42 788.345 392.875 791.022 386.75C791.509 383.647 791.547 380.491 791.135 377.377C788.062 353.891 757.503 358.946 741.353 361.71C739.269 362.428 737.295 363.153 735.156 363.693Z"/><path fill="#A7BBEA" transform="scale(1.02124 1.02124)" d="M741.353 361.71C746.109 356.911 751.395 353.958 757.242 350.756C779.336 338.656 798.631 336.245 823.206 336.033C824.073 336.029 824.94 336.038 825.806 336.058C815.558 356.859 807.796 370.14 791.022 386.75C791.509 383.647 791.547 380.491 791.135 377.377C788.062 353.891 757.503 358.946 741.353 361.71Z"/><path fill="#86A1E2" transform="scale(1.02124 1.02124)" d="M733.832 363.779C746.148 344.855 769.527 329.969 791.523 325.322C809.751 321.47 824.174 324.477 842.088 327.236C832.707 355.242 827.717 381.13 798.072 396.751C794.982 398.379 786.119 401.916 782.844 401.139L782.857 400.746C787.073 400.606 795.73 397.168 799.585 394.966C823.656 381.215 833.535 354.111 840.421 328.563C816.234 324.139 796.676 321.907 773.228 332.45C768.419 334.614 763.793 337.162 759.393 340.068C753.8 343.821 737.446 357.653 735.156 363.693L733.832 363.779Z"/><path fill="#6053CC" transform="scale(1.02124 1.02124)" d="M796.055 287.286C809.506 301.454 838.795 312.822 858.571 313.729L857.255 315.664C854.764 315.37 852.277 315.044 849.794 314.686C833.296 312.273 805.102 300.971 795.394 287.938L796.055 287.286Z"/><path fill="#4D53BB" transform="scale(1.02124 1.02124)" d="M158.63 828.806C189.894 808.107 214.574 791.9 254.684 791.862C260.868 791.856 278.538 794.832 281.956 793.767L281.854 794.694C283.569 795.527 301.604 802.443 302.923 802.339L303.623 802.985C304.376 804.33 306.775 805.459 308.203 806.143C320.804 817.043 332.652 829.847 328.238 847.978C323.917 857.487 319.162 862.709 310.038 868.272L308.039 869.127C302.355 871.809 299.187 873.32 293.148 874.776C272.659 879.072 256.785 880.241 235.935 878.076C222.628 876.694 209.642 874.772 196.306 874.239C154.58 872.572 115.912 879.277 78.4648 898.252C61.494 906.851 48.4702 914.608 34.9557 928.675C34.1002 928.952 33.9372 929.202 33.0738 928.853C33.4354 924.999 41.0805 916.192 43.5191 912.569L43.2858 911.596C45.0309 909.084 47.1675 906.854 49.1987 904.572L48.7312 903.418C31.5218 920.91 12.8795 956.003 6.84367 979.973C4.06728 990.999 2.30974 1004.84 1.17111 1016.22C1.18023 1015.1 1.1299 1014.12 0.905493 1013.02L0 1012.53L0 1003.56C3.55714 998.571 1.32081 985.084 1.24383 978.903C1.22356 977.275 1.13595 975.362 1.55682 973.794C3.41584 966.865 22.3301 923.582 26.5865 919.368C27.238 918.722 27.6155 918.275 28.0207 917.432C28.1642 917.134 28.2979 916.83 28.4365 916.53C28.2379 916.696 28.0375 916.86 27.8406 917.028C26.664 918.034 27.4925 917.309 26.4357 918.354C25.823 918.959 25.4756 919.163 24.6853 919.448C35.1063 897.319 59.6347 878.793 80.2973 866.737C86.3629 863.198 93.3452 858.805 99.6533 855.813C105.688 852.263 115.074 848.313 121.538 845.465C134.055 839.951 146.329 834.851 158.63 828.806Z"/><path fill="#B8F2EE" transform="scale(1.02124 1.02124)" d="M48.7312 903.418C52.7062 898.589 57.4732 894.342 62.2032 890.265C101.315 856.557 156.054 846.279 204.456 832.504C221.955 827.524 239.498 819.835 257.699 817.988C267.482 816.994 278.25 817.529 286.266 823.962C289.434 826.505 291.431 829.655 291.886 833.736C292.22 836.733 291.297 839.584 289.359 841.879C282.506 849.994 265.304 852.382 255.365 852.904C236.229 853.909 217.279 850.254 198.199 849.514C155.348 847.853 109.657 857.351 74.2177 882.46C65.0423 888.961 57.0022 896.518 49.1987 904.572L48.7312 903.418Z"/><path fill="#437BAC" transform="scale(1.02124 1.02124)" d="M156.872 848.128C173.278 843.517 189.662 838.911 206.158 834.456C224.609 829.564 243.292 821.951 262.421 820.582C270.842 819.979 287.106 822.907 289.144 832.417C291.411 842.996 274.916 847.111 267.641 848.372C247.993 851.778 228.998 848.381 209.392 847.165C196.487 846.515 173.286 847.245 160.311 849.201C158.97 848.988 158.126 848.606 156.872 848.128Z"/><path fill="#4789A6" transform="scale(1.02124 1.02124)" d="M160.311 849.201C156.017 849.711 152.396 850.531 147.912 850.969L148.627 851.053L148.743 849.707C151.457 849.2 154.166 848.673 156.872 848.128C158.126 848.606 158.97 848.988 160.311 849.201Z"/><path fill="#5597B4" transform="scale(1.02124 1.02124)" d="M24.6853 919.448C35.1063 897.319 59.6347 878.793 80.2973 866.737C86.3629 863.198 93.3452 858.805 99.6533 855.813C98.5938 857.257 98.3759 857.446 96.8537 858.393L100.316 857.129L100.972 857.982C74.6882 871.091 51.6067 888.954 32.9424 911.199C31.9892 912.335 29.2565 915.911 28.4365 916.53C28.2379 916.696 28.0375 916.86 27.8406 917.028C26.664 918.034 27.4925 917.309 26.4357 918.354C25.823 918.959 25.4756 919.163 24.6853 919.448Z"/><path fill="#4789A6" transform="scale(1.02124 1.02124)" d="M158.63 828.806C154.107 835.085 109.238 855.388 100.972 857.982L100.316 857.129L96.8537 858.393C98.3759 857.446 98.5938 857.257 99.6533 855.813C105.688 852.263 115.074 848.313 121.538 845.465C134.055 839.951 146.329 834.851 158.63 828.806Z"/><path fill="#A7BBEA" transform="scale(1.02124 1.02124)" d="M661.475 52.5203C658.175 56.5347 654.868 64.397 652.915 69.2087C641.758 96.7001 653.428 120.417 663.136 146.016C666.34 154.464 669.141 162.579 670.292 171.621C671.392 180.251 669.546 183.961 668.327 192.058L669.062 192.467C668.332 197.192 667.772 199.944 666.503 204.547C666.27 207.658 665.828 210.591 665.39 213.677C663.609 208.573 662.265 202.974 660.315 197.987C653.975 181.771 644.608 162.372 628.229 154.188C616.3 148.228 604.712 152.37 599.703 164.819C593.509 180.211 595.445 197.45 601.685 212.528C609.465 231.043 625.607 245.31 636.506 262.11C643.887 273.488 646.499 281.179 650.861 293.58C651.336 296.344 653.654 314.315 654.253 314.911L654.6 315.581C653.502 319.429 655.22 338.722 654.554 345.089C652.084 368.708 632.035 408.543 614.701 423.983C618.101 412.276 622.597 401.712 623.634 389.107C624.183 382.44 623.843 376.089 624.117 369.454L625.289 367.07C627.623 363.234 627.183 350.56 627.326 345.872C628 323.176 625.019 300.339 613.552 280.34C607.632 270.015 601.001 260.269 595.562 249.677C594.18 246.987 591.857 242.075 590.041 239.829C582.808 230.884 572.552 223.449 567.116 213.066C560.796 203.933 557.228 192.669 555.259 181.822C550.466 155.417 553.629 129.9 569.24 107.488C583.857 86.5023 606.724 68.9038 630.707 59.9215C640.918 56.0971 650.89 54.4526 661.475 52.5203Z"/><path fill="white" transform="scale(1.02124 1.02124)" d="M661.475 52.5203C658.175 56.5347 654.868 64.397 652.915 69.2087C641.758 96.7001 653.428 120.417 663.136 146.016C666.34 154.464 669.141 162.579 670.292 171.621C671.392 180.251 669.546 183.961 668.327 192.058L669.062 192.467C668.332 197.192 667.772 199.944 666.503 204.547C664.094 201.136 663.035 190.17 660.241 185.005C655.259 175.799 651.398 164.288 646.742 155.069C640.108 141.936 632.832 130.795 627.762 116.762L626.636 117.285C623.64 107.326 622.764 101.065 624.351 90.5295C624.64 88.6096 625.978 85.1474 625.882 83.8257C619.628 84.6035 597.64 111.901 593.243 117.468C579.833 134.449 572.467 154.268 575.006 176.009C577.82 200.114 595.147 230.392 611.638 248.381L610.321 249.157L609.924 249.21C594.617 243.775 576.786 225.014 567.749 211.836L567.116 213.066C560.796 203.933 557.228 192.669 555.259 181.822C550.466 155.417 553.629 129.9 569.24 107.488C583.857 86.5023 606.724 68.9038 630.707 59.9215C640.918 56.0971 650.89 54.4526 661.475 52.5203Z"/><path fill="#86A1E2" transform="scale(1.02124 1.02124)" d="M661.475 52.5203C658.175 56.5347 654.868 64.397 652.915 69.2087C641.758 96.7001 653.428 120.417 663.136 146.016C666.34 154.464 669.141 162.579 670.292 171.621C671.392 180.251 669.546 183.961 668.327 192.058L669.062 192.467C668.332 197.192 667.772 199.944 666.503 204.547C666.658 192.978 670.478 180.096 668.71 169.293C663.485 137.372 638.749 108.194 649.804 74.4684C652.038 67.6387 655.413 60.8669 658.554 54.2752C624.158 58.4881 595.352 76.9645 573.521 103.454C549.714 132.34 548.253 180.236 567.749 211.836L567.116 213.066C560.796 203.933 557.228 192.669 555.259 181.822C550.466 155.417 553.629 129.9 569.24 107.488C583.857 86.5023 606.724 68.9038 630.707 59.9215C640.918 56.0971 650.89 54.4526 661.475 52.5203Z"/><path fill="#86A1E2" transform="scale(1.02124 1.02124)" d="M610.321 249.157C609.423 247.347 606.607 244.459 605.199 242.745C585.636 218.942 567.738 184.687 574.804 152.753C576.697 144.426 579.796 136.42 584.002 128.989C592.284 114.263 614.698 88.4622 628.821 79.384C623.72 91.2538 623.341 104.623 627.762 116.762L626.636 117.285C623.64 107.326 622.764 101.065 624.351 90.5295C624.64 88.6096 625.978 85.1474 625.882 83.8257C619.628 84.6035 597.64 111.901 593.243 117.468C579.833 134.449 572.467 154.268 575.006 176.009C577.82 200.114 595.147 230.392 611.638 248.381L610.321 249.157Z"/><path fill="white" transform="scale(1.02124 1.02124)" d="M611.638 248.381C595.147 230.392 577.82 200.114 575.006 176.009C572.467 154.268 579.833 134.449 593.243 117.468C597.64 111.901 619.628 84.6035 625.882 83.8257C625.978 85.1474 624.64 88.6096 624.351 90.5295C622.764 101.065 623.64 107.326 626.636 117.285C628.416 122.71 629.799 126.024 632.128 131.013C635.203 137.599 653.079 166.085 650.455 171.402C648.415 170.554 645.771 164.882 644.184 162.88C635.261 151.625 626.363 138.468 620.367 125.4C617.077 118.227 616.442 110.735 615.928 102.906C607.825 110.621 600.693 121.157 595.348 130.992C577.658 163.546 587.315 202.455 604.636 232.917C609.498 241.467 616.149 249.377 621.264 257.759C617.754 254.586 614.927 251.749 611.638 248.381Z"/><path fill="white" transform="scale(1.02124 1.02124)" d="M704.191 118.578C702.741 108.524 717.872 83.351 724.17 74.7884C750.946 38.3852 795.518 16.4348 840.673 17.486C869.618 18.1599 896.978 25.4641 923.305 37.3434C929.66 40.2109 936.758 42.0683 942.775 45.6021C943.487 46.0188 943.208 46.8946 943.219 47.7406C940.441 50.5995 936.001 67.7484 934.335 72.8991C921.632 112.178 893.175 139.955 851.147 144.602C831.849 146.394 813.913 142.755 795.53 137.454C792.422 136.357 788.233 135.387 785.617 133.705L787.295 133.257L788.567 132.778L791.18 131.87C798.448 128.565 806.097 126.01 813.651 122.433C839.527 110.181 853.895 93.1588 867.931 69.061C856.756 60.4119 847.026 56.7289 832.967 55.3873C799.785 52.2209 769.561 64.6054 742.534 82.6033C739.673 84.7091 731.573 90.9939 728.677 91.9612C718.186 102.207 713.545 107.569 704.191 118.578Z"/><path fill="#A7BBEA" transform="scale(1.02124 1.02124)" d="M742.368 80.84C754.949 68.0121 785.95 53.6524 803.522 49.0762C811.589 46.9757 822.195 46.1219 830.512 45.9559C853.713 45.4928 873.894 51.4305 896.063 57.0835C888.588 75.0376 861.795 99.1641 845.127 110.273C834.299 117.49 803.575 132.41 791.18 131.87C798.448 128.565 806.097 126.01 813.651 122.433C839.527 110.181 853.895 93.1588 867.931 69.061C856.756 60.4119 847.026 56.7289 832.967 55.3873C799.785 52.2209 769.561 64.6054 742.534 82.6033L742.368 80.84Z"/><path fill="#86A1E2" transform="scale(1.02124 1.02124)" d="M728.677 91.9612C733.25 85.507 743.307 75.7421 749.325 70.1938C781.759 40.2914 830.147 25.9331 873.253 37.437C886.035 40.8483 909.373 50.5859 921.04 51.0432L921.769 51.0683C917.029 55.6587 909.871 62.6867 906.585 68.2892C896.632 85.2562 891.857 102.238 876.742 116.202C862.496 129.364 842.505 135.81 823.374 137.633C818.059 138.139 813.181 137.213 808.061 136.985L808.433 136.496C810.816 135.75 814.286 137.149 817.011 137.115C852.59 136.666 882.735 118.731 896.544 85.4032C901.839 72.6239 908.286 61.5447 918.335 52.3709C882.05 43.3114 861.988 29.3793 821.146 36.4902C794.056 41.2065 769.843 53.0112 749.473 71.7403C747.022 73.9941 741.676 78.7703 739.921 81.2015L740.367 81.5554L742.368 80.84L742.534 82.6033C739.673 84.7091 731.573 90.9939 728.677 91.9612Z"/><path fill="#A7BBEA" transform="scale(1.02124 1.02124)" d="M787.295 133.257L788.567 132.778C791.987 133.825 794.511 133.697 797.374 134.47L797.096 135.286C794.178 134.84 790.423 133.837 787.295 133.257Z"/><path fill="#86A1E2" transform="scale(1.02124 1.02124)" d="M797.374 134.47C798.708 134.516 802.475 134.473 803.432 134.945L803.358 135.513L803.273 134.913L803.009 135.603C800.43 136.137 799.772 135.822 797.096 135.286L797.374 134.47Z"/><path fill="#B8C8EE" transform="scale(1.02124 1.02124)" d="M829.372 131.279C829.865 131.252 830.41 131.362 830.903 131.417C830.591 131.48 830.268 131.504 829.967 131.606C823.447 133.812 815.518 133.367 808.68 134.654C807.376 134.706 806.472 134.653 805.191 134.304C806.464 133.349 826.251 131.548 829.372 131.279Z"/><path fill="white" transform="scale(1.02124 1.02124)" d="M644.632 542.701C645.147 538.304 665.986 521.447 670.747 517.712C703.991 491.636 744.294 487.027 784.938 492.726C787.195 492.313 787.723 492.167 789.832 491.272L800.316 493.074L802.512 495.547C800.988 522.392 804.971 533.232 797.107 562.285C788.317 584.179 778.389 595.143 758.315 608.09C731.807 625.186 703.191 630.961 672.075 626.919C666.587 626.207 656.654 623.739 651.562 624.262C655.451 621.691 668.641 619.792 671.293 617.483C672.442 616.661 673.841 616.118 675.15 615.511L675.577 615.744C680.426 613.405 683.791 611.745 688.384 608.936C690.366 608.024 693.365 605.612 694.943 604.116C695.836 603.869 697.396 602.671 698.26 602.086C700.816 599.472 703.236 597.305 704.859 594.023C705.973 592.943 707.545 590.933 707.611 589.313L706.099 589.499C715.622 571.928 715.224 557.942 701.357 543.265C698.545 541.937 696.068 540.866 693.185 539.694C681.329 536.981 675.937 536.611 664.174 537.904L663.438 538.104C655.946 539.315 651.826 540.3 644.632 542.701Z"/><path fill="#A7BBEA" transform="scale(1.02124 1.02124)" d="M677.112 527.39C698.481 515.354 722.427 516.956 745.63 520.896C759.677 523.281 762.171 525.056 776.357 522.769C772.707 532.518 770.296 542.907 766.758 552.173C759.437 571.345 743.732 585.886 725.139 594.426C716.654 598.419 707.576 601.006 698.26 602.086C700.816 599.472 703.236 597.305 704.859 594.023C705.973 592.943 707.545 590.933 707.611 589.313L706.099 589.499C715.622 571.928 715.224 557.942 701.357 543.265C698.545 541.937 696.068 540.866 693.185 539.694C681.329 536.981 675.937 536.611 664.174 537.904C665.371 536.959 667.291 534.717 669.101 533.236C669.551 533.123 676.338 528.086 677.112 527.39Z"/><path fill="white" transform="scale(1.02124 1.02124)" d="M693.185 539.694C694.941 539.033 703.783 540.186 706.652 540.401C716.698 541.153 729.087 541.673 738.954 540.117C747.428 538.77 755.638 536.104 763.287 532.217C766.361 530.633 769.525 528.609 772.605 527.25C758.683 540.368 739.191 545.609 720.387 545.011C714.018 544.753 707.667 544.171 701.357 543.265C698.545 541.937 696.068 540.866 693.185 539.694Z"/><path fill="white" transform="scale(1.02124 1.02124)" d="M677.112 527.39C678.123 524.31 692.024 514.475 695.374 512.927C707.198 507.466 723.172 507.11 736.151 507.592C753.679 508.242 770.602 509.72 788.207 509.401C783.515 543.212 780.244 573.72 750.912 596.613C733.988 609.822 711.56 614.967 690.531 616.137C687.348 616.314 680.685 616.659 677.791 616.228C677.043 616.115 676.304 615.953 675.577 615.744C680.426 613.405 683.791 611.745 688.384 608.936C690.366 608.024 693.365 605.612 694.943 604.116C695.836 603.869 697.396 602.671 698.26 602.086C707.576 601.006 716.654 598.419 725.139 594.426C743.732 585.886 759.437 571.345 766.758 552.173C770.296 542.907 772.707 532.518 776.357 522.769C762.171 525.056 759.677 523.281 745.63 520.896C722.427 516.956 698.481 515.354 677.112 527.39Z"/><path fill="#737DE4" transform="scale(1.02124 1.02124)" d="M669.101 533.236C675.516 526.302 688.804 513.678 697.942 510.372C718.078 503.089 743.496 506.976 764.553 507.811C772.721 508.135 781.974 507.647 789.649 508.377C788.622 512.529 787.998 517.671 787.573 521.975C784.424 553.901 773.855 584.559 745.054 602.097C723.828 615.021 695.937 619.386 671.293 617.483C672.442 616.661 673.841 616.118 675.15 615.511L675.577 615.744C676.304 615.953 677.043 616.115 677.791 616.228C680.685 616.659 687.348 616.314 690.531 616.137C711.56 614.967 733.988 609.822 750.912 596.613C780.244 573.72 783.515 543.212 788.207 509.401C770.602 509.72 753.679 508.242 736.151 507.592C723.172 507.11 707.198 507.466 695.374 512.927C692.024 514.475 678.123 524.31 677.112 527.39C676.338 528.086 669.551 533.123 669.101 533.236Z"/><path fill="#446ED2" transform="scale(1.02124 1.02124)" d="M789.832 491.272L800.316 493.074L802.512 495.547C800.782 495.566 787.471 493.158 784.938 492.726C787.195 492.313 787.723 492.167 789.832 491.272Z"/><path fill="#437BAC" transform="scale(1.02124 1.02124)" d="M520.627 386.081C517.269 362.392 519.847 328.028 552.975 329.106C557.741 329.261 562.355 330.964 566.92 332.327C571.533 335.743 574.545 338.037 578.836 341.911C579.503 342.968 579.944 343.803 580.857 344.668L582.94 342.891C585.207 346.505 587.432 350.146 589.615 353.812C593.033 359.76 596.733 367.159 598.574 373.768C605.056 397.044 605.041 432.221 595.113 454.447C593.845 457.387 593.714 458.285 590.827 459.674C587.22 469.536 582.81 479.985 577.182 488.873L577.294 491.205C573.015 498.425 558.872 515.914 552.808 521.933C552.07 522.358 550.06 525.081 549.456 525.853C548.626 524.062 563.925 496.606 564.628 491.866L563.75 491.426C560.844 498.107 557.781 504.719 554.563 511.257C553.331 513.762 549.811 520.3 548.945 522.489C547.278 526.104 543.698 532.676 541.306 535.88C539.921 538.602 538.417 541.644 536.669 544.168C536.214 544.824 534.8 545.373 533.976 546.338L533.259 545.992C528.248 555.961 518.771 580.972 512.027 587.565C512.31 579.291 517.74 558.438 519.695 550.247C528.449 513.579 544.681 476.372 535.95 438.034C533.895 429.011 527.818 411.828 524.307 402.986C524.508 401.702 524.43 402.096 524.118 400.723C523.019 395.807 521.652 391.033 520.627 386.081Z"/><path fill="#446ED2" transform="scale(1.02124 1.02124)" d="M556.372 476.472C558.001 459.13 557.807 446.678 555.026 429.46C551.514 407.729 539.587 388.037 541.254 365.848C543.068 342.251 562.781 350.63 571.86 364.521C587.533 388.501 582.359 415.746 577.654 442.01C574.467 459.797 569.911 474.561 563.75 491.426C560.844 498.107 557.781 504.719 554.563 511.257C553.331 513.762 549.811 520.3 548.945 522.489C547.278 526.104 543.698 532.676 541.306 535.88C539.921 538.602 538.417 541.644 536.669 544.168C536.214 544.824 534.8 545.373 533.976 546.338L533.259 545.992C537.972 536.389 545.838 522.289 548.244 512.451C552.7 499.579 555.283 491.027 557.399 477.432L556.372 476.472Z"/><path fill="white" transform="scale(1.02124 1.02124)" d="M556.372 476.472C558.001 459.13 557.807 446.678 555.026 429.46C551.514 407.729 539.587 388.037 541.254 365.848C543.068 342.251 562.781 350.63 571.86 364.521C587.533 388.501 582.359 415.746 577.654 442.01C574.467 459.797 569.911 474.561 563.75 491.426C560.844 498.107 557.781 504.719 554.563 511.257C553.331 513.762 549.811 520.3 548.945 522.489L548.25 521.652C563.267 492.917 572.206 466.424 576.955 434.36C580.907 410.652 583.585 386.384 569.254 365.386C563.629 356.221 546.292 344.635 543.797 362.766C541.948 375.466 545.572 388.804 549.73 400.758C558.564 426.152 560.871 450.812 557.399 477.432L556.372 476.472Z"/><path fill="#A7BBEA" transform="scale(1.02124 1.02124)" d="M548.25 521.652L548.945 522.489C547.278 526.104 543.698 532.676 541.306 535.88C541.953 533.171 546.637 524.668 548.25 521.652Z"/><defs><linearGradient id="gradient_3" gradientUnits="userSpaceOnUse" x1="587.46783" y1="406.13556" x2="602.47913" y2="404.60532"><stop offset="0" stop-color="#85CBF8"/><stop offset="1" stop-color="#8EA7FB"/></linearGradient></defs><path fill="url(#gradient_3)" transform="scale(1.02124 1.02124)" d="M589.615 353.812C593.033 359.76 596.733 367.159 598.574 373.768C605.056 397.044 605.041 432.221 595.113 454.447C593.845 457.387 593.714 458.285 590.827 459.674C593.072 450.719 596.117 442.582 597.995 433.229C602.92 407.628 599.805 381.131 589.075 357.371L589.615 353.812Z"/><path fill="#86A1E2" transform="scale(1.02124 1.02124)" d="M552.808 521.933C554.654 517.276 563.988 507.422 567.529 502.698C571.008 498.057 573.943 493.713 577.182 488.873L577.294 491.205C573.015 498.425 558.872 515.914 552.808 521.933Z"/><path fill="white" transform="scale(1.02124 1.02124)" d="M548.244 512.451C548.235 510.311 551.896 497.732 552.627 494.805C554.127 488.749 555.376 482.632 556.372 476.472L557.399 477.432C555.283 491.027 552.7 499.579 548.244 512.451Z"/><path fill="#86A1E2" transform="scale(1.02124 1.02124)" d="M580.857 344.668L582.94 342.891C585.207 346.505 587.432 350.146 589.615 353.812L589.075 357.371C586.142 352.318 584.379 349.348 580.857 344.668Z"/><path fill="white" transform="scale(1.02124 1.02124)" d="M364.011 730.002C369.158 730.045 377.047 728.874 382.224 728.07C412.157 723.425 451.695 717.75 476.801 699.387C499.19 683.011 502.643 668.594 531.121 658.134C581.315 639.698 617.555 673.272 665.708 677.628L665.715 678.075L663.572 679.434C662.347 678.784 662.196 678.831 660.832 678.434C646.17 691.663 641.102 700.637 629.787 715.948C611.579 740.588 575.097 754.224 545.113 754.398C547.753 751.386 549.88 747.86 552.129 744.515L552.158 743.13L552.687 742.897C555.072 737.099 555.219 734.529 555.97 728.253C556.147 717.91 553.296 713.136 547.528 705.21L545.029 702.904C538.776 697.326 528.976 693.336 520.747 692.095L514.767 691.979C510.822 692.075 506.142 692.051 502.306 692.654L500.556 693.169C494.154 695.35 479.506 701.182 475.936 707.032C474.171 708.301 453.655 726.061 453.448 726.576C448.817 729.481 443.434 732.852 438.234 734.824C417.615 742.64 393.546 744.642 371.657 745.483C364.252 745.767 355.752 744.774 348.661 745.078C339.388 744.69 332.267 745.282 323.431 745.3L323.135 744.494C330.236 742.738 341.466 738.332 348.451 735.604C349.962 734.23 361.371 730.854 364.011 730.002Z"/><path fill="#A7BBEA" transform="scale(1.02124 1.02124)" d="M519.916 687.616C531.683 677.237 550.962 674.806 566.129 675.301C581.883 675.815 596.975 681.336 611.44 682.668C598.679 702.175 579.608 723.128 555.97 728.253C556.147 717.91 553.296 713.136 547.528 705.21L545.029 702.904C538.776 697.326 528.976 693.336 520.747 692.095C520.773 690.175 521.016 689.156 519.916 687.616Z"/><path fill="white" transform="scale(1.02124 1.02124)" d="M545.029 702.904C560.268 694.417 571.754 694.7 588.012 692.329C592.206 691.718 600.788 688.055 605.421 686.715C589.982 699.207 571.054 694.768 553.825 702.195C551.667 703.125 549.617 704.136 547.528 705.21L545.029 702.904Z"/><path fill="white" transform="scale(1.02124 1.02124)" d="M502.306 692.654C513.259 679.333 534.723 671.363 551.464 669.817C571.791 667.94 589.56 671.077 608.93 676.684C613.97 678.142 620.601 679.841 625.358 681.89C620.304 689.667 616.857 698.517 612.22 705.897C601.403 723.113 582.175 737.698 562.067 741.827C559.166 742.423 555.61 743.147 552.687 742.897C555.072 737.099 555.219 734.529 555.97 728.253C579.608 723.128 598.679 702.175 611.44 682.668C596.975 681.336 581.883 675.815 566.129 675.301C550.962 674.806 531.683 677.237 519.916 687.616C521.016 689.156 520.773 690.175 520.747 692.095L514.767 691.979C510.822 692.075 506.142 692.051 502.306 692.654Z"/><path fill="#86A1E2" transform="scale(1.02124 1.02124)" d="M519.916 687.616C521.016 689.156 520.773 690.175 520.747 692.095L514.767 691.979C516.678 689.916 517.695 689.232 519.916 687.616Z"/><path fill="#737DE4" transform="scale(1.02124 1.02124)" d="M364.011 730.002C369.158 730.045 377.047 728.874 382.224 728.07C412.157 723.425 451.695 717.75 476.801 699.387C499.19 683.011 502.643 668.594 531.121 658.134C581.315 639.698 617.555 673.272 665.708 677.628L665.715 678.075L663.572 679.434C662.347 678.784 662.196 678.831 660.832 678.434C618.101 673.052 587.074 646.595 542.366 656.151C507.735 663.553 503.437 680.707 478.813 699.466C455.296 717.382 415.786 724.204 387.234 728.717C370.858 731.161 364.781 730.69 348.451 735.604C349.962 734.23 361.371 730.854 364.011 730.002Z"/><path fill="#737DE4" transform="scale(1.02124 1.02124)" d="M500.556 693.169C504.116 685.69 522.027 676.175 529.793 673.464C555.058 664.642 581.186 667.343 606.4 674.73C612.754 676.592 620.818 678.783 626.873 681.402C622.61 689.216 618.249 698.533 613.559 705.972C599.807 727.78 577.853 742.746 552.129 744.515L552.158 743.13L552.687 742.897C555.61 743.147 559.166 742.423 562.067 741.827C582.175 737.698 601.403 723.113 612.22 705.897C616.857 698.517 620.304 689.667 625.358 681.89C620.601 679.841 613.97 678.142 608.93 676.684C589.56 671.077 571.791 667.94 551.464 669.817C534.723 671.363 513.259 679.333 502.306 692.654L500.556 693.169Z"/><path fill="#446ED2" transform="scale(1.02124 1.02124)" d="M461.246 851.224C471.019 830.483 481.827 806.715 498.672 790.979C530.985 760.792 565.877 763.22 606.225 765.059C621.43 765.635 636.638 766.119 651.849 766.513C645.578 778.161 639.078 787.849 631.348 798.634C617.757 817.6 604.674 828.49 582.246 835.405C548.302 845.871 513.607 843.524 478.865 848.737C472.986 849.62 467.11 850.363 461.246 851.224Z"/><path fill="white" transform="scale(1.02124 1.02124)" d="M418.222 559.868L417.682 560.027C405.242 535.914 387.98 499.921 397.537 473.389C408.27 443.591 446.021 407.908 470.37 388.179C458.13 419.709 476.318 449.147 490.748 476.163C502.378 497.937 502.254 521.764 493.087 544.297C488.538 555.717 479.403 573.401 472.508 583.496L471.504 582.675C471.394 580.516 474.577 569.479 475.231 566.496C476.379 561.26 476.996 557.267 477.706 551.882L477.104 551.574C477.05 540.953 477.521 535.583 474.714 525.285C462.242 484.646 422.528 486.606 417.033 529.047C416.905 530.036 416.432 533.76 416.208 534.54C416.05 537.614 415.947 540.038 416.021 543.127C416.506 544.382 416.493 543.728 416.189 545.113C416.317 549.062 417.574 555.759 418.222 559.868Z"/><path fill="#A7BBEA" transform="scale(1.02124 1.02124)" d="M416.208 534.54C414.164 532.756 413.867 531.369 413.471 528.565C409.742 502.201 419.45 483.122 436.72 463.628C443.082 456.448 451.003 448.667 456.659 441.287C458.76 471.843 477.436 493.869 474.714 525.285C462.242 484.646 422.528 486.606 417.033 529.047C416.905 530.036 416.432 533.76 416.208 534.54Z"/><path fill="white" transform="scale(1.02124 1.02124)" d="M459.698 428.229C462.013 447.768 466.686 459.865 472.639 478.426C480.206 502.02 480.22 527.4 477.706 551.882L477.104 551.574C477.05 540.953 477.521 535.583 474.714 525.285C477.436 493.869 458.76 471.843 456.659 441.287C451.003 448.667 443.082 456.448 436.72 463.628C419.45 483.122 409.742 502.201 413.471 528.565C413.867 531.369 414.164 532.756 416.208 534.54C416.05 537.614 415.947 540.038 416.021 543.127C413.888 539.959 413.197 536.316 412.058 532.948C399.222 495.023 420.955 468.939 446.776 444.189C450.446 440.671 456.304 432.847 459.698 428.229Z"/><path fill="#86A1E2" transform="scale(1.02124 1.02124)" d="M416.189 545.113C408.742 535.488 406.749 514.485 407.769 502.312C410.682 467.554 446.69 451.062 460.412 423.925C461.941 443.687 467.685 458.144 473.566 476.738C481.5 501.822 482.153 528.619 478.563 554.526C477.659 561.046 474.685 577.356 471.504 582.675C471.394 580.516 474.577 569.479 475.231 566.496C476.379 561.26 476.996 557.267 477.706 551.882C480.22 527.4 480.206 502.02 472.639 478.426C466.686 459.865 462.013 447.768 459.698 428.229C456.304 432.847 450.446 440.671 446.776 444.189C420.955 468.939 399.222 495.023 412.058 532.948C413.197 536.316 413.888 539.959 416.021 543.127C416.506 544.382 416.493 543.728 416.189 545.113Z"/><path fill="white" transform="scale(1.02124 1.02124)" d="M281.854 794.694C283.456 793.83 289.383 792.014 291.367 791.349C310.441 784.955 332.048 782.068 352.043 785.277C381.547 789.922 399.136 803.68 423.279 819.237C428.283 822.462 435.359 824.792 439.303 827.175C434.52 830.662 428.198 833.623 422.97 837.171C403.143 850.625 391.462 860.802 368.291 868.74C351.264 875.196 333.074 878.017 314.891 877.02C312.67 876.92 306.582 876.647 304.756 875.696L304.915 874.684L304.626 874.211C305.378 872.838 307.095 870.501 308.039 869.127L310.038 868.272C319.162 862.709 323.917 857.487 328.238 847.978C332.652 829.847 320.804 817.043 308.203 806.143C306.775 805.459 304.376 804.33 303.623 802.985L302.923 802.339C301.604 802.443 283.569 795.527 281.854 794.694Z"/><path fill="#A7BBEA" transform="scale(1.02124 1.02124)" d="M308.203 806.143C332.564 802.433 352.894 805.227 375.495 815.781C383.096 819.33 390.391 824.13 398.277 826.66C374.282 838.815 356.273 848.308 328.238 847.978C332.652 829.847 320.804 817.043 308.203 806.143Z"/><path fill="#86A1E2" transform="scale(1.02124 1.02124)" d="M302.923 802.339C327.422 794.502 358.591 795.462 381.672 807.6C392.285 813.182 404.411 824.042 412.29 827.415C407.643 829.644 402.741 833.535 398.613 836.718C379.612 851.366 355.824 859.08 332.028 860.56C329.682 860.706 324.197 861.064 322.05 860.117L322.215 859.599C327.831 859.293 332.273 859.737 338.261 859.074C356.77 857.023 374.389 851.505 390.108 841.387C396.888 837.023 403.367 831.386 409.732 827.377L409.053 826.997C401.656 822.809 393.747 815.839 385.781 811.062C360.085 795.655 331.978 796.725 303.623 802.985L302.923 802.339Z"/><path fill="#A7BBEA" transform="scale(1.02124 1.02124)" d="M310.038 868.272C308.335 870.502 306.784 872.58 304.915 874.684L304.626 874.211C305.378 872.838 307.095 870.501 308.039 869.127L310.038 868.272Z"/><path fill="#437BAC" transform="scale(1.02124 1.02124)" d="M416.208 534.54C416.432 533.76 416.905 530.036 417.033 529.047C422.528 486.606 462.242 484.646 474.714 525.285C477.521 535.583 477.05 540.953 477.104 551.574L477.706 551.882C476.996 557.267 476.379 561.26 475.231 566.496C474.577 569.479 471.394 580.516 471.504 582.675L472.508 583.496C469.634 587.888 462.889 600.858 461.929 605.946C461.138 608.553 458.415 613.614 456.082 615.079C451.576 624.186 445.219 632.574 439.702 641.071C438.412 643.057 433.164 650.423 432.717 651.835C428.317 654.378 411.41 664.558 407.651 665.439C405.535 667.663 405.23 668.017 402.52 669.327C397.848 670.888 388.238 676.781 381.633 679.345C405.077 648.07 427.589 610.254 419.514 569.775C420.283 566.169 419.398 563.319 418.222 559.868C417.574 555.759 416.317 549.062 416.189 545.113C416.493 543.728 416.506 544.382 416.021 543.127C415.947 540.038 416.05 537.614 416.208 534.54Z"/><path fill="white" transform="scale(1.02124 1.02124)" d="M402.52 669.327C412.742 654.216 423.689 639.941 429.786 622.171C434.192 609.387 435.863 595.82 434.69 582.35C433.088 563.936 423.808 543.663 433.7 526.527C444.062 508.579 457.039 524.23 459.383 538.077C464.008 565.407 452.261 591.059 439.805 614.625C436.992 619.947 433.034 624.818 429.951 629.996C422.937 642.583 415.555 653.464 407.651 665.439C405.535 667.663 405.23 668.017 402.52 669.327Z"/><path fill="#437BAC" transform="scale(1.02124 1.02124)" d="M442.99 520.973C444.727 521.056 446.528 521.469 448.032 522.364C452.639 525.109 454.954 531.197 456.311 536.161C463.829 563.659 447.458 597.709 433.978 621.293C432.605 623.333 430.975 625.266 429.48 627.224C434.376 614.888 437.786 602.894 437.68 589.496C437.544 572.149 427.242 547.684 433.095 532.284C435.013 527.237 438.061 523.296 442.99 520.973Z"/><path fill="#C5DCEA" transform="scale(1.02124 1.02124)" d="M477.104 551.574L477.706 551.882C476.996 557.267 476.379 561.26 475.231 566.496C474.577 569.479 471.394 580.516 471.504 582.675L472.508 583.496C469.634 587.888 462.889 600.858 461.929 605.946C461.138 608.553 458.415 613.614 456.082 615.079C457.891 609.49 463.706 598.957 466.241 592.984C472.004 579.403 475.21 566.147 477.104 551.574Z"/><path fill="#446ED2" transform="scale(1.02124 1.02124)" d="M0.998001 1018.43C2.40128 1016.64 5.65993 1005.92 7.42589 1002.51C17.1484 983.701 31.5967 968.738 48.8017 956.613C102.554 918.733 151.855 925.73 212.779 936.337C204.985 939.33 197.66 943.809 189.999 947.178C174.912 953.679 159.422 959.204 143.625 963.718C132.484 966.881 121.202 969.528 109.817 971.649C86.337 975.945 63.3736 978.628 41.8679 989.896C28.8701 996.706 17.4843 1005.45 7.23676 1015.93C5.96379 1017.23 2.54704 1021.61 0.73082 1021.28C0.598978 1020.2 0.724766 1019.48 0.998001 1018.43Z"/><path fill="#446ED2" transform="scale(1.02124 1.02124)" d="M302.029 609.978C306.648 604.771 309.666 602.193 315.933 599.481C334.733 591.345 348.259 607.927 347.966 625.46C347.902 629.324 347.581 633.278 346.979 637.11C346.62 638.607 346.656 638.526 346.849 640.067L343.327 650.29L342.909 651.29L343.578 651.631L344.031 651.462C340.847 657.168 338.066 663.498 335.007 668.916C329.507 678.657 320.461 691.684 312.969 699.974C308.527 704.862 303.936 709.612 299.202 714.219C297.71 715.654 290.878 721.762 290.271 722.65C286.346 724.399 268.184 730.993 264.574 731.263C255.894 735.221 250.352 737.836 241.063 740.123C238.84 740.864 238.572 740.963 236.269 741.137C263.629 718.315 285.042 704.919 286.895 665.752C286.894 663.837 287.094 662.045 287.268 660.145C288.266 658.052 288.107 653.37 288.166 650.885C288.402 650.479 289.525 641.008 289.435 640.018L290.73 634.056C292.133 628.565 294.076 623.734 296.333 618.557C296.061 615.707 296.595 613.806 297.129 611.02C299.361 610.71 299.273 610.783 301.151 609.589L302.029 609.978Z"/><path fill="#86A1E2" transform="scale(1.02124 1.02124)" d="M306.544 651.624C307.728 644.028 309.124 627.44 315.977 624.316C330.503 617.693 327.456 636.389 326.532 641.972C321.24 673.966 305.793 694.049 282.607 715.155L281.901 714.367C298.568 697.827 304.802 674.43 306.544 651.624Z"/><path fill="#E0F7F1" transform="scale(1.02124 1.02124)" d="M302.841 643.753C304.331 633.138 309.156 615.897 323.036 617.675C334.177 619.103 333.224 635.801 331.327 643.774C325.057 670.138 310.649 693.67 290.06 711.344C286.432 714.459 282.743 718.027 278.875 720.716C278.205 720.45 277.537 720.179 276.872 719.903L276.842 719.071L278.587 717.726L281.901 714.367L282.607 715.155C305.793 694.049 321.24 673.966 326.532 641.972C327.456 636.389 330.503 617.693 315.977 624.316C309.124 627.44 307.728 644.028 306.544 651.624L306.41 648.368L305.687 648.099L302.526 647.649C302.536 646.686 302.753 644.784 302.841 643.753Z"/><path fill="#C5DCEA" transform="scale(1.02124 1.02124)" d="M302.841 643.753C304.871 644.451 304.722 644.026 305.613 645.444L305.687 648.099L302.526 647.649C302.536 646.686 302.753 644.784 302.841 643.753Z"/><path fill="#64CEE6" transform="scale(1.02124 1.02124)" d="M278.587 717.726L281.901 714.367L282.607 715.155C280.87 716.753 280.753 716.987 278.587 717.726Z"/><path fill="#E0F7F1" transform="scale(1.02124 1.02124)" d="M302.526 647.649L305.687 648.099L306.41 648.368L306.544 651.624C304.802 674.43 298.568 697.827 281.901 714.367L278.587 717.726L276.842 719.071L276.872 719.903C277.537 720.179 278.205 720.45 278.875 720.716C274.107 724.328 269.485 727.843 264.574 731.263C255.894 735.221 250.352 737.836 241.063 740.123C242.319 738.541 255.341 732.067 258.081 730.224C262.415 727.309 265.926 724.83 270.069 721.384C287.112 707.212 296.756 689.922 300.595 668.137C301.589 662.493 302.053 653.623 302.526 647.649Z"/><path fill="#A7BBEA" transform="scale(1.02124 1.02124)" d="M297.129 611.02C299.361 610.71 299.273 610.783 301.151 609.589L302.029 609.978L299.413 613.879C298.545 615.222 297.265 617.351 296.333 618.557C296.061 615.707 296.595 613.806 297.129 611.02Z"/><path fill="#A7BBEA" transform="scale(1.02124 1.02124)" d="M34.9557 928.675C48.4702 914.608 61.494 906.851 78.4648 898.252C115.912 879.277 154.58 872.572 196.306 874.239C209.642 874.772 222.628 876.694 235.935 878.076C256.785 880.241 272.659 879.072 293.148 874.776L294.785 875.515L294.817 876.156C291.613 877.924 288.475 877.865 285.482 878.98C279.64 881.156 273.947 882.165 268.088 883.841C243.328 890.926 218.646 895.078 193.201 898.973C161.967 903.753 128.988 906.364 98.4668 914.322C80.6108 918.978 62.6523 926.321 47.0296 936.092C45.4045 937.108 25.63 950.363 25.9147 950.247L24.07 950.503L23.4079 949.352C23.4673 945.261 26.296 941.886 27.7606 938.207L28.0398 937.492C29.7969 934.324 32.618 931.445 34.9557 928.675Z"/><path fill="white" transform="scale(1.02124 1.02124)" d="M179.149 717.453C177.31 712.504 176.145 705.568 174.254 700.581C168.25 684.741 163.731 670.245 171.369 653.705C182.412 629.794 212.291 614.027 234.643 602.16C232.374 626.319 236.481 640.923 240.392 664.258C244.293 687.537 232.952 713.269 216.894 730.459C216.482 728.066 220.254 722.493 221.637 720.131C222.398 718.811 222.426 718.503 222.851 717.069C223.567 711.399 227.243 705.24 227.487 697.555C226.526 696.599 226.768 696.803 226.08 695.566C225.268 695.372 225.716 695.538 224.789 694.949C224.442 693.222 224.325 692.15 224.161 690.39C218.043 672.155 199.99 674.628 189.819 688.397C188.078 690.754 185.593 696.615 186.741 699.481C186.221 700.778 185.727 702.197 184.996 703.372C183.899 706.135 182.713 709.344 181.465 711.992L179.149 717.453Z"/><path fill="#A7BBEA" transform="scale(1.02124 1.02124)" d="M184.996 703.372C183.8 699.295 183.927 693.022 184.491 688.796C187.311 667.67 195.749 651.811 212.27 638.662C217.576 658.069 225.434 674.22 226.08 695.566C225.268 695.372 225.716 695.538 224.789 694.949C224.442 693.222 224.325 692.15 224.161 690.39C218.043 672.155 199.99 674.628 189.819 688.397C188.078 690.754 185.593 696.615 186.741 699.481C186.221 700.778 185.727 702.197 184.996 703.372Z"/><path fill="white" transform="scale(1.02124 1.02124)" d="M216.448 630.896C215.944 643.144 221.351 649.879 224.854 661.455C228.772 674.402 228.896 684.204 227.487 697.555C226.526 696.599 226.768 696.803 226.08 695.566C225.434 674.22 217.576 658.069 212.27 638.662C195.749 651.811 187.311 667.67 184.491 688.796C183.927 693.022 183.8 699.295 184.996 703.372C183.899 706.135 182.713 709.344 181.465 711.992L180.524 710.952C182.648 702.433 179.155 686.791 181.503 675.631C186.033 654.089 199.471 642.901 216.448 630.896Z"/><path fill="#86A1E2" transform="scale(1.02124 1.02124)" d="M180.524 710.952L180.197 711.326C180.257 705.294 179.681 697.524 179.386 691.469C178.423 671.67 184.136 657.713 198.368 643.901C203.511 638.91 211.286 632.452 217.802 629.114C217.621 632.94 217.318 635.248 218.138 638.959L218.335 639.888C219.472 645.129 223.551 654.518 225.557 660.245C231.55 677.354 231.084 700.709 222.851 717.069C223.567 711.399 227.243 705.24 227.487 697.555C228.896 684.204 228.772 674.402 224.854 661.455C221.351 649.879 215.944 643.144 216.448 630.896C199.471 642.901 186.033 654.089 181.503 675.631C179.155 686.791 182.648 702.433 180.524 710.952Z"/><path fill="#4D53BB" transform="scale(1.02124 1.02124)" d="M186.741 699.481C185.593 696.615 188.078 690.754 189.819 688.397C199.99 674.628 218.043 672.155 224.161 690.39C224.325 692.15 224.442 693.222 224.789 694.949C225.716 695.538 225.268 695.372 226.08 695.566C226.768 696.803 226.526 696.599 227.487 697.555C227.243 705.24 223.567 711.399 222.851 717.069C222.426 718.503 222.398 718.811 221.637 720.131C220.254 722.493 216.482 728.066 216.894 730.459C215.761 731.786 210.576 737.412 210.48 738.553C207.955 742.131 201.651 750.159 197.998 752.276C197.6 753.595 197.61 752.909 198.383 754.378C195.683 755.564 191.293 757.898 188.973 758.767C173.186 767.478 154.793 774.957 138.242 782.402C132.773 784.863 116.387 792.613 111.613 793.788C113.368 792.053 114.378 790.961 115.932 789.047L116.284 788.659C123.465 775.962 135.084 774.865 146.752 764.923C160.402 753.293 171.256 735.235 178.402 718.947L179.149 717.453L181.465 711.992C182.713 709.344 183.899 706.135 184.996 703.372C185.727 702.197 186.221 700.778 186.741 699.481Z"/><defs><linearGradient id="gradient_4" gradientUnits="userSpaceOnUse" x1="175.78458" y1="749.78613" x2="155.23726" y2="735.50854"><stop offset="0" stop-color="#AAFFE8"/><stop offset="1" stop-color="#F8FBEF"/></linearGradient></defs><path fill="url(#gradient_4)" transform="scale(1.02124 1.02124)" d="M120.095 785.645C128.597 779.078 132.466 779.002 141.601 774.341C159.863 765.023 178.258 748.484 186.117 729.185C188.673 722.908 198.948 696.424 206.752 696.109C206.749 698.102 204.192 700.273 202.886 701.864C193.702 713.045 191.222 727.325 183.732 739.763C180.32 745.398 176.238 750.598 171.574 755.251C159.284 767.591 145.408 774.938 129.568 781.51C126.16 782.925 123.86 784.17 121.033 786.549L120.095 785.645Z"/><path fill="#C5DCEA" transform="scale(1.02124 1.02124)" d="M186.741 699.481C185.593 696.615 188.078 690.754 189.819 688.397C199.99 674.628 218.043 672.155 224.161 690.39C224.192 693.431 224.053 693.916 223.182 696.849C221.392 686.942 215.864 679.402 204.585 681.752C195.482 683.649 190.509 691.713 186.741 699.481Z"/><path fill="#B8F2EE" transform="scale(1.02124 1.02124)" d="M219.63 718.362L221.637 720.131C220.254 722.493 216.482 728.066 216.894 730.459C215.761 731.786 210.576 737.412 210.48 738.553C207.955 742.131 201.651 750.159 197.998 752.276C197.6 753.595 197.61 752.909 198.383 754.378C195.683 755.564 191.293 757.898 188.973 758.767C191.496 756.249 194.562 754.02 197.378 751.145C207.255 741.064 213.654 730.934 219.63 718.362Z"/><path fill="#B8C8EE" transform="scale(1.02124 1.02124)" d="M224.161 690.39C224.325 692.15 224.442 693.222 224.789 694.949C225.716 695.538 225.268 695.372 226.08 695.566C226.768 696.803 226.526 696.599 227.487 697.555C227.243 705.24 223.567 711.399 222.851 717.069C222.426 718.503 222.398 718.811 221.637 720.131L219.63 718.362C222.353 709.676 223.15 705.881 223.182 696.849C224.053 693.916 224.192 693.431 224.161 690.39Z"/><path fill="#B8C8EE" transform="scale(1.02124 1.02124)" d="M120.095 785.645L121.033 786.549C119.609 787.677 118.52 788.793 116.788 789.199L115.932 789.047L116.284 788.659L120.095 785.645Z"/><path fill="#A7BBEA" transform="scale(1.02124 1.02124)" d="M763.727 228.393L764.807 228.62C794.964 208.078 820.746 196.787 858.249 198.873C864.227 199.205 870.686 199.349 876.562 200.504L877.4 200.676C863.747 228.187 850.428 251.993 825.414 270.777C817.474 276.739 813.309 280.201 803.781 283.409L802.86 283.717C803.903 282.327 814.019 274.421 816.516 272.121C832.723 257.187 839.023 241.823 844.476 220.899L844.126 220.795C837.538 218.785 831.362 218.62 824.732 218.003C804.92 216.162 789.305 221.033 771.674 229.488C767.234 231.617 763.061 234.174 758.46 236.294C758.811 234.841 759.105 234.188 759.668 232.839C761.604 232.15 761.987 230.263 763.727 228.393Z"/><path fill="#86A1E2" transform="scale(1.02124 1.02124)" d="M524.93 292.54C537.585 307.733 552.835 318.353 566.92 332.327C562.355 330.964 557.741 329.261 552.975 329.106C519.847 328.028 517.269 362.392 520.627 386.081C519.147 385.067 518.979 384.46 518.239 382.691C509.947 362.866 509.064 339.67 515.212 319.132C517.78 310.555 521.656 300.891 524.93 292.54Z"/><path fill="#A7BBEA" transform="scale(1.02124 1.02124)" d="M331.265 546.146C334.341 562.07 339.027 571.065 344.008 585.994C346.191 592.538 347.242 603.313 347.599 610.213C341.901 595.201 325.227 587.432 311.377 597.888C306.866 601.293 304.243 604.905 301.151 609.589C299.273 610.783 299.361 610.71 297.129 611.02C303.639 581.14 313.51 569.649 331.265 546.146Z"/><path fill="white" transform="scale(1.02124 1.02124)" d="M289.509 630.449C289.393 624.045 290.794 615.636 291.773 609.223C296.285 579.673 314.743 553.828 336.253 533.747C337.536 549.404 339.739 559.025 345.572 573.647C352.531 591.095 353.21 608.741 350.455 627.229C349.642 630.088 348.529 634.844 346.979 637.11C347.581 633.278 347.902 629.324 347.966 625.46C348.259 607.927 334.733 591.345 315.933 599.481C309.666 602.193 306.648 604.771 302.029 609.978L301.151 609.589C304.243 604.905 306.866 601.293 311.377 597.888C325.227 587.432 341.901 595.201 347.599 610.213C347.242 603.313 346.191 592.538 344.008 585.994C339.027 571.065 334.341 562.07 331.265 546.146C313.51 569.649 303.639 581.14 297.129 611.02C296.595 613.806 296.061 615.707 296.333 618.557C294.076 623.734 292.133 628.565 290.73 634.056C290.425 632.621 290.047 631.79 289.509 630.449Z"/><path fill="white" transform="scale(1.02124 1.02124)" d="M524.069 283.778L524.823 283.434C526.004 284.842 526.989 287.405 527.955 289.178C530.632 294.089 534.214 297.598 537.562 301.387C544.723 309.489 575.757 334.202 578.836 341.911C574.545 338.037 571.533 335.743 566.92 332.327C552.835 318.353 537.585 307.733 524.93 292.54C521.656 300.891 517.78 310.555 515.212 319.132C509.064 339.67 509.947 362.866 518.239 382.691C518.979 384.46 519.147 385.067 520.627 386.081C521.652 391.033 523.019 395.807 524.118 400.723C519.307 396.203 510.107 374.799 507.86 368.231C498.403 340.599 511.053 308.711 524.069 283.778Z"/><path fill="#86A1E2" transform="scale(1.02124 1.02124)" d="M671.293 617.483C668.641 619.792 655.451 621.691 651.562 624.262C656.654 623.739 666.587 626.207 672.075 626.919C703.191 630.961 731.807 625.186 758.315 608.09C778.389 595.143 788.317 584.179 797.107 562.285C796.935 563.969 796.787 565.096 796.469 566.757C796.801 567.706 797.044 568.217 797.483 569.126C787.79 594.233 766.084 610.341 742.411 621.436C714.764 634.395 683.18 633.778 653.9 627.599C640.68 624.809 635.694 627.783 623.226 628.961C622.377 628.433 622.809 628.77 621.981 627.886C643.919 625.675 668.027 617.951 687.348 607.548L688.384 608.936C683.791 611.745 680.426 613.405 675.577 615.744L675.15 615.511C673.841 616.118 672.442 616.661 671.293 617.483Z"/><defs><linearGradient id="gradient_5" gradientUnits="userSpaceOnUse" x1="719.25696" y1="528.15332" x2="701.62585" y2="494.84592"><stop offset="0" stop-color="#5E6ECB"/><stop offset="1" stop-color="#70B3D7"/></linearGradient></defs><path fill="url(#gradient_5)" transform="scale(1.02124 1.02124)" d="M636.495 546.273C644.069 535.308 663.124 517.591 674.009 510.004C708.717 485.816 749.365 483.617 789.832 491.272C787.723 492.167 787.195 492.313 784.938 492.726C744.294 487.027 703.991 491.636 670.747 517.712C665.986 521.447 645.147 538.304 644.632 542.701C642.684 543.816 638.729 545.929 636.495 546.273Z"/><path fill="#737DE4" transform="scale(1.02124 1.02124)" d="M703.795 119.394C701.005 114.894 705.451 105.646 707.199 101.062C714.875 81.1456 728.384 63.6366 744.596 49.929C774.973 24.2449 812.303 12.9669 851.807 15.9884C880.553 18.187 904.955 26.2645 931.122 38.2529C935.278 40.1573 942.513 41.7939 945.243 44.9119C945.601 46.8262 945.299 46.5073 944.216 48.7088L943.219 47.7406C943.208 46.8946 943.487 46.0188 942.775 45.6021C936.758 42.0683 929.66 40.2109 923.305 37.3434C896.978 25.4641 869.618 18.1599 840.673 17.486C795.518 16.4348 750.946 38.3852 724.17 74.7884C717.872 83.351 702.741 108.524 704.191 118.578L703.795 119.394Z"/><path fill="#86A1E2" transform="scale(1.02124 1.02124)" d="M473.154 384.408C458.569 420.109 476.11 446.538 492.8 477.634C511.32 512.139 495.486 547.315 477.535 578.064C472.54 586.662 467.666 597.579 461.929 605.946C462.889 600.858 469.634 587.888 472.508 583.496C479.403 573.401 488.538 555.717 493.087 544.297C502.254 521.764 502.378 497.937 490.748 476.163C476.318 449.147 458.13 419.709 470.37 388.179C446.021 407.908 408.27 443.591 397.537 473.389C387.98 499.921 405.242 535.914 417.682 560.027L418.222 559.868C419.398 563.319 420.283 566.169 419.514 569.775C408.341 535.023 379.602 499.782 400.82 462.209C416.411 434.6 448.298 404.051 473.154 384.408Z"/><path fill="#446ED2" transform="scale(1.02124 1.02124)" d="M913.569 167.006L914.134 166.125L913.827 165.691L914.321 165.138L914.358 164.914L914.802 164.931L914.475 165.213L914.494 165.865C914.722 165.981 915.72 166.53 915.926 166.543C919.288 224.809 899.863 284.635 832.792 290.143L830.221 288.761C884.305 281.534 907.067 247.372 912.311 194.773C913.133 186.537 912.38 175.336 913.443 167.842L913.569 167.006Z"/><path fill="#6053CC" transform="scale(1.02124 1.02124)" d="M757.359 235.255C759.578 224.887 766.135 211.558 772.72 203.246C788.994 182.705 816.607 169.314 842.343 166.175C860.804 164.024 879.468 165.531 898.013 164.732C901.13 164.597 914.332 163.006 915.885 164.218L915.926 166.543C915.72 166.53 914.722 165.981 914.494 165.865L914.475 165.213L914.802 164.931L914.358 164.914L914.321 165.138L913.827 165.691L914.134 166.125L913.569 167.006C903.708 167.14 894.075 167.585 884.15 167.523C862.377 167.385 841.451 166.652 820.477 173.669C792.258 183.109 768.161 203.465 759.668 232.839C759.105 234.188 758.811 234.841 758.46 236.294L758.011 236.255L757.359 235.255Z"/><path fill="#737DE4" transform="scale(1.02124 1.02124)" d="M763.727 228.393C767.576 220.743 778.648 211.082 785.404 205.993C809.965 187.493 840.6 181.269 870.832 183.357C880.139 184 889.388 185.147 898.811 185.286C895.883 195.586 892.714 207.778 888.968 217.588C880.674 239.312 864 260.702 843.443 272.038C831.583 278.579 817.112 283.314 803.925 286.747L802.616 286.676C804.003 285.8 811.643 283.397 813.721 282.628C820.731 280.035 827.308 277.64 834.098 274.436C856.73 263.772 874.722 245.254 884.73 222.324C889.293 211.964 893.471 197.594 896.975 186.575C886.582 186.161 876.196 184.573 865.923 184.241C833.66 183.199 802.684 190.756 778.467 213.123C774.687 216.614 771.024 220.282 767.43 223.968C766.139 225.292 764.813 227.301 763.727 228.393Z"/><path fill="#86A1E2" transform="scale(1.02124 1.02124)" d="M660.832 678.434C662.196 678.831 662.347 678.784 663.572 679.434C647.454 692.833 643.066 704.055 631.087 719.117C614.467 740.014 587.946 752.705 561.744 755.491C556.398 756.059 548.306 757.279 542.944 756.801L545.113 754.398C575.097 754.224 611.579 740.588 629.787 715.948C641.102 700.637 646.17 691.663 660.832 678.434Z"/><path fill="#86A1E2" transform="scale(1.02124 1.02124)" d="M354.12 784.149C385.326 786.337 412.486 813.302 440.591 825.195C442.36 825.577 444.551 825.816 445.876 826.93L445.729 827.494C425.319 836.573 414.241 847.126 395.635 858.46C388.512 862.8 376.876 867.251 368.922 870.151L368.291 868.74C391.462 860.802 403.143 850.625 422.97 837.171C428.198 833.623 434.52 830.662 439.303 827.175C435.359 824.792 428.283 822.462 423.279 819.237C399.136 803.68 381.547 789.922 352.043 785.277L354.12 784.149Z"/><path fill="#86A1E2" transform="scale(1.02124 1.02124)" d="M178.402 718.947C177.492 717.1 175.47 706.731 174.294 703.452C168.593 687.562 162.533 674.332 168.386 657.13C177.221 631.16 207.301 614.709 230.538 603.005C232.141 602.197 233.909 601.444 235.604 600.838C235.086 610.802 234.596 622.105 236.143 631.843C241.264 664.079 248.981 682.943 230.646 713.659C225.538 722.216 218.561 730.249 211.647 737.681C211.337 738.015 210.879 738.292 210.48 738.553C210.576 737.412 215.761 731.786 216.894 730.459C232.952 713.269 244.293 687.537 240.392 664.258C236.481 640.923 232.374 626.319 234.643 602.16C212.291 614.027 182.412 629.794 171.369 653.705C163.731 670.245 168.25 684.741 174.254 700.581C176.145 705.568 177.31 712.504 179.149 717.453L178.402 718.947Z"/><path fill="#446ED2" transform="scale(1.02124 1.02124)" d="M858.571 313.729L860.525 314.004C860.807 314.938 858.306 321.645 857.922 323.415C854.256 340.307 850.923 357.642 842.48 372.985C829.212 397.096 798.341 417.447 770.247 412.553C770.863 411.925 771.433 411.491 772.11 410.93C790.846 411.4 799.594 407.611 815.64 398.118C844.145 381.256 850.383 346.462 857.255 315.664L858.571 313.729Z"/><path fill="#86A1E2" transform="scale(1.02124 1.02124)" d="M602.966 440.112C603.018 437.166 605.614 431.01 606.24 426.952C607.775 417.319 609.635 407.019 609.689 397.3C609.889 361.214 596.284 327.211 568 304.224C561.128 298.639 529.82 273.55 531.541 264.671C532.806 265.562 533.236 266.65 534.024 267.929C546.464 288.134 568.508 298.993 583.938 316.77C610.419 347.278 615.623 387.667 607.682 426.175C607.006 429.449 604.838 433.359 604.803 436.525C604.098 438.419 604.107 438.475 602.966 440.112Z"/><defs><linearGradient id="gradient_6" gradientUnits="userSpaceOnUse" x1="893.36987" y1="93.14537" x2="916.11469" y2="110.85267"><stop offset="0" stop-color="#7880F1"/><stop offset="1" stop-color="#A4A5F6"/></linearGradient></defs><path fill="url(#gradient_6)" transform="scale(1.02124 1.02124)" d="M943.219 47.7406L944.216 48.7088C942.548 53.0311 940.855 57.6311 939.737 62.0991C931.941 93.2743 914.424 124.646 883.566 137.698C874.708 141.444 863.429 145.295 853.591 146.066L851.147 144.602C893.175 139.955 921.632 112.178 934.335 72.8991C936.001 67.7484 940.441 50.5995 943.219 47.7406Z"/><path fill="#86A1E2" transform="scale(1.02124 1.02124)" d="M288.166 650.885C284.995 614.282 294.341 578.834 318.42 550.863C321.415 547.383 332.998 533.553 336.846 533.189C338.53 536.705 338.501 546.689 339.623 550.635C348.267 581.027 357.671 594.368 351.157 627.471L350.455 627.229C353.21 608.741 352.531 591.095 345.572 573.647C339.739 559.025 337.536 549.404 336.253 533.747C314.743 553.828 296.285 579.673 291.773 609.223C290.794 615.636 289.393 624.045 289.509 630.449C290.047 631.79 290.425 632.621 290.73 634.056L289.435 640.018C289.525 641.008 288.402 650.479 288.166 650.885Z"/><path fill="#C5DCEA" transform="scale(1.02124 1.02124)" d="M289.509 630.449C290.047 631.79 290.425 632.621 290.73 634.056L289.435 640.018C288.908 636.934 289.311 633.613 289.509 630.449Z"/><path fill="#86A1E2" transform="scale(1.02124 1.02124)" d="M624.117 369.454C621.165 341.719 609.961 316.808 591.256 296.121C577.142 280.512 555.505 271.78 543.674 254.313C540.722 249.955 546.751 237.433 551.035 235.428L551.495 235.731C551.149 237.891 542.65 245.804 544.575 250.938C549.554 264.209 567.57 274.408 578.8 282.698C606.957 303.482 620.631 333.112 625.289 367.07L624.117 369.454Z"/><path fill="#737DE4" transform="scale(1.02124 1.02124)" d="M286.895 665.752C285.578 656.643 283.192 649.513 280.427 640.7C275.036 623.764 272.187 604.68 276.524 587.14C285.607 550.401 317.652 519.871 350.948 503.892C351.451 504.007 351.954 504.122 352.456 504.238L351.633 503.735L351.95 503.726L352.459 504.249C326.823 515.978 299.88 540.594 286.543 565.315C267.993 599.698 277.153 625.874 287.268 660.145C287.094 662.045 286.894 663.837 286.895 665.752Z"/><path fill="#86A1E2" transform="scale(1.02124 1.02124)" d="M343.327 650.29C345.346 649.157 349.359 642.247 350.667 640.073C359.443 625.488 367.101 611.407 368.767 594.14C369.586 586.416 368.992 578.607 367.015 571.096C362.848 554.852 353.514 539.473 351.804 522.55C351.47 519.247 352.658 507.387 354.791 505.084C355.198 506.757 353.494 512.676 353.305 515.27C352.948 520.148 353.211 525.213 354.479 529.941C357.022 539.419 361.54 550.878 365.15 560.03C376.699 589.307 369.369 611.278 353.704 637.2C351.423 640.975 346.896 647.996 344.031 651.462L343.578 651.631L342.909 651.29L343.327 650.29Z"/><path fill="#86A1E2" transform="scale(1.02124 1.02124)" d="M523.136 283.71C524.089 281.916 523.884 281.455 525.285 281.009C526.819 282.738 527.357 285.254 528.554 287.359C530.333 290.487 532.448 293.046 534.933 295.625C550.486 311.766 570.073 324.472 582.94 342.891L580.857 344.668C579.944 343.803 579.503 342.968 578.836 341.911C575.757 334.202 544.723 309.489 537.562 301.387C534.214 297.598 530.632 294.089 527.955 289.178C526.989 287.405 526.004 284.842 524.823 283.434L524.069 283.778L523.136 283.71Z"/><path fill="#86A1E2" transform="scale(1.02124 1.02124)" d="M524.307 402.986C508.643 380.219 498.159 354.853 505.689 327.104C509.858 311.739 514.69 297.312 523.136 283.71L524.069 283.778C511.053 308.711 498.403 340.599 507.86 368.231C510.107 374.799 519.307 396.203 524.118 400.723C524.43 402.096 524.508 401.702 524.307 402.986Z"/><defs><linearGradient id="gradient_7" gradientUnits="userSpaceOnUse" x1="795.41034" y1="530.81256" x2="804.065" y2="530.67157"><stop offset="0" stop-color="#6EA8CE"/><stop offset="1" stop-color="#5158E0"/></linearGradient></defs><path fill="url(#gradient_7)" transform="scale(1.02124 1.02124)" d="M800.316 493.074C802.608 493.493 803.077 493.12 804.101 494.48C804.631 497.864 804.414 501.09 804.374 504.5C804.121 526.081 804.681 548.438 797.483 569.126C797.044 568.217 796.801 567.706 796.469 566.757C796.787 565.096 796.935 563.969 797.107 562.285C804.971 533.232 800.988 522.392 802.512 495.547L800.316 493.074Z"/><path fill="white" transform="scale(1.02124 1.02124)" d="M465.007 678.06L467.056 678.552C451.565 688.881 436.291 698.14 418.592 704.141C420.78 699.515 457.53 682.922 465.007 678.06Z"/><defs><linearGradient id="gradient_8" gradientUnits="userSpaceOnUse" x1="825.0127" y1="140.54317" x2="824.11652" y2="145.51283"><stop offset="0" stop-color="#7B83EC"/><stop offset="1" stop-color="#A2AAF1"/></linearGradient></defs><path fill="url(#gradient_8)" transform="scale(1.02124 1.02124)" d="M795.53 137.454C813.913 142.755 831.849 146.394 851.147 144.602L853.591 146.066C836.595 149.192 811.692 145.904 795.83 139.182L795.53 137.454Z"/><path fill="#86A1E2" transform="scale(1.02124 1.02124)" d="M467.056 678.552C468.515 677.92 469.99 677.325 471.48 676.768C452.157 691.925 437.92 698.768 415.059 706.843C415.712 705.633 417.334 704.903 418.592 704.141C436.291 698.14 451.565 688.881 467.056 678.552Z"/><path fill="#737DE4" transform="scale(1.02124 1.02124)" d="M281.956 793.767C303.687 783.659 330.509 781.134 354.12 784.149L352.043 785.277C332.048 782.068 310.441 784.955 291.367 791.349C289.383 792.014 283.456 793.83 281.854 794.694L281.956 793.767Z"/><path fill="#86A1E2" transform="scale(1.02124 1.02124)" d="M304.915 874.684L304.756 875.696C306.582 876.647 312.67 876.92 314.891 877.02C333.074 878.017 351.264 875.196 368.291 868.74L368.922 870.151C345.736 877.082 323.309 881.623 299.014 875.806L298.407 875.279L299.024 874.852L299.685 874.991C301.307 875.323 302.124 875.666 303.689 875.191L304.626 874.211L304.915 874.684Z"/><path fill="#6053CC" transform="scale(1.02124 1.02124)" d="M43.2858 911.596L43.5191 912.569C41.0805 916.192 33.4354 924.999 33.0738 928.853C33.9372 929.202 34.1002 928.952 34.9557 928.675C32.618 931.445 29.7969 934.324 28.0398 937.492L27.256 937.221C32.0286 928.089 36.7123 919.604 43.2858 911.596Z"/><path fill="#446ED2" transform="scale(1.02124 1.02124)" d="M832.792 290.143C827.877 290.737 808.656 290.531 804.557 288.549L803.813 288.65L803.832 288.57L804.86 288.804C805.272 288.517 827.252 288.984 830.221 288.761L832.792 290.143Z"/><path fill="#86A1E2" transform="scale(1.02124 1.02124)" d="M18.6741 956.333C21.2302 949.943 23.6457 943.093 27.256 937.221L28.0398 937.492L27.7606 938.207C26.296 941.886 23.4673 945.261 23.4079 949.352L24.07 950.503L25.9147 950.247C23.5692 952.361 21.1236 954.342 18.6741 956.333Z"/><path fill="#86A1E2" transform="scale(1.02124 1.02124)" d="M783.934 134.087L785.617 133.705C788.233 135.387 792.422 136.357 795.53 137.454L795.83 139.182C792.063 137.672 787.449 135.971 783.934 134.087Z"/><path fill="#A7BBEA" transform="scale(1.02124 1.02124)" d="M350.455 627.229L351.157 627.471C350.186 631.343 348.87 636.584 346.849 640.067C346.656 638.526 346.62 638.607 346.979 637.11C348.529 634.844 349.642 630.088 350.455 627.229Z"/><path fill="#737DE4" transform="scale(1.02124 1.02124)" d="M532.634 426.97C521.867 420.83 504.251 402.312 497.233 391.97C493.538 386.475 490.433 380.605 487.968 374.459C470.081 330.415 488.292 278.978 521.894 247.674C527.433 242.514 537.599 237.973 544.519 235.152L545.626 236.179C536.462 240.215 527.6 245.562 520.524 252.693C500.384 272.989 484.301 307.888 484.293 336.677C484.28 378.916 505.6 399.794 532.634 426.97Z"/><path fill="#446ED2" transform="scale(1.02124 1.02124)" d="M544.519 235.152C547.146 234.259 550.006 233.17 552.705 232.659L553.241 233.194L553.225 232.567L554.11 232.697C551.416 234.478 548.74 235.067 545.626 236.179L544.519 235.152Z"/><path fill="#A7BBEA" transform="scale(1.02124 1.02124)" d="M800.619 286.992C800.989 287.463 801.328 287.932 801.668 288.424L799.388 289.127C798.755 288.522 798.627 288.561 798.432 287.659L800.619 286.992Z"/></svg>