<svg width="60" height="37" viewBox="0 0 60 37" fill="none" xmlns="http://www.w3.org/2000/svg">
<path opacity="0.2" d="M0.394375 21.368C0.394375 18.104 1.25838 14.888 2.98637 11.72C4.81038 8.55199 7.11438 5.91199 9.89838 3.8C12.7784 1.592 15.8024 0.487998 18.9704 0.487998C20.0264 0.487998 21.1304 0.919998 22.2824 1.784C23.5304 2.648 24.1544 4.136 24.1544 6.24799C24.1544 8.35999 23.4344 9.65599 21.9944 10.136C20.6504 10.616 19.4984 11.096 18.5384 11.576C17.2904 12.248 16.2824 13.064 15.5144 14.024C14.8424 14.888 14.5064 15.992 14.5064 17.336C14.5064 18.296 14.9864 19.208 15.9464 20.072C17.0024 20.936 18.3464 21.368 19.9784 21.368C20.5544 21.368 21.2264 21.32 21.9944 21.224C22.7624 21.032 23.4344 20.744 24.0104 20.36C25.0664 20.744 25.9304 21.32 26.6024 22.088C27.2744 22.856 27.6104 24.056 27.6104 25.688C27.6104 28.664 26.2184 31.256 23.4344 33.464C20.7464 35.576 17.5784 36.632 13.9304 36.632C9.80238 36.632 6.49038 35.24 3.99438 32.456C1.59438 29.672 0.394375 25.976 0.394375 21.368ZM32.2184 21.368C32.2184 18.104 33.0824 14.888 34.8104 11.72C36.6344 8.55199 38.9384 5.91199 41.7224 3.8C44.6024 1.592 47.6264 0.487998 50.7944 0.487998C51.8504 0.487998 52.9544 0.919998 54.1064 1.784C55.3544 2.648 55.9784 4.136 55.9784 6.24799C55.9784 8.35999 55.2584 9.65599 53.8184 10.136C52.4744 10.616 51.3224 11.096 50.3624 11.576C49.1144 12.248 48.1064 13.064 47.3384 14.024C46.6664 14.888 46.3304 15.992 46.3304 17.336C46.3304 18.296 46.8104 19.208 47.7704 20.072C48.8264 20.936 50.1704 21.368 51.8024 21.368C52.3784 21.368 53.0504 21.32 53.8184 21.224C54.5864 21.032 55.2584 20.744 55.8344 20.36C56.8904 20.744 57.7544 21.32 58.4264 22.088C59.0984 22.856 59.4344 24.056 59.4344 25.688C59.4344 28.664 58.0424 31.256 55.2584 33.464C52.5704 35.576 49.4024 36.632 45.7544 36.632C41.6264 36.632 38.3144 35.24 35.8184 32.456C33.4184 29.672 32.2184 25.976 32.2184 21.368Z" fill="#2D89C8"/>
</svg>
