<?xml version="1.0" encoding="utf-8" ?><svg xmlns="http://www.w3.org/2000/svg" xmlns:xlink="http://www.w3.org/1999/xlink" width="1024" height="1024" viewBox="0 0 1024 1024"><path fill="#A7BBEA" d="M0 0L108.296 0L114.519 0L228.169 0L695.95 0L933.22 0L934.956 0L1024 0L1024 161.892L1024 163.524L1024 264.578L1024 466.69L1024 753.828L1024 1024L0 1024L0 1023.53L0 908.024L0 906.069L0 747.128L0 303.143L0 255.18L0 182.745L0 181.628L0 0Z"/><path fill="#234493" d="M596.73 908.024C596.591 903.855 595.648 894.234 598.2 891.397C602.796 889.187 635.921 890.023 643.582 890.031C648.015 889.982 659.092 888.995 661.92 891.097C663.935 894.272 662.966 903.632 663.003 908.028L707.856 907.992L838.877 908.045L882.258 907.971C889.529 907.96 899.372 907.67 906.536 908.086C944.43 908.053 982.786 908.567 1020.6 908.202L1023.09 908.002C1023.96 910.7 1023.66 936.827 1023.65 941.554L1023.4 1023.4L0 1023.53L0 908.024L1.04737 908.16L215.067 908.39L286.14 908.366C295.529 908.381 313.476 908.984 322.382 908.358L371.054 908.452L371.464 908.014C371.394 903.942 370.838 894.669 372.207 891.266C375.3 889.88 428.849 889.467 434.687 890.349C437.025 893.12 436.02 903.758 435.9 908.041C438.96 908.02 442.582 908.093 445.591 907.966C449.559 907.958 454.787 907.801 458.644 908.117L492.166 908.103C498.172 908.105 504.971 908.24 510.918 908.008L512.444 908.125C514.995 908.05 517.49 907.967 520.046 907.982C519.971 904.086 519.186 893.785 520.856 890.859C524.626 889.483 570.615 890.021 576.073 890.417C592.236 889.906 588.179 893.818 588.14 907.882C589.97 908.108 594.669 908.017 596.73 908.024Z"/><path fill="#86A1E2" d="M520.046 907.982C519.971 904.086 519.186 893.785 520.856 890.859C524.626 889.483 570.615 890.021 576.073 890.417C573.809 890.524 571.706 890.632 569.432 890.613C569.505 896.327 569.679 902.34 569.54 908.029C553.148 908.033 536.41 908.214 520.046 907.982Z"/><path fill="#86A1E2" d="M596.73 908.024C596.591 903.855 595.648 894.234 598.2 891.397C602.796 889.187 635.921 890.023 643.582 890.031C643.676 896.07 643.733 902.109 643.753 908.149L608.159 908.339C602.548 908.385 593.437 908.747 588.071 908.394L588.14 907.882C589.97 908.108 594.669 908.017 596.73 908.024Z"/><path fill="#86A1E2" d="M371.464 908.014C371.394 903.942 370.838 894.669 372.207 891.266C375.3 889.88 428.849 889.467 434.687 890.349C429.021 890.445 423.353 890.449 417.686 890.361C417.854 896.233 417.915 902.106 417.869 907.98L371.464 908.014Z"/><path fill="#446ED2" d="M643.582 890.031C648.015 889.982 659.092 888.995 661.92 891.097C663.935 894.272 662.966 903.632 663.003 908.028L707.856 907.992L838.877 908.045L882.258 907.971C889.529 907.96 899.372 907.67 906.536 908.086C898.826 908.79 885.181 908.415 877.003 908.442L820.878 908.542L643.753 908.149C643.733 902.109 643.676 896.07 643.582 890.031Z"/><path fill="#446ED2" d="M417.686 890.361C423.353 890.449 429.021 890.445 434.687 890.349C437.025 893.12 436.02 903.758 435.9 908.041C438.96 908.02 442.582 908.093 445.591 907.966C449.559 907.958 454.787 907.801 458.644 908.117C431.105 909.293 399.093 908.143 371.054 908.452L371.464 908.014L417.869 907.98C417.915 902.106 417.854 896.233 417.686 890.361Z"/><path fill="#446ED2" d="M576.073 890.417C592.236 889.906 588.179 893.818 588.14 907.882L588.071 908.394C582.92 908.001 575.122 908.286 569.809 908.311L534.446 908.401C527.81 908.411 518.897 908.632 512.444 908.125C514.995 908.05 517.49 907.967 520.046 907.982C536.41 908.214 553.148 908.033 569.54 908.029C569.679 902.34 569.505 896.327 569.432 890.613C571.706 890.632 573.809 890.524 576.073 890.417Z"/><path fill="#B8C8EE" d="M528.814 585.97L542.662 585.821L543.729 586.366C544.726 591.596 542.827 621.137 546.216 622.256C556.478 625.643 575.608 622.908 586.78 624.25C608.422 626.851 632.803 633.348 652.599 642.335C696.02 661.7 729.111 698.677 743.557 743.973C757.134 786.331 753.429 832.338 733.247 871.977C726.002 885.875 718.074 896.157 707.856 907.992L663.003 908.028C662.966 903.632 663.935 894.272 661.92 891.097C659.092 888.995 648.015 889.982 643.582 890.031C635.921 890.023 602.796 889.187 598.2 891.397C595.648 894.234 596.591 903.855 596.73 908.024C594.669 908.017 589.97 908.108 588.14 907.882C588.179 893.818 592.236 889.906 576.073 890.417C570.615 890.021 524.626 889.483 520.856 890.859C519.186 893.785 519.971 904.086 520.046 907.982C517.49 907.967 514.995 908.05 512.444 908.125L510.918 908.008C504.971 908.24 498.172 908.105 492.166 908.103L458.644 908.117C454.787 907.801 449.559 907.958 445.591 907.966C442.582 908.093 438.96 908.02 435.9 908.041C436.02 903.758 437.025 893.12 434.687 890.349C428.849 889.467 375.3 889.88 372.207 891.266C370.838 894.669 371.394 903.942 371.464 908.014L371.054 908.452L322.382 908.358C320.781 907.608 318.276 907.876 316.327 907.874C297.533 891.608 282.283 859.913 277.273 835.849C267.753 790.13 274.064 748.268 299.219 708.83C323.395 671.428 360.686 644.421 403.763 633.117C417.624 629.451 432.673 627.782 446.649 624.689C454.586 623.765 461.993 623.932 469.959 623.987C471.115 623.784 472.162 623.555 473.307 623.305C474.772 621.249 474.036 590.898 474.01 586.483C478.477 586.651 485.437 586.924 489.774 586.109C491.776 586.105 493.933 585.976 495.856 586.442C499.501 591.148 505.109 598.222 509.081 602.537C509.056 607.408 507.957 619.803 510.513 622.793L511.106 622.651C512.207 618.393 510.679 606.963 512.061 603.444C517.52 598.921 523.58 591.356 528.814 585.97Z"/><path fill="#86A1E2" d="M446.649 624.689C454.586 623.765 461.993 623.932 469.959 623.987L474.004 624.435C472.959 625.242 472.653 625.156 471.315 625.511C481.965 625.515 496.156 625.091 506.533 625.569C509.002 625.528 508.504 625.161 510.192 626.312C512.083 629.709 512.103 643.851 509.249 646.117C505.363 646.826 489.032 646.692 484.941 646.478C477.826 646.107 451.643 647.654 446.442 644.782C445.042 641.53 445.895 629.999 446.477 626.154L446.649 624.689Z"/><path fill="#446ED2" d="M506.533 625.569C509.002 625.528 508.504 625.161 510.192 626.312C512.083 629.709 512.103 643.851 509.249 646.117C503.548 645.837 497.606 645.94 491.881 645.95C491.855 639.269 491.864 632.589 491.911 625.908C496.183 626.045 502.435 626.282 506.533 625.569Z"/><path fill="#B8C8EE" d="M446.649 624.689C454.586 623.765 461.993 623.932 469.959 623.987L474.004 624.435C472.959 625.242 472.653 625.156 471.315 625.511C464.999 625.504 452.061 625.183 446.477 626.154L446.649 624.689Z"/><path fill="#86A1E2" d="M445.591 907.966C445.415 904.535 444.226 893.049 446.554 890.993C451.516 889.792 504.535 889.431 509.579 890.425C511.638 893.082 510.932 903.93 510.918 908.008C504.971 908.24 498.172 908.105 492.166 908.103L458.644 908.117C454.787 907.801 449.559 907.958 445.591 907.966Z"/><path fill="#446ED2" d="M509.579 890.425C511.638 893.082 510.932 903.93 510.918 908.008C504.971 908.24 498.172 908.105 492.166 908.103C492.356 902.607 492.038 896.05 491.906 890.482C497.797 890.542 503.688 890.523 509.579 890.425Z"/><path fill="#86A1E2" d="M573.12 815.974C566.02 815.985 525.195 816.62 520.779 814.928C518.901 812.174 519.145 797.349 521.137 794.719C524.326 793.253 563.653 793.972 569.442 794.002C573.131 793.993 584.775 793.359 586.992 795.219C588.546 799.309 588.538 810.927 586.862 814.866C584.456 816.651 576.441 816.022 573.12 815.974Z"/><path fill="#446ED2" d="M569.442 794.002C573.131 793.993 584.775 793.359 586.992 795.219C588.546 799.309 588.538 810.927 586.862 814.866C584.456 816.651 576.441 816.022 573.12 815.974C571.567 815.838 571.152 815.918 569.743 815.24C569.217 811.702 569.467 798.404 569.442 794.002Z"/><path fill="#86A1E2" d="M586.101 863.583C581.924 864.476 523.122 863.928 521.343 862.903C520.619 862.486 520.137 861.081 519.968 860.287C519.303 857.182 519.264 845.203 520.751 842.735C523.617 841.809 581.608 841.654 586.111 842.41C589.274 844.993 588.381 858.617 587.122 862.643C587.048 862.881 586.327 863.407 586.101 863.583Z"/><path fill="#446ED2" d="M586.111 842.41C589.274 844.993 588.381 858.617 587.122 862.643C587.048 862.881 586.327 863.407 586.101 863.583C582.335 863.219 573.306 863.423 569.2 863.417C569.342 856.44 569.301 849.46 569.075 842.485C574.754 842.581 580.434 842.556 586.111 842.41Z"/><path fill="#86A1E2" d="M585.556 887.572C579.555 888.199 523.66 888.401 521.558 887.097C520.147 886.222 519.73 883.771 519.614 882.25C519.348 878.787 518.968 869.436 521.055 866.949C525.228 866.049 534.959 866.267 539.543 866.251C549.374 866.16 559.205 866.188 569.035 866.334C574.976 866.325 581.951 866.178 587.818 866.627C587.98 871.08 588.798 883.114 587.184 886.729C586.242 887.507 586.669 887.355 585.556 887.572Z"/><path fill="#446ED2" d="M569.035 866.334C574.976 866.325 581.951 866.178 587.818 866.627C587.98 871.08 588.798 883.114 587.184 886.729C586.242 887.507 586.669 887.355 585.556 887.572C581.185 887.133 573.875 887.377 569.287 887.393C569.496 880.373 569.412 873.348 569.035 866.334Z"/><path fill="#86A1E2" d="M491.944 815.485L464.77 815.512C460.326 815.513 451.813 815.769 447.773 814.964C443.932 812.519 444.56 797.508 446.308 794.234C448.43 793.252 504.082 793.132 509.049 793.942C510.262 794.734 510.973 794.955 511.268 796.532C511.749 799.107 512.284 813.512 510.134 814.666C506.993 816.353 496.18 815.484 491.944 815.485Z"/><path fill="#446ED2" d="M509.049 793.942C510.262 794.734 510.973 794.955 511.268 796.532C511.749 799.107 512.284 813.512 510.134 814.666C506.993 816.353 496.18 815.484 491.944 815.485L491.937 794.032C497.678 794.094 503.31 794.209 509.049 793.942Z"/><path fill="#86A1E2" d="M569.571 766.61C563.218 766.966 526.039 767.096 521.353 765.993C519.182 763.65 519.438 748.511 521.068 745.801C523.835 744.561 578.731 744.853 584.03 745.441C584.853 745.536 586.109 745.471 586.311 745.991C587.878 750.027 587.426 758.649 586.67 762.942C586.439 764.252 585.359 766.2 584.42 766.354C580.132 767.058 573.866 766.45 569.571 766.61Z"/><path fill="#446ED2" d="M584.03 745.441C584.853 745.536 586.109 745.471 586.311 745.991C587.878 750.027 587.426 758.649 586.67 762.942C586.439 764.252 585.359 766.2 584.42 766.354C580.132 767.058 573.866 766.45 569.571 766.61L569.641 745.563C574.456 745.629 579.223 745.768 584.03 745.441Z"/><path fill="#86A1E2" d="M520.057 721.173C525.67 720.429 535.932 720.574 541.877 720.593C551.382 720.623 562.006 720.325 571.405 720.786C575.183 720.808 583.927 720.223 586.648 722.252C587.694 725.954 587.395 736.954 585.998 740.721C585.192 742.893 572.237 741.996 569.551 742.153C569.475 742.167 569.399 742.186 569.322 742.194C564.279 742.689 523.136 743.223 521.337 741.261C518.444 738.104 519.961 725.435 520.057 721.173Z"/><path fill="#446ED2" d="M571.405 720.786C575.183 720.808 583.927 720.223 586.648 722.252C587.694 725.954 587.395 736.954 585.998 740.721C585.192 742.893 572.237 741.996 569.551 742.153C569.599 738.083 569.084 724.392 569.909 721.368L571.405 720.786Z"/><path fill="#86A1E2" d="M585.24 790.598C568.707 793.375 539.64 789.601 522.177 790.617C518.729 790.818 519.671 772.469 520.805 770.198C525.652 768.743 571.258 769.383 578.071 769.924C581.221 769.839 584.753 769.211 586.947 771.253C587.937 774.605 588.179 786.078 586.842 789.507C586.64 790.023 585.817 790.3 585.24 790.598Z"/><path fill="#446ED2" d="M578.071 769.924C581.221 769.839 584.753 769.211 586.947 771.253C587.937 774.605 588.179 786.078 586.842 789.507C586.64 790.023 585.817 790.3 585.24 790.598C581.306 790.241 574.116 790.48 569.943 790.491C570.032 783.772 569.898 776.83 569.847 770.093C572.918 770.168 575.006 770.129 578.071 769.924Z"/><path fill="#86A1E2" d="M569.167 839.617C558.578 839.825 547.987 839.852 537.397 839.698C533.605 839.67 524.968 839.833 521.616 839.158C518.96 836.44 518.78 822.187 521.169 819.242C524.535 817.828 562.653 818.459 569.117 818.468C588.186 818.43 588.39 815.189 587.596 836.49C587.539 838.03 587.246 838.396 586.202 839.294C583.063 840.003 573.079 839.645 569.167 839.617Z"/><path fill="#446ED2" d="M569.117 818.468C588.186 818.43 588.39 815.189 587.596 836.49C587.539 838.03 587.246 838.396 586.202 839.294C583.063 840.003 573.079 839.645 569.167 839.617C569.574 832.702 569.396 825.385 569.117 818.468Z"/><path fill="#86A1E2" d="M584.57 717.594C578.971 718.562 526.137 718.353 520.592 717.356C518.824 715.447 519.291 700.637 520.258 698.218C522.968 695.788 535.747 696.515 539.951 696.513L569.477 696.533C573.07 696.539 583.789 695.925 586.043 697.585C587.539 700.915 588.262 715.457 584.57 717.594Z"/><path fill="#446ED2" d="M569.477 696.533C573.07 696.539 583.789 695.925 586.043 697.585C587.539 700.915 588.262 715.457 584.57 717.594C580.047 717.214 574.078 717.407 569.44 717.431C569.348 710.784 569.206 703.119 569.477 696.533Z"/><path fill="#86A1E2" d="M492.017 766.531C486.144 766.688 451.045 766.908 447.472 765.946C444.551 763.279 444.602 748.627 446.836 745.73C450.731 744.325 504.365 744.157 509.146 744.903C510.01 745.462 511.145 746.09 511.219 747.302C511.468 751.374 513.582 765.906 507.532 766.412C503.028 766.788 496.602 766.558 492.017 766.531Z"/><path fill="#446ED2" d="M509.146 744.903C510.01 745.462 511.145 746.09 511.219 747.302C511.468 751.374 513.582 765.906 507.532 766.412C503.028 766.788 496.602 766.558 492.017 766.531C492.155 759.379 492.142 752.225 491.979 745.074C497.753 745.112 503.374 745.196 509.146 744.903Z"/><path fill="#86A1E2" d="M509.641 790.61C507.159 791.125 490.255 791.229 486.82 790.995C479.869 790.521 450.982 792.118 446.849 790.029C444.734 787.389 444.391 772.119 446.783 770.013C451.743 768.573 498.784 768.959 505.129 769.425C506.904 769.402 507.956 769.178 509.421 770.138C512.169 773.439 512.288 787.854 509.641 790.61Z"/><path fill="#446ED2" d="M505.129 769.425C506.904 769.402 507.956 769.178 509.421 770.138C512.169 773.439 512.288 787.854 509.641 790.61C505.541 790.22 496.537 790.48 492.095 790.497C492.311 783.481 492.159 776.65 492.01 769.636C496.407 769.669 500.741 769.769 505.129 769.425Z"/><path fill="#86A1E2" d="M509.185 718.133C504.013 718.863 450.186 718.96 447.343 717.191C446.39 716.599 445.862 714.924 445.684 713.871C445.103 710.435 444.847 699.836 446.716 697.25C450.247 695.682 485.538 696.483 491.562 696.526C495.434 696.539 507.167 695.935 509.648 697.491C511.931 701.388 511.119 711.311 510.734 715.894C510.646 716.935 509.893 717.433 509.185 718.133Z"/><path fill="#446ED2" d="M491.562 696.526C495.434 696.539 507.167 695.935 509.648 697.491C511.931 701.388 511.119 711.311 510.734 715.894C510.646 716.935 509.893 717.433 509.185 718.133C503.687 717.701 497.307 717.879 491.728 717.899C491.953 711.326 491.753 703.134 491.562 696.526Z"/><path fill="#86A1E2" d="M597.176 794.996C614.503 794.613 634.569 794.293 651.762 794.581C654.028 794.492 657.892 794.145 659.872 795.045C665.845 797.761 663.378 810.351 663.131 816.052C656.561 816.145 649.99 816.141 643.42 816.042C637.834 816.063 599.906 817.123 598.026 814.969C594.88 811.366 596.789 799.461 597.176 794.996Z"/><path fill="#446ED2" d="M651.762 794.581C654.028 794.492 657.892 794.145 659.872 795.045C665.845 797.761 663.378 810.351 663.131 816.052C656.561 816.145 649.99 816.141 643.42 816.042C643.487 809.016 643.463 801.99 643.347 794.965C646.653 794.984 648.483 794.957 651.762 794.581Z"/><path fill="#86A1E2" d="M417.345 815.472L389.355 815.54C387.137 815.541 372.529 815.901 372.098 814.531C371.127 811.444 371.11 797.447 372.06 794.419C374.178 792.686 412.435 793.418 417.426 793.431C419.646 793.419 433.78 792.918 434.852 794.161C436.498 796.071 436.985 812.382 434.259 814.773C431.065 816.021 421.617 815.419 417.345 815.472Z"/><path fill="#446ED2" d="M417.426 793.431C419.646 793.419 433.78 792.918 434.852 794.161C436.498 796.071 436.985 812.382 434.259 814.773C431.065 816.021 421.617 815.419 417.345 815.472C417.621 808.478 417.437 800.498 417.426 793.431Z"/><path fill="#86A1E2" d="M500.28 887.867C493.678 888.002 450.47 888.652 447.218 886.779C446.122 886.148 445.477 884.324 445.343 883.124C444.935 879.486 444.566 869.611 446.885 866.685C452.702 865.32 501.149 865.582 508.224 866.418C508.81 866.528 510.06 866.556 510.228 867.12C511.807 872.44 511.347 880.592 510.409 886.001C509.926 888.782 502.659 887.925 500.28 887.867Z"/><path fill="#446ED2" d="M508.224 866.418C508.81 866.528 510.06 866.556 510.228 867.12C511.807 872.44 511.347 880.592 510.409 886.001C509.926 888.782 502.659 887.925 500.28 887.867C497.76 887.266 494.617 887.418 491.969 887.403L491.88 866.595C497.296 866.623 502.827 866.739 508.224 866.418Z"/><path fill="#86A1E2" d="M643.514 863.901C636.057 863.582 602.787 864.445 598.222 862.903C595.925 859.734 596.05 846.193 598.091 843.222C600.339 841.826 637.689 842.37 643.306 842.375C649.617 842.391 656.752 842.257 662.998 842.506C663.013 847.326 664.029 859.727 661.919 862.737C658.536 865.105 648.247 864.026 643.514 863.901Z"/><path fill="#446ED2" d="M643.306 842.375C649.617 842.391 656.752 842.257 662.998 842.506C663.013 847.326 664.029 859.727 661.919 862.737C658.536 865.105 648.247 864.026 643.514 863.901C643.525 856.725 643.455 849.549 643.306 842.375Z"/><path fill="#86A1E2" d="M509.042 863.563C504.45 864.459 448.99 864.13 447.194 862.755C446.006 861.846 445.628 860.418 445.426 859.002C444.925 855.494 444.71 845.836 446.753 843.122C449.182 841.768 502.288 841.639 508.171 842.413C509.078 842.638 510.329 842.845 510.621 844.003C511.5 847.491 513.124 862.315 509.042 863.563Z"/><path fill="#446ED2" d="M508.171 842.413C509.078 842.638 510.329 842.845 510.621 844.003C511.5 847.491 513.124 862.315 509.042 863.563C504.49 863.145 496.723 863.384 491.903 863.398L491.913 842.591C497.293 842.624 502.812 842.749 508.171 842.413Z"/><path fill="#86A1E2" d="M492.037 839.548C485.253 839.675 450.724 840.082 446.365 838.509C444.39 835.821 444.485 821.647 446.626 818.719C449.672 817.391 486.094 818.02 492.081 818.037C514.081 817.826 512.73 816.718 510.89 839.464C504.606 839.582 498.321 839.61 492.037 839.548Z"/><path fill="#446ED2" d="M492.081 818.037C514.081 817.826 512.73 816.718 510.89 839.464C504.606 839.582 498.321 839.61 492.037 839.548C492.428 832.35 491.992 825.248 492.081 818.037Z"/><path fill="#86A1E2" d="M583.544 693.568C576.801 694.589 526.068 694.585 520.598 692.914C519.343 690.988 519.614 676.156 520.568 674.065C523.074 672.29 577.965 671.987 584.68 672.901C585.573 673.431 586.548 673.995 586.61 675.215C586.8 678.933 588.922 693.172 583.544 693.568Z"/><path fill="#446ED2" d="M584.68 672.901C585.573 673.431 586.548 673.995 586.61 675.215C586.8 678.933 588.922 693.172 583.544 693.568C579.381 693.175 573.876 693.372 569.599 693.406C569.703 686.713 569.557 679.714 569.507 672.997C574.62 673.078 579.567 673.217 584.68 672.901Z"/><path fill="#86A1E2" d="M569.512 670.005C555.454 670.248 541.2 670.066 527.127 670.047C524.969 670.044 521.77 669.968 520.348 668.351C519.639 665.476 519.495 652.713 520.602 649.92C522.539 648.209 564.554 648.964 569.436 648.981C572.91 648.965 584.092 648.334 586.111 650.002C587.69 653.871 587.666 664.708 586.042 668.585C582.647 670.93 573.91 669.948 569.512 670.005Z"/><path fill="#446ED2" d="M569.436 648.981C572.91 648.965 584.092 648.334 586.111 650.002C587.69 653.871 587.666 664.708 586.042 668.585C582.647 670.93 573.91 669.948 569.512 670.005C569.525 662.997 569.5 655.988 569.436 648.981Z"/><path fill="#86A1E2" d="M643.676 887.582C635.295 887.29 604.177 888.472 598.122 886.864C596.042 884.453 596.633 869.715 598.224 867.033C600.568 865.614 637.717 866.341 643.632 866.417C666.563 866.432 663.521 864.104 663.003 887.561C656.859 887.729 649.836 887.794 643.676 887.582Z"/><path fill="#446ED2" d="M643.632 866.417C666.563 866.432 663.521 864.104 663.003 887.561C656.859 887.729 649.836 887.794 643.676 887.582C644.166 882.746 643.785 871.566 643.632 866.417Z"/><path fill="#86A1E2" d="M585.167 646.134C580.375 646.992 523.682 646.642 520.198 645.297C518.853 642.755 518.715 628.079 521.419 625.703C528.568 624.98 543.922 625.471 551.758 625.505C559.415 625.539 575.457 625.13 582.608 625.935C583.577 626.054 585.439 626.088 585.892 627.075C588.103 631.903 588.771 642.151 585.167 646.134Z"/><path fill="#446ED2" d="M582.608 625.935C583.577 626.054 585.439 626.088 585.892 627.075C588.103 631.903 588.771 642.151 585.167 646.134C580.381 645.748 574.425 645.93 569.54 645.952L569.503 626.028C574.018 626.105 578.084 626.194 582.608 625.935Z"/><path fill="#86A1E2" d="M371.447 769.296C374.688 769.055 378.228 768.976 381.475 769.058C397.265 769.458 413.893 768.387 429.633 769.426C431.542 769.414 433.33 769.202 435.014 770.035C437.031 772.897 436.08 783.738 435.907 787.515C435.84 788.966 434.971 790.09 433.565 790.567C428.357 791.618 377.444 791.063 372.361 789.867C370.732 787.908 371.393 772.859 371.447 769.296Z"/><path fill="#446ED2" d="M429.633 769.426C431.542 769.414 433.33 769.202 435.014 770.035C437.031 772.897 436.08 783.738 435.907 787.515C435.84 788.966 434.971 790.09 433.565 790.567C429.334 790.167 422.28 790.39 417.837 790.397C417.998 783.711 417.814 776.361 417.776 769.625C421.884 769.675 425.519 769.745 429.633 769.426Z"/><path fill="#86A1E2" d="M371.523 863.239C371.46 859.008 370.82 846.49 372.237 843.119C376.413 841.612 427.16 841.594 433.621 842.413C434.52 842.698 434.968 842.617 435.255 843.352C436.673 846.989 436.357 858.312 435.456 861.789C433.011 865.244 424.523 863.816 420.434 864.016C406.015 863.639 385.333 864.297 371.523 863.239Z"/><path fill="#446ED2" d="M433.621 842.413C434.52 842.698 434.968 842.617 435.255 843.352C436.673 846.989 436.357 858.312 435.456 861.789C433.011 865.244 424.523 863.816 420.434 864.016C418.915 863.783 418.594 863.876 417.365 862.956C417.068 856.35 417.129 849.247 417.082 842.592C422.582 842.621 428.135 842.733 433.621 842.413Z"/><path fill="#86A1E2" d="M371.523 744.626C386.437 744.592 405.169 744.053 419.887 744.786C423.01 744.842 433.288 744.37 435.352 745.836C436.557 750.173 436.48 760.841 435.323 765.115C434.883 766.739 421.033 766.185 418.9 766.158C413.401 767.206 378.031 766.33 371.384 765.854C371.01 760.069 371.405 750.551 371.523 744.626Z"/><path fill="#446ED2" d="M419.887 744.786C423.01 744.842 433.288 744.37 435.352 745.836C436.557 750.173 436.48 760.841 435.323 765.115C434.883 766.739 421.033 766.185 418.9 766.158C417.275 765.258 417.803 747.628 418.422 745.349L419.887 744.786Z"/><path fill="#86A1E2" d="M417.384 818.03C421.478 817.966 431.332 817.523 434.731 818.386C437.084 820.954 436.71 835.603 434.944 838.701C431.824 840.232 421.505 839.526 417.44 839.548C410.325 839.546 376.015 840.31 372.119 838.181C370.701 835.115 371.473 822.637 371.574 818.477C384.861 817.543 403.606 818.03 417.384 818.03Z"/><path fill="#446ED2" d="M417.384 818.03C421.478 817.966 431.332 817.523 434.731 818.386C437.084 820.954 436.71 835.603 434.944 838.701C431.824 840.232 421.505 839.526 417.44 839.548C417.512 832.375 417.493 825.202 417.384 818.03Z"/><path fill="#86A1E2" d="M643.385 818.721C649.91 818.709 656.578 818.619 663.086 818.824C663.153 825.765 663.128 832.707 663.011 839.647L643.408 839.628C634.713 839.825 626.016 839.906 617.32 839.869C614.688 839.874 598.581 840.635 597.717 837.892C596.316 833.442 596.959 823.573 597.875 818.88C612.143 818.346 628.923 818.743 643.385 818.721Z"/><path fill="#446ED2" d="M643.385 818.721C649.91 818.709 656.578 818.619 663.086 818.824C663.153 825.765 663.128 832.707 663.011 839.647L643.408 839.628C643.536 832.758 643.415 825.613 643.385 818.721Z"/><path fill="#86A1E2" d="M371.556 866.614C381.888 865.511 397.413 866.38 408.301 866.087C413.516 865.947 429.353 865.805 433.691 866.401C437.78 867.913 436.386 882.929 434.97 886.329C434.128 888.35 419.942 887.495 417.523 887.529C402.62 887.609 386.429 887.775 371.61 887.36C371.221 880.607 371.451 873.403 371.556 866.614Z"/><path fill="#446ED2" d="M433.691 866.401C437.78 867.913 436.386 882.929 434.97 886.329C434.128 888.35 419.942 887.495 417.523 887.529C417.463 880.519 417.449 873.55 417.115 866.547C422.704 866.58 428.1 866.636 433.691 866.401Z"/><path fill="#86A1E2" d="M509.207 693.608C503.265 694.54 450.329 694.035 446.852 692.723C444.978 690.023 444.979 676.447 446.785 673.819C449.784 671.613 486.122 673.094 493.201 672.611C495.957 672.423 506.107 672.514 509.137 672.904C509.986 673.432 510.56 673.518 510.701 674.632C511.149 678.156 511.624 690.292 510.013 693.031L509.207 693.608Z"/><path fill="#446ED2" d="M509.137 672.904C509.986 673.432 510.56 673.518 510.701 674.632C511.149 678.156 511.624 690.292 510.013 693.031L509.207 693.608C504.553 693.24 496.723 693.436 491.835 693.436C491.928 686.721 491.83 679.802 491.819 673.07C497.544 673.114 503.436 673.266 509.137 672.904Z"/><path fill="#86A1E2" d="M491.954 720.937C495.979 720.891 507.882 720.052 510.311 722.074C511.255 724.491 512.358 741.111 507.981 741.783C503.548 742.463 496.887 741.886 492.126 741.969C482.625 742.064 473.124 742.093 463.622 742.058C460.636 742.055 456.867 741.966 453.7 742.03C445.229 742.204 445.324 740.406 445.514 732.467C445.595 729.084 445.107 725.725 446.284 722.204C448.617 720.15 485.856 720.93 491.954 720.937Z"/><path fill="#446ED2" d="M491.954 720.937C495.979 720.891 507.882 720.052 510.311 722.074C511.255 724.491 512.358 741.111 507.981 741.783C503.548 742.463 496.887 741.886 492.126 741.969C491.71 736.788 491.981 726.411 491.954 720.937Z"/><path fill="#86A1E2" d="M446.092 669.922C445.617 665.965 444.937 652.939 447.109 649.916C451.492 648.357 484.832 648.989 491.854 649.004C496.564 649.041 501.622 648.994 506.225 648.792C513.475 648.474 512.158 666.773 509.101 669.365C507.182 670.992 494.936 669.968 491.822 670.013C477.441 670.356 460.451 670.15 446.092 669.922Z"/><path fill="#446ED2" d="M491.854 649.004C496.564 649.041 501.622 648.994 506.225 648.792C513.475 648.474 512.158 666.773 509.101 669.365C507.182 670.992 494.936 669.968 491.822 670.013L491.854 649.004Z"/><path fill="#86A1E2" d="M371.451 720.939C390.056 720.842 408.663 720.895 427.268 721.101C428.84 721.083 434.002 720.789 434.701 722.096C436.627 725.696 436.678 738.092 434.845 741.297C431.496 742.696 422.174 741.917 417.974 741.988C410.622 742.159 376.902 742.772 372.339 740.677C370.787 738.527 371.414 724.68 371.451 720.939Z"/><path fill="#446ED2" d="M427.268 721.101C428.84 721.083 434.002 720.789 434.701 722.096C436.627 725.696 436.678 738.092 434.845 741.297C431.496 742.696 422.174 741.917 417.974 741.988L417.912 721.447C421.254 721.486 423.954 721.607 427.268 721.101Z"/><path fill="#E8B95E" d="M627.249 639.263C631.153 638.151 635.218 640.417 636.325 644.322C637.433 648.227 635.163 652.29 631.257 653.394C627.356 654.497 623.3 652.23 622.194 648.331C621.088 644.431 623.35 640.373 627.249 639.263Z"/><path fill="#86A1E2" d="M246.545 396.667C260.273 382.862 285.908 367.322 304.201 359.785C305.663 359.182 307.016 359.904 308.223 360.725C309.187 362.347 309.505 363.316 309.54 365.263C309.792 379.419 301.916 393.663 292.879 403.922C295.625 404.004 310.943 397.162 315.763 395.998C318.742 394.217 331.366 386.169 332.685 390.508C334.18 395.428 329.906 413.733 327.383 417.902C328.844 433.724 322.108 447.355 314.556 460.689L315.137 461.237C316.805 463.438 316.019 473.089 315.636 475.976C313.136 494.816 301.058 513.206 287.541 526.246C272.933 540.338 263.27 548.85 253.641 567.329C241.578 590.48 237.811 613.889 232.248 639.023C221.201 685.036 196.02 729.007 157.682 757.531C135.709 773.879 110.284 787.027 88.8267 804.115C62.9238 824.744 40.5986 850.863 21.639 877.841C17.3236 884.063 3.58783 902.074 1.04737 908.16L0 908.024L0 906.069L0 747.128C3.28925 744.522 6.71498 741.848 9.85627 739.08C35.0746 716.862 46.1313 682.131 56.095 651.121C61.5811 634.025 66.9388 616.888 72.1677 599.711C84.0317 561.768 96.7435 524.346 112.765 487.921C120.765 470.3 127.463 451.366 140.684 436.8C158.83 416.809 184.674 406.369 206.621 391.398C217.937 384.133 228.858 373.964 240.113 366.887C265.201 351.112 249.986 388.594 246.545 396.667Z"/><path fill="#B8C8EE" d="M315.763 395.998C318.742 394.217 331.366 386.169 332.685 390.508C334.18 395.428 329.906 413.733 327.383 417.902C328.844 433.724 322.108 447.355 314.556 460.689L315.137 461.237C316.805 463.438 316.019 473.089 315.636 475.976C313.136 494.816 301.058 513.206 287.541 526.246C272.933 540.338 263.27 548.85 253.641 567.329C241.578 590.48 237.811 613.889 232.248 639.023C221.201 685.036 196.02 729.007 157.682 757.531C135.709 773.879 110.284 787.027 88.8267 804.115C62.9238 824.744 40.5986 850.863 21.639 877.841C17.3236 884.063 3.58783 902.074 1.04737 908.16L0 908.024L0 906.069C5.48601 899.043 14.4922 883.38 19.1518 875.559C32.2807 853.523 45.6012 830.966 62.7649 811.718C69.4637 804.205 82.9066 791.367 91.0607 785.493C114.668 769.097 135.746 755.427 150.097 729.693C172.566 689.406 165.559 644.325 174.006 600.767C176.444 588.201 183.52 576.896 189.17 565.481C199.533 544.54 204.106 520.055 197.366 497.256C195.157 489.812 192.478 484.729 185.447 480.906C182.345 488.167 180.903 493.489 176.415 500.754C171.574 508.592 165.793 514.669 160.267 521.999C150.141 535.343 140.911 549.343 132.637 563.909C130.296 568.096 112.629 602.111 111.45 603.08L110.569 602.738C109.31 599.122 137.621 550.054 141.578 544.289C153.674 526.663 156.349 528.613 158.755 506.85C162.716 471.019 194.104 445.165 219.487 423.235C225.831 417.755 231.537 409.872 239.147 405.828C254.264 397.756 270.555 395.996 286.711 390.104C282.094 406.192 274.601 415.681 261.688 426.297C258.923 428.57 252.881 432.59 250.91 435.024L248.011 438.764C252.593 435.639 265.306 426.552 268.706 422.655C277.91 412.103 281.045 410.729 292.879 403.922C295.625 404.004 310.943 397.162 315.763 395.998Z"/><path fill="#86A1E2" d="M315.763 395.998C318.742 394.217 331.366 386.169 332.685 390.508C334.18 395.428 329.906 413.733 327.383 417.902C319.678 429.473 310.905 434.151 298.953 440.79C295.271 442.836 289.264 446.16 285.371 447.672C286.745 446.517 287.227 446.15 288.39 444.716L288.057 444.309C286.475 444.854 285.885 445.164 284.445 445.918C287.822 442.099 291.689 438.802 295.295 434.472C304.936 422.899 310.578 409.914 315.763 395.998Z"/><path fill="#446ED2" d="M314.556 460.689L315.137 461.237C299.23 493.007 274.611 494.098 252.515 518.841C245.831 526.327 240.015 534.278 235.836 543.461C233.806 547.923 231.838 553.85 229.438 557.878L229.123 557.69C233.619 533.238 257.7 508.341 278.459 496.098C294.923 486.388 304.79 477.333 314.556 460.689Z"/><path fill="#446ED2" d="M284.445 445.918C285.885 445.164 286.475 444.854 288.057 444.309L288.39 444.716C287.227 446.15 286.745 446.517 285.371 447.672C266.231 458.716 254.675 467.53 240.851 485.163C233.691 494.296 228.249 502.095 223.603 512.789C222.837 514.553 221.47 517.739 219.937 518.69C219.048 516.77 222.699 510.497 223.814 508.444C236.113 485.804 253.701 464.432 276.317 451.615C278.92 450.141 281.719 447.616 284.445 445.918Z"/><path fill="#446ED2" d="M248.011 438.764C235.592 448.092 222.261 460.487 213.355 473.112C210.085 477.747 207.768 483.972 204.598 488.14C204.694 485.779 206.929 480.863 208.171 478.744C218.318 461.443 234.36 446.243 250.91 435.024L248.011 438.764Z"/><path fill="#86A1E2" d="M695.95 0L933.22 0L934.956 0L1024 0L1024 161.892L1024 163.524L1024 264.578L1024 466.69C943.125 405.036 885.96 325.426 882.788 220.758C880.932 159.52 876.509 106.084 848.048 50.5697C846.801 49.8352 841.616 48.521 839.868 48.0179C821.659 42.9166 802.95 40.4254 784.431 36.841C775.301 35.2944 766.491 32.3027 757.603 30.0364C733.896 23.9917 716.184 13.1156 695.95 0Z"/><path fill="#234493" d="M695.95 0L933.22 0L934.956 0L1024 0L1024 161.892L1024 163.524L1024 264.578C1009.78 244.583 1004.32 226.734 995.354 204.447C981.035 168.849 962.85 130.598 936.858 101.945C915.128 77.9903 879.467 58.3627 848.048 50.5697C846.801 49.8352 841.616 48.521 839.868 48.0179C821.659 42.9166 802.95 40.4254 784.431 36.841C775.301 35.2944 766.491 32.3027 757.603 30.0364C733.896 23.9917 716.184 13.1156 695.95 0Z"/><path fill="#234493" d="M934.956 0L1024 0L1024 161.892C1020.87 160.982 1015.61 158.45 1012.76 156.785C953.675 122.206 951.063 58.0933 934.956 0Z"/><path fill="white" d="M933.22 0L934.956 0C951.063 58.0933 953.675 122.206 1012.76 156.785C1015.61 158.45 1020.87 160.982 1024 161.892L1024 163.524C1022.15 162.757 1020.31 161.965 1018.48 161.147C976.298 142.105 955.708 96.393 946.44 53.7456C943.511 40.269 938.049 12.3467 933.476 0.647028L933.22 0Z"/><path fill="#86A1E2" d="M740.551 410.336C728.523 397.861 714.755 383.8 715.184 365.116C715.219 363.593 715.475 361.972 716.684 360.929C717.371 360.336 718.185 360.243 719.06 360.429C727.38 362.203 772.8 394.233 783.543 401.065C780.184 394.669 767.283 371.835 774.115 365.861C775.689 365.299 777.988 365.372 779.387 366.365C813.872 390.825 853.628 410.862 884.546 439.797C895.816 450.345 904.619 474.433 910.619 488.906C922.313 517.444 933.068 546.357 942.866 575.6C948.096 591.579 953.16 607.612 958.058 623.696C968.248 658.384 975.352 687.213 995.571 718.278C1006.14 734.514 1012.47 739.851 1024 753.828L1024 1024L0 1024L0 1023.53L1023.4 1023.4L1023.65 941.554C1023.66 936.827 1023.96 910.7 1023.09 908.002C1009.64 885.947 997.331 862.922 983.609 841.03C975.122 827.967 966.654 812.516 954.673 802.326C930.498 781.766 903.158 768.907 883.07 743.26C859.672 713.386 855.768 675.434 853.301 638.802C852.134 626.711 851.95 614.058 849.256 602.171C845.393 585.121 835.937 569.636 829.319 553.537C822.294 536.448 818.746 517.293 823.173 499.071C823.179 498.886 823.186 498.702 823.192 498.518C814.53 477.354 802.743 457.98 784.257 444.077C775.761 437.687 767.047 432.123 758.428 425.583C752.684 421.225 746.729 415.165 740.551 410.336Z"/><path fill="#B8C8EE" d="M757.662 422.963C752.154 417.628 733.469 400.794 737.444 392.12C738.594 391.201 739.54 390.575 741.205 390.851C745.194 391.514 749.609 393.56 753.598 394.713C763.637 397.617 770.618 398.051 779.714 403.362C791.848 410.445 801.24 419.949 811.757 429.168C822.974 439.001 836.315 448.843 845.384 460.668C860.212 480 864.962 498.046 865.525 521.734C871.472 529.344 877.074 537.217 882.313 545.33C887.274 553.055 911.818 595.884 910.558 601.855C908.226 602.398 905.858 593.525 904.861 591.66C892.307 568.167 880.847 542.238 862.805 522.273C852.954 511.372 842.888 507.41 839.346 491.173C837.345 482 834.498 480.082 828.361 488.282C826.272 490.865 825.502 493.332 824.165 496.257C823.744 497.639 823.949 497.36 823.192 498.518C814.53 477.354 802.743 457.98 784.257 444.077C775.761 437.687 767.047 432.123 758.428 425.583C757.991 424.655 757.899 423.964 757.662 422.963Z"/><path fill="#446ED2" d="M757.662 422.963C766.649 430.134 775.183 435.221 784.237 441.968C805.336 457.691 813.514 473.833 824.165 496.257C823.744 497.639 823.949 497.36 823.192 498.518C814.53 477.354 802.743 457.98 784.257 444.077C775.761 437.687 767.047 432.123 758.428 425.583C757.991 424.655 757.899 423.964 757.662 422.963Z"/><path fill="#86A1E2" d="M0 0L108.296 0L114.519 0L228.169 0C219.053 5.35052 198.505 8.65787 187.616 10.3332C185.626 36.8831 182.291 62.6575 175.72 88.5215C159.199 153.789 122.909 212.355 71.8166 256.2C54.8303 270.813 20.6842 294.767 0 303.143L0 255.18L0 182.745L0 181.628L0 0Z"/><path fill="#234493" d="M0 0L108.296 0C79.094 20.977 70.188 41.3687 64.4616 76.3119C58.8969 110.269 58.5532 147.7 27.3604 170.078C18.9316 176.124 10.0741 179.512 0 181.628L0 0Z"/><path fill="#234493" d="M108.296 0L114.519 0L228.169 0C219.053 5.35052 198.505 8.65787 187.616 10.3332C150.509 16.2116 119.291 29.104 96.8337 60.951C78.7574 86.0307 70.3558 115.961 60.2877 144.803C48.0368 179.897 32.2335 214.459 10.5876 244.809C8.87885 247.205 3.07093 255.075 0 255.18L0 182.745L0 181.628C10.0741 179.512 18.9316 176.124 27.3604 170.078C58.5532 147.7 58.8969 110.269 64.4616 76.3119C70.188 41.3687 79.094 20.977 108.296 0Z"/><path fill="white" d="M108.296 0L114.519 0C104.983 0.834494 95.2923 11.3604 89.1591 18.4379C50.0888 63.5241 78.6588 131.65 29.3067 170.307C20.9916 176.82 10.3509 181.224 0 182.745L0 181.628C10.0741 179.512 18.9316 176.124 27.3604 170.078C58.5532 147.7 58.8969 110.269 64.4616 76.3119C70.188 41.3687 79.094 20.977 108.296 0Z"/><path fill="#234493" d="M507.561 279.587C489.929 259.71 484.107 223.021 495.368 199.058C497.39 194.757 504.453 181.205 508.83 179.512L510.052 180.729C510.069 201.988 510.249 223.245 510.594 244.501C510.684 254.687 510.338 267.63 510.811 277.516C509.136 279.744 510.262 330.078 510.626 337.109L511.219 338.077C513.412 335.344 515.692 331.852 517.711 328.917C520.239 327.582 528.438 324.299 530.907 325.385L531.247 326.583C532.376 334.56 536.557 336.927 543.815 338.733C544.155 348.942 543.502 359.551 543.662 369.794C543.712 373.047 543.455 378.585 543.804 381.562C559.656 361.525 582.271 348.794 608.24 348.377C603.813 381.052 586.489 405.575 552.561 412.394C550.388 412.831 545.344 413.265 543.56 413.771C543.613 422.974 542.851 465.339 544.747 470.653C559.584 451.562 584.997 438.647 609.175 437.868C606.553 456.543 600.186 478.995 584.345 490.774C572.233 499.779 558.984 500.644 544.523 500.881C544.586 509.835 543.157 546.147 545.732 551.74C561.695 530.206 582.314 522.121 608.726 522.161C603.366 553.012 585.571 581.287 551.835 585.026C549.82 585.249 544.344 585.434 542.662 585.821L528.814 585.97C523.58 591.356 517.52 598.921 512.061 603.444C510.679 606.963 512.207 618.393 511.106 622.651L510.513 622.793C507.957 619.803 509.056 607.408 509.081 602.537C505.109 598.222 499.501 591.148 495.856 586.442L497.113 585.577C491.312 578.323 484.197 566.245 479.108 558.074C479.738 552.985 479.476 543.214 479.479 537.791L479.573 501.466C483.303 501.529 492.534 501.095 495.038 503.132L497.181 502.055C495.577 499.129 492.028 494.142 490.075 491.054C486.287 485.042 482.645 478.94 479.151 472.752C480.784 456.993 479.402 430.059 479.525 413.098C481.832 413.139 483.756 413.041 486.044 412.924C482.882 412.525 478.021 412.331 474.737 412.265C435.947 411.485 414.059 384.526 407.365 348.025C440.143 347.61 460.488 360.849 479.657 386.127C479.859 380.636 479.417 373.453 479.407 367.676C479.515 352.362 479.358 337.047 478.935 321.738C482.536 322.524 493.901 324.306 496.208 326.019L497.072 324.513C500.349 328.977 504.104 334.233 507.889 338.206C508.716 320.949 507.684 297.389 507.561 279.587Z"/><path fill="#B8C8EE" d="M526.161 414.602C531.963 414.375 537.763 414.098 543.56 413.771C543.613 422.974 542.851 465.339 544.747 470.653C537.171 480.632 531.54 492.42 523.96 502.392C519.97 507.641 515.774 513.674 511.465 518.599L511.415 434.479C515.8 429.716 522.289 420.098 526.161 414.602Z"/><path fill="#B8C8EE" d="M517.711 328.917C520.239 327.582 528.438 324.299 530.907 325.385L531.247 326.583C532.376 334.56 536.557 336.927 543.815 338.733C544.155 348.942 543.502 359.551 543.662 369.794C543.712 373.047 543.455 378.585 543.804 381.562C538.405 388.781 533.057 399.041 528.188 406.938C522.757 415.749 517.688 422.676 511.501 431.062C510.833 413.091 511.392 394.332 511.205 376.299C511.163 372.249 511.857 366.996 511.714 363.342C511.371 354.589 510.625 346.971 511.219 338.077C513.412 335.344 515.692 331.852 517.711 328.917Z"/><path fill="#B8C8EE" d="M527.737 500.919L544.523 500.881C544.586 509.835 543.157 546.147 545.732 551.74C539.212 562.41 534.28 573.237 527.731 583.505C524.358 588.794 515.774 596.265 511.675 601.665C511.072 575.425 511.519 547.421 511.618 521.068C517.176 514.159 522.267 508.064 527.737 500.919Z"/><path fill="#B8C8EE" d="M486.044 412.924C488.473 412.947 491.035 412.926 493.45 413.021C498.042 420.31 503.629 426.835 508.756 433.773L508.848 489.184C508.871 494.413 509.336 513.042 508.712 517.474C506.685 513.518 500.165 505.76 497.181 502.055C495.577 499.129 492.028 494.142 490.075 491.054C486.287 485.042 482.645 478.94 479.151 472.752C480.784 456.993 479.402 430.059 479.525 413.098C481.832 413.139 483.756 413.041 486.044 412.924Z"/><path fill="#B8C8EE" d="M479.573 501.466C483.303 501.529 492.534 501.095 495.038 503.132L497.181 502.055C500.165 505.76 506.685 513.518 508.712 517.474C508.63 517.938 508.549 518.401 508.467 518.864L507.752 519.186C508.492 520.412 508.959 521.209 508.985 522.685C509.132 531.15 509.017 539.833 508.998 548.291L508.933 599.565C505.263 595.132 500.974 589.708 497.113 585.577C491.312 578.323 484.197 566.245 479.108 558.074C479.738 552.985 479.476 543.214 479.479 537.791L479.573 501.466Z"/><path fill="#234493" d="M495.038 503.132L497.181 502.055C500.165 505.76 506.685 513.518 508.712 517.474C508.63 517.938 508.549 518.401 508.467 518.864L507.752 519.186C503.619 514.724 499.937 508.411 495.038 503.132Z"/><path fill="#B8C8EE" d="M478.935 321.738C482.536 322.524 493.901 324.306 496.208 326.019L497.072 324.513C500.349 328.977 504.104 334.233 507.889 338.206L507.953 341.357C508.356 345.456 508.118 350.866 508.052 355.081C502.059 352.664 495.183 353.147 492.985 360.244C492.182 362.876 492.463 365.72 493.767 368.143C496.967 373.975 503.37 373.615 508.493 370.689L508.692 430.292C506.289 426.911 503.83 423.747 501.291 420.474C493.101 409.916 486.282 397.731 479.657 386.127C479.859 380.636 479.417 373.453 479.407 367.676C479.515 352.362 479.358 337.047 478.935 321.738Z"/><path fill="#234493" d="M497.072 324.513C500.349 328.977 504.104 334.233 507.889 338.206L507.953 341.357C503.651 335.522 499.575 332.986 496.208 326.019L497.072 324.513Z"/><path fill="#E8B95E" d="M571.862 464.968C578.653 463.178 585.603 467.258 587.349 474.061C589.095 480.863 584.969 487.786 578.156 489.488C571.404 491.174 564.558 487.095 562.828 480.355C561.098 473.614 565.133 466.742 571.862 464.968Z"/><path fill="#E8B95E" d="M461.598 374C469.967 373.925 475.64 386.126 472.648 392.036C471.193 392.626 470.949 392.204 469.058 391.751C463.019 390.832 455.037 387.837 456.476 379.519C456.915 376.977 459.454 375.238 461.598 374Z"/><path fill="#E8B95E" d="M500.425 356.789C504.003 355.75 507.745 357.813 508.776 361.393C509.808 364.973 507.737 368.711 504.154 369.734C500.583 370.755 496.859 368.692 495.831 365.122C494.803 361.553 496.858 357.825 500.425 356.789Z"/><path fill="#B8C8EE" d="M704.864 427.309C700.738 423.004 685.64 401.001 692.972 395.966C699.027 391.809 708.241 404.142 714.418 404.698C727.235 402.996 730.878 408.206 740.551 410.336C746.729 415.165 752.684 421.225 758.428 425.583C767.047 432.123 775.761 437.687 784.257 444.077C802.743 457.98 814.53 477.354 823.192 498.518C823.186 498.702 823.179 498.886 823.173 499.071C818.746 517.293 822.294 536.448 829.319 553.537C835.937 569.636 845.393 585.121 849.256 602.171C851.95 614.058 852.134 626.711 853.301 638.802C855.768 675.434 859.672 713.386 883.07 743.26C903.158 768.907 930.498 781.766 954.673 802.326C966.654 812.516 975.122 827.967 983.609 841.03C997.331 862.922 1009.64 885.947 1023.09 908.002L1020.6 908.202C1014.1 895.156 1005.74 883.715 997.759 871.959C970.437 831.288 935.65 803.457 894.729 777.597C864.465 758.47 834.409 727.663 815.466 697.286C783.845 646.581 795.638 580.463 749.77 537.125C736.177 524.282 719.44 515.083 713.174 496.279C710.724 489.046 706.37 472.291 709.627 465.113C708.887 462.593 708.717 462.061 708.668 459.456C704.902 449.479 701.863 442.51 701.276 431.75C702.51 430.051 703.485 428.9 704.864 427.309Z"/><defs><linearGradient id="gradient_0" gradientUnits="userSpaceOnUse" x1="785.14557" y1="453.90201" x2="714.55066" y2="475.77664"><stop offset="0" stop-color="#3758C3"/><stop offset="1" stop-color="#7B97D2"/></linearGradient></defs><path fill="url(#gradient_0)" d="M704.864 427.309C700.738 423.004 685.64 401.001 692.972 395.966C699.027 391.809 708.241 404.142 714.418 404.698C714.008 428.583 735.855 443.707 753.038 455.986C775.695 472.177 791.365 489.914 802.279 515.585C803.354 518.113 809.917 531.497 809.846 533.154L809.121 533.051C795.319 507.559 787.694 483.426 762.649 465.68C756.107 461.045 749.644 454.332 742.375 450.645C728.74 443.729 716.279 437.892 704.864 427.309Z"/><path fill="#446ED2" d="M708.668 459.456C721.554 483.287 747.843 493.635 766.883 511.606C776.487 520.671 783.322 530.793 789.594 542.315C791.25 545.357 796.873 555.05 797.316 557.783L796.889 558.274C794.674 556.623 791.361 548.645 789.675 545.59C784.439 536.103 778.546 526.456 771.248 518.439C752.521 497.869 726.016 488.104 709.627 465.113C708.887 462.593 708.717 462.061 708.668 459.456Z"/><path fill="#446ED2" d="M517.146 326.841C517.786 324.49 519.408 321.38 520.292 318.973C534.526 280.227 562.038 259.634 602.933 255.111C597.665 275.675 590.434 293.673 572.894 307.289C567.573 311.419 559.916 314.594 553.942 318.251L553.885 318.998C561.47 327.863 553.292 336.486 543.815 338.733C536.557 336.927 532.376 334.56 531.247 326.583L530.907 325.385C528.438 324.299 520.239 327.582 517.711 328.917L517.146 326.841Z"/><path fill="#E8B95E" d="M534.003 323.993C537.228 313.29 546.447 312.982 553.159 321.117L553.885 318.998C561.47 327.863 553.292 336.486 543.815 338.733C536.557 336.927 532.376 334.56 531.247 326.583C531.588 325.502 531.609 325.452 532.06 324.463L534.003 323.993Z"/><path fill="#234493" d="M553.885 318.998C561.47 327.863 553.292 336.486 543.815 338.733C536.557 336.927 532.376 334.56 531.247 326.583C531.588 325.502 531.609 325.452 532.06 324.463L534.003 323.993C534.149 327.902 535.714 331.886 539.193 333.96C541.43 335.286 544.124 335.604 546.608 334.834C552.834 332.948 554.869 327.001 553.159 321.117L553.885 318.998Z"/><path fill="#446ED2" d="M409.182 254.377C436.78 256.123 455.804 264.647 475.031 285.433C487.055 298.433 489.551 310.634 497.072 324.513L496.208 326.019C493.901 324.306 482.536 322.524 478.935 321.738C440.786 314.422 417.363 292.329 409.182 254.377Z"/><path fill="#446ED2" d="M411.49 437.504C442.533 440.94 460.476 446.691 479.151 472.752C482.645 478.94 486.287 485.042 490.075 491.054C492.028 494.142 495.577 499.129 497.181 502.055L495.038 503.132C492.534 501.095 483.303 501.529 479.573 501.466C465.933 500.255 456.101 499.266 444.089 491.837C423.803 479.291 416.85 459.396 411.49 437.504Z"/><path fill="#446ED2" d="M413.795 522.229C418.468 522.698 423.12 523.353 427.741 524.191C451.255 528.562 465.948 538.689 479.108 558.074C484.197 566.245 491.312 578.323 497.113 585.577L495.856 586.442C493.933 585.976 491.776 586.105 489.774 586.109C471.775 585.52 458.497 586.643 442.27 574.89C424.841 562.266 417.092 542.733 413.795 522.229Z"/><path fill="#234493" d="M510.052 180.729C523.4 197.125 528.933 213.809 527.345 235.317C526.402 248.103 519.887 268.029 510.811 277.516C510.338 267.63 510.684 254.687 510.594 244.501C510.249 223.245 510.069 201.988 510.052 180.729Z"/><path fill="#446ED2" d="M510.626 337.109C512.844 334.233 515.218 330.03 517.146 326.841L517.711 328.917C515.692 331.852 513.412 335.344 511.219 338.077L510.626 337.109Z"/><path fill="#234493" d="M407.091 578.265C416.444 576.518 425.479 582.568 427.427 591.881C429.374 601.195 423.522 610.358 414.252 612.506C408.076 613.937 401.608 611.915 397.347 607.22C393.086 602.525 391.699 595.892 393.721 589.883C395.743 583.874 400.858 579.429 407.091 578.265Z"/><path fill="#E8B95E" d="M407.86 584.373C411.946 583.344 416.269 584.593 419.176 587.642C422.084 590.69 423.126 595.068 421.904 599.1C420.683 603.132 417.386 606.195 413.275 607.117C407.033 608.517 400.825 604.641 399.343 598.417C397.862 592.194 401.657 585.936 407.86 584.373Z"/><path fill="#234493" d="M646.722 337.367C655.546 335.331 664.37 340.755 666.54 349.547C668.709 358.339 663.421 367.245 654.662 369.547C648.878 371.068 642.722 369.354 638.556 365.062C634.389 360.771 632.858 354.567 634.55 348.83C636.242 343.093 640.893 338.712 646.722 337.367Z"/><path fill="#E8B95E" d="M648.9 341.265C655.484 340.413 661.525 345.022 662.442 351.597C663.359 358.172 658.809 364.259 652.243 365.24C645.586 366.235 639.396 361.607 638.467 354.941C637.537 348.274 642.225 342.13 648.9 341.265Z"/><path fill="#234493" d="M530.71 150.846C539.007 149.397 546.923 154.904 548.45 163.188C549.977 171.472 544.545 179.44 536.276 181.044C527.896 182.67 519.798 177.149 518.251 168.755C516.704 160.36 522.301 152.315 530.71 150.846Z"/><path fill="#E8B95E" d="M530.529 155.641C536.27 153.972 542.275 157.276 543.939 163.017C545.603 168.759 542.295 174.761 536.552 176.421C530.815 178.079 524.821 174.775 523.159 169.04C521.496 163.304 524.796 157.307 530.529 155.641Z"/><path fill="#234493" d="M367.985 462.151C375.884 461.208 383.07 466.799 384.098 474.687C385.126 482.576 379.613 489.822 371.737 490.935C366.565 491.666 361.4 489.562 358.211 485.426C355.022 481.29 354.301 475.759 356.323 470.944C358.345 466.128 362.799 462.77 367.985 462.151Z"/><path fill="#E8B95E" d="M367.737 467.505C371.129 466.701 374.691 467.796 377.046 470.367C379.4 472.938 380.179 476.582 379.081 479.891C377.983 483.2 375.18 485.655 371.756 486.309C366.62 487.288 361.642 483.985 360.55 478.872C359.457 473.759 362.649 468.71 367.737 467.505Z"/><path fill="#234493" d="M361.693 340.313C368.391 339.737 374.346 344.562 375.172 351.234C375.998 357.906 371.399 364.037 364.762 365.112C360.243 365.843 355.685 364.046 352.881 360.427C350.078 356.808 349.476 351.946 351.313 347.753C353.15 343.56 357.131 340.706 361.693 340.313Z"/><path fill="#E8B95E" d="M362.851 344.505C374.155 345.576 373.612 358.343 363.515 360.812C351.793 359.301 351.436 347.785 362.851 344.505Z"/><path fill="#234493" d="M647.854 500.041C653.456 498.409 659.318 501.637 660.935 507.243C662.552 512.849 659.309 518.702 653.699 520.304C648.109 521.9 642.282 518.672 640.671 513.087C639.06 507.502 642.273 501.666 647.854 500.041Z"/><path fill="#E8B95E" d="M649.278 504.305C651.453 503.721 653.774 504.36 655.344 505.975C656.914 507.589 657.487 509.927 656.841 512.085C656.196 514.243 654.434 515.882 652.235 516.37C648.937 517.102 645.659 515.065 644.855 511.784C644.051 508.503 646.016 505.181 649.278 504.305Z"/><path fill="#E8B95E" d="M614.629 287.268C616.412 288.476 616.223 293.327 622.734 297.544L622.303 297.755C618.652 299.582 617.472 300.624 616.189 304.514L615.112 307.694C613.636 305.081 612.694 301.271 610.696 299.123C610.923 299.368 606.794 297.267 606.354 297C613.174 293.29 610.085 293.122 614.629 287.268Z"/><path fill="#E8B95E" d="M335.511 213.365C335.948 213.636 339.483 218.457 343.126 221.165C340.542 224.455 338.652 226.146 336.876 229.964C335.906 229.776 330.364 222.637 328.952 221.037C332.468 218.291 333.681 217.393 335.511 213.365Z"/><path fill="#E8B95E" d="M665.71 245.142C666.041 245.308 666.644 245.79 666.97 246.03C668.285 250.231 669.602 251.937 672.673 254.732C667.62 258.231 669.63 258.925 666.66 262.664C664.041 257.296 663.625 257.144 658.229 254.488C662.977 251.276 663.044 250.297 665.71 245.142Z"/><path fill="#E8B95E" d="M373.39 275.367C374.333 272.89 374.635 271.715 377.253 270.866C379.155 271.132 379.719 271.987 381.123 273.333C382.563 275.022 383.272 276.048 384.518 277.902C382.5 279.759 380.257 281.963 378.063 283.551C375.671 282.038 372.768 280.742 371.773 278.283C372.134 276.749 372.417 276.597 373.39 275.367Z"/><path fill="#234493" d="M381.123 273.333C382.563 275.022 383.272 276.048 384.518 277.902C382.5 279.759 380.257 281.963 378.063 283.551C375.671 282.038 372.768 280.742 371.773 278.283C372.134 276.749 372.417 276.597 373.39 275.367C374.877 281.088 381.95 281.513 381.123 273.333Z"/><path fill="#E8B95E" d="M446.482 171.58C448.871 176.141 448.282 176.317 453.174 179.095C450.121 181.754 448.563 182.931 446.912 186.719L446.54 186.257L445.908 185.495C443.654 182.74 442.26 181.554 439.588 179.143C443.598 176.521 444.353 175.844 446.482 171.58Z"/><path fill="#E8B95E" d="M402.507 410.157C405.24 409.528 407.964 411.239 408.582 413.974C409.201 416.709 407.48 419.426 404.742 420.034C402.02 420.64 399.321 418.929 398.705 416.209C398.09 413.489 399.789 410.783 402.507 410.157Z"/><path fill="#E8B95E" d="M616.577 403.75C618.101 405.056 621.503 409.716 622.913 411.557C620.704 414.01 619.549 416.32 617.514 418.866C614.728 415.119 613.763 413.942 610.408 410.546C612.479 410.013 613.119 409.914 614.98 408.946C616.234 407.487 616.273 405.69 616.577 403.75Z"/><path fill="#E8B95E" d="M615.374 576.279C617.324 577.489 620.019 581.072 621.543 582.969C620.122 585.089 618.421 587.293 616.896 589.363C614.164 586.052 613.291 585.061 609.78 582.749C612.216 580.267 613.381 579.139 615.374 576.279Z"/><path fill="#E8B95E" d="M574.715 212.335C580.56 214.18 579.877 219.484 575.478 223.09C566.696 221.58 569.029 216.16 574.715 212.335Z"/><path fill="#E8B95E" d="M381.32 527.91C388.376 528.405 387.107 534.429 383.269 538.409C375.588 537.409 375.798 532.08 381.32 527.91Z"/><path fill="#E8B95E" d="M699.026 544.323C701.27 545.594 701.41 548.875 703.818 549.924C704.831 550.366 704.662 550.266 705.283 551.223C701.487 552.975 702.085 552.747 700.913 556.881C698.055 555.268 699.504 553.431 693.253 550.662C695.994 548.451 697.323 547.409 699.026 544.323Z"/><path fill="#E8B95E" d="M379.161 245.299C381.338 247.699 382.481 249.165 385.233 250.889C383.629 252.454 381.937 254.445 380.425 256.138C378.339 255.054 376.258 252.847 374.49 251.188C377.047 248.765 377.431 248.405 379.161 245.299Z"/><path fill="#E8B95E" d="M400.936 546.237C403.029 545.357 405.439 546.33 406.335 548.416C407.231 550.501 406.278 552.919 404.199 553.832C402.097 554.754 399.646 553.788 398.74 551.679C397.834 549.57 398.82 547.126 400.936 546.237Z"/></svg>