<?xml version="1.0" encoding="utf-8" ?><svg xmlns="http://www.w3.org/2000/svg" xmlns:xlink="http://www.w3.org/1999/xlink" width="1024" height="1024" viewBox="0 0 1024 1024"><path fill="white" d="M0 0L258.789 0L298.76 0L306.767 0L317.912 0L348.418 0L361.568 0L525.536 0L701.74 0L1024 0L1024 416.267L1024 487.874L1024 511.217L1024 521.683L1024 636.729L1024 640.21L1024 723.917L1024 1024L798.498 1024L794.157 1024L665.369 1024L653.219 1024L624.72 1024L612.514 1024L588.154 1024L575.228 1024L291.702 1024L0 1024L0 744.276L0 382.657L0 375.676L0 317.833L0 307.271L0 261.919L0 256.949L0 245.757L0 234.928L0 0Z"/><path fill="#234493" d="M459.667 250.71C466.325 246.768 478.39 247.787 486.143 247.828C496.691 247.926 507.24 247.93 517.789 247.841C531.029 247.891 544.848 247.344 557.9 248.529C564.542 249.131 573.005 257.167 573.332 263.756C574.084 278.93 574.265 296.009 573.783 311.222L573.934 313.045C573.9 320.055 574.574 348.172 573.251 353.197C572.373 356.657 570.576 359.815 568.052 362.339C565.273 365.078 561.787 366.991 557.985 367.864C552.625 369.144 521.42 368.451 513.94 368.466L512.168 368.346C505.499 368.727 497.234 368.462 490.377 368.505C484.455 368.541 475.236 369.016 469.689 368.444C466.999 368.193 464.372 367.483 461.923 366.344C449.779 360.596 450.389 349.677 450.446 338.62L450.561 322.291C450.584 319.868 450.9 315.403 450.159 313.403L449.049 312.927C449.278 312.275 449.658 311.695 450.004 311.075C450.71 308.832 450.453 306.06 450.412 303.638C450.949 293.676 450.147 283.069 450.18 273.046C450.214 262.48 450.899 257.399 459.667 250.71Z"/><path fill="#A7BBEA" d="M472.024 251.743L525.492 251.582C536.355 251.57 554.919 249.782 564.481 255.221C573.234 260.2 571.912 272.739 571.863 281.649L571.746 306.052L571.824 333.274C571.87 347.588 573.349 363.764 554.359 366.611C532.383 367.141 510.044 366.368 488.027 366.903C479.623 367.107 468.451 367.724 461.289 362.958C457.568 360.481 453.674 354.344 453.504 349.726C453.207 337.822 453.419 325.652 453.433 313.728L453.465 285.246C453.495 269.578 451.055 253.277 472.024 251.743Z"/><path fill="#234493" d="M483.916 275.642C495.61 275.886 507.307 275.94 519.003 275.802C525.12 275.774 531.036 275.669 537.148 276.019C542.891 276.348 549.121 280.968 549.27 287.023C549.622 301.398 549.867 316.211 549.098 330.571C548.82 335.761 544.593 338.218 539.884 338.686L501.131 338.907C495.041 338.937 487.543 339.257 481.556 338.481C478.094 338.033 475.766 334.572 474.075 331.789C473.342 324.405 472.901 287.576 475.129 282.943C476.928 279.203 480.126 277.036 483.916 275.642Z"/><path fill="#577CEA" d="M486.755 277.731C497.736 277.665 508.717 277.66 519.698 277.715C525.013 277.753 530.783 277.393 536.017 278.227C538.773 278.667 541.912 279.572 544.006 281.52C544.726 282.191 545.314 283.153 545.316 284.152C545.324 288.11 527.67 304.132 524.235 307.661C520.119 311.984 516.393 316.351 511.186 319.311C508.174 316.882 478.131 286.751 477.74 285.315C477.406 284.085 478.138 282.652 478.894 281.722C480.883 279.273 483.678 277.982 486.755 277.731Z"/><path fill="#86A1E2" d="M0 0L258.789 0L298.76 0L306.767 0L317.912 0L348.418 0L361.568 0L525.536 0C478.334 45.1631 447.611 96.1701 446.248 162.907C445.59 195.156 450.59 219.938 459.667 250.71C450.899 257.399 450.214 262.48 450.18 273.046C450.147 283.069 450.949 293.676 450.412 303.638C450.453 306.06 450.71 308.832 450.004 311.075C449.658 311.695 449.278 312.275 449.049 312.927C445.685 313.228 439.053 313.048 435.447 313.064C428.16 320.706 422.073 328.539 414.417 336.25C389.493 361.355 363.711 377.555 332.852 394.098C326.274 397.638 319.669 401.127 313.036 404.564C311.235 405.493 306.028 408.301 304.516 408.841L304.373 451.056L302.51 450.986L302.481 409.896C293.75 415.049 284.253 419.391 275.483 424.471C253.707 436.944 233.407 451.833 214.969 468.856C185.359 496.629 160.624 531.406 140.032 566.327C98.7227 636.381 71.2309 699.251 0 744.276L0 382.657L0 375.676L0 317.833L0 307.271L0 261.919L0 256.949L0 245.757L0 234.928L0 0Z"/><path fill="#446ED2" d="M0 0L258.789 0L298.76 0L306.767 0C303.896 14.1086 299.383 27.8325 293.32 40.8915C282.589 58.9418 272.262 69.7179 251.109 75.4647C247.696 76.392 238.175 77.2129 236.582 77.6829L238.051 77.9846C238.151 80.1038 235.163 90.3379 234.503 92.8107C226.955 121.108 220.07 142.975 206.617 168.797C198.107 176.385 153.953 177.956 142.838 186.852C141.579 188.92 136.185 190.802 133.555 192.874C134.031 195.227 133.962 196.925 135.529 198.757C139.578 199.901 139.458 195.496 144.745 195.454L145.073 195.726C138.505 198.723 134.627 200.736 128.86 205.102C128.092 205.683 122.73 209.921 122.328 210.149C112.935 219.14 108.493 224.982 101.054 235.563C99.5717 237.958 97.9154 240.482 96.6603 242.984C89.74 252.454 80.8263 279.531 76.6256 291.332C73.5768 299.953 70.1211 308.424 66.2703 316.717C64.5645 320.156 62.8349 323.583 61.0817 326.998C45.7403 353.371 29.2512 371.752 0 382.657L0 375.676L0 317.833L0 307.271L0 261.919L0 256.949L0 245.757L0 234.928L0 0Z"/><path fill="#86A1E2" d="M116.974 204.871C119.887 204.008 123.447 200.384 125.866 198.186C129.979 208.342 125.919 203.988 122.278 209.163L122.328 210.149C112.935 219.14 108.493 224.982 101.054 235.563C99.5717 237.958 97.9154 240.482 96.6603 242.984C89.74 252.454 80.8263 279.531 76.6256 291.332C73.5768 299.953 70.1211 308.424 66.2703 316.717C64.5645 320.156 62.8349 323.583 61.0817 326.998C45.7403 353.371 29.2512 371.752 0 382.657L0 375.676L0 317.833L0 307.271L0 261.919L0 256.949C5.65943 249.465 11.6898 242.269 18.0686 235.387C22.9294 238.191 63.349 234.435 71.2943 234.068C77.7358 233.77 86.8458 234.052 93.4555 234.173C100.51 222.916 107.197 213.841 116.974 204.871Z"/><path fill="#577CEA" d="M18.0686 235.387C22.9294 238.191 63.349 234.435 71.2943 234.068C77.7358 233.77 86.8458 234.052 93.4555 234.173C91.3183 237.986 89.0692 241.883 87.0124 245.728C82.1194 247.108 76.2083 251.127 70.9804 253.017C47.5654 261.483 24.8407 264.87 0 261.919L0 256.949C5.65943 249.465 11.6898 242.269 18.0686 235.387Z"/><path fill="#86A1E2" d="M0 317.833C14.726 320.975 38.6348 323.671 53.9445 325.61C38.7859 350.141 26.8476 363.529 0 375.676L0 317.833Z"/><path fill="white" d="M116.974 204.871C119.887 204.008 123.447 200.384 125.866 198.186C129.979 208.342 125.919 203.988 122.278 209.163L122.328 210.149C112.935 219.14 108.493 224.982 101.054 235.563C99.5717 237.958 97.9154 240.482 96.6603 242.984C89.74 252.454 80.8263 279.531 76.6256 291.332C73.5768 299.953 70.1211 308.424 66.2703 316.717C64.5645 320.156 62.8349 323.583 61.0817 326.998C45.7403 353.371 29.2512 371.752 0 382.657L0 375.676C26.8476 363.529 38.7859 350.141 53.9445 325.61C55.6188 322.976 57.4173 319.258 58.885 316.418C60.2363 314.303 62.2304 309.455 63.2282 306.906C71.4088 286.006 77.5227 266.198 87.0124 245.728C89.0692 241.883 91.3183 237.986 93.4555 234.173C100.51 222.916 107.197 213.841 116.974 204.871Z"/><path fill="#446ED2" d="M0 307.271C16.7365 310.054 33.316 313.198 50.1937 315.01C52.7754 315.287 56.4885 315.563 58.885 316.418C57.4173 319.258 55.6188 322.976 53.9445 325.61C38.6348 323.671 14.726 320.975 0 317.833L0 307.271Z"/><path fill="#446ED2" d="M236.582 77.6829L238.051 77.9846C238.151 80.1038 235.163 90.3379 234.503 92.8107C226.955 121.108 220.07 142.975 206.617 168.797C198.107 176.385 153.953 177.956 142.838 186.852C141.579 188.92 136.185 190.802 133.555 192.874C134.031 195.227 133.962 196.925 135.529 198.757C139.578 199.901 139.458 195.496 144.745 195.454L145.073 195.726C138.505 198.723 134.627 200.736 128.86 205.102C128.092 205.683 122.73 209.921 122.328 210.149L122.278 209.163C125.919 203.988 129.979 208.342 125.866 198.186C123.447 200.384 119.887 204.008 116.974 204.871C107.197 213.841 100.51 222.916 93.4555 234.173C86.8458 234.052 77.7358 233.77 71.2943 234.068C63.349 234.435 22.9294 238.191 18.0686 235.387C30.2901 222.121 50.9598 208.604 67.8186 201.883C80.3921 196.871 91.1732 193.287 103.722 187.43C122.072 178.809 139.031 167.496 154.038 153.865C170.853 138.334 179.702 122.9 192.886 104.72C204.892 88.1657 216.655 80.678 236.582 77.6829Z"/><path fill="#B8C8EE" d="M142.838 186.852C141.579 188.92 136.185 190.802 133.555 192.874C134.031 195.227 133.962 196.925 135.529 198.757C139.578 199.901 139.458 195.496 144.745 195.454L145.073 195.726C138.505 198.723 134.627 200.736 128.86 205.102C128.092 205.683 122.73 209.921 122.328 210.149L122.278 209.163C125.919 203.988 129.979 208.342 125.866 198.186C123.447 200.384 119.887 204.008 116.974 204.871C122.377 198.414 135.234 190.398 142.838 186.852Z"/><path fill="white" d="M258.789 0L298.76 0L306.767 0C303.896 14.1086 299.383 27.8325 293.32 40.8915C282.589 58.9418 272.262 69.7179 251.109 75.4647C247.696 76.392 238.175 77.2129 236.582 77.6829C216.655 80.678 204.892 88.1657 192.886 104.72C179.702 122.9 170.853 138.334 154.038 153.865C139.031 167.496 122.072 178.809 103.722 187.43C91.1732 193.287 80.3921 196.871 67.8186 201.883C50.9598 208.604 30.2901 222.121 18.0686 235.387C11.6898 242.269 5.65943 249.465 2.84217e-14 256.949L0 245.757L0 234.928C2.94228 235.053 6.12025 235.127 9.02932 235.383C32.8303 209.457 51.7532 200.026 84.2371 188.377C106.768 180.297 131.269 164.835 148.977 148.941C165.405 134.197 176.408 115.259 189.165 97.5461C203.274 78.6159 217.373 73.2884 239.739 70.3005L258.789 0Z"/><path fill="#86A1E2" d="M258.789 0L298.76 0C291.888 33.6868 278.577 66.7409 239.739 70.3005L258.789 0Z"/><path fill="#577CEA" d="M0 234.928C2.94228 235.053 6.12025 235.127 9.02932 235.383C6.09386 238.737 2.80686 242.338 0 245.757L0 234.928Z"/><path fill="#577CEA" d="M113.65 79.053C118.413 77.9248 123.208 80.7942 124.465 85.5248C125.722 90.2553 122.984 95.1267 118.289 96.5118C115.137 97.4418 111.728 96.5868 109.388 94.2791C107.048 91.9714 106.145 88.5749 107.031 85.4099C107.917 82.2449 110.451 79.8105 113.65 79.053Z"/><path fill="#577CEA" d="M86.3779 16.4467C91.1595 15.0279 96.1815 17.7756 97.5649 22.5675C98.9483 27.3594 96.1636 32.3609 91.3617 33.7089C86.6096 35.0429 81.6713 32.2934 80.3022 27.5513C78.9331 22.8092 81.6461 17.8508 86.3779 16.4467Z"/><path fill="#577CEA" d="M197.229 47.7244C201.653 46.304 206.396 48.7036 207.872 53.1086C209.349 57.5135 207.01 62.287 202.624 63.8191C199.737 64.8277 196.53 64.2052 194.23 62.1897C191.93 60.1742 190.892 57.0773 191.513 54.0828C192.134 51.0883 194.318 48.6594 197.229 47.7244Z"/><path fill="#577CEA" d="M146.231 48.309C150.021 47.6106 153.658 50.1187 154.352 53.9088C155.047 57.6989 152.535 61.3335 148.744 62.0238C144.959 62.7131 141.331 60.2058 140.638 56.4214C139.944 52.637 142.448 49.0064 146.231 48.309Z"/><path fill="#577CEA" d="M168.393 88.2619C171.304 87.7842 174.057 89.7376 174.567 92.6425C175.076 95.5474 173.154 98.3216 170.254 98.8637C168.35 99.2196 166.402 98.525 165.152 97.0447C163.903 95.5645 163.545 93.527 164.216 91.7097C164.887 89.8924 166.482 88.5757 168.393 88.2619Z"/><path fill="#577CEA" d="M185.11 10.7779C187.835 9.88484 190.767 11.3836 191.639 14.1163C192.511 16.8489 190.99 19.7688 188.25 20.6198C185.541 21.4617 182.659 19.9604 181.797 17.2573C180.934 14.5542 182.413 11.6613 185.11 10.7779Z"/><path fill="#86A1E2" d="M136.04 11.8233C138.132 11.1189 140.401 12.2247 141.135 14.3059C141.87 16.3872 140.796 18.6722 138.726 19.436C137.36 19.9399 135.828 19.6692 134.718 18.7276C133.608 17.786 133.09 16.3194 133.364 14.8895C133.638 13.4596 134.661 12.2879 136.04 11.8233Z"/><path fill="#86A1E2" d="M73.5406 72.8897C75.424 72.2514 77.4712 73.242 78.1395 75.115C78.8079 76.9879 77.8503 79.0507 75.9883 79.749C74.757 80.2108 73.3723 79.9729 72.3657 79.1266C71.3592 78.2803 70.887 76.9571 71.1304 75.6648C71.3739 74.3724 72.2951 73.3117 73.5406 72.8897Z"/><path fill="#86A1E2" d="M124.534 129.344C125.575 128.762 126.855 128.81 127.85 129.468C128.845 130.127 129.389 131.285 129.261 132.471C129.132 133.657 128.352 134.673 127.24 135.103C125.678 135.706 123.916 134.999 123.204 133.484C122.492 131.969 123.073 130.161 124.534 129.344Z"/><path fill="#86A1E2" d="M223.674 13.3202C225.271 12.6322 227.124 13.3532 227.836 14.9392C228.548 16.5252 227.856 18.3892 226.281 19.1254C225.24 19.6116 224.019 19.4996 223.084 18.8322C222.149 18.1649 221.647 17.0457 221.769 15.9038C221.891 14.762 222.619 13.7745 223.674 13.3202Z"/><path fill="#86A1E2" d="M306.767 0L317.912 0L348.418 0C323.001 35.7617 319.535 66.8426 312.427 108.93C310.111 122.259 307.439 135.523 304.414 148.709C284.135 237.341 229.629 301.493 137.504 317.173C118.121 320.472 85.2436 321.702 66.2703 316.717C70.1211 308.424 73.5768 299.953 76.6256 291.332C80.8263 279.531 89.74 252.454 96.6603 242.984C97.9154 240.482 99.5717 237.958 101.054 235.563C108.493 224.982 112.935 219.14 122.328 210.149C122.73 209.921 128.092 205.683 128.86 205.102C134.627 200.736 138.505 198.723 145.073 195.726L144.745 195.454C139.458 195.496 139.578 199.901 135.529 198.757C133.962 196.925 134.031 195.227 133.555 192.874C136.185 190.802 141.579 188.92 142.838 186.852C153.953 177.956 198.107 176.385 206.617 168.797C220.07 142.975 226.955 121.108 234.503 92.8107C235.163 90.3379 238.151 80.1038 238.051 77.9846L236.582 77.6829C238.175 77.2129 247.696 76.392 251.109 75.4647C272.262 69.7179 282.589 58.9418 293.32 40.8915C299.383 27.8325 303.896 14.1086 306.767 0Z"/><path fill="#86A1E2" d="M306.767 0L317.912 0C317.891 1.86401 318.029 4.67081 317.432 6.32924C316.331 9.30075 315.909 15.5916 315.558 18.9909C313.471 33.4464 309.531 47.2329 306.111 61.3353C296.621 100.471 279.279 139.22 246.028 164.172C233.524 173.434 219.251 180.026 204.093 183.54C202.257 183.972 197.385 185.052 195.61 185.074C178.361 186.328 161.361 189.911 145.073 195.726L144.745 195.454C139.458 195.496 139.578 199.901 135.529 198.757C133.962 196.925 134.031 195.227 133.555 192.874C136.185 190.802 141.579 188.92 142.838 186.852C153.953 177.956 198.107 176.385 206.617 168.797C220.07 142.975 226.955 121.108 234.503 92.8107C235.163 90.3379 238.151 80.1038 238.051 77.9846L236.582 77.6829C238.175 77.2129 247.696 76.392 251.109 75.4647C272.262 69.7179 282.589 58.9418 293.32 40.8915C299.383 27.8325 303.896 14.1086 306.767 0Z"/><path fill="#86A1E2" d="M293.32 40.8915L293.98 40.9829L294.686 40.3745C294.737 44.8434 292.496 53.3808 291.462 58.0517C284.904 87.6654 271.514 118.732 250.12 140.616C242.22 148.697 217.643 167.841 206.617 168.797C220.07 142.975 226.955 121.108 234.503 92.8107C235.163 90.3379 238.151 80.1038 238.051 77.9846L236.582 77.6829C238.175 77.2129 247.696 76.392 251.109 75.4647C272.262 69.7179 282.589 58.9418 293.32 40.8915Z"/><path fill="#446ED2" d="M145.073 195.726C161.361 189.911 178.361 186.328 195.61 185.074C173.677 210.87 146.809 230.446 111.998 234.973C111.422 235.048 110.917 235.05 110.503 235.061L101.054 235.563C108.493 224.982 112.935 219.14 122.328 210.149C122.73 209.921 128.092 205.683 128.86 205.102C134.627 200.736 138.505 198.723 145.073 195.726Z"/><path fill="white" d="M317.432 6.32924C319.124 7.14551 320.413 7.65077 321.063 9.56127C321.676 11.3934 321.483 13.3995 320.532 15.0811C319.406 17.1158 317.773 18.3838 315.558 18.9909C315.909 15.5916 316.331 9.30075 317.432 6.32924Z"/><path fill="#86A1E2" d="M101.054 235.563L110.503 235.061C105.35 236.699 104.489 241.773 96.6603 242.984C97.9154 240.482 99.5717 237.958 101.054 235.563Z"/><path fill="#86A1E2" d="M304.516 408.841C305.26 380.535 303.514 351.762 304.83 323.465C305.373 311.793 321.87 313.346 329.587 313.362L354.689 313.417C381.675 313.351 408.372 312.888 435.447 313.064C428.16 320.706 422.073 328.539 414.417 336.25C389.493 361.355 363.711 377.555 332.852 394.098C326.274 397.638 319.669 401.127 313.036 404.564C311.235 405.493 306.028 408.301 304.516 408.841Z"/><path fill="#577CEA" d="M348.418 0L361.568 0C356.453 6.90975 351.431 13.5849 347.333 21.2357C327.739 57.8207 326.699 99.6796 317.314 139.396C312.554 159.54 309.114 174.312 301.56 193.509C271.595 269.66 214.434 315.661 133.494 327.868C113.128 330.762 92.477 331.045 72.0403 328.709C69.58 328.451 63.1266 327.874 61.0817 326.998C62.8349 323.583 64.5645 320.156 66.2703 316.717C85.2436 321.702 118.121 320.472 137.504 317.173C229.629 301.493 284.135 237.341 304.414 148.709C307.439 135.523 310.111 122.259 312.427 108.93C319.535 66.8426 323.001 35.7617 348.418 0Z"/><path fill="#446ED2" d="M436.482 311.123C440.533 311.126 446.095 311.285 450.004 311.075C449.658 311.695 449.278 312.275 449.049 312.927C445.685 313.228 439.053 313.048 435.447 313.064C408.372 312.888 381.675 313.351 354.689 313.417L329.587 313.362C321.87 313.346 305.373 311.793 304.83 323.465C303.514 351.762 305.26 380.535 304.516 408.841L304.373 451.056L302.51 450.986L302.481 409.896C302.1 381.308 302.46 351.407 302.756 322.76C302.806 317.927 309.18 312.084 313.898 311.658C322.644 310.869 331.949 311.368 340.866 311.334L404.158 311.439C413.058 311.455 427.619 311.962 435.93 311.18L436.482 311.123Z"/><path fill="white" d="M436.482 311.123C441.483 301.814 446.256 294.666 450.098 284.669C450.339 291.06 449.96 297.148 450.412 303.638C450.453 306.06 450.71 308.832 450.004 311.075C446.095 311.285 440.533 311.126 436.482 311.123Z"/><path fill="white" d="M89.3833 415.8C91.788 414.832 94.529 415.253 96.5329 416.897C98.5368 418.541 99.4847 421.147 99.0052 423.695C98.5257 426.242 96.6953 428.325 94.2308 429.128C90.5936 430.314 86.6716 428.402 85.3641 424.807C84.0566 421.212 85.8344 417.228 89.3833 415.8Z"/><path fill="white" d="M63.5932 463.656C66.681 462.941 69.7664 464.856 70.4947 467.941C71.2229 471.026 69.3199 474.119 66.238 474.86C63.1383 475.605 60.0236 473.688 59.2911 470.586C58.5587 467.483 60.4876 464.376 63.5932 463.656Z"/><path fill="white" d="M15.5852 465.778C18.2392 464.652 21.3042 465.882 22.4434 468.53C23.5827 471.179 22.368 474.25 19.7254 475.402C17.064 476.563 13.9663 475.338 12.819 472.671C11.6716 470.004 12.9123 466.912 15.5852 465.778Z"/><path fill="white" d="M17.1652 408.152C19.1105 407.7 21.0705 408.845 21.6326 410.762C22.1948 412.678 21.1636 414.7 19.2823 415.371C17.9662 415.84 16.4986 415.542 15.4695 414.597C14.4405 413.651 14.019 412.215 14.3745 410.863C14.7301 409.512 15.8042 408.469 17.1652 408.152Z"/><path fill="white" d="M106.963 452.269C108.872 451.577 110.986 452.527 111.736 454.415C112.485 456.303 111.599 458.444 109.735 459.25C108.478 459.794 107.025 459.611 105.942 458.772C104.86 457.933 104.319 456.572 104.532 455.219C104.744 453.867 105.675 452.736 106.963 452.269Z"/><path fill="white" d="M40.9392 434.158C42.1779 433.593 43.6264 433.75 44.7147 434.568C45.803 435.386 46.3568 436.734 46.1583 438.081C45.9598 439.428 45.0407 440.559 43.7627 441.028C41.8875 441.717 39.8032 440.8 39.0438 438.952C38.2844 437.104 39.1216 434.987 40.9392 434.158Z"/><path fill="white" d="M144.196 448.238C145.97 447.526 147.985 448.383 148.703 450.154C149.421 451.925 148.57 453.944 146.801 454.667C145.024 455.394 142.995 454.538 142.274 452.759C141.553 450.98 142.415 448.953 144.196 448.238Z"/><path fill="white" d="M78.7008 512.254C80.4511 511.883 82.1952 512.908 82.7238 514.617C83.2523 516.326 82.3912 518.157 80.7374 518.839C79.5244 519.339 78.1328 519.111 77.1436 518.249C76.1544 517.387 75.7377 516.04 76.0676 514.77C76.3975 513.5 77.4171 512.525 78.7008 512.254Z"/><path fill="white" d="M15.2343 531.821C16.9604 531.327 18.7688 532.282 19.335 533.986C19.9012 535.689 19.0239 537.536 17.3457 538.174C16.195 538.612 14.8973 538.383 13.9656 537.578C13.034 536.774 12.6184 535.523 12.8833 534.321C13.1481 533.119 14.0508 532.159 15.2343 531.821Z"/><path fill="white" d="M54.0194 384.727C54.9228 384.183 56.0515 384.179 56.9593 384.715C57.8672 385.251 58.4082 386.242 58.3685 387.295C58.3289 388.349 57.715 389.296 56.7694 389.762C55.389 390.443 53.7174 389.914 52.9797 388.563C52.2419 387.213 52.7005 385.52 54.0194 384.727Z"/><path fill="white" d="M127.988 402.224C128.972 401.836 130.09 402.024 130.893 402.713C131.695 403.402 132.051 404.479 131.817 405.51C131.582 406.542 130.796 407.359 129.774 407.633C128.314 408.026 126.8 407.209 126.326 405.773C125.851 404.337 126.581 402.78 127.988 402.224Z"/><path fill="white" d="M41.4362 499.776C42.9327 499.355 44.4895 500.216 44.9281 501.708C45.3667 503.199 44.5239 504.766 43.0377 505.222C42.0608 505.522 40.9982 505.273 40.2556 504.571C39.513 503.869 39.205 502.822 39.4494 501.83C39.6937 500.838 40.4526 500.053 41.4362 499.776Z"/><path fill="white" d="M96.152 372.82C97.6095 372.342 99.1806 373.124 99.679 374.574C100.178 376.025 99.4186 377.607 97.9753 378.126C97.0232 378.468 95.9606 378.271 95.1943 377.611C94.428 376.95 94.0767 375.928 94.2751 374.936C94.4734 373.944 95.1906 373.135 96.152 372.82Z"/><path fill="white" d="M118.47 492.19C119.962 492.001 121.331 493.043 121.546 494.532C121.762 496.021 120.744 497.408 119.259 497.65C118.275 497.809 117.281 497.426 116.659 496.646C116.038 495.866 115.886 494.812 116.261 493.888C116.636 492.965 117.481 492.316 118.47 492.19Z"/><path fill="#577CEA" d="M882.404 686.371C892.057 684.099 916.098 671.653 924.189 666.487C959.572 643.896 974.183 615.492 981.469 575.214C984.218 560.013 988.918 544.432 998.738 532.266C1006.63 522.483 1013.59 517.997 1024 511.217L1024 521.683L1024 636.729L1024 640.21L1024 723.917L1024 1024L798.498 1024L794.157 1024L665.369 1024L653.219 1024L624.72 1024L612.514 1024C619.208 1015.52 636.565 995.48 641.348 987.042L646.552 979.611C649.49 976.982 659.528 962.26 662.284 958.248C689.376 918.807 698.201 890.253 705.184 843.49C706.398 836.088 707.746 828.926 709.219 821.585C722.675 754.554 774.219 726.919 833.013 704.26C849.603 698.631 865.764 691.993 882.404 686.371Z"/><path fill="#234493" d="M923.412 749.433C939.539 691.225 959.611 650.447 1024 636.729L1024 640.21L1024 723.917L1024 1024L798.498 1024L794.157 1024C807.047 1000.62 803.066 976.007 806.404 949.316C809.208 927.434 815.495 906.142 825.028 886.247C832.531 871.193 842.267 857.359 853.905 845.215C873.293 824.905 893.809 810.542 908.312 785.21C915.869 772.009 918.678 763.593 923.412 749.433Z"/><path fill="#446ED2" d="M927.085 748.81C942.014 692.275 962.945 653.782 1024 640.21L1024 723.917C1003.73 733.103 986.716 740.118 964.446 743.848C951.886 745.951 939.41 746.926 927.085 748.81Z"/><path fill="white" d="M923.412 749.433C939.539 691.225 959.611 650.447 1024 636.729L1024 640.21C962.945 653.782 942.014 692.275 927.085 748.81C921.765 765.253 917.614 776.799 908.258 791.699C893.894 814.576 873.916 828.833 855.768 848.017C843.558 861.011 833.529 875.894 826.07 892.09C817.57 910.329 812.099 931.171 809.625 951.14C806.346 977.6 810.752 999.368 798.498 1024L794.157 1024C807.047 1000.62 803.066 976.007 806.404 949.316C809.208 927.434 815.495 906.142 825.028 886.247C832.531 871.193 842.267 857.359 853.905 845.215C873.293 824.905 893.809 810.542 908.312 785.21C915.869 772.009 918.678 763.593 923.412 749.433Z"/><path fill="#234493" d="M860.627 764.404C868.827 761.791 876.761 758.283 885.328 755.87C897.885 752.334 910.463 750.706 923.412 749.433C918.678 763.593 915.869 772.009 908.312 785.21C893.809 810.542 873.293 824.905 853.905 845.215C842.267 857.359 832.531 871.193 825.028 886.247C815.495 906.142 809.208 927.434 806.404 949.316C803.066 976.007 807.047 1000.62 794.157 1024L665.369 1024C705.598 990.836 749.111 943.176 769.909 894.294C778.015 875.362 779.525 854.545 790.881 836.947C803.224 818.277 823.19 806.957 839.084 791.396C848.146 782.524 852.96 773.416 860.627 764.404Z"/><path fill="#A7BBEA" d="M825.85 716.167C829.429 715.385 840.124 711.164 844.173 709.703L877.535 697.763C872.138 720.009 866.75 737.674 854.5 757.46C852.719 760.338 848.783 767.059 846.363 769.244C838.139 773.34 831.208 778.853 823.718 784.076C788.421 808.685 763.132 841.398 747.811 881.597C739.688 902.909 735.375 924.562 720.741 943.19C706.885 960.827 686.551 964.551 668.199 977.185C656.127 985.496 653.69 990.653 644.66 998.5C645.661 994.518 667.024 967.595 671.021 961.465C677.528 951.486 683.362 941.869 689.135 931.22C702.558 906.455 707.541 884.655 712.345 857.326C713.51 850.701 714.79 841.98 716.242 835.555C718.471 835.185 729.883 827.425 732.683 825.722C773.876 800.677 806.508 760.04 825.85 716.167Z"/><path fill="#446ED2" d="M886.092 694.954C899.233 689.845 914.885 682.662 926.747 675.2C935.907 669.323 944.456 662.544 952.266 654.965C977.061 630.74 983.26 607.342 990.259 574.856C995.838 548.965 1001.32 536.069 1024 521.683L1024 636.729C959.611 650.447 939.539 691.225 923.412 749.433C910.463 750.706 897.885 752.334 885.328 755.87C876.761 758.283 868.827 761.791 860.627 764.404C861.594 762.611 862.813 760.55 863.889 758.795C876.081 738.907 881.304 717.643 886.092 694.954Z"/><path fill="#234493" d="M846.363 769.244C844.877 774.066 826 792.673 821.37 796.363C809.582 805.755 796.947 814.091 787.667 826.465C772.901 845.678 771.984 865.945 763.727 887.588C760.719 895.474 756.134 903.808 751.992 911.289C727.188 956.089 691.553 990.939 653.219 1024L624.72 1024C628.522 1018.34 643.038 1001.83 644.66 998.5C653.69 990.653 656.127 985.496 668.199 977.185C686.551 964.551 706.885 960.827 720.741 943.19C735.375 924.562 739.688 902.909 747.811 881.597C763.132 841.398 788.421 808.685 823.718 784.076C831.208 778.853 838.139 773.34 846.363 769.244Z"/><path fill="white" d="M716.242 835.555C726.076 766.401 767.103 741.196 825.85 716.167C806.508 760.04 773.876 800.677 732.683 825.722C729.883 827.425 718.471 835.185 716.242 835.555Z"/><path fill="#B8C8EE" d="M291.702 1024C307.056 994.188 333.041 968.146 361.224 950.042C460.847 886.046 588.009 903.748 692.021 849.62C695.801 847.652 701.309 844.844 705.184 843.49C698.201 890.253 689.376 918.807 662.284 958.248C659.528 962.26 649.49 976.982 646.552 979.611L641.348 987.042C636.565 995.48 619.208 1015.52 612.514 1024L588.154 1024L575.228 1024L291.702 1024Z"/><path fill="white" d="M575.228 1024C572.334 1013.8 587.841 1012.35 588.154 1024L575.228 1024Z"/><path fill="white" d="M641.348 987.042C640.633 983.56 641.924 977.957 646.552 979.611L641.348 987.042Z"/><path fill="white" d="M528.565 986.299C532.342 985.563 536.021 987.959 536.875 991.711C537.728 995.463 535.447 999.214 531.723 1000.18C529.21 1000.84 526.539 1000.07 524.754 998.185C522.97 996.298 522.353 993.589 523.146 991.116C523.939 988.642 526.016 986.797 528.565 986.299Z"/><path fill="white" d="M617.693 918.29C620.943 917.756 624.028 919.905 624.655 923.139C625.282 926.373 623.222 929.519 620.008 930.238C617.844 930.722 615.589 929.992 614.12 928.333C612.65 926.673 612.199 924.345 612.943 922.257C613.686 920.168 615.505 918.649 617.693 918.29Z"/><path fill="white" d="M571.26 942.721C573.373 941.912 575.761 942.345 577.455 943.845C579.15 945.345 579.869 947.663 579.323 949.859C578.776 952.055 577.054 953.765 574.854 954.295C571.741 955.046 568.58 953.251 567.631 950.193C566.681 947.135 568.269 943.865 571.26 942.721Z"/><path fill="white" d="M657.038 939.758C658.909 938.912 661.093 939.157 662.73 940.396C664.367 941.635 665.196 943.67 664.89 945.701C664.583 947.731 663.191 949.431 661.261 950.132C658.43 951.161 655.293 949.767 654.157 946.978C653.021 944.188 654.294 940.999 657.038 939.758Z"/><path fill="white" d="M576.573 981.715C579.296 980.86 582.199 982.359 583.079 985.074C583.958 987.789 582.485 990.706 579.777 991.609C577.036 992.524 574.075 991.028 573.184 988.278C572.294 985.529 573.816 982.581 576.573 981.715Z"/><path fill="white" d="M615.852 965.262C617.392 964.771 619.041 965.611 619.548 967.146C620.056 968.681 619.232 970.339 617.702 970.861C616.699 971.204 615.588 970.982 614.794 970.279C614 969.576 613.645 968.501 613.864 967.463C614.082 966.425 614.842 965.585 615.852 965.262Z"/><path fill="white" d="M539.642 932.793C540.6 932.465 541.66 932.687 542.406 933.372C543.153 934.056 543.465 935.093 543.222 936.076C542.979 937.059 542.218 937.83 541.239 938.087C539.798 938.466 538.317 937.636 537.887 936.21C537.457 934.784 538.232 933.274 539.642 932.793Z"/><path fill="white" d="M449.049 312.927L450.159 313.403C450.9 315.403 450.584 319.868 450.561 322.291L450.446 338.62C450.389 349.677 449.779 360.596 461.923 366.344C464.372 367.483 466.999 368.193 469.689 368.444C475.236 369.016 484.455 368.541 490.377 368.505C497.234 368.462 505.499 368.727 512.168 368.346L513.94 368.466C513.952 375.64 513.695 449.612 514.492 450.868C529.726 450.845 545.633 450.269 560.649 451.529C566.972 452.059 574.356 460.026 574.836 466.037C576.014 480.784 575.663 497.489 575.437 512.264C575.425 512.977 575.399 513.69 575.359 514.403C575.35 514.709 575.281 516.3 575.317 516.55C575.486 529.577 576.06 544.86 574.785 557.906C574.474 561.094 571.838 565.781 569.599 567.998C562.635 574.902 551.718 573.327 542.722 573.43C533.357 573.538 523.939 573.212 514.555 573.404L512.609 573.241C500.685 573.675 488.608 572.938 476.666 573.343C473.361 573.455 469.759 573.553 466.53 572.834C463.15 572.095 460.043 570.429 457.557 568.023C449.274 559.995 451.633 547.57 451.451 537.083C451.332 530.237 451.531 523.263 451.485 516.388L394.939 516.383C384.712 516.384 373.179 516.14 363.047 516.51L363.013 514.417C363.268 505.396 363.037 495.934 363.158 486.847C362.831 480.393 363.906 473.343 362.695 466.998C359.333 449.381 343.049 450.954 330.077 450.971L304.373 451.056L304.516 408.841C306.028 408.301 311.235 405.493 313.036 404.564C319.669 401.127 326.274 397.638 332.852 394.098C363.711 377.555 389.493 361.355 414.417 336.25C422.073 328.539 428.16 320.706 435.447 313.064C439.053 313.048 445.685 313.228 449.049 312.927Z"/><path fill="#234493" d="M451.531 514.405L451.496 484.815C451.496 479.131 451.007 471.227 452.16 465.814C455.803 448.705 471.605 450.771 484.908 450.813L512.073 450.901L514.492 450.868C529.726 450.845 545.633 450.269 560.649 451.529C566.972 452.059 574.356 460.026 574.836 466.037C576.014 480.784 575.663 497.489 575.437 512.264C575.425 512.977 575.399 513.69 575.359 514.403C575.35 514.709 575.281 516.3 575.317 516.55C575.486 529.577 576.06 544.86 574.785 557.906C574.474 561.094 571.838 565.781 569.599 567.998C562.635 574.902 551.718 573.327 542.722 573.43C533.357 573.538 523.939 573.212 514.555 573.404L512.609 573.241C500.685 573.675 488.608 572.938 476.666 573.343C473.361 573.455 469.759 573.553 466.53 572.834C463.15 572.095 460.043 570.429 457.557 568.023C449.274 559.995 451.633 547.57 451.451 537.083C451.332 530.237 451.531 523.263 451.485 516.388L451.531 514.405Z"/><path fill="#A7BBEA" d="M465.935 454.629C495.44 453.257 526.581 454.981 556.22 454.537C574.263 454.267 572.664 471.991 572.544 484.747C572.332 507.383 572.822 530.643 572.37 553.327C572.212 562.064 568.5 566.974 560.381 570.117C554.788 571.382 527.135 571.132 518.967 570.994C505.316 570.762 487.261 571.553 474.134 570.81C471.183 570.635 468.261 570.135 465.42 569.32C461.928 568.288 458.672 564.635 457.118 561.419C456.079 559.27 455.579 556.979 455.384 554.611C454.562 544.628 454.113 469.765 456.184 464.231C457.929 459.567 461.531 456.638 465.935 454.629Z"/><path fill="#0D2271" d="M507.989 469.083C530.856 465.967 551.945 481.905 555.189 504.754C558.433 527.603 542.613 548.781 519.783 552.153C496.771 555.552 475.387 539.579 472.117 516.548C468.848 493.517 484.941 472.223 507.989 469.083Z"/><path fill="#577CEA" d="M511.744 470.512C534.005 469.456 552.886 486.691 553.859 508.955C554.833 531.22 537.529 550.037 515.26 550.929C493.108 551.816 474.41 534.621 473.442 512.472C472.473 490.323 489.599 471.562 511.744 470.512Z"/><path fill="#234493" d="M503.971 499.554C504.815 495.427 505.733 491.49 509.869 489.429C511.918 488.425 514.303 488.358 516.405 489.247C520.837 491.105 521.809 494.975 523.411 499.083C534.097 505.578 532.056 507.291 532.61 519.217C532.776 522.789 532.943 528.163 530.881 531.076C528.33 532.114 519.309 531.641 516.003 531.575L515.79 516.439C513.798 515.9 513.884 515.834 511.937 516.363C512.089 521.008 511.945 526.768 511.944 531.487C508.375 531.468 498.621 532.241 496.453 530.406C494.638 525.855 494.358 512.172 496.057 507.273C497.604 502.811 500.029 501.486 503.971 499.554Z"/><path fill="#86A1E2" d="M511.937 516.363C510.565 516.27 510.085 516.414 509.064 515.546L509.269 514.573C511.697 511.33 517.303 511.333 518.347 514.923C517.337 516.403 517.994 515.748 515.79 516.439C513.798 515.9 513.884 515.834 511.937 516.363Z"/><path fill="#446ED2" d="M363.013 514.417L451.531 514.405L451.485 516.388L394.939 516.383C384.712 516.384 373.179 516.14 363.047 516.51L363.013 514.417Z"/><path fill="#446ED2" d="M512.168 368.346L513.94 368.466C513.952 375.64 513.695 449.612 514.492 450.868L512.073 450.901C512.831 424.489 512.17 395.052 512.168 368.346Z"/><path fill="white" d="M573.934 313.045L670.568 313.029L697.281 312.956C707.744 312.905 722.249 310.269 722.504 324.816C722.753 339.022 722.662 353.196 722.643 367.404L722.74 450.972C713.69 451.059 704.639 451.067 695.589 450.996C685.132 450.939 671.552 449.273 664.937 459.4C660.322 466.468 661.307 476.907 661.317 485.148L661.39 514.115C632.745 514.326 604.002 513.82 575.359 514.403C575.399 513.69 575.425 512.977 575.437 512.264C575.663 497.489 576.014 480.784 574.836 466.037C574.356 460.026 566.972 452.059 560.649 451.529C545.633 450.269 529.726 450.845 514.492 450.868C513.695 449.612 513.952 375.64 513.94 368.466C521.42 368.451 552.625 369.144 557.985 367.864C561.787 366.991 565.273 365.078 568.052 362.339C570.576 359.815 572.373 356.657 573.251 353.197C574.574 348.172 573.9 320.055 573.934 313.045Z"/><path fill="white" d="M363.047 516.51C373.179 516.14 384.712 516.384 394.939 516.383L451.485 516.388C451.531 523.263 451.332 530.237 451.451 537.083C451.633 547.57 449.274 559.995 457.557 568.023C460.043 570.429 463.15 572.095 466.53 572.834C469.759 573.553 473.361 573.455 476.666 573.343C488.608 572.938 500.685 573.675 512.609 573.241L514.555 573.404C514.587 597.996 513.965 625.646 514.663 649.998L512.453 649.97L484.784 649.855C471.914 649.839 455.795 647.973 452.087 664.284C450.712 670.333 451.311 679.127 451.331 685.498L451.401 713.403C445.191 713.711 438.226 713.704 431.988 713.575C392.566 712.759 352.076 714.846 312.736 713.435C309.11 711.318 305.918 709.163 305.452 704.616C304.902 699.26 305.058 693.79 305.054 688.407L305.059 661.705L305.09 573.098C312.918 573.054 320.746 573.08 328.573 573.178C340.198 573.343 360.637 575.41 362.543 558.207C363.986 545.191 363.121 529.813 363.047 516.51Z"/><path fill="#446ED2" d="M512.609 573.241L514.555 573.404C514.587 597.996 513.965 625.646 514.663 649.998L512.453 649.97C513.195 625.608 512.522 597.974 512.609 573.241Z"/><path fill="white" d="M661.39 514.115L661.421 516.552C661.404 529.835 660.906 544.797 662.02 558.037C662.746 566.657 669.406 572.8 678.208 573.536C692.481 574.73 708.63 572.581 722.891 573.818L722.934 657.001L722.696 683.971C722.653 689.14 723.359 705.239 719.811 708.6C717.968 710.33 715.622 711.429 713.113 711.737C709.07 712.267 700.451 712.066 696.064 712.064L666.521 712.043L576.106 712.421C576.048 702.959 576.049 693.497 576.111 684.035C576.122 678.376 576.657 671.243 575.505 665.8C571.743 648.031 555.632 649.851 542.215 649.893L514.663 649.998C513.965 625.646 514.587 597.996 514.555 573.404C523.939 573.212 533.357 573.538 542.722 573.43C551.718 573.327 562.635 574.902 569.599 567.998C571.838 565.781 574.474 561.094 574.785 557.906C576.06 544.86 575.486 529.577 575.317 516.55C575.281 516.3 575.35 514.709 575.359 514.403C604.002 513.82 632.745 514.326 661.39 514.115Z"/><path fill="#446ED2" d="M661.39 514.115L661.421 516.552C652.963 516.074 640.678 516.461 631.932 516.47L575.317 516.55C575.281 516.3 575.35 514.709 575.359 514.403C604.002 513.82 632.745 514.326 661.39 514.115Z"/><path fill="#B8C8EE" d="M525.536 0L701.74 0C691.872 6.9523 682.403 13.3479 672.865 20.8293C652.948 36.6731 634.691 54.4977 618.374 74.029C579.282 121.058 549.997 176.641 507.666 220.974C499.381 229.651 488.48 240.235 478.822 247.358C484.919 247.356 514.648 246.977 517.789 247.841C507.24 247.93 496.691 247.926 486.143 247.828C478.39 247.787 466.325 246.768 459.667 250.71C450.59 219.938 445.59 195.156 446.248 162.907C447.611 96.1701 478.334 45.1631 525.536 0Z"/><path fill="#A7BBEA" d="M833.013 704.26C835.77 697.073 840.45 687.484 843.768 680.347C872.338 618.887 875.52 548.681 913.685 491.52C941.469 449.907 975.28 426.47 1024 416.267L1024 487.874L1024 511.217C1013.59 517.997 1006.63 522.483 998.738 532.266C988.918 544.432 984.218 560.013 981.469 575.214C974.183 615.492 959.572 643.896 924.189 666.487C916.098 671.653 892.057 684.099 882.404 686.371C865.764 691.993 849.603 698.631 833.013 704.26Z"/><path fill="#446ED2" d="M1024 487.874L1024 511.217C1013.59 517.997 1006.63 522.483 998.738 532.266C988.918 544.432 984.218 560.013 981.469 575.214C974.183 615.492 959.572 643.896 924.189 666.487C916.098 671.653 892.057 684.099 882.404 686.371C903.182 599.426 934.069 521.513 1024 487.874Z"/><path fill="#234493" d="M451.401 713.403L451.331 685.498C451.311 679.127 450.712 670.333 452.087 664.284C455.795 647.973 471.914 649.839 484.784 649.855L512.453 649.97L514.663 649.998L542.215 649.893C555.632 649.851 571.743 648.031 575.505 665.8C576.657 671.243 576.122 678.376 576.111 684.035C576.049 693.497 576.048 702.959 576.106 712.421L576.122 714.449C576.155 722.388 575.968 730.983 576.206 739.118C576.674 755.143 577.201 774.681 555.265 774.59C553.181 774.582 550.655 774.61 548.483 774.613L493.854 774.649C487.789 774.669 479.862 774.151 473.97 774.694C465.084 775.513 453.346 770.213 452.152 760.375C450.422 746.128 451.822 730.125 451.448 715.429L451.401 713.403Z"/><path fill="#A7BBEA" d="M469.165 652.7C484.924 652.043 502.423 652.891 518.397 652.584C530.383 652.354 543.253 652.678 555.266 652.771C557.595 652.789 562.433 653.86 564.26 654.762C567.545 656.384 572.896 663.009 573.215 666.65C574.216 678.064 573.892 692.553 573.931 703.991L574.008 735.654C574.017 749.207 576.705 768.488 558.783 771.897C543.081 772.501 525.216 771.441 509.192 771.767C496.708 771.35 483.928 772.313 471.485 771.474C453.955 770.29 454.82 758.367 454.82 745.9L454.808 722.16L454.635 687.417C454.561 673.297 450.989 655.916 469.165 652.7Z"/><path fill="#0D2271" d="M506.956 670.014C529.456 667.647 549.626 683.939 552.045 706.433C554.465 728.927 538.22 749.135 515.732 751.606C493.169 754.086 472.88 737.777 470.453 715.208C468.026 692.64 484.383 672.389 506.956 670.014Z"/><path fill="#577CEA" d="M508.712 671.493C530.456 670.098 549.212 686.597 550.601 708.342C551.989 730.086 535.483 748.837 513.738 750.218C492.004 751.598 473.264 735.102 471.876 713.368C470.489 691.634 486.979 672.888 508.712 671.493Z"/><path fill="#234493" d="M511.659 686.86C514.687 688.914 518.934 695.008 521.313 698.171C525.854 698.147 532.71 696.619 535.26 700.818C535.541 704.756 531.786 710.797 529.867 714.557C531.919 718.556 537.014 726.362 534.454 730.542C531.308 732.807 516.167 731.633 511.445 731.561C504.592 731.913 497.726 731.944 490.871 731.655C490.75 728.528 490.936 725.453 491.065 722.327L496.937 720.678C497.645 718.712 498.201 716.333 498.739 714.284C496.969 712.503 494.359 710.302 492.44 708.632C491.35 705.866 490.26 702.746 491.597 699.945C494.377 697.307 499.897 698.057 504.177 697.935C506.936 694.417 508.475 690.664 511.659 686.86Z"/><path fill="#577CEA" d="M512.066 701.721C513.802 702.256 517.137 704.681 516.914 706.705C516.361 706.871 514.532 707.334 514.406 707.795C513.652 710.561 513.817 716.558 514.645 719.256C514.584 719.055 517.051 719.728 518.102 720.832C518.354 722.7 518.617 721.974 517.869 723.3C516.538 723.446 515.413 723.389 514.403 724.192C514.068 726.291 513.928 727.971 513.759 730.095C513.088 730.413 512.751 730.513 512.051 730.752C510.595 729.112 511.912 725.509 510.499 724.245C510.125 723.91 508.611 723.924 507.23 722.604C508.536 720.905 509.784 719.162 510.97 717.378C511.299 710.586 510.847 711.573 509.58 705.461C509.934 703.733 510.855 703.033 512.066 701.721Z"/><path fill="#234493" d="M302.934 573.102C292.316 573.036 281.697 573.028 271.079 573.077C259.728 573.096 247.208 575.138 241.039 563.739C238.717 559.449 238.22 556.448 238.216 551.734C238.197 528.241 238.402 504.751 238.309 481.258C238.292 476.811 238.14 472.172 238.788 467.776C240.583 459.513 247.433 452.779 255.786 451.264C261.891 450.157 269.007 450.708 275.268 450.768L302.51 450.986L304.373 451.056L330.077 450.971C343.049 450.954 359.333 449.381 362.695 466.998C363.906 473.343 362.831 480.393 363.158 486.847C363.037 495.934 363.268 505.396 363.013 514.417L363.047 516.51C363.121 529.813 363.986 545.191 362.543 558.207C360.637 575.41 340.198 573.343 328.573 573.178C320.746 573.08 312.918 573.054 305.09 573.098L302.934 573.102Z"/><path fill="#A7BBEA" d="M258.425 454.168C273.068 453.414 290.623 454.485 305.565 454.088C318.408 454.383 331.392 453.678 344.221 454.281C362.58 455.144 361.457 470.96 361.442 483.875L361.395 508.486L361.32 536.611C361.3 551.404 364.003 568.01 344.864 570.948C316.624 571.545 288.017 570.851 259.796 570.843C251.571 570.84 242.546 564.532 241.993 556.449C241.2 544.875 241.61 531.76 241.625 520.139L241.677 489.813C241.702 475.415 239.08 456.79 258.425 454.168Z"/><path fill="#0D2271" d="M297.869 469.622C320.274 467.218 340.422 483.342 342.986 505.73C345.551 528.117 329.571 548.38 307.202 551.105C284.606 553.857 264.092 537.679 261.502 515.064C258.911 492.448 275.235 472.051 297.869 469.622Z"/><path fill="#577CEA" d="M296.567 471.273C318.153 468.119 338.193 483.103 341.274 504.7C344.356 526.296 329.305 546.287 307.698 549.296C286.193 552.291 266.318 537.327 263.251 515.832C260.184 494.337 275.082 474.411 296.567 471.273Z"/><path fill="#234493" d="M301.764 486.297C305.857 487.496 317.331 503.878 319.961 508.31C320.005 515.158 320.332 521.998 320.493 528.795C320.655 535.61 306.993 533.959 302.63 533.888C298 533.856 289.933 534.617 286.198 532.687C284.938 531.232 284.487 529.853 284.566 527.958C284.71 524.493 284.044 512.4 284.843 509.69C286.389 504.44 298.016 490.307 301.764 486.297Z"/><path fill="#234493" d="M724.667 450.958L752.242 450.867C761.065 450.816 772.839 449.356 779.853 455.654C782.157 457.722 784.294 461.852 784.845 464.979C785.553 473.612 785.296 483.489 785.309 492.205L785.356 548.836C785.349 556.623 785.437 563.087 779.474 568.993C777.505 570.944 772.937 573.183 770.288 573.393C755.482 574.564 739.491 573.417 724.661 573.814L722.891 573.818C708.63 572.581 692.481 574.73 678.208 573.536C669.406 572.8 662.746 566.657 662.02 558.037C660.906 544.797 661.404 529.835 661.421 516.552L661.39 514.115L661.317 485.148C661.307 476.907 660.322 466.468 664.937 459.4C671.552 449.273 685.132 450.939 695.589 450.996C704.639 451.067 713.69 451.059 722.74 450.972L724.667 450.958Z"/><path fill="#A7BBEA" d="M681.962 454.216L741.127 454.395C750.472 454.388 761.36 453.666 770.481 454.587C784.254 455.977 782.127 474.281 782.159 483.456L782.258 511.909L782.369 539.972C782.43 553.523 784.762 569.935 766.125 570.967L709.123 570.899C699.244 570.913 689.042 571.278 679.225 570.614C662.343 569.473 664.526 551.893 664.522 540.082L664.543 513.043L664.584 486.74C664.6 471.592 661.83 455.754 681.962 454.216Z"/><path fill="#0D2271" d="M717.768 471.833C739.433 468.395 759.776 483.19 763.18 504.86C766.584 526.53 751.758 546.85 730.083 550.22C708.455 553.583 688.189 538.797 684.792 517.174C681.396 495.552 696.151 475.263 717.768 471.833Z"/><path fill="#577CEA" d="M719.544 473.856C740.183 471.39 758.901 486.155 761.309 506.801C763.717 527.447 748.899 546.123 728.246 548.472C707.676 550.812 689.091 536.066 686.693 515.503C684.295 494.94 698.987 476.313 719.544 473.856Z"/><defs><linearGradient id="gradient_0" gradientUnits="userSpaceOnUse" x1="415.78467" y1="629.01428" x2="292.64807" y2="677.86475"><stop offset="0" stop-color="#3754D6"/><stop offset="1" stop-color="#476EEC"/></linearGradient></defs><path fill="url(#gradient_0)" d="M302.934 573.102L305.09 573.098L305.059 661.705L305.054 688.407C305.058 693.79 304.902 699.26 305.452 704.616C305.918 709.163 309.11 711.318 312.736 713.435C352.076 714.846 392.566 712.759 431.988 713.575C438.226 713.704 445.191 713.711 451.401 713.403L451.448 715.429L356.805 715.584L329.631 715.663C319.986 715.691 304.162 717.902 303.449 704.095C302.83 692.109 303.138 679.897 303.168 667.873L303.268 606.912C303.25 596.146 303.489 583.771 302.934 573.102Z"/><path fill="#446ED2" d="M722.891 573.818L724.661 573.814L724.661 667.054C724.579 673.806 724.578 680.559 724.658 687.312C724.782 696.366 727.059 712.506 713.589 713.558C701.987 714.465 689.507 714.009 677.78 714.01L608.848 714.101C599.193 714.157 585.453 713.806 576.122 714.449L576.106 712.421L666.521 712.043L696.064 712.064C700.451 712.066 709.07 712.267 713.113 711.737C715.622 711.429 717.968 710.33 719.811 708.6C723.359 705.239 722.653 689.14 722.696 683.971L722.934 657.001L722.891 573.818Z"/><path fill="#446ED2" d="M573.783 311.222L669.972 311.244L697.736 311.228C702.67 311.23 709.704 310.843 714.418 311.663C726.273 313.726 724.577 326.899 724.556 335.001L724.492 359.081C724.473 389.473 724.247 420.61 724.667 450.958L722.74 450.972L722.643 367.404C722.662 353.196 722.753 339.022 722.504 324.816C722.249 310.269 707.744 312.905 697.281 312.956L670.568 313.029L573.934 313.045L573.783 311.222Z"/></svg>