<?xml version="1.0" encoding="utf-8" ?><svg xmlns="http://www.w3.org/2000/svg" xmlns:xlink="http://www.w3.org/1999/xlink" width="1024" height="1024" viewBox="0 0 1024 1024"><path fill="#86A1E2" d="M0 0L19.86 0L183.128 0L287.296 0L348.435 0L446.999 0L572.54 0L673.02 0L735.226 0L836.975 0L1002.21 0L1024 0L1024 197.554L1024 337.057L1024 443.039L1024 516.672L1024 519.661L1024 566.64L1024 572.137L1024 613.967L1024 636.71L1024 661.284L1024 698.91L1024 707.912L1024 844.107L1024 912.725L1024 1024L959.89 1024L150.316 1024L0 1024L0 939.085L0 844.131L0 741.239L0 730.414L0 687.395L0 686.67L0 581.756L0 499.162L0 441.955L0 336.473L0 197.679L0 0Z"/><path fill="#B8C8EE" d="M0 0L19.86 0L183.128 0L287.296 0L348.435 0L446.999 0L572.54 0L555.63 174.938L549.359 239.488C548.169 251.239 546.313 264.279 545.527 275.872C538.86 275.492 530.983 274.373 524.708 274.17C510.348 273.707 490.784 273.975 476.627 276.614C465.36 278.198 442.214 282.365 432.091 287.154C428.14 288.424 424.869 289.606 421.001 291.119C406.85 297.382 396.782 302.221 383.538 309.927C366.819 321.356 348.097 335.041 334.963 350.66C318.335 370.509 310.993 380.264 298.426 403.342C289.566 420.301 282.646 440.241 278.281 458.852C275.067 471.675 273.84 484.825 272.766 497.967C272.565 500.43 272.456 502.923 272.088 505.367C233.478 497.641 192.471 487.301 153.979 478.235C102.545 466.601 51.217 454.507 0 441.955L0 336.473L0 197.679L0 0Z"/><path fill="#B8C8EE" d="M183.128 0L287.296 0L348.435 0L446.999 0L572.54 0L555.63 174.938L549.359 239.488C548.169 251.239 546.313 264.279 545.527 275.872C538.86 275.492 530.983 274.373 524.708 274.17C510.348 273.707 490.784 273.975 476.627 276.614C465.36 278.198 442.214 282.365 432.091 287.154C428.14 288.424 424.869 289.606 421.001 291.119C406.85 297.382 396.782 302.221 383.538 309.927C381.643 308.08 374.486 294.909 372.338 291.479L338.451 238.483L227.362 68.0387C212.731 45.2855 197.986 22.6056 183.128 0Z"/><path fill="#A7BBEA" d="M446.999 0L572.54 0L555.63 174.938L549.359 239.488C548.169 251.239 546.313 264.279 545.527 275.872C538.86 275.492 530.983 274.373 524.708 274.17C510.348 273.707 490.784 273.975 476.627 276.614C476.373 267.714 474.422 253.338 473.444 244.126L467.327 185.553C461.019 123.652 454.243 61.799 446.999 0Z"/><path fill="#B8C8EE" d="M348.435 0L446.999 0C454.243 61.799 461.019 123.652 467.327 185.553L473.444 244.126C474.422 253.338 476.373 267.714 476.627 276.614C465.36 278.198 442.214 282.365 432.091 287.154C420.763 253.442 410.826 217.871 400.996 183.614L366.573 63.6193C360.656 42.7802 354.866 20.5798 348.435 0Z"/><path fill="#A7BBEA" d="M287.296 0L348.435 0C354.866 20.5798 360.656 42.7802 366.573 63.6193L400.996 183.614C410.826 217.871 420.763 253.442 432.091 287.154C428.14 288.424 424.869 289.606 421.001 291.119C418.212 287.187 409.957 267.292 407.456 261.73L378.793 199.077L319.034 68.855C308.403 45.8371 297.375 23.2749 287.296 0Z"/><path fill="#A7BBEA" d="M0 197.679C15.5859 209.045 31.1539 219.298 47.0526 230.144L145.11 297.017L244.19 365.571C261.109 377.357 281.152 392.252 298.426 403.342C289.566 420.301 282.646 440.241 278.281 458.852C275.067 471.675 273.84 484.825 272.766 497.967C272.565 500.43 272.456 502.923 272.088 505.367C233.478 497.641 192.471 487.301 153.979 478.235C102.545 466.601 51.217 454.507 0 441.955L0 336.473L0 197.679Z"/><path fill="#B8C8EE" d="M0 336.473C13.2295 342.084 26.4629 348.439 39.701 354.227L176.84 414.613L250.674 447.186C259.127 450.895 270.47 455.126 278.281 458.852C275.067 471.675 273.84 484.825 272.766 497.967C272.565 500.43 272.456 502.923 272.088 505.367C233.478 497.641 192.471 487.301 153.979 478.235C102.545 466.601 51.217 454.507 0 441.955L0 336.473Z"/><path fill="#A7BBEA" d="M19.86 0L183.128 0C197.986 22.6056 212.731 45.2855 227.362 68.0387L338.451 238.483L372.338 291.479C374.486 294.909 381.643 308.08 383.538 309.927C366.819 321.356 348.097 335.041 334.963 350.66C318.39 334.464 299.642 312.292 283.821 294.712L196.453 197.631L79.8477 67.8021C59.7434 45.3166 39.258 23.0967 19.86 0Z"/><path fill="#B8C8EE" d="M572.54 0L673.02 0L735.226 0L836.975 0L1002.21 0L1024 0L1024 197.554L1024 337.057L1024 443.039L1024 516.672L1016.78 519.036C1001.45 523.306 988.146 529.457 975.794 539.411C974.19 540.703 971.711 542.74 970 543.751C965.17 538.385 960.097 535.012 953.743 540.697C948.108 545.738 941.23 560.415 939.709 567.498C938.246 569.623 935.102 574.446 933.553 576.168C927.668 575.612 915.393 576.337 908.797 576.502C891.862 576.845 874.931 577.335 858.005 577.972L787.202 580.152C773.207 580.555 753.951 580.808 740.207 581.928C747.856 558.151 752.208 529.385 751.554 504.464C751.379 491.299 748.271 468.904 744.546 456.453C744.428 455.318 742.777 449.473 742.43 448.113C738.129 431.262 731.094 416.219 723.93 400.475C711.699 378.012 704.178 368.252 687.5 348.716C668.525 330.721 659.393 322.482 637.159 308.354C625.672 301.787 613.806 295.905 601.624 290.738L591.283 287.113C579.997 282.311 557.689 277.387 545.527 275.872C546.313 264.279 548.169 251.239 549.359 239.488L555.63 174.938L572.54 0Z"/><path fill="#A7BBEA" d="M723.93 400.475L1024 197.554L1024 337.057L1024 443.039L1024 516.672L1016.78 519.036C1001.45 523.306 988.146 529.457 975.794 539.411C974.19 540.703 971.711 542.74 970 543.751C965.17 538.385 960.097 535.012 953.743 540.697C948.108 545.738 941.23 560.415 939.709 567.498C938.246 569.623 935.102 574.446 933.553 576.168C927.668 575.612 915.393 576.337 908.797 576.502C891.862 576.845 874.931 577.335 858.005 577.972L787.202 580.152C773.207 580.555 753.951 580.808 740.207 581.928C747.856 558.151 752.208 529.385 751.554 504.464C751.379 491.299 748.271 468.904 744.546 456.453C744.428 455.318 742.777 449.473 742.43 448.113C738.129 431.262 731.094 416.219 723.93 400.475Z"/><path fill="#A7BBEA" d="M1024 443.039L1024 516.672L1016.78 519.036C1001.45 523.306 988.146 529.457 975.794 539.411C974.19 540.703 971.711 542.74 970 543.751C965.17 538.385 960.097 535.012 953.743 540.697C948.108 545.738 941.23 560.415 939.709 567.498C938.246 569.623 935.102 574.446 933.553 576.168C927.668 575.612 915.393 576.337 908.797 576.502C891.862 576.845 874.931 577.335 858.005 577.972L787.202 580.152C773.207 580.555 753.951 580.808 740.207 581.928C747.856 558.151 752.208 529.385 751.554 504.464L752.11 505.252C754.116 505.959 768.878 502.228 772.318 501.455L1024 443.039Z"/><path fill="#B8C8EE" d="M1024 337.057L1024 443.039L772.318 501.455C768.878 502.228 754.116 505.959 752.11 505.252L751.554 504.464C751.379 491.299 748.271 468.904 744.546 456.453C770.729 444.18 796.095 433.925 822.569 422.607L944.24 370.875C969.612 360.247 999.666 348.726 1024 337.057Z"/><path fill="#B8C8EE" d="M572.54 0L673.02 0L735.226 0L836.975 0C828.707 14.1562 819.527 28.2532 810.697 42.0916C796.056 65.2704 781.155 88.2839 765.997 111.128L680.261 242.644C665.95 264.57 651.22 286.315 637.159 308.354C625.672 301.787 613.806 295.905 601.624 290.738L591.283 287.113C579.997 282.311 557.689 277.387 545.527 275.872C546.313 264.279 548.169 251.239 549.359 239.488L555.63 174.938L572.54 0Z"/><path fill="#B8C8EE" d="M572.54 0L673.02 0C669.445 14.2745 665.153 28.9422 661.262 43.1785C649.299 86.5413 636.941 129.794 624.188 172.931C615.817 202.265 607.237 231.538 598.449 260.75C595.964 269.274 593.798 278.971 591.283 287.113C579.997 282.311 557.689 277.387 545.527 275.872C546.313 264.279 548.169 251.239 549.359 239.488L555.63 174.938L572.54 0Z"/><path fill="#A7BBEA" d="M673.02 0L735.226 0C719.831 34.6831 703.926 69.1375 687.516 103.352L640.132 205.4L615.306 259.129C611.886 266.569 603.85 283.391 601.624 290.738L591.283 287.113C593.798 278.971 595.964 269.274 598.449 260.75C607.237 231.538 615.817 202.265 624.188 172.931C636.941 129.794 649.299 86.5413 661.262 43.1785C665.153 28.9422 669.445 14.2745 673.02 0Z"/><path fill="#A7BBEA" d="M836.975 0L1002.21 0L783.041 245.134L726.713 307.093C715.86 319.115 699.058 338.609 687.5 348.716C668.525 330.721 659.393 322.482 637.159 308.354C651.22 286.315 665.95 264.57 680.261 242.644L765.997 111.128C781.155 88.2839 796.056 65.2704 810.697 42.0916C819.527 28.2532 828.707 14.1562 836.975 0Z"/><path fill="#234493" d="M709.806 839.611C712.011 840.558 717.408 842.688 719.025 843.992C760.809 845.057 803.946 844.267 845.901 844.29L900.987 844.308C910.098 844.302 922.173 844.615 931.066 844.094L1024 844.107L1024 912.725L1024 1024L959.89 1024L150.316 1024L0 1024L0 939.085L0 844.131L331.285 844.1C345.051 844.795 362.769 844.48 376.818 844.481L469.497 844.111L587.575 844.067C605.028 844.026 625.262 844.542 642.496 843.926C660.993 844.23 685.895 844.719 704.219 844.006C706.389 843.587 706.383 844.025 707.332 842.107L707.049 842.321C707.332 841.402 707.193 841.407 707.754 840.741L708.975 842.221C709.17 841.135 709.413 840.672 709.806 839.611Z"/><path fill="#86A1E2" d="M477.39 939.668C484.545 939.381 494.414 938.951 501.329 937.509C511.059 938.939 524.179 937.668 534.241 937.726C559.821 937.633 585.401 938.005 610.968 938.842C655.254 940.381 704.281 945.469 748.199 952.215C817.911 962.922 887.761 986.581 950.302 1019.02C953.355 1020.62 956.946 1022.21 959.89 1024L150.316 1024C153.35 1021.72 173.71 1012.14 177.436 1010.41C231.271 985.424 290.336 967.978 348.491 956.418C366.895 952.76 383.282 949.504 402.013 947.043C416.458 945.133 430.937 943.491 445.444 942.119C450.759 941.667 473.913 940.853 477.39 939.668Z"/><path fill="#446ED2" d="M677.363 896.851C731.254 890.697 786.662 886.565 840.924 888.17C884.843 889.903 928.615 894.331 971.992 901.428C989.348 904.171 1007.7 910.041 1024 912.725L1024 1024L959.89 1024C956.946 1022.21 953.355 1020.62 950.302 1019.02C887.761 986.581 817.911 962.922 748.199 952.215C704.281 945.469 655.254 940.381 610.968 938.842C585.401 938.005 559.821 937.633 534.241 937.726C524.179 937.668 511.059 938.939 501.329 937.509C520.927 931.406 540.703 925.863 560.126 919.785C565.376 918.224 569.676 917.271 575.007 916.124C602.773 908.54 643.03 901.343 671.598 897.623L677.363 896.851Z"/><path fill="#446ED2" d="M560.126 919.785C565.376 918.224 569.676 917.271 575.007 916.124C574.14 917.469 572.993 919.683 571.773 920.425C566.204 916.894 566.866 922.133 560.126 919.785Z"/><path fill="#446ED2" d="M794.39 909.731C795.617 910.304 795.63 910.396 796.658 911.312C796.352 912.971 795.988 912.755 794.304 914.184L793.644 914.668L793.179 913.791C793.16 911.511 793.127 911.632 794.39 909.731Z"/><path fill="#446ED2" d="M1019.63 988.53C1021.34 989.041 1021.89 989.759 1021.92 991.382L1020.23 992.354C1018.13 991.68 1018.82 992.289 1017.64 990.907C1018.06 989.291 1017.94 989.793 1019.63 988.53Z"/><path fill="#446ED2" d="M1016.31 983.675C1017.35 983.794 1017.72 983.918 1018.74 984.175C1019.61 985.731 1019.26 985.602 1019.04 987.779L1018.37 987.72C1017.15 986.686 1016.87 985.241 1016.31 983.675Z"/><path fill="#446ED2" d="M664.778 906.457C665.328 906.046 664.96 906.239 665.983 906.133C667.768 907.003 667.228 906.346 667.874 907.975L667.078 908.398C665.694 908.202 666.063 908.198 664.742 907.433L664.778 906.457Z"/><path fill="#446ED2" d="M597.478 925.94L597.527 925.949L597.896 926.512C597.132 927.676 596.438 927.518 594.707 928.058C594.156 927.334 594.312 927.76 594.339 926.747C595.483 926.553 596.384 926.328 597.478 925.94Z"/><path fill="#446ED2" d="M679.131 904.346C680.465 904.958 681.873 906.129 683.045 907.045L680.938 907.053C679.513 906.205 679.915 906.283 679.131 904.346Z"/><path fill="#446ED2" d="M705.263 907.308C706.863 907.899 707.378 908.76 707.679 910.384L707.418 910.437C706.08 909.554 706.117 908.953 705.263 907.308Z"/><path fill="#446ED2" d="M0 939.085C23.0436 931.594 45.1637 924.889 68.8096 919.52C131.455 905.296 194.049 900.445 258.221 901.405C259.911 901.452 264.007 901.457 265.48 901.714C269.781 901.934 274.961 902.063 279.18 902.507L279.477 902.486C283.336 902.397 285.81 902.702 289.672 903.136C291.979 903.142 293.891 903.226 296.193 903.382C339.392 905.619 379.678 914.23 421.508 924.233C429.781 926.282 437.995 928.56 446.141 931.067C454.056 933.504 470.37 939.887 477.39 939.668C473.913 940.853 450.759 941.667 445.444 942.119C430.937 943.491 416.458 945.133 402.013 947.043C383.282 949.504 366.895 952.76 348.491 956.418C290.336 967.978 231.271 985.424 177.436 1010.41C173.71 1012.14 153.35 1021.72 150.316 1024L0 1024L0 939.085Z"/><path fill="#446ED2" d="M279.18 902.507L279.477 902.486C280.008 904.149 279.287 908.071 277.132 908.245C275.671 904.606 278.252 904.551 279.18 902.507Z"/><path fill="#446ED2" d="M280.343 918.734C281.218 918.986 280.796 918.797 281.493 919.721C280.424 923.244 278.663 923.203 275.647 923.037L275.209 922.68C276.312 920.091 277.793 919.566 280.343 918.734Z"/><path fill="#446ED2" d="M264.829 917.988C266.665 918.51 266.888 918.041 268.46 918.998L267.767 922.11C266.807 921.971 266.364 921.753 265.438 921.438C264.37 920.034 264.746 920.272 264.829 917.988Z"/><path fill="#446ED2" d="M204.121 953.772L204.862 954.775C204.344 956.326 202.789 957.803 201.646 959.082C200.482 956.886 202.089 954.72 204.121 953.772Z"/><path fill="#446ED2" d="M121.993 911.831C123.404 913.279 123.404 913.069 125.305 913.48L125.993 913.629L126.977 915.997C123.099 914.786 122.891 915.711 121.993 911.831Z"/><path fill="#446ED2" d="M125.802 1000.12C127.088 1000.26 127.167 1000.18 128.29 1000.76C128.335 1002.29 127.681 1002.5 126.469 1004.07L125.717 1004.16C124.959 1002.91 125.5 1002.02 125.802 1000.12Z"/><path fill="#446ED2" d="M289.674 933.29C291.86 932.351 292.813 933.193 294.163 934.626C292.521 934.83 291.355 934.593 289.725 934.391L289.674 933.29Z"/><path fill="#446ED2" d="M273.494 948.35C274.653 948.038 274.818 948.398 276.216 948.939L276.252 949.735C275.866 950.193 276.136 949.938 275.325 950.356C274.195 949.52 274.079 949.588 273.494 948.35Z"/><path fill="#446ED2" d="M709.806 839.611C712.011 840.558 717.408 842.688 719.025 843.992C715.15 844.071 711.105 843.987 707.217 843.965L704.219 844.006C706.389 843.587 706.383 844.025 707.332 842.107L707.049 842.321C707.332 841.402 707.193 841.407 707.754 840.741L708.975 842.221C709.17 841.135 709.413 840.672 709.806 839.611Z"/><path fill="white" d="M295.245 891.797L295.626 891.715C296.995 892.367 296.501 891.874 297.153 893.247L296.73 893.782C293.677 894.031 290.527 893.989 287.447 893.934C282.423 893.845 277.312 894.027 272.31 893.578C267.529 893.148 275.127 894.897 270.394 893.686C268.586 894.045 267.771 894.221 266.389 893.348L266.489 892.5C268.307 891.479 271.995 892.274 274.47 892.243C281.396 892.152 288.321 892.003 295.245 891.797Z"/><path fill="white" d="M874.945 868.164C878.228 867.845 905.967 867.709 907.598 868.666L907.561 869.333C905.748 870.249 906.023 869.896 903.614 869.662C899.488 869.709 877.467 870.145 875.331 869.363L874.945 868.164Z"/><path fill="white" d="M30.6163 888.357C30.6597 888.349 39.6356 888.502 39.7928 888.538C42.6109 889.181 52.1105 888.119 53.574 888.976L53.471 889.796L52.7328 890.279L50.7825 889.815L50.2836 890.365C46.2169 890.108 26.8776 891.357 25.1819 889.213C26.5381 887.962 28.7108 888.307 30.6163 888.357Z"/><path fill="white" d="M964.247 862.487C968.43 862.771 972.814 862.751 977.013 862.739C979.77 862.732 984.833 861.366 986.953 863.961C985.929 864.956 985.66 864.651 983.862 864.857L982.925 864.299C979.112 864.621 969.034 864.968 965.064 864.421C964.518 864.346 964.457 863.289 964.247 862.487Z"/><path fill="white" d="M168.118 868.731C170.851 868.272 189.353 867.965 191.25 869.175L191.327 870.494C187.272 870.483 170.908 870.826 168.377 869.699L168.118 868.731Z"/><path fill="white" d="M440.572 866.193C444.782 866.049 458.736 867.241 461.322 865.826C461.871 866.632 461.681 866.311 461.806 867.39C459.667 868.695 444.863 868.225 441.286 868.212L440.572 866.193Z"/><path fill="white" d="M531.751 882.724C533.989 882.541 541.12 882.393 543.031 883.442L542.535 884.333C540.609 885.098 537.804 885.077 535.826 884.426L535.359 884.816C532.552 884.423 523.862 885.347 522.573 883.594C523.644 882.64 529.769 882.793 531.751 882.724Z"/><path fill="white" d="M565.227 889.13C568.949 888.968 582.358 888.73 585.198 889.671L585.349 890.47L584.345 891.389C578.255 889.907 569.371 891.786 565.719 890.57L565.227 889.13Z"/><path fill="white" d="M253.447 870.192C257.387 869.955 269.423 869.193 271.993 871.283C269.423 872.512 257.506 872.442 254.417 871.739C253.775 871.593 253.749 870.97 253.447 870.192Z"/><path fill="white" d="M522.262 910.763C523.659 910.357 530.395 910.746 531.789 911.571L531.683 912.257C530.225 913.199 527.522 912.732 525.75 912.477L525.186 912.736C521.555 912.802 518.445 913.168 514.978 912.165L514.849 911.615C517.588 910.507 519.298 910.797 522.262 910.763Z"/><path fill="white" d="M588.98 889.111C591.665 889.079 605.506 888.7 607.015 889.505L607.064 890.244L606.197 890.647C603.166 891.073 592.019 891.365 589.416 890.449L588.98 889.111Z"/><path fill="white" d="M726.874 867.381C730.211 868.046 734.396 866.745 738.347 867.587L738.779 868.326L738.293 869.265L737.121 869.45C732.366 869.325 727.184 869.672 722.565 868.744L722.367 868.17C723.768 867.149 725.077 867.391 726.874 867.381Z"/><path fill="white" d="M804.314 868.219C807.188 867.851 820.552 867.637 822.658 868.76C822.214 869.463 822.51 869.188 821.764 869.579C817.737 868.973 810.081 870.329 805.238 869.643L804.314 868.219Z"/><path fill="white" d="M981.508 883.444C984.533 884.039 995.209 883.389 996.573 884.99C995.494 886.003 995.29 885.652 993.356 885.752C990.548 885.712 981.977 886.125 980.073 885.001L980.249 884.089L981.508 883.444Z"/><path fill="white" d="M75.4713 863.82C78.5036 864.281 85.4285 862.513 86.6251 865.066C84.9561 865.963 85.5023 865.691 83.3788 865.638C81.3021 865.79 72.507 866.231 71.314 864.824C73.056 863.666 73.0685 864.033 75.4713 863.82Z"/><path fill="white" d="M638.256 868.207C643.648 868 647.338 867.645 652.682 868.429L653.588 869.798C650.585 870.062 641.081 870.487 638.615 869.589L638.256 868.207Z"/><path fill="white" d="M375.909 890.196C378.762 889.881 387.392 889.425 390.006 890.465L390.271 891.242L389.236 892.458C386.214 890.571 381.589 892.476 376.824 891.587L375.909 890.196Z"/><path fill="white" d="M442.565 912.092C445.782 912.047 452.826 911.262 454.807 913.007L454.584 914.668C449.419 913.245 446.189 916.4 442.565 912.092Z"/><path fill="white" d="M656.46 889.644C659.386 889.46 664.737 889.205 667.708 889.787C668.452 889.933 668.425 890.449 668.836 891.371C666.143 891.481 659.3 891.877 656.863 891.122L656.46 889.644Z"/><path fill="white" d="M393.03 890.165C395.612 890.059 404.885 889.05 406.276 890.97L405.861 891.957C401.929 891.926 397.998 891.778 394.074 891.512L393.03 890.165Z"/><path fill="white" d="M364.546 890.193C367.316 889.814 372.81 889.548 375.401 890.41L375.979 891.888C373.246 891.899 367.456 892.272 365.292 891.616L364.546 890.193Z"/><path fill="white" d="M668.398 889.558C671.497 889.718 674.457 889.426 677.535 889.558C679.233 889.632 679.223 890.176 679.995 891.338C677.629 891.531 671.445 891.527 669.23 891.226L668.398 889.558Z"/><path fill="white" d="M60.3827 888.658C63.1401 888.488 68.3068 887.783 70.4454 889.255L70.4479 890.563C67.9798 890.402 62.8579 890.632 60.9005 889.989L60.3827 888.658Z"/><path fill="white" d="M103.387 886.051C105.904 887.25 108.182 885.419 111.666 886.566L112.184 888.055C110.136 888.364 104.419 889.034 103.057 887.551L103.387 886.051Z"/><path fill="white" d="M911.106 867.36C912.668 868.296 913.347 868.169 915.222 868.376L915.533 869.188L914.456 869.86C912.446 870.005 909.939 870.45 908.462 868.901C909.355 867.697 909.441 867.981 911.106 867.36Z"/><path fill="white" d="M252.664 892.112C255.866 891.955 258.733 891.151 260.7 893.811C258.152 893.989 255.602 894.457 253.276 893.602L252.664 892.112Z"/><path fill="white" d="M53.3299 888.67C55.4963 888.495 58.2727 887.956 60.0589 889.04L60.2634 890.526C57.1959 890.497 55.123 891.085 53.3299 888.67Z"/><path fill="white" d="M260.361 892.116C263.346 891.849 264.593 891.034 265.693 893.851C262.7 894.116 261.373 894.966 260.361 892.116Z"/><path fill="white" d="M715.821 867.63C717.616 867.478 719.365 867.092 720.901 867.898L721.215 869.427C719.215 869.4 718.572 869.433 716.649 869.011L715.821 867.63Z"/><path fill="white" d="M915.999 868.068C918.199 867.884 917.961 867.576 919.703 868.369L920.181 869.95C917.533 870.11 916.782 870.629 915.999 868.068Z"/><path fill="#B8C8EE" d="M0 441.955C51.217 454.507 102.545 466.601 153.979 478.235C192.471 487.301 233.478 497.641 272.088 505.367C271.041 530.605 274.321 555.837 281.785 579.969C291.764 619.702 317.996 657.018 346.721 685.466L274.252 755.599C293.401 771.168 300.799 779.601 310.493 802.253C311.962 803.291 312.149 803.462 313.853 804.22C335.261 816.703 347.628 826.508 364.735 844.06C356.313 844.001 339.147 843.383 331.285 844.1L0 844.131L0 741.239L0 730.414L0 687.395L0 686.67L0 581.756L0 499.162L0 441.955Z"/><path fill="#B8C8EE" d="M168.638 715.759L169.279 715.972C175.615 718.043 182.958 719.139 189.463 720.96C218.678 729.139 249.734 736.915 274.252 755.599C293.401 771.168 300.799 779.601 310.493 802.253C311.962 803.291 312.149 803.462 313.853 804.22C335.261 816.703 347.628 826.508 364.735 844.06C356.313 844.001 339.147 843.383 331.285 844.1L0 844.131L0 741.239C1.41071 741.059 2.84428 740.707 4.24295 740.408C22.7752 737.903 41.59 738.397 59.9652 741.872C63.4086 742.51 79.7488 747.812 81.0809 747.213L82.1084 747.847C83.9777 749.347 86.8865 750.361 89.1648 751.293C97.1886 754.576 104.486 758.836 111.933 763.251C112.186 762.504 112.139 762.893 112.054 762.081C113.362 762.525 125.915 774.687 128.57 776.207C130.487 777.305 134.209 782.715 136.583 782.849L137.43 782.052L138.091 782.728C137.588 784.238 137.538 783.529 137.838 784.923C142.611 790.114 147.194 795.477 151.577 801.001C158.055 797.176 166.038 794.693 170.739 791.883C173.442 787.64 175.975 783.679 178.894 779.565C185.245 770.626 186.853 759.206 182.689 748.935C181.391 749.891 181.206 750.037 179.761 750.721L179.27 749.995C180.063 748.079 180.439 748.266 182.325 746.766C177.614 737.255 172.588 725.523 168.638 715.759Z"/><path fill="#446ED2" d="M168.638 715.759L169.279 715.972C175.615 718.043 182.958 719.139 189.463 720.96C218.678 729.139 249.734 736.915 274.252 755.599C293.401 771.168 300.799 779.601 310.493 802.253C271.77 783.597 244.92 780.503 202.758 784.184C196.023 783.46 186.227 780.767 178.894 779.565C185.245 770.626 186.853 759.206 182.689 748.935C181.391 749.891 181.206 750.037 179.761 750.721L179.27 749.995C180.063 748.079 180.439 748.266 182.325 746.766C177.614 737.255 172.588 725.523 168.638 715.759Z"/><path fill="#446ED2" d="M232.493 760.837L232.878 761.057L232.8 762.083C231.143 763.29 231.139 762.902 228.721 763.111C228.485 762.691 228.611 762.976 228.504 762.202C229.861 761.897 230.389 761.813 231.659 761.229L232.493 760.837Z"/><path fill="#86A1E2" d="M178.894 779.565C186.227 780.767 196.023 783.46 202.758 784.184C195.754 785.215 188.682 786.998 181.828 788.753C178.532 789.597 173.88 791.269 170.739 791.883C173.442 787.64 175.975 783.679 178.894 779.565Z"/><path fill="#A7BBEA" d="M0 441.955C51.217 454.507 102.545 466.601 153.979 478.235C192.471 487.301 233.478 497.641 272.088 505.367C271.041 530.605 274.321 555.837 281.785 579.969C248.719 580.031 215.654 579.6 182.6 578.673L120.316 577.521L73.0816 576.063C68.1344 575.912 54.7012 575.215 50.3643 575.706C42.2335 570.166 39.1175 568.429 30.0133 565.478L28.9941 561.939C28.4599 560.107 27.6888 556.367 26.2935 555.601L26.0115 554.744L26.6798 554.194C25.724 546.421 15.7447 518.894 12.7226 510.137C10.8962 504.844 5.47284 501.033 0 499.162L0 441.955Z"/><path fill="#234493" d="M0 499.162C5.47284 501.033 10.8962 504.844 12.7226 510.137C15.7447 518.894 25.724 546.421 26.6798 554.194L26.0115 554.744L26.2935 555.601C27.6888 556.367 28.4599 560.107 28.9941 561.939L30.0133 565.478C39.1175 568.429 42.2335 570.166 50.3643 575.706C77.2664 596.869 86.558 623.002 91.4948 656.155C92.1472 660.536 92.5032 667.869 92.3597 672.197C93.3237 676.898 93.9862 679.728 95.4319 684.222C96.5109 687.575 99.093 693.928 99.5657 697.071C103.381 698.479 106.088 699.494 110.223 699.777C111.15 695.612 113.892 689.521 115.192 684.616C118.085 675.198 120.27 665.635 122.977 656.07C125.151 649.214 127.635 631.001 138.44 633.749C144.99 635.414 147.267 646.468 148.969 652.07C153.252 666.175 157.761 680.181 162.4 694.169C164.483 700.449 166.774 707.343 168.358 713.74L167.889 714.808L168.146 715.353L168.638 715.759C172.588 725.523 177.614 737.255 182.325 746.766C180.439 748.266 180.063 748.079 179.27 749.995L179.761 750.721C181.206 750.037 181.391 749.891 182.689 748.935C186.853 759.206 185.245 770.626 178.894 779.565C175.975 783.679 173.442 787.64 170.739 791.883C166.038 794.693 158.055 797.176 151.577 801.001C147.194 795.477 142.611 790.114 137.838 784.923C137.538 783.529 137.588 784.238 138.091 782.728L137.43 782.052L136.583 782.849C134.209 782.715 130.487 777.305 128.57 776.207C125.915 774.687 113.362 762.525 112.054 762.081C112.139 762.893 112.186 762.504 111.933 763.251C104.486 758.836 97.1886 754.576 89.1648 751.293C86.8865 750.361 83.9777 749.347 82.1084 747.847L81.0809 747.213C79.7488 747.812 63.4086 742.51 59.9652 741.872C41.59 738.397 22.7752 737.903 4.24295 740.408C2.84428 740.707 1.41071 741.059 0 741.239L0 730.414L0 687.395L0 686.67L0 581.756L0 499.162Z"/><path fill="#446ED2" d="M30.0133 565.478C39.1175 568.429 42.2335 570.166 50.3643 575.706C77.2664 596.869 86.558 623.002 91.4948 656.155C92.1472 660.536 92.5032 667.869 92.3597 672.197C86.1908 656.109 79.6637 640.121 73.0555 624.206C68.7093 613.738 62.8048 585.188 48.0203 607.898C46.7491 608.213 44.9315 608.72 43.6927 608.897C43.2377 607.856 43.1952 607.904 43.1439 606.758L42.692 606.16C41.9324 608.639 42.4525 608.521 39.7236 609.135C38.3158 598.855 33.257 574.511 30.0133 565.478Z"/><path fill="white" d="M135.379 745.884C135.803 745.903 138.471 746.064 138.471 746.064C143.509 740.819 163.403 717.435 167.889 714.808L168.146 715.353C164.875 720.016 156.353 728.264 152.192 732.787C147.737 737.629 141.915 744.324 137.331 748.59C136.093 748.061 136.037 747.503 135.379 745.884Z"/><path fill="#446ED2" d="M99.5657 697.071C103.381 698.479 106.088 699.494 110.223 699.777C109.899 700.793 109.018 703.36 108.871 704.272C106.733 704.196 104.905 704.23 102.765 704.294C101.499 701.862 100.601 699.595 99.5657 697.071Z"/><path fill="white" d="M81.0809 747.213C82.9481 745.602 104.094 726.251 104.007 726.284L104.377 726.747C102.94 729.569 85.2629 745.566 82.1084 747.847L81.0809 747.213Z"/><path fill="#446ED2" d="M0 730.414C0.855174 732.292 3.98173 738.821 4.24295 740.408C2.84428 740.707 1.41071 741.059 0 741.239L0 730.414Z"/><path fill="#446ED2" d="M39.7236 609.135C42.4525 608.521 41.9324 608.639 42.692 606.16L43.1439 606.758C43.1952 607.904 43.2377 607.856 43.6927 608.897L42.98 609.764C44.1201 611.424 44.058 610.634 43.852 612.163C42.8669 613.53 42.589 614.099 41.161 615.041C40.7014 613.068 40.2223 611.099 39.7236 609.135Z"/><path fill="#446ED2" d="M102.765 704.294C104.905 704.23 106.733 704.196 108.871 704.272L107.732 708.381C106.698 708.048 105.696 708.249 104.54 708.315L102.765 704.294Z"/><path fill="#446ED2" d="M43.6927 608.897C44.9315 608.72 46.7491 608.213 48.0203 607.898L44.3329 615.232C44.033 614.215 43.9784 613.226 43.852 612.163C44.058 610.634 44.1201 611.424 42.98 609.764L43.6927 608.897Z"/><path fill="#446ED2" d="M43.852 612.163C43.9784 613.226 44.033 614.215 44.3329 615.232C44.2188 616.012 42.8869 620.415 42.5979 621.441L41.161 615.041C42.589 614.099 42.8669 613.53 43.852 612.163Z"/><path fill="#446ED2" d="M104.54 708.315C105.696 708.249 106.698 708.048 107.732 708.381C107.622 710.011 107.681 710.961 106.996 712.458C105.858 711.737 105.224 709.752 104.54 708.315Z"/><path fill="white" d="M0 686.67C1.49845 684.957 1.11437 684.865 2.95672 684.268L3.55821 684.713C2.94996 686.649 1.8286 686.78 0 687.395L0 686.67Z"/><path fill="white" d="M22.1628 559.475C23.4857 557.417 24.0464 556.222 26.0115 554.744L26.2935 555.601C25.0682 557.653 24.5597 558.747 22.1628 559.475Z"/><path fill="white" d="M95.6444 692.803L96.4847 693.328C96.1016 694.355 72.7491 715.264 69.4781 719.305L69.0985 719.209L68.5925 718.325C70.0273 715.807 92.0257 696.157 95.6444 692.803Z"/><path fill="white" d="M83.9624 658.838L84.4585 659.317C84.2375 661.087 71.0753 673.412 68.6863 676.182L68.07 675.468C68.5887 673.33 81.4404 661.263 83.9624 658.838Z"/><path fill="white" d="M159.544 767.528C158.792 769.719 143.132 782.976 140.308 783.715C141.202 781.724 157.646 767.795 159.544 767.528Z"/><path fill="white" d="M156.293 681.891L156.767 682.571C156.021 684.705 146.898 695.13 144.763 697.636L144.326 697.153C144.574 694.732 154.11 684.172 156.293 681.891Z"/><path fill="white" d="M23.8556 664.876L24.3567 665.532C23.4593 668.063 13.908 675.92 11.3597 678.158L10.7551 677.672C11.4809 675.562 21.1651 667.584 23.8556 664.876Z"/><path fill="white" d="M130.194 661.055L130.955 660.742C132.136 661.099 134.798 665.597 135.741 666.99C138.218 665.275 139.089 664.409 141.203 662.232L141.739 662.561L141.1 663.811C140.054 665.599 138.004 667.382 136.515 668.945C135.593 668.707 131.093 662.926 130.049 661.686L130.194 661.055Z"/><path fill="white" d="M20.7709 612.827L21.4087 613.723C20.902 615.06 10.9701 625.185 9.1987 627.088L8.71109 626.017C9.67517 624.091 18.6804 615.019 20.7709 612.827Z"/><path fill="white" d="M135.385 745.623C134.804 745.146 127.166 736.439 125.724 734.85L125.952 734.145L126.948 734.099C130.342 737.145 132.737 741.021 136.071 744.274L135.385 745.623Z"/><path fill="white" d="M16.1995 714.876C16.6954 715.021 16.3662 714.891 17.0611 715.498C15.9602 718.035 10.1636 719.333 6.86381 721.904C6.42899 721.783 6.73408 721.899 6.11757 721.271C6.88008 719.713 14.2035 716.006 16.1995 714.876Z"/><path fill="white" d="M71.8136 625.859C71.9023 629.173 66.6583 634.634 64.5114 637.281C63.7391 634.613 69.594 628.968 71.3449 626.52L71.8136 625.859Z"/><path fill="white" d="M46.9158 715.455C47.0866 715.479 47.9394 715.568 48.1223 715.743C50.3365 717.856 54.9216 719.701 55.5573 722.647C53.5814 722.343 47.5121 717.38 46.9158 715.455Z"/><path fill="white" d="M117.061 725.303C119.293 725.825 124.879 731.234 125.632 733.387L124.462 733.228C122.107 731.259 118.785 727.823 117.061 725.303Z"/><path fill="white" d="M31.3457 657.292C31.578 657.487 31.965 658.017 32.1738 658.279C31.7488 659.567 28.0012 662.529 26.3446 664.436L25.874 664.986C25.3813 664.923 25.699 665.002 25.014 664.512C25.3714 663.135 30.0159 658.692 31.3457 657.292Z"/><path fill="white" d="M35.4676 597.226L36.2226 597.598L36.3223 598.438C34.8476 600.76 32.5397 602.759 30.5365 604.707L29.8921 604.383C30.0033 602.831 34.1445 598.692 35.4676 597.226Z"/><path fill="white" d="M37.6784 662.301C39.6795 662.614 43.3689 666.693 44.0682 668.661L43.0158 668.663C41.0964 667.127 38.4245 664.65 37.6784 662.301Z"/><path fill="white" d="M39.1188 708.969C41.5964 709.116 45.5555 712.976 46.2207 715.337C44.5191 714.38 39.6374 710.85 39.1188 708.969Z"/><path fill="white" d="M24.9165 696.012C27.0866 697.603 31.0926 699.957 31.3101 702.591C29.4119 702.056 25.1277 698.145 24.9165 696.012Z"/><path fill="white" d="M177.814 750.831C178.379 751.344 178.262 751.335 178.637 752.059C177.597 753.703 175.181 755.387 173.579 756.66L172.897 756.256C173.138 754.76 176.303 752.338 177.814 750.831Z"/><path fill="white" d="M61.7961 680.979C63.1433 679.52 64.4375 677.737 66.2596 677.158L66.5948 677.695C65.7072 679.465 63.7506 681.275 62.1 682.322L61.7961 680.979Z"/><path fill="white" d="M58.1935 681.613L57.1557 681.941C54.5144 681.566 53.1552 680.129 53.2844 677.443L53.982 677.521C55.345 679.563 55.7117 679.892 57.8886 681.027L58.1935 681.613Z"/><path fill="white" d="M159.544 767.528C160.198 765.688 163.646 762.633 165.411 762.043C164.859 764.451 161.929 767.028 159.544 767.528Z"/><path fill="white" d="M171.087 756.838L171.685 757.058L171.797 757.813C170.104 759.492 168.737 760.627 166.91 762.139C166.357 761.894 166.655 762.098 166.191 761.33C167.008 759.819 169.63 757.997 171.087 756.838Z"/><path fill="white" d="M121.403 689.518C123.318 690.32 125.635 692.313 125.933 694.433C124.346 694.16 122.594 692.013 121.313 690.757L121.403 689.518Z"/><path fill="white" d="M115.962 685.126L117.266 684.704C118.93 685.604 120.201 687.226 121.179 688.822L121.049 689.401C119.311 689.075 117.318 686.54 115.962 685.126Z"/><path fill="white" d="M59.6366 606.782C60.6012 609.409 61.0765 611.168 60.7028 613.89L59.5973 613.495C58.5168 611.56 59.2561 609.085 59.6366 606.782Z"/><path fill="white" d="M3.03961 581.499C3.75384 579.424 5.06519 577.771 7.06229 576.968C6.82603 578.904 5.88933 579.557 4.53944 581.007C4.10881 581.16 3.46164 581.426 3.03961 581.499Z"/><path fill="white" d="M136.537 705.314L136.782 703.227L137.452 703.021C138.485 704.36 138.051 703.658 138.196 705.739C137.56 707.275 137.493 707.172 136.188 708.262C136.224 706.965 136.326 706.611 136.537 705.314Z"/><path fill="white" d="M14.0113 569.14C14.5308 567.292 16.9371 565.243 18.3463 563.978C18.044 566.32 16.529 568.746 14.0113 569.14Z"/><path fill="white" d="M14.4055 519.471L14.7508 520.171C13.7127 521.989 12.8287 523.249 11.6213 524.969C11.0153 524.502 11.3233 524.839 10.9434 523.779C11.7372 521.918 12.9742 520.921 14.4055 519.471Z"/><path fill="white" d="M25.403 608.306L26.0499 609.058C25.6084 610.585 24.0645 611.714 22.8361 612.848L22.2281 612.094C22.6666 610.705 24.2876 609.394 25.403 608.306Z"/><path fill="#234493" d="M57.8886 681.027C59.3833 679.952 58.6132 680.076 60.1559 680.15L60.9966 681.086L61.7961 680.979L62.1 682.322L60.7048 682.494C59.8756 682.135 59.0751 681.814 58.1935 681.613L57.8886 681.027Z"/><path fill="white" d="M109.23 716.283C111.248 717.454 112.923 718.634 113.488 721.02C111.12 720.053 110.06 718.644 109.23 716.283Z"/><path fill="white" d="M7.83602 576.827L7.88135 575.224C8.83288 573.535 9.03042 573.618 10.7456 572.773C10.702 575.34 9.87878 575.665 7.83602 576.827Z"/><path fill="white" d="M35.5559 653.363L36.2084 653.744C35.9466 655.369 35.1979 655.728 33.9463 657.218C33.401 657.006 33.774 657.18 32.9484 656.49C33.2927 655.09 34.3029 654.567 35.5559 653.363Z"/><path fill="white" d="M43.7602 669.393L45.2624 669.449C46.9908 670.282 47.1336 671.006 48.0116 672.729C45.7593 672.365 45.0213 671.111 43.7602 669.393Z"/><path fill="white" d="M3.28582 721.262L4.38776 722.038C4.187 723.514 4.0454 723.162 2.44914 724.415L1.25585 723.885L1.20535 723.032L3.28582 721.262Z"/><path fill="white" d="M113.488 721.02C115.327 721.718 116.345 722.776 117.084 724.601C114.734 724.064 114.014 723.47 113.488 721.02Z"/><path fill="white" d="M137.042 730.976C138.253 733.089 138.316 734.123 136.967 736.212C136.007 733.726 136.148 733.259 137.042 730.976Z"/><path fill="white" d="M60.0955 705.89C61.8819 707.354 61.3044 708.209 61.0332 710.259L60.1254 709.579C59.4013 707.673 59.6447 708.216 60.0955 705.89Z"/><path fill="white" d="M136.33 688.206L137.591 688.939C137.762 690.241 137.751 690.842 137.756 692.136L136.793 692.105C135.976 690.918 136.259 689.719 136.33 688.206Z"/><path fill="white" d="M107.822 757.388C110.026 758.25 110.48 759.184 111.649 761.18C109.234 760.784 108.775 759.396 107.822 757.388Z"/><path fill="white" d="M60.0527 700.835L60.7653 701.47C61.5323 702.901 61.1017 703.934 60.7931 705.583C59.2296 703.689 59.6351 703.175 60.0527 700.835Z"/><path fill="white" d="M13.8606 569.46C13.4788 571.449 13.9097 570.621 12.6026 572.077L11.1247 572.452C11.5089 570.523 12.2684 570.246 13.8606 569.46Z"/><path fill="#B8C8EE" d="M1016.78 519.036L1024 516.672L1024 519.661L1024 566.64L1024 572.137L1024 613.967L1024 636.71L1024 661.284L1024 698.91L1024 707.912L1024 844.107L931.066 844.094C922.173 844.615 910.098 844.302 900.987 844.308L845.901 844.29C803.946 844.267 760.809 845.057 719.025 843.992C717.408 842.688 712.011 840.558 709.806 839.611C709.413 840.672 709.17 841.135 708.975 842.221L707.754 840.741C707.193 841.407 707.332 841.402 707.049 842.321L707.332 842.107C706.383 844.025 706.389 843.587 704.219 844.006C685.895 844.719 660.993 844.23 642.496 843.926C641.236 843.035 636.751 841.386 634.979 840.504C627.752 836.908 616.305 832.702 609.971 828.296C607.065 827.372 604.263 826.107 601.851 824.231C605.051 823.726 606.921 823.534 610.157 823.384C612.497 822.302 619.622 823.756 623.976 822.223C628.246 819.363 635.403 816.205 640.198 813.98C644.295 812.112 648.368 810.191 652.414 808.217C661.546 804.152 670.793 800.348 680.142 796.811C683.676 795.472 701.148 789.43 702.675 787.521L702.434 787.043C705.982 765.614 713.903 753.341 728.362 737.884C726.049 736.014 717.557 726.716 714.742 723.986C701.72 711.362 688.945 697.533 675.612 685.299C703.756 662.028 730.256 616.74 740.207 581.928C753.951 580.808 773.207 580.555 787.202 580.152L858.005 577.972C874.931 577.335 891.862 576.845 908.797 576.502C915.393 576.337 927.668 575.612 933.553 576.168C935.102 574.446 938.246 569.623 939.709 567.498C941.23 560.415 948.108 545.738 953.743 540.697C960.097 535.012 965.17 538.385 970 543.751C971.711 542.74 974.19 540.703 975.794 539.411C988.146 529.457 1001.45 523.306 1016.78 519.036Z"/><path fill="#B8C8EE" d="M917.531 727.745C930.963 719.977 949.765 712.475 965.053 708.77C971.149 707.292 984.101 706.37 990.5 705.843C997.922 705.94 1006.11 705.889 1013.44 706.529C1017.12 706.892 1020.37 707.159 1024 707.912L1024 844.107L931.066 844.094C922.173 844.615 910.098 844.302 900.987 844.308L845.901 844.29C803.946 844.267 760.809 845.057 719.025 843.992C717.408 842.688 712.011 840.558 709.806 839.611C709.413 840.672 709.17 841.135 708.975 842.221L707.754 840.741C707.193 841.407 707.332 841.402 707.049 842.321L707.332 842.107C706.383 844.025 706.389 843.587 704.219 844.006C685.895 844.719 660.993 844.23 642.496 843.926C641.236 843.035 636.751 841.386 634.979 840.504C627.752 836.908 616.305 832.702 609.971 828.296C607.065 827.372 604.263 826.107 601.851 824.231C605.051 823.726 606.921 823.534 610.157 823.384C612.497 822.302 619.622 823.756 623.976 822.223C628.246 819.363 635.403 816.205 640.198 813.98C644.295 812.112 648.368 810.191 652.414 808.217C661.546 804.152 670.793 800.348 680.142 796.811C683.676 795.472 701.148 789.43 702.675 787.521C704.185 788.011 709.881 785.865 711.628 785.255C747.005 772.921 784.385 767.416 821.771 766.859C826.117 766.795 832.579 766.275 836.74 767.099C839.068 776.152 843.391 784.638 850.129 791.223C851.371 791.59 852.653 792.105 853.961 791.883C854.97 791.712 866.32 773.52 868.024 771.289C866.716 770.567 865.784 770.241 865.018 768.976L865.479 768.409C867.341 768.41 866.696 768.342 868.488 770.088L869.027 770.03C871.028 767.88 873.351 765.067 875.303 762.803C878.037 759.632 884.792 753.908 886.762 750.966C886.043 750.009 885.802 749.594 885.215 748.544C885.669 747.052 885.251 747.706 886.789 746.722C887.897 747.367 887.78 748.247 888.28 749.916C890.529 747.958 888.536 747.764 890.302 746.439C892.656 744.78 896.064 744.224 897.108 741.301C898.331 737.875 899.055 739.429 901.15 738.912C902.039 737.252 902.286 734.673 904.507 734.37L904.668 735.584L905.206 735.76L906.963 734.288C910.423 732.079 914.031 729.908 917.531 727.745Z"/><path fill="#86A1E2" d="M702.675 787.521C704.185 788.011 709.881 785.865 711.628 785.255C747.005 772.921 784.385 767.416 821.771 766.859C826.117 766.795 832.579 766.275 836.74 767.099C839.068 776.152 843.391 784.638 850.129 791.223C842.908 791.733 835.814 792.132 828.667 793.408C797.71 798.933 765.529 817.552 747.94 844.019L871.615 843.909L909.725 843.895C915.914 843.89 925.12 843.601 931.066 844.094C922.173 844.615 910.098 844.302 900.987 844.308L845.901 844.29C803.946 844.267 760.809 845.057 719.025 843.992C717.408 842.688 712.011 840.558 709.806 839.611C709.413 840.672 709.17 841.135 708.975 842.221L707.754 840.741C707.193 841.407 707.332 841.402 707.049 842.321L707.332 842.107C706.383 844.025 706.389 843.587 704.219 844.006C685.895 844.719 660.993 844.23 642.496 843.926C641.236 843.035 636.751 841.386 634.979 840.504C627.752 836.908 616.305 832.702 609.971 828.296C607.065 827.372 604.263 826.107 601.851 824.231C605.051 823.726 606.921 823.534 610.157 823.384C612.497 822.302 619.622 823.756 623.976 822.223C628.246 819.363 635.403 816.205 640.198 813.98C644.295 812.112 648.368 810.191 652.414 808.217C661.546 804.152 670.793 800.348 680.142 796.811C683.676 795.472 701.148 789.43 702.675 787.521Z"/><path fill="#446ED2" d="M623.976 822.223C626.103 823.005 628.116 822.986 630.355 823.244C657.306 826.359 683.95 831.413 709.806 839.611C709.413 840.672 709.17 841.135 708.975 842.221L707.754 840.741C707.193 841.407 707.332 841.402 707.049 842.321L707.332 842.107C706.383 844.025 706.389 843.587 704.219 844.006C685.895 844.719 660.993 844.23 642.496 843.926C641.236 843.035 636.751 841.386 634.979 840.504C627.752 836.908 616.305 832.702 609.971 828.296C607.065 827.372 604.263 826.107 601.851 824.231C605.051 823.726 606.921 823.534 610.157 823.384C612.497 822.302 619.622 823.756 623.976 822.223Z"/><path fill="#446ED2" d="M601.851 824.231C605.051 823.726 606.921 823.534 610.157 823.384C611.153 823.524 611.112 823.308 611.521 823.804L612.915 823.891C611.119 823.996 609.102 823.868 607.73 824.884C607.656 826.329 608.759 827.045 609.879 827.985L609.971 828.296C607.065 827.372 604.263 826.107 601.851 824.231Z"/><path fill="#234493" d="M1016.78 519.036L1024 516.672L1024 519.661L1024 566.64L1024 572.137L1024 613.967L1024 636.71L1024 661.284L1024 698.91L1024 707.912C1020.37 707.159 1017.12 706.892 1013.44 706.529C1006.11 705.889 997.922 705.94 990.5 705.843C984.101 706.37 971.149 707.292 965.053 708.77C949.765 712.475 930.963 719.977 917.531 727.745C914.031 729.908 910.423 732.079 906.963 734.288L905.206 735.76L904.668 735.584L904.507 734.37C902.286 734.673 902.039 737.252 901.15 738.912C899.055 739.429 898.331 737.875 897.108 741.301C896.064 744.224 892.656 744.78 890.302 746.439C888.536 747.764 890.529 747.958 888.28 749.916C887.78 748.247 887.897 747.367 886.789 746.722C885.251 747.706 885.669 747.052 885.215 748.544C885.802 749.594 886.043 750.009 886.762 750.966C884.792 753.908 878.037 759.632 875.303 762.803C873.351 765.067 871.028 767.88 869.027 770.03L868.488 770.088C866.696 768.342 867.341 768.41 865.479 768.409L865.018 768.976C865.784 770.241 866.716 770.567 868.024 771.289C866.32 773.52 854.97 791.712 853.961 791.883C852.653 792.105 851.371 791.59 850.129 791.223C843.391 784.638 839.068 776.152 836.74 767.099C835.889 761.271 835.216 749.559 837.422 744.157L837.801 742.315C836.546 739.267 848.522 704.7 850.47 703.31C851.12 704.782 851.11 704.949 852.195 706.198L853.64 705.932C853.513 705.713 851.579 702.376 851.579 702.38C852.587 694.09 856.981 684.879 859.163 676.757C860.182 672.965 860.478 671.114 860.952 667.98C862.241 664.204 862.558 659.995 863.626 655.872C866.503 644.77 877.604 603.597 894.654 621.933C896.1 623.488 900.642 633.076 900.189 635.712L900.272 636.825L901.902 636.963C903.589 635.274 905.665 630.284 907.072 628.067C916.244 613.62 921.711 595.792 930.251 581.31C930.526 580.699 933.035 576.966 933.553 576.168C935.102 574.446 938.246 569.623 939.709 567.498C941.23 560.415 948.108 545.738 953.743 540.697C960.097 535.012 965.17 538.385 970 543.751C971.711 542.74 974.19 540.703 975.794 539.411C988.146 529.457 1001.45 523.306 1016.78 519.036Z"/><path fill="#446ED2" d="M1016.78 519.036L1024 516.672L1024 519.661L1024 566.64L1024 572.137L1024 613.967C1018.12 623.945 1011.47 641.419 1008.62 652.466C1005.47 635.989 1002.85 619.194 997.376 603.332C993.09 590.904 987.093 579.075 981.444 567.219C977.614 559.181 974.441 551.474 970 543.751C971.711 542.74 974.19 540.703 975.794 539.411C988.146 529.457 1001.45 523.306 1016.78 519.036Z"/><path fill="#446ED2" d="M1016.78 519.036L1024 516.672L1024 519.661L1022.27 520.121C1019.14 520.972 1018.81 521.639 1016.78 519.036Z"/><path fill="#446ED2" d="M1024 572.137C1021.62 571.671 1021.07 571.805 1019.87 570.146C1020.72 567.807 1021.51 567.814 1024 566.64L1024 572.137Z"/><path fill="#446ED2" d="M1004.62 532.9C1005.52 533.349 1005.1 533.009 1005.74 534.053C1004.65 535.138 1003.93 535.122 1002.41 535.433L1000.85 534.665L1000.7 533.826C1002.13 532.846 1002.88 532.982 1004.62 532.9Z"/><path fill="#446ED2" d="M930.251 581.31C930.703 583.49 930.319 583.598 931.643 584.656L934.719 584.882C933.675 587.911 930.523 597.473 931.294 600.166L931.822 600.441C933.051 601.09 933.85 601.313 934.509 602.49L934.23 603.428C932.84 602.99 932.152 602.316 931.006 601.428C930.659 601.782 922.632 636.301 920.642 640.9C918.735 650.275 917.033 659.69 915.537 669.139C912.58 670.039 913.558 670.599 911.421 672.363L910.426 666.915C909.473 661.115 908.059 655.947 906.588 650.269C905.113 646.259 903 640.98 901.902 636.963C903.589 635.274 905.665 630.284 907.072 628.067C916.244 613.62 921.711 595.792 930.251 581.31Z"/><path fill="#446ED2" d="M908.497 650.516C909.175 649.655 909.829 649.289 910.656 648.562C909.585 646.767 907.554 645.83 907.052 644.606C909.641 644.217 909.967 643.587 911.506 641.506L911.356 640.786C909.899 640.33 909.187 640.272 908.207 639.108C908.075 637.188 907.782 637.943 908.67 636.632C910.487 636.624 911.111 636.74 912.645 637.72C913.235 637.058 913.837 636.408 914.452 635.769L915.248 635.849L915.695 636.541L914.734 637.69C915.903 637.962 915.638 637.652 916.116 638.332C914.557 639.47 913.612 639.74 912.952 641.244C916.821 643.961 918.374 641.193 920.642 640.9C918.735 650.275 917.033 659.69 915.537 669.139C912.58 670.039 913.558 670.599 911.421 672.363L910.426 666.915C912.782 665.809 912.45 661.745 912.044 659.511C910.726 652.261 911.931 655.47 913.657 652.483C911.41 651.26 910.987 650.995 908.497 650.516Z"/><path fill="#446ED2" d="M917.45 627.519L917.577 627.511L917.976 628.049L917.603 627.673L917.775 628.661C916.822 629.925 916.763 629.839 915.36 630.642L913.553 629.992L912.164 628.711C912.79 628.009 915.7 628.208 917.45 627.519Z"/><path fill="#234493" d="M1016.68 680.097C1017.7 675.25 1021.42 665.398 1024 661.284L1024 698.91L1024 707.912C1020.37 707.159 1017.12 706.892 1013.44 706.529C1006.11 705.889 997.922 705.94 990.5 705.843L990.404 705.309L990.299 704.694C991.217 702.967 993.11 701.216 994.936 700.486C995.662 698.821 996.027 698.66 997.603 697.924C999.966 697.054 1003.25 693.631 1004.1 691.235L1004.48 690.915C1005.21 688.518 1009.86 684.726 1011.91 683.07L1012.55 682.754L1012.46 679.895C1014.41 680.95 1014.45 680.977 1016.68 680.097Z"/><path fill="#234493" d="M1016.68 680.097C1017.7 675.25 1021.42 665.398 1024 661.284L1024 698.91C1022.91 698.431 1020.68 697.12 1019.54 696.498L1019.18 695.921C1015.54 690.115 1015.2 686.564 1016.68 680.097Z"/><path fill="#446ED2" d="M1012.46 679.895C1014.41 680.95 1014.45 680.977 1016.68 680.097C1015.2 686.564 1015.54 690.115 1019.18 695.921L1019.54 696.498C1020.68 697.12 1022.91 698.431 1024 698.91L1024 707.912C1020.37 707.159 1017.12 706.892 1013.44 706.529C1013.48 699.685 1013.97 689.148 1012.55 682.754L1012.46 679.895Z"/><path fill="white" d="M1011.91 683.07C1011.61 686.091 1008.18 688.526 1005.86 690.719L1004.48 690.915C1005.21 688.518 1009.86 684.726 1011.91 683.07Z"/><path fill="white" d="M990.404 705.309L990.299 704.694C991.217 702.967 993.11 701.216 994.936 700.486L995.05 701.497C993.701 702.76 992.018 704.552 990.404 705.309Z"/><path fill="#446ED2" d="M1024 636.71L1024 661.284C1021.42 665.398 1017.7 675.25 1016.68 680.097C1014.45 680.977 1014.41 680.95 1012.46 679.895C1012.4 675.749 1011.1 668.431 1011.24 664.739C1011.52 657.375 1020.13 642.684 1024 636.71Z"/><path fill="#446ED2" d="M939.709 567.498C938.645 573.23 935.698 579.613 934.719 584.882L931.643 584.656C930.319 583.598 930.703 583.49 930.251 581.31C930.526 580.699 933.035 576.966 933.553 576.168C935.102 574.446 938.246 569.623 939.709 567.498Z"/><path fill="#234493" d="M915.908 726.243C916.278 726.597 917.155 727.484 917.531 727.745C914.031 729.908 910.423 732.079 906.963 734.288L906.294 732.98C906.692 731.631 907.904 731.082 909.138 730.225C910.873 729.834 914.251 727.343 915.908 726.243Z"/><path fill="#446ED2" d="M911.421 672.363C913.558 670.599 912.58 670.039 915.537 669.139C915.02 673.272 914.959 676.152 914.894 680.345C914.339 679.04 912.261 673.831 911.642 673.05L911.421 672.363Z"/><path fill="white" d="M997.603 697.924C998.434 695.74 1001.8 691.768 1004.1 691.235C1003.25 693.631 999.966 697.054 997.603 697.924Z"/><path fill="white" d="M837.801 742.315C839.564 744.082 841.42 745.586 842.316 747.848L841.843 748.143C839.816 746.957 838.991 745.857 837.422 744.157L837.801 742.315Z"/><path fill="white" d="M909.138 730.225C910.235 728.539 912.654 725.741 914.727 725.277L915.908 726.243C914.251 727.343 910.873 729.834 909.138 730.225Z"/><path fill="white" d="M900.272 636.825C899.273 638.77 899.627 638.862 898.057 639.749L897.87 639.003C898.63 637.211 898.789 637.133 900.189 635.712L900.272 636.825Z"/><path fill="white" d="M886.705 702.65C883.88 693.486 864.255 674.098 863.464 667.395L863.951 667.381C865.056 670.225 869.344 675.18 871.421 677.978C876.154 684.358 880.959 690.882 885.394 697.483C886.225 698.719 886.384 698.391 888.273 699.027C887.884 700.67 887.871 701.428 886.705 702.65Z"/><path fill="white" d="M972.377 617.211C973.089 614.874 982.094 604.693 984.455 604.002C983.968 606.184 974.673 616.301 972.377 617.211Z"/><path fill="white" d="M951.931 576.832C956.475 577.307 956.251 582.511 959.536 582.731C959.871 581.986 960.174 581.325 960.534 580.589L961.228 580.793L961.893 583.735C961.539 585.052 961.613 585.381 960.717 586.349C958.504 584.258 953.606 579.245 951.931 576.832Z"/><path fill="white" d="M966.751 675.76L967.598 676.189C967.109 679.025 962.522 680.972 961.685 684.901L959.89 683.977C960.306 682.522 960.924 680.574 960.95 679.164C961.366 680.347 961.032 679.866 961.895 680.644C963.84 680.177 965.557 677.424 966.751 675.76Z"/><path fill="white" d="M881.491 648.693L882.369 648.312C885.853 651.629 887.802 653.105 886.811 658.052C886.247 657.473 886.061 657.121 885.602 656.452C885.68 655.215 885.664 654.645 885.593 653.403C884.017 652.234 882.004 650.683 881.491 648.693Z"/><path fill="white" d="M915.778 694.395C917.954 694.864 923.422 699.901 924.205 702.109L922.876 701.848C920.457 699.922 917.32 697.084 915.778 694.395Z"/><path fill="white" d="M945.768 568.384C947.975 569.41 949.724 572.842 951.859 574.825L951.879 575.769L951.37 576.102C949.417 574.507 946.095 570.974 945.768 568.384Z"/><path fill="white" d="M902.106 683.489C903.015 681.73 906.448 676.714 908.339 676.021C908.291 678.442 904.575 682.964 902.106 683.489Z"/><path fill="white" d="M984.455 604.002C984.762 602.123 987.308 598.806 988.923 597.994L989.384 598.182L989.561 599.064C988.112 600.787 986.417 603.19 984.455 604.002Z"/><path fill="white" d="M893.729 693.719C895.448 691.108 896.396 689.831 898.401 687.434L899.362 687.508L899.508 688.24C898.132 689.995 896.498 692.344 894.775 693.648L893.729 693.719Z"/><path fill="white" d="M951.647 674.098L952.321 673.851C953.986 674.852 955.206 675.983 956.372 677.516L956.154 679.053C954.641 678.132 952.709 676.048 951.455 674.733L951.647 674.098Z"/><path fill="white" d="M933.959 657.94C936.814 658.818 939.611 661.169 940.228 664.161C938.231 662.504 934.658 660.101 933.959 657.94Z"/><path fill="white" d="M933.91 603.321C936.897 603.963 939.593 606.44 940.063 609.512C938.332 608.511 935.173 604.896 933.91 603.321Z"/><path fill="white" d="M972.447 669.291L973.232 669.854C973.225 671.457 970.741 673.84 969.451 675.455L968.671 675.174C968.781 673.538 971.214 670.965 972.447 669.291Z"/><path fill="white" d="M941.431 610.145L942.21 610.018C943.623 611.66 945.803 613.353 946.025 614.878L945.453 615.06C943.915 613.829 941.611 612.082 941.431 610.145Z"/><path fill="white" d="M920.611 645.715C923.164 646.086 924.672 648.366 925.645 650.539C922.739 649.979 921.829 648.125 920.611 645.715Z"/><path fill="white" d="M890.747 646.698L891.913 647.554C891.487 649.43 890.342 650.168 888.894 651.758L888.29 651.799L888.014 651.066C888.963 649.633 889.874 648.177 890.747 646.698Z"/><path fill="white" d="M846.802 751.942C848.688 752.988 849.366 753.783 850.956 755.289L850.882 756.047L850.142 756.108C848.736 755.193 847.993 754.467 846.766 753.357L846.802 751.942Z"/><path fill="white" d="M941.245 563.852C943.809 564.66 944.569 565.94 945.798 568.224C944.59 568.16 944.87 568.16 943.685 567.772C942.126 566.248 942.107 565.93 941.245 563.852Z"/><path fill="white" d="M875.231 733.459C876.752 735.221 878.587 736.589 878.281 738.995C876.399 737.49 875.697 736.674 874.642 734.577L875.231 733.459Z"/><path fill="white" d="M999.552 638.292L1000.35 638.83C1000.17 640.327 998.584 642.001 997.577 643.291L996.693 642.677C996.938 641.051 998.433 639.626 999.552 638.292Z"/><path fill="white" d="M951.436 620.684L952.415 620.298C953.817 621.654 955.137 622.602 955.579 624.458C953.846 624.015 952.091 622.33 951.436 620.684Z"/><path fill="white" d="M929.021 705.9C931.7 706.563 932.833 707.291 932.595 710.086C930.959 709.164 929.287 707.86 929.021 705.9Z"/><path fill="white" d="M1002.97 634.217L1003.92 634.835C1003.64 636.587 1002.88 636.829 1001.41 638.432C1000.93 638.301 1001.27 638.424 1000.55 637.769C1000.83 636.16 1001.81 635.437 1002.97 634.217Z"/><path fill="white" d="M925.127 650.327C927.725 650.821 928.693 652.137 930.098 654.227C929.681 654.24 928.952 654.12 928.509 654.066C926.591 652.627 926.503 652.364 925.127 650.327Z"/><path fill="white" d="M995.401 643.264C995.636 643.475 995.937 643.968 996.135 644.254C995.847 645.782 994.538 646.706 993.356 647.862L992.815 647.101C993.098 645.603 994.354 644.482 995.401 643.264Z"/><path fill="white" d="M984.021 656.76L984.88 657.295C984.698 658.854 983.56 659.734 982.445 660.956C981.864 660.805 982.212 660.951 981.541 660.27C981.807 658.789 982.941 657.91 984.021 656.76Z"/><path fill="white" d="M956.539 678.943C957.405 679.03 957.821 679.17 958.666 679.378C960.14 680.963 959.608 680.055 960.148 682.301C957.593 681.719 957.388 681.251 956.539 678.943Z"/><path fill="white" d="M976.872 664.941L977.284 665.619C976.901 667.458 976.348 667.543 974.904 669.199L974.019 668.418C974.311 666.857 975.607 666.064 976.872 664.941Z"/><path fill="white" d="M851.881 756.867C854.493 758.058 855.263 758.464 856.152 761.314L855.744 761.068C853.493 759.69 852.449 759.199 851.881 756.867Z"/><path fill="white" d="M854.308 706.976C855.911 708.632 856.661 709.089 856.96 711.368L856.097 711.173C854.638 709.941 853.449 708.913 854.308 706.976Z"/><path fill="white" d="M860.995 716.535C863.495 717.368 863.651 717.931 864.134 720.642C862.054 719.626 861.47 718.786 860.995 716.535Z"/><path fill="white" d="M991.684 647.852L992.22 648.43C992.15 650.053 991.045 650.956 989.938 652.267L989.13 651.569C989.506 649.705 990.178 649.531 991.684 647.852Z"/><path fill="white" d="M864.446 720.882C866.483 721.735 867.171 722.136 867.465 724.509L866.897 724.669C865.14 723.898 864.789 722.65 864.446 720.882Z"/><path fill="white" d="M872.175 635.85C874.276 637.068 875.071 639.082 876.238 641.216L874.876 640.665C873.235 638.784 873.144 638.229 872.175 635.85Z"/><path fill="white" d="M860.703 764.885C863.09 765.088 863.642 766.296 864.856 768.115C864.215 768.054 863.352 767.865 862.697 767.745C861.207 766.722 861.31 766.56 860.703 764.885Z"/><path fill="white" d="M857.65 711.693C859.205 712.825 859.609 712.953 860.312 714.769L860.181 716.233C858.141 714.573 857.502 714.381 857.65 711.693Z"/><path fill="white" d="M987.665 652.303C988.067 652.69 988.14 652.972 988.421 653.495C987.918 655.09 987.024 655.498 985.66 656.51L985.361 656.199C985.483 654.743 986.71 653.54 987.665 652.303Z"/><path fill="white" d="M868.065 725.044C870.4 726.326 870.79 726.501 871.187 729.286C869.014 728.077 868.358 727.684 868.065 725.044Z"/><path fill="white" d="M960.386 644.181L961.486 644.759C962.282 646.277 961.924 646.298 961.7 648.384L960.531 647.684C959.799 645.973 960.075 646.339 960.386 644.181Z"/><path fill="white" d="M969.7 571.705L970.589 572.209C970.63 573.868 970.187 573.833 968.961 575.555L968.047 575.357C968.064 573.711 968.68 573.361 969.7 571.705Z"/><path fill="white" d="M946.396 615.745C949.193 616.346 949.381 616.65 950.366 619.319C948.015 618.564 947.815 617.827 946.396 615.745Z"/><path fill="white" d="M972.882 567.665L973.928 568.313C973.801 569.951 973.317 569.988 972.074 571.552L971.502 571.175C971.241 569.647 971.839 569.42 972.882 567.665Z"/><path fill="white" d="M992.344 593.399L992.898 594.063C992.85 595.801 992.613 595.509 991.289 597.231L990.626 596.577C990.69 594.79 990.89 595.151 992.344 593.399Z"/><path fill="white" d="M943.566 666.445C945.822 667.08 946.311 667.604 947.138 669.782C944.867 668.946 944.412 668.752 943.566 666.445Z"/><path fill="#446ED2" d="M728.362 737.884C747.856 720.545 773.292 708.931 798.29 702.242C827.2 694.506 838.553 686.548 860.952 667.98C860.478 671.114 860.182 672.965 859.163 676.757C856.981 684.879 852.587 694.09 851.579 702.38C851.579 702.376 853.513 705.713 853.64 705.932L852.195 706.198C851.11 704.949 851.12 704.782 850.47 703.31C848.522 704.7 836.546 739.267 837.801 742.315L837.422 744.157C835.216 749.559 835.889 761.271 836.74 767.099C832.579 766.275 826.117 766.795 821.771 766.859C784.385 767.416 747.005 772.921 711.628 785.255C709.881 785.865 704.185 788.011 702.675 787.521L702.434 787.043C705.982 765.614 713.903 753.341 728.362 737.884Z"/><path fill="#446ED2" d="M829.58 738.071L829.787 738.047L830.002 738.367C828.618 739.346 826.329 739.712 824.635 740.449C824.072 739.421 824.122 739.922 824.274 738.983C825.553 738.047 827.867 738.165 829.58 738.071Z"/><path fill="#446ED2" d="M820.971 713.216L821.708 713.328L822.124 714.066C821.387 715.455 820.908 715.506 819.502 716.268C818.339 715.584 818.676 715.868 817.824 714.905C818.496 713.789 819.403 713.806 820.971 713.216Z"/><path fill="#446ED2" d="M726.501 760.67C727.529 762.282 728.136 763.732 728.132 765.663C727.161 764.898 726.424 764.335 725.522 763.485C725.929 762.563 726.232 761.64 726.501 760.67Z"/><path fill="#446ED2" d="M771.088 745.238C773.933 744.986 774.225 744.476 775.35 747.028C773.983 746.832 772.619 746.612 771.26 746.369L771.088 745.238Z"/><path fill="#86A1E2" d="M675.612 685.299C688.945 697.533 701.72 711.362 714.742 723.986C717.557 726.716 726.049 736.014 728.362 737.884C713.903 753.341 705.982 765.614 702.434 787.043L702.675 787.521C701.148 789.43 683.676 795.472 680.142 796.811C670.793 800.348 661.546 804.152 652.414 808.217C648.368 810.191 644.295 812.112 640.198 813.98C635.403 816.205 628.246 819.363 623.976 822.223C619.622 823.756 612.497 822.302 610.157 823.384C606.921 823.534 605.051 823.726 601.851 824.231C604.263 826.107 607.065 827.372 609.971 828.296C616.305 832.702 627.752 836.908 634.979 840.504C636.751 841.386 641.236 843.035 642.496 843.926C625.262 844.542 605.028 844.026 587.575 844.067L469.497 844.111L376.818 844.481C362.769 844.48 345.051 844.795 331.285 844.1C339.147 843.383 356.313 844.001 364.735 844.06C347.628 826.508 335.261 816.703 313.853 804.22C312.149 803.462 311.962 803.291 310.493 802.253C300.799 779.601 293.401 771.168 274.252 755.599L346.721 685.466C358.337 694.182 365.488 702.209 379.029 710.998C385.914 714.747 398.553 722.748 404.978 725.486C406.987 726.387 412.988 729.237 414.768 729.775C433.734 737.836 451.111 742.873 471.436 746.984C498.084 751.737 520.724 751.019 547.285 747.621C567.619 743.939 581.832 739.839 601.285 732.73C604.978 731.375 608.05 730.113 611.656 728.532C622.624 723.259 632.507 717.537 642.906 711.276C656.631 701.141 662.599 697.201 675.612 685.299Z"/><path fill="#B8C8EE" d="M675.612 685.299C688.945 697.533 701.72 711.362 714.742 723.986C717.557 726.716 726.049 736.014 728.362 737.884C713.903 753.341 705.982 765.614 702.434 787.043L702.675 787.521C701.148 789.43 683.676 795.472 680.142 796.811C670.793 800.348 661.546 804.152 652.414 808.217C650.907 804.177 643.108 788.959 640.811 784.366C631.741 766.235 622.097 745.79 611.656 728.532C622.624 723.259 632.507 717.537 642.906 711.276C656.631 701.141 662.599 697.201 675.612 685.299Z"/><path fill="#A7BBEA" d="M675.612 685.299C688.945 697.533 701.72 711.362 714.742 723.986C717.557 726.716 726.049 736.014 728.362 737.884C713.903 753.341 705.982 765.614 702.434 787.043C697.693 782.56 683.626 763.836 678.836 757.68C667.326 742.889 653.179 726.651 642.906 711.276C656.631 701.141 662.599 697.201 675.612 685.299Z"/><path fill="#B8C8EE" d="M601.285 732.73C604.978 731.375 608.05 730.113 611.656 728.532C622.097 745.79 631.741 766.235 640.811 784.366C643.108 788.959 650.907 804.177 652.414 808.217C648.368 810.191 644.295 812.112 640.198 813.98C635.403 816.205 628.246 819.363 623.976 822.223C619.622 823.756 612.497 822.302 610.157 823.384C606.921 823.534 605.051 823.726 601.851 824.231C598.849 823.919 580.033 813.778 575.757 811.754C569.356 808.765 562.895 805.909 556.377 803.187L547.285 747.621C567.619 743.939 581.832 739.839 601.285 732.73Z"/><path fill="#A7BBEA" d="M601.285 732.73C604.978 731.375 608.05 730.113 611.656 728.532C622.097 745.79 631.741 766.235 640.811 784.366C643.108 788.959 650.907 804.177 652.414 808.217C648.368 810.191 644.295 812.112 640.198 813.98C636.21 807.009 632.266 797.527 628.898 790.096C623.435 778.044 617.788 766.147 611.938 754.277C608.55 747.403 605.141 739.228 601.285 732.73Z"/><path fill="#A7BBEA" d="M346.721 685.466C358.337 694.182 365.488 702.209 379.029 710.998C371.166 721.982 317.984 796.054 317.039 802.291C315.768 802.991 315.07 803.384 313.853 804.22C312.149 803.462 311.962 803.291 310.493 802.253C300.799 779.601 293.401 771.168 274.252 755.599L346.721 685.466Z"/><path fill="#B8C8EE" d="M379.029 710.998C385.914 714.747 398.553 722.748 404.978 725.486C406.987 726.387 412.988 729.237 414.768 729.775C411.838 740.736 402.215 758.631 398.002 769.905C396.31 774.434 393.7 779.053 392.525 784.017L373.762 787.007C351.027 791.096 338.535 795.086 317.039 802.291C317.984 796.054 371.166 721.982 379.029 710.998Z"/><path fill="#A7BBEA" d="M404.978 725.486C406.987 726.387 412.988 729.237 414.768 729.775C411.838 740.736 402.215 758.631 398.002 769.905C396.31 774.434 393.7 779.053 392.525 784.017L373.762 787.007C384.654 766.751 395.062 746.238 404.978 725.486Z"/><path fill="#A7BBEA" d="M471.436 746.984C498.084 751.737 520.724 751.019 547.285 747.621L556.377 803.187C545.934 799.341 533.554 794.436 523.058 791.173C504.93 785.668 486.266 782.114 467.383 780.571C468.619 769.547 469.797 757.905 471.436 746.984Z"/><path fill="#B8C8EE" d="M414.768 729.775C433.734 737.836 451.111 742.873 471.436 746.984C469.797 757.905 468.619 769.547 467.383 780.571C439.661 778.907 419.894 779.937 392.525 784.017C393.7 779.053 396.31 774.434 398.002 769.905C402.215 758.631 411.838 740.736 414.768 729.775Z"/><path fill="#86A1E2" d="M505.498 303.944C505.457 301.365 505.586 299.755 507.564 297.827C508.961 296.486 510.868 295.81 512.798 295.973C517.085 296.338 519.186 300.016 518.72 304.029C576.176 305.845 628.398 331.826 667.565 373.315C668.304 374.098 669.033 374.891 669.751 375.693C671.328 373.976 673.736 373.293 675.979 373.926C678.222 374.559 679.918 376.4 680.364 378.688C680.81 380.976 679.931 383.32 678.09 384.749C681.868 390.625 685.779 396.396 689.522 402.321C704.116 425.426 713.599 452.322 718.406 479.166C719.967 487.888 720.347 496.746 721.495 505.487C731.09 505.908 730.965 517.793 721.461 518.656L721.253 519.623C720.06 525.396 719.694 536.325 718.575 543.076C714.447 569.505 705.298 594.899 691.624 617.889C688.96 622.433 682.277 634.128 679.154 637.248L678.075 637.603C688.096 641.645 679.171 656.314 670.83 647.068C667.802 650.802 662.043 656.374 658.538 659.789C623.204 694.218 576.299 715.391 527.159 719.666C525.024 719.852 521.519 720.439 519.621 719.92C520.113 731.728 504.988 729.898 507.311 720.079C444.135 716.705 395.588 693.822 352.862 647.059C345.248 655.429 335.641 646.004 344.751 638.089C325.465 608.878 312.284 581.268 306.791 546.542C305.178 536.343 303.948 527.82 303.983 517.389C302.443 518.066 300.861 518.463 299.182 518.056C297.617 517.679 296.287 516.653 295.527 515.234C292.663 509.797 296.9 503.524 303.516 505.501C304.48 500.332 304.691 490.397 305.444 484.322C307.841 465.843 312.78 447.784 320.121 430.658C323.252 423.409 341.028 388.106 346.258 386.039C338.81 378.524 347.885 369.017 354.316 376.447C354.849 375.076 355.33 374.557 356.337 373.407C383.898 341.953 420.336 320.647 460.826 310.633C476.239 306.821 489.962 305.214 505.498 303.944Z"/><path fill="#09103C" d="M670.014 645.142L670.83 647.068C667.802 650.802 662.043 656.374 658.538 659.789C623.204 694.218 576.299 715.391 527.159 719.666C525.024 719.852 521.519 720.439 519.621 719.92C520.893 718.301 539.998 716.622 543.652 716.024C584.574 709.303 622.674 690.872 653.345 662.958C658.178 658.477 666.24 650.409 670.014 645.142Z"/><path fill="#09103C" d="M353.231 645.695C358.814 651.481 365.438 658.558 371.346 663.87C399.464 689.288 433.852 706.748 470.966 714.448C476.773 715.578 482.621 716.484 488.498 717.164C492.274 717.602 505.114 718.362 507.672 719.486L507.311 720.079C444.135 716.705 395.588 693.822 352.862 647.059L353.231 645.695Z"/><path fill="#09103C" d="M505.498 303.944L506.305 305.398L505.817 305.482C497.132 306.887 487.759 306.761 477.812 308.524C425.978 317.711 389.997 338.577 354.716 377.02L354.316 376.447C354.849 375.076 355.33 374.557 356.337 373.407C383.898 341.953 420.336 320.647 460.826 310.633C476.239 306.821 489.962 305.214 505.498 303.944Z"/><path fill="#09103C" d="M518.72 304.029C576.176 305.845 628.398 331.826 667.565 373.315C668.304 374.098 669.033 374.891 669.751 375.693C669.576 375.884 669.412 376.087 669.262 376.299C633.412 334.684 579.074 309.557 525.292 305.91C523.564 305.793 519.683 305.614 518.443 304.7L518.72 304.029Z"/><path fill="#09103C" d="M720.022 518.071L721.461 518.656L721.253 519.623C720.06 525.396 719.694 536.325 718.575 543.076C714.447 569.505 705.298 594.899 691.624 617.889C688.96 622.433 682.277 634.128 679.154 637.248L678.075 637.603L677.493 637.376C680.615 631.54 687.852 622.373 691.807 615.276C710.016 582.595 716.753 554.82 720.022 518.071Z"/><path fill="#09103C" d="M304.764 516.249C307.465 545.43 309.886 566.666 322.088 594.295C325.061 601.067 328.336 607.701 331.905 614.178C333.735 617.498 345.777 636.923 345.626 637.875L344.751 638.089C325.465 608.878 312.284 581.268 306.791 546.542C305.178 536.343 303.948 527.82 303.983 517.389L304.764 516.249Z"/><path fill="#09103C" d="M678.09 384.749C681.868 390.625 685.779 396.396 689.522 402.321C704.116 425.426 713.599 452.322 718.406 479.166C719.967 487.888 720.347 496.746 721.495 505.487L720.215 505.997C718.776 494.957 718.192 484.877 716.101 473.764C709.958 441.127 696.308 412.277 677.328 385.255C677.594 385.105 677.849 384.936 678.09 384.749Z"/><path fill="#09103C" d="M303.516 505.501C304.48 500.332 304.691 490.397 305.444 484.322C307.841 465.843 312.78 447.784 320.121 430.658C323.252 423.409 341.028 388.106 346.258 386.039C345.661 388.689 335.217 403.497 332.828 407.811C314.743 440.468 306.511 469.757 304.839 506.918L303.516 505.501Z"/><path fill="white" d="M505.498 303.944C505.457 301.365 505.586 299.755 507.564 297.827C508.961 296.486 510.868 295.81 512.798 295.973C517.085 296.338 519.186 300.016 518.72 304.029L518.443 304.7C514.485 309.271 510.885 309.069 506.305 305.398L505.498 303.944Z"/><path fill="white" d="M677.493 637.376L678.075 637.603C688.096 641.645 679.171 656.314 670.83 647.068L670.014 645.142C669.905 639.911 672.565 637.902 677.493 637.376Z"/><path fill="white" d="M303.983 517.389C302.443 518.066 300.861 518.463 299.182 518.056C297.617 517.679 296.287 516.653 295.527 515.234C292.663 509.797 296.9 503.524 303.516 505.501L304.839 506.918C307.142 510.78 306.624 512.283 304.764 516.249L303.983 517.389Z"/><path fill="white" d="M345.626 637.875C350.086 637.698 353.485 641.327 353.231 645.695L352.862 647.059C345.248 655.429 335.641 646.004 344.751 638.089L345.626 637.875Z"/><path fill="white" d="M669.751 375.693C671.328 373.976 673.736 373.293 675.979 373.926C678.222 374.559 679.918 376.4 680.364 378.688C680.81 380.976 679.931 383.32 678.09 384.749C677.849 384.936 677.594 385.105 677.328 385.255C674.81 386.671 671.645 386.152 669.712 384.004C667.778 381.857 667.591 378.656 669.262 376.299C669.412 376.087 669.576 375.884 669.751 375.693Z"/><path fill="white" d="M721.495 505.487C731.09 505.908 730.965 517.793 721.461 518.656L720.022 518.071C715.19 513.898 716.162 510.218 720.215 505.997L721.495 505.487Z"/><path fill="white" d="M507.672 719.486C511.651 714.74 515.786 715.556 519.621 719.92C520.113 731.728 504.988 729.898 507.311 720.079L507.672 719.486Z"/><path fill="white" d="M346.258 386.039C338.81 378.524 347.885 369.017 354.316 376.447L354.716 377.02C355.756 383.23 352.604 386.788 346.258 386.039Z"/><path fill="#B8C8EE" d="M479.488 685.329C414.897 673.412 362.297 626.555 343.025 563.765C323.753 500.975 341.008 432.678 387.791 386.577C434.575 340.476 503.118 324.225 565.618 344.417C653.981 372.965 705.017 465.195 682.271 555.226C659.525 645.257 570.806 702.178 479.488 685.329Z"/><path fill="white" d="M565.618 344.417C653.981 372.965 705.017 465.195 682.271 555.226C659.525 645.257 570.806 702.178 479.488 685.329C481.638 675.008 485.042 662.766 487.586 652.301L509.141 564.924C520.101 518.999 531.658 473.219 543.807 427.594C550.876 400.145 557.575 371.523 565.618 344.417Z"/></svg>