<?xml version="1.0" encoding="utf-8" ?><svg xmlns="http://www.w3.org/2000/svg" xmlns:xlink="http://www.w3.org/1999/xlink" width="1024" height="512" viewBox="0 0 1024 512"><path fill="white" transform="scale(0.5 0.5)" d="M0 0L14.2488 0L19.2246 0L39.8923 0L43.5045 0L155.173 0L168.019 0L191.813 0L204.611 0L294.29 0L348.799 0L355.143 0L370.563 0L376.877 0L390.303 0L394.433 0L435.717 0L437.423 0L522.422 0L533.165 0L566.785 0L582.045 0L590.327 0L602.124 0L667.835 0L738.731 0L745.96 0L762.989 0L769.93 0L840.901 0L856.48 0L926.235 0L933.983 0L952.125 0L980.314 0L1062.75 0L1097.21 0L1127.53 0L1166.58 0L1320.69 0L1465.28 0L1498.38 0L1507.97 0L1870.95 0L1947.38 0L1991.08 0L2034.67 0L2048 0L2048 28.4431L2048 356.833L2048 445.426L2048 481.84L2048 511.321L2048 581.22L2048 595.362L2048 684.109L2048 692.197L2048 768.204L2048 789.021L2048 931.696L2048 970.152L2048 1022.61L2048 1024L2045.04 1024L1965.38 1024L1932.52 1024L1844.65 1024L1783.92 1024L1779.5 1024L1676.21 1024L1666.63 1024L1584.91 1024L1564.53 1024L1368.86 1024L1363.21 1024L1301.16 1024L1287.21 1024L1169.38 1024L1159.87 1024L1012.67 1024L998.971 1024L879.61 1024L621.42 1024L540.199 1024L318.665 1024L311.854 1024L0 1024L0 1023.26L0 881.528L0 761.008L0 752.953L0 737.577L0 732.96L0 724.876L0 619.444L0 570.095L0 563.238L0 469.03L0 465.007L0 458.057L0 454.429L0 453.059L0 388.396L0 378.752L0 371.351L0 226.919L0 217.453L0 157.309L0 126.592L0 122.581L0 120.706L0 32.9476L0 28.2587L0 0Z"/><path fill="#B8C8EE" transform="scale(0.5 0.5)" d="M0 0L14.2488 0L19.2246 0L39.8923 0L43.5045 0L155.173 0L168.019 0L191.813 0L204.611 0L294.29 0L348.799 0L355.143 0L370.563 0L376.877 0L390.303 0L394.433 0L435.717 0L437.423 0L522.422 0L533.165 0L566.785 0L582.045 0L590.327 0L602.124 0L667.835 0L738.731 0L745.96 0L762.989 0L769.93 0L840.901 0L856.48 0L926.235 0L933.983 0L952.125 0L980.314 0L1062.75 0L1097.21 0L1127.53 0L1166.58 0L1320.69 0L1465.28 0C1463.17 2.99757 1459.98 7.80859 1457.72 10.4895C1453.61 17.6 1450.05 24.9058 1446.1 32.0985C1443.28 39.7001 1440.81 46.8737 1438.4 54.625C1425.55 96.1223 1441.56 143.78 1468.24 176.561C1445.97 180.813 1427.53 185.505 1406.11 193.576C1399.25 196.304 1391.32 199.25 1384.82 202.522C1331.85 229.888 1285.24 267.502 1265.05 326.365C1258.81 344.534 1256.53 370.739 1261.77 389.445C1209.61 398.903 1162.38 415.597 1129.51 460.84C1125.48 466.393 1120.32 475.753 1118.04 482.186C1108.77 484.579 1085.21 493.503 1078.13 494.355C1069.98 494.056 1055.38 500.811 1047.31 503.647C1003.46 519.07 960.731 540.88 926.659 572.658C884.871 611.633 851.517 671.895 876.928 728.737C878.323 731.858 881.705 739.209 882.591 742.196C842.615 741.09 821.843 745.793 784.299 752.565C772.815 752.104 762.375 755.002 751.284 757.464C689.194 771.245 633.735 805.966 599.395 860.094C585.589 861.478 562.766 863.963 549.33 864.167C544.527 865.443 536.633 865.88 531.388 866.569C519.112 868.183 506.968 869.478 494.74 871.585C463.873 877.587 432.75 881.135 400.988 888.168C271.158 916.914 118.371 962.29 0 1023.26L0 881.528L0 761.008L0 752.953L0 737.577L0 732.96L0 724.876L0 619.444L0 570.095L0 563.238L0 469.03L0 465.007L0 458.057L0 454.429L0 453.059L0 388.396L0 378.752L0 371.351L0 226.919L0 217.453L0 157.309L0 126.592L0 122.581L0 120.706L0 32.9476L0 28.2587L0 0Z"/><path fill="#F9E2B9" transform="scale(0.5 0.5)" d="M0 0L14.2488 0L19.2246 0L39.8923 0L43.5045 0L155.173 0L168.019 0L191.813 0L204.611 0L294.29 0L348.799 0L355.143 0L370.563 0L376.877 0L390.303 0L394.433 0L435.717 0L437.423 0L522.422 0L533.165 0L566.785 0L582.045 0L590.327 0L602.124 0L667.835 0L738.731 0L745.96 0L762.989 0L763.172 14.4454C763.059 39.2777 763.151 62.9298 760.621 87.7028C755.666 91.0343 745.569 95.8956 742.813 97.9769L742.034 97.8841L739.231 101.703C736.75 101.509 737.622 101.689 735.387 99.9429L734.568 101.668C733.915 107.468 733.336 113.282 732.342 119.032C727.403 153.883 720.336 181.519 711.141 215.643C685.841 292.488 656.402 356.606 608.497 422.646C599.497 435.053 586.234 454.222 575.68 465.085C572.176 469.804 562.658 479.937 560.717 483.044C555.643 488.403 550.625 493.816 545.664 499.28C543.017 502.047 539.014 506.508 536.092 508.711L535.135 510.004C529.309 516.401 523.49 522.274 517.404 528.401C519.206 529.717 521.223 531.271 523.048 532.496L525.524 535.522C523.382 536.02 523.211 535.844 521.049 535.094C511.217 542.597 502.581 552.389 492.447 560.539L493.143 556.887L492.048 555.486L486.633 556.635C483.374 559.112 480.19 561.687 477.086 564.356C463.55 575.509 428.263 603.775 412.786 611.261C397.717 622.289 376.894 632.992 360.488 642.052C355.362 644.883 342.206 652.219 337.491 654.244C317.415 665 287.722 678.102 266.328 686.162C258.704 688.835 247.206 693.249 239.658 695.106L236.38 694.837C234.138 698 209.841 704.64 205.466 704.338L201.666 705.67C159.024 718.283 100.737 724.921 56.1498 726.205C37.0594 726.755 18.7543 725.335 0 724.876L0 619.444L0 570.095L0 563.238L0 469.03L0 465.007L0 458.057L0 454.429L0 453.059L0 388.396L0 378.752L0 371.351L0 226.919L0 217.453L0 157.309L0 126.592L0 122.581L0 120.706L0 32.9476L0 28.2587L0 0Z"/><path fill="#7C8CB5" transform="scale(0.5 0.5)" d="M590.327 0L602.124 0L667.835 0L738.731 0L745.96 0L762.989 0L763.172 14.4454C763.059 39.2777 763.151 62.9298 760.621 87.7028C755.666 91.0343 745.569 95.8956 742.813 97.9769L742.034 97.8841L739.231 101.703C736.75 101.509 737.622 101.689 735.387 99.9429L734.568 101.668C733.915 107.468 733.336 113.282 732.342 119.032C727.403 153.883 720.336 181.519 711.141 215.643C685.841 292.488 656.402 356.606 608.497 422.646C599.497 435.053 586.234 454.222 575.68 465.085C577.954 453.862 585.371 430.58 590.99 421.368C614.894 382.188 641.131 342.662 632.007 293.608C629.492 280.634 624.854 268.164 618.279 256.7C610.811 243.518 601.549 232.245 598.743 217.436C620.903 222.196 645.96 227.774 668.494 226.775C639.772 218.28 621.582 211.243 595.325 196.68C599.31 186.864 600.84 181.435 608.574 173.974C625.858 173.676 685.901 176.738 700.78 172.008C690.133 168.182 628.325 169.038 613.694 169.016C619.083 163.522 632.713 153.852 640.342 151.857C641.985 151.427 654.36 150.687 656.97 150.459L656.209 149.797C659.839 148.15 701.952 148.061 709.482 144.884C703.867 139.836 648.616 144.73 637.765 144.74C604.46 144.773 571.278 143.54 538.039 142.995C519.525 101.425 531.123 63.6102 561.824 30.9682C565.095 27.491 568.771 24.2878 572.158 20.8738C571.123 19.6222 570.086 16.5112 569.445 14.863C574.438 9.76406 584.02 3.9954 590.327 0Z"/><path fill="#67769D" transform="scale(0.5 0.5)" d="M667.835 0L738.731 0L745.96 0L762.989 0L763.172 14.4454C763.059 39.2777 763.151 62.9298 760.621 87.7028C755.666 91.0343 745.569 95.8956 742.813 97.9769L742.034 97.8841L739.231 101.703C736.75 101.509 737.622 101.689 735.387 99.9429L734.568 101.668C723.768 103.704 716.001 105.347 704.889 106.297C697.733 106.909 686.457 106.931 679.864 108.01C674.501 108.17 671.504 108.715 667.211 105.653C666.056 101.746 658.96 100.167 655.127 98.6955C622.73 68.1922 663.732 46.2043 669.192 15.7061C670.206 10.0384 669.083 5.49083 667.835 0Z"/><path fill="#7C8CB5" transform="scale(0.5 0.5)" d="M745.96 0L762.989 0L763.172 14.4454C763.059 39.2777 763.151 62.9298 760.621 87.7028C755.666 91.0343 745.569 95.8956 742.813 97.9769C743 86.0596 745.355 70.7351 745.705 57.9016C746.238 38.3289 746.108 19.5577 745.96 0Z"/><path fill="#E8D0B4" transform="scale(0.5 0.5)" d="M738.731 0L745.96 0C746.108 19.5577 746.238 38.3289 745.705 57.9016C745.355 70.7351 743 86.0596 742.813 97.9769L742.034 97.8841L739.231 101.703C736.75 101.509 737.622 101.689 735.387 99.9429C735.086 97.0496 736.64 82.4783 736.982 78.736C739.459 52.0933 739.348 26.6888 738.731 0Z"/><path fill="#7C8CB5" transform="scale(0.5 0.5)" d="M688.284 104.215C712.089 104.232 725.846 102.145 736.982 78.736C736.64 82.4783 735.086 97.0496 735.387 99.9429L734.568 101.668C723.768 103.704 716.001 105.347 704.889 106.297C697.733 106.909 686.457 106.931 679.864 108.01L688.284 104.215Z"/><path fill="#B8C8EE" transform="scale(0.5 0.5)" d="M667.211 105.653C670.966 97.6836 682.702 89.5971 689.483 97.2498C690.119 100.606 689.676 101.243 688.284 104.215L679.864 108.01C674.501 108.17 671.504 108.715 667.211 105.653Z"/><path fill="#B8C8EE" transform="scale(0.5 0.5)" d="M701.308 42.1105C704.057 41.9526 707.432 41.5794 710.102 42.3542C712.655 43.0949 713.797 44.7249 714.912 46.9967C715.182 48.9489 715.122 50.5266 714.409 52.3582C711.732 59.2329 705.832 62.863 699.418 65.7634C696.701 66.4944 693.713 67.0734 690.923 66.3402C688.295 65.6499 687.584 64.5851 686.236 62.4334C685.996 60.6192 685.959 59.0681 686.525 57.3235C689.102 49.3686 694.237 45.7456 701.308 42.1105Z"/><path fill="#98B0E0" transform="scale(0.5 0.5)" d="M732.342 119.032C706.278 128.358 669.41 129.997 647.454 109.224C641.99 104.055 637.373 94.137 637.448 86.493L638.529 85.5744C643.365 90.0056 649.278 96.471 655.127 98.6955C658.96 100.167 666.056 101.746 667.211 105.653C671.504 108.715 674.501 108.17 679.864 108.01C686.457 106.931 697.733 106.909 704.889 106.297C716.001 105.347 723.768 103.704 734.568 101.668C733.915 107.468 733.336 113.282 732.342 119.032Z"/><path fill="#E8D0B4" transform="scale(0.5 0.5)" d="M590.327 0L602.124 0C591.188 6.72425 582.177 12.7787 572.158 20.8738C571.123 19.6222 570.086 16.5112 569.445 14.863C574.438 9.76406 584.02 3.9954 590.327 0Z"/><path fill="#B8C8EE" transform="scale(0.5 0.5)" d="M628.91 17.6735C630.172 18.0419 631.235 18.6449 632.396 19.2489C632.74 20.4306 633.102 20.6701 632.51 21.8428C630.786 25.2563 625.083 27.0906 621.686 28.0664C620.38 27.7611 619.623 26.9539 618.659 26.0854L619.324 23.8487C622.224 21.0212 625.288 19.434 628.91 17.6735Z"/><path fill="#F9E2B9" transform="scale(0.5 0.5)" d="M0 0L14.2488 0L19.2246 0L39.8923 0L43.5045 0L155.173 0C165.266 12.9802 175.923 30.1918 181.723 45.6311C183.851 51.3568 190.661 68.2068 189.803 73.3075L189.856 75.0989C190.825 77.8847 192.046 80.1744 191.311 82.8793L190.167 83.9113L190.796 88.1255C194.385 92.9348 194.436 102.362 192.36 107.89L190.837 108.957L191.474 112.908C192.845 114.493 193.175 114.392 192.782 117.023C187.359 153.306 168.359 177.546 142.151 199.868C141.04 200.817 139.913 201.749 138.773 202.664C137.588 203.684 136.526 204.861 135.059 205.191C130.773 200.127 123.389 193.663 118.336 188.985L112.454 183.041C113.988 189.124 114.877 193.389 117.564 199.111C111.225 205.447 109.292 207.146 100.466 209.066L99.6566 206.214C98.3669 207.955 98.2336 208.461 96.2794 209.054C97.1439 213.247 98.0676 217.504 98.871 221.701C65.3872 232.196 32.5051 229.71 0 217.453L0 157.309L0 126.592L0 122.581L0 120.706L0 32.9476L0 28.2587L0 0Z"/><path fill="#D7CDDD" transform="scale(0.5 0.5)" d="M43.5045 0L155.173 0C165.266 12.9802 175.923 30.1918 181.723 45.6311C183.851 51.3568 190.661 68.2068 189.803 73.3075C180.522 71.9377 170.938 70.8049 161.614 69.586C165.588 66.5448 167.876 64.9369 171.175 61.0576L170.606 59.4702C166.264 63.187 154.67 71.2591 149.199 72.1934C138.959 71.8916 128.156 72.2158 118.098 71.2618C87.5267 68.3617 64.4009 49.4626 42.1312 29.8408C41.1838 17.8546 41.5447 11.8438 43.5045 0Z"/><path fill="#D7CDDD" transform="scale(0.5 0.5)" d="M0 157.309C33.893 150.547 64.5789 165.45 85.475 191.503C88.2038 194.905 91.6417 199.76 94.4828 202.827L96.2794 209.054C97.1439 213.247 98.0676 217.504 98.871 221.701C65.3872 232.196 32.5051 229.71 0 217.453L0 157.309Z"/><path fill="#D7CDDD" transform="scale(0.5 0.5)" d="M153.742 98.6769C165.286 103.393 181.095 108.161 191.474 112.908C192.845 114.493 193.175 114.392 192.782 117.023C187.359 153.306 168.359 177.546 142.151 199.868C141.04 200.817 139.913 201.749 138.773 202.664C134.892 200.308 117.581 182.168 113.833 178.05C118.865 141.113 128.014 126.312 153.742 98.6769Z"/><path fill="#D4B295" transform="scale(0.5 0.5)" d="M0 126.592C25.3116 114.998 38.7898 110.543 65.3128 103.183C70.6839 114.308 82.9499 138.658 86.4732 149.245C89.1736 157.359 93.7403 192.734 94.4828 202.827C91.6417 199.76 88.2038 194.905 85.475 191.503C64.5789 165.45 33.893 150.547 0 157.309L0 126.592Z"/><path fill="#D4B295" transform="scale(0.5 0.5)" d="M68.3454 102.076C85.4335 97.4965 104.26 92.5084 120.993 87.069C131.847 91.1121 142.765 94.9819 153.742 98.6769C128.014 126.312 118.865 141.113 113.833 178.05C110.469 174.137 94.7064 156.457 93.0977 153.534C84.1879 137.346 77.1825 118.911 68.3454 102.076Z"/><path fill="#D4B295" transform="scale(0.5 0.5)" d="M0 32.9476C6.74994 36.3395 13.3883 39.9491 19.9046 43.7707L47.024 59.2918C50.6298 71.2949 58.3498 87.9192 63.4126 99.9945C38.607 106.738 23.5285 111.689 0 122.581L0 120.706L0 32.9476Z"/><path fill="#D7CDDD" transform="scale(0.5 0.5)" d="M0 32.9476C6.74994 36.3395 13.3883 39.9491 19.9046 43.7707C19.271 77.2567 22.4762 92.6911 0 120.706L0 32.9476Z"/><path fill="#D4B295" transform="scale(0.5 0.5)" d="M42.1312 29.8408C64.4009 49.4626 87.5267 68.3617 118.098 71.2618C128.156 72.2158 138.959 71.8916 149.199 72.1934C126.471 83.2552 92.0965 92.177 66.7355 98.6599C57.0262 76.2464 46.0058 53.9977 42.1312 29.8408Z"/><path fill="#D7CDDD" transform="scale(0.5 0.5)" d="M0 0L14.2488 0L19.2246 0L24.7266 7.6129L21.5428 17.3612L21.9619 18.5109C22.8655 26.2835 23.4692 32.3829 22.1178 40.2684L21.9834 40.8909C14.6036 36.7714 7.27521 32.5603 0 28.2587L0 0Z"/><path fill="#9199BE" transform="scale(0.5 0.5)" d="M14.2488 0L19.2246 0L24.7266 7.6129L21.5428 17.3612C19.7149 12.1827 16.487 5.19673 14.2488 0Z"/><path fill="#B8C8EE" transform="scale(0.5 0.5)" d="M166.306 75.6868C169.905 80.9699 182.987 83.6988 190.796 88.1255C194.385 92.9348 194.436 102.362 192.36 107.89L190.837 108.957C184.108 105.131 162.693 98.1104 154.831 95.4833C158.546 90.5789 162.569 81.501 166.306 75.6868Z"/><path fill="#D4B295" transform="scale(0.5 0.5)" d="M99.6566 206.214C96.5488 191.881 94.1569 172.447 91.9149 157.617C96.2357 162.551 109.965 178.143 112.454 183.041C113.988 189.124 114.877 193.389 117.564 199.111C111.225 205.447 109.292 207.146 100.466 209.066L99.6566 206.214Z"/><path fill="#D4B295" transform="scale(0.5 0.5)" d="M125.301 85.5815C134.6 82.0967 160.099 68.2924 166.735 73.4864L166.306 75.6868C162.569 81.501 158.546 90.5789 154.831 95.4833C146.241 93.1767 133.987 88.5555 125.301 85.5815Z"/><path fill="#98B0E0" transform="scale(0.5 0.5)" d="M24.7266 7.6129L30.715 15.9708C33.229 19.1756 35.1512 21.5481 37.2256 25.0508L37.9249 25.2393C38.7499 29.7832 39.5683 35.0338 40.7215 39.4488C35.7317 36.4502 28.1277 37.5043 25.8133 42.8909L21.9834 40.8909L22.1178 40.2684C23.4692 32.3829 22.8655 26.2835 21.9619 18.5109L21.5428 17.3612L24.7266 7.6129Z"/><path fill="#BCA692" transform="scale(0.5 0.5)" d="M37.2256 25.0508L37.9249 25.2393C38.7499 29.7832 39.5683 35.0338 40.7215 39.4488C35.7317 36.4502 28.1277 37.5043 25.8133 42.8909L21.9834 40.8909L22.1178 40.2684C27.7073 35.7772 32.775 30.6727 37.2256 25.0508Z"/><path fill="#D7CDDD" transform="scale(0.5 0.5)" d="M19.2246 0L39.8923 0C38.1157 9.49188 37.6388 15.4702 37.9249 25.2393L37.2256 25.0508C35.1512 21.5481 33.229 19.1756 30.715 15.9708L24.7266 7.6129L19.2246 0Z"/><path fill="#D4B295" transform="scale(0.5 0.5)" d="M25.8133 42.8909C28.1277 37.5043 35.7317 36.4502 40.7215 39.4488C41.8406 45.0611 42.8129 48.3806 44.5147 53.7692C38.5588 50.4293 31.3848 46.6281 25.8133 42.8909Z"/><path fill="#D7CDDD" transform="scale(0.5 0.5)" d="M171.282 73.6404C177.643 74.0512 183.31 74.8572 189.856 75.0989C190.825 77.8847 192.046 80.1744 191.311 82.8793L190.167 83.9113C182.814 80.357 178.112 78.0319 171.282 73.6404Z"/><path fill="#9199BE" transform="scale(0.5 0.5)" d="M532.342 185.828C539.009 190.215 545.819 194.381 552.761 198.318C569.431 207.557 580.69 211.471 598.743 217.436C601.549 232.245 610.811 243.518 618.279 256.7C624.854 268.164 629.492 280.634 632.007 293.608C641.131 342.662 614.894 382.188 590.99 421.368C585.371 430.58 577.954 453.862 575.68 465.085C572.176 469.804 562.658 479.937 560.717 483.044C555.643 488.403 550.625 493.816 545.664 499.28C543.017 502.047 539.014 506.508 536.092 508.711C530.562 502.781 521.291 495.744 514.827 489.253L511.107 486.335C502.241 478.188 493.008 470.45 483.437 463.144C464.213 448.519 458.973 446.522 445.686 426.017C448.996 423.718 452.96 417.821 455.525 414.393C474.427 439.446 490.092 458.33 519.64 470.463C492.298 449.042 480.798 436.678 459.408 409.403C499.061 363.746 520.13 246.274 532.342 185.828Z"/><path fill="#67769D" transform="scale(0.5 0.5)" d="M552.761 198.318C569.431 207.557 580.69 211.471 598.743 217.436C601.549 232.245 610.811 243.518 618.279 256.7C624.854 268.164 629.492 280.634 632.007 293.608C641.131 342.662 614.894 382.188 590.99 421.368C585.371 430.58 577.954 453.862 575.68 465.085C572.176 469.804 562.658 479.937 560.717 483.044C555.643 488.403 550.625 493.816 545.664 499.28C543.017 502.047 539.014 506.508 536.092 508.711C530.562 502.781 521.291 495.744 514.827 489.253L511.107 486.335C522.768 481.469 542.371 475.521 552.068 471.985C571.708 464.823 537.627 414.881 532.664 406.3C527.555 397.466 529.179 375.731 526.844 371.346C526.538 365.748 527.688 364.894 531.324 360.959C543.052 332.562 559.185 318.506 586.745 305.304C596.213 300.768 602.657 298.661 609.548 290.727C606.965 241.672 552.35 253.276 552.761 198.318Z"/><path fill="#7C8CB5" transform="scale(0.5 0.5)" d="M514.827 489.253L515.852 486.805C520.437 484.968 524.646 486.073 529.115 487.935C535.363 490.52 541 494.384 545.664 499.28C543.017 502.047 539.014 506.508 536.092 508.711C530.562 502.781 521.291 495.744 514.827 489.253Z"/><path fill="#B8C8EE" transform="scale(0.5 0.5)" d="M531.324 360.959C534.721 360.039 536.417 359.289 539.782 360.291C541.814 362.566 541.361 361.387 541.218 364.859C537.678 371.02 533.648 371.821 526.844 371.346C526.538 365.748 527.688 364.894 531.324 360.959Z"/><path fill="#B8C8EE" transform="scale(0.5 0.5)" d="M582.137 359.025C583.661 358.939 585.595 358.68 587.093 358.959C589.736 359.451 590.324 360.489 591.782 362.522C591.945 363.78 591.979 364.934 591.543 366.151C589.868 370.826 586.096 373.098 581.848 375.154C579.4 375.26 577.335 375.046 574.942 374.528C572.826 372.779 572.613 372.71 572.071 370.045C573.896 364.25 577.011 362.044 582.137 359.025Z"/><path fill="#9199BE" transform="scale(0.5 0.5)" d="M410.554 472.588C439.266 482.803 460.32 492.119 487.219 507.28C486.252 510.98 482.3 518.68 480.452 523.136C478.045 528.944 477.45 534.343 475.712 538.935C477.195 548.289 477.076 554.884 477.086 564.356C463.55 575.509 428.263 603.775 412.786 611.261C397.717 622.289 376.894 632.992 360.488 642.052C355.362 644.883 342.206 652.219 337.491 654.244C317.415 665 287.722 678.102 266.328 686.162C258.704 688.835 247.206 693.249 239.658 695.106C237.597 684.782 235.588 674.448 233.631 664.103C234.79 659.059 235.057 653.055 236.888 648.86C238.967 648.529 239.363 648.442 241.324 647.693L241.43 644.916L239.964 644.76C237.026 636.718 234.665 613.856 230.494 601.548C236.526 600.614 249.518 596.603 255.819 594.885C302.676 582.104 337.85 557.905 370.234 522.102C384.764 506.038 396.854 488.107 410.554 472.588Z"/><path fill="#67769D" transform="scale(0.5 0.5)" d="M412.786 611.261C398.712 605.214 385.821 593.082 380.198 578.731C375.514 567.048 375.758 553.968 380.874 542.468C397.914 504.29 458.306 491.392 475.712 538.935C477.195 548.289 477.076 554.884 477.086 564.356C463.55 575.509 428.263 603.775 412.786 611.261Z"/><path fill="#9199BE" transform="scale(0.5 0.5)" d="M455.079 534.051C455.761 534.032 456.453 534.015 457.134 534.062C460.294 534.282 461.754 535.339 463.836 537.609C465.409 542.074 463.865 547.024 462.107 551.232C458.99 558.694 450.881 576.648 445.382 581.527C443.908 582.835 441.752 583.638 439.944 584.376C437.967 584.282 436.139 583.971 434.381 582.999C431.71 581.521 429.734 578.603 428.912 575.708C426.613 567.606 430.339 557.176 434.482 550.253C439.52 541.838 445.55 536.467 455.079 534.051Z"/><path fill="#7382AC" transform="scale(0.5 0.5)" d="M266.328 686.162C260.306 674.481 258.131 663.455 261.247 650.453C264.748 635.701 274.004 622.963 286.953 615.077C301.854 606.148 326.782 603.265 337.551 620.929C344.171 631.788 340.587 642.787 337.491 654.244C317.415 665 287.722 678.102 266.328 686.162Z"/><path fill="#B8C8EE" transform="scale(0.5 0.5)" d="M297.227 627.163C298.205 627.183 299.181 627.229 300.149 627.379C303.016 627.824 305.937 628.753 307.694 631.171C307.951 633.082 308.189 633.89 307.379 635.715C304.255 642.756 296.793 645.758 290.106 648.233C287.082 648.245 283.637 648.329 280.903 646.81C278.515 645.484 278.199 644.282 277.379 641.868C277.591 640.308 277.953 638.996 278.827 637.682C283.256 631.024 289.661 628.565 297.227 627.163Z"/><path fill="#7C8CB5" transform="scale(0.5 0.5)" d="M181.096 611.357C183.565 611.024 187.349 610.083 189.9 609.524C189.957 648.03 192.03 667.79 201.666 705.67C159.024 718.283 100.737 724.921 56.1498 726.205C37.0594 726.755 18.7543 725.335 0 724.876L0 619.444C54.6971 623.184 95.5154 624.285 150.54 615.14C163.796 632.597 169.907 646.349 179.004 665.88C178.38 647.793 180.016 629.455 181.096 611.357Z"/><path fill="#B8C8EE" transform="scale(0.5 0.5)" d="M78.2586 648.298C82.0429 648.341 86.352 648.732 89.7656 650.487C92.4439 651.865 92.9026 653.527 93.7039 656.214C93.3798 658.8 92.7646 660.738 91.3663 662.946C85.8481 671.661 76.498 675.878 66.8119 677.982C62.1359 678.166 57.4853 678.301 53.4142 675.624C52.1713 674.806 50.7551 673.142 50.4813 671.655C49.7916 667.911 51.1374 664.945 53.286 661.976C59.1472 653.877 68.6556 649.746 78.2586 648.298Z"/><path fill="#B8C8EE" transform="scale(0.5 0.5)" d="M135.323 675.099C137.906 674.975 141.762 674.501 144.215 675.322C146.625 676.129 147.058 677.318 147.883 679.452C147.602 680.53 147.266 681.537 146.724 682.519C144.039 687.386 137.084 689.443 132.204 690.924C129.94 691.097 126.991 691.498 124.794 690.954C122.496 690.385 122.006 689.64 120.796 687.807C120.805 686.907 120.927 686.119 121.277 685.278C123.541 679.833 130.318 677.205 135.323 675.099Z"/><path fill="#D7CDDD" transform="scale(0.5 0.5)" d="M112.454 183.041L118.336 188.985C123.389 193.663 130.773 200.127 135.059 205.191C133.517 206.125 131.361 207.336 129.943 208.344C134.369 208.258 136.295 207.196 137.979 212.202C133.965 216.488 129.007 218.116 127.403 220.845L125.56 220.306L124.227 221.102C119.384 223.352 110.274 227.857 105.565 229.353C107.721 235.89 112.035 251.159 113.352 258.09C110.548 261.003 111.091 262.421 111.077 267.187C119.497 298.787 128.835 330.135 139.078 361.192C82.4611 375.962 58.906 378.683 0 371.351L0 226.919L0 217.453C32.5051 229.71 65.3872 232.196 98.871 221.701C98.0676 217.504 97.1439 213.247 96.2794 209.054C98.2336 208.461 98.3669 207.955 99.6566 206.214L100.466 209.066C109.292 207.146 111.225 205.447 117.564 199.111C114.877 193.389 113.988 189.124 112.454 183.041Z"/><path fill="#E8D0B4" transform="scale(0.5 0.5)" d="M112.454 183.041L118.336 188.985C123.389 193.663 130.773 200.127 135.059 205.191C133.517 206.125 131.361 207.336 129.943 208.344C134.369 208.258 136.295 207.196 137.979 212.202C133.965 216.488 129.007 218.116 127.403 220.845L125.56 220.306L124.227 221.102C119.384 223.352 110.274 227.857 105.565 229.353C107.721 235.89 112.035 251.159 113.352 258.09C110.548 261.003 111.091 262.421 111.077 267.187C107.726 255.226 104.54 243.219 101.521 231.17C63.0205 240.573 37.4596 239.91 0 226.919L0 217.453C32.5051 229.71 65.3872 232.196 98.871 221.701C98.0676 217.504 97.1439 213.247 96.2794 209.054C98.2336 208.461 98.3669 207.955 99.6566 206.214L100.466 209.066C109.292 207.146 111.225 205.447 117.564 199.111C114.877 193.389 113.988 189.124 112.454 183.041Z"/><path fill="#D7CDDD" transform="scale(0.5 0.5)" d="M117.564 199.111C118.324 204.634 119.307 207.559 120.949 212.791L103.842 220.059C102.774 216.733 101.234 212.367 100.466 209.066C109.292 207.146 111.225 205.447 117.564 199.111Z"/><path fill="#B8C8EE" transform="scale(0.5 0.5)" d="M118.336 188.985C123.389 193.663 130.773 200.127 135.059 205.191C133.517 206.125 131.361 207.336 129.943 208.344C126.828 209.577 127.718 209.779 125.159 208.978C121.685 203.348 120.185 195.583 118.336 188.985Z"/><path fill="#98B0E0" transform="scale(0.5 0.5)" d="M459.408 409.403C440.667 381.789 427.629 359.266 419.692 326.393C401.024 249.073 438.721 190.256 514.262 171.836C520.228 176.577 526.255 181.242 532.342 185.828C520.13 246.274 499.061 363.746 459.408 409.403Z"/><path fill="#98B0E0" transform="scale(0.5 0.5)" d="M0 469.03C25.4555 467.305 69.0606 464.649 93.2728 457.333C120.427 476.253 164.346 523.658 181.559 551.854C177.897 572.322 176.253 590.917 174.998 611.576C169.139 612.563 163.259 613.426 157.363 614.163C138.986 592.351 128.728 578.433 101.47 564.911C73.6102 551.349 41.5441 549.248 12.1523 559.058C9.11213 560.061 2.65782 561.994 0 563.238L0 469.03Z"/><path fill="white" transform="scale(0.5 0.5)" d="M52.4033 490.149L53.3645 490.404C44.4236 496.493 15.3745 504.629 4.17531 507.966C3.45309 507.895 3.27744 507.666 2.6919 507.265C10.2435 502.627 41.5802 493.802 52.4033 490.149Z"/><path fill="#98B0E0" transform="scale(0.5 0.5)" d="M241.015 495.813C295.094 456.942 347.363 451.353 410.554 472.588C396.854 488.107 384.764 506.038 370.234 522.102C337.85 557.905 302.676 582.104 255.819 594.885C249.518 596.603 236.526 600.614 230.494 601.548C229.353 591.543 223.412 574.028 222.584 566.134C220.481 546.089 233.679 513.96 241.015 495.813Z"/><path fill="#98B0E0" transform="scale(0.5 0.5)" d="M371.717 155.366C382.404 156.287 396.181 158.455 406.644 160.332C412.072 178.32 421.734 202.396 430.948 218.392C388.926 286.575 415.346 352.799 455.525 414.393C452.96 417.821 448.996 423.718 445.686 426.017C444.337 424.346 443.029 422.642 441.762 420.907C408.366 374.914 383.534 318.356 374.121 262.077C371.545 246.674 371.618 228.461 370.602 212.779C370.165 206.046 365.602 195.165 366.311 189.503C367.686 178.515 369.982 166.477 371.717 155.366Z"/><path fill="#D7CDDD" transform="scale(0.5 0.5)" d="M191.813 0L204.611 0L294.29 0C307.104 17.4068 315.885 34.8254 321.785 55.6557C322.416 57.8806 324.116 64.9757 324.983 66.6951C294.233 71.4491 229.297 76.9118 198.751 72.9582C196.458 61.5323 193.399 52.1023 189.259 41.2903L187.007 34.3796C190.794 19.6246 191.919 15.0308 191.813 0Z"/><path fill="#98B0E0" transform="scale(0.5 0.5)" d="M191.813 0L204.611 0C202.908 12.1321 196.307 31.5395 189.259 41.2903L187.007 34.3796C190.794 19.6246 191.919 15.0308 191.813 0Z"/><path fill="#98B0E0" transform="scale(0.5 0.5)" d="M468.369 49.7695C475.646 49.5485 531.818 24.6155 542.339 20.1412C541.1 27.8102 538.02 44.8574 537.777 51.9326C523.785 81.4999 516.82 104.403 528.204 136.453C528.885 138.368 529.616 140.265 530.399 142.141C518.193 141.887 499.079 141.402 487.17 139.85C474.523 127.92 451.347 105.141 440.558 91.4848C442.86 80.6275 443.809 70.0404 444.063 58.9638C447.876 57.853 462.581 52.55 464.859 52.4589L468.369 49.7695Z"/><path fill="#98B0E0" transform="scale(0.5 0.5)" d="M464.859 52.4589L468.369 49.7695L472.62 51.2544L473.323 53.0726C471.299 55.2901 472.203 54.5781 468.386 55.2516C466.264 54.3453 466.225 54.2817 464.859 52.4589Z"/><path fill="#98B0E0" transform="scale(0.5 0.5)" d="M15.3315 564.073C71.2245 547.847 116.584 569.864 150.54 615.14C95.5154 624.285 54.6971 623.184 0 619.444L0 570.095L0 563.238C2.65782 561.994 9.11213 560.061 12.1523 559.058C15.0624 561.211 14.1352 560.032 15.3315 564.073Z"/><path fill="#E8D0B4" transform="scale(0.5 0.5)" d="M0 563.238C2.65782 561.994 9.11213 560.061 12.1523 559.058C15.0624 561.211 14.1352 560.032 15.3315 564.073C9.76276 566.052 5.40401 567.637 0 570.095L0 563.238Z"/><path fill="#98B0E0" transform="scale(0.5 0.5)" d="M0 371.351C58.906 378.683 82.4611 375.962 139.078 361.192C142.197 370.719 145.367 380.229 148.587 389.722C142.615 393.563 136.54 397.243 130.37 400.757L130.411 402.316L149.208 392.485C152.609 400.836 156.201 412.047 159.275 420.806C137.301 429.925 115.836 435.719 92.768 441.006C71.8904 429.606 51.7175 416.959 32.3588 403.136C21.534 395.367 10.7053 386.15 0 378.752L0 371.351Z"/><path fill="white" transform="scale(0.5 0.5)" d="M130.37 400.757L130.411 402.316C120.68 408.402 102.955 415.231 91.9063 419.216L91.345 418.469C95.6875 415.347 123.552 403.573 130.37 400.757Z"/><path fill="#98B0E0" transform="scale(0.5 0.5)" d="M294.29 0L348.799 0C355.973 19.9613 359.761 37.824 363.875 58.4744C352.817 61.2954 336.332 64.9406 324.983 66.6951C324.116 64.9757 322.416 57.8806 321.785 55.6557C315.885 34.8254 307.104 17.4068 294.29 0Z"/><path fill="#D7CDDD" transform="scale(0.5 0.5)" d="M124.227 221.102C126.291 225.055 133.858 253.669 135.741 260.302L162.131 351.47C156.276 353.906 150.4 356.291 144.503 358.623C132.579 328.448 122.34 289.754 113.352 258.09C112.035 251.159 107.721 235.89 105.565 229.353C110.274 227.857 119.384 223.352 124.227 221.102Z"/><path fill="#D7CDDD" transform="scale(0.5 0.5)" d="M137.979 212.202C142.001 212.151 142.475 213.012 145.866 216.331C175.172 245.017 206.456 278.806 238.016 304.737C234.423 307.66 226.946 313.428 223.932 316.422C192.683 292.936 159.224 261.543 133.901 231.522C131.307 228.447 130.29 224.919 127.774 221.36L127.403 220.845C129.007 218.116 133.965 216.488 137.979 212.202Z"/><path fill="#7C8CB5" transform="scale(0.5 0.5)" d="M212.037 606.519C221.763 631.393 227.315 658.422 233.528 684.341C234.226 687.254 235.05 692.491 236.38 694.837C234.138 698 209.841 704.64 205.466 704.338C196.705 671.129 193.592 644.777 194.281 610.803L195.302 609.343C201.199 607.905 206.05 607.314 212.037 606.519Z"/><path fill="#98B0E0" transform="scale(0.5 0.5)" d="M0 388.396C23.5182 406.312 52.9259 427.613 77.5323 444.24C54.956 449.571 23.4083 452.827 0 453.059L0 388.396Z"/><path fill="#98B0E0" transform="scale(0.5 0.5)" d="M324.969 382.268C327.611 378.356 330.786 374.231 333.608 370.399C351.292 380.939 369.261 392.105 386.804 402.915C403.038 412.919 424.017 425.348 439.025 436.863C434.462 443.125 432.098 446.276 426.686 451.765C391.046 427.063 362.856 405.714 324.969 382.268Z"/><path fill="#98B0E0" transform="scale(0.5 0.5)" d="M533.165 0L566.785 0C532.702 20.2445 482.323 41.7559 443.946 53.1852L444.372 39.0708C471.062 27.9395 508.099 13.3875 533.165 0Z"/><path fill="#9199BE" transform="scale(0.5 0.5)" d="M439.025 436.863L504.942 485.619C502.288 490.146 492.557 498.557 488.354 502.884C467.031 485.605 449.49 469.443 426.686 451.765C432.098 446.276 434.462 443.125 439.025 436.863Z"/><path fill="#98B0E0" transform="scale(0.5 0.5)" d="M394.433 0L435.717 0C436.892 10.9075 440.332 20.0003 441.349 34.5122C432.841 38.2762 420.248 42.4705 411.246 45.6425C403.077 29.7244 398.117 17.7222 394.433 0Z"/><path fill="#98B0E0" transform="scale(0.5 0.5)" d="M437.423 0L522.422 0C519.917 1.79575 507.164 7.393 503.845 8.87747C484.086 17.5534 464.174 25.8732 444.116 33.8328C442.492 21.3605 440.456 12.0487 437.423 0Z"/><path fill="#7C8CB5" transform="scale(0.5 0.5)" d="M487.219 507.28C498.422 512.666 506.713 522.17 516.458 529.632C506.688 538.593 496.205 547.67 486.633 556.635C483.374 559.112 480.19 561.687 477.086 564.356C477.076 554.884 477.195 548.289 475.712 538.935C477.45 534.343 478.045 528.944 480.452 523.136C482.3 518.68 486.252 510.98 487.219 507.28Z"/><path fill="#67769D" transform="scale(0.5 0.5)" d="M585.515 149.833C608.641 149.936 633.172 150.344 656.209 149.797L656.97 150.459C654.36 150.687 641.985 151.427 640.342 151.857C632.713 153.852 619.083 163.522 613.694 169.016C596.873 168.766 571.235 168.68 554.991 166.938C566.724 157.392 570.999 149.669 585.515 149.833Z"/><path fill="#98B0E0" transform="scale(0.5 0.5)" d="M355.143 0L370.563 0C376.639 11.7826 384.876 26.447 388.822 39.1633C389.371 40.934 389.296 49.9256 389.271 52.2694L370.649 56.7781C365.151 35.104 363.074 21.9809 355.143 0Z"/><path fill="#7C8CB5" transform="scale(0.5 0.5)" d="M504.942 485.619C512.54 489.277 528.251 503.876 535.135 510.004C529.309 516.401 523.49 522.274 517.404 528.401C512.324 522.804 496.17 510.672 488.354 502.884C492.557 498.557 502.288 490.146 504.942 485.619Z"/><path fill="#98B0E0" transform="scale(0.5 0.5)" d="M238.016 304.737C252.401 316.051 267.078 327.767 282.274 337.937C278.302 341.584 274.149 345.273 270.416 349.145C254.869 338.484 238.978 327.744 223.932 316.422C226.946 313.428 234.423 307.66 238.016 304.737Z"/><path fill="#7382AC" transform="scale(0.5 0.5)" d="M582.045 0L590.327 0C584.02 3.9954 574.438 9.76406 569.445 14.863L567.594 15.4373C555.314 29.9795 548.4 33.6824 537.777 51.9326C538.02 44.8574 541.1 27.8102 542.339 20.1412C549.115 16.7438 555.955 13.475 562.855 10.3367C569.194 6.78435 575.591 3.33831 582.045 0Z"/><path fill="#67769D" transform="scale(0.5 0.5)" d="M561.407 173.628C576.846 174.182 593.065 173.966 608.574 173.974C600.84 181.435 599.31 186.864 595.325 196.68C582.403 189.263 573.054 182.536 561.407 173.628Z"/><path fill="#98B0E0" transform="scale(0.5 0.5)" d="M144.503 358.623C150.4 356.291 156.276 353.906 162.131 351.47C164.39 359.484 166.732 367.475 169.157 375.441C164.209 379.625 159.174 383.051 153.878 386.769L144.503 358.623Z"/><path fill="#98B0E0" transform="scale(0.5 0.5)" d="M376.877 0L390.303 0C393.479 13.4334 397.647 25.8691 401.518 39.0792C402.597 42.7594 404.739 43.4659 404.144 47.0687L401.33 48.8056C393.265 45.4913 384.376 13.0554 376.877 0Z"/><path fill="#7C8CB5" transform="scale(0.5 0.5)" d="M233.631 664.103C226.206 630.297 222.401 614.175 220.253 579.839C227.299 599.098 229.042 622.819 238.915 645.158L239.964 644.76L241.43 644.916L241.324 647.693C239.363 648.442 238.967 648.529 236.888 648.86C235.057 653.055 234.79 659.059 233.631 664.103Z"/><path fill="#D7CDDD" transform="scale(0.5 0.5)" d="M168.019 0L191.813 0C191.919 15.0308 190.794 19.6246 187.007 34.3796C180.546 21.0797 176.211 12.2613 168.019 0Z"/><path fill="#98B0E0" transform="scale(0.5 0.5)" d="M181.096 611.357C181.516 608.891 181.587 606.387 181.78 603.895C182.954 588.725 185.097 573.652 186.399 558.492L193.305 570.507C190.956 584.813 190.033 595.064 189.9 609.524C187.349 610.083 183.565 611.024 181.096 611.357Z"/><path fill="#98B0E0" transform="scale(0.5 0.5)" d="M16.1622 456.792C20.5617 457.336 44.9525 454.077 52.3677 453.879C49.6703 454.861 47.0424 455.357 45.6294 457.631C48.2089 459.084 54.9534 458.811 58.4718 459.014C45.0883 461.884 14.0419 464.898 0 465.007L0 458.057C6.42328 458.092 9.84661 457.647 16.1622 456.792Z"/><path fill="#7382AC" transform="scale(0.5 0.5)" d="M541.147 147.953C555.722 149.134 571.532 148.224 585.515 149.833C570.999 149.669 566.724 157.392 554.991 166.938C549.424 160.522 545.764 155.044 541.147 147.953Z"/><path fill="#98B0E0" transform="scale(0.5 0.5)" d="M197.515 574.857C202.484 585.351 207.325 595.906 212.037 606.519C206.05 607.314 201.199 607.905 195.302 609.343L194.281 610.803C194.995 598.817 196.312 586.808 197.515 574.857Z"/><path fill="#98B0E0" transform="scale(0.5 0.5)" d="M82.4179 448.286C84.7298 449.983 87.3284 451.982 89.676 453.56C81.7419 455.441 66.6121 458.504 58.4718 459.014C54.9534 458.811 48.2089 459.084 45.6294 457.631C47.0424 455.357 49.6703 454.861 52.3677 453.879C60.1941 451.755 73.7849 449.995 82.4179 448.286Z"/><path fill="#7382AC" transform="scale(0.5 0.5)" d="M157.363 614.163C163.259 613.426 169.139 612.563 174.998 611.576C173.656 621.355 173.953 632.805 173.937 642.796C169.289 632.771 163.741 623.187 157.363 614.163Z"/><path fill="#E8D0B4" transform="scale(0.5 0.5)" d="M0 454.429C4.6054 454.287 13.4769 453.129 16.697 454.718L16.1622 456.792C9.84661 457.647 6.42328 458.092 0 458.057L0 454.429Z"/><path fill="#D7CDDD" transform="scale(0.5 0.5)" d="M202.242 115.976C242.369 130.112 283.663 140.686 325.646 147.574C335.874 149.358 355.372 151.753 364.163 153.873C367.008 160.895 355.895 202.093 353.151 211.342C339.573 257.107 314.84 297.025 288.016 336.076C271.136 324.22 257.693 314.399 241.714 301.444C231.72 294.428 218.979 281.996 209.838 273.806C186.957 253.302 165.681 231.139 143.791 209.582C167.78 191.442 186.285 167.539 195.992 138.502C197.676 133.463 199.702 119.202 202.242 115.976Z"/><path fill="#98B0E0" transform="scale(0.5 0.5)" d="M325.646 147.574C335.874 149.358 355.372 151.753 364.163 153.873C367.008 160.895 355.895 202.093 353.151 211.342C339.573 257.107 314.84 297.025 288.016 336.076C271.136 324.22 257.693 314.399 241.714 301.444C247.914 297.883 259.399 284.346 264.207 278.555C295.763 241.002 316.944 195.847 325.646 147.574Z"/><path fill="#98B0E0" transform="scale(0.5 0.5)" d="M366.67 228.582L369.301 228.118C370.848 235.355 370.336 252.538 372.662 264.28C387.397 338.66 411.079 381.597 454.473 441.497C420.424 415.033 374.387 388.904 336.893 366.309C339.788 361.781 352.108 342.658 351.083 337.836C345.732 347.72 341.101 355.542 333.826 364.121C325.299 359.724 310.492 350.302 302.561 344.951C332.386 314.422 356.601 269.853 366.67 228.582Z"/><path fill="#98B0E0" transform="scale(0.5 0.5)" d="M320.814 385.743C352.616 404.52 393.517 432.682 422.12 455.634C419.014 460.267 417.172 463.043 413.35 467.244C410.52 467.045 387.875 459.961 382.547 459.075C327.8 449.974 290.936 456.265 245.741 486.333C265.002 453.834 296.791 416.618 320.814 385.743Z"/><path fill="#98B0E0" transform="scale(0.5 0.5)" d="M271.677 362.043C270.941 365.143 269.349 370.066 270.183 372.852C271.338 373.321 271.763 373.621 272.993 373.728C278.161 369.925 280.723 367.925 285.361 363.443L318.805 384.489L210.783 522.294C209.057 513.225 206.741 501.049 204.154 492.221C214.458 467.58 226.66 443.777 240.649 421.026C238.657 418.378 238.361 417.961 237.181 414.814C240.478 408.067 248.163 396.705 252.518 390.101L253.58 388.544C251.925 387.827 250.336 387.2 248.656 386.546C261.22 376.958 262.493 375.224 271.677 362.043Z"/><path fill="#E8D0B4" transform="scale(0.5 0.5)" d="M271.677 362.043C270.941 365.143 269.349 370.066 270.183 372.852C271.338 373.321 271.763 373.621 272.993 373.728C265.579 380.141 247.926 410.694 240.649 421.026C238.657 418.378 238.361 417.961 237.181 414.814C240.478 408.067 248.163 396.705 252.518 390.101L253.58 388.544C251.925 387.827 250.336 387.2 248.656 386.546C261.22 376.958 262.493 375.224 271.677 362.043Z"/><path fill="#98B0E0" transform="scale(0.5 0.5)" d="M166.661 349.269C183.356 342.674 205.517 329.898 220.587 319.287C235.907 330.281 251.706 341.951 267.271 352.491C239.709 376.903 217.128 393.501 183.91 410.058C180.897 399.015 177.429 387.121 174.803 376.067C189.365 364.901 201.197 355.751 214.767 343.359C210.376 343.788 179.453 368.764 173.945 372.992C171.852 365.763 169.331 356.09 166.661 349.269Z"/><path fill="#D7CDDD" transform="scale(0.5 0.5)" d="M134.732 238.531C148.795 258.213 200.478 303.787 220.587 319.287C205.517 329.898 183.356 342.674 166.661 349.269C157.736 321.4 150.314 292.684 141.793 264.665C139.211 256.178 136.595 247.17 134.732 238.531Z"/><path fill="#98B0E0" transform="scale(0.5 0.5)" d="M415.582 68.0674C415.702 68.0797 415.829 68.0625 415.942 68.1042C419.303 69.3451 433.16 90.1404 436.289 94.089C434.238 100.556 430.879 106.171 428.257 112.365C427.723 113.626 426.877 115.043 427.395 116.33C431.941 110.595 435.35 104.286 438.634 97.778C449.921 110.433 461.177 122.991 473.651 134.5L477.582 138.411L476.744 139.391C451.55 138.846 425.58 134.985 400.42 132.682C396.802 113.325 393.816 94.3287 392.554 74.6372C400.336 72.8459 407.951 70.4046 415.582 68.0674Z"/><path fill="#98B0E0" transform="scale(0.5 0.5)" d="M164.26 438.148C164.317 438.166 164.384 438.167 164.431 438.203C168.262 441.173 187.648 503.721 190.827 513.264L187.132 525.537C180.958 516.461 174.057 507.902 166.497 499.945C150.856 482.224 131.568 468.121 112.811 453.934C129.835 450.241 148.118 444.755 164.26 438.148Z"/><path fill="#D7CDDD" transform="scale(0.5 0.5)" d="M201.904 93.7942C221.451 96.6234 238.314 104.662 256.746 110.079C278.291 116.411 305.764 123.435 328.083 126.638C327.593 133.202 327.131 137.152 325.913 143.618C303.874 140.011 282.01 135.402 260.39 129.804C241.317 124.699 221.296 118.079 202.325 113.483C201.83 111.984 201.886 107.563 201.845 105.756L201.904 93.7942Z"/><path fill="#98B0E0" transform="scale(0.5 0.5)" d="M201.904 93.7942C215.418 101.721 225.007 106.284 239.701 111.912C245.157 114.001 258.821 119.05 263.08 121.437C254.102 119.758 207.992 109.284 201.845 105.756L201.904 93.7942Z"/><path fill="#98B0E0" transform="scale(0.5 0.5)" d="M408.964 160.632C419.124 161.087 429.482 162.831 439.595 164.033C460.101 166.47 480.574 168.979 501.175 170.491C488.725 173.376 477.454 178.331 466.457 184.765C453.742 191.598 441.261 205.342 432.128 216.318C422.772 198.942 414.342 179.629 408.964 160.632Z"/><path fill="#D7CDDD" transform="scale(0.5 0.5)" d="M199.5 75.7204C239.432 80.4323 286.8 75.9799 326.742 71.2844C327.136 74.7489 327.519 80.8483 328.87 83.7832C295.726 91.9635 235.539 95.5493 201.722 91.2136C200.784 85.9831 200.165 80.9823 199.5 75.7204Z"/><path fill="#98B0E0" transform="scale(0.5 0.5)" d="M252.518 390.101C248.163 396.705 240.478 408.067 237.181 414.814C226.626 428.447 209.291 464.328 202.031 480.084C197.196 463.1 193.077 445.123 188.346 427.908C210.779 417.165 232.248 404.517 252.518 390.101Z"/><path fill="#D7CDDD" transform="scale(0.5 0.5)" d="M328.23 122.353C299.835 119.39 256.416 105.787 228.754 97.7687C233.566 96.1622 250.149 96.8219 255.99 96.6829C280.451 96.1011 303.897 92.5822 328.1 89.1936C328.803 99.5813 329.628 111.995 328.23 122.353Z"/><path fill="#98B0E0" transform="scale(0.5 0.5)" d="M401.547 137.135C427.101 140.743 457.728 143.911 483.532 144.122C491.679 151.654 500.445 158.661 508.939 165.805C475.044 161.9 440.97 159.612 407.064 155.623C405.1 149.504 403.362 143.3 401.547 137.135Z"/><path fill="#98B0E0" transform="scale(0.5 0.5)" d="M328.1 89.1936C337.642 87.2222 357.928 82.4267 366.793 81.4595C367.477 96.0315 368.712 114.218 367.51 128.625C354.38 126.774 341.284 124.683 328.23 122.353C329.628 111.995 328.803 99.5813 328.1 89.1936Z"/><path fill="#98B0E0" transform="scale(0.5 0.5)" d="M364.218 195.647C364.854 196.534 365.396 197.498 365.672 198.562C372.458 224.708 347.587 274.093 334.044 295.453C328.712 303.862 304.485 340.969 296.875 342.688L294.55 339.623C294.962 334.612 306.395 320.672 309.837 315.295C319.717 300.07 328.831 284.362 337.145 268.23C348.856 245.124 357.937 220.778 364.218 195.647Z"/><path fill="#98B0E0" transform="scale(0.5 0.5)" d="M387.015 76.199L390.016 75.9945C392.548 79.6548 393.034 101.695 393.785 107.721C394.819 116.021 396.403 124.145 398.315 132.284L387.954 131.179C383.315 130.202 378.463 130.034 373.743 129.662C374.104 113.057 374.554 96.2931 372.915 79.7453L387.015 76.199Z"/><path fill="#98B0E0" transform="scale(0.5 0.5)" d="M248.656 386.546C240.076 390.438 197.43 421.422 187.109 421.51L185.227 416.525C186.424 411.933 221.027 393.81 227.302 389.591C242.714 379.226 256.528 366.424 271.556 355.734C272.271 355.226 273.333 356.251 273.996 356.669C273.776 359.025 272.906 360.038 271.677 362.043C262.493 375.224 261.22 376.958 248.656 386.546Z"/><path fill="#98B0E0" transform="scale(0.5 0.5)" d="M182.441 430.039L183.325 430.22C187.315 435.348 196.955 480.932 198.962 489.417C198.136 492.661 196.273 499.604 193.63 501.659L192.853 500.181C187.837 478.453 177.988 456.186 170.384 435.149C174.476 433.675 178.455 431.779 182.441 430.039Z"/><path fill="#98B0E0" transform="scale(0.5 0.5)" d="M111.316 464.052L114.013 462.288C141.154 481.515 167.497 504.905 186.201 532.579C184.775 537.566 184 540.141 183.456 545.404C164.448 516.421 137.764 486.731 111.316 464.052Z"/><path fill="#98B0E0" transform="scale(0.5 0.5)" d="M328.083 126.638C341.096 128.852 354.516 130.978 367.447 133.447C367.087 136.213 365.804 148.603 365.163 150.006C351.827 148.229 339.158 145.975 325.913 143.618C327.131 137.152 327.593 133.202 328.083 126.638Z"/><path fill="#67769D" transform="scale(0.5 0.5)" d="M557.134 177.195C573.585 189.796 584.269 196.844 603.175 205.961C613.208 210.427 623.27 214.829 633.359 219.167C621.761 216.694 609.978 214.321 598.521 211.305C581.325 205.863 570.865 201.649 555.326 192.984C556.168 187.392 556.662 182.81 557.134 177.195Z"/><path fill="#98B0E0" transform="scale(0.5 0.5)" d="M494.032 145.966C506.855 145.18 520.184 146.383 533.001 147.116C536.414 153.824 540.774 159.416 545.462 165.274C536.281 165.188 527.012 164.277 517.822 163.899C509.4 158.68 501.766 152.139 494.032 145.966Z"/><path fill="#98B0E0" transform="scale(0.5 0.5)" d="M299.258 349.084C308.745 353.1 321.743 363.251 330.934 369.039L322.515 380.454C311.186 374.302 300.226 366.965 289.157 360.312C292.254 356.368 295.847 352.759 299.258 349.084Z"/><path fill="#98B0E0" transform="scale(0.5 0.5)" d="M169.091 380.054C172.28 382.375 177.507 406.517 178.965 411.935C174.643 414.44 169.874 416.388 165.346 418.505C161.206 413.096 156.847 396.068 154.403 389.232C159.183 386.027 164.201 383.093 169.091 380.054Z"/><path fill="#98B0E0" transform="scale(0.5 0.5)" d="M373.105 133.753C381.827 133.964 390.893 135.845 399.503 137.19L404.685 155.448C394.357 152.682 382.341 152.07 371.716 150.519C372.702 144.947 372.878 139.393 373.105 133.753Z"/><path fill="#98B0E0" transform="scale(0.5 0.5)" d="M159.657 424.954C160.015 425.261 160.128 425.326 160.431 425.769C161.954 427.994 162.646 430.194 162.408 432.79C154.576 436.913 112.83 450.761 105.606 448.762C103.147 447.517 100.991 446.315 98.829 444.581C104.423 441.181 115.359 439.871 122.067 437.859C134.707 434.066 147.472 430.033 159.657 424.954Z"/><path fill="#98B0E0" transform="scale(0.5 0.5)" d="M326.742 71.2844C339.189 68.6241 351.85 66.8298 364.252 64.0789C364.929 67.9259 365.576 72.0829 366.437 75.8665C355.122 78.178 339.726 80.8866 328.87 83.7832C327.519 80.8483 327.136 74.7489 326.742 71.2844Z"/><path fill="#98B0E0" transform="scale(0.5 0.5)" d="M209.273 533.681C216.167 544.178 217.878 573.791 216.514 586.24L215.917 585.616C210.956 573.898 207.773 561.203 203.101 549.285L209.273 533.681Z"/><path fill="#98B0E0" transform="scale(0.5 0.5)" d="M440.969 40.1034C442.022 44.2485 441.095 50.162 440.976 54.4983C434.235 56.7384 427.001 59.7757 419.985 60.7787L418.502 59.6431L413.006 50.3641C422.416 47.1914 431.74 43.77 440.969 40.1034Z"/><path fill="#7382AC" transform="scale(0.5 0.5)" d="M555.326 192.984C543.657 186.119 536.33 181.687 526.214 172.775C534.642 173.254 544.651 173.017 553.201 173.025L557.134 177.195C556.662 182.81 556.168 187.392 555.326 192.984Z"/><path fill="#98B0E0" transform="scale(0.5 0.5)" d="M439.92 60.258C442.518 65.6998 438.641 80.8304 437.616 87.2386C435.95 85.0839 434.526 82.5789 433.039 80.2868C429.501 75.7563 426.411 70.7026 423.207 65.9229C428.818 64.34 434.393 62.1421 439.92 60.258Z"/><path fill="#7C8CB5" transform="scale(0.5 0.5)" d="M422.12 455.634C424.36 457.406 436.284 466.568 437.18 468.07C435.739 470.584 436.495 473.445 436.883 476.366C431.227 473.689 419.609 469.651 413.35 467.244C417.172 463.043 419.014 460.267 422.12 455.634Z"/><path fill="#98B0E0" transform="scale(0.5 0.5)" d="M407.034 52.0662C409.888 54.2287 412.017 59.7413 413.76 62.9305L397.199 67.9662C395.804 68.3818 394.387 68.4797 392.946 68.6238C391.83 65.1236 390.429 62.5358 391.591 58.9909C395.153 55.4183 402.268 53.9509 407.034 52.0662Z"/><path fill="#98B0E0" transform="scale(0.5 0.5)" d="M229.775 507.871C229.85 511.956 220.271 540.581 218.658 547.491L217.492 546.68C215.882 540.207 214.209 533.75 212.472 527.31C218.121 520.734 223.683 514.045 229.775 507.871Z"/><path fill="#98B0E0" transform="scale(0.5 0.5)" d="M387.516 58.2445L388.452 58.4219C388.945 59.3595 389.358 60.2907 389.642 61.316C390.364 63.9217 390.383 66.5565 389.053 68.9456C385.301 72.5391 379.138 72.9511 374.165 74.0727C374.013 74.0094 373.847 73.9713 373.708 73.8828C371.383 72.4058 371.3 65.3758 370.923 62.5973L387.516 58.2445Z"/><path fill="#98B0E0" transform="scale(0.5 0.5)" d="M200.714 502.733C203.628 505.138 206.407 521.287 207.612 525.657L202.953 534.791L202.604 535.248C199.748 533.082 197.433 520.013 196.35 516.023C197.63 511.553 199.241 507.145 200.714 502.733Z"/><path fill="#98B0E0" transform="scale(0.5 0.5)" d="M201.025 559.591C201.394 559.972 201.712 560.358 202.023 560.791C205.003 564.939 214.236 594.56 213.367 599.284C209.507 589.807 200.007 577.014 199.334 567.043C199.182 564.795 200.369 561.749 201.025 559.591Z"/><path fill="#98B0E0" transform="scale(0.5 0.5)" d="M179.846 416.057C180.137 416.382 180.236 416.463 180.466 416.901C181.824 419.488 182.22 421.407 181.462 424.127C178.546 427.374 173.301 428.799 169.314 430.401C168.191 428.234 167.201 426.507 167.23 423.984C169.022 420.109 176.011 417.843 179.846 416.057Z"/><path fill="#98B0E0" transform="scale(0.5 0.5)" d="M190.365 539.618C193.513 542.462 195.566 547.664 197.586 551.408L194.36 562.199C191.576 559.204 189.744 554.425 187.852 550.78C188.671 547.055 189.508 543.334 190.365 539.618Z"/><path fill="#9199BE" transform="scale(0.5 0.5)" d="M437.18 468.07C445.636 474.39 453.427 481.255 461.746 487.606C453.907 483.904 444.889 479.383 436.883 476.366C436.495 473.445 435.739 470.584 437.18 468.07Z"/><path fill="#98B0E0" transform="scale(0.5 0.5)" d="M291.109 343.705C292.235 344.329 293.084 345.162 294.013 346.035C293.529 349.848 288.36 354.168 285.729 356.988C285.067 356.933 284.264 356.516 283.637 356.278C284.351 352.08 288.683 347.241 291.109 343.705Z"/><path fill="#BCA692" transform="scale(0.5 0.5)" d="M366.67 228.582C366.834 225.157 366.707 214.783 368.453 212.671L367.945 211.978L368.375 211.412C369.34 218.023 369.327 221.484 369.301 228.118L366.67 228.582Z"/><path fill="#98B0E0" transform="scale(0.5 0.5)" d="M99.6916 452.273C105.4 455.847 108.781 458.052 114.013 462.288L111.316 464.052C105.759 459.368 104.074 458.227 99.6916 452.273Z"/><path fill="#98B0E0" transform="scale(0.5 0.5)" d="M762.989 0L769.93 0L840.901 0L856.48 0L926.235 0L933.983 0L952.125 0C937.802 22.8483 931.634 39.7289 956.887 57.3427C929.915 70.1218 903.876 90.8188 892.786 119.364C887.036 134.165 888.784 147.539 900.257 158.669C854.138 168.559 796.334 206.229 807.605 261.458C810.251 274.423 818.062 287.706 827.314 297.137C809.766 309.419 794.628 319.382 783.068 337.988C780.305 342.436 778.509 346.762 776.049 350.814C769.918 370.793 767.738 388.211 778.058 407.589C779.955 411.189 782.067 414.67 784.384 418.015C786.692 415.705 792.762 409.341 795.058 407.665C801.373 407.251 816.303 391.361 829.309 386.238L829.516 387.457C828.491 388.073 827.47 388.696 826.453 389.324C821.156 392.603 811.656 398.153 810.342 403.771C774.369 439.4 756.531 478.223 754.453 529.872C753.874 544.278 755.904 554.093 753.643 569.316C744.263 638.992 702.957 706.494 646.842 750.283C628.004 764.982 566.046 800.093 542.271 770.59C523.155 746.869 564.152 703.315 582.404 691.603C591.617 684.373 621.317 669.724 617.8 696.001C615.861 710.497 591.864 730.538 580.024 736.702C569.129 742.884 560.559 736.095 555.1 741.632C553.361 749.531 563.566 754.691 569.892 755.261C598.059 757.8 632.582 737.262 653.758 721.26C702.138 684.198 736.524 631.828 751.301 572.702C740.65 577.159 712.733 595.062 701.332 601.745C690.503 608.094 663.681 622.422 654.672 629.077C653.905 625.645 653.164 620.618 651.105 618.003C650.215 621.23 651.689 626.841 652.595 630.216C638.377 635.388 613.861 650.762 599.336 658.051C596.875 643.085 585.881 634.36 570.904 638.381C530.9 649.12 505.284 683.004 492.949 720.199C442.178 743.989 392.416 768.201 339.65 787.393C335.301 788.975 326.215 792.193 322.325 794.326C296.727 803.087 271.514 813.03 245.714 821.725C229.995 825.956 212.996 832.011 197.123 836.54C191.833 838.05 170.266 844.143 166.188 845.901C162.446 846.873 156.139 848.309 152.702 849.584C138.856 853.149 112.505 860.025 99.0493 862.314C69.2014 869.649 38.7744 874.447 8.53747 879.867C5.68198 880.379 2.81501 880.819 0 881.528L0 761.008L0 752.953L0 737.577L0 732.96L0 724.876C18.7543 725.335 37.0594 726.755 56.1498 726.205C100.737 724.921 159.024 718.283 201.666 705.67L205.466 704.338C209.841 704.64 234.138 698 236.38 694.837L239.658 695.106C247.206 693.249 258.704 688.835 266.328 686.162C287.722 678.102 317.415 665 337.491 654.244C342.206 652.219 355.362 644.883 360.488 642.052C376.894 632.992 397.717 622.289 412.786 611.261C428.263 603.775 463.55 575.509 477.086 564.356C480.19 561.687 483.374 559.112 486.633 556.635L492.048 555.486L493.143 556.887L492.447 560.539C502.581 552.389 511.217 542.597 521.049 535.094C523.211 535.844 523.382 536.02 525.524 535.522L523.048 532.496C521.223 531.271 519.206 529.717 517.404 528.401C523.49 522.274 529.309 516.401 535.135 510.004L536.092 508.711C539.014 506.508 543.017 502.047 545.664 499.28C550.625 493.816 555.643 488.403 560.717 483.044C562.658 479.937 572.176 469.804 575.68 465.085C586.234 454.222 599.497 435.053 608.497 422.646C656.402 356.606 685.841 292.488 711.141 215.643C720.336 181.519 727.403 153.883 732.342 119.032C733.336 113.282 733.915 107.468 734.568 101.668L735.387 99.9429C737.622 101.689 736.75 101.509 739.231 101.703L742.034 97.8841L742.813 97.9769C745.569 95.8956 755.666 91.0343 760.621 87.7028C763.151 62.9298 763.059 39.2777 763.172 14.4454L762.989 0Z"/><path fill="#7C8CB5" transform="scale(0.5 0.5)" d="M769.93 0L840.901 0L856.48 0L926.235 0L933.983 0L952.125 0C937.802 22.8483 931.634 39.7289 956.887 57.3427C929.915 70.1218 903.876 90.8188 892.786 119.364C887.036 134.165 888.784 147.539 900.257 158.669C854.138 168.559 796.334 206.229 807.605 261.458C810.251 274.423 818.062 287.706 827.314 297.137C809.766 309.419 794.628 319.382 783.068 337.988C780.305 342.436 778.509 346.762 776.049 350.814C769.625 354.736 762.889 360.305 757.01 365.086C719.502 395.588 679.42 422.822 637.607 447.065C634.736 448.729 631.998 450.377 628.872 451.588C709.784 338.896 752.527 232.903 767.499 94.1537L768.275 84.0391C769.796 74.8964 769.959 58.0289 770.235 48.396L769.93 0Z"/><path fill="#7C8CB5" transform="scale(0.5 0.5)" d="M769.93 0L840.901 0C826.296 35.6901 800.291 63.3132 768.275 84.0391C769.796 74.8964 769.959 58.0289 770.235 48.396L769.93 0Z"/><path fill="#98B0E0" transform="scale(0.5 0.5)" d="M840.901 0L856.48 0C850.91 10.6088 842.571 24.6339 835.687 34.062C823.812 50.3242 785.77 91.5168 769.087 99.6613L767.94 98.8874L767.499 94.1537L768.275 84.0391C800.291 63.3132 826.296 35.6901 840.901 0Z"/><path fill="#B8C8EE" transform="scale(0.5 0.5)" d="M926.235 0L933.983 0C933.869 8.905 928.661 15.4103 919.536 15.8841C916.4 14.5804 917.322 15.4983 916.02 12.5184C917.066 6.41676 921.483 3.80412 926.235 0Z"/><path fill="#B8C8EE" transform="scale(0.5 0.5)" d="M894.298 57.0945C899.055 56.8843 902.231 57.049 905.979 60.2961C906.928 62.6724 907.474 63.9044 906.702 66.4894C904.151 75.0351 895.236 80.9915 887.738 84.8285C885.373 85.0009 882.642 85.3624 880.3 84.9923C878.013 84.6311 876.601 83.1165 875.259 81.3672C874.457 78.7159 874.398 76.7707 875.48 74.1839C879.079 65.5761 885.999 60.5755 894.298 57.0945Z"/><path fill="#B8C8EE" transform="scale(0.5 0.5)" d="M767.201 316.164C770.281 315.879 773.526 315.54 776.557 316.357C779.346 317.108 780.302 318.528 781.667 320.861C781.725 322.169 781.718 323.524 781.282 324.774C778.349 333.174 769.722 338.037 762.252 341.718C757.184 342.249 753.288 342.937 748.965 339.635C747.733 337.01 747.231 335.374 748.33 332.547C751.61 324.115 759.45 319.678 767.201 316.164Z"/><path fill="#B8C8EE" transform="scale(0.5 0.5)" d="M813.507 122.052C814.498 122.092 815.513 122.132 816.489 122.312C819.351 122.841 820.693 124.259 822.325 126.504C822.533 128.304 822.521 129.755 821.82 131.456C818.893 138.548 812.091 142.183 805.47 144.993C804.302 144.932 802.733 144.947 801.608 144.56C798.981 143.656 798.362 142.695 797.001 140.459C796.902 138.628 796.97 137.052 797.739 135.376C800.988 128.296 806.492 124.693 813.507 122.052Z"/><path fill="#B8C8EE" transform="scale(0.5 0.5)" d="M783.77 234.034C784.522 233.924 785.305 233.781 786.07 233.789C788.512 233.814 789.006 234.018 790.651 235.655C790.663 236.361 790.716 236.663 790.582 237.315C789.846 240.892 785.914 243.577 783.182 245.587C782.554 245.682 781.934 245.788 781.297 245.775C778.66 245.722 778.196 245.64 776.464 243.808C776.474 243.36 776.469 243.158 776.533 242.682C777.067 238.745 780.78 236.152 783.77 234.034Z"/><path fill="#B8C8EE" transform="scale(0.5 0.5)" d="M750.064 283.399C752.412 283.942 752.97 283.996 754.65 285.672C754.036 288.763 752.286 290.14 750.254 292.506C747.884 291.893 747.598 291.888 746.082 290.001C746.285 287.207 748.308 285.429 750.064 283.399Z"/><path fill="#B8C8EE" transform="scale(0.5 0.5)" d="M828.229 170.56C830.469 171.147 830.804 170.92 832.072 172.97C831.431 175.784 828.938 177.305 826.791 178.991C824.815 178.278 824.469 178.304 823.235 176.501C823.744 173.891 826.31 172.245 828.229 170.56Z"/><path fill="#7C8CB5" transform="scale(0.5 0.5)" d="M762.989 0L769.93 0L770.235 48.396C769.959 58.0289 769.796 74.8964 768.275 84.0391L767.499 94.1537C752.527 232.903 709.784 338.896 628.872 451.588C596.6 493.638 564.186 531.443 524.729 567.518C416.342 666.615 276.228 734.835 130.436 755.221C127.193 755.675 112.383 756.805 110.334 757.751C74.5864 760.664 35.8559 763.996 0 761.008L0 752.953L0 737.577L0 732.96L0 724.876C18.7543 725.335 37.0594 726.755 56.1498 726.205C100.737 724.921 159.024 718.283 201.666 705.67L205.466 704.338C209.841 704.64 234.138 698 236.38 694.837L239.658 695.106C247.206 693.249 258.704 688.835 266.328 686.162C287.722 678.102 317.415 665 337.491 654.244C342.206 652.219 355.362 644.883 360.488 642.052C376.894 632.992 397.717 622.289 412.786 611.261C428.263 603.775 463.55 575.509 477.086 564.356C480.19 561.687 483.374 559.112 486.633 556.635L492.048 555.486L493.143 556.887L492.447 560.539C502.581 552.389 511.217 542.597 521.049 535.094C523.211 535.844 523.382 536.02 525.524 535.522L523.048 532.496C521.223 531.271 519.206 529.717 517.404 528.401C523.49 522.274 529.309 516.401 535.135 510.004L536.092 508.711C539.014 506.508 543.017 502.047 545.664 499.28C550.625 493.816 555.643 488.403 560.717 483.044C562.658 479.937 572.176 469.804 575.68 465.085C586.234 454.222 599.497 435.053 608.497 422.646C656.402 356.606 685.841 292.488 711.141 215.643C720.336 181.519 727.403 153.883 732.342 119.032C733.336 113.282 733.915 107.468 734.568 101.668L735.387 99.9429C737.622 101.689 736.75 101.509 739.231 101.703L742.034 97.8841L742.813 97.9769C745.569 95.8956 755.666 91.0343 760.621 87.7028C763.151 62.9298 763.059 39.2777 763.172 14.4454L762.989 0Z"/><path fill="#E8D0B4" transform="scale(0.5 0.5)" d="M762.989 0L769.93 0L770.235 48.396C769.959 58.0289 769.796 74.8964 768.275 84.0391L767.499 94.1537C752.527 232.903 709.784 338.896 628.872 451.588C596.6 493.638 564.186 531.443 524.729 567.518C416.342 666.615 276.228 734.835 130.436 755.221C127.193 755.675 112.383 756.805 110.334 757.751C74.5864 760.664 35.8559 763.996 0 761.008L0 752.953C48.4007 754.624 90.7383 753.553 139.316 746.228C427.879 702.714 677.403 471.319 744.698 187.77C750.535 163.175 756.441 132.169 758.333 106.892C759.267 102.605 760.101 92.4784 760.621 87.7028C763.151 62.9298 763.059 39.2777 763.172 14.4454L762.989 0Z"/><path fill="#E8D0B4" transform="scale(0.5 0.5)" d="M486.633 556.635L492.048 555.486L493.143 556.887L492.447 560.539C487.244 565.737 481.722 569.881 476.768 574.681C456.056 590.877 440.114 602.842 418.074 616.932C402.058 626.845 385.745 636.269 369.156 645.191C359.835 650.269 346.598 656.906 337.901 662.308L325.8 668.45C308.938 676.765 289.715 684.45 272.188 691.638C208.766 713.947 153.072 727.579 85.2881 732.516C62.9884 734.14 44.6961 733.331 23.2044 734.11C15.4811 733.522 7.74356 733.139 5.32907e-15 732.96L0 724.876C18.7543 725.335 37.0594 726.755 56.1498 726.205C100.737 724.921 159.024 718.283 201.666 705.67L205.466 704.338C209.841 704.64 234.138 698 236.38 694.837L239.658 695.106C247.206 693.249 258.704 688.835 266.328 686.162C287.722 678.102 317.415 665 337.491 654.244C342.206 652.219 355.362 644.883 360.488 642.052C376.894 632.992 397.717 622.289 412.786 611.261C428.263 603.775 463.55 575.509 477.086 564.356C480.19 561.687 483.374 559.112 486.633 556.635Z"/><path fill="#E8D0B4" transform="scale(0.5 0.5)" d="M735.387 99.9429C737.622 101.689 736.75 101.509 739.231 101.703L742.034 97.8841C741.979 105.447 741.298 109.546 740.07 117.063C734.311 159.716 725.874 185.399 715.547 225.434C688.802 301.677 668.275 348.307 621.78 416.228C612.731 429.264 603.361 442.074 593.679 454.646C590.861 458.253 571.485 480.896 570.596 483.04L566 487.251C562.773 491.675 543.835 511.102 543.682 513.361L547.408 517.56C544.548 516.918 543.588 515.966 541.221 514.276L523.048 532.496C521.223 531.271 519.206 529.717 517.404 528.401C523.49 522.274 529.309 516.401 535.135 510.004L536.092 508.711C539.014 506.508 543.017 502.047 545.664 499.28C550.625 493.816 555.643 488.403 560.717 483.044C562.658 479.937 572.176 469.804 575.68 465.085C586.234 454.222 599.497 435.053 608.497 422.646C656.402 356.606 685.841 292.488 711.141 215.643C720.336 181.519 727.403 153.883 732.342 119.032C733.336 113.282 733.915 107.468 734.568 101.668L735.387 99.9429Z"/><path fill="#7382AC" transform="scale(0.5 0.5)" d="M566 487.251L570.596 483.04C564.259 509.147 504.346 573.115 476.863 576.241L476.768 574.681C481.722 569.881 487.244 565.737 492.447 560.539C502.581 552.389 511.217 542.597 521.049 535.094C523.211 535.844 523.382 536.02 525.524 535.522L523.048 532.496L541.221 514.276C543.588 515.966 544.548 516.918 547.408 517.56L543.682 513.361C543.835 511.102 562.773 491.675 566 487.251Z"/><path fill="#67769D" transform="scale(0.5 0.5)" d="M476.768 574.681L476.863 576.241C470.325 608.453 448.08 618 418.074 616.932C440.114 602.842 456.056 590.877 476.768 574.681Z"/><path fill="#67769D" transform="scale(0.5 0.5)" d="M272.188 691.638C289.715 684.45 308.938 676.765 325.8 668.45C328.44 669.046 330.103 668.9 331.631 670.585L329.094 673.658L329.694 674.638C317.087 689.151 290.508 705.094 272.188 691.638Z"/><path fill="#98B0E0" transform="scale(0.5 0.5)" d="M742.813 97.9769C745.569 95.8956 755.666 91.0343 760.621 87.7028C760.101 92.4784 759.267 102.605 758.333 106.892C752.354 110.213 745.937 113.625 740.07 117.063C741.298 109.546 741.979 105.447 742.034 97.8841L742.813 97.9769Z"/><path fill="#7382AC" transform="scale(0.5 0.5)" d="M5.32907e-15 732.96C7.74356 733.139 15.4811 733.522 23.2044 734.11L26.5385 736.178C23.0885 738.413 6.90975 736.381 0 737.577L0 732.96L5.32907e-15 732.96Z"/><path fill="#67769D" transform="scale(0.5 0.5)" d="M337.901 662.308C337.26 667.339 333.236 671.296 329.694 674.638L329.094 673.658L331.631 670.585C330.103 668.9 328.44 669.046 325.8 668.45L337.901 662.308Z"/><path fill="#7C8CB5" transform="scale(0.5 0.5)" d="M0 761.008C35.8559 763.996 74.5864 760.664 110.334 757.751C92.5946 765.414 73.0198 781.744 65.8144 800.113C57.7075 820.78 64.4283 844.158 83.7016 855.843C88.5244 858.767 93.9209 860.079 99.0493 862.314C69.2014 869.649 38.7744 874.447 8.53747 879.867C5.68198 880.379 2.81501 880.819 0 881.528L0 761.008Z"/><path fill="#7C8CB5" transform="scale(0.5 0.5)" d="M152.702 849.584C148.431 847.378 144.562 844.469 141.257 840.978C114.376 812.273 152.964 774.446 183.693 776.014C190.509 776.362 203.652 783.163 201.72 791.102C198.023 806.293 179.061 811.613 168.149 820.332C158.566 828.237 158.237 836.732 166.188 845.901C162.446 846.873 156.139 848.309 152.702 849.584Z"/><path fill="#7C8CB5" transform="scale(0.5 0.5)" d="M245.714 821.725C240.773 778.229 317.632 750.118 322.325 794.326C296.727 803.087 271.514 813.03 245.714 821.725Z"/><path fill="#B8C8EE" transform="scale(0.5 0.5)" d="M649.396 565.181C653.259 564.82 658.019 564.344 661.558 566.229C662.834 566.909 664.567 568.495 664.974 569.879C665.784 572.631 665.379 574.716 664.033 577.184C660.266 584.093 653.489 587.742 646.196 589.899C642.747 590.103 638.309 590.71 635.04 589.441C632.149 588.319 631.34 586.623 630.284 583.929C630.373 582.197 630.558 580.578 631.323 579.002C635.003 571.422 641.881 567.949 649.396 565.181Z"/><path fill="#B8C8EE" transform="scale(0.5 0.5)" d="M696.129 465.197C697.402 465.266 698.704 465.328 699.962 465.547C702.727 466.027 704.295 467.249 705.897 469.425C706.031 470.819 706.076 472.227 705.587 473.565C702.67 481.548 693.898 486.415 686.552 489.488C684.404 489.43 682.039 489.479 679.934 489.057C677.21 488.512 676.26 487.003 674.767 484.916C674.366 482.319 674.891 480.363 676.293 478.179C680.861 471.063 688.079 467.021 696.129 465.197Z"/><path fill="#B8C8EE" transform="scale(0.5 0.5)" d="M378.254 751.082C381.921 750.859 384.368 750.857 387.385 752.999L387.757 755.42C385.338 760.908 380.783 763.175 375.736 765.807C373.429 765.98 371.173 765.833 368.869 765.707C366.746 764.38 366.649 764.475 366.075 762.061C368.613 756.338 373.031 754.004 378.254 751.082Z"/><path fill="#B8C8EE" transform="scale(0.5 0.5)" d="M481.327 657.091C483.656 656.95 485.816 657.053 488.133 657.311C490.159 658.838 490.238 658.795 490.671 661.28C488.347 666.537 484.846 668.411 479.853 670.935C476.276 671.541 473.594 671.611 470.584 669.571L470.239 667.121C472.612 661.753 476.203 659.638 481.327 657.091Z"/><path fill="white" transform="scale(0.5 0.5)" d="M567.516 585.781C569.902 588.201 568.703 592.641 570.598 595.683C572.767 594.606 574.952 593.214 577.417 593.152L574.545 595.958L574.563 597.895C577.608 602.27 585.773 605.978 590.383 609.079C586.704 607.775 582.125 605.512 578.233 605.485L580.063 607.141L578.542 607.829C574.706 605.561 572.384 603.866 567.785 604.282C565.418 606.429 564.19 607.258 560.896 607.546L559.998 606.645L561.353 603.983C558.844 603.138 556.222 603.826 553.566 603.458C556.552 600.823 562.036 599.764 565.823 598.547C565.975 594.288 566.86 589.99 567.516 585.781Z"/><path fill="#B8C8EE" transform="scale(0.5 0.5)" d="M510.933 630.039C512.511 630.044 514.077 630.519 515.609 630.867C517.227 632.45 517.321 632.381 517.352 634.625C514.63 639.966 510.43 642.304 505.163 644.805C502.902 644.578 501.213 644.172 499.154 643.203C497.875 641.113 497.803 641.033 498.16 638.619C501.729 633.569 505.1 631.922 510.933 630.039Z"/><path fill="#B8C8EE" transform="scale(0.5 0.5)" d="M322.006 738.166C324.175 737.985 326.505 737.686 328.676 737.829C331.354 738.006 332.173 739.057 333.712 740.986L333.393 743.34C331.313 746.607 328.491 747.884 325.131 749.608C324.335 749.715 323.537 749.806 322.737 749.882C319.415 750.186 317.413 749.855 314.867 747.724L314.85 744.975C316.3 741.545 318.998 740.107 322.006 738.166Z"/><path fill="#B8C8EE" transform="scale(0.5 0.5)" d="M645.492 456.739C648.128 457.138 649.096 456.939 650.919 459.014L650.595 461.164C648.361 464.24 646.095 465.873 642.844 467.806C640.401 467.769 639.98 467.753 637.954 466.424L638.009 463.996C639.919 460.587 642.294 458.902 645.492 456.739Z"/><path fill="#B8C8EE" transform="scale(0.5 0.5)" d="M716.858 546.778L718.742 548.617L718.758 550.92C716.986 553.877 714.345 555.179 711.446 556.854C709.781 555.29 709.722 555.225 709.445 552.962C710.814 549.928 714.136 548.447 716.858 546.778Z"/><path fill="#B8C8EE" transform="scale(0.5 0.5)" d="M420.079 696.821C422.572 697.011 424.12 696.64 425.935 698.531C424.744 701.223 423.399 701.917 421.092 703.686C418.664 703.639 418.174 703.797 416.271 702.359C416.978 699.58 418.095 698.794 420.079 696.821Z"/><path fill="#B8C8EE" transform="scale(0.5 0.5)" d="M952.125 0L980.314 0L1062.75 0L1097.21 0L1127.53 0C1120.81 22.3023 1080.09 51.2836 1060.44 64.3683C1075.35 60.3397 1099.23 54.1547 1114.61 56.1087C1149.1 60.4902 1137.1 93.6255 1121.98 110.922C1143.89 105.425 1185.41 93.8026 1194.6 123.853C1196.32 130.705 1193.86 140.213 1189.91 145.743C1180.68 158.679 1159.32 164.452 1144.5 171.466C1100.34 192.369 1059.02 244.963 1109.38 286.654C1079.02 319.194 1035.3 360.244 1001.55 389.148C1006.77 375.186 1010.77 360.312 1004.04 345.842C1000.46 338.15 993.926 332.228 985.921 329.416C961.317 320.517 925.846 343.228 919.11 367.085C909.735 400.291 933.946 421.652 965.718 419.298C911.013 466.532 846.954 512.198 786.034 550.898C780.704 554.284 758.626 568.026 753.643 569.316C755.904 554.093 753.874 544.278 754.453 529.872C756.531 478.223 774.369 439.4 810.342 403.771C811.656 398.153 821.156 392.603 826.453 389.324C827.47 388.696 828.491 388.073 829.516 387.457L829.309 386.238C816.303 391.361 801.373 407.251 795.058 407.665C792.762 409.341 786.692 415.705 784.384 418.015C782.067 414.67 779.955 411.189 778.058 407.589C767.738 388.211 769.918 370.793 776.049 350.814C778.509 346.762 780.305 342.436 783.068 337.988C794.628 319.382 809.766 309.419 827.314 297.137C818.062 287.706 810.251 274.423 807.605 261.458C796.334 206.229 854.138 168.559 900.257 158.669C888.784 147.539 887.036 134.165 892.786 119.364C903.876 90.8188 929.915 70.1218 956.887 57.3427C931.634 39.7289 937.802 22.8483 952.125 0Z"/><path fill="#7C8CB5" transform="scale(0.5 0.5)" d="M980.314 0L1062.75 0C1050.94 41.2421 1045.84 41.7446 1004.59 46.2332C956.914 51.4223 944.348 39.0961 980.314 0Z"/><path fill="#7382AC" transform="scale(0.5 0.5)" d="M1097.21 0L1127.53 0C1120.81 22.3023 1080.09 51.2836 1060.44 64.3683C1057.4 65.6767 1051.39 69.818 1048.36 71.7797C1062.5 46.4646 1078.85 22.4451 1097.21 0Z"/><path fill="#9199BE" transform="scale(0.5 0.5)" d="M795.058 407.665C816.086 386.623 839.114 376.657 867.87 371.895C843.968 380.264 830.438 387.411 810.342 403.771C811.656 398.153 821.156 392.603 826.453 389.324C827.47 388.696 828.491 388.073 829.516 387.457L829.309 386.238C816.303 391.361 801.373 407.251 795.058 407.665Z"/><path fill="#B8C8EE" transform="scale(0.5 0.5)" d="M1092.96 75.2003C1096.67 75.6288 1100.16 76.3299 1103.71 77.5198C1108.37 79.0801 1113.04 81.329 1115.25 85.9791C1124.27 104.907 1084.03 138.35 1073.69 153.033C1065.42 164.772 1059.69 177.868 1054.99 191.357C1054.13 190.589 1053.25 189.843 1052.36 189.119C1042.65 181.341 1030.67 183.098 1019.21 184.345C1019.15 184.371 1019.1 184.408 1019.04 184.425C1012.86 186.222 998.905 187.973 993.167 184.344C990.817 182.858 989.699 180.672 989.227 177.994C987.41 167.689 997.651 153.215 1003.38 145.236C1025.4 114.585 1053.93 81.6384 1092.96 75.2003Z"/><path fill="#7C8CB5" transform="scale(0.5 0.5)" d="M1082.47 81.002C1085.34 80.8332 1088.54 80.8122 1091.03 82.4366C1093.35 83.9465 1094.81 86.2983 1095.42 88.9579C1097.72 98.9869 1090.57 114.998 1085.37 123.503C1076.99 137.184 1063.84 150.126 1047.91 153.968C1046.21 153.99 1044.75 153.787 1043.13 153.233C1040.2 152.228 1037.42 149.789 1036.23 146.919C1033.35 140.004 1036.91 129.903 1039.62 123.268C1047.58 103.797 1063.23 89.0565 1082.47 81.002Z"/><path fill="#7C8CB5" transform="scale(0.5 0.5)" d="M910.802 170.41C916.985 168.961 924.675 170.404 930.869 171.283C926.921 182.543 924.348 194.17 926.542 206.115C928.477 216.647 933.862 223.928 942.603 229.85C935.22 238.523 927.138 246.655 919.676 255.293C917.551 252.514 915.067 249.785 912.262 247.684C900.962 239.22 888.197 240.79 875.167 242.648C868.128 244.61 860.751 246.504 853.507 247.448C846.861 248.313 838.524 248.58 832.984 244.145C830.654 242.279 829.287 239.591 828.997 236.629C828.056 227.003 835.634 215.984 841.475 208.758C858.071 188.225 884.522 173.142 910.802 170.41Z"/><path fill="#B8C8EE" transform="scale(0.5 0.5)" d="M865.581 196.517C867.702 198.32 867.969 198.334 868.388 201.05C867.176 204.202 864.276 205.946 861.681 207.914C860.559 207.369 859.606 206.596 858.601 205.862L858.394 203.7C859.801 200.509 862.904 198.595 865.581 196.517Z"/><path fill="#7C8CB5" transform="scale(0.5 0.5)" d="M1000.64 61.3512C1004.98 61.2483 1009.81 62.2617 1013.52 64.5614C1017.59 67.081 1019.84 71.1285 1020.8 75.7362C1022.6 84.2887 1018.94 92.8275 1014.27 99.8341C998.142 124.062 965.492 143.562 937.305 149.308C930.315 149.092 924.912 147.749 919.181 143.519C916.16 141.29 914.329 137.927 913.884 134.223C912.612 123.625 920.195 112.264 926.648 104.398C943.243 84.1715 974.213 63.937 1000.64 61.3512Z"/><path fill="#7C8CB5" transform="scale(0.5 0.5)" d="M886.789 252.307C890.389 251.814 894.381 251.787 897.94 252.538C905.739 254.183 909.802 259.34 913.956 265.61C906.236 271.562 899.541 278.946 892.873 286.025C899.101 285.094 904.488 283.034 910.305 280.714L911.287 281.471C911.209 282.168 911.103 282.853 910.915 283.531C908.213 293.241 894.099 303.494 885.89 308.053C882.228 309.643 878.418 310.866 874.515 311.705C866.878 313.421 857.369 313.436 850.59 308.998C846.366 306.232 843.643 301.896 842.699 296.961C841.195 289.103 844.293 281.215 848.731 274.846C857.902 261.683 871.469 255.07 886.789 252.307Z"/><path fill="#B8C8EE" transform="scale(0.5 0.5)" d="M1037.98 194.433C1040.41 194.566 1043.21 195.027 1045.31 196.299C1047.89 197.86 1049.78 199.897 1050.48 202.908C1052.12 209.971 1045.8 220.044 1041.95 225.799C1030.16 243.44 1011.78 258.834 990.667 263.098C987.702 262.712 984.176 262.484 981.658 260.728C978.895 258.801 977.22 255.708 976.831 252.4C975.693 242.722 984.175 229.825 990.051 222.506C1002.02 207.601 1018.79 196.583 1037.98 194.433Z"/><path fill="#B8C8EE" transform="scale(0.5 0.5)" d="M1166.58 0L1320.69 0C1316.12 10.6068 1301.06 36.1225 1294.86 46.4232C1256.6 110.009 1212.54 173.762 1163.21 229.422C1158.42 233.742 1148.29 247.966 1143.05 250.124C1125.97 257.152 1104.34 235.184 1111.72 217.403C1123.89 188.098 1146.75 178.251 1173.4 166.217C1196.74 155.682 1213.99 131.941 1202.31 106.504C1197.8 96.7171 1165.44 97.1503 1164.69 89.9013C1161.88 62.8252 1174.86 41.0726 1140.49 29.7329C1150.23 21.3284 1161.48 12.0339 1166.58 0Z"/><path fill="#98B0E0" transform="scale(0.5 0.5)" d="M1449.76 10.3738L1451.3 10.961C1450.78 13.4819 1442.76 21.8737 1440.26 25.084C1408.24 68.344 1389.92 108.838 1397.27 164.619C1398.21 171.713 1402.1 187.77 1406.11 193.576C1399.25 196.304 1391.32 199.25 1384.82 202.522C1380.36 194.9 1377.21 179.462 1376.11 170.737C1369.21 116.223 1397.97 61.6968 1436.22 24.6369C1440.47 20.5192 1445.69 15.7613 1449.23 11.0853L1449.76 10.3738Z"/><path fill="#98B0E0" transform="scale(0.5 0.5)" d="M494.74 871.585L493.718 870.959C492.57 860.464 553.859 798.645 571.915 815.862C584.685 828.038 555.938 856.934 549.33 864.167C544.527 865.443 536.633 865.88 531.388 866.569C519.112 868.183 506.968 869.478 494.74 871.585Z"/><path fill="white" transform="scale(0.5 0.5)" d="M652.595 630.216C651.689 626.841 650.215 621.23 651.105 618.003C653.164 620.618 653.905 625.645 654.672 629.077C656.418 635.085 657.101 641.486 657.697 647.722C656.225 642.942 653.505 634.827 652.595 630.216Z"/><path fill="#B8C8EE" transform="scale(0.5 0.5)" d="M1267.99 121.366C1282.36 120.067 1295.9 121.523 1308.49 129.202C1318.55 135.332 1326.77 145.008 1329.44 156.652C1331.98 167.707 1328.64 178.603 1322.8 188.022C1310.52 207.816 1289.05 219.588 1266.88 224.782C1262.31 225.937 1257.23 226.299 1252.53 226.083C1236.96 225.369 1224.65 218.811 1214.31 207.38C1220.5 206.378 1226.82 205.46 1232.78 203.44C1250.14 197.558 1266.31 184.359 1274.28 167.664C1279.92 155.839 1281.15 142.915 1274.1 131.51C1272.13 128.322 1269.32 125.414 1268.13 121.835C1268.08 121.68 1268.04 121.522 1267.99 121.366Z"/><path fill="#B8C8EE" transform="scale(0.5 0.5)" d="M1348 22.7301C1350.52 23.0304 1352.92 23.6302 1354.58 25.7083C1356.72 28.3928 1357.04 31.7955 1356.71 35.0863C1354.9 53.277 1337.46 73.4524 1324.03 84.6858C1322.3 86.357 1320.7 87.7225 1318.64 89.0032L1318.15 87.9023C1322.32 67.4375 1331.39 36.5092 1348 22.7301Z"/><path fill="white" transform="scale(0.5 0.5)" d="M658.021 672.378C658.877 672.492 658.55 672.33 659.178 672.84C662.393 675.456 666.337 675.96 669.748 678.152C670.941 678.919 672.414 679.627 672.7 681.042C668.07 680.635 663.757 678.009 659.642 675.985C655.681 674.292 651.393 682.765 646.774 682.754C646.931 682.345 647.1 681.94 647.233 681.522C647.362 681.12 647.432 680.7 647.561 680.298C648.946 675.989 654.258 674.216 658.021 672.378Z"/><path fill="#B8C8EE" transform="scale(0.5 0.5)" d="M1465.28 0L1498.38 0L1507.97 0L1870.95 0C1869.35 18.8709 1868.42 34.6409 1864.3 53.2512C1846.77 132.499 1800.46 194.313 1739.6 245.628C1719.49 262.608 1698.12 278.031 1675.67 291.761C1670.57 294.871 1643.73 309.992 1640.66 312.423C1637.46 318.87 1623.23 321.639 1620.68 325.768C1623.31 328.463 1627.31 328.254 1629.42 324.827C1629.71 324.366 1638.35 323.889 1640.23 324.598C1620.54 332.194 1600.66 339.318 1580.63 345.965C1562.73 351.9 1544.8 357.705 1526.82 363.378C1516.15 370.04 1418.18 391.534 1399.31 396.15C1404.59 393.364 1410.91 391.131 1416.5 388.85C1519.99 346.633 1630.08 266.955 1677.13 161.664C1695.75 120.884 1703.18 75.8821 1698.65 31.2807C1697.76 22.8735 1696.02 9.78665 1693.03 1.92013C1678.01 180.24 1508.68 302.053 1355.23 362.451C1352.8 363.386 1349.12 364.67 1346.87 365.72C1342.51 367.182 1283.42 386.477 1283.21 386.703C1288.07 386.761 1291.76 385.684 1296.51 385.948C1356.29 389.279 1374.19 402.613 1417.35 437.253C1381.08 418.755 1356.85 410.882 1315.15 414.351C1309.58 414.815 1286.2 418.319 1282.84 418.345C1248.2 428.53 1222.46 440.116 1196.07 465.699C1200.03 466.035 1232.65 455.892 1240.77 453.915C1314.52 435.96 1390.71 444.171 1442.83 504.968C1466.77 532.89 1476.62 565.186 1473.99 601.916C1473.02 615.493 1462.44 652.334 1453.58 661.416C1460.95 642.035 1465.08 631.459 1467.46 610.812C1474.59 548.898 1438.28 499.766 1381.4 478.574C1368.39 473.651 1354.74 470.614 1340.87 469.554C1340.91 497.241 1345.76 519.69 1356.14 545.402C1258.89 579.159 1195.93 647.227 1168.48 745.894C1204.17 736.466 1233.21 729.686 1266.55 712.861C1235.33 739.074 1204.36 756.845 1168.31 775.073C1078.75 820.357 835.871 886.762 879.61 1024L621.42 1024L540.199 1024L318.665 1024L311.854 1024L0 1024L0 1023.26C118.371 962.29 271.158 916.914 400.988 888.168C432.75 881.135 463.873 877.587 494.74 871.585C506.968 869.478 519.112 868.183 531.388 866.569C536.633 865.88 544.527 865.443 549.33 864.167C562.766 863.963 585.589 861.478 599.395 860.094C633.735 805.966 689.194 771.245 751.284 757.464C762.375 755.002 772.815 752.104 784.299 752.565C821.843 745.793 842.615 741.09 882.591 742.196C881.705 739.209 878.323 731.858 876.928 728.737C851.517 671.895 884.871 611.633 926.659 572.658C960.731 540.88 1003.46 519.07 1047.31 503.647C1055.38 500.811 1069.98 494.056 1078.13 494.355C1085.21 493.503 1108.77 484.579 1118.04 482.186C1120.32 475.753 1125.48 466.393 1129.51 460.84C1162.38 415.597 1209.61 398.903 1261.77 389.445C1256.53 370.739 1258.81 344.534 1265.05 326.365C1285.24 267.502 1331.85 229.888 1384.82 202.522C1391.32 199.25 1399.25 196.304 1406.11 193.576C1427.53 185.505 1445.97 180.813 1468.24 176.561C1441.56 143.78 1425.55 96.1223 1438.4 54.625C1440.81 46.8737 1443.28 39.7001 1446.1 32.0985C1450.05 24.9058 1453.61 17.6 1457.72 10.4895C1459.98 7.80859 1463.17 2.99757 1465.28 0Z"/><path fill="white" transform="scale(0.5 0.5)" d="M540.199 1024C602.056 929.091 718.528 895.626 824.476 880.466C830.961 879.538 860.205 874.531 863.75 875.237C862.972 875.854 862.81 876.224 861.794 876.269C851.325 876.728 838.193 881.871 827.989 884.539C766.322 900.662 691.39 929.141 648.123 977.974C636.124 991.516 625.901 1006.24 621.42 1024L540.199 1024Z"/><path fill="#98B0E0" transform="scale(0.5 0.5)" d="M882.591 742.196C881.705 739.209 878.323 731.858 876.928 728.737C851.517 671.895 884.871 611.633 926.659 572.658C960.731 540.88 1003.46 519.07 1047.31 503.647C1055.38 500.811 1069.98 494.056 1078.13 494.355C1009.72 520.899 943.887 563.83 912.831 633.275C898.944 664.328 895.362 704.209 907.867 736.33C908.916 738.991 910.022 741.629 911.185 744.242C903.683 743.1 890.444 742.185 882.591 742.196Z"/><path fill="#98B0E0" transform="scale(0.5 0.5)" d="M599.395 860.094C633.735 805.966 689.194 771.245 751.284 757.464C762.375 755.002 772.815 752.104 784.299 752.565C719.482 769.55 663.25 801.311 626.065 858.75C616.902 858.986 608.553 859.174 599.395 860.094Z"/><path fill="#B8C8EE" transform="scale(0.5 0.5)" d="M1498.38 0L1507.97 0C1503.95 9.61593 1498.38 18.7646 1494.94 28.7218C1480.05 71.8012 1482.7 121.294 1502.21 162.512C1504.08 166.472 1507.04 169.352 1503.53 172.575C1501.2 172.931 1499.75 173.419 1497.61 172.506C1494.36 167.738 1491.18 158.641 1489.23 153.019C1470.95 100.292 1474.64 49.959 1498.38 0Z"/><path fill="#98B0E0" transform="scale(0.5 0.5)" d="M311.854 1024C404.711 963.149 523.503 914.488 629.941 883.02C636.282 881.145 669.794 871.824 674.014 872.144C647.952 881.145 615.986 888.463 587.78 897.866C510.279 923.692 435.447 956.924 364.321 997.102C350.46 1004.97 331.644 1015.26 318.665 1024L311.854 1024Z"/><path fill="#98B0E0" transform="scale(0.5 0.5)" d="M1390.3 252.558L1393.59 255.437C1372.91 283.438 1349.74 325.042 1355.04 361.252C1355.1 361.652 1355.16 362.052 1355.23 362.451C1352.8 363.386 1349.12 364.67 1346.87 365.72C1345.67 320.718 1361.59 287.082 1390.3 252.558Z"/><path fill="#98B0E0" transform="scale(0.5 0.5)" d="M1640.66 312.423C1637.46 318.87 1623.23 321.639 1620.68 325.768C1623.31 328.463 1627.31 328.254 1629.42 324.827C1629.71 324.366 1638.35 323.889 1640.23 324.598C1620.54 332.194 1600.66 339.318 1580.63 345.965C1562.73 351.9 1544.8 357.705 1526.82 363.378C1530.46 359.362 1566.64 347.271 1576.18 343.119C1586.38 340.619 1629.61 318.191 1640.66 312.423Z"/><path fill="#98B0E0" transform="scale(0.5 0.5)" d="M1390.3 252.558C1412.95 227.818 1436.94 208.484 1466.56 192.733C1470.36 190.708 1480.06 185.288 1484.1 185.52C1484.08 185.545 1455.72 201.596 1451.72 204.125C1429.63 217.883 1409.99 235.224 1393.59 255.437L1390.3 252.558Z"/><path fill="#98B0E0" transform="scale(0.5 0.5)" d="M1196.07 465.699C1193.17 468.339 1192.66 468.517 1188.96 469.748C1188.58 455.46 1268.1 413.912 1282.84 418.345C1248.2 428.53 1222.46 440.116 1196.07 465.699Z"/><path fill="#98B0E0" transform="scale(0.5 0.5)" d="M1160.86 488.245C1160.14 490.345 1153.02 492.587 1150.75 493.583C1133.08 501.36 1116.38 510.304 1100.35 521.07C1066.44 543.845 1036.82 575.527 1019.46 612.756C1006.53 640.474 998.672 673.602 1004.24 704.196C1006.02 713.971 1009.48 723.334 1012.86 732.647C1009.83 730.203 1008.41 725.548 1007.13 721.975C994.102 685.639 1001.58 644.393 1017.69 610.39C1045.36 551.991 1101 509.723 1160.86 488.245Z"/><path fill="#9199BE" transform="scale(0.5 0.5)" d="M1968.05 760.833C1959.89 739.071 1960.78 732.19 1982.31 721.609C1983.81 730.173 1985.4 737.742 1987.89 746.106C1996.24 734.314 2000.71 732.284 2015.17 729.72C2010.85 744.424 2011.86 751.953 2011.99 767.11C2016.96 770.285 2040.68 768.453 2048 768.204L2048 789.021L2048 931.696L2048 970.152L2048 1022.61L2048 1024L2045.04 1024L1965.38 1024L1932.52 1024L1844.65 1024C1849.06 979.662 1822.57 949.91 1851.45 906.379C1853.33 904.6 1859.64 896.758 1861.63 894.384C1886.07 864.879 1880.98 846.646 1888.18 812.751C1890.07 803.85 1900.94 798.376 1909.27 795.009L1909.57 795.413C1922.77 813.092 1927.94 823.946 1924.64 846.779C1925.96 849.383 1926.56 851.742 1930.1 851.896C1935.06 845.506 1938.07 842.348 1943.85 836.648C1940.2 819.911 1937.96 795.743 1926.11 784.296C1918.67 777.102 1914.83 775.835 1908.53 766.93C1907.64 764.084 1906.83 760.479 1906.09 757.534C1907.69 753.746 1912.62 746.431 1917.2 746.961L1919.96 746.961C1917.08 736.634 1921.45 731.99 1929.63 726.052C1946.86 754.567 1946.04 745.613 1968.05 760.833Z"/><path fill="white" transform="scale(0.5 0.5)" d="M1982.82 890.039C2005.14 905.109 2024.47 918.001 2048 931.696L2048 970.152L2048 1022.61L2048 1024L2045.04 1024L1965.38 1024L1932.52 1024C1928.32 1008.24 1925.89 1000.67 1927 984.555C1930.67 957.99 1953.99 931.057 1969.52 908.308C1973.89 902.175 1978.33 896.085 1982.82 890.039Z"/><path fill="#B8C8EE" transform="scale(0.5 0.5)" d="M1982.82 890.039C2005.14 905.109 2024.47 918.001 2048 931.696L2048 970.152C2023.31 953.196 1992.1 927.412 1969.52 908.308C1973.89 902.175 1978.33 896.085 1982.82 890.039Z"/><path fill="#B8C8EE" transform="scale(0.5 0.5)" d="M1927 984.555C1940.07 995.659 1952.75 1011.79 1965.38 1024L1932.52 1024C1928.32 1008.24 1925.89 1000.67 1927 984.555Z"/><path fill="#B8C8EE" transform="scale(0.5 0.5)" d="M1976.32 952.17C1979.27 954.705 1981.98 957.454 1984.67 960.275C2005.09 981.761 2026.58 1002.12 2048 1022.61L2048 1024L2045.04 1024C2024.62 1007.12 1989.95 974.951 1976.32 952.17Z"/><path fill="white" transform="scale(0.5 0.5)" d="M2011.99 767.11C2016.96 770.285 2040.68 768.453 2048 768.204L2048 789.021L2048 931.696C2024.47 918.001 2005.14 905.109 1982.82 890.039C1987.13 883.971 1992.97 879.236 1995.9 871.803C1999.21 863.422 1995.83 849.983 1998.06 842.269C2004.85 818.814 2010.75 812.709 2012.12 787.463C2012.3 780.233 2012.41 774.319 2011.99 767.11Z"/><path fill="#B8C8EE" transform="scale(0.5 0.5)" d="M2011.99 767.11C2016.96 770.285 2040.68 768.453 2048 768.204L2048 789.021C2039.28 788.642 2018.67 784.233 2013.59 784.793L2012.12 787.463C2012.3 780.233 2012.41 774.319 2011.99 767.11Z"/><path fill="white" transform="scale(0.5 0.5)" d="M1924.64 846.779C1925.96 849.383 1926.56 851.742 1930.1 851.896C1927.34 856.319 1922.38 862.441 1919.06 866.777C1921.72 859.495 1923.21 854.335 1924.64 846.779Z"/><path fill="white" transform="scale(0.5 0.5)" d="M1917.2 746.961L1919.96 746.961C1922.2 750.676 1926.9 755.893 1927.17 759.898L1927.13 759.91L1926.63 757.894L1925.03 758.097C1922.32 755.198 1919.21 750.395 1917.2 746.961Z"/><path fill="white" transform="scale(0.5 0.5)" d="M1936.73 770.118C1937.03 770.219 1937.35 770.261 1937.63 770.422C1940.56 772.163 1960.31 792.94 1961.62 795.982C1962 796.856 1962.04 798.485 1962.2 799.468C1962.02 799.389 1961.82 799.328 1961.65 799.232C1957.8 797.115 1937.55 773.618 1936.73 770.118Z"/><path fill="#B8C8EE" transform="scale(0.5 0.5)" d="M1870.95 0L1947.38 0C1934.71 150.969 1806.31 256.694 1675.94 310.43C1666.36 314.377 1649.88 322.319 1640.23 324.598C1638.35 323.889 1629.71 324.366 1629.42 324.827C1627.31 328.254 1623.31 328.463 1620.68 325.768C1623.23 321.639 1637.46 318.87 1640.66 312.423C1643.73 309.992 1670.57 294.871 1675.67 291.761C1698.12 278.031 1719.49 262.608 1739.6 245.628C1800.46 194.313 1846.77 132.499 1864.3 53.2512C1868.42 34.6409 1869.35 18.8709 1870.95 0Z"/><path fill="#B8C8EE" transform="scale(0.5 0.5)" d="M1991.08 0L2034.67 0L2048 0L2048 28.4431C2030.17 98.0426 1996.8 144.799 1934.95 183.608C1923.14 191.02 1903.37 199.886 1889.96 203.729C1887.56 204.546 1885.13 205.241 1882.69 205.961C1888.73 202.153 1894.99 196.628 1900.54 191.987C1941.32 151.469 1970.13 100.477 1983.78 44.6303C1987.77 27.7005 1988.6 16.4261 1991.08 0Z"/><path fill="#B8C8EE" transform="scale(0.5 0.5)" d="M2034.67 0L2048 0L2048 28.4431C2030.17 98.0426 1996.8 144.799 1934.95 183.608C1923.14 191.02 1903.37 199.886 1889.96 203.729C1892.96 200.574 1897.27 198.444 1901.09 196.269C1979.59 149.557 2024.86 92.6387 2034.67 0Z"/><path fill="#B8C8EE" transform="scale(0.5 0.5)" d="M2048 356.833L2048 445.426C2014.99 483.907 1942.59 518.038 1889.78 522.535C1829.87 527.636 1737.28 499.511 1699.1 567.611C1698.27 569.088 1698.44 568.671 1697.05 569.75L1696.93 567.665C1700.85 558.074 1710.91 546.121 1718.17 538.859C1765.98 490.996 1830.53 510.325 1889.52 504.302C1910.05 502.207 1940.81 491.832 1958.65 481.149C2011.85 449.3 2032.03 413.605 2048 356.833Z"/><path fill="#B8C8EE" transform="scale(0.5 0.5)" d="M1287.21 1024C1316.47 997.684 1346.44 966.145 1381.25 947.35C1408.63 932.569 1437.01 925.23 1466.36 915.942C1518.42 899.464 1559.3 865.394 1589.21 820.165C1575.33 861.466 1536.39 888.887 1498.93 907.532C1462.91 925.461 1423.8 936.769 1388.71 956.513C1356.45 974.659 1329.8 1000.96 1301.16 1024L1287.21 1024Z"/><path fill="#B8C8EE" transform="scale(0.5 0.5)" d="M1835.86 570.216C1848.16 575.869 1857.63 581.388 1870.81 586.472C1929.31 609.041 1990.84 606.453 2048 581.22L2048 595.362C2005.23 608.957 1960.22 615.99 1915.42 607.69C1889.24 602.841 1855.19 589.171 1835.86 570.216Z"/><path fill="#B8C8EE" transform="scale(0.5 0.5)" d="M2048 481.84L2048 511.321C2007.04 527.803 1963.08 535.559 1918.95 534.096C1915.27 533.968 1894.5 532.139 1892.46 530.464C1900.2 529.519 1915.93 532.147 1926.31 531.498C1973.75 528.529 2010.47 509.241 2048 481.84Z"/><path fill="#B8C8EE" transform="scale(0.5 0.5)" d="M1640.23 914.189C1641.68 915.075 1643.23 916.118 1644.8 916.692C1631.56 951.711 1610.44 996.726 1584.91 1024L1564.53 1024C1598.83 991.933 1621.36 956.923 1640.23 914.189Z"/><path fill="#B8C8EE" transform="scale(0.5 0.5)" d="M1107.43 939.429L1109.44 941.464C1076.96 962.915 1035.74 991.976 1012.67 1024L998.971 1024C1021.27 988.214 1068.85 956.452 1107.43 939.429Z"/><path fill="#B8C8EE" transform="scale(0.5 0.5)" d="M1159.87 1024C1193.95 976.419 1243.12 970.585 1289.26 941.958C1270.69 963.167 1243.3 972.772 1219.29 986.323C1200.38 996.991 1184.69 1008.63 1169.38 1024L1159.87 1024Z"/><path fill="#B8C8EE" transform="scale(0.5 0.5)" d="M2048 692.197C1983.16 694.799 1921.32 673.668 1869.09 635.771L1869.1 634.7C1873.97 635.433 1892.96 647.993 1899.73 651.208C1948.03 674.156 1994.03 687.361 2048 684.109L2048 692.197Z"/><path fill="#B8C8EE" transform="scale(0.5 0.5)" d="M1803.61 848.249C1821.53 865.559 1839.18 882.689 1861.63 894.384C1859.64 896.758 1853.33 904.6 1851.45 906.379C1836.49 889.559 1814.71 867.773 1803.61 848.249Z"/><path fill="#B8C8EE" transform="scale(0.5 0.5)" d="M1363.21 1024C1390.44 1001.55 1458.26 952.11 1491.04 944.843L1492.54 945.298C1460.77 958.818 1431.1 977.604 1403.38 998.025C1391.87 1006.51 1380.79 1016.18 1368.86 1024L1363.21 1024Z"/><path fill="#B8C8EE" transform="scale(0.5 0.5)" d="M1689.23 950.609L1692.46 952.185C1683.42 977.942 1679.66 996.929 1676.21 1024L1666.63 1024C1671.38 1000.84 1680.64 972.534 1689.23 950.609Z"/><path fill="#B8C8EE" transform="scale(0.5 0.5)" d="M1818.23 731.235C1826.35 733.863 1835.53 738.324 1843.79 741.313C1861.19 747.61 1887.55 755.776 1906.09 757.534C1906.83 760.479 1907.64 764.084 1908.53 766.93C1904.45 764.958 1887.57 761.196 1882.16 759.541C1860.98 753.069 1836.71 743.476 1818.23 731.235Z"/><path fill="#B8C8EE" transform="scale(0.5 0.5)" d="M1779.5 1024C1770.96 998.059 1764.83 977.718 1760.94 950.42L1761.3 949.912C1764.84 958.851 1766.18 968.834 1768.61 978.141C1772.79 993.721 1777.9 1009.04 1783.92 1024L1779.5 1024Z"/><path fill="#B8C8EE" transform="scale(0.5 0.5)" d="M1640.23 914.189C1644.75 903.305 1647.93 895.185 1651.33 883.783C1652.86 878.637 1657.6 858.649 1659.57 855.199C1659.21 871.711 1650.11 900.721 1644.8 916.692C1643.23 916.118 1641.68 915.075 1640.23 914.189Z"/><path fill="#B8C8EE" transform="scale(0.5 0.5)" d="M1689.23 950.609C1691.05 945.94 1705.9 907.157 1707.06 905.465C1706.87 918.779 1695.49 939.535 1692.46 952.185L1689.23 950.609Z"/><path fill="#B8C8EE" transform="scale(0.5 0.5)" d="M1107.43 939.429C1112.92 936.916 1119.17 933.882 1124.69 931.651C1119.67 934.902 1114.51 938.34 1109.44 941.464L1107.43 939.429Z"/><path fill="#B8C8EE" transform="scale(0.5 0.5)" d="M1747.38 571.178C1747.51 571.168 1747.64 571.157 1747.77 571.149C1751.82 570.905 1756.75 570.238 1759.93 573.386C1763.28 576.706 1762.84 582.65 1762.99 587.058C1766.48 586.945 1771.64 586.283 1774.83 587.803C1777.32 588.993 1778.97 590.865 1779.73 593.529C1779.2 595.636 1779.02 596.348 1777.36 597.899C1774.12 600.922 1768.19 600.001 1764.04 599.909L1764.02 651.427C1769.16 651.28 1774.96 650.565 1779.95 651.926C1781.88 653.664 1782.3 655.088 1782.86 657.578C1779.31 665.193 1769.34 659.456 1764.11 663.532C1762.98 664.414 1763.28 664.796 1763.15 666.131C1766.88 673.288 1771.82 673.101 1778.05 677.023C1784.26 680.927 1785.99 689.39 1787.54 696.042L1804.01 696.086C1803.89 692.42 1803.4 687.995 1804.26 684.437C1804.89 681.819 1806.38 679.434 1808.67 678.005C1809.43 677.532 1810.62 678.128 1811.47 678.35C1816.23 683.762 1815.2 688.962 1815.02 695.711C1827.34 695.233 1839.75 695.422 1852.08 695.112C1852.03 693.359 1852 691.605 1852 689.851C1852.01 686.148 1852.45 683.044 1855.3 680.386C1857.03 678.784 1858.89 677.985 1861.26 678.059C1863.08 678.116 1865.09 679.605 1866.27 680.879C1869.92 684.798 1869.09 690.281 1868.96 695.225C1872.87 695.073 1877.91 694.318 1881.23 696.748C1883.87 698.677 1884.44 700.894 1884.81 703.961C1884.16 705.75 1883.51 707.273 1882.07 708.581C1878.36 711.959 1873.28 711.109 1868.63 710.989C1868.81 716.162 1869.66 721.868 1865.89 726.024C1864.16 727.943 1862.19 728.709 1859.67 728.873C1857.65 728.267 1856.13 727.644 1854.69 726.089C1850.89 721.968 1851.93 716.314 1852.11 711.127C1839.71 710.931 1827.26 711.259 1814.85 711.377C1814.7 713.967 1814.59 716.611 1814.22 719.182C1813.84 721.833 1812.44 723.185 1810.39 724.761C1808.21 724.796 1807.77 724.934 1806.11 723.309C1803.16 720.428 1803.93 714.858 1804.01 711.021L1787.72 710.998C1787.19 713.515 1786.66 716.082 1785.9 718.542C1783.17 727.419 1775 732.357 1767.29 736.4C1767.02 747.816 1765.18 761.871 1767.39 772.975C1768 776.038 1771.43 777.644 1773.93 779.352C1775.31 781.692 1775.71 783.473 1775.14 786.175C1774.54 789.079 1770.75 791.026 1768.44 792.572C1765.08 799.899 1767.04 869.65 1766.93 884.017C1770.6 883.852 1776.5 882.965 1779.84 884.569C1782.52 885.858 1783.47 887.632 1784.22 890.355C1783.7 891.648 1783.15 892.851 1782.08 893.795C1777.63 897.753 1771.41 896.401 1765.98 895.964C1766.06 900.042 1766.8 905.791 1765.38 909.62C1763.97 913.443 1761.02 914.726 1757.55 916.179C1757.04 916.184 1756.53 916.18 1756.02 916.168C1752.32 916.065 1748.24 915.43 1745.7 912.438C1742.18 908.295 1743.29 901.282 1743.54 896.237C1739.51 896.37 1733.41 897.248 1729.67 895.733C1727.04 894.667 1724.93 892.976 1723.69 890.392C1723.91 888.776 1723.82 888.013 1724.93 886.749C1728.39 882.835 1734.72 883.252 1739.57 882.88C1739.55 853.353 1740.08 823.641 1738.86 794.14C1736.95 792.021 1734.43 791.019 1732.51 789.068C1731.19 787.731 1730.83 786.135 1730.83 784.345C1730.84 779.055 1734.33 778.652 1737.44 775.506C1740.63 772.273 1739.16 743.59 1739.1 737.41C1736.58 736.114 1734.01 734.82 1731.6 733.329C1722.68 727.821 1720.28 720.787 1718.09 711.148L1698.42 711.204C1698.46 714.111 1699.05 718.951 1697.18 721.391C1695.63 723.408 1694.68 723.962 1692.24 724.302C1691.34 723.756 1690.48 723.176 1689.75 722.411C1687.34 719.907 1688.13 714.328 1688.25 711.056L1652.98 710.975C1653.05 715.675 1654.12 723.214 1652.37 727.576C1651.41 729.964 1649.98 731.492 1647.6 732.425C1644.58 733.604 1640.78 732.704 1637.95 731.451C1632.64 726.652 1635.35 719.534 1634.32 713.148C1631.3 709.5 1626.57 711.615 1622.44 709.025C1621.19 706.838 1620.83 705.048 1620.85 702.573C1620.91 691.52 1629.61 698.322 1633.23 691.891C1635.78 687.348 1633.17 681.797 1637.55 677.774C1639.27 676.196 1641.34 675.461 1643.67 675.561C1646.54 675.685 1649.18 677.447 1650.96 679.625C1654.62 684.1 1653.53 689.715 1652.91 694.993L1688.48 694.981C1688.16 692.014 1687.52 688.281 1688.33 685.361C1688.98 683.017 1690.35 681.671 1692.38 680.474C1694.63 680.627 1695.12 680.615 1696.83 682.281C1699.91 685.28 1699.05 690.996 1698.98 695.004L1718.25 695.088C1722.5 673.203 1736.43 676.986 1740.22 669.339C1741.39 666.987 1741.7 665.396 1740.84 662.984C1736.24 659.83 1729.15 663.081 1724.14 660.714C1722.26 659.825 1722.23 658.909 1721.56 657.08C1721.92 655.411 1721.88 654.284 1723.17 653.09C1726.81 649.722 1735.96 651.287 1740.68 651.436C1740.59 634.045 1740.61 616.654 1740.77 599.263C1736.88 599.254 1733.05 599.147 1729.17 598.854C1726.74 597.295 1724.98 596.214 1723.66 593.517C1725.35 585.273 1738.01 589.582 1740.72 585.648C1743.71 581.298 1739.31 578.085 1747.38 571.178Z"/><path fill="#B8C8EE" transform="scale(0.5 0.5)" d="M1424.5 736.991C1424.8 742.529 1411.03 760.981 1407.03 766.511C1351.72 842.971 1266.32 854.646 1181.96 876.672C1149.15 884.914 1117.17 896.158 1086.43 910.261C1035.79 934.035 992.397 970.459 955.581 1012.13C955.556 1011.95 955.515 1011.76 955.505 1011.57C955.036 1002.41 976.365 968.55 982.792 959.346C998.263 937.366 1016.77 917.686 1037.75 900.892C1099.67 850.739 1167.78 836.495 1243.85 822.017C1287.36 813.739 1332.03 804.827 1370.87 782.494C1386.73 773.377 1400.69 761.724 1413.56 748.797C1417.19 745.148 1420.21 740.906 1423.99 737.447C1424.16 737.293 1424.33 737.143 1424.5 736.991Z"/><path fill="#B8C8EE" transform="scale(0.5 0.5)" d="M1492.53 532.045C1484.81 502.775 1490.69 467.626 1505.38 441.381C1518.1 419.018 1536.18 400.167 1558 386.523C1621.48 346.291 1683.2 357.502 1753.08 359.432C1782.12 360.234 1815.69 355.198 1843.34 346.334C1869.26 338.135 1893.91 326.334 1916.55 311.277C1925.85 305.111 1935.32 297.853 1944.12 290.926C1949.14 286.979 1959.88 274.086 1964.85 272.682C1964.2 277.275 1940.3 298.125 1935.91 301.662C1878.96 347.554 1807.41 371.567 1734.52 372.51C1670.45 373.34 1605.71 376.451 1554.02 419.553C1520.88 447.197 1501.49 478.278 1497.03 521.4C1497.5 541.983 1499.89 545.601 1504.09 565.371C1499.73 559.372 1494.13 539.775 1492.53 532.045Z"/><path fill="#B8C8EE" transform="scale(0.5 0.5)" d="M1941.64 349.059C1941.13 356.648 1925.58 374.807 1920.74 380.584C1890.98 416.089 1849.52 441.47 1804.98 453.81C1736.91 472.668 1682.89 468.371 1629.27 526.515C1594.11 564.65 1584.25 602.828 1586.29 653.384C1598.46 640.585 1612.35 618.532 1622.4 603.405C1626.51 597.222 1631.06 587.683 1636.66 582.925L1637.12 583.595C1634.26 594.951 1586.72 660.458 1576.77 672.083C1559.16 694.057 1540.2 718.214 1515.24 732.002C1525.63 721.177 1536.87 711.217 1547.21 700.321C1560.58 686.233 1572.77 671.037 1585.12 656.065C1582.27 643.04 1579.87 629.79 1579.16 616.46C1577.46 584.239 1584.11 553.341 1602.41 526.424C1648.23 459.057 1724.54 458.173 1795.73 441.049C1819.53 435.324 1843.69 426.237 1865.45 415.027C1888.48 402.922 1909.14 386.779 1926.46 367.368C1931.78 361.442 1936.34 354.975 1941.64 349.059Z"/><path fill="#B8C8EE" transform="scale(0.5 0.5)" d="M1607.3 718.806L1608.29 719.642C1605.47 730.215 1587.29 749.73 1579.91 758.527C1554.65 788.639 1525.62 817.349 1490.93 836.458C1477.08 843.993 1462.63 850.364 1447.73 855.506C1408.6 868.895 1369.39 877.368 1345.95 915.109L1345.25 914.303C1345.05 909.963 1350.03 903.327 1352.4 899.525C1378.19 858.166 1428 854.051 1469.07 837.661C1483.79 831.786 1497.59 823.954 1510.68 815.051C1548.34 789.438 1577.95 753.115 1607.3 718.806Z"/><path fill="#E8D0B4" transform="scale(0.5 0.5)" d="M1393.49 638.688C1402.29 648.82 1414.1 665.876 1422.02 676.931C1425.57 670.713 1435.51 654.384 1439.65 649.251C1440.48 652.553 1430.49 674.611 1428.58 679.089C1441.32 675.356 1466.73 663.491 1477 662.193C1472.59 667.49 1438.7 682.511 1435.42 689.052L1436.96 691.758L1434.86 693.096L1435.6 694.577L1432.87 695.146L1431.83 696.074C1433.06 701.927 1445.54 725.345 1448.44 734.884C1440.05 722.455 1429.29 710.075 1420.28 697.03C1411.14 706.693 1403.4 715.055 1395.76 725.976C1398.89 716.251 1407.1 701.999 1412.16 692.681C1399.55 693.165 1388.33 695.088 1375.25 694.9C1386.54 692.349 1401.18 687.688 1412.58 684.363C1406.81 669.227 1398.46 653.959 1393.49 638.688Z"/><path fill="#D4B295" transform="scale(0.5 0.5)" d="M1608.41 847.03C1608.66 839.144 1608.73 830.058 1609.76 822.346C1611.02 829.141 1613.03 838.483 1613.38 845.158C1621.62 842.986 1631.76 840.03 1640 838.662C1633.33 841.764 1621.29 847.776 1614.73 849.932C1614.62 859.826 1614.76 868.74 1613.27 878.569C1612.72 875.93 1611.09 867.06 1610.38 864.975L1610.1 861.066C1609.63 858.303 1609.37 855.736 1608.04 853.253C1602.85 849.934 1594.41 853.581 1587.82 854.238C1595.42 851.15 1600.55 849.349 1608.41 847.03Z"/><path fill="#E8D0B4" transform="scale(0.5 0.5)" d="M1610.1 861.066C1610.15 857.643 1609.99 853.076 1611.01 849.929L1612.13 849.998C1614.67 855.411 1614.49 857.81 1613.38 863.703C1611.47 865.182 1612.49 864.9 1610.38 864.975L1610.1 861.066Z"/><path fill="#D4B295" transform="scale(0.5 0.5)" d="M1684.39 771.796C1687.87 776.042 1689.05 791.344 1690.15 797.3C1697.77 794.865 1705.35 792.582 1713.13 790.702C1705.85 794.421 1698.67 798.09 1691 800.961L1691.92 817.028C1691.94 819.11 1692.05 820.738 1691.1 822.633C1687.95 817.531 1686.92 808.947 1685.51 803.031C1679.04 804.454 1672.43 805.129 1665.86 805.947C1672.35 803.69 1678.71 801.11 1685.09 798.581C1684.57 789.68 1683.79 780.708 1684.39 771.796Z"/><path fill="#D4B295" transform="scale(0.5 0.5)" d="M1436.96 691.758L1454.03 705.652C1447.61 702.685 1438.84 698.844 1432.87 695.146L1435.6 694.577L1434.86 693.096L1436.96 691.758Z"/></svg>