<svg width="158" height="158" viewBox="0 0 158 158" fill="none" xmlns="http://www.w3.org/2000/svg">
<path d="M155.694 86.6933C155.487 87.8265 155.067 88.6219 154.435 89.0796C153.802 89.5373 152.966 89.6712 151.928 89.4813C151.373 89.3798 150.908 89.1545 150.532 88.8053C150.169 88.4583 149.918 87.9976 149.779 87.4233C149.651 86.8511 149.659 86.1754 149.802 85.3963L150.585 85.6128C150.518 85.9788 150.389 86.3881 150.196 86.8409C150.015 87.2958 149.755 87.7179 149.416 88.1071C149.086 88.5104 148.665 88.8116 148.153 89.0107C147.65 89.2238 147.045 89.2656 146.336 89.1361C145.557 88.9937 144.944 88.7473 144.495 88.397C144.045 88.0584 143.722 87.6578 143.526 87.195C143.33 86.7322 143.222 86.255 143.202 85.7634C143.194 85.274 143.23 84.8109 143.31 84.3741L144.116 79.9652C144.172 79.6583 144.319 79.4169 144.559 79.2411C144.808 79.0793 145.086 79.0265 145.393 79.0826L155.628 80.9536C155.934 81.0098 156.17 81.1565 156.334 81.3939C156.507 81.6452 156.566 81.9243 156.51 82.2312L155.694 86.6933ZM153.663 85.9925L154.239 82.8408L154.481 83.1228L151.276 82.5368L151.474 82.3535L150.891 85.5407C150.829 85.883 150.885 86.2104 151.059 86.5229C151.234 86.8354 151.534 87.0305 151.959 87.1082C152.466 87.201 152.856 87.1381 153.128 86.9194C153.409 86.7146 153.588 86.4057 153.663 85.9925ZM148.786 85.2472L149.375 82.0246L149.487 82.2099L145.751 81.5269L145.961 81.3822L145.346 84.7464C145.246 85.2894 145.309 85.7462 145.534 86.1167C145.771 86.4893 146.179 86.7285 146.757 86.8343C147.288 86.9314 147.692 86.8953 147.966 86.726C148.241 86.5567 148.435 86.3299 148.548 86.0455C148.661 85.7612 148.74 85.4951 148.786 85.2472Z" fill="#2D89C8"/>
<path d="M154.019 97.4064L151.943 103.068C151.835 103.361 151.651 103.568 151.389 103.689C151.134 103.826 150.861 103.84 150.568 103.733C150.286 103.63 150.092 103.444 149.986 103.175C149.888 102.921 149.892 102.648 149.999 102.355L151.734 97.6232L151.966 97.8807L148.671 96.6723L148.855 96.5867L147.405 100.541C147.298 100.834 147.113 101.041 146.852 101.163C146.597 101.299 146.323 101.314 146.03 101.206C145.749 101.103 145.555 100.917 145.449 100.648C145.35 100.395 145.354 100.121 145.462 99.8286L146.893 95.9247L146.997 96.0588L143.584 94.807L143.785 94.7276L142.056 99.4426C141.949 99.7356 141.759 99.9406 141.486 100.058C141.22 100.19 140.957 100.209 140.698 100.114C140.417 100.011 140.223 99.8247 140.117 99.5558C140.007 99.2982 140.006 99.0229 140.113 98.73L142.189 93.0686C142.296 92.7757 142.483 92.5629 142.749 92.4304C143.022 92.3132 143.305 92.3083 143.598 92.4157L153.366 95.9975C153.659 96.1049 153.866 96.2895 153.987 96.5512C154.116 96.8284 154.126 97.1134 154.019 97.4064Z" fill="#2D89C8"/>
<path d="M137.777 105.351C137.943 105.059 138.169 104.87 138.453 104.784C138.748 104.703 139.03 104.74 139.301 104.895L148.367 110.072L147.207 112.104L138.141 106.927C137.87 106.772 137.697 106.542 137.623 106.237C137.553 105.949 137.604 105.653 137.777 105.351ZM148.893 107.118C149.048 106.847 149.262 106.666 149.536 106.573C149.804 106.491 150.074 106.528 150.345 106.682C150.615 106.837 150.779 107.048 150.834 107.314C150.893 107.597 150.846 107.874 150.691 108.145L146.728 115.085C146.573 115.356 146.362 115.532 146.094 115.614C145.82 115.706 145.548 115.675 145.277 115.521C145.006 115.366 144.841 115.147 144.781 114.864C144.726 114.598 144.776 114.329 144.93 114.058L148.893 107.118Z" fill="#2D89C8"/>
<path d="M132.401 114.902C132.614 114.643 132.868 114.494 133.163 114.457C133.467 114.427 133.739 114.511 133.981 114.709L142.051 121.332L140.566 123.141L132.496 116.517C132.255 116.319 132.123 116.064 132.101 115.751C132.08 115.454 132.18 115.171 132.401 114.902ZM143.064 118.508C143.262 118.267 143.504 118.123 143.789 118.078C144.067 118.042 144.327 118.123 144.568 118.321C144.809 118.519 144.935 118.754 144.944 119.026C144.956 119.315 144.862 119.58 144.664 119.821L139.594 125.999C139.396 126.24 139.159 126.378 138.881 126.414C138.595 126.46 138.332 126.383 138.091 126.185C137.85 125.987 137.723 125.744 137.712 125.455C137.702 125.183 137.796 124.927 137.994 124.686L143.064 118.508Z" fill="#2D89C8"/>
<path d="M135.37 131.558L130.808 135.501C130.572 135.705 130.31 135.796 130.022 135.775C129.733 135.771 129.486 135.651 129.282 135.415C129.086 135.188 129.007 134.931 129.045 134.645C129.082 134.375 129.218 134.138 129.454 133.934L133.267 130.639L133.345 130.976L131.05 128.321L131.253 128.335L128.066 131.09C127.83 131.294 127.568 131.385 127.28 131.364C126.991 131.36 126.745 131.24 126.541 131.004C126.345 130.777 126.266 130.52 126.303 130.234C126.34 129.964 126.476 129.727 126.712 129.523L129.858 126.805L129.884 126.972L127.507 124.221L127.722 124.25L123.922 127.534C123.686 127.738 123.42 127.825 123.125 127.795C122.828 127.782 122.589 127.671 122.409 127.462C122.213 127.235 122.133 126.978 122.171 126.691C122.2 126.413 122.333 126.172 122.569 125.967L127.131 122.025C127.367 121.821 127.633 121.725 127.93 121.738C128.226 121.768 128.476 121.901 128.68 122.137L135.483 130.009C135.687 130.245 135.778 130.507 135.757 130.795C135.735 131.099 135.606 131.354 135.37 131.558Z" fill="#2D89C8"/>
<path d="M119.26 129.729C119.552 129.563 119.863 129.502 120.193 129.549C120.53 129.605 120.775 129.769 120.93 130.04L126.089 139.075C126.244 139.346 126.283 139.62 126.207 139.899C126.127 140.193 125.951 140.418 125.68 140.573L121.178 143.143C120.636 143.453 120.048 143.596 119.412 143.572C118.772 143.564 118.16 143.388 117.577 143.044C117 142.711 116.524 142.215 116.149 141.559C115.923 141.163 115.786 140.73 115.738 140.259C115.68 139.795 115.706 139.331 115.815 138.869C115.913 138.412 116.086 138.002 116.335 137.639L116.525 138.007C116.144 138.017 115.797 137.967 115.484 137.855C115.167 137.76 114.885 137.617 114.638 137.426C114.387 137.252 114.17 137.03 113.989 136.76C113.798 136.524 113.641 136.309 113.518 136.117C113.384 135.931 113.258 135.782 113.139 135.671C113.009 135.565 112.856 135.514 112.679 135.519C112.372 135.514 112.118 135.397 111.917 135.166C111.712 134.951 111.642 134.695 111.706 134.395C111.743 134.194 111.838 134.023 111.992 133.88C112.151 133.747 112.328 133.646 112.523 133.576C112.724 133.517 112.9 133.486 113.05 133.483C113.287 133.486 113.55 133.536 113.84 133.632C114.136 133.74 114.44 133.933 114.751 134.211C115.052 134.495 115.357 134.909 115.666 135.45C115.767 135.628 115.891 135.771 116.036 135.881C116.188 136.002 116.351 136.082 116.525 136.12C116.705 136.17 116.899 136.17 117.106 136.121C117.319 136.082 117.545 135.994 117.785 135.857L120.942 134.054L120.913 134.548L118.976 131.156C118.821 130.885 118.763 130.614 118.802 130.343C118.847 130.083 118.999 129.878 119.26 129.729ZM121.846 135.673L118.204 137.753C118.016 137.86 117.881 138.048 117.8 138.315C117.724 138.594 117.712 138.912 117.764 139.269C117.821 139.636 117.952 139.997 118.154 140.352C118.416 140.81 118.758 141.119 119.181 141.279C119.599 141.454 119.949 141.462 120.23 141.301L123.841 139.239L123.939 139.847L121.413 135.423L121.846 135.673Z" fill="#2D89C8"/>
<path d="M104.079 137.962C104.945 137.677 105.807 137.571 106.664 137.643C107.522 137.715 108.327 137.936 109.081 138.308C109.838 138.69 110.504 139.198 111.078 139.83C111.641 140.466 112.063 141.212 112.344 142.067C112.625 142.922 112.728 143.772 112.652 144.618C112.565 145.468 112.328 146.265 111.942 147.011C111.559 147.769 111.044 148.431 110.397 148.997C109.749 149.564 108.992 149.989 108.126 150.274C107.59 150.45 107.053 150.564 106.514 150.615C105.975 150.666 105.457 150.646 104.96 150.557C104.759 150.522 104.592 150.438 104.46 150.304C104.32 150.186 104.224 150.047 104.171 149.888C104.082 149.614 104.092 149.339 104.203 149.062C104.315 148.786 104.513 148.601 104.798 148.507C104.889 148.477 104.99 148.457 105.1 148.446C105.198 148.439 105.301 148.443 105.407 148.458C105.733 148.49 106.067 148.488 106.409 148.451C106.75 148.415 107.098 148.338 107.451 148.222C108.192 147.979 108.809 147.568 109.301 146.989C109.785 146.426 110.107 145.77 110.265 145.024C110.416 144.292 110.368 143.55 110.121 142.797C109.877 142.056 109.476 141.43 108.916 140.92C108.345 140.412 107.696 140.07 106.968 139.893C106.233 139.73 105.494 139.771 104.753 140.014C104.411 140.127 104.046 140.285 103.658 140.488C103.271 140.691 102.964 140.893 102.74 141.093L102.725 140.529L103.686 143.454L103.311 143.293L105.209 142.669C105.505 142.571 105.788 142.586 106.057 142.712C106.315 142.842 106.492 143.055 106.589 143.352C106.687 143.648 106.671 143.925 106.54 144.183C106.399 144.444 106.18 144.623 105.884 144.721L103.079 145.643C102.783 145.74 102.504 145.718 102.243 145.576C101.985 145.446 101.808 145.233 101.71 144.937L100.519 141.312C100.444 141.084 100.439 140.877 100.504 140.691C100.558 140.509 100.638 140.35 100.745 140.214C101.165 139.722 101.656 139.277 102.219 138.877C102.775 138.492 103.395 138.187 104.079 137.962Z" fill="#2D89C8"/>
<path d="M95.2793 142.07C95.2069 141.767 95.2565 141.484 95.4282 141.22C95.6026 140.969 95.8357 140.809 96.1275 140.739C96.4543 140.661 96.7406 140.698 96.9864 140.849C97.235 141.011 97.3955 141.245 97.4679 141.548L99.8827 151.668C99.9551 151.971 99.91 152.247 99.7472 152.496C99.5873 152.756 99.3439 152.925 99.017 153.003C98.7369 153.07 98.4667 153.024 98.2065 152.864C97.9374 152.718 97.7666 152.494 97.6942 152.19L95.2793 142.07Z" fill="#2D89C8"/>
<path d="M84.6907 155.487C84.3911 155.502 84.1283 155.413 83.9023 155.22C83.665 155.04 83.5388 154.8 83.5237 154.5C83.5159 154.344 83.5437 154.181 83.6072 154.009L87.5259 143.395C87.6218 143.15 87.7686 142.963 87.9663 142.833C88.1526 142.715 88.3477 142.651 88.5514 142.641C88.7438 142.643 88.9325 142.694 89.1177 142.793C89.3035 142.904 89.4498 143.064 89.5565 143.275L94.5204 153.479C94.56 153.549 94.5875 153.62 94.6031 153.691C94.6193 153.775 94.6292 153.852 94.6328 153.924C94.6503 154.272 94.5377 154.542 94.295 154.734C94.053 154.939 93.8181 155.046 93.5904 155.058C93.135 155.081 92.7936 154.864 92.5664 154.406L88.1645 145.346L88.7929 145.296L85.6451 154.754C85.4643 155.22 85.1461 155.464 84.6907 155.487Z" fill="#2D89C8"/>
<path d="M77.6212 144.145C77.632 143.834 77.7551 143.574 77.9905 143.366C78.2254 143.17 78.4928 143.077 78.7926 143.087C79.1284 143.099 79.3947 143.21 79.5915 143.421C79.7879 143.644 79.8807 143.912 79.8698 144.224L79.5085 154.621C79.4977 154.933 79.3808 155.187 79.1578 155.384C78.9345 155.592 78.6549 155.69 78.3191 155.679C78.0313 155.669 77.7832 155.552 77.5748 155.329C77.354 155.117 77.249 154.855 77.2599 154.543L77.6212 144.145Z" fill="#2D89C8"/>
<path d="M63.4297 154.163C63.1495 154.096 62.9442 153.949 62.8137 153.72C62.6832 153.492 62.6513 153.237 62.7182 152.957L65.1539 142.75C65.2263 142.446 65.3927 142.215 65.6529 142.055C65.8987 141.904 66.1733 141.864 66.4768 141.937C66.6285 141.973 66.7805 142.034 66.9328 142.12C67.0706 142.214 67.1692 142.318 67.2287 142.431L72.0247 152.809L71.5026 152.981L73.4913 144.647C73.5582 144.367 73.7072 144.156 73.9386 144.013C74.1582 143.868 74.4139 143.831 74.7057 143.9C74.9859 143.967 75.1912 144.115 75.3217 144.343C75.4522 144.572 75.4841 144.826 75.4172 145.106L72.9815 155.314C72.9091 155.617 72.75 155.845 72.5042 155.996C72.244 156.156 71.9621 156.199 71.6586 156.127C71.4952 156.088 71.3343 156.013 71.176 155.901C71.0148 155.801 70.9087 155.677 70.8576 155.529L66.2174 145.428L66.5652 145.289L64.6266 153.413C64.5598 153.693 64.4165 153.905 64.1969 154.05C63.9772 154.195 63.7215 154.233 63.4297 154.163Z" fill="#2D89C8"/>
<path d="M56.7872 139.236C57.6162 139.616 58.3206 140.124 58.9005 140.759C59.4803 141.395 59.9204 142.105 60.2207 142.89C60.516 143.685 60.6592 144.51 60.6504 145.364C60.6307 146.213 60.4332 147.047 60.0581 147.865C59.6829 148.683 59.18 149.376 58.5495 149.945C57.908 150.509 57.1921 150.933 56.4016 151.218C55.6061 151.513 54.7783 151.648 53.9184 151.624C53.0584 151.599 52.2139 151.396 51.3849 151.016C50.8723 150.781 50.401 150.499 49.9711 150.17C49.5411 149.841 49.1744 149.474 48.8709 149.071C48.7473 148.909 48.6823 148.734 48.676 148.546C48.6537 148.364 48.6776 148.197 48.7477 148.044C48.8677 147.783 49.0625 147.588 49.3321 147.461C49.6017 147.334 49.8728 147.333 50.1455 147.458C50.2327 147.498 50.3205 147.551 50.4086 147.618C50.4859 147.68 50.5581 147.753 50.6254 147.836C50.8431 148.081 51.0896 148.306 51.365 148.512C51.6404 148.718 51.9472 148.898 52.2853 149.053C52.9943 149.378 53.7259 149.496 54.48 149.406C55.2181 149.322 55.8993 149.06 56.5235 148.62C57.1317 148.186 57.6009 147.609 57.9311 146.889C58.2562 146.18 58.3872 145.448 58.3242 144.693C58.2503 143.933 58.0068 143.241 57.5938 142.616C57.1648 141.997 56.5958 141.524 55.8868 141.199C55.5596 141.049 55.1846 140.917 54.762 140.802C54.3393 140.688 53.9775 140.627 53.6766 140.621L54.0489 140.198L52.7659 142.996L52.6003 142.623L54.4164 143.456C54.7 143.586 54.8975 143.789 55.0088 144.064C55.1092 144.334 55.0943 144.612 54.9643 144.895C54.8342 145.179 54.634 145.371 54.3635 145.471C54.0821 145.567 53.7996 145.549 53.516 145.419L50.8327 144.189C50.5491 144.059 50.3596 143.853 50.2642 143.571C50.1638 143.301 50.1787 143.024 50.3087 142.74L51.8994 139.272C51.9994 139.054 52.1365 138.899 52.3106 138.807C52.4738 138.71 52.6409 138.648 52.8118 138.621C53.4536 138.545 54.117 138.553 54.8019 138.642C55.471 138.738 56.1328 138.936 56.7872 139.236Z" fill="#2D89C8"/>
<path d="M49.1681 135.93C49.4709 136.102 49.6616 136.313 49.74 136.564C49.802 136.82 49.7473 137.099 49.5758 137.402L49.4251 137.669C49.2536 137.971 49.0452 138.157 48.7999 138.225C48.5383 138.297 48.256 138.248 47.9532 138.076L47.7495 137.961C47.4467 137.79 47.2643 137.576 47.2022 137.32C47.1238 137.069 47.1703 136.792 47.3418 136.489L47.4926 136.223C47.664 135.92 47.8806 135.732 48.1422 135.66C48.3876 135.592 48.6616 135.644 48.9645 135.815L49.1681 135.93Z" fill="#2D89C8"/>
<path d="M36.5537 127.348C37.1915 128 37.6673 128.726 37.981 129.527C38.2947 130.328 38.4512 131.149 38.4506 131.989C38.4413 132.837 38.2796 133.659 37.9655 134.453C37.6429 135.239 37.16 135.946 36.5167 136.576C35.8734 137.205 35.1555 137.673 34.363 137.978C33.5621 138.275 32.7417 138.414 31.9018 138.397C31.0534 138.387 30.2321 138.217 29.438 137.886C28.644 137.555 27.928 137.063 27.2902 136.411C26.8958 136.008 26.5568 135.576 26.2733 135.115C25.9899 134.653 25.7786 134.18 25.6397 133.695C25.5824 133.499 25.5844 133.313 25.6458 133.135C25.6901 132.957 25.7724 132.81 25.8924 132.692C26.0983 132.491 26.3498 132.379 26.6471 132.357C26.9443 132.335 27.1979 132.431 27.4077 132.645C27.4748 132.714 27.5376 132.795 27.5959 132.889C27.6459 132.974 27.6873 133.068 27.7202 133.17C27.8356 133.477 27.9851 133.776 28.1686 134.066C28.3521 134.357 28.574 134.635 28.8341 134.901C29.3796 135.458 30.0205 135.83 30.7567 136.017C31.476 136.203 32.2058 136.202 32.9461 136.015C33.6694 135.828 34.3141 135.457 34.8802 134.903C35.4378 134.358 35.8223 133.721 36.0339 132.994C36.2371 132.258 36.2578 131.524 36.0961 130.792C35.9174 130.061 35.5553 129.416 35.0098 128.858C34.758 128.601 34.4553 128.343 34.1017 128.085C33.7482 127.826 33.432 127.64 33.1532 127.527L33.6524 127.265L31.4524 129.418L31.4314 129.01L32.8287 130.438C33.0469 130.661 33.1586 130.922 33.1638 131.219C33.1607 131.507 33.0476 131.76 32.8246 131.979C32.6016 132.197 32.3459 132.304 32.0574 132.301C31.7605 132.289 31.503 132.172 31.2848 131.949L29.2203 129.839C29.0021 129.616 28.8988 129.356 28.9105 129.059C28.9137 128.771 29.0268 128.517 29.2498 128.299L31.9773 125.63C32.1489 125.463 32.3324 125.367 32.5278 125.344C32.7148 125.312 32.893 125.314 33.0623 125.35C33.6886 125.509 34.3054 125.753 34.9127 126.083C35.5032 126.411 36.0501 126.833 36.5537 127.348Z" fill="#2D89C8"/>
<path d="M29.0018 121.275C29.2423 121.076 29.5184 120.996 29.8301 121.034C30.1326 121.079 30.3795 121.218 30.5706 121.449C30.7847 121.708 30.8782 121.981 30.851 122.268C30.8145 122.563 30.676 122.81 30.4355 123.009L22.4173 129.638C22.1768 129.837 21.9092 129.918 21.6143 129.882C21.3102 129.853 21.0511 129.709 20.837 129.45C20.6535 129.228 20.5761 128.965 20.605 128.661C20.6169 128.355 20.7431 128.103 20.9836 127.904L29.0018 121.275Z" fill="#2D89C8"/>
<path d="M12.3001 117.717C12.1543 117.455 12.118 117.18 12.1912 116.892C12.2481 116.599 12.4076 116.38 12.6698 116.234C12.8061 116.158 12.9652 116.111 13.147 116.092L24.4001 114.918C24.6623 114.896 24.8954 114.945 25.0995 115.064C25.2872 115.18 25.4307 115.327 25.5299 115.505C25.6127 115.678 25.6508 115.87 25.6439 116.08C25.6266 116.296 25.5469 116.498 25.4048 116.687L18.4439 125.648C18.3985 125.715 18.3473 125.771 18.2902 125.816C18.2226 125.867 18.1574 125.911 18.0945 125.946C17.7904 126.115 17.4984 126.133 17.2186 126C16.9283 125.874 16.7277 125.71 16.6169 125.511C16.3951 125.113 16.4391 124.711 16.7489 124.305L22.9325 116.353L23.2545 116.894L13.3792 118.249C12.8816 118.293 12.5219 118.115 12.3001 117.717Z" fill="#2D89C8"/>
<path d="M8.69527 111.723L6.7047 106.031C6.6017 105.737 6.61282 105.46 6.73804 105.2C6.84797 104.932 7.05019 104.747 7.3447 104.644C7.62788 104.545 7.89575 104.566 8.14829 104.706C8.38554 104.84 8.55566 105.053 8.65866 105.348L10.3224 110.105L9.98009 110.054L13.2933 108.895L13.2049 109.078L11.8145 105.102C11.7115 104.808 11.7226 104.531 11.8479 104.271C11.9578 104.004 12.16 103.818 12.4545 103.715C12.7377 103.616 13.0056 103.637 13.2581 103.778C13.4954 103.911 13.6655 104.125 13.7685 104.419L15.1411 108.344L14.9754 108.307L18.4076 107.106L18.3022 107.296L16.6444 102.555C16.5414 102.261 16.5582 101.982 16.6947 101.718C16.816 101.446 17.0069 101.265 17.2674 101.174C17.5506 101.075 17.8185 101.096 18.071 101.236C18.3196 101.366 18.4954 101.577 18.5984 101.872L20.5889 107.564C20.6919 107.858 20.6828 108.141 20.5615 108.412C20.425 108.676 20.2095 108.86 19.915 108.963L10.0942 112.397C9.79967 112.5 9.52246 112.489 9.26255 112.364C8.98736 112.231 8.79826 112.018 8.69527 111.723Z" fill="#2D89C8"/>
<path d="M14.9939 89.8413C15.0211 90.1762 14.9417 90.4595 14.7559 90.6913C14.558 90.9241 14.3037 91.0531 13.9927 91.0784L3.5869 91.923L3.39757 89.5907L13.8033 88.746C14.1143 88.7208 14.3867 88.813 14.6204 89.0228C14.8412 89.2216 14.9657 89.4944 14.9939 89.8413ZM4.82025 94.6582C4.84549 94.9692 4.77117 95.2401 4.59727 95.4709C4.42241 95.6898 4.17949 95.8119 3.86851 95.8371C3.55753 95.8623 3.30409 95.7806 3.10817 95.5918C2.89932 95.3921 2.78228 95.1367 2.75704 94.8257L2.11041 86.8599C2.08516 86.5489 2.15997 86.284 2.33484 86.0651C2.50873 85.8343 2.75117 85.7063 3.06214 85.681C3.37312 85.6558 3.63303 85.7431 3.84188 85.9428C4.0378 86.1316 4.14838 86.3815 4.17362 86.6924L4.82025 94.6582Z" fill="#2D89C8"/>
<path d="M8.35546 71.0922C9.24775 71.2097 10.061 71.4682 10.7951 71.8675C11.5292 72.2668 12.1577 72.7793 12.6804 73.4049C13.1928 74.0171 13.5662 74.7199 13.8006 75.5133C14.0365 76.2948 14.0965 77.1258 13.9805 78.0062C13.8645 78.8866 13.5914 79.6736 13.1611 80.3674C12.7308 81.0611 12.1881 81.6432 11.533 82.1137C10.8676 82.5707 10.1287 82.8969 9.31616 83.0925C8.50365 83.288 7.65126 83.327 6.75897 83.2094C5.86668 83.0919 5.05347 82.8334 4.31934 82.4341C3.58521 82.0348 2.96193 81.5291 2.44951 80.9169C1.92675 80.2912 1.54741 79.5877 1.31147 78.8061C1.07553 78.0246 1.01556 77.1937 1.13156 76.3133C1.24755 75.4329 1.5207 74.6458 1.95101 73.9521C2.38288 73.2465 2.93152 72.6651 3.59691 72.2081C4.25198 71.7377 4.98577 71.4047 5.79827 71.2091C6.61077 71.0136 7.46317 70.9746 8.35546 71.0922ZM8.0498 73.4121C7.25269 73.3071 6.51175 73.3729 5.82698 73.6095C5.13031 73.8445 4.55478 74.2165 4.1004 74.7255C3.64602 75.2345 3.37024 75.8578 3.27305 76.5954C3.17587 77.3331 3.28079 78.0065 3.58783 78.6159C3.89487 79.2252 4.34845 79.7328 4.94858 80.1387C5.55027 80.5326 6.25562 80.7829 7.06463 80.8895C7.86174 80.9945 8.60784 80.9355 9.30294 80.7124C9.98772 80.4758 10.5573 80.103 11.0117 79.594C11.4661 79.085 11.7418 78.4617 11.839 77.724C11.9362 76.9864 11.8313 76.3129 11.5242 75.7036C11.2172 75.0943 10.7636 74.5867 10.1635 74.1808C9.55148 73.7734 8.84691 73.5171 8.0498 73.4121Z" fill="#2D89C8"/>
<path d="M3.79995 59.5207C4.07902 58.703 4.4804 58.0285 5.00409 57.4971C5.52777 56.9658 6.1415 56.5793 6.84527 56.3377C7.54156 56.0808 8.28994 55.9685 9.09042 56.0008C9.88342 56.0179 10.6888 56.1659 11.5065 56.445C12.6081 56.821 13.5453 57.3627 14.3182 58.0703C15.0797 58.774 15.5975 59.5973 15.8716 60.5404C16.1496 61.4721 16.1006 62.4888 15.7246 63.5904L14.3351 67.6618C14.2343 67.9571 14.0525 68.174 13.7897 68.3125C13.5194 68.4358 13.2366 68.4471 12.9413 68.3463L3.09493 64.9859C2.79965 64.8851 2.58842 64.7052 2.46125 64.4463C2.32659 64.1721 2.30965 63.8874 2.41043 63.5921L3.79995 59.5207ZM13.7074 63.0922C13.9516 62.3767 13.9695 61.7298 13.7611 61.1515C13.5414 60.5693 13.1654 60.0733 12.6333 59.6635C12.0937 59.2384 11.4661 58.9037 10.7506 58.6596C10.2169 58.4774 9.69018 58.3674 9.17056 58.3295C8.64345 58.2764 8.15556 58.3128 7.70687 58.4386C7.24682 58.5605 6.84302 58.7778 6.49546 59.0902C6.1479 59.4027 5.88303 59.8259 5.70086 60.3596L4.68343 63.3408L4.58825 63.1181L12.9355 65.9669L12.7132 66.0052L13.7074 63.0922Z" fill="#2D89C8"/>
<path d="M10.6144 48.2431L16.6852 56.1092C16.8429 56.294 16.9352 56.4972 16.9622 56.7188C16.9847 56.924 16.9459 57.1156 16.8461 57.2935C16.6875 57.576 16.4915 57.7412 16.2582 57.7892C16.0249 57.8371 15.7931 57.7965 15.5629 57.6672C15.4687 57.6144 15.3781 57.5429 15.2911 57.4528L8.09845 48.2758C7.93615 48.0746 7.84444 47.858 7.82331 47.6259C7.80805 47.3834 7.86668 47.1686 7.99921 46.9816C8.10494 46.7932 8.2594 46.6528 8.46261 46.5605C8.66123 46.4518 8.88051 46.4166 9.12045 46.455L20.4859 47.7565C20.6513 47.7806 20.7916 47.8249 20.9067 47.8895C21.1892 48.0481 21.3613 48.2685 21.423 48.5509C21.4906 48.8227 21.4627 49.0686 21.3394 49.2883C21.2336 49.4767 21.0792 49.617 20.876 49.7094C20.6786 49.7913 20.4571 49.8183 20.2112 49.7904L10.4531 48.7511L10.6144 48.2431ZM15.0433 54.5477L13.7228 52.6712L16.1016 48.4332L18.0741 49.1481L15.0433 54.5477Z" fill="#2D89C8"/>
<path d="M17.7429 31.3378C17.9165 31.1232 18.1551 30.9998 18.4589 30.9677C18.7609 30.9187 19.0378 30.996 19.2898 31.1997C19.3738 31.2676 19.4511 31.3533 19.5218 31.4567C19.5907 31.5433 19.6445 31.6485 19.6832 31.7724L21.6631 38.6279L20.901 37.5951L24.9181 40.8432C25.1607 41.0394 25.2981 41.2894 25.3303 41.5931C25.3606 41.88 25.289 42.1308 25.1155 42.3454C24.9269 42.5787 24.6853 42.7152 24.3909 42.7549C24.0947 42.7777 23.8253 42.691 23.5826 42.4949L19.6775 39.3373L20.216 39.5874L13.7543 39.3626C13.5575 39.3579 13.388 39.3289 13.2459 39.2756C13.1037 39.2224 12.986 39.1581 12.8927 39.0826C12.6407 38.8789 12.5147 38.615 12.5145 38.2907C12.5143 37.9665 12.5972 37.7018 12.7632 37.4965C12.9745 37.2352 13.29 37.1122 13.7097 37.1275L19.5918 37.4393L19.2189 37.7859L17.597 32.3772C17.4755 31.9549 17.5241 31.6085 17.7429 31.3378Z" fill="#2D89C8"/>
<path d="M31.5088 34.4549C31.7938 34.7298 31.9997 35.0868 32.1265 35.5258C32.2703 35.9645 32.3122 36.405 32.2524 36.8474C32.2095 37.2895 32.0506 37.6531 31.7757 37.9381C31.6841 38.0331 31.5453 38.0993 31.3592 38.1366C31.1815 38.1653 30.9977 38.088 30.8076 37.9048C30.609 37.7132 30.5463 37.5361 30.6198 37.3735C30.7102 37.2107 30.7754 37.0652 30.8155 36.9372C30.8633 36.7666 30.8732 36.6094 30.8451 36.4656C30.834 36.3215 30.768 36.1912 30.6471 36.0746C30.5521 35.983 30.4199 35.9472 30.2505 35.9672C30.0981 35.987 29.9511 36.0703 29.8095 36.2171C29.7595 36.2689 29.7098 36.3377 29.6605 36.4235C29.6025 36.5009 29.5658 36.5822 29.5503 36.6674C29.4239 36.7121 29.2971 36.7399 29.17 36.7506C29.0425 36.7445 28.9054 36.6706 28.7586 36.529C28.4908 36.2708 28.3785 35.9291 28.4217 35.504C28.4646 35.0619 28.6443 34.6767 28.9608 34.3485C29.319 33.977 29.7275 33.8041 30.1862 33.8297C30.6533 33.8467 31.0941 34.0551 31.5088 34.4549Z" fill="#2D89C8"/>
<path d="M41.6274 25.7392C40.8388 26.1973 40.0177 26.48 39.1641 26.5872C38.3105 26.6945 37.4766 26.6445 36.6624 26.4375C35.8422 26.22 35.0858 25.8614 34.3931 25.3617C33.7108 24.856 33.1436 24.214 32.6916 23.4358C32.2395 22.6576 31.9629 21.8468 31.8617 21.0036C31.7708 20.1543 31.8371 19.3248 32.0606 18.515C32.2781 17.6948 32.6449 16.9405 33.161 16.2522C33.6771 15.5638 34.3294 14.9906 35.118 14.5326C35.6057 14.2493 36.108 14.0269 36.6248 13.8655C37.1417 13.7041 37.6523 13.6156 38.1568 13.6001C38.3607 13.5927 38.5411 13.6406 38.6981 13.7437C38.8595 13.8303 38.9824 13.9463 39.0668 14.0916C39.2114 14.3406 39.258 14.6119 39.2065 14.9055C39.155 15.1991 38.9995 15.4213 38.7401 15.5719C38.6571 15.6201 38.5628 15.661 38.4574 15.6945C38.3623 15.722 38.2612 15.739 38.1541 15.7458C37.8284 15.7823 37.5022 15.8538 37.1755 15.9603C36.8488 16.0668 36.5246 16.2135 36.2029 16.4003C35.5284 16.7921 35.0105 17.3219 34.6491 17.9898C34.292 18.6413 34.1132 19.3489 34.1126 20.1124C34.1164 20.8596 34.3172 21.5756 34.715 22.2605C35.1068 22.935 35.6292 23.4641 36.2824 23.848C36.9459 24.2258 37.6521 24.4263 38.401 24.4492C39.1542 24.4558 39.868 24.2632 40.5425 23.8715C40.8538 23.6906 41.1782 23.4606 41.5156 23.1814C41.8529 22.9021 42.1108 22.6413 42.2892 22.3989L42.4204 22.9472L40.8744 20.2857L41.2746 20.3654L39.5469 21.369C39.2771 21.5257 38.9976 21.5701 38.7084 21.5022C38.4295 21.4282 38.2117 21.2564 38.055 20.9866C37.8983 20.7168 37.8569 20.4424 37.9308 20.1636C38.0152 19.8787 38.1922 19.6579 38.462 19.5012L41.0146 18.0185C41.2844 17.8618 41.5618 17.8256 41.8467 17.9099C42.1255 17.9838 42.3433 18.1557 42.5 18.4255L44.4167 21.7252C44.5372 21.9328 44.5848 22.1341 44.5594 22.3293C44.5443 22.5184 44.4987 22.6907 44.4224 22.846C44.1138 23.4138 43.7254 23.9516 43.2572 24.4595C42.7933 24.951 42.25 25.3776 41.6274 25.7392Z" fill="#2D89C8"/>
<path d="M49.4024 19.8639C49.5356 20.146 49.5452 20.4334 49.4313 20.7261C49.3122 21.0079 49.117 21.2128 48.8457 21.3409C48.5419 21.4844 48.2542 21.5074 47.9826 21.4101C47.7059 21.3018 47.501 21.1067 47.3678 20.8245L42.9257 11.4165C42.7925 11.1344 42.78 10.8549 42.8882 10.5783C42.9913 10.2907 43.1948 10.0752 43.4986 9.93174C43.759 9.80878 44.033 9.79885 44.3206 9.90195C44.6138 9.98907 44.8271 10.1737 44.9603 10.4558L49.4024 19.8639Z" fill="#2D89C8"/>
<path d="M56.9302 4.51984C57.2204 4.44357 57.4958 4.47663 57.7566 4.61901C58.0259 4.74674 58.1987 4.95568 58.275 5.24582C58.3146 5.39669 58.321 5.56252 58.2941 5.74331L56.6391 16.9358C56.5957 17.1953 56.4906 17.4091 56.3238 17.577C56.1656 17.7303 55.9878 17.8328 55.7905 17.8847C55.6018 17.9219 55.4066 17.9112 55.2051 17.8525C55.0005 17.7822 54.8243 17.6548 54.6765 17.4703L47.7225 8.50358C47.6694 8.4431 47.6279 8.37957 47.5979 8.31298C47.565 8.23479 47.5393 8.16088 47.521 8.09125C47.4326 7.75468 47.4873 7.46732 47.6853 7.22917C47.8802 6.97941 48.0879 6.82555 48.3084 6.76759C48.7494 6.65166 49.1281 6.79408 49.4443 7.19484L55.6135 15.1581L55.0088 15.3357L56.1467 5.43305C56.228 4.94017 56.4892 4.63576 56.9302 4.51984Z" fill="#2D89C8"/>
<path d="M63.9679 2.42661L69.9762 1.91558C70.2871 1.88914 70.5528 1.9689 70.7734 2.15488C71.0049 2.32789 71.1338 2.56983 71.1603 2.8807C71.1857 3.17962 71.0989 3.43389 70.9 3.64351C70.712 3.84015 70.4625 3.95169 70.1517 3.97813L65.1298 4.40526L65.2653 4.08663L65.5627 7.584L65.4071 7.45273L69.6039 7.09577C69.9148 7.06933 70.1805 7.1491 70.4011 7.33507C70.6325 7.50808 70.7615 7.75002 70.788 8.0609C70.8134 8.35982 70.7266 8.61408 70.5277 8.8237C70.3397 9.02034 70.0902 9.13188 69.7793 9.15832L65.6363 9.5107L65.7138 9.35959L66.0219 12.9825L65.8647 12.8333L70.8686 12.4077C71.1795 12.3813 71.4457 12.467 71.6673 12.6649C71.8998 12.8499 72.0278 13.0799 72.0512 13.3549C72.0766 13.6538 71.9898 13.9081 71.7909 14.1177C71.6039 14.3263 71.3549 14.4438 71.0441 14.4702L65.0357 14.9813C64.7249 15.0077 64.4532 14.9285 64.2207 14.7435C63.9991 14.5456 63.8751 14.2912 63.8486 13.9803L62.9669 3.61371C62.9405 3.30283 63.0203 3.03712 63.2062 2.81656C63.4032 2.58303 63.6571 2.45305 63.9679 2.42661Z" fill="#2D89C8"/>
<path d="M80.6171 13.5481C80.285 13.4965 80.028 13.3534 79.8458 13.1187C79.6774 12.874 79.6171 12.5974 79.6649 12.2891L81.261 2.00828C81.3089 1.69997 81.4493 1.46068 81.6822 1.29039C81.9287 1.11008 82.2062 1.04386 82.5145 1.09172L88.2952 1.98919C88.6035 2.03705 88.8428 2.17742 89.0131 2.4103C89.1971 2.63317 89.2652 2.89875 89.2173 3.20706C89.1768 3.46794 89.0342 3.6826 88.7895 3.85104C88.5566 4.02133 88.286 4.08255 87.9777 4.03468L83.1752 3.2891L83.3684 3.10051L82.8134 6.67568L82.7248 6.42512L86.6912 7.04092C86.9996 7.08878 87.2389 7.22915 87.4091 7.46203C87.5931 7.6849 87.6612 7.95048 87.6133 8.25879C87.5728 8.51967 87.4302 8.73433 87.1855 8.90278C86.9526 9.07306 86.682 9.13428 86.3737 9.08641L82.3716 8.46509L82.5566 8.32986L81.8883 12.6343C81.8404 12.9426 81.6873 13.186 81.4288 13.3645C81.1841 13.5329 80.9135 13.5941 80.6171 13.5481Z" fill="#2D89C8"/>
<path d="M102.214 11.6813C101.892 12.5215 101.451 13.252 100.891 13.8727C100.332 14.4934 99.6869 14.9849 98.9565 15.3473C98.2417 15.7028 97.4712 15.9019 96.645 15.9447C95.83 15.9918 95.008 15.8563 94.1789 15.5381C93.3499 15.2199 92.6483 14.7706 92.0741 14.1904C91.4999 13.6101 91.0605 12.9466 90.7558 12.1998C90.4667 11.4462 90.3218 10.6515 90.3212 9.81579C90.3206 8.98009 90.4816 8.14212 90.804 7.30188C91.1265 6.46164 91.5676 5.73116 92.1271 5.11045C92.6867 4.48974 93.3239 4.00166 94.0387 3.64619C94.7691 3.28383 95.5417 3.07909 96.3567 3.03199C97.1717 2.9849 97.9937 3.12044 98.8228 3.43863C99.6518 3.75682 100.353 4.20605 100.928 4.78633C101.513 5.37091 101.95 6.04003 102.239 6.79368C102.544 7.54043 102.697 8.33166 102.697 9.16736C102.698 10.0031 102.537 10.841 102.214 11.6813ZM100.03 10.8428C100.318 10.0922 100.427 9.35635 100.357 8.63528C100.291 7.90301 100.063 7.25658 99.6741 6.69598C99.2852 6.13539 98.7434 5.72179 98.0488 5.4552C97.3542 5.18861 96.6748 5.13352 96.0107 5.28993C95.3465 5.44634 94.7471 5.76898 94.2125 6.25786C93.689 6.75103 93.2811 7.37853 92.9887 8.14035C92.7006 8.89096 92.5839 9.63025 92.6387 10.3582C92.709 11.0793 92.9386 11.7201 93.3276 12.2807C93.7165 12.8413 94.2583 13.2549 94.9529 13.5215C95.6475 13.7881 96.3269 13.8432 96.991 13.6868C97.6552 13.5304 98.2546 13.2077 98.7893 12.7188C99.3282 12.2188 99.7418 11.5934 100.03 10.8428Z" fill="#2D89C8"/>
<path d="M104.873 18.6818C104.589 18.5014 104.391 18.2543 104.277 17.9405C104.171 17.6166 104.201 17.323 104.369 17.0597L109.954 8.28189C110.121 8.01865 110.346 7.85573 110.627 7.79313C110.925 7.72684 111.206 7.77744 111.469 7.94493L115.843 10.7278C116.37 11.0628 116.77 11.5169 117.046 12.0903C117.337 12.66 117.467 13.2831 117.435 13.9595C117.409 14.6259 117.194 15.278 116.788 15.9158C116.543 16.3005 116.224 16.6236 115.83 16.885C115.446 17.1528 115.024 17.3466 114.564 17.4663C114.114 17.5924 113.67 17.6302 113.233 17.5796L113.47 17.24C113.657 17.5722 113.774 17.9026 113.821 18.2312C113.885 18.556 113.89 18.8722 113.836 19.1796C113.8 19.4833 113.704 19.7783 113.551 20.0645C113.43 20.3434 113.314 20.5822 113.201 20.781C113.099 20.9863 113.027 21.1676 112.983 21.325C112.95 21.4888 112.977 21.648 113.063 21.8027C113.202 22.076 113.217 22.3553 113.106 22.6406C113.012 22.9223 112.818 23.1045 112.524 23.1874C112.329 23.2481 112.132 23.244 111.934 23.175C111.743 23.0958 111.571 22.9863 111.418 22.8465C111.272 22.6964 111.162 22.5556 111.089 22.424C110.982 22.2133 110.903 21.957 110.853 21.6551C110.81 21.3431 110.839 20.9846 110.94 20.5796C111.051 20.1811 111.275 19.7186 111.61 19.1922C111.719 19.02 111.789 18.8438 111.818 18.6634C111.854 18.4729 111.848 18.2916 111.801 18.1195C111.761 17.9372 111.671 17.7661 111.531 17.6059C111.397 17.4357 111.214 17.2765 110.981 17.1283L107.914 15.1764L108.364 14.9721L106.267 18.2676C106.099 18.5308 105.887 18.7084 105.629 18.8005C105.378 18.8824 105.126 18.8429 104.873 18.6818ZM108.924 13.6219L112.463 15.8733C112.645 15.9892 112.873 16.021 113.149 15.9685C113.43 15.9059 113.717 15.7683 114.009 15.5557C114.307 15.3329 114.565 15.0494 114.785 14.7052C115.068 14.2597 115.182 13.8129 115.125 13.3647C115.086 12.9128 114.929 12.5999 114.656 12.4259L111.148 10.1938L111.639 9.82383L108.905 14.1216L108.924 13.6219Z" fill="#2D89C8"/>
<path d="M124.323 15.7774L128.798 19.8189C129.03 20.028 129.153 20.2766 129.167 20.5647C129.199 20.852 129.11 21.1114 128.901 21.343C128.7 21.5656 128.455 21.6758 128.166 21.6735C127.894 21.6704 127.642 21.5643 127.411 21.3551L123.67 17.9772L123.995 17.8586L121.643 20.4636L121.633 20.2602L124.759 23.0832C124.99 23.2923 125.113 23.541 125.128 23.8291C125.159 24.1164 125.071 24.3758 124.862 24.6073C124.661 24.83 124.416 24.9401 124.127 24.9379C123.854 24.9347 123.603 24.8286 123.371 24.6195L120.285 21.8327L120.449 21.7861L118.012 24.4846L118.013 24.2678L121.74 27.6337C121.972 27.8428 122.091 28.0959 122.098 28.3929C122.121 28.6891 122.041 28.9396 121.856 29.1445C121.654 29.3671 121.409 29.4773 121.12 29.475C120.84 29.4808 120.585 29.3791 120.353 29.17L115.878 25.1285C115.646 24.9194 115.519 24.6667 115.495 24.3706C115.489 24.0735 115.59 23.8092 115.799 23.5777L122.772 15.8563C122.981 15.6248 123.23 15.5017 123.518 15.487C123.823 15.4715 124.091 15.5683 124.323 15.7774Z" fill="#2D89C8"/>
<path d="M138.743 29.9606C138.925 30.1987 139.002 30.4654 138.971 30.761C138.958 31.0588 138.832 31.299 138.594 31.4816C138.47 31.5765 138.32 31.6466 138.143 31.6917L127.182 34.4974C126.926 34.5578 126.688 34.5436 126.468 34.4548C126.266 34.3682 126.103 34.244 125.978 34.0821C125.871 33.9225 125.805 33.7384 125.781 33.5298C125.767 33.314 125.816 33.1022 125.929 32.8946L131.506 23.0122C131.541 22.9398 131.584 22.8769 131.634 22.8236C131.693 22.7629 131.751 22.7107 131.808 22.6669C132.084 22.455 132.37 22.3943 132.667 22.4847C132.972 22.5677 133.195 22.6997 133.333 22.8806C133.611 23.2424 133.626 23.6466 133.379 24.0934L128.424 32.8637L128.026 32.3748L137.598 29.5915C138.083 29.4758 138.465 29.5989 138.743 29.9606Z" fill="#2D89C8"/>
<path d="M143.171 35.3144L145.985 40.6473C146.131 40.9232 146.161 41.199 146.076 41.4746C146.007 41.7553 145.835 41.9684 145.559 42.114C145.293 42.2541 145.025 42.2734 144.755 42.172C144.5 42.0756 144.3 41.8894 144.155 41.6135L141.802 37.1562L142.148 37.1566L139.044 38.7949L139.104 38.6004L141.07 42.3254C141.216 42.6013 141.246 42.8771 141.161 43.1527C141.092 43.4334 140.92 43.6465 140.644 43.7921C140.378 43.9322 140.11 43.9515 139.84 43.8501C139.585 43.7537 139.385 43.5675 139.24 43.2916L137.299 39.6143L137.468 39.6267L134.253 41.3238L134.329 41.1208L136.673 45.5622C136.818 45.8382 136.843 46.1167 136.747 46.398C136.668 46.6842 136.506 46.8917 136.262 47.0206C135.997 47.1606 135.729 47.1799 135.458 47.0785C135.193 46.9877 134.988 46.8043 134.842 46.5284L132.028 41.1956C131.882 40.9196 131.849 40.6385 131.928 40.3523C132.024 40.0711 132.21 39.8576 132.486 39.712L141.687 34.8559C141.963 34.7102 142.239 34.68 142.515 34.7652C142.806 34.8554 143.025 35.0385 143.171 35.3144Z" fill="#2D89C8"/>
<path d="M137.806 50.5825C137.711 50.2602 137.723 49.9436 137.844 49.6326C137.976 49.3182 138.192 49.1168 138.491 49.0284L148.469 46.0796C148.768 45.9911 149.044 46.0158 149.298 46.1537C149.566 46.2996 149.745 46.5221 149.833 46.8213L151.302 51.7928C151.479 52.3912 151.483 52.9969 151.314 53.61C151.16 54.2312 150.848 54.7862 150.379 55.2751C149.922 55.7606 149.331 56.1105 148.606 56.3248C148.169 56.454 147.716 56.4878 147.247 56.4261C146.782 56.3759 146.336 56.2448 145.911 56.0327C145.489 55.8321 145.129 55.5692 144.833 55.2438L145.235 55.1438C145.158 55.517 145.029 55.8429 144.848 56.1215C144.683 56.4081 144.479 56.6498 144.237 56.8465C144.01 57.0514 143.744 57.2112 143.44 57.326C143.166 57.4571 142.921 57.5607 142.706 57.6368C142.494 57.7245 142.32 57.8134 142.184 57.9036C142.052 58.0054 141.967 58.143 141.931 58.3164C141.856 58.6138 141.683 58.8338 141.413 58.9763C141.157 59.127 140.891 59.1368 140.614 59.0058C140.427 58.9235 140.282 58.7913 140.178 58.6092C140.086 58.4238 140.028 58.2282 140.005 58.0223C139.993 57.8131 140.003 57.635 140.034 57.488C140.092 57.2583 140.201 57.0134 140.362 56.7531C140.534 56.4895 140.791 56.2382 141.134 55.9994C141.479 55.7721 141.951 55.57 142.55 55.3931C142.745 55.3353 142.914 55.2481 143.054 55.1314C143.207 55.0113 143.321 54.871 143.399 54.7104C143.488 54.5464 143.533 54.3581 143.532 54.1454C143.544 53.9294 143.51 53.689 143.432 53.4244L142.401 49.9375L142.875 50.079L139.129 51.1861C138.83 51.2746 138.553 51.2688 138.298 51.1689C138.055 51.0656 137.891 50.8701 137.806 50.5825ZM144.184 49.4292L145.373 53.4513C145.434 53.6584 145.586 53.8326 145.828 53.9738C146.081 54.1116 146.388 54.1962 146.748 54.2275C147.119 54.2555 147.5 54.2117 147.891 54.096C148.398 53.9464 148.777 53.6841 149.029 53.3093C149.296 52.9426 149.383 52.6039 149.292 52.2932L148.113 48.3057L148.727 48.3496L143.842 49.7933L144.184 49.4292Z" fill="#2D89C8"/>
</svg>
