<?xml version="1.0" encoding="iso-8859-1"?>
<!-- Generator: Adobe Illustrator 19.0.0, SVG Export Plug-In . SVG Version: 6.00 Build 0)  -->
<svg version="1.1" id="Layer_1" xmlns="http://www.w3.org/2000/svg" xmlns:xlink="http://www.w3.org/1999/xlink" x="0px" y="0px"
	 viewBox="0 0 512 512" style="enable-background:new 0 0 512 512;" xml:space="preserve">
<path style="fill:#4FC0E8;" d="M512,256.006C512,397.402,397.394,512.004,256.004,512C114.606,512.004,0,397.402,0,256.006
	C-0.007,114.61,114.606,0,256.004,0C397.394,0,512,114.614,512,256.006z"/>
<path style="fill:#3DAED9;" d="M511.675,268.88c-0.179-0.178-0.356-0.359-0.538-0.538c-0.495-0.5-132.491-132.497-132.993-132.993
	C346.976,103.798,303.748,84.187,256,84.187c-94.737,0-171.813,77.076-171.813,171.813c0,47.748,19.612,90.975,51.164,122.144
	c0.496,0.502,132.491,132.497,132.992,132.993c0.178,0.181,0.359,0.358,0.539,0.539C400.022,505.182,505.18,400.025,511.675,268.88z
	"/>
<g>
	<path style="fill:#F4F6F9;" d="M256,323.231c-8.257,0-14.94,6.695-14.94,14.941c0,8.257,6.683,14.94,14.94,14.94
		c8.244,0,14.94-6.683,14.94-14.94C270.94,329.927,264.244,323.231,256,323.231z"/>
	<path style="fill:#F4F6F9;" d="M256,84.187c-94.737,0-171.813,77.076-171.813,171.813S161.263,427.813,256,427.813
		S427.813,350.737,427.813,256S350.737,84.187,256,84.187z M256,412.873c-86.501,0-156.873-70.371-156.873-156.873
		S169.499,99.127,256,99.127S412.873,169.499,412.873,256S342.501,412.873,256,412.873z"/>
	<path style="fill:#F4F6F9;" d="M256,151.419c-26.773,0-48.556,22.341-48.556,49.799c0,4.126,3.345,7.47,7.47,7.47
		c4.126,0,7.47-3.345,7.47-7.47c0-19.222,15.078-34.86,33.616-34.86c18.538,0,33.616,15.265,33.616,34.031
		c0,18.128-15.71,34.028-33.616,34.028c-4.126,0-7.47,3.345-7.47,7.47v43.993c0,4.126,3.345,7.47,7.47,7.47
		c4.125,0,7.47-3.345,7.47-7.47v-37.129c22.925-3.749,41.086-24.372,41.086-48.363C304.556,173.388,282.773,151.419,256,151.419z"/>
</g>
<g>
</g>
<g>
</g>
<g>
</g>
<g>
</g>
<g>
</g>
<g>
</g>
<g>
</g>
<g>
</g>
<g>
</g>
<g>
</g>
<g>
</g>
<g>
</g>
<g>
</g>
<g>
</g>
<g>
</g>
</svg>
